<svg width="61" height="22" viewBox="0 0 61 22" fill="none" xmlns="http://www.w3.org/2000/svg">
<rect x="0.927643" y="0.205078" width="59.6513" height="21.2852" rx="10.6426" fill="#E85660"/>
<path d="M24.5217 15.2051V7.20508H25.9709V13.9902H29.4943V15.2051H24.5217ZM33.3068 15.3223C32.7209 15.3223 32.2131 15.1934 31.7834 14.9355C31.3537 14.6777 31.0204 14.3171 30.7834 13.8535C30.549 13.39 30.4318 12.8483 30.4318 12.2285C30.4318 11.6087 30.549 11.0658 30.7834 10.5996C31.0204 10.1335 31.3537 9.77148 31.7834 9.51367C32.2131 9.25586 32.7209 9.12695 33.3068 9.12695C33.8928 9.12695 34.4006 9.25586 34.8303 9.51367C35.2599 9.77148 35.592 10.1335 35.8264 10.5996C36.0633 11.0658 36.1818 11.6087 36.1818 12.2285C36.1818 12.8483 36.0633 13.39 35.8264 13.8535C35.592 14.3171 35.2599 14.6777 34.8303 14.9355C34.4006 15.1934 33.8928 15.3223 33.3068 15.3223ZM33.3146 14.1895C33.6323 14.1895 33.898 14.1022 34.1115 13.9277C34.3251 13.7507 34.4839 13.5137 34.5881 13.2168C34.6948 12.9199 34.7482 12.5892 34.7482 12.2246C34.7482 11.8574 34.6948 11.5254 34.5881 11.2285C34.4839 10.929 34.3251 10.6908 34.1115 10.5137C33.898 10.3366 33.6323 10.248 33.3146 10.248C32.9891 10.248 32.7183 10.3366 32.5021 10.5137C32.2886 10.6908 32.1284 10.929 32.0217 11.2285C31.9175 11.5254 31.8654 11.8574 31.8654 12.2246C31.8654 12.5892 31.9175 12.9199 32.0217 13.2168C32.1284 13.5137 32.2886 13.7507 32.5021 13.9277C32.7183 14.1022 32.9891 14.1895 33.3146 14.1895ZM41.2062 12.6816V9.20508H42.6203V15.2051H41.2492V14.1387H41.1867C41.0513 14.4746 40.8286 14.7493 40.5187 14.9629C40.2114 15.1764 39.8325 15.2832 39.382 15.2832C38.9888 15.2832 38.6411 15.196 38.3391 15.0215C38.0396 14.8444 37.8052 14.5879 37.6359 14.252C37.4667 13.9134 37.382 13.5046 37.382 13.0254V9.20508H38.7961V12.8066C38.7961 13.1868 38.9002 13.4889 39.1086 13.7129C39.3169 13.9368 39.5904 14.0488 39.9289 14.0488C40.1372 14.0488 40.3391 13.998 40.5344 13.8965C40.7297 13.7949 40.8898 13.6439 41.0148 13.4434C41.1424 13.2402 41.2062 12.9863 41.2062 12.6816ZM44.0744 17.4551V9.20508H45.465V10.1973H45.5471C45.62 10.0514 45.7228 9.89648 45.8557 9.73242C45.9885 9.56575 46.1682 9.42383 46.3947 9.30664C46.6213 9.18685 46.9103 9.12695 47.2619 9.12695C47.7254 9.12695 48.1434 9.24544 48.5158 9.48242C48.8908 9.7168 49.1877 10.0645 49.4064 10.5254C49.6278 10.9837 49.7385 11.5462 49.7385 12.2129C49.7385 12.8717 49.6304 13.4316 49.4142 13.8926C49.1981 14.3535 48.9038 14.7051 48.5314 14.9473C48.159 15.1895 47.7372 15.3105 47.2658 15.3105C46.9221 15.3105 46.6369 15.2533 46.4103 15.1387C46.1838 15.0241 46.0015 14.8861 45.8635 14.7246C45.728 14.5605 45.6226 14.4056 45.5471 14.2598H45.4885V17.4551H44.0744ZM45.4611 12.2051C45.4611 12.5931 45.5158 12.9329 45.6252 13.2246C45.7372 13.5163 45.8973 13.7441 46.1057 13.9082C46.3166 14.0697 46.5718 14.1504 46.8713 14.1504C47.1838 14.1504 47.4455 14.0671 47.6564 13.9004C47.8674 13.7311 48.0262 13.5007 48.133 13.209C48.2424 12.9147 48.2971 12.5801 48.2971 12.2051C48.2971 11.8327 48.2437 11.502 48.1369 11.2129C48.0301 10.9238 47.8713 10.6973 47.6603 10.5332C47.4494 10.3691 47.1864 10.2871 46.8713 10.2871C46.5692 10.2871 46.3127 10.3665 46.1017 10.5254C45.8908 10.6842 45.7307 10.9069 45.6213 11.1934C45.5145 11.4798 45.4611 11.8171 45.4611 12.2051ZM55.6916 10.791L54.4025 10.9316C54.3661 10.8014 54.3023 10.679 54.2111 10.5645C54.1226 10.4499 54.0028 10.3574 53.8517 10.2871C53.7007 10.2168 53.5158 10.1816 53.2971 10.1816C53.0028 10.1816 52.7554 10.2454 52.5549 10.373C52.357 10.5007 52.2593 10.666 52.2619 10.8691C52.2593 11.0436 52.3231 11.1855 52.4533 11.2949C52.5861 11.4043 52.8049 11.4941 53.1096 11.5645L54.133 11.7832C54.7007 11.9056 55.1226 12.0996 55.3986 12.3652C55.6773 12.6309 55.8179 12.9785 55.8205 13.4082C55.8179 13.7858 55.7072 14.1191 55.4885 14.4082C55.2723 14.6947 54.9715 14.9186 54.5861 15.0801C54.2007 15.2415 53.758 15.3223 53.258 15.3223C52.5236 15.3223 51.9325 15.1686 51.4846 14.8613C51.0366 14.5514 50.7697 14.1204 50.6838 13.5684L52.0627 13.4355C52.1252 13.7064 52.258 13.9108 52.4611 14.0488C52.6642 14.1868 52.9286 14.2559 53.2541 14.2559C53.59 14.2559 53.8596 14.1868 54.0627 14.0488C54.2684 13.9108 54.3713 13.7402 54.3713 13.5371C54.3713 13.3652 54.3049 13.2233 54.1721 13.1113C54.0418 12.9993 53.8387 12.9134 53.5627 12.8535L52.5392 12.6387C51.9637 12.5189 51.5379 12.3171 51.2619 12.0332C50.9859 11.7467 50.8491 11.3848 50.8517 10.9473C50.8491 10.5775 50.9494 10.2572 51.1525 9.98633C51.3583 9.71289 51.6434 9.50195 52.008 9.35352C52.3752 9.20247 52.7984 9.12695 53.2775 9.12695C53.9807 9.12695 54.534 9.27669 54.9377 9.57617C55.3439 9.87565 55.5952 10.2806 55.6916 10.791Z" fill="#061F31"/>
<path d="M7.94891 18.8025C7.93355 18.776 7.88736 18.7363 7.84626 18.7143C7.78207 18.6799 7.76875 18.6852 7.75173 18.7516C7.73219 18.8279 7.73087 18.828 7.65862 18.7613C7.60383 18.7107 7.57039 18.7027 7.52616 18.7295C7.44325 18.7798 7.35519 18.7527 7.33411 18.6705C7.32316 18.6277 7.27461 18.5923 7.2083 18.5788C7.14892 18.5667 7.10033 18.5443 7.10033 18.5291C7.10033 18.5139 7.04907 18.5015 6.98642 18.5015C6.92377 18.5015 6.81769 18.4777 6.7507 18.4486L6.62889 18.3957L6.76075 18.4045C6.83327 18.4094 6.89972 18.4016 6.90841 18.3872C6.91711 18.3729 6.99135 18.3743 7.07339 18.3904C7.20731 18.4167 7.22983 18.4108 7.29371 18.3323C7.33284 18.2842 7.39963 18.2449 7.44213 18.2449C7.48462 18.2449 7.51939 18.2283 7.51939 18.208C7.51939 18.184 7.54068 18.1827 7.5805 18.2044C7.69488 18.2666 8.15065 18.2264 8.40041 18.1322C8.66113 18.0338 8.77655 17.9463 8.77655 17.8473C8.77655 17.7841 8.70073 17.7589 8.56703 17.7777C8.53822 17.7817 8.43607 17.7893 8.34004 17.7944C8.23362 17.8001 8.16854 17.8194 8.17339 17.8438C8.17864 17.8702 8.14019 17.8769 8.06019 17.8637C7.99153 17.8523 7.91837 17.8611 7.89136 17.884C7.86385 17.9073 7.79727 17.9149 7.734 17.902C7.66646 17.8882 7.60391 17.8969 7.5712 17.9246C7.52785 17.9613 7.50645 17.9589 7.45487 17.9112C7.37454 17.837 7.3219 17.8372 7.28097 17.9119C7.25153 17.9656 7.23907 17.964 7.14289 17.8941C7.02819 17.8107 6.96064 17.7959 6.96064 17.8541C6.96064 17.9078 6.82124 17.8259 6.81986 17.7714C6.81807 17.7006 6.6749 17.6156 6.48886 17.5747C6.39301 17.5537 6.2596 17.5106 6.19237 17.479C6.07173 17.4223 6.07411 17.4218 6.3767 17.4415C6.6331 17.4581 6.68664 17.4524 6.70396 17.4063C6.74224 17.3045 6.92659 17.2547 7.13578 17.2896C7.6683 17.3784 7.74401 17.3802 8.15255 17.3141C8.37594 17.278 8.59987 17.2325 8.65017 17.2129C8.76765 17.1674 8.77156 17.0386 8.65875 16.9304C8.58304 16.8578 8.57108 16.8559 8.52042 16.9076C8.47482 16.9541 8.45267 16.9563 8.39572 16.92C8.33838 16.8835 8.31512 16.8864 8.26037 16.937C8.21311 16.9806 8.16279 16.9916 8.08381 16.9755C7.99608 16.9576 7.97336 16.9648 7.97336 17.0108C7.97336 17.0742 7.91355 17.0854 7.83773 17.0364C7.8106 17.0189 7.74392 17.0185 7.68573 17.0355C7.61711 17.0556 7.53603 17.0497 7.44595 17.018C7.33077 16.9775 7.30986 16.9777 7.30986 17.0194C7.30986 17.0846 7.2594 17.082 7.20402 17.0139C7.17952 16.9838 7.13438 16.9623 7.10371 16.966C7.07304 16.9698 7.00282 16.954 6.94767 16.931C6.87718 16.9014 6.83424 16.9001 6.80316 16.9264C6.73925 16.9806 6.60592 16.9095 6.53508 16.7835C6.49698 16.7158 6.38295 16.6316 6.20373 16.539C5.89147 16.3776 5.91263 16.3105 6.23958 16.4253C6.43729 16.4948 6.4435 16.4949 6.51199 16.4298C6.63973 16.3083 6.86027 16.3181 7.22119 16.4614C7.27806 16.4839 7.3596 16.4934 7.40239 16.4825C7.44518 16.4715 7.49096 16.4803 7.50413 16.5021C7.52039 16.5289 7.61354 16.534 7.79437 16.5178C7.94083 16.5047 8.14556 16.4863 8.24933 16.477C8.4237 16.4612 8.63687 16.3571 8.63687 16.2877C8.63687 16.2468 8.51558 16.142 8.46824 16.142C8.44575 16.142 8.42734 16.1581 8.42734 16.1777C8.42734 16.2241 8.29825 16.224 8.27014 16.1776C8.25567 16.1537 8.2268 16.1537 8.18307 16.1776C8.09293 16.2268 7.9824 16.2224 7.96337 16.1688C7.95093 16.1337 7.93234 16.1334 7.87614 16.1672C7.81867 16.2017 7.79659 16.2001 7.76315 16.159C7.73184 16.1205 7.70467 16.1171 7.65306 16.1453C7.60181 16.1733 7.56425 16.1692 7.50403 16.1289C7.45974 16.0993 7.39 16.084 7.34904 16.0949C7.30808 16.1058 7.25104 16.0949 7.22228 16.0705C7.1911 16.0441 7.12731 16.0349 7.06421 16.0478C6.97324 16.0664 6.9536 16.0565 6.92399 15.977C6.89803 15.9073 6.87187 15.8893 6.81772 15.9037C6.74314 15.9236 6.61143 15.8358 6.61143 15.7662C6.61143 15.7145 6.34916 15.5836 6.18364 15.5527C6.11162 15.5392 6.05269 15.5139 6.05269 15.4965C6.05269 15.4585 6.42626 15.4586 6.52152 15.4968C6.56666 15.5148 6.60909 15.5029 6.65061 15.4605C6.72752 15.382 7.02009 15.3973 7.15388 15.4868C7.20245 15.5192 7.25163 15.5362 7.26316 15.5244C7.27469 15.5126 7.31741 15.5219 7.3581 15.545C7.39879 15.5681 7.47302 15.5892 7.52305 15.5919C7.57308 15.5946 7.63352 15.6092 7.65736 15.6242C7.71328 15.6595 8.51312 15.6842 8.66757 15.6554C8.74167 15.6416 8.7919 15.6087 8.80259 15.567C8.81196 15.5304 8.83989 15.5005 8.86466 15.5005C8.93677 15.5005 8.88534 15.3744 8.78116 15.2958C8.72929 15.2567 8.60882 15.2147 8.51344 15.2025C8.41807 15.1903 8.30586 15.1733 8.26409 15.1648C8.16697 15.1449 7.90352 14.8855 7.90352 14.8097C7.90352 14.778 7.88901 14.752 7.87128 14.752C7.85354 14.752 7.79461 14.7156 7.74032 14.671C7.68603 14.6264 7.59447 14.5848 7.53685 14.5784C7.47923 14.5721 7.42423 14.5585 7.41462 14.5482C7.38702 14.5185 7.87286 14.5773 7.97128 14.6154C8.02004 14.6344 8.11117 14.64 8.1738 14.6281C8.24333 14.6147 8.28765 14.6208 8.28765 14.6435C8.28765 14.6898 8.42893 14.6919 8.54379 14.6474C8.61515 14.6197 8.63289 14.6258 8.64756 14.683C8.65866 14.7263 8.69576 14.7522 8.74709 14.7525C8.88203 14.7533 8.98608 14.793 8.98608 14.8436C8.98608 14.8871 9.18307 14.9652 9.29371 14.9657C9.31885 14.9658 9.32928 14.9826 9.31689 15.0031C9.27243 15.0765 9.37546 15.1486 9.48859 15.1232C9.58117 15.1025 9.5899 15.1065 9.55244 15.1526C9.4874 15.2325 9.58253 15.2995 9.718 15.2692C9.81489 15.2475 9.82419 15.2534 9.82419 15.3373C9.82419 15.4377 9.86876 15.4508 10.0154 15.3939C10.0931 15.3638 10.105 15.3677 10.0963 15.4207C10.0895 15.4619 10.1124 15.4865 10.1647 15.4941C10.2079 15.5004 10.2433 15.5183 10.2433 15.534C10.2433 15.5496 10.3327 15.5645 10.442 15.5671C10.5513 15.5697 10.6495 15.586 10.6602 15.6034C10.671 15.6208 10.7387 15.6313 10.8107 15.6267C10.8827 15.6222 10.9417 15.6284 10.9417 15.6405C10.9417 15.6526 11.0438 15.6672 11.1687 15.673C11.3557 15.6815 11.3957 15.6735 11.3957 15.6276C11.3957 15.5969 11.3779 15.5718 11.3561 15.5718C11.3343 15.5718 11.291 15.5437 11.2597 15.5094C11.2284 15.4751 11.1644 15.4248 11.1175 15.3977C11.0486 15.3578 11.0293 15.3571 11.0171 15.3944C11.0079 15.4225 10.9431 15.3723 10.851 15.2656C10.7185 15.1121 10.6997 15.1008 10.6986 15.1729C10.6968 15.2836 10.6384 15.2408 10.6098 15.1078C10.5836 14.986 10.4842 14.9124 10.426 14.9718C10.3994 14.999 10.3678 14.9684 10.3164 14.8656C10.2258 14.6844 10.1817 14.6561 10.1198 14.7396C10.0739 14.8014 10.0708 14.7996 10.0698 14.71C10.068 14.5573 9.89246 14.4281 9.84846 14.5471C9.83941 14.5716 9.80578 14.5299 9.77375 14.4544C9.72933 14.3496 9.69992 14.3212 9.64975 14.3346C9.59761 14.3485 9.57449 14.3217 9.53821 14.2049C9.49094 14.0528 9.38715 13.9892 9.33275 14.079C9.3036 14.1272 9.25533 14.0371 9.22554 13.8788C9.21748 13.8361 9.18436 13.8075 9.14275 13.8075C9.05984 13.8075 9.02226 13.7625 9.02154 13.6623C9.02088 13.579 8.87249 13.4185 8.83318 13.4587C8.79497 13.4977 8.74041 13.3891 8.76224 13.3175C8.81214 13.1538 8.62868 12.9936 8.51927 13.1053C8.46654 13.1591 8.46181 13.1582 8.45629 13.0934C8.44453 12.9556 8.43574 12.9149 8.39257 12.7979C8.35565 12.6979 8.33578 12.6827 8.26584 12.7006C8.17879 12.7229 8.18005 12.7258 8.16922 12.471C8.16606 12.3967 8.14944 12.383 8.0694 12.3886C7.97978 12.3948 7.97336 12.3859 7.97336 12.2549C7.97336 12.1537 7.9587 12.1145 7.92085 12.1145C7.88306 12.1145 7.87082 12.0821 7.8772 11.9987C7.88456 11.9024 7.87281 11.881 7.80749 11.8715C7.73609 11.8611 7.72891 11.8408 7.72891 11.6487C7.72891 11.4312 7.69168 11.3859 7.59171 11.4819C7.55337 11.5187 7.54828 11.4955 7.56239 11.3482C7.58491 11.1135 7.55193 10.9921 7.46534 10.9909C7.39448 10.99 7.39435 10.989 7.42924 10.7119C7.44397 10.5949 7.43576 10.5716 7.37416 10.5551C7.31054 10.5382 7.30429 10.517 7.32261 10.3807C7.33497 10.2886 7.32952 10.2255 7.30919 10.2255C7.29035 10.2255 7.27494 10.1915 7.27494 10.1499C7.27494 10.0835 7.26782 10.0802 7.21708 10.1231C7.16429 10.1678 7.1615 10.1596 7.18522 10.0295C7.2156 9.86298 7.21453 9.87461 7.20923 9.76869C7.20594 9.703 7.1908 9.69072 7.13525 9.70872C7.05175 9.73576 7.04446 9.67925 7.11391 9.5434C7.1579 9.45734 7.15363 9.26319 7.10773 9.26319C7.09708 9.26319 7.05844 9.29083 7.02188 9.3246C6.95768 9.3839 6.95619 9.38237 6.97832 9.28005C6.99092 9.22177 7.01746 9.13027 7.03729 9.07671C7.08511 8.9476 7.04961 8.85771 6.96021 8.88157C6.87661 8.90388 6.87579 8.8972 6.94527 8.76007C7.02245 8.60774 6.99971 8.46437 6.89601 8.44939C6.82564 8.43922 6.81743 8.42395 6.83853 8.34246C6.85207 8.29018 6.86544 8.18324 6.86824 8.10483C6.87262 7.98223 6.86233 7.96067 6.79476 7.95087C6.70343 7.93763 6.69474 7.90005 6.76857 7.83752C6.83684 7.77969 6.8349 7.71428 6.76275 7.64064C6.71346 7.59034 6.71089 7.56336 6.74592 7.46448C6.79332 7.3307 6.76847 7.22704 6.69583 7.25549C6.63092 7.28091 6.63278 7.23468 6.69971 7.1592C6.7769 7.07215 6.71071 6.89648 6.61269 6.92823C6.54659 6.94965 6.54593 6.94441 6.59393 6.77915C6.63351 6.64284 6.6438 6.4537 6.6154 6.38429C6.61321 6.37894 6.57186 6.40101 6.52352 6.43334C6.43993 6.48923 6.43674 6.48884 6.45855 6.42525C6.47117 6.38848 6.50363 6.34 6.53069 6.31754C6.57256 6.28279 6.57009 6.26025 6.51404 6.16619C6.47783 6.10541 6.43778 6.06632 6.42504 6.07932C6.41231 6.09232 6.40189 6.08744 6.40189 6.0685C6.40189 6.04955 6.41893 6.01665 6.43977 5.99539C6.49988 5.93403 6.4649 5.78629 6.39316 5.79859C6.3277 5.80981 6.30739 5.71877 6.36697 5.68119C6.42582 5.64406 6.40606 5.55746 6.31829 5.46788C6.27231 5.42095 6.2441 5.37295 6.2556 5.36121C6.26711 5.34947 6.27809 5.2758 6.28002 5.19751C6.28256 5.09407 6.27105 5.06004 6.23794 5.07301C6.18256 5.0947 6.1808 5.0748 6.22983 4.9813C6.25654 4.93037 6.25649 4.87815 6.2297 4.79955C6.19907 4.70987 6.20264 4.6773 6.24884 4.6252C6.30821 4.55824 6.29329 4.45154 6.22457 4.45154C6.20263 4.45154 6.21995 4.4224 6.26304 4.38678C6.32889 4.33236 6.33507 4.30995 6.30174 4.24638C6.2757 4.19672 6.2741 4.16315 6.29709 4.14865C6.31635 4.1365 6.33211 4.10132 6.33211 4.07047C6.33211 4.03962 6.36048 3.98844 6.39516 3.95674C6.45754 3.89971 6.61098 3.47379 6.61201 3.35481C6.61254 3.30175 6.61746 3.30061 6.64794 3.34664C6.66886 3.37825 6.67445 3.49721 6.66162 3.63766C6.64168 3.85578 6.64602 3.87856 6.71467 3.91606C6.76786 3.94511 6.78308 3.97734 6.76742 4.02772C6.7553 4.06667 6.76372 4.12109 6.78614 4.14865C6.81634 4.18579 6.81754 4.26147 6.79078 4.44099C6.75031 4.71256 6.81549 5.34665 6.88635 5.37076C6.90803 5.37815 6.92577 5.41307 6.92577 5.44839C6.92577 5.5161 7.06363 5.62773 7.14725 5.62773C7.17439 5.62773 7.21598 5.60388 7.23968 5.57473C7.29414 5.50776 7.25666 5.34259 7.18701 5.34259C7.12602 5.34259 7.12331 5.32513 7.17034 5.23543C7.19744 5.18375 7.19056 5.158 7.13999 5.12185C7.07167 5.07301 7.06658 5.03696 7.06544 4.59411C7.06425 4.14696 7.07025 4.09101 7.12122 4.07104C7.19842 4.04081 7.17835 3.95256 7.09429 3.95256H7.01836L7.09429 3.87006C7.17757 3.77959 7.19538 3.6676 7.12657 3.66711C7.10256 3.66698 7.1412 3.61041 7.21245 3.54149C7.30013 3.45667 7.3487 3.37327 7.36277 3.28339C7.3742 3.21036 7.39842 3.12276 7.41658 3.08872C7.43473 3.05468 7.44959 2.99454 7.44959 2.95507C7.44959 2.91559 7.46138 2.8833 7.47578 2.8833C7.49019 2.8833 7.50384 2.99958 7.50611 3.1417C7.50929 3.34044 7.52834 3.43114 7.58857 3.53451C7.63444 3.61323 7.65899 3.69972 7.64783 3.74328C7.63735 3.78418 7.6426 3.85477 7.65951 3.90016C7.68169 3.9597 7.67579 3.99492 7.63833 4.02665C7.60503 4.05486 7.58765 4.12934 7.58987 4.23436C7.59177 4.3244 7.58252 4.48278 7.56929 4.5863C7.54051 4.81167 7.66162 5.31122 7.77676 5.44209C7.88013 5.55957 7.98801 5.53324 8.00181 5.38714C8.00806 5.32092 7.99655 5.27131 7.97495 5.27131C7.95219 5.27131 7.94577 5.23628 7.9588 5.18325C7.97312 5.12503 7.96084 5.07518 7.92254 5.03609C7.88866 5.00151 7.87435 4.953 7.88805 4.9192C7.94939 4.76795 7.9469 4.73225 7.87365 4.7127C7.83291 4.70183 7.80815 4.67878 7.81863 4.66148C7.84495 4.61802 7.87575 4.48687 7.88467 4.38026C7.88878 4.33125 7.90434 4.26282 7.91927 4.22819C7.93419 4.19355 7.93825 4.12172 7.92829 4.06855C7.91656 4.00591 7.934 3.93775 7.97783 3.87493C8.02278 3.8105 8.03818 3.74834 8.02374 3.68963C7.99735 3.5823 8.03277 3.45401 8.08925 3.45238C8.20299 3.44912 8.39246 3.13174 8.39246 2.94448C8.39246 2.91083 8.41045 2.8833 8.43243 2.8833C8.46056 2.8833 8.46606 2.95259 8.45101 3.1171C8.43519 3.29004 8.44421 3.38813 8.48567 3.49388C8.54657 3.64922 8.53087 4.07129 8.4591 4.20816C8.41376 4.29463 8.39994 4.94115 8.43848 5.17329C8.47024 5.36464 8.53327 5.39272 8.62173 5.25493C8.65906 5.19679 8.6704 5.13193 8.65541 5.0623C8.64187 4.99938 8.64839 4.94749 8.67168 4.9328C8.69892 4.91562 8.69358 4.88186 8.65386 4.81998C8.6015 4.73842 8.60156 4.72484 8.65465 4.64219C8.68624 4.59298 8.70299 4.52849 8.69186 4.49889C8.68073 4.46929 8.70534 4.39675 8.74654 4.3377C8.8082 4.24931 8.81285 4.22485 8.77285 4.19937C8.73384 4.17453 8.73976 4.15727 8.80282 4.11193C8.88543 4.05254 8.91104 3.91691 8.83965 3.91691C8.81669 3.91691 8.8599 3.8577 8.93568 3.78532C9.0471 3.6789 9.06177 3.65112 9.01235 3.64014C8.93908 3.62385 8.93024 3.5605 9.00124 3.5605C9.02874 3.5605 9.08481 3.51238 9.12584 3.45357C9.16687 3.39476 9.22028 3.34664 9.24454 3.34664C9.29035 3.34664 9.31718 3.30118 9.4391 3.01696C9.47904 2.92384 9.52436 2.84766 9.53982 2.84766C9.55528 2.84766 9.54686 2.95221 9.52111 3.07999C9.4774 3.2969 9.47905 3.32184 9.54594 3.45566C9.5938 3.55141 9.6126 3.64326 9.60258 3.73233C9.58661 3.87419 9.36797 4.34391 9.28533 4.41392C9.2581 4.43698 9.24272 4.49371 9.25102 4.54046C9.2593 4.58706 9.25155 4.63438 9.2337 4.64562C9.16765 4.68728 9.17542 5.66372 9.24214 5.70704C9.32098 5.75823 9.43259 5.73387 9.48301 5.65446C9.51101 5.61035 9.5443 5.47112 9.55699 5.34505C9.58512 5.06554 9.6369 4.97981 9.86352 4.83749C9.99948 4.75211 10.0591 4.68411 10.1278 4.53593C10.1766 4.43071 10.2325 4.34462 10.2519 4.34462C10.2944 4.34462 10.2553 4.63581 10.2088 4.66511C10.171 4.68899 10.1558 5.01676 10.1888 5.09741C10.2036 5.13369 10.1922 5.16311 10.158 5.17648C10.1201 5.19133 10.1036 5.2456 10.1036 5.35548C10.1036 5.46277 10.0869 5.51973 10.0513 5.53369C10.0184 5.54657 9.99887 5.60107 9.99887 5.68007C9.99887 5.76347 9.98257 5.80593 9.95056 5.80593C9.90117 5.80593 9.86051 5.90977 9.85966 6.03807C9.8594 6.07797 9.82431 6.12542 9.78061 6.14499C9.73739 6.16434 9.69698 6.2165 9.69081 6.2609C9.68463 6.30529 9.66709 6.33374 9.65182 6.32411C9.59741 6.28979 9.50312 6.44514 9.49951 6.57506C9.49749 6.64774 9.48985 6.68886 9.48254 6.66645C9.44405 6.5486 9.30044 6.68239 9.30044 6.83609C9.30044 6.88156 9.28322 6.90186 9.25428 6.89052C9.20032 6.86938 9.10985 7.03931 9.12279 7.13749C9.1277 7.17475 9.11604 7.194 9.09617 7.18146C9.02442 7.13621 8.98739 7.3219 9.03641 7.4811C9.05885 7.554 9.0555 7.5621 9.01801 7.52566C8.93711 7.44701 8.91969 7.47691 8.9309 7.67515C8.93857 7.8108 8.92809 7.8746 8.89607 7.88714C8.86436 7.89956 8.85621 7.94678 8.8696 8.0406C8.8913 8.19274 9.01246 8.47908 9.05513 8.47908C9.10173 8.47908 9.19735 8.23988 9.17477 8.17981C9.16037 8.1415 9.18813 8.10347 9.26173 8.06072C9.36271 8.00206 9.41331 7.87317 9.33536 7.87317C9.2588 7.87317 9.30722 7.80194 9.42138 7.74665C9.54872 7.68498 9.5961 7.60154 9.55933 7.50375C9.54302 7.46036 9.56981 7.4312 9.66218 7.39181C9.73088 7.36251 9.81903 7.33854 9.85806 7.33854C9.94329 7.33854 9.94685 7.30909 9.87442 7.20354C9.82229 7.12758 9.82491 7.12116 9.93227 7.06196C9.99412 7.02785 10.0755 6.96998 10.1132 6.93336C10.1689 6.87921 10.1728 6.86091 10.1339 6.83534C10.0682 6.79207 10.1473 6.74002 10.3249 6.70974C10.4547 6.68761 10.5428 6.59095 10.4591 6.56249C10.3773 6.53465 10.421 6.49152 10.576 6.44723C10.7503 6.39743 10.795 6.35479 10.7362 6.29469C10.6695 6.22662 10.6917 6.20639 10.8806 6.16314C11.1674 6.09749 11.1644 6.09933 11.098 6.03164C11.0434 5.97589 11.0458 5.96872 11.1341 5.92146C11.1861 5.89366 11.2566 5.87839 11.2909 5.88752C11.3595 5.90585 11.3899 5.88973 11.4611 5.79702C11.4981 5.74894 11.4997 5.72313 11.4681 5.68436C11.4228 5.62857 11.4393 5.6126 11.5769 5.57906C11.6286 5.56648 11.6806 5.57232 11.6925 5.59205C11.7284 5.6512 11.8588 5.5608 11.8338 5.49418C11.8057 5.41949 11.876 5.37825 11.9913 5.40179C12.0635 5.41653 12.1007 5.39875 12.1609 5.32074C12.2193 5.24487 12.2636 5.22282 12.3449 5.22913C12.4587 5.23798 12.545 5.16087 12.547 5.04854C12.5479 4.99919 12.5791 4.98605 12.6965 4.98562C12.87 4.98495 12.9505 4.94348 12.9225 4.86914C12.8972 4.80175 13.1475 4.75384 13.2454 4.80734C13.3656 4.87298 13.4561 4.85216 13.4561 4.75886C13.4561 4.64037 13.5269 4.58752 13.6062 4.64675C13.691 4.71005 13.8038 4.67402 13.842 4.57141C13.8769 4.47777 13.9332 4.46698 14.0656 4.52854C14.1737 4.57881 14.3291 4.52087 14.3291 4.43033C14.3291 4.3846 14.3499 4.37713 14.4251 4.39588C14.5967 4.43864 14.6613 4.43585 14.6511 4.38612C14.6439 4.35049 14.6689 4.34467 14.7506 4.363C14.8514 4.38559 14.858 4.38143 14.8355 4.30907C14.8137 4.23904 14.8199 4.23376 14.8931 4.25963C14.9383 4.27557 15.0302 4.28918 15.0974 4.28988C15.2049 4.29096 15.2185 4.28117 15.2108 4.20811C15.2027 4.13162 15.2109 4.12721 15.3156 4.15227C15.5087 4.19851 15.5927 4.18813 15.6342 4.11295C15.6559 4.07374 15.6788 4.03367 15.6852 4.0239C15.6915 4.01413 15.7177 4.03538 15.7433 4.07111C15.8079 4.16124 15.9771 4.13798 16.0224 4.03275C16.0622 3.94014 16.1658 3.9284 16.2507 4.00688C16.3277 4.078 16.4244 4.03785 16.4244 3.93474C16.4244 3.82705 16.5133 3.79668 16.6399 3.86113C16.7642 3.92445 16.8211 3.90621 16.8749 3.78581C16.9121 3.70234 16.921 3.69909 16.9756 3.74891C17.0735 3.83822 17.1704 3.83748 17.2096 3.74713C17.2322 3.69489 17.2631 3.67426 17.2972 3.68863C17.4282 3.74382 17.5874 3.77783 17.6324 3.76022C17.6594 3.74962 17.6816 3.70665 17.6816 3.66473C17.6816 3.60592 17.6955 3.5945 17.7427 3.61473C17.8769 3.67233 17.9479 3.66946 18.0226 3.60342C18.0655 3.56541 18.1006 3.51649 18.1006 3.49471C18.1006 3.46604 18.125 3.46643 18.1889 3.49614C18.2558 3.52726 18.287 3.52707 18.3181 3.49533C18.3406 3.47234 18.3939 3.45352 18.4364 3.45352C18.479 3.45352 18.5198 3.43519 18.5272 3.41277C18.537 3.38259 18.561 3.38321 18.6194 3.41514C18.721 3.47061 18.9038 3.43186 18.9038 3.35486C18.9038 3.30891 18.918 3.31301 18.975 3.37552C19.0559 3.46415 19.1318 3.47577 19.1727 3.40581C19.2254 3.31584 19.3292 3.28128 19.4344 3.31872C19.5059 3.34413 19.5483 3.34188 19.5851 3.31072C19.6142 3.28604 19.6741 3.27704 19.724 3.28983C19.7832 3.30499 19.8118 3.29758 19.8119 3.26708C19.812 3.2399 19.864 3.21907 19.9422 3.21489C20.0138 3.21107 20.0779 3.19102 20.0847 3.17034C20.1025 3.1158 20.1804 3.12426 20.2308 3.1862C20.2793 3.24588 20.4403 3.25958 20.4403 3.20403C20.4403 3.15048 20.5081 3.16113 20.5701 3.22442C20.6076 3.26274 20.6538 3.27264 20.716 3.25572C20.9441 3.1937 21.0084 3.20185 21.1008 3.30449C21.1919 3.4057 21.3271 3.47475 21.488 3.50218C21.536 3.51037 21.6303 3.54156 21.6975 3.57149L21.8197 3.62591L21.715 3.63304C21.6574 3.63696 21.5945 3.63668 21.5753 3.63237C21.5561 3.6281 21.4697 3.6222 21.3832 3.61923C21.2593 3.61499 21.2128 3.63052 21.1635 3.69272C21.0771 3.80152 20.8949 3.82784 20.6016 3.77394C20.2526 3.70982 20.0581 3.70613 19.9539 3.76165C19.9045 3.78794 19.8362 3.80955 19.8019 3.80967C19.7677 3.80979 19.7307 3.83395 19.7196 3.86335C19.7086 3.89276 19.6776 3.91681 19.6509 3.91681C19.5841 3.91681 19.5893 4.04668 19.6572 4.07326C19.6874 4.08509 19.7444 4.07713 19.7838 4.05558C19.8282 4.03136 19.8639 4.02931 19.8773 4.05021C19.9174 4.11261 20.0718 4.12791 20.1399 4.07625C20.1764 4.04862 20.2213 4.03553 20.2397 4.04716C20.259 4.05934 20.2531 4.08127 20.2258 4.09893C20.1979 4.11701 20.1946 4.1298 20.2178 4.13012C20.2395 4.13039 20.2768 4.10661 20.3007 4.0772C20.3619 4.00185 20.3968 4.00989 20.4938 4.12176C20.5652 4.20413 20.5842 4.21129 20.6129 4.16662C20.658 4.0963 20.7556 4.09771 20.842 4.16993C20.8861 4.20683 20.9744 4.22785 21.0818 4.22702C21.205 4.22608 21.2607 4.24203 21.2843 4.28511C21.3022 4.31778 21.3479 4.34451 21.3858 4.34451C21.4265 4.34451 21.4679 4.37963 21.4867 4.43016C21.5259 4.53533 21.5381 4.54314 21.8199 4.64373C21.9447 4.68826 22.0354 4.73623 22.0216 4.75034C22.0078 4.76444 22.0219 4.76602 22.053 4.75385C22.0841 4.74168 22.1199 4.74886 22.1326 4.76979C22.1622 4.81871 22.0634 4.81869 21.9068 4.76973C21.663 4.69352 21.5693 4.69871 21.5005 4.79221C21.4273 4.8916 21.2559 4.90974 21.1288 4.83155C21.0863 4.80538 20.9892 4.7798 20.9131 4.77471C20.837 4.76961 20.7105 4.73465 20.632 4.69701C20.5536 4.65936 20.4273 4.62959 20.3514 4.63086C20.2755 4.63207 20.1757 4.63238 20.1296 4.6314C20.0835 4.63045 20.0285 4.64268 20.0074 4.65856C19.9862 4.67445 19.9162 4.68646 19.8518 4.68526C19.7586 4.68352 19.7247 4.70284 19.6857 4.77972C19.6419 4.86617 19.6432 4.87975 19.6981 4.90845C19.802 4.96279 19.9515 4.98935 19.9515 4.95346C19.9515 4.87692 20.1005 4.87273 20.1983 4.94651C20.2888 5.01486 20.3002 5.01619 20.3299 4.96201C20.3601 4.90689 20.3716 4.90711 20.4914 4.96517C20.6119 5.0235 20.6233 5.02368 20.6632 4.96798C20.7031 4.91222 20.7092 4.91226 20.7551 4.96865C20.8294 5.06011 20.9695 5.10553 21.0052 5.04973C21.0274 5.01492 21.0502 5.02445 21.0993 5.08909C21.1495 5.15512 21.1844 5.16917 21.2541 5.15133C21.3042 5.13849 21.354 5.14477 21.3666 5.1655C21.379 5.18598 21.4176 5.19351 21.4523 5.18225C21.4871 5.17098 21.5369 5.18319 21.5629 5.20952C21.5889 5.23579 21.6392 5.26849 21.6747 5.2822C21.7101 5.2959 21.7471 5.33842 21.7569 5.37669C21.7667 5.41503 21.8253 5.46332 21.8874 5.48422C22.0433 5.53675 22.257 5.65059 22.2373 5.67067C22.2283 5.67981 22.1259 5.6726 22.0098 5.65465C21.8592 5.63138 21.7846 5.63381 21.75 5.66311C21.7233 5.68571 21.6196 5.72624 21.5196 5.75318C21.3529 5.79805 21.3259 5.79634 21.1968 5.73266C21.1192 5.69444 21.0416 5.66317 21.0241 5.66317C21.0067 5.66317 20.9429 5.62708 20.8823 5.58298C20.8217 5.53887 20.7328 5.50069 20.6848 5.49813C20.6368 5.49557 20.4619 5.48133 20.2961 5.46647C20.1303 5.45161 19.9553 5.44956 19.9071 5.4619C19.8064 5.4877 19.7587 5.58013 19.8122 5.64592C19.8618 5.70688 20.0331 5.73706 20.0616 5.68987C20.0777 5.66331 20.1167 5.66534 20.1906 5.69657C20.2488 5.72118 20.3134 5.73064 20.3341 5.71757C20.3548 5.7045 20.4244 5.72701 20.4888 5.7676C20.5531 5.80818 20.6447 5.84139 20.6923 5.84139C20.7398 5.84139 20.8058 5.8719 20.8389 5.90919C20.8797 5.95526 20.9304 5.97193 20.9971 5.9612C21.0747 5.94873 21.1147 5.96896 21.1878 6.05769C21.2508 6.13407 21.3018 6.16425 21.3473 6.1521C21.3986 6.13843 21.4193 6.15758 21.4357 6.23375C21.4525 6.31178 21.5057 6.35871 21.6821 6.45105C21.8058 6.51582 21.9071 6.58063 21.9071 6.59506C21.9071 6.65332 21.8381 6.65789 21.7198 6.60746C21.5589 6.53882 21.3965 6.53893 21.3706 6.60772C21.3596 6.63713 21.311 6.66119 21.2626 6.66119C21.1488 6.66117 20.8594 6.58222 20.8594 6.55118C20.8594 6.53802 20.8083 6.50584 20.7459 6.47967C20.6835 6.4535 20.5812 6.39686 20.5187 6.3538C20.4561 6.31073 20.3775 6.27981 20.3441 6.28508C20.3106 6.29035 20.2731 6.27868 20.2607 6.25914C20.2409 6.22783 20.1668 6.22074 19.9864 6.23288C19.9576 6.23482 19.8669 6.22179 19.7848 6.20394C19.6984 6.18513 19.6276 6.18476 19.6165 6.203C19.606 6.22037 19.5813 6.2244 19.5616 6.21197C19.498 6.17184 19.3578 6.27591 19.3578 6.36327C19.3578 6.45144 19.5063 6.55419 19.6337 6.55419C19.9209 6.55419 20.2754 6.74982 20.3062 6.92526C20.3152 6.97666 20.3824 7.01146 20.5801 7.06715L20.842 7.14093L20.5975 7.16484C20.3449 7.18955 20.2095 7.17524 20.1358 7.11601C20.1068 7.09278 20.0731 7.10215 20.031 7.14511C19.9745 7.20278 19.9679 7.20318 19.9578 7.14962C19.9468 7.09109 19.8005 7.08334 19.7157 7.1368C19.6957 7.14938 19.6711 7.13774 19.661 7.11083C19.6495 7.08013 19.6097 7.06841 19.5539 7.07929C19.4997 7.08988 19.4434 7.07432 19.409 7.03921C19.3726 7.00212 19.3228 6.9895 19.268 7.00354C19.2167 7.01669 19.1832 7.00976 19.1832 6.986C19.1832 6.9644 19.03 6.87166 18.8427 6.7799C18.6554 6.68813 18.4897 6.59179 18.4743 6.5658C18.4589 6.5398 18.4236 6.51854 18.3957 6.51854C18.3679 6.51854 18.3451 6.5025 18.3451 6.4829C18.3451 6.4633 18.3137 6.44726 18.2752 6.44726C18.2289 6.44726 18.2054 6.42349 18.2054 6.37665C18.2054 6.30227 18.0728 6.24498 17.9824 6.28036C17.949 6.29346 17.9391 6.27914 17.9506 6.23417C17.97 6.15856 17.8668 6.11088 17.7677 6.14968C17.7192 6.16871 17.7094 6.1612 17.7258 6.11745C17.7479 6.05874 17.6744 5.96744 17.6364 6.00628C17.6247 6.01825 17.5884 6.00083 17.5558 5.96757C17.5232 5.93431 17.468 5.91471 17.4331 5.92402C17.397 5.93366 17.3729 5.92335 17.3772 5.90006C17.3818 5.87517 17.3369 5.86037 17.2625 5.86224C17.1953 5.86394 17.1316 5.85197 17.1209 5.83568C17.1102 5.81938 17.0631 5.80613 17.0161 5.80622C16.7534 5.80676 16.5862 5.8281 16.5748 5.86258C16.5677 5.88407 16.6284 5.94657 16.7097 6.00149C16.8025 6.0642 16.8625 6.08612 16.8709 6.06044C16.892 5.9957 16.9383 6.01278 16.9589 6.09287C16.9692 6.1332 17.026 6.18484 17.0852 6.20761C17.1506 6.23281 17.1927 6.27425 17.1927 6.31338C17.1927 6.37708 17.3292 6.45455 17.4121 6.43793C17.4355 6.43326 17.4596 6.47417 17.4658 6.52884C17.4745 6.60645 17.4994 6.63284 17.5795 6.64918C17.6514 6.66386 17.7048 6.71138 17.7581 6.80818C17.8308 6.94017 17.8911 6.98662 17.8911 6.9106C17.8911 6.891 17.9046 6.87496 17.9211 6.87496C17.9375 6.87496 17.965 6.94145 17.9822 7.02273C18.0178 7.19176 18.1167 7.2821 18.1715 7.19573C18.2016 7.14821 18.2092 7.14821 18.2398 7.19573C18.2587 7.22514 18.2744 7.2751 18.2747 7.30677C18.2755 7.39382 18.4108 7.55155 18.466 7.5299C18.5013 7.5161 18.5211 7.55499 18.5382 7.67169C18.5606 7.82435 18.6331 7.90952 18.6778 7.83573C18.7212 7.7641 18.7641 7.80648 18.7641 7.92087C18.7641 8.04742 18.8771 8.19534 18.9199 8.12475C18.9769 8.03066 19.0155 8.09381 18.9933 8.24476C18.9716 8.39221 18.9773 8.40818 19.0784 8.48449C19.1614 8.54705 19.1821 8.58519 19.167 8.64687C19.1451 8.73594 19.2113 8.87091 19.2768 8.87091C19.3395 8.87091 19.372 8.94404 19.3639 9.06686C19.3544 9.20966 19.4391 9.33528 19.5021 9.27188C19.5844 9.18906 19.6013 9.22659 19.5791 9.44313C19.5585 9.64361 19.5623 9.66037 19.6324 9.67906C19.7236 9.70342 19.7645 9.84334 19.7137 9.95719C19.6835 10.025 19.6892 10.0519 19.745 10.1034C19.7975 10.1518 19.823 10.1568 19.8545 10.1247C19.9281 10.0496 19.9447 10.0801 19.9088 10.2244C19.8894 10.3023 19.8839 10.4079 19.8965 10.4592C19.9156 10.5367 19.9281 10.545 19.9712 10.5085C20.0481 10.4434 20.0658 10.4871 20.0246 10.6397C20.0005 10.7285 19.9997 10.7877 20.022 10.8105C20.0408 10.8297 20.0562 10.8754 20.0562 10.912C20.0562 10.9616 20.0735 10.973 20.1237 10.9567C20.1859 10.9366 20.1884 10.945 20.1563 11.0637C20.1319 11.1541 20.133 11.2067 20.1602 11.2401C20.1824 11.2674 20.1889 11.331 20.1755 11.3892C20.1561 11.4726 20.1602 11.4827 20.1984 11.446C20.2741 11.3734 20.2977 11.3946 20.2662 11.5069C20.2499 11.5648 20.2419 11.641 20.2485 11.6762C20.2551 11.7113 20.2616 11.7521 20.2631 11.7668C20.2646 11.7815 20.2972 11.7935 20.3356 11.7935C20.4155 11.7935 20.4217 11.8252 20.3661 11.9495C20.3434 12.0005 20.3369 12.0923 20.3507 12.1677C20.3708 12.2768 20.3829 12.2908 20.4258 12.2544C20.5027 12.1893 20.5119 12.2255 20.4622 12.3975C20.4087 12.5824 20.4532 12.7329 20.5539 12.707C20.6284 12.6878 20.6315 12.72 20.5637 12.8114C20.4913 12.9092 20.4982 13.0088 20.579 13.0304C20.6438 13.0477 20.6446 13.055 20.5938 13.1553C20.5162 13.3085 20.5081 13.3869 20.565 13.4351C20.6037 13.4679 20.6268 13.4674 20.6674 13.4331C20.7103 13.3967 20.7197 13.3993 20.7197 13.4478C20.7197 13.4803 20.6967 13.5427 20.6686 13.5866C20.6003 13.6929 20.6359 13.8372 20.7246 13.8135C20.7743 13.8002 20.7896 13.8158 20.7896 13.8798C20.7896 13.9258 20.7739 13.9734 20.7547 13.9855C20.7024 14.0185 20.7126 14.1668 20.7706 14.2159C20.7986 14.2396 20.8372 14.249 20.8565 14.2369C20.879 14.2227 20.8783 14.2537 20.8544 14.3235C20.8068 14.4628 20.8406 14.6144 20.9128 14.5861C20.9571 14.5688 20.9596 14.5814 20.9285 14.6648C20.8841 14.7839 20.9162 14.9657 20.9815 14.9657C21.0072 14.9657 21.0348 14.9536 21.0429 14.9389C21.0509 14.9242 21.0511 14.9363 21.0434 14.9657C20.9892 15.17 20.9908 15.2277 21.052 15.2734C21.1006 15.3096 21.1272 15.3111 21.1644 15.2796C21.2049 15.2453 21.209 15.2559 21.1888 15.3426C21.1754 15.3999 21.1405 15.4749 21.1113 15.5092C21.0637 15.5651 21.0638 15.5716 21.1122 15.5716C21.142 15.5716 21.1757 15.5967 21.1873 15.6275C21.2009 15.6637 21.232 15.6757 21.2755 15.6617C21.33 15.644 21.3391 15.6537 21.3238 15.7132C21.3135 15.7536 21.2912 15.7953 21.2743 15.8059C21.2574 15.8166 21.2436 15.8551 21.2436 15.8915C21.2436 15.9279 21.224 15.9658 21.2 15.9757C21.1759 15.9856 21.2074 15.9949 21.2698 15.9965C21.3322 15.998 21.3833 16.0065 21.3833 16.0154C21.3833 16.0539 21.2945 16.233 21.2648 16.2544C21.2465 16.2677 21.258 16.3042 21.2913 16.3382C21.3386 16.3865 21.3605 16.3898 21.4017 16.3549C21.4442 16.3189 21.4531 16.3243 21.4531 16.3857C21.4531 16.4266 21.4231 16.4765 21.3864 16.4965C21.3107 16.5379 21.3249 16.6765 21.4048 16.6765C21.4628 16.6765 21.4693 16.769 21.4137 16.8041C21.3865 16.8212 21.3909 16.8384 21.4279 16.8595C21.4718 16.8846 21.4742 16.9064 21.4412 16.9791C21.4189 17.028 21.389 17.0681 21.3746 17.0683C21.3602 17.0684 21.3484 17.0913 21.3484 17.119C21.3484 17.1468 21.3287 17.1762 21.3047 17.1844C21.2654 17.1977 21.256 17.2749 21.2458 17.6699C21.2415 17.8355 21.1493 17.6815 21.1255 17.4692C21.1064 17.2984 21.0847 17.2494 20.9942 17.1728C20.902 17.0948 20.8838 17.0521 20.8723 16.8877C20.865 16.7813 20.8519 16.6748 20.8432 16.6509C20.8346 16.627 20.8434 16.5975 20.8627 16.5853C20.886 16.5706 20.8855 16.5481 20.8613 16.5183C20.8412 16.4936 20.8092 16.3899 20.7903 16.2878C20.7521 16.0824 20.5855 15.6724 20.4976 15.5676C20.4665 15.5306 20.4095 15.5003 20.3709 15.5003C20.31 15.5003 20.3007 15.5238 20.3007 15.6785C20.3007 15.8118 20.3137 15.8567 20.3522 15.8567C20.3908 15.8567 20.3985 15.8835 20.3828 15.9636C20.3688 16.0351 20.3758 16.0706 20.4039 16.0706C20.4326 16.0706 20.4386 16.105 20.4226 16.179C20.3972 16.297 20.4562 16.4071 20.5229 16.3663C20.5448 16.3529 20.5409 16.3693 20.5144 16.4028C20.4451 16.4898 20.429 16.6765 20.4907 16.6765C20.5314 16.6765 20.5302 16.7007 20.4836 16.8218C20.4416 16.9311 20.4379 16.9737 20.469 16.9932C20.4998 17.0127 20.4973 17.0367 20.459 17.0885C20.3933 17.1771 20.3921 17.2623 20.4559 17.3163C20.4985 17.3524 20.4869 17.3799 20.3807 17.495C20.3022 17.58 20.25 17.6758 20.2411 17.7507C20.2333 17.8166 20.221 17.9106 20.2138 17.9596C20.2067 18.0086 20.1997 18.0639 20.1984 18.0826C20.1969 18.1039 20.1838 18.1039 20.1629 18.0826C20.1448 18.0639 20.1251 17.9605 20.1193 17.8527C20.111 17.6993 20.0935 17.6486 20.0388 17.6199C19.8921 17.5429 19.8369 17.2779 19.898 16.9438C19.9124 16.8654 19.9376 16.7752 19.9541 16.7434C19.9706 16.7116 19.9788 16.6554 19.9722 16.6186C19.9657 16.5818 19.949 16.4555 19.9351 16.3379C19.9212 16.2203 19.8937 16.104 19.874 16.0795C19.8543 16.055 19.8484 16.0349 19.8608 16.0349C19.8733 16.0349 19.8591 15.9868 19.8293 15.928C19.7663 15.8038 19.7392 15.7971 19.6601 15.8863C19.5959 15.9587 19.5833 16.09 19.6373 16.1241C19.6605 16.1387 19.6595 16.1706 19.6346 16.2182C19.6044 16.2757 19.6093 16.2996 19.6587 16.3365C19.7172 16.3801 19.7173 16.3879 19.6615 16.4749C19.5923 16.5827 19.5853 16.6648 19.6438 16.6847C19.6732 16.6947 19.6681 16.7237 19.6263 16.7847C19.5523 16.8925 19.5516 16.9598 19.6238 17.0137C19.6745 17.0515 19.671 17.0662 19.5889 17.1565C19.517 17.2357 19.5061 17.2678 19.5379 17.307C19.5686 17.3446 19.5686 17.3667 19.538 17.398C19.5157 17.4206 19.4975 17.4819 19.4975 17.534C19.4975 17.594 19.4457 17.6888 19.3565 17.7923C19.274 17.8879 19.1938 18.0305 19.1631 18.1359C19.1343 18.235 19.0939 18.316 19.0734 18.316C19.0529 18.316 19.0444 18.294 19.0545 18.2671C19.0646 18.2402 19.084 18.1426 19.0975 18.0503C19.1181 17.91 19.11 17.8654 19.048 17.7798C19.0008 17.7147 18.9737 17.6243 18.9737 17.5317C18.9737 17.3699 19.0706 16.9318 19.121 16.8657C19.1543 16.8221 19.1716 16.1745 19.1426 16.0601C19.1234 15.9846 19.0216 15.8567 18.9806 15.8567C18.9376 15.8567 18.7991 16.0596 18.7991 16.1226C18.7991 16.1528 18.8148 16.1775 18.834 16.1775C18.8882 16.1775 18.8753 16.2538 18.8083 16.3294C18.7506 16.3944 18.7508 16.4002 18.8123 16.4461C18.875 16.4928 18.8747 16.4982 18.8031 16.6163C18.7133 16.7648 18.7099 16.8186 18.7904 16.8203C18.8387 16.8214 18.8314 16.8384 18.7555 16.9019C18.6471 16.9924 18.6302 17.0685 18.7184 17.0685C18.7626 17.0685 18.7493 17.0966 18.6656 17.1802C18.5853 17.2603 18.5637 17.3041 18.5891 17.3353C18.6309 17.3867 18.4848 17.5675 18.4015 17.5675C18.3731 17.5675 18.3399 17.5996 18.3277 17.6388C18.3155 17.678 18.2916 17.7101 18.2745 17.7101C18.2575 17.7101 18.2332 17.7662 18.2206 17.8348C18.1824 18.0429 18.1304 17.9758 18.1411 17.7322C18.1466 17.6071 18.1343 17.4828 18.1137 17.456C18.0675 17.3957 18.0768 17.1565 18.1305 17.0217C18.1525 16.9665 18.1705 16.9068 18.1705 16.8891C18.1705 16.8714 18.2036 16.7921 18.244 16.713C18.2844 16.6338 18.3091 16.5466 18.2987 16.5191C18.2884 16.4916 18.3017 16.3848 18.3284 16.2816C18.355 16.1785 18.3683 16.08 18.3578 16.0627C18.3474 16.0455 18.3649 15.9753 18.3968 15.9067C18.4341 15.8265 18.4466 15.7442 18.4319 15.6759C18.4193 15.6175 18.4047 15.5137 18.3994 15.4453C18.3798 15.1935 18.1312 15.09 18.0023 15.2799C17.9085 15.4182 17.8849 15.5031 17.9262 15.5539C17.9529 15.5867 17.9437 15.6035 17.8917 15.6174C17.8335 15.6329 17.8237 15.6584 17.8365 15.7608C17.858 15.9317 17.6775 16.1537 17.5172 16.1537C17.4304 16.1537 17.3993 16.1759 17.3558 16.2689C17.3262 16.3323 17.2913 16.4421 17.2783 16.5129C17.2427 16.7069 17.2009 16.6986 17.1874 16.4948C17.1807 16.395 17.1862 16.3064 17.1994 16.298C17.2127 16.2896 17.2344 16.2069 17.2475 16.1143C17.2607 16.0216 17.2809 15.9298 17.2924 15.9102C17.3324 15.8422 17.4349 15.5178 17.436 15.4557C17.4367 15.4214 17.4608 15.3934 17.4896 15.3934C17.5443 15.3934 17.5521 15.3687 17.5487 15.2057C17.5477 15.1514 17.5615 15.1164 17.5795 15.1277C17.5975 15.1391 17.6224 15.1193 17.6347 15.0838C17.647 15.0482 17.6979 14.963 17.7478 14.8944C17.8399 14.7678 17.8441 14.7583 17.8519 14.6618C17.8543 14.6319 17.8955 14.5922 17.9435 14.5736C18.0151 14.5458 18.0308 14.5158 18.0308 14.407C18.0308 14.3059 18.0406 14.2841 18.0715 14.3157C18.1373 14.3829 18.199 14.2602 18.1829 14.0944C18.1714 13.9758 18.1751 13.9642 18.2035 14.0301C18.2427 14.1208 18.3102 14.1377 18.3102 14.0568C18.3102 14.0274 18.3259 14.0033 18.3451 14.0033C18.3643 14.0033 18.3801 13.9472 18.3801 13.8786C18.3801 13.7899 18.3956 13.7538 18.434 13.7538C18.4636 13.7538 18.4853 13.7338 18.4822 13.7093C18.4651 13.5749 18.4881 13.4722 18.5314 13.4892C18.5658 13.5026 18.5738 13.479 18.5623 13.3985C18.5537 13.3386 18.5327 13.2809 18.5157 13.2701C18.4601 13.2351 18.4833 13.1836 18.5547 13.1836C18.6153 13.1836 18.6245 13.1598 18.6245 13.0039C18.6245 12.871 18.6056 12.8037 18.552 12.7455L18.4794 12.6668L18.394 12.7737C18.3381 12.8437 18.3151 12.9078 18.3272 12.9594C18.3407 13.0165 18.3241 13.0498 18.2669 13.0806C18.1651 13.1353 18.1328 13.1871 18.1551 13.2601C18.1671 13.2995 18.1336 13.3436 18.053 13.3945C17.915 13.4815 17.8727 13.5635 17.9297 13.6336C17.9616 13.6727 17.9439 13.6935 17.8418 13.737C17.7203 13.7889 17.6228 13.935 17.6642 14.0034C17.6741 14.0198 17.634 14.044 17.5751 14.0572C17.465 14.0819 17.3814 14.2171 17.4172 14.3124C17.4282 14.3418 17.3876 14.38 17.31 14.413C17.204 14.4583 17.1882 14.4792 17.206 14.5514C17.2233 14.6218 17.2086 14.6443 17.1211 14.6813C17.0629 14.7059 16.976 14.7575 16.9281 14.796C16.8568 14.8532 16.8487 14.8756 16.8836 14.9186C16.9177 14.9605 16.9162 14.9777 16.8762 15.0035C16.8486 15.0213 16.8043 15.0361 16.7778 15.0364C16.7147 15.0371 16.4943 15.1765 16.4943 15.2157C16.4943 15.2323 16.5278 15.2569 16.5688 15.2701C16.6272 15.2891 16.6329 15.3009 16.595 15.3254C16.5684 15.3426 16.5138 15.3569 16.4735 15.3572C16.3883 15.3579 16.2678 15.4791 16.2998 15.532C16.3122 15.5524 16.2566 15.5871 16.1723 15.6116C16.0097 15.659 15.8968 15.7388 15.9059 15.8001C15.9174 15.8779 15.8566 15.9636 15.7898 15.9636C15.6688 15.9636 15.5944 16.0261 15.6108 16.1139C15.6247 16.1886 15.6121 16.1961 15.4578 16.2052C15.2819 16.2155 15.153 16.3117 15.1885 16.4062C15.2069 16.4553 15.1063 16.4969 14.9672 16.4978C14.9134 16.4981 14.8825 16.5259 14.8673 16.5874C14.8497 16.6591 14.8237 16.6765 14.734 16.6765C14.6074 16.6765 14.5387 16.7306 14.5387 16.8303C14.5387 16.8855 14.5204 16.8951 14.4433 16.88C14.3328 16.8585 14.1546 16.9405 14.1546 17.013C14.1546 17.048 14.1086 17.0626 13.9988 17.0626C13.8143 17.0626 13.7704 17.0847 13.7704 17.1776C13.7704 17.228 13.7463 17.2467 13.6814 17.2467C13.5738 17.2467 13.3863 17.3405 13.3863 17.3942C13.3863 17.4192 13.3425 17.4245 13.2626 17.4092C13.0888 17.3759 12.9935 17.4123 13.0212 17.5013C13.0411 17.5654 13.0316 17.5697 12.9181 17.548C12.7606 17.5178 12.618 17.5528 12.618 17.6217C12.618 17.6817 12.5382 17.6906 12.4468 17.6406C12.3536 17.5897 12.2278 17.6342 12.2513 17.7098C12.2687 17.766 12.2558 17.7684 12.1161 17.7358C11.9314 17.6927 11.8415 17.7179 11.8737 17.8037C11.8905 17.8483 11.8842 17.8565 11.8498 17.8349C11.7606 17.7786 11.4757 17.7744 11.4552 17.829C11.4371 17.8771 11.2595 17.8811 11.1867 17.8351C11.134 17.8018 11.0466 17.8591 11.0466 17.9269C11.0466 17.9809 11.0318 17.9879 10.968 17.9639C10.8405 17.9161 10.6364 17.9566 10.6167 18.0338C10.6014 18.0932 10.5865 18.0963 10.4854 18.0603C10.3805 18.023 10.3648 18.0276 10.2884 18.1182C10.2309 18.1865 10.1836 18.2107 10.1339 18.1975C10.0945 18.187 10.0083 18.2093 9.94224 18.2472C9.87622 18.285 9.77682 18.316 9.72136 18.316C9.58225 18.316 9.51004 18.3493 9.51004 18.4136C9.51004 18.4556 9.48274 18.4634 9.38913 18.4479C9.29838 18.4328 9.23906 18.448 9.15127 18.5089C9.06281 18.5701 9.01446 18.5824 8.95282 18.5591C8.84222 18.5173 8.74177 18.5555 8.74177 18.6392C8.74177 18.7181 8.73945 18.7189 8.63054 18.677C8.5238 18.6359 8.37851 18.6906 8.40527 18.7618C8.43005 18.8277 8.42435 18.8277 8.30051 18.7617C8.16732 18.6908 8.1222 18.6943 8.07016 18.7793C8.01903 18.8629 7.98753 18.8689 7.94904 18.8024L7.94891 18.8025ZM20.0096 16.8727C20.0096 16.8433 19.9965 16.8192 19.9805 16.8192C19.9645 16.8192 19.9514 16.8433 19.9514 16.8727C19.9514 16.9021 19.9645 16.9261 19.9805 16.9261C19.9965 16.9261 20.0096 16.9021 20.0096 16.8727ZM12.2338 13.2152C12.2338 13.1922 12.2698 13.1825 12.3193 13.1921C12.4059 13.209 12.4719 13.1347 12.4068 13.0937C12.3545 13.0607 12.3677 13.0055 12.4279 13.0055C12.4578 13.0055 12.4736 13.0199 12.463 13.0374C12.4275 13.0962 12.562 13.1187 12.6034 13.0609C12.6252 13.0305 12.6688 13.0055 12.7003 13.0055C12.7318 13.0055 12.7576 12.9816 12.7576 12.9523C12.7576 12.9125 12.7875 12.9029 12.8756 12.9145C12.9701 12.9268 12.9927 12.9179 12.9891 12.8697C12.9863 12.8326 13.0147 12.8052 13.0631 12.7981C13.1064 12.7919 13.1417 12.7701 13.1417 12.7497C13.1417 12.7282 13.1776 12.7218 13.2269 12.7345C13.2737 12.7465 13.3218 12.7402 13.3337 12.7205C13.3456 12.7009 13.3387 12.6848 13.3184 12.6848C13.2981 12.6848 13.2814 12.6616 13.2814 12.6334C13.2814 12.589 13.2942 12.5889 13.3758 12.6321C13.4892 12.6921 13.5207 12.6744 13.4424 12.5945C13.4111 12.5626 13.3945 12.5216 13.4055 12.5034C13.4165 12.4852 13.4499 12.4952 13.4798 12.5257C13.5389 12.586 13.6132 12.5787 13.6132 12.5125C13.6132 12.4896 13.6289 12.4749 13.6481 12.4798C13.6673 12.4847 13.6808 12.5088 13.6782 12.5333C13.6755 12.5578 13.6873 12.5778 13.7043 12.5778C13.7214 12.5778 13.7354 12.5543 13.7354 12.5255C13.7354 12.4935 13.7558 12.4811 13.788 12.4938C13.8242 12.5079 13.8389 12.4937 13.8349 12.4481C13.8239 12.3225 13.8403 12.2646 13.8926 12.2441C13.937 12.2267 13.9363 12.2373 13.8879 12.3127C13.8564 12.3617 13.8403 12.4117 13.8521 12.4236C13.8638 12.4356 13.8833 12.4191 13.8955 12.3869C13.9107 12.3463 13.9618 12.3276 14.0622 12.3258C14.175 12.3239 14.1915 12.3166 14.137 12.2927C14.0706 12.2636 14.0711 12.2619 14.1465 12.2596C14.1957 12.258 14.2409 12.2233 14.2656 12.1679C14.2874 12.1189 14.3303 12.0791 14.3608 12.0794C14.4086 12.0799 14.4092 12.0845 14.365 12.1131C14.2906 12.1611 14.3305 12.1826 14.4503 12.1591C14.5413 12.1413 14.5456 12.1354 14.4852 12.1113C14.431 12.0897 14.4416 12.0833 14.5345 12.0813C14.639 12.0791 14.7828 11.9766 14.7831 11.9041C14.7831 11.8924 14.8307 11.8811 14.8887 11.879C15.0169 11.8743 15.061 11.8371 14.9915 11.7923C14.9551 11.7688 14.9531 11.759 14.9849 11.7586C15.0095 11.7583 15.0397 11.7847 15.0519 11.8172C15.071 11.8679 15.0782 11.8653 15.1021 11.7994C15.1266 11.7317 15.2123 11.7 15.3188 11.7193C15.3351 11.7222 15.3409 11.7041 15.3319 11.679C15.3229 11.6539 15.294 11.6385 15.2676 11.6448C15.2314 11.6534 15.2294 11.646 15.2594 11.6147C15.2898 11.5832 15.318 11.5835 15.3774 11.6158C15.4393 11.6497 15.4613 11.6488 15.4839 11.6114C15.4998 11.585 15.4957 11.5439 15.4745 11.5177C15.4536 11.4921 15.4475 11.46 15.4609 11.4463C15.4743 11.4326 15.4966 11.4402 15.5105 11.4631C15.527 11.4904 15.5534 11.4933 15.5871 11.4715C15.6554 11.4274 15.7356 11.428 15.7087 11.4725C15.6963 11.4929 15.7108 11.4985 15.7431 11.4859C15.7737 11.4739 15.7908 11.4559 15.781 11.446C15.7713 11.436 15.7791 11.3977 15.7985 11.3607C15.8252 11.3097 15.8208 11.2885 15.7798 11.2725C15.6813 11.2339 15.7191 11.1606 15.8307 11.1739C15.94 11.1869 15.9626 11.1584 15.8966 11.091C15.8514 11.045 15.8866 10.9679 15.9468 10.9808C16.0085 10.9939 16.1824 10.8644 16.1578 10.8236C16.1445 10.8018 16.1234 10.8068 16.103 10.8364C16.0761 10.8755 16.0726 10.8746 16.0842 10.8313C16.0932 10.7983 16.1313 10.7818 16.1841 10.7883C16.2489 10.7962 16.2708 10.7812 16.2749 10.7259C16.2779 10.6859 16.2656 10.6531 16.2475 10.6531C16.1849 10.6531 16.2152 10.5544 16.2834 10.5362C16.3306 10.5236 16.3588 10.5396 16.3737 10.5874C16.3971 10.6627 16.4767 10.659 16.4767 10.5827C16.4767 10.5366 16.4546 10.5204 16.2846 10.4418C16.2366 10.4196 16.2235 10.4089 16.2556 10.4181C16.3081 10.4331 16.3607 10.3703 16.3689 10.2825C16.3706 10.2648 16.4034 10.2379 16.4418 10.2226C16.4979 10.2002 16.5 10.1943 16.4526 10.1923C16.3864 10.1895 16.3353 10.1262 16.3704 10.0904C16.3829 10.0776 16.4072 10.0903 16.4244 10.1185C16.4501 10.1611 16.4599 10.1582 16.4811 10.1018C16.4973 10.0589 16.4906 10.0282 16.4631 10.0188C16.4341 10.0089 16.4437 9.98658 16.4917 9.95228C16.5315 9.92385 16.564 9.8751 16.564 9.84395C16.564 9.80236 16.5413 9.81229 16.4787 9.88127C16.3633 10.0083 16.2794 9.97645 16.3227 9.8221C16.3402 9.75994 16.3545 9.70496 16.3545 9.69993C16.3545 9.69491 16.3781 9.69079 16.4069 9.69079C16.4912 9.69079 16.467 9.62922 16.3732 9.60518C16.3155 9.59039 16.2937 9.56565 16.3071 9.53003C16.3181 9.50083 16.3134 9.47693 16.2968 9.47693C16.2801 9.47693 16.2445 9.44085 16.2176 9.39674C16.174 9.32532 16.1745 9.3215 16.2224 9.36185C16.2674 9.39983 16.2792 9.39506 16.2953 9.3323C16.3096 9.27647 16.3013 9.26259 16.2628 9.27768C16.2309 9.29018 16.2202 9.28293 16.2349 9.25869C16.248 9.23712 16.2393 9.20727 16.2157 9.19235C16.1818 9.17096 16.1817 9.14805 16.2153 9.084C16.2521 9.01373 16.2502 9.00576 16.2014 9.02489C16.1304 9.05271 16.1305 9.0336 16.2021 8.92212C16.2689 8.81798 16.2473 8.77167 16.1691 8.8515C16.0973 8.92479 15.9556 8.92608 15.983 8.8532C15.9951 8.821 15.9831 8.79974 15.953 8.79974C15.9115 8.79974 15.8054 8.6597 15.8248 8.63044C15.8464 8.59778 15.8241 8.5146 15.7937 8.5146C15.7733 8.5146 15.7664 8.53064 15.7783 8.55024C15.7902 8.56985 15.7842 8.58589 15.7649 8.58589C15.7145 8.58589 15.6765 8.51067 15.7134 8.48389C15.7307 8.47137 15.7644 8.41302 15.7883 8.35422C15.8282 8.25613 15.8274 8.25301 15.7789 8.31647C15.7497 8.35453 15.7259 8.39863 15.7259 8.41449C15.7259 8.43035 15.6788 8.44332 15.6211 8.44332C15.5513 8.44332 15.5164 8.4255 15.5164 8.38986C15.5164 8.36045 15.5287 8.33639 15.5437 8.33639C15.5742 8.33639 15.5745 8.16998 15.5441 8.13896C15.5335 8.1281 15.5142 8.16239 15.5012 8.21514C15.483 8.28913 15.4681 8.30139 15.4362 8.26878C15.4042 8.23617 15.4067 8.21881 15.4468 8.19289C15.4755 8.1744 15.4832 8.15901 15.464 8.15869C15.4128 8.15788 15.237 7.99614 15.237 7.94996C15.237 7.88914 15.1114 7.69233 15.0879 7.71631C15.0765 7.72798 15.0752 7.70622 15.085 7.66795C15.1069 7.5825 14.9474 7.37573 14.9088 7.4395C14.895 7.46232 14.8964 7.48098 14.9119 7.48097C14.9342 7.48096 14.9412 7.71747 14.925 7.9197C14.9237 7.93556 14.9031 7.93722 14.8791 7.92338C14.8442 7.90326 14.8442 7.90783 14.8791 7.94623C14.9314 8.00379 14.9367 8.14515 14.8877 8.17608C14.8684 8.18825 14.8623 8.2373 14.874 8.28511C14.8877 8.34062 14.8804 8.37203 14.854 8.37203C14.8286 8.37203 14.8164 8.41683 14.8224 8.48838C14.8335 8.61996 14.796 8.7052 14.742 8.67111C14.7186 8.65638 14.7226 8.63737 14.7531 8.61762C14.7916 8.59275 14.7905 8.58687 14.7473 8.58643C14.7181 8.58616 14.6636 8.64372 14.6263 8.71441C14.589 8.7851 14.5526 8.82469 14.5453 8.80238C14.538 8.78006 14.5585 8.72051 14.5909 8.67004C14.6689 8.54861 14.6061 8.47293 14.5252 8.59081C14.4941 8.63603 14.4688 8.65342 14.4688 8.62946C14.4688 8.60549 14.4535 8.58589 14.4349 8.58589C14.4163 8.58589 14.4111 8.61257 14.4234 8.64519C14.4384 8.68507 14.4323 8.69606 14.4048 8.67873C14.3824 8.66456 14.364 8.66995 14.364 8.69071C14.364 8.74357 14.2688 8.73801 14.2474 8.6839C14.2363 8.65577 14.2288 8.66093 14.2271 8.69791C14.2236 8.77157 14.3077 8.80726 14.3597 8.75419C14.3887 8.72463 14.3989 8.73363 14.3989 8.78865C14.3989 8.8296 14.3793 8.86236 14.3553 8.86145C14.2256 8.85653 14.183 8.87403 14.202 8.92449C14.2293 8.99709 14.1901 8.99201 14.1332 8.91557C14.0692 8.82946 14.0735 8.79797 14.1457 8.82392C14.1913 8.8403 14.1972 8.83519 14.169 8.80381C14.1174 8.7464 14.0053 8.79437 14.031 8.86284C14.0462 8.90325 14.0402 8.90732 14.0068 8.87909C13.9629 8.84188 13.9433 8.83538 13.8751 8.83538C13.8559 8.83538 13.8402 8.81839 13.8402 8.79763C13.8402 8.77687 13.8557 8.76968 13.8747 8.78166C13.8945 8.79413 13.9004 8.77988 13.8885 8.74833C13.8771 8.71802 13.8536 8.70216 13.8363 8.71309C13.8189 8.72402 13.7953 8.70789 13.7838 8.67725C13.7723 8.6466 13.7464 8.62152 13.7263 8.62152C13.7061 8.62152 13.7181 8.6536 13.7529 8.69281C13.7876 8.73201 13.8037 8.76409 13.7885 8.76409C13.7538 8.76409 13.5958 8.57847 13.5958 8.53752C13.5957 8.52072 13.5721 8.5162 13.5433 8.52748C13.4846 8.55047 13.4694 8.46114 13.5259 8.42549C13.5451 8.41338 13.5603 8.38436 13.5597 8.36101C13.559 8.33766 13.5366 8.34824 13.5096 8.3845C13.4566 8.456 13.37 8.43078 13.3995 8.35241C13.4113 8.32095 13.3995 8.31145 13.3652 8.3249C13.3272 8.33977 13.319 8.37432 13.3353 8.45042C13.3478 8.50817 13.3573 8.63359 13.3566 8.72913C13.3557 8.85911 13.367 8.89827 13.4016 8.88471C13.4333 8.87227 13.4525 8.90661 13.4625 8.99402C13.4785 9.1339 13.4649 9.17088 13.3862 9.20145C13.35 9.21552 13.3569 9.22267 13.4086 9.22462C13.4498 9.22617 13.4926 9.25169 13.5038 9.28133C13.5195 9.32331 13.5055 9.33048 13.4401 9.31374C13.369 9.29553 13.3589 9.30315 13.3744 9.36352C13.3886 9.4187 13.3643 9.44852 13.2672 9.49556C13.1982 9.52898 13.1417 9.57149 13.1417 9.59001C13.1417 9.60854 13.1599 9.61225 13.1821 9.59827C13.208 9.58188 13.2129 9.58857 13.1956 9.6171C13.1808 9.64143 13.1391 9.65343 13.1029 9.64376C13.0614 9.63267 13.037 9.6447 13.037 9.6763C13.037 9.70387 13.0173 9.72667 12.9933 9.72697C12.9632 9.72737 12.9615 9.73562 12.988 9.7537C13.0092 9.7681 13.0262 9.80551 13.0259 9.83682C13.0255 9.87993 12.9949 9.89164 12.9002 9.88502C12.7889 9.87725 12.7838 9.88041 12.8536 9.91372C12.9534 9.96126 12.9534 9.99988 12.8538 10.0322C12.7516 10.0653 12.6964 10.1451 12.7071 10.2445C12.7159 10.3262 12.5814 10.4251 12.485 10.4078C12.4584 10.403 12.4438 10.4263 12.4501 10.4636C12.4566 10.5027 12.4298 10.5417 12.3815 10.5635C12.3306 10.5865 12.3056 10.625 12.3116 10.6708C12.3181 10.72 12.3022 10.7407 12.2604 10.7373C12.2258 10.7346 12.2095 10.7487 12.2224 10.7701C12.2366 10.7935 12.2235 10.7993 12.1881 10.7854C12.1556 10.7727 12.1054 10.7892 12.0714 10.8239C12.0386 10.8574 12.0028 10.8824 11.9918 10.8794C11.9809 10.8765 11.9762 10.8897 11.9815 10.9088C11.9868 10.9279 11.976 10.9341 11.9577 10.9225C11.9393 10.9109 11.9149 10.917 11.9033 10.9361C11.8918 10.9552 11.8591 10.9617 11.8307 10.9505C11.7929 10.9357 11.7853 10.947 11.8024 10.9926C11.8191 11.0369 11.8116 11.0498 11.7766 11.0373C11.7496 11.0276 11.7299 10.9916 11.7329 10.9573C11.7366 10.9146 11.7271 10.9065 11.7025 10.9317C11.6827 10.9518 11.6409 10.9584 11.6097 10.9464C11.5607 10.9275 11.5613 10.9331 11.6139 10.9873C11.6789 11.0542 11.6957 11.0981 11.6439 11.0654C11.6268 11.0546 11.5869 11.0863 11.5551 11.1357C11.5232 11.1854 11.4801 11.2147 11.4587 11.2013C11.433 11.1851 11.4417 11.1607 11.4844 11.1288C11.5532 11.0775 11.5404 11.0674 11.4509 11.1024C11.4205 11.1143 11.3957 11.151 11.3957 11.1839C11.3957 11.22 11.3679 11.2437 11.3258 11.2437C11.2874 11.2437 11.256 11.2312 11.256 11.2157C11.256 11.1627 11.2028 11.1879 11.157 11.2628C11.1318 11.304 11.1269 11.3278 11.1462 11.3156C11.1655 11.3035 11.1912 11.3098 11.2032 11.3297C11.2313 11.3761 11.1657 11.3764 11.0812 11.3303C11.0375 11.3064 11.0086 11.3064 10.9941 11.3303C10.9822 11.3499 10.9891 11.366 11.0095 11.366C11.0298 11.366 11.0465 11.3828 11.0465 11.4034C11.0465 11.4268 11.0261 11.4292 10.9922 11.4099C10.9109 11.3634 10.7241 11.4001 10.746 11.4583C10.7678 11.5164 10.7111 11.5602 10.6801 11.5092C10.6469 11.4542 10.5823 11.4658 10.6038 11.5229C10.6345 11.6045 10.5905 11.6158 10.4941 11.5514C10.4092 11.4946 10.4051 11.4946 10.4265 11.5514C10.4428 11.5947 10.4349 11.6063 10.3986 11.592C10.3708 11.5812 10.348 11.5887 10.348 11.6087C10.348 11.6288 10.3677 11.6525 10.3917 11.6615C10.4251 11.674 10.4258 11.6883 10.3944 11.7223C10.351 11.7694 10.3711 11.8767 10.4178 11.8472C10.433 11.8377 10.4554 11.8707 10.4677 11.9207C10.4842 11.9877 10.5065 12.0063 10.5526 11.9913C10.5958 11.9773 10.6298 11.9989 10.6625 12.0613C10.6968 12.1268 10.7175 12.1391 10.7379 12.1063C10.7583 12.0734 10.7662 12.0781 10.7666 12.1234C10.7668 12.1577 10.7907 12.1858 10.8195 12.1858C10.8483 12.1858 10.8719 12.1665 10.8719 12.143C10.8719 12.1097 10.8812 12.1097 10.9138 12.143C10.9773 12.2079 11.0269 12.1941 10.9722 12.1268C10.9276 12.072 10.932 12.0719 11.0339 12.1257C11.143 12.1833 11.1439 12.183 11.1852 12.0811C11.2235 11.9869 11.2358 11.9812 11.3372 12.0109C11.4754 12.0513 11.4655 12.0531 11.4655 11.9882C11.4655 11.9579 11.4852 11.9358 11.5092 11.9389C11.6002 11.951 11.6401 11.9346 11.6401 11.885C11.6401 11.8558 11.6701 11.8361 11.71 11.8392C11.7484 11.8421 11.7798 11.8577 11.7798 11.8738C11.7798 11.9108 11.8803 11.8558 11.9719 11.7689C12.0103 11.7324 12.0692 11.7082 12.1028 11.7151C12.1392 11.7226 12.1639 11.7062 12.1639 11.6744C12.1639 11.6336 12.2001 11.6237 12.3192 11.6319C12.455 11.6413 12.4758 11.6331 12.4851 11.5667C12.4934 11.5071 12.5239 11.4884 12.6266 11.4797C12.6987 11.4736 12.7576 11.4562 12.7576 11.4411C12.7576 11.4259 12.7812 11.4135 12.81 11.4135C12.8388 11.4135 12.8624 11.4278 12.8624 11.4453C12.8624 11.4628 12.8781 11.4672 12.8973 11.4551C12.9165 11.443 12.9322 11.4528 12.9322 11.4768C12.9322 11.5008 12.9413 11.5111 12.9525 11.4998C12.9637 11.4884 12.9552 11.4456 12.9338 11.4047C12.9037 11.3474 12.9051 11.3298 12.9397 11.3277C13.0592 11.3207 13.1608 11.2881 13.2125 11.2404C13.2822 11.1761 13.3396 11.173 13.3632 11.2324C13.3772 11.2676 13.3872 11.2677 13.4114 11.2329C13.4354 11.1985 13.4578 11.2002 13.5146 11.2408C13.5991 11.3012 13.6484 11.4776 13.5724 11.4479C13.541 11.4356 13.532 11.4478 13.5456 11.484C13.5634 11.5313 13.4545 11.6868 13.4036 11.6868C13.3676 11.6868 13.2532 11.8243 13.2727 11.8442C13.292 11.8639 13.2136 11.8787 13.1132 11.8742C13.0879 11.8731 13.0751 11.8801 13.0847 11.8899C13.0943 11.8997 13.0523 11.9574 12.9914 12.0182C12.9246 12.0849 12.9059 12.1187 12.9443 12.1037C12.9873 12.0868 13.0032 12.0932 12.9933 12.1234C12.9853 12.1479 12.9408 12.168 12.8944 12.168C12.7898 12.168 12.7253 12.2225 12.7505 12.2894C12.7613 12.3182 12.7542 12.3304 12.7339 12.3176C12.6964 12.2939 12.5481 12.4155 12.5481 12.4699C12.5481 12.4875 12.5049 12.5069 12.452 12.5131C12.3992 12.5193 12.3597 12.5438 12.3643 12.5676C12.3689 12.5914 12.3513 12.6025 12.3252 12.5923C12.282 12.5754 12.2247 12.6556 12.2435 12.7068C12.2477 12.7185 12.1967 12.7544 12.13 12.7866C12.0633 12.8188 11.9889 12.8852 11.9646 12.9343C11.9404 12.9833 11.9203 13.0038 11.92 12.9799C11.9197 12.956 11.8983 12.9448 11.8723 12.955C11.8126 12.9784 11.8159 13.1693 11.8758 13.157C11.8998 13.1521 11.9195 13.1607 11.9195 13.1762C11.9195 13.1916 11.9509 13.2066 11.9893 13.2096C12.0277 13.2125 12.0592 13.1999 12.0592 13.1815C12.0592 13.1631 12.0901 13.1481 12.1279 13.1481C12.1747 13.1481 12.1902 13.1652 12.1766 13.2016C12.1655 13.231 12.1739 13.255 12.1951 13.255C12.2164 13.255 12.2338 13.2371 12.2338 13.2152ZM12.5481 12.9343C12.5481 12.9146 12.5638 12.8986 12.583 12.8986C12.6022 12.8986 12.6179 12.9146 12.6179 12.9343C12.6179 12.9539 12.6022 12.9699 12.583 12.9699C12.5638 12.9699 12.5481 12.9539 12.5481 12.9343ZM12.9322 12.7204C12.9322 12.7008 12.9567 12.6848 12.9866 12.6848C13.0166 12.6848 13.0314 12.7008 13.0195 12.7204C13.0076 12.74 12.9831 12.756 12.9651 12.756C12.947 12.756 12.9322 12.74 12.9322 12.7204ZM14.4516 12.007C14.4637 11.9871 14.4882 11.98 14.5061 11.9913C14.5545 12.0218 14.5455 12.0432 14.4841 12.0432C14.4542 12.0432 14.4396 12.0269 14.4516 12.007ZM15.3243 11.5086C15.3124 11.489 15.3194 11.4729 15.3397 11.4729C15.36 11.4729 15.3767 11.489 15.3767 11.5086C15.3767 11.5282 15.3698 11.5442 15.3613 11.5442C15.3528 11.5442 15.3362 11.5282 15.3243 11.5086ZM14.092 10.2475C13.9584 10.1128 13.9448 9.98272 14.0442 9.78729C14.0967 9.68402 14.1488 9.62338 14.1759 9.634C14.2039 9.64499 14.2135 9.63223 14.2013 9.59992C14.1893 9.56802 14.2034 9.54827 14.238 9.54827C14.2689 9.54827 14.2941 9.53115 14.2941 9.51022C14.2941 9.4884 14.3239 9.48183 14.364 9.4948C14.4149 9.51132 14.4338 9.50122 14.4338 9.45741C14.4338 9.41494 14.4542 9.40284 14.5037 9.41603C14.5421 9.42628 14.5735 9.42224 14.5735 9.40704C14.5735 9.39185 14.6206 9.38502 14.6783 9.39186C14.7546 9.40093 14.783 9.38941 14.783 9.34944C14.783 9.31422 14.7987 9.3047 14.8267 9.32286C14.8768 9.35534 14.8616 9.35102 15.0506 9.38652C15.2007 9.4147 15.2365 9.46222 15.2534 9.6552C15.2613 9.74497 15.1795 9.93768 15.1148 9.98211C15.0956 9.99529 15.017 10.0634 14.9402 10.1336C14.8633 10.2037 14.7769 10.2623 14.7481 10.2638C14.7193 10.2653 14.6643 10.2736 14.6259 10.2822C14.445 10.3225 14.3474 10.3258 14.2884 10.2936C14.2454 10.2701 14.2243 10.2707 14.2243 10.2955C14.2243 10.3522 14.1798 10.3361 14.092 10.2475ZM14.7132 10.0535C14.8922 9.98728 15.0386 9.83089 15.0545 9.68899C15.0634 9.60947 15.0481 9.58746 14.9678 9.56448C14.9142 9.54913 14.8578 9.53945 14.8426 9.54295C14.8273 9.54646 14.7723 9.55098 14.7204 9.55299C14.5907 9.55801 14.2609 9.72875 14.2159 9.81408C14.1135 10.0084 14.2155 10.161 14.4275 10.1303C14.4982 10.12 14.6268 10.0855 14.7132 10.0535ZM14.3552 9.98705C14.2634 9.96254 14.2805 9.92328 14.4251 9.82673C14.6007 9.70946 14.6776 9.67738 14.7918 9.6737C14.9842 9.66749 14.8438 9.86871 14.5956 9.9547C14.5053 9.986 14.428 10.0098 14.4239 10.0075C14.4197 10.0052 14.3889 9.99602 14.3552 9.98705ZM16.0264 9.09953C15.9928 9.0103 16.0416 8.96661 16.0948 9.03824C16.1565 9.12133 16.157 9.15621 16.0963 9.15621C16.0696 9.15621 16.0381 9.1307 16.0264 9.09953ZM14.8703 8.44337C14.8585 8.42376 14.8654 8.40773 14.8857 8.40773C14.9061 8.40773 14.9227 8.42376 14.9227 8.44337C14.9227 8.46297 14.9158 8.47901 14.9073 8.47901C14.8988 8.47901 14.8822 8.46297 14.8703 8.44337ZM12.1012 12.6716C12.1287 12.6277 11.8943 12.4962 11.8445 12.5276C11.8275 12.5383 11.8408 12.5941 11.8741 12.6515C11.92 12.731 11.9515 12.7506 12.0056 12.7334C12.0446 12.7209 12.0877 12.6932 12.1012 12.6716ZM13.6306 12.6848C13.6512 12.6455 13.6601 12.6135 13.6505 12.6135C13.6409 12.6135 13.6163 12.6455 13.5957 12.6848C13.5751 12.724 13.5662 12.756 13.5758 12.756C13.5854 12.756 13.6101 12.724 13.6306 12.6848ZM11.2378 12.4085C11.19 12.2663 11.1225 12.2291 11.0213 12.2892C10.9871 12.3095 10.9788 12.3267 11.0028 12.3272C11.0268 12.3278 11.0464 12.3458 11.0464 12.3672C11.0464 12.4142 11.188 12.5393 11.2431 12.541C11.2716 12.5418 11.2701 12.5047 11.2378 12.4085ZM12.4586 12.402C12.5176 12.3355 12.5149 12.3307 12.3781 12.2595C12.2085 12.1712 12.1988 12.1702 12.1988 12.2409C12.1988 12.2885 12.3456 12.4709 12.3839 12.4709C12.3914 12.4709 12.425 12.4399 12.4586 12.402ZM11.6401 12.3283C11.6195 12.2891 11.6117 12.2571 11.6226 12.2571C11.6336 12.2571 11.6257 12.225 11.6052 12.1858C11.5593 12.0982 11.4306 12.09 11.4306 12.1746C11.4306 12.2481 11.5648 12.3996 11.63 12.3996C11.6667 12.3996 11.669 12.3834 11.6401 12.3283ZM12.0941 12.1875C12.0941 12.1349 12.012 11.9569 11.9757 11.9307C11.9182 11.8891 11.8496 11.9416 11.8496 12.0272C11.8496 12.073 11.8846 12.1354 11.9272 12.1659C12.0145 12.2283 12.0941 12.2386 12.0941 12.1875ZM12.7686 12.1344C12.8447 12.0756 12.8491 12.0435 12.7868 12.0032C12.7275 11.9648 12.5481 11.9627 12.5481 12.0003C12.5481 12.0342 12.6627 12.1851 12.6877 12.1842C12.6974 12.1838 12.7338 12.1614 12.7686 12.1344ZM10.5925 12.0788C10.5925 12.0592 10.5855 12.0432 10.5771 12.0432C10.5686 12.0432 10.552 12.0592 10.5401 12.0788C10.5282 12.0984 10.5351 12.1145 10.5555 12.1145C10.5758 12.1145 10.5925 12.0984 10.5925 12.0788ZM11.8147 11.9939C11.8147 11.9864 11.7833 11.9718 11.7448 11.9616C11.7064 11.9513 11.6837 11.9575 11.6945 11.9752C11.7133 12.0063 11.8147 12.022 11.8147 11.9939ZM12.4176 11.9274C12.3885 11.8052 12.301 11.7159 12.2514 11.7579C12.2286 11.7773 12.2011 11.7841 12.1904 11.7732C12.1797 11.7623 12.1603 11.7708 12.1474 11.7922C12.1344 11.8136 12.1368 11.827 12.1526 11.8219C12.1684 11.8168 12.2239 11.8565 12.2758 11.9101C12.3906 12.0285 12.4433 12.0349 12.4176 11.9274ZM12.7925 11.7292C12.7925 11.6742 12.771 11.5991 12.7447 11.5624C12.6987 11.4982 12.6954 11.4987 12.6544 11.5768C12.6178 11.6466 12.6229 11.6698 12.6908 11.7436C12.7898 11.8512 12.7925 11.8508 12.7925 11.7292ZM13.1729 11.756C13.2188 11.7169 13.2441 11.6734 13.2292 11.6592C13.2142 11.645 13.195 11.6535 13.1863 11.6781C13.1749 11.7107 13.1428 11.7027 13.0687 11.6489C12.9828 11.5864 12.9637 11.5831 12.9468 11.628C12.9219 11.6942 12.9897 11.8298 13.0469 11.8282C13.0703 11.8275 13.1269 11.795 13.1729 11.756ZM13.4001 11.5531C13.3783 11.4574 13.2988 11.366 13.2374 11.366C13.1741 11.366 13.2322 11.5278 13.3076 11.5616C13.3508 11.5809 13.3862 11.609 13.3862 11.624C13.3862 11.6389 13.3943 11.6511 13.4043 11.6511C13.4143 11.6511 13.4124 11.607 13.4001 11.5531ZM16.2323 10.9383C16.2441 10.9187 16.2372 10.9027 16.2169 10.9027C16.1965 10.9027 16.1799 10.9187 16.1799 10.9383C16.1799 10.9579 16.1868 10.9739 16.1953 10.9739C16.2038 10.9739 16.2204 10.9579 16.2323 10.9383ZM11.9239 10.8046C11.9683 10.747 11.9666 10.7462 11.902 10.7946C11.8636 10.8233 11.8256 10.8514 11.8176 10.8569C11.8096 10.8625 11.8195 10.867 11.8395 10.867C11.8596 10.867 11.8976 10.839 11.9239 10.8046ZM16.3894 10.7245C16.3894 10.7049 16.3737 10.6888 16.3545 10.6888C16.3353 10.6888 16.3196 10.7049 16.3196 10.7245C16.3196 10.7441 16.3353 10.7601 16.3545 10.7601C16.3737 10.7601 16.3894 10.7441 16.3894 10.7245ZM12.4957 10.3324C12.5075 10.3128 12.5016 10.2967 12.4823 10.2967C12.4631 10.2967 12.4377 10.3128 12.4258 10.3324C12.414 10.352 12.42 10.368 12.4392 10.368C12.4584 10.368 12.4838 10.352 12.4957 10.3324ZM16.5529 10.2901C16.5418 10.2616 16.5335 10.2701 16.5318 10.3116C16.5303 10.3492 16.5386 10.3702 16.5502 10.3584C16.5618 10.3465 16.563 10.3158 16.5529 10.2901ZM16.5989 10.1521C16.5989 10.1336 16.5832 10.1185 16.564 10.1185C16.5448 10.1185 16.5291 10.1435 16.5291 10.1741C16.5291 10.2047 16.5448 10.2198 16.564 10.2076C16.5832 10.1955 16.5989 10.1705 16.5989 10.1521ZM16.6339 9.9959C16.6339 9.98725 16.6181 9.97027 16.5989 9.95815C16.5797 9.94604 16.564 9.95311 16.564 9.97387C16.564 9.99463 16.5797 10.0116 16.5989 10.0116C16.6181 10.0116 16.6339 10.0045 16.6339 9.9959ZM16.4199 9.47286C16.381 9.44727 16.3805 9.43572 16.4173 9.41146C16.4539 9.38732 16.453 9.37346 16.4126 9.33927C16.3732 9.30593 16.3583 9.30849 16.3422 9.35133C16.3185 9.41444 16.3502 9.51909 16.4043 9.55604C16.4249 9.57011 16.4476 9.56424 16.4548 9.54301C16.4619 9.52177 16.4462 9.4902 16.4199 9.47286ZM13.0639 9.44803C13.0848 9.38387 13.0126 9.39735 12.9883 9.46214C12.9752 9.49685 12.983 9.51315 13.0086 9.50447C13.0314 9.49671 13.0563 9.4713 13.0639 9.44803ZM13.3074 9.32596C13.312 9.26328 13.3062 9.25756 13.2804 9.29922C13.24 9.36439 13.2375 9.4057 13.274 9.4057C13.2891 9.4057 13.3041 9.36981 13.3074 9.32596ZM16.436 9.06971C16.4465 9.04174 16.4337 9.00072 16.4075 8.97857C16.3692 8.94609 16.3639 8.95357 16.3802 9.01718C16.3941 9.07152 16.3878 9.08814 16.36 9.07057C16.3378 9.05655 16.3196 9.06206 16.3196 9.08282C16.3196 9.13907 16.4139 9.12844 16.436 9.06971ZM15.2085 7.61588C15.1834 7.59031 15.1672 7.5882 15.1672 7.61053C15.1672 7.65811 15.2085 7.70026 15.2318 7.67647C15.2417 7.66634 15.2312 7.63908 15.2085 7.61588ZM15.0826 7.45346C15.0225 7.39467 15.0217 7.39543 15.0659 7.47051C15.0913 7.51372 15.1197 7.54141 15.1288 7.53203C15.138 7.52266 15.1172 7.4873 15.0826 7.45346ZM18.1006 18.031C18.1006 18.0114 18.1172 17.9954 18.1375 17.9954C18.1579 17.9954 18.1648 18.0114 18.1529 18.031C18.1411 18.0506 18.1244 18.0667 18.116 18.0667C18.1075 18.0667 18.1006 18.0506 18.1006 18.031Z" fill="#061F31"/>
</svg>
