<svg width="53" height="22" viewBox="0 0 53 22" fill="none" xmlns="http://www.w3.org/2000/svg">
<rect x="0.927643" y="0.146973" width="51.4648" height="21.2852" rx="10.6426" fill="#5A98DF"/>
<path d="M27.972 9.34619C27.9355 9.00505 27.7819 8.73942 27.511 8.54932C27.2428 8.35921 26.8938 8.26416 26.4641 8.26416C26.1621 8.26416 25.9029 8.30973 25.6868 8.40088C25.4707 8.49202 25.3053 8.61572 25.1907 8.77197C25.0761 8.92822 25.0175 9.10661 25.0149 9.30713C25.0149 9.4738 25.0527 9.61833 25.1282 9.74072C25.2063 9.86312 25.3118 9.96729 25.4446 10.0532C25.5774 10.1366 25.7246 10.2069 25.886 10.2642C26.0475 10.3215 26.2102 10.3696 26.3743 10.4087L27.1243 10.5962C27.4264 10.6665 27.7167 10.7616 27.9954 10.8813C28.2766 11.0011 28.5279 11.1522 28.7493 11.3345C28.9733 11.5168 29.1503 11.7368 29.2805 11.9946C29.4108 12.2524 29.4759 12.5545 29.4759 12.9009C29.4759 13.3696 29.3561 13.7824 29.1165 14.1392C28.8769 14.4933 28.5305 14.7707 28.0774 14.9712C27.6269 15.1691 27.0813 15.2681 26.4407 15.2681C25.8183 15.2681 25.2779 15.1717 24.8196 14.979C24.3639 14.7863 24.0071 14.505 23.7493 14.1353C23.4941 13.7655 23.3561 13.3149 23.3352 12.7837H24.761C24.7819 13.0623 24.8678 13.2941 25.0188 13.479C25.1699 13.6639 25.3665 13.8019 25.6087 13.8931C25.8535 13.9842 26.1269 14.0298 26.429 14.0298C26.7441 14.0298 27.0201 13.9829 27.2571 13.8892C27.4967 13.7928 27.6842 13.66 27.8196 13.4907C27.955 13.3188 28.024 13.1183 28.0266 12.8892C28.024 12.6808 27.9628 12.509 27.843 12.3735C27.7233 12.2355 27.5553 12.1209 27.3391 12.0298C27.1256 11.936 26.8756 11.8527 26.5891 11.7798L25.679 11.5454C25.0201 11.3761 24.4993 11.1196 24.1165 10.7759C23.7363 10.4295 23.5462 9.96989 23.5462 9.39697C23.5462 8.92562 23.6738 8.51286 23.929 8.15869C24.1868 7.80452 24.5371 7.52979 24.9798 7.33447C25.4225 7.13656 25.9238 7.0376 26.4837 7.0376C27.0514 7.0376 27.5488 7.13656 27.9759 7.33447C28.4055 7.52979 28.7428 7.80192 28.9876 8.15088C29.2324 8.49723 29.3587 8.89567 29.3665 9.34619H27.972ZM33.3616 15.2642C32.76 15.2642 32.2405 15.1392 31.803 14.8892C31.3681 14.6366 31.0335 14.2798 30.7991 13.8188C30.5647 13.3553 30.4475 12.8097 30.4475 12.1821C30.4475 11.5649 30.5647 11.0233 30.7991 10.5571C31.0361 10.0884 31.3668 9.7238 31.7913 9.46338C32.2158 9.20036 32.7145 9.06885 33.2874 9.06885C33.6572 9.06885 34.0061 9.12874 34.3343 9.24853C34.665 9.36572 34.9567 9.54801 35.2093 9.79541C35.4645 10.0428 35.665 10.3579 35.8108 10.7407C35.9567 11.1209 36.0296 11.5741 36.0296 12.1001V12.5337H31.1116V11.5806H34.6741C34.6715 11.3097 34.6129 11.0688 34.4983 10.8579C34.3837 10.6444 34.2236 10.4764 34.0179 10.354C33.8147 10.2316 33.5777 10.1704 33.3069 10.1704C33.0179 10.1704 32.7639 10.2407 32.5452 10.3813C32.3264 10.5194 32.1559 10.7017 32.0335 10.9282C31.9137 11.1522 31.8525 11.3983 31.8499 11.6665V12.4985C31.8499 12.8475 31.9137 13.147 32.0413 13.397C32.1689 13.6444 32.3473 13.8345 32.5764 13.9673C32.8056 14.0975 33.0738 14.1626 33.3811 14.1626C33.5869 14.1626 33.7731 14.134 33.9397 14.0767C34.1064 14.0168 34.2509 13.9295 34.3733 13.8149C34.4957 13.7004 34.5882 13.5584 34.6507 13.3892L35.971 13.5376C35.8876 13.8866 35.7288 14.1912 35.4944 14.4517C35.2626 14.7095 34.9658 14.91 34.6038 15.0532C34.2418 15.1938 33.8277 15.2642 33.3616 15.2642ZM41.0501 12.6235V9.14697H42.4641V15.147H41.093V14.0806H41.0305C40.8951 14.4165 40.6725 14.6912 40.3626 14.9048C40.0553 15.1183 39.6764 15.2251 39.2259 15.2251C38.8326 15.2251 38.485 15.1379 38.1829 14.9634C37.8834 14.7863 37.649 14.5298 37.4798 14.1938C37.3105 13.8553 37.2259 13.4465 37.2259 12.9673V9.14697H38.6399V12.7485C38.6399 13.1287 38.7441 13.4308 38.9524 13.6548C39.1608 13.8787 39.4342 13.9907 39.7727 13.9907C39.9811 13.9907 40.1829 13.9399 40.3782 13.8384C40.5735 13.7368 40.7337 13.5858 40.8587 13.3853C40.9863 13.1821 41.0501 12.9282 41.0501 12.6235ZM45.3323 7.14697V15.147H43.9182V7.14697H45.3323Z" fill="#061F31"/>
<path d="M11.914 3.90208C12.2269 3.22144 13.1941 3.22144 13.507 3.90208L15.0638 7.28889C15.1915 7.56663 15.4546 7.7578 15.7582 7.7934L19.4604 8.22749C20.2044 8.31473 20.5033 9.23461 19.9526 9.7425L17.2127 12.2698C16.988 12.477 16.8875 12.7863 16.9475 13.0861L17.6786 16.7412C17.8256 17.4757 17.0431 18.0442 16.3899 17.6775L13.1396 15.8526C12.8731 15.703 12.5478 15.703 12.2813 15.8526L9.03106 17.6775C8.37787 18.0442 7.59537 17.4757 7.74231 16.7412L8.47349 13.0861C8.53346 12.7863 8.43295 12.477 8.20826 12.2698L5.46831 9.7425C4.91767 9.23461 5.21656 8.31473 5.96056 8.22749L9.66271 7.7934C9.96631 7.7578 10.2294 7.56663 10.3571 7.28889L11.914 3.90208Z" fill="#061F31"/>
</svg>
