<svg width="63" height="22" viewBox="0 0 63 22" fill="none" xmlns="http://www.w3.org/2000/svg">
<rect x="0.927643" y="0.275391" width="61.5476" height="21.2852" rx="10.6426" fill="#FFDD99"/>
<path d="M10.8612 3.90051C10.797 3.83946 10.7101 3.80518 10.6194 3.80518C10.5287 3.80518 10.4417 3.83946 10.3776 3.90051L4.33286 9.65739C4.28618 9.70325 4.25461 9.76112 4.24206 9.82387C4.22951 9.88661 4.23652 9.95149 4.26224 10.0105C4.28795 10.0695 4.33123 10.12 4.38675 10.1558C4.44227 10.1917 4.50759 10.2113 4.57465 10.2121H6.49798V16.4283C6.49798 16.5147 6.53402 16.5975 6.59817 16.6586C6.66232 16.7197 6.74933 16.7541 6.84005 16.7541H11.6484C11.6933 16.7544 11.7378 16.7463 11.7795 16.7303C11.8211 16.7142 11.859 16.6905 11.8911 16.6605C11.9231 16.6305 11.9486 16.5948 11.9661 16.5554C11.9836 16.516 11.9928 16.4737 11.9932 16.4309V9.32637C11.9932 9.23998 12.0293 9.15715 12.0935 9.09609L14.0539 6.94119L10.8612 3.90051ZM10.6194 14.1373H9.24558V12.8289H10.6194V14.1373ZM10.6194 11.5205H9.24558V10.2121H10.6194V11.5205ZM19.8925 6.287H19.2056C19.1146 6.287 19.0272 6.32146 18.9628 6.3828C18.8984 6.44414 18.8622 6.52734 18.8622 6.61409V8.90376L17.0433 6.51727C16.9791 6.45623 16.8922 6.42194 16.8015 6.42194C16.7108 6.42194 16.6238 6.45623 16.5597 6.51727L13.4439 10.1232C13.3943 10.1807 13.3671 10.2528 13.367 10.3273V16.4243C13.3664 16.4671 13.3748 16.5096 13.3914 16.5493C13.4081 16.589 13.4329 16.6252 13.4643 16.6559C13.4956 16.6865 13.533 16.7109 13.5743 16.7278C13.6156 16.7446 13.66 16.7535 13.7049 16.7541H15.7656C15.8113 16.7542 15.8565 16.7458 15.8988 16.7294C15.941 16.7129 15.9794 16.6886 16.0118 16.658C16.0442 16.6274 16.07 16.591 16.0876 16.5509C16.1052 16.5108 16.1144 16.4678 16.1146 16.4243V14.1373H17.4884V16.423C17.4884 16.5108 17.525 16.595 17.5902 16.6571C17.6554 16.7192 17.7438 16.7541 17.836 16.7541H19.8967C19.9868 16.753 20.0729 16.7183 20.1364 16.6573C20.1999 16.5964 20.2356 16.5141 20.236 16.4283V6.61409C20.236 6.52734 20.1998 6.44414 20.1354 6.3828C20.071 6.32146 19.9836 6.287 19.8925 6.287ZM16.1146 12.8289H14.7408V11.5205H16.1146V12.8289ZM18.8622 12.8289H17.4884V11.5205H18.8622V12.8289Z" fill="#061F31"/>
<path d="M24.6946 7.27539L26.7766 13.5723H26.8587L28.9368 7.27539H30.5305L27.7102 15.2754H25.9212L23.1048 7.27539H24.6946ZM31.5218 15.2754V9.27539H32.9358V15.2754H31.5218ZM32.2327 8.42383C32.0087 8.42383 31.816 8.34961 31.6546 8.20117C31.4931 8.05013 31.4124 7.86914 31.4124 7.6582C31.4124 7.44466 31.4931 7.26367 31.6546 7.11523C31.816 6.96419 32.0087 6.88867 32.2327 6.88867C32.4593 6.88867 32.652 6.96419 32.8108 7.11523C32.9723 7.26367 33.053 7.44466 33.053 7.6582C33.053 7.86914 32.9723 8.05013 32.8108 8.20117C32.652 8.34961 32.4593 8.42383 32.2327 8.42383ZM35.804 7.27539V15.2754H34.3899V7.27539H35.804ZM38.6721 7.27539V15.2754H37.2581V7.27539H38.6721ZM41.8528 15.3965C41.4726 15.3965 41.1302 15.3288 40.8255 15.1934C40.5234 15.0553 40.2838 14.8522 40.1067 14.584C39.9322 14.3158 39.845 13.985 39.845 13.5918C39.845 13.2533 39.9075 12.9733 40.0325 12.752C40.1575 12.5306 40.3281 12.3535 40.5442 12.2207C40.7604 12.0879 41.0039 11.9876 41.2747 11.9199C41.5481 11.8496 41.8307 11.7988 42.1223 11.7676C42.4739 11.7311 42.7591 11.6986 42.9778 11.6699C43.1966 11.6387 43.3554 11.5918 43.4544 11.5293C43.5559 11.4642 43.6067 11.3639 43.6067 11.2285V11.2051C43.6067 10.9108 43.5195 10.6829 43.345 10.5215C43.1705 10.36 42.9192 10.2793 42.5911 10.2793C42.2447 10.2793 41.97 10.3548 41.7669 10.5059C41.5664 10.6569 41.4309 10.8353 41.3606 11.041L40.0403 10.8535C40.1445 10.4889 40.3164 10.1842 40.5559 9.93945C40.7955 9.69206 41.0885 9.50716 41.4348 9.38477C41.7812 9.25977 42.164 9.19727 42.5833 9.19727C42.8723 9.19727 43.1601 9.23112 43.4466 9.29883C43.733 9.36654 43.9947 9.47852 44.2317 9.63477C44.4687 9.78841 44.6588 9.99805 44.802 10.2637C44.9479 10.5293 45.0208 10.8613 45.0208 11.2598V15.2754H43.6614V14.4512H43.6145C43.5286 14.6178 43.4075 14.7741 43.2513 14.9199C43.0976 15.0632 42.9036 15.179 42.6692 15.2676C42.4374 15.3535 42.1653 15.3965 41.8528 15.3965ZM42.22 14.3574C42.5039 14.3574 42.7499 14.3014 42.9583 14.1895C43.1666 14.0749 43.3268 13.9238 43.4388 13.7363C43.5533 13.5488 43.6106 13.3444 43.6106 13.123V12.416C43.5664 12.4525 43.4908 12.4863 43.3841 12.5176C43.2799 12.5488 43.1627 12.5762 43.0325 12.5996C42.9023 12.623 42.7734 12.6439 42.6458 12.6621C42.5182 12.6803 42.4075 12.696 42.3138 12.709C42.1028 12.7376 41.914 12.7845 41.7473 12.8496C41.5807 12.9147 41.4492 13.0059 41.3528 13.123C41.2565 13.2376 41.2083 13.3861 41.2083 13.5684C41.2083 13.8288 41.3033 14.0254 41.4934 14.1582C41.6835 14.291 41.9257 14.3574 42.22 14.3574ZM49.052 17.6504C48.5442 17.6504 48.108 17.5814 47.7434 17.4434C47.3789 17.3079 47.0859 17.1257 46.8645 16.8965C46.6432 16.6673 46.4895 16.4134 46.4036 16.1348L47.677 15.8262C47.7343 15.9434 47.8177 16.0592 47.927 16.1738C48.0364 16.291 48.1835 16.3874 48.3684 16.4629C48.5559 16.541 48.7916 16.5801 49.0755 16.5801C49.4765 16.5801 49.8085 16.4824 50.0716 16.2871C50.3346 16.0944 50.4661 15.7767 50.4661 15.334V14.1973H50.3958C50.3229 14.3431 50.2161 14.4928 50.0755 14.6465C49.9374 14.8001 49.7539 14.929 49.5247 15.0332C49.2981 15.1374 49.013 15.1895 48.6692 15.1895C48.2083 15.1895 47.7903 15.0814 47.4153 14.8652C47.0429 14.6465 46.746 14.321 46.5247 13.8887C46.3059 13.4538 46.1966 12.9095 46.1966 12.2559C46.1966 11.597 46.3059 11.041 46.5247 10.5879C46.746 10.1322 47.0442 9.78711 47.4192 9.55273C47.7942 9.31576 48.2122 9.19727 48.6731 9.19727C49.0247 9.19727 49.3138 9.25716 49.5403 9.37695C49.7695 9.49414 49.9518 9.63607 50.0872 9.80273C50.2226 9.9668 50.3255 10.1217 50.3958 10.2676H50.4739V9.27539H51.8684V15.373C51.8684 15.8861 51.746 16.3105 51.5013 16.6465C51.2565 16.9824 50.9218 17.2337 50.4973 17.4004C50.0729 17.5671 49.5911 17.6504 49.052 17.6504ZM49.0638 14.0801C49.3632 14.0801 49.6184 14.0072 49.8294 13.8613C50.0403 13.7155 50.2005 13.5059 50.3098 13.2324C50.4192 12.959 50.4739 12.6309 50.4739 12.248C50.4739 11.8704 50.4192 11.5397 50.3098 11.2559C50.2031 10.972 50.0442 10.752 49.8333 10.5957C49.6249 10.4368 49.3684 10.3574 49.0638 10.3574C48.7486 10.3574 48.4856 10.4395 48.2747 10.6035C48.0638 10.7676 47.9049 10.9928 47.7981 11.2793C47.6914 11.5632 47.638 11.8861 47.638 12.248C47.638 12.6152 47.6914 12.9368 47.7981 13.2129C47.9075 13.4863 48.0677 13.6999 48.2786 13.8535C48.4921 14.0046 48.7539 14.0801 49.0638 14.0801ZM55.9739 15.3926C55.3723 15.3926 54.8528 15.2676 54.4153 15.0176C53.9804 14.765 53.6458 14.4082 53.4114 13.9473C53.177 13.4837 53.0598 12.9382 53.0598 12.3105C53.0598 11.6934 53.177 11.1517 53.4114 10.6855C53.6484 10.2168 53.9791 9.85221 54.4036 9.5918C54.8281 9.32878 55.3268 9.19727 55.8997 9.19727C56.2695 9.19727 56.6184 9.25716 56.9466 9.37695C57.2773 9.49414 57.569 9.67643 57.8216 9.92383C58.0768 10.1712 58.2773 10.4863 58.4231 10.8691C58.569 11.2493 58.6419 11.7025 58.6419 12.2285V12.6621H53.7239V11.709H57.2864C57.2838 11.4382 57.2252 11.1973 57.1106 10.9863C56.996 10.7728 56.8359 10.6048 56.6302 10.4824C56.427 10.36 56.1901 10.2988 55.9192 10.2988C55.6302 10.2988 55.3763 10.3691 55.1575 10.5098C54.9388 10.6478 54.7682 10.8301 54.6458 11.0566C54.526 11.2806 54.4648 11.5267 54.4622 11.7949V12.627C54.4622 12.9759 54.526 13.2754 54.6536 13.5254C54.7812 13.7728 54.9596 13.9629 55.1888 14.0957C55.4179 14.2259 55.6861 14.291 55.9934 14.291C56.1992 14.291 56.3854 14.2624 56.552 14.2051C56.7187 14.1452 56.8632 14.0579 56.9856 13.9434C57.108 13.8288 57.2005 13.6868 57.263 13.5176L58.5833 13.666C58.4999 14.015 58.3411 14.3197 58.1067 14.5801C57.8749 14.8379 57.5781 15.0384 57.2161 15.1816C56.8541 15.3223 56.4401 15.3926 55.9739 15.3926Z" fill="#061F31"/>
</svg>
