<svg width="184" height="27" viewBox="0 0 184 27" fill="none" xmlns="http://www.w3.org/2000/svg">
<path d="M29.2424 18.4125V5.32157H34.1515C35.1571 5.32157 36.0009 5.49628 36.6827 5.84571C37.3688 6.19515 37.8865 6.6852 38.236 7.31588C38.5897 7.9423 38.7665 8.67313 38.7665 9.50836C38.7665 10.3478 38.5875 11.0765 38.2296 11.6944C37.8759 12.3081 37.3539 12.7832 36.6635 13.1199C35.9732 13.4522 35.1252 13.6184 34.1195 13.6184H30.623V11.6497H33.7999C34.388 11.6497 34.8695 11.5687 35.2445 11.4068C35.6195 11.2406 35.8965 10.9998 36.0755 10.6845C36.2587 10.3649 36.3503 9.97284 36.3503 9.50836C36.3503 9.04387 36.2587 8.64756 36.0755 8.31944C35.8922 7.98705 35.6131 7.73563 35.2381 7.56517C34.8631 7.39046 34.3794 7.3031 33.7871 7.3031H31.6138V18.4125H29.2424ZM36.0051 12.4807L39.2459 18.4125H36.5996L33.4164 12.4807H36.0051ZM45.0531 18.6042C44.0687 18.6042 43.2186 18.3997 42.5027 17.9906C41.791 17.5772 41.2434 16.9934 40.8599 16.2392C40.4764 15.4807 40.2846 14.5879 40.2846 13.5609C40.2846 12.551 40.4764 11.6646 40.8599 10.9018C41.2477 10.1348 41.7889 9.53819 42.4835 9.11205C43.1781 8.68165 43.9941 8.46645 44.9316 8.46645C45.5368 8.46645 46.1078 8.56446 46.6447 8.76049C47.1859 8.95225 47.6632 9.25054 48.0765 9.65537C48.4941 10.0602 48.8223 10.5758 49.0609 11.2022C49.2995 11.8244 49.4189 12.5659 49.4189 13.4267V14.1362H41.3713V12.5765H47.2008C47.1966 12.1334 47.1007 11.7392 46.9132 11.394C46.7257 11.0446 46.4636 10.7697 46.127 10.5694C45.7946 10.3692 45.4068 10.269 44.9636 10.269C44.4906 10.269 44.0751 10.3841 43.7172 10.6142C43.3592 10.84 43.0801 11.1383 42.8798 11.5091C42.6838 11.8755 42.5836 12.2782 42.5794 12.7172V14.0787C42.5794 14.6497 42.6838 15.1397 42.8926 15.5488C43.1014 15.9537 43.3933 16.2647 43.7683 16.4821C44.1433 16.6951 44.5822 16.8017 45.0851 16.8017C45.4217 16.8017 45.7264 16.7548 45.9991 16.6611C46.2718 16.563 46.5083 16.4203 46.7086 16.2328C46.9089 16.0453 47.0602 15.813 47.1625 15.5361L49.323 15.779C49.1866 16.35 48.9267 16.8486 48.5431 17.2747C48.1639 17.6966 47.6781 18.0247 47.0858 18.2591C46.4934 18.4892 45.8159 18.6042 45.0531 18.6042ZM53.6903 12.6596V18.4125H51.3764V8.59429H53.5881V10.2626H53.7031C53.929 9.7129 54.2891 9.27611 54.7834 8.95225C55.282 8.62838 55.8977 8.46645 56.6307 8.46645C57.3082 8.46645 57.8984 8.61134 58.4013 8.90111C58.9084 9.19088 59.3004 9.61063 59.5774 10.1603C59.8587 10.7101 59.9972 11.377 59.9929 12.1611V18.4125H57.679V12.519C57.679 11.8628 57.5085 11.3493 57.1676 10.9785C56.831 10.6078 56.3643 10.4224 55.7678 10.4224C55.3629 10.4224 55.0028 10.5119 54.6875 10.6909C54.3764 10.8656 54.1314 11.1192 53.9524 11.4515C53.7777 11.7839 53.6903 12.1866 53.6903 12.6596ZM65.9886 18.5851C65.2173 18.5851 64.527 18.3869 63.9176 17.9906C63.3082 17.5943 62.8267 17.019 62.473 16.2647C62.1193 15.5105 61.9425 14.5943 61.9425 13.5162C61.9425 12.4253 62.1214 11.5048 62.4794 10.7548C62.8416 10.0005 63.3295 9.43165 63.9432 9.04813C64.5568 8.66034 65.2408 8.46645 65.995 8.46645C66.5703 8.46645 67.0433 8.56446 67.4141 8.76049C67.7848 8.95225 68.0788 9.18449 68.2962 9.45722C68.5135 9.72569 68.6818 9.97924 68.8011 10.2179H68.897V5.32157H71.2173V18.4125H68.9418V16.8656H68.8011C68.6818 17.1042 68.5092 17.3578 68.2834 17.6263C68.0575 17.8905 67.7592 18.1163 67.3885 18.3038C67.0178 18.4913 66.5511 18.5851 65.9886 18.5851ZM66.6342 16.6866C67.1243 16.6866 67.5419 16.5545 67.8871 16.2903C68.2322 16.0219 68.4943 15.649 68.6733 15.1717C68.8523 14.6944 68.9418 14.1383 68.9418 13.5034C68.9418 12.8684 68.8523 12.3166 68.6733 11.8478C68.4986 11.3791 68.2386 11.0147 67.8935 10.7548C67.5526 10.4949 67.1328 10.3649 66.6342 10.3649C66.1186 10.3649 65.6882 10.4991 65.343 10.7676C64.9979 11.0361 64.7379 11.4068 64.5632 11.8798C64.3885 12.3528 64.3011 12.894 64.3011 13.5034C64.3011 14.117 64.3885 14.6646 64.5632 15.1461C64.7422 15.6234 65.0043 16.0005 65.3494 16.2775C65.6989 16.5503 66.1271 16.6866 66.6342 16.6866ZM73.6831 18.4125V8.59429H75.9267V10.2307H76.0289C76.2079 9.6639 76.5147 9.22711 76.9494 8.92029C77.3883 8.60921 77.889 8.45367 78.4515 8.45367C78.5794 8.45367 78.7221 8.46006 78.8798 8.47284C79.0417 8.48137 79.176 8.49628 79.2825 8.51759V10.6461C79.1845 10.612 79.0289 10.5822 78.8159 10.5567C78.6071 10.5268 78.4047 10.5119 78.2086 10.5119C77.7868 10.5119 77.4075 10.6035 77.0708 10.7868C76.7385 10.9657 76.4764 11.215 76.2846 11.5346C76.0929 11.8542 75.997 12.2228 75.997 12.6405V18.4125H73.6831ZM84.7621 18.6042C83.7777 18.6042 82.9276 18.3997 82.2116 17.9906C81.5 17.5772 80.9524 16.9934 80.5689 16.2392C80.1854 15.4807 79.9936 14.5879 79.9936 13.5609C79.9936 12.551 80.1854 11.6646 80.5689 10.9018C80.9567 10.1348 81.4979 9.53819 82.1925 9.11205C82.8871 8.68165 83.7031 8.46645 84.6406 8.46645C85.2457 8.46645 85.8168 8.56446 86.3537 8.76049C86.8949 8.95225 87.3722 9.25054 87.7855 9.65537C88.2031 10.0602 88.5313 10.5758 88.7699 11.2022C89.0085 11.8244 89.1278 12.5659 89.1278 13.4267V14.1362H81.0803V12.5765H86.9098C86.9055 12.1334 86.8097 11.7392 86.6222 11.394C86.4347 11.0446 86.1726 10.7697 85.8359 10.5694C85.5036 10.3692 85.1158 10.269 84.6726 10.269C84.1996 10.269 83.7841 10.3841 83.4261 10.6142C83.0682 10.84 82.7891 11.1383 82.5888 11.5091C82.3928 11.8755 82.2926 12.2782 82.2884 12.7172V14.0787C82.2884 14.6497 82.3928 15.1397 82.6016 15.5488C82.8104 15.9537 83.1023 16.2647 83.4773 16.4821C83.8523 16.6951 84.2912 16.8017 84.794 16.8017C85.1307 16.8017 85.4354 16.7548 85.7081 16.6611C85.9808 16.563 86.2173 16.4203 86.4176 16.2328C86.6179 16.0453 86.7692 15.813 86.8714 15.5361L89.032 15.779C88.8956 16.35 88.6357 16.8486 88.2521 17.2747C87.8729 17.6966 87.3871 18.0247 86.7947 18.2591C86.2024 18.4892 85.5249 18.6042 84.7621 18.6042ZM98.3755 18.6106C97.7534 18.6106 97.193 18.4998 96.6944 18.2782C96.2001 18.0524 95.8081 17.72 95.5183 17.2811C95.2328 16.8422 95.09 16.301 95.09 15.6575C95.09 15.1035 95.1923 14.6454 95.3968 14.2832C95.6014 13.921 95.8805 13.6312 96.2342 13.4139C96.5879 13.1966 96.9863 13.0325 97.4295 12.9217C97.877 12.8067 98.3393 12.7236 98.8166 12.6724C99.3919 12.6128 99.8585 12.5595 100.216 12.5126C100.574 12.4615 100.834 12.3848 100.996 12.2825C101.162 12.176 101.246 12.0119 101.246 11.7903V11.752C101.246 11.2704 101.103 10.8976 100.817 10.6334C100.532 10.3692 100.121 10.237 99.5836 10.237C99.0169 10.237 98.5673 10.3606 98.2349 10.6078C97.9068 10.8549 97.6852 11.1469 97.5701 11.4835L95.4096 11.1767C95.5801 10.5801 95.8613 10.0815 96.2534 9.68094C96.6454 9.27611 97.1248 8.97355 97.6916 8.77327C98.2583 8.56873 98.8848 8.46645 99.5708 8.46645C100.044 8.46645 100.515 8.52185 100.983 8.63265C101.452 8.74344 101.881 8.92668 102.268 9.18236C102.656 9.43378 102.967 9.77682 103.202 10.2115C103.44 10.6461 103.559 11.1895 103.559 11.8415V18.4125H101.335V17.0638H101.258C101.118 17.3365 100.92 17.5922 100.664 17.8308C100.412 18.0652 100.095 18.2548 99.7115 18.3997C99.3322 18.5403 98.8869 18.6106 98.3755 18.6106ZM98.9764 16.9103C99.4409 16.9103 99.8436 16.8187 100.184 16.6355C100.525 16.448 100.787 16.2008 100.971 15.894C101.158 15.5872 101.252 15.2527 101.252 14.8905V13.7335C101.18 13.7932 101.056 13.8486 100.881 13.8997C100.711 13.9508 100.519 13.9956 100.306 14.0339C100.093 14.0723 99.8819 14.1064 99.6731 14.1362C99.4643 14.166 99.2832 14.1916 99.1298 14.2129C98.7846 14.2598 98.4757 14.3365 98.2029 14.443C97.9302 14.5495 97.715 14.6987 97.5574 14.8905C97.3997 15.078 97.3208 15.3209 97.3208 15.6192C97.3208 16.0453 97.4764 16.367 97.7875 16.5844C98.0985 16.8017 98.4949 16.9103 98.9764 16.9103ZM105.886 18.4125V8.59429H108.098V10.2626H108.213C108.417 9.70012 108.756 9.2612 109.229 8.94586C109.702 8.62625 110.267 8.46645 110.923 8.46645C111.588 8.46645 112.148 8.62838 112.604 8.95225C113.064 9.27185 113.388 9.70864 113.576 10.2626H113.678C113.895 9.71716 114.262 9.2825 114.778 8.95864C115.297 8.63052 115.913 8.46645 116.625 8.46645C117.528 8.46645 118.265 8.75196 118.836 9.32299C119.407 9.89401 119.693 10.7271 119.693 11.8223V18.4125H117.373V12.1802C117.373 11.5709 117.211 11.1255 116.887 10.8443C116.563 10.5588 116.167 10.416 115.698 10.416C115.14 10.416 114.703 10.5907 114.388 10.9402C114.077 11.2853 113.921 11.7349 113.921 12.2889V18.4125H111.652V12.0844C111.652 11.5772 111.498 11.1724 111.192 10.8699C110.889 10.5673 110.493 10.416 110.003 10.416C109.67 10.416 109.368 10.5013 109.095 10.6717C108.822 10.8379 108.605 11.0744 108.443 11.3812C108.281 11.6838 108.2 12.0375 108.2 12.4423V18.4125H105.886ZM126.323 18.6042C125.364 18.6042 124.533 18.3933 123.83 17.9714C123.127 17.5495 122.582 16.9594 122.194 16.2008C121.81 15.4423 121.619 14.5559 121.619 13.5417C121.619 12.5275 121.81 11.639 122.194 10.8763C122.582 10.1135 123.127 9.52114 123.83 9.09927C124.533 8.67739 125.364 8.46645 126.323 8.46645C127.282 8.46645 128.113 8.67739 128.816 9.09927C129.519 9.52114 130.063 10.1135 130.446 10.8763C130.834 11.639 131.028 12.5275 131.028 13.5417C131.028 14.5559 130.834 15.4423 130.446 16.2008C130.063 16.9594 129.519 17.5495 128.816 17.9714C128.113 18.3933 127.282 18.6042 126.323 18.6042ZM126.336 16.7505C126.856 16.7505 127.29 16.6078 127.64 16.3223C127.989 16.0325 128.249 15.6447 128.42 15.1589C128.594 14.6731 128.682 14.1319 128.682 13.5353C128.682 12.9345 128.594 12.3912 128.42 11.9054C128.249 11.4153 127.989 11.0254 127.64 10.7356C127.29 10.4459 126.856 10.301 126.336 10.301C125.803 10.301 125.36 10.4459 125.006 10.7356C124.657 11.0254 124.395 11.4153 124.22 11.9054C124.05 12.3912 123.964 12.9345 123.964 13.5353C123.964 14.1319 124.05 14.6731 124.22 15.1589C124.395 15.6447 124.657 16.0325 125.006 16.3223C125.36 16.6078 125.803 16.7505 126.336 16.7505ZM139.249 14.2832V8.59429H141.563V18.4125H139.32V16.6674H139.218C138.996 17.2172 138.632 17.6667 138.124 18.0162C137.622 18.3656 137.002 18.5403 136.264 18.5403C135.621 18.5403 135.052 18.3976 134.558 18.112C134.068 17.8223 133.684 17.4025 133.407 16.8528C133.13 16.2988 132.992 15.6298 132.992 14.8457V8.59429H135.306V14.4878C135.306 15.1099 135.476 15.6042 135.817 15.9707C136.158 16.3372 136.605 16.5204 137.159 16.5204C137.5 16.5204 137.83 16.4373 138.15 16.2711C138.47 16.1049 138.732 15.8578 138.936 15.5297C139.145 15.1973 139.249 14.7818 139.249 14.2832ZM143.943 18.4125V8.59429H146.186V10.2307H146.289C146.468 9.6639 146.775 9.22711 147.209 8.92029C147.648 8.60921 148.149 8.45367 148.711 8.45367C148.839 8.45367 148.982 8.46006 149.14 8.47284C149.301 8.48137 149.436 8.49628 149.542 8.51759V10.6461C149.444 10.612 149.289 10.5822 149.076 10.5567C148.867 10.5268 148.664 10.5119 148.468 10.5119C148.047 10.5119 147.667 10.6035 147.331 10.7868C146.998 10.9657 146.736 11.215 146.544 11.5346C146.353 11.8542 146.257 12.2228 146.257 12.6405V18.4125H143.943ZM155.022 18.6042C154.037 18.6042 153.187 18.3997 152.471 17.9906C151.76 17.5772 151.212 16.9934 150.829 16.2392C150.445 15.4807 150.253 14.5879 150.253 13.5609C150.253 12.551 150.445 11.6646 150.829 10.9018C151.216 10.1348 151.758 9.53819 152.452 9.11205C153.147 8.68165 153.963 8.46645 154.9 8.46645C155.506 8.46645 156.077 8.56446 156.613 8.76049C157.155 8.95225 157.632 9.25054 158.045 9.65537C158.463 10.0602 158.791 10.5758 159.03 11.2022C159.268 11.8244 159.388 12.5659 159.388 13.4267V14.1362H151.34V12.5765H157.17C157.165 12.1334 157.069 11.7392 156.882 11.394C156.694 11.0446 156.432 10.7697 156.096 10.5694C155.763 10.3692 155.376 10.269 154.932 10.269C154.459 10.269 154.044 10.3841 153.686 10.6142C153.328 10.84 153.049 11.1383 152.849 11.5091C152.653 11.8755 152.552 12.2782 152.548 12.7172V14.0787C152.548 14.6497 152.653 15.1397 152.861 15.5488C153.07 15.9537 153.362 16.2647 153.737 16.4821C154.112 16.6951 154.551 16.8017 155.054 16.8017C155.39 16.8017 155.695 16.7548 155.968 16.6611C156.241 16.563 156.477 16.4203 156.677 16.2328C156.878 16.0453 157.029 15.813 157.131 15.5361L159.292 15.779C159.155 16.35 158.895 16.8486 158.512 17.2747C158.133 17.6966 157.647 18.0247 157.055 18.2591C156.462 18.4892 155.785 18.6042 155.022 18.6042ZM167.603 14.2832V8.59429H169.917V18.4125H167.673V16.6674H167.571C167.349 17.2172 166.985 17.6667 166.478 18.0162C165.975 18.3656 165.355 18.5403 164.618 18.5403C163.974 18.5403 163.406 18.3976 162.911 18.112C162.421 17.8223 162.038 17.4025 161.761 16.8528C161.484 16.2988 161.345 15.6298 161.345 14.8457V8.59429H163.659V14.4878C163.659 15.1099 163.83 15.6042 164.17 15.9707C164.511 16.3372 164.959 16.5204 165.513 16.5204C165.854 16.5204 166.184 16.4373 166.504 16.2711C166.823 16.1049 167.085 15.8578 167.29 15.5297C167.499 15.1973 167.603 14.7818 167.603 14.2832ZM174.188 8.59429L176.17 12.2186L178.183 8.59429H180.632L177.672 13.5034L180.683 18.4125H178.247L176.17 14.8777L174.112 18.4125H171.657L174.649 13.5034L171.734 8.59429H174.188Z" fill="#F18EAC"/>
<path d="M4.56843 11.3403L13.2886 20.0604L22.0088 11.3403C23.0355 10.3135 23.6123 8.92094 23.6123 7.46888V7.22331C23.6123 4.33519 21.271 1.9939 18.3829 1.9939C16.7943 1.9939 15.2918 2.71603 14.2994 3.95652L13.2886 5.22006L12.2777 3.95652C11.2853 2.71603 9.78287 1.9939 8.19425 1.9939C5.30614 1.9939 2.96484 4.33519 2.96484 7.22331V7.46888C2.96484 8.92094 3.54167 10.3135 4.56843 11.3403Z" fill="#F18EAC"/>
</svg>
