<svg width="188" height="25" viewBox="0 0 188 25" fill="none" xmlns="http://www.w3.org/2000/svg">
<rect x="0.890625" y="0.412476" width="186.857" height="24.0516" rx="5" fill="#061F31"/>
<path d="M30.132 18.4125V5.32157H35.0411C36.0468 5.32157 36.8905 5.49628 37.5724 5.84571C38.2584 6.19515 38.7762 6.6852 39.1256 7.31588C39.4793 7.9423 39.6562 8.67313 39.6562 9.50836C39.6562 10.3478 39.4772 11.0765 39.1192 11.6944C38.7655 12.3081 38.2435 12.7832 37.5532 13.1199C36.8628 13.4522 36.0148 13.6184 35.0091 13.6184H31.5127V11.6497H34.6895C35.2776 11.6497 35.7591 11.5687 36.1341 11.4068C36.5091 11.2406 36.7861 10.9998 36.9651 10.6845C37.1483 10.3649 37.24 9.97284 37.24 9.50836C37.24 9.04387 37.1483 8.64756 36.9651 8.31944C36.7819 7.98705 36.5028 7.73563 36.1278 7.56517C35.7528 7.39046 35.2691 7.3031 34.6768 7.3031H32.5035V18.4125H30.132ZM36.8948 12.4807L40.1356 18.4125H37.4893L34.306 12.4807H36.8948ZM45.9427 18.6042C44.9584 18.6042 44.1082 18.3997 43.3923 17.9906C42.6807 17.5772 42.1331 16.9934 41.7496 16.2392C41.366 15.4807 41.1743 14.5879 41.1743 13.5609C41.1743 12.551 41.366 11.6646 41.7496 10.9018C42.1373 10.1348 42.6785 9.53819 43.3731 9.11205C44.0677 8.68165 44.8838 8.46645 45.8213 8.46645C46.4264 8.46645 46.9974 8.56446 47.5344 8.76049C48.0756 8.95225 48.5528 9.25054 48.9662 9.65537C49.3838 10.0602 49.7119 10.5758 49.9506 11.2022C50.1892 11.8244 50.3085 12.5659 50.3085 13.4267V14.1362H42.2609V12.5765H48.0905C48.0862 12.1334 47.9903 11.7392 47.8028 11.394C47.6153 11.0446 47.3532 10.7697 47.0166 10.5694C46.6842 10.3692 46.2964 10.269 45.8532 10.269C45.3802 10.269 44.9648 10.3841 44.6068 10.6142C44.2488 10.84 43.9697 11.1383 43.7694 11.5091C43.5734 11.8755 43.4733 12.2782 43.469 12.7172V14.0787C43.469 14.6497 43.5734 15.1397 43.7822 15.5488C43.991 15.9537 44.2829 16.2647 44.6579 16.4821C45.0329 16.6951 45.4719 16.8017 45.9747 16.8017C46.3113 16.8017 46.616 16.7548 46.8888 16.6611C47.1615 16.563 47.398 16.4203 47.5983 16.2328C47.7986 16.0453 47.9498 15.813 48.0521 15.5361L50.2126 15.779C50.0763 16.35 49.8163 16.8486 49.4328 17.2747C49.0535 17.6966 48.5677 18.0247 47.9754 18.2591C47.3831 18.4892 46.7055 18.6042 45.9427 18.6042ZM54.58 12.6596V18.4125H52.2661V8.59429H54.4777V10.2626H54.5928C54.8186 9.7129 55.1787 9.27611 55.673 8.95225C56.1716 8.62838 56.7874 8.46645 57.5203 8.46645C58.1979 8.46645 58.7881 8.61134 59.2909 8.90111C59.798 9.19088 60.1901 9.61063 60.4671 10.1603C60.7483 10.7101 60.8868 11.377 60.8825 12.1611V18.4125H58.5686V12.519C58.5686 11.8628 58.3982 11.3493 58.0573 10.9785C57.7206 10.6078 57.254 10.4224 56.6574 10.4224C56.2526 10.4224 55.8925 10.5119 55.5771 10.6909C55.2661 10.8656 55.021 11.1192 54.8421 11.4515C54.6673 11.7839 54.58 12.1866 54.58 12.6596ZM66.8783 18.5851C66.107 18.5851 65.4166 18.3869 64.8073 17.9906C64.1979 17.5943 63.7164 17.019 63.3627 16.2647C63.009 15.5105 62.8321 14.5943 62.8321 13.5162C62.8321 12.4253 63.0111 11.5048 63.3691 10.7548C63.7313 10.0005 64.2192 9.43165 64.8328 9.04813C65.4465 8.66034 66.1304 8.46645 66.8847 8.46645C67.46 8.46645 67.933 8.56446 68.3037 8.76049C68.6744 8.95225 68.9685 9.18449 69.1858 9.45722C69.4031 9.72569 69.5715 9.97924 69.6908 10.2179H69.7867V5.32157H72.107V18.4125H69.8314V16.8656H69.6908C69.5715 17.1042 69.3989 17.3578 69.173 17.6263C68.9472 17.8905 68.6489 18.1163 68.2781 18.3038C67.9074 18.4913 67.4408 18.5851 66.8783 18.5851ZM67.5239 16.6866C68.0139 16.6866 68.4316 16.5545 68.7767 16.2903C69.1219 16.0219 69.384 15.649 69.5629 15.1717C69.7419 14.6944 69.8314 14.1383 69.8314 13.5034C69.8314 12.8684 69.7419 12.3166 69.5629 11.8478C69.3882 11.3791 69.1283 11.0147 68.7831 10.7548C68.4422 10.4949 68.0225 10.3649 67.5239 10.3649C67.0083 10.3649 66.5779 10.4991 66.2327 10.7676C65.8875 11.0361 65.6276 11.4068 65.4529 11.8798C65.2781 12.3528 65.1908 12.894 65.1908 13.5034C65.1908 14.117 65.2781 14.6646 65.4529 15.1461C65.6318 15.6234 65.8939 16.0005 66.2391 16.2775C66.5885 16.5503 67.0168 16.6866 67.5239 16.6866ZM74.5727 18.4125V8.59429H76.8163V10.2307H76.9186C77.0976 9.6639 77.4044 9.22711 77.839 8.92029C78.278 8.60921 78.7787 8.45367 79.3412 8.45367C79.469 8.45367 79.6118 8.46006 79.7694 8.47284C79.9314 8.48137 80.0656 8.49628 80.1721 8.51759V10.6461C80.0741 10.612 79.9186 10.5822 79.7055 10.5567C79.4967 10.5268 79.2943 10.5119 79.0983 10.5119C78.6764 10.5119 78.2971 10.6035 77.9605 10.7868C77.6281 10.9657 77.366 11.215 77.1743 11.5346C76.9825 11.8542 76.8866 12.2228 76.8866 12.6405V18.4125H74.5727ZM85.6517 18.6042C84.6673 18.6042 83.8172 18.3997 83.1013 17.9906C82.3896 17.5772 81.8421 16.9934 81.4585 16.2392C81.075 15.4807 80.8833 14.5879 80.8833 13.5609C80.8833 12.551 81.075 11.6646 81.4585 10.9018C81.8463 10.1348 82.3875 9.53819 83.0821 9.11205C83.7767 8.68165 84.5928 8.46645 85.5303 8.46645C86.1354 8.46645 86.7064 8.56446 87.2433 8.76049C87.7845 8.95225 88.2618 9.25054 88.6752 9.65537C89.0928 10.0602 89.4209 10.5758 89.6595 11.2022C89.8982 11.8244 90.0175 12.5659 90.0175 13.4267V14.1362H81.9699V12.5765H87.7994C87.7952 12.1334 87.6993 11.7392 87.5118 11.394C87.3243 11.0446 87.0622 10.7697 86.7256 10.5694C86.3932 10.3692 86.0054 10.269 85.5622 10.269C85.0892 10.269 84.6737 10.3841 84.3158 10.6142C83.9578 10.84 83.6787 11.1383 83.4784 11.5091C83.2824 11.8755 83.1823 12.2782 83.178 12.7172V14.0787C83.178 14.6497 83.2824 15.1397 83.4912 15.5488C83.7 15.9537 83.9919 16.2647 84.3669 16.4821C84.7419 16.6951 85.1808 16.8017 85.6837 16.8017C86.0203 16.8017 86.325 16.7548 86.5977 16.6611C86.8705 16.563 87.107 16.4203 87.3073 16.2328C87.5075 16.0453 87.6588 15.813 87.7611 15.5361L89.9216 15.779C89.7852 16.35 89.5253 16.8486 89.1418 17.2747C88.7625 17.6966 88.2767 18.0247 87.6844 18.2591C87.0921 18.4892 86.4145 18.6042 85.6517 18.6042ZM99.2652 18.6106C98.643 18.6106 98.0827 18.4998 97.5841 18.2782C97.0898 18.0524 96.6977 17.72 96.4079 17.2811C96.1224 16.8422 95.9797 16.301 95.9797 15.6575C95.9797 15.1035 96.0819 14.6454 96.2865 14.2832C96.491 13.921 96.7702 13.6312 97.1238 13.4139C97.4775 13.1966 97.876 13.0325 98.3192 12.9217C98.7666 12.8067 99.229 12.7236 99.7062 12.6724C100.282 12.6128 100.748 12.5595 101.106 12.5126C101.464 12.4615 101.724 12.3848 101.886 12.2825C102.052 12.176 102.135 12.0119 102.135 11.7903V11.752C102.135 11.2704 101.992 10.8976 101.707 10.6334C101.421 10.3692 101.01 10.237 100.473 10.237C99.9065 10.237 99.4569 10.3606 99.1246 10.6078C98.7964 10.8549 98.5748 11.1469 98.4598 11.4835L96.2993 11.1767C96.4697 10.5801 96.751 10.0815 97.143 9.68094C97.5351 9.27611 98.0145 8.97355 98.5812 8.77327C99.148 8.56873 99.7744 8.46645 100.46 8.46645C100.934 8.46645 101.404 8.52185 101.873 8.63265C102.342 8.74344 102.77 8.92668 103.158 9.18236C103.546 9.43378 103.857 9.77682 104.091 10.2115C104.33 10.6461 104.449 11.1895 104.449 11.8415V18.4125H102.225V17.0638H102.148C102.007 17.3365 101.809 17.5922 101.554 17.8308C101.302 18.0652 100.985 18.2548 100.601 18.3997C100.222 18.5403 99.7765 18.6106 99.2652 18.6106ZM99.866 16.9103C100.331 16.9103 100.733 16.8187 101.074 16.6355C101.415 16.448 101.677 16.2008 101.86 15.894C102.048 15.5872 102.142 15.2527 102.142 14.8905V13.7335C102.069 13.7932 101.946 13.8486 101.771 13.8997C101.6 13.9508 101.409 13.9956 101.196 14.0339C100.983 14.0723 100.772 14.1064 100.563 14.1362C100.354 14.166 100.173 14.1916 100.019 14.2129C99.6743 14.2598 99.3653 14.3365 99.0926 14.443C98.8199 14.5495 98.6047 14.6987 98.447 14.8905C98.2893 15.078 98.2105 15.3209 98.2105 15.6192C98.2105 16.0453 98.366 16.367 98.6771 16.5844C98.9882 16.8017 99.3845 16.9103 99.866 16.9103ZM106.776 18.4125V8.59429H108.987V10.2626H109.103C109.307 9.70012 109.646 9.2612 110.119 8.94586C110.592 8.62625 111.157 8.46645 111.813 8.46645C112.478 8.46645 113.038 8.62838 113.494 8.95225C113.954 9.27185 114.278 9.70864 114.465 10.2626H114.568C114.785 9.71716 115.152 9.2825 115.667 8.95864C116.187 8.63052 116.803 8.46645 117.514 8.46645C118.418 8.46645 119.155 8.75196 119.726 9.32299C120.297 9.89401 120.583 10.7271 120.583 11.8223V18.4125H118.262V12.1802C118.262 11.5709 118.1 11.1255 117.777 10.8443C117.453 10.5588 117.056 10.416 116.588 10.416C116.029 10.416 115.593 10.5907 115.277 10.9402C114.966 11.2853 114.811 11.7349 114.811 12.2889V18.4125H112.541V12.0844C112.541 11.5772 112.388 11.1724 112.081 10.8699C111.779 10.5673 111.382 10.416 110.892 10.416C110.56 10.416 110.257 10.5013 109.985 10.6717C109.712 10.8379 109.495 11.0744 109.333 11.3812C109.171 11.6838 109.09 12.0375 109.09 12.4423V18.4125H106.776ZM127.213 18.6042C126.254 18.6042 125.423 18.3933 124.72 17.9714C124.017 17.5495 123.471 16.9594 123.084 16.2008C122.7 15.4423 122.508 14.5559 122.508 13.5417C122.508 12.5275 122.7 11.639 123.084 10.8763C123.471 10.1135 124.017 9.52114 124.72 9.09927C125.423 8.67739 126.254 8.46645 127.213 8.46645C128.172 8.46645 129.003 8.67739 129.706 9.09927C130.409 9.52114 130.952 10.1135 131.336 10.8763C131.723 11.639 131.917 12.5275 131.917 13.5417C131.917 14.5559 131.723 15.4423 131.336 16.2008C130.952 16.9594 130.409 17.5495 129.706 17.9714C129.003 18.3933 128.172 18.6042 127.213 18.6042ZM127.226 16.7505C127.745 16.7505 128.18 16.6078 128.53 16.3223C128.879 16.0325 129.139 15.6447 129.309 15.1589C129.484 14.6731 129.571 14.1319 129.571 13.5353C129.571 12.9345 129.484 12.3912 129.309 11.9054C129.139 11.4153 128.879 11.0254 128.53 10.7356C128.18 10.4459 127.745 10.301 127.226 10.301C126.693 10.301 126.25 10.4459 125.896 10.7356C125.547 11.0254 125.285 11.4153 125.11 11.9054C124.939 12.3912 124.854 12.9345 124.854 13.5353C124.854 14.1319 124.939 14.6731 125.11 15.1589C125.285 15.6447 125.547 16.0325 125.896 16.3223C126.25 16.6078 126.693 16.7505 127.226 16.7505ZM140.139 14.2832V8.59429H142.453V18.4125H140.209V16.6674H140.107C139.886 17.2172 139.521 17.6667 139.014 18.0162C138.511 18.3656 137.891 18.5403 137.154 18.5403C136.511 18.5403 135.942 18.3976 135.447 18.112C134.957 17.8223 134.574 17.4025 134.297 16.8528C134.02 16.2988 133.881 15.6298 133.881 14.8457V8.59429H136.195V14.4878C136.195 15.1099 136.366 15.6042 136.707 15.9707C137.047 16.3372 137.495 16.5204 138.049 16.5204C138.39 16.5204 138.72 16.4373 139.04 16.2711C139.359 16.1049 139.621 15.8578 139.826 15.5297C140.035 15.1973 140.139 14.7818 140.139 14.2832ZM144.832 18.4125V8.59429H147.076V10.2307H147.178C147.357 9.6639 147.664 9.22711 148.099 8.92029C148.538 8.60921 149.038 8.45367 149.601 8.45367C149.729 8.45367 149.872 8.46006 150.029 8.47284C150.191 8.48137 150.325 8.49628 150.432 8.51759V10.6461C150.334 10.612 150.178 10.5822 149.965 10.5567C149.756 10.5268 149.554 10.5119 149.358 10.5119C148.936 10.5119 148.557 10.6035 148.22 10.7868C147.888 10.9657 147.626 11.215 147.434 11.5346C147.242 11.8542 147.146 12.2228 147.146 12.6405V18.4125H144.832ZM155.911 18.6042C154.927 18.6042 154.077 18.3997 153.361 17.9906C152.649 17.5772 152.102 16.9934 151.718 16.2392C151.335 15.4807 151.143 14.5879 151.143 13.5609C151.143 12.551 151.335 11.6646 151.718 10.9018C152.106 10.1348 152.647 9.53819 153.342 9.11205C154.036 8.68165 154.853 8.46645 155.79 8.46645C156.395 8.46645 156.966 8.56446 157.503 8.76049C158.044 8.95225 158.522 9.25054 158.935 9.65537C159.353 10.0602 159.681 10.5758 159.919 11.2022C160.158 11.8244 160.277 12.5659 160.277 13.4267V14.1362H152.23V12.5765H158.059C158.055 12.1334 157.959 11.7392 157.772 11.394C157.584 11.0446 157.322 10.7697 156.985 10.5694C156.653 10.3692 156.265 10.269 155.822 10.269C155.349 10.269 154.934 10.3841 154.576 10.6142C154.218 10.84 153.938 11.1383 153.738 11.5091C153.542 11.8755 153.442 12.2782 153.438 12.7172V14.0787C153.438 14.6497 153.542 15.1397 153.751 15.5488C153.96 15.9537 154.252 16.2647 154.627 16.4821C155.002 16.6951 155.441 16.8017 155.943 16.8017C156.28 16.8017 156.585 16.7548 156.858 16.6611C157.13 16.563 157.367 16.4203 157.567 16.2328C157.767 16.0453 157.919 15.813 158.021 15.5361L160.181 15.779C160.045 16.35 159.785 16.8486 159.402 17.2747C159.022 17.6966 158.536 18.0247 157.944 18.2591C157.352 18.4892 156.674 18.6042 155.911 18.6042ZM168.493 14.2832V8.59429H170.807V18.4125H168.563V16.6674H168.461C168.239 17.2172 167.875 17.6667 167.368 18.0162C166.865 18.3656 166.245 18.5403 165.508 18.5403C164.864 18.5403 164.295 18.3976 163.801 18.112C163.311 17.8223 162.927 17.4025 162.65 16.8528C162.373 16.2988 162.235 15.6298 162.235 14.8457V8.59429H164.549V14.4878C164.549 15.1099 164.719 15.6042 165.06 15.9707C165.401 16.3372 165.848 16.5204 166.402 16.5204C166.743 16.5204 167.074 16.4373 167.393 16.2711C167.713 16.1049 167.975 15.8578 168.179 15.5297C168.388 15.1973 168.493 14.7818 168.493 14.2832ZM175.078 8.59429L177.06 12.2186L179.073 8.59429H181.521L178.562 13.5034L181.572 18.4125H179.137L177.06 14.8777L175.001 18.4125H172.547L175.538 13.5034L172.623 8.59429H175.078Z" fill="#F18EAC"/>
<path d="M7.04095 13.2558L14.9479 21.1627L22.8549 13.2558C23.7858 12.3248 24.3089 11.0621 24.3089 9.74541V9.52274C24.3089 6.90396 22.1859 4.78101 19.5672 4.78101C18.1266 4.78101 16.7643 5.43579 15.8645 6.5606L14.9479 7.70631L14.0313 6.5606C13.1315 5.43579 11.7691 4.78101 10.3286 4.78101C7.70987 4.78101 5.58691 6.90396 5.58691 9.52274V9.74541C5.58691 11.0621 6.10995 12.3248 7.04095 13.2558Z" fill="#F18EAC"/>
</svg>
