<svg width="188" height="25" viewBox="0 0 188 25" fill="none" xmlns="http://www.w3.org/2000/svg">
<rect x="0.395508" y="0.412476" width="186.857" height="24.0516" rx="5" fill="#F18EAC"/>
<path d="M29.6369 18.4125V5.32157H34.546C35.5517 5.32157 36.3954 5.49628 37.0772 5.84571C37.7633 6.19515 38.2811 6.6852 38.6305 7.31588C38.9842 7.9423 39.161 8.67313 39.161 9.50836C39.161 10.3478 38.9821 11.0765 38.6241 11.6944C38.2704 12.3081 37.7484 12.7832 37.0581 13.1199C36.3677 13.4522 35.5197 13.6184 34.514 13.6184H31.0176V11.6497H34.1944C34.7825 11.6497 35.264 11.5687 35.639 11.4068C36.014 11.2406 36.291 10.9998 36.47 10.6845C36.6532 10.3649 36.7449 9.97284 36.7449 9.50836C36.7449 9.04387 36.6532 8.64756 36.47 8.31944C36.2868 7.98705 36.0076 7.73563 35.6326 7.56517C35.2576 7.39046 34.774 7.3031 34.1816 7.3031H32.0083V18.4125H29.6369ZM36.3997 12.4807L39.6404 18.4125H36.9941L33.8109 12.4807H36.3997ZM45.4476 18.6042C44.4632 18.6042 43.6131 18.3997 42.8972 17.9906C42.1855 17.5772 41.638 16.9934 41.2544 16.2392C40.8709 15.4807 40.6792 14.5879 40.6792 13.5609C40.6792 12.551 40.8709 11.6646 41.2544 10.9018C41.6422 10.1348 42.1834 9.53819 42.878 9.11205C43.5726 8.68165 44.3887 8.46645 45.3262 8.46645C45.9313 8.46645 46.5023 8.56446 47.0392 8.76049C47.5804 8.95225 48.0577 9.25054 48.4711 9.65537C48.8887 10.0602 49.2168 10.5758 49.4554 11.2022C49.6941 11.8244 49.8134 12.5659 49.8134 13.4267V14.1362H41.7658V12.5765H47.5953C47.5911 12.1334 47.4952 11.7392 47.3077 11.394C47.1202 11.0446 46.8581 10.7697 46.5215 10.5694C46.1891 10.3692 45.8013 10.269 45.3581 10.269C44.8851 10.269 44.4696 10.3841 44.1117 10.6142C43.7537 10.84 43.4746 11.1383 43.2743 11.5091C43.0783 11.8755 42.9782 12.2782 42.9739 12.7172V14.0787C42.9739 14.6497 43.0783 15.1397 43.2871 15.5488C43.4959 15.9537 43.7878 16.2647 44.1628 16.4821C44.5378 16.6951 44.9767 16.8017 45.4796 16.8017C45.8162 16.8017 46.1209 16.7548 46.3936 16.6611C46.6664 16.563 46.9029 16.4203 47.1032 16.2328C47.3034 16.0453 47.4547 15.813 47.557 15.5361L49.7175 15.779C49.5811 16.35 49.3212 16.8486 48.9377 17.2747C48.5584 17.6966 48.0726 18.0247 47.4803 18.2591C46.888 18.4892 46.2104 18.6042 45.4476 18.6042ZM54.0849 12.6596V18.4125H51.771V8.59429H53.9826V10.2626H54.0977C54.3235 9.7129 54.6836 9.27611 55.1779 8.95225C55.6765 8.62838 56.2923 8.46645 57.0252 8.46645C57.7028 8.46645 58.293 8.61134 58.7958 8.90111C59.3029 9.19088 59.695 9.61063 59.9719 10.1603C60.2532 10.7101 60.3917 11.377 60.3874 12.1611V18.4125H58.0735V12.519C58.0735 11.8628 57.9031 11.3493 57.5621 10.9785C57.2255 10.6078 56.7589 10.4224 56.1623 10.4224C55.7575 10.4224 55.3974 10.5119 55.082 10.6909C54.771 10.8656 54.5259 11.1192 54.3469 11.4515C54.1722 11.7839 54.0849 12.1866 54.0849 12.6596ZM66.3832 18.5851C65.6119 18.5851 64.9215 18.3869 64.3121 17.9906C63.7028 17.5943 63.2212 17.019 62.8675 16.2647C62.5138 15.5105 62.337 14.5943 62.337 13.5162C62.337 12.4253 62.516 11.5048 62.8739 10.7548C63.2362 10.0005 63.7241 9.43165 64.3377 9.04813C64.9513 8.66034 65.6353 8.46645 66.3896 8.46645C66.9648 8.46645 67.4379 8.56446 67.8086 8.76049C68.1793 8.95225 68.4734 9.18449 68.6907 9.45722C68.908 9.72569 69.0763 9.97924 69.1957 10.2179H69.2915V5.32157H71.6119V18.4125H69.3363V16.8656H69.1957C69.0763 17.1042 68.9038 17.3578 68.6779 17.6263C68.4521 17.8905 68.1538 18.1163 67.783 18.3038C67.4123 18.4913 66.9457 18.5851 66.3832 18.5851ZM67.0288 16.6866C67.5188 16.6866 67.9364 16.5545 68.2816 16.2903C68.6268 16.0219 68.8888 15.649 69.0678 15.1717C69.2468 14.6944 69.3363 14.1383 69.3363 13.5034C69.3363 12.8684 69.2468 12.3166 69.0678 11.8478C68.8931 11.3791 68.6332 11.0147 68.288 10.7548C67.9471 10.4949 67.5273 10.3649 67.0288 10.3649C66.5131 10.3649 66.0827 10.4991 65.7376 10.7676C65.3924 11.0361 65.1325 11.4068 64.9577 11.8798C64.783 12.3528 64.6957 12.894 64.6957 13.5034C64.6957 14.117 64.783 14.6646 64.9577 15.1461C65.1367 15.6234 65.3988 16.0005 65.744 16.2775C66.0934 16.5503 66.5217 16.6866 67.0288 16.6866ZM74.0776 18.4125V8.59429H76.3212V10.2307H76.4235C76.6025 9.6639 76.9093 9.22711 77.3439 8.92029C77.7828 8.60921 78.2836 8.45367 78.8461 8.45367C78.9739 8.45367 79.1167 8.46006 79.2743 8.47284C79.4363 8.48137 79.5705 8.49628 79.677 8.51759V10.6461C79.579 10.612 79.4235 10.5822 79.2104 10.5567C79.0016 10.5268 78.7992 10.5119 78.6032 10.5119C78.1813 10.5119 77.802 10.6035 77.4654 10.7868C77.133 10.9657 76.8709 11.215 76.6792 11.5346C76.4874 11.8542 76.3915 12.2228 76.3915 12.6405V18.4125H74.0776ZM85.1566 18.6042C84.1722 18.6042 83.3221 18.3997 82.6062 17.9906C81.8945 17.5772 81.3469 16.9934 80.9634 16.2392C80.5799 15.4807 80.3881 14.5879 80.3881 13.5609C80.3881 12.551 80.5799 11.6646 80.9634 10.9018C81.3512 10.1348 81.8924 9.53819 82.587 9.11205C83.2816 8.68165 84.0977 8.46645 85.0352 8.46645C85.6403 8.46645 86.2113 8.56446 86.7482 8.76049C87.2894 8.95225 87.7667 9.25054 88.18 9.65537C88.5977 10.0602 88.9258 10.5758 89.1644 11.2022C89.4031 11.8244 89.5224 12.5659 89.5224 13.4267V14.1362H81.4748V12.5765H87.3043C87.3001 12.1334 87.2042 11.7392 87.0167 11.394C86.8292 11.0446 86.5671 10.7697 86.2305 10.5694C85.8981 10.3692 85.5103 10.269 85.0671 10.269C84.5941 10.269 84.1786 10.3841 83.8207 10.6142C83.4627 10.84 83.1836 11.1383 82.9833 11.5091C82.7873 11.8755 82.6871 12.2782 82.6829 12.7172V14.0787C82.6829 14.6497 82.7873 15.1397 82.9961 15.5488C83.2049 15.9537 83.4968 16.2647 83.8718 16.4821C84.2468 16.6951 84.6857 16.8017 85.1886 16.8017C85.5252 16.8017 85.8299 16.7548 86.1026 16.6611C86.3754 16.563 86.6119 16.4203 86.8121 16.2328C87.0124 16.0453 87.1637 15.813 87.266 15.5361L89.4265 15.779C89.2901 16.35 89.0302 16.8486 88.6467 17.2747C88.2674 17.6966 87.7816 18.0247 87.1893 18.2591C86.5969 18.4892 85.9194 18.6042 85.1566 18.6042ZM98.7701 18.6106C98.1479 18.6106 97.5875 18.4998 97.089 18.2782C96.5946 18.0524 96.2026 17.72 95.9128 17.2811C95.6273 16.8422 95.4846 16.301 95.4846 15.6575C95.4846 15.1035 95.5868 14.6454 95.7914 14.2832C95.9959 13.921 96.275 13.6312 96.6287 13.4139C96.9824 13.1966 97.3809 13.0325 97.824 12.9217C98.2715 12.8067 98.7338 12.7236 99.2111 12.6724C99.7864 12.6128 100.253 12.5595 100.611 12.5126C100.969 12.4615 101.229 12.3848 101.391 12.2825C101.557 12.176 101.64 12.0119 101.64 11.7903V11.752C101.64 11.2704 101.497 10.8976 101.212 10.6334C100.926 10.3692 100.515 10.237 99.9782 10.237C99.4114 10.237 98.9618 10.3606 98.6294 10.6078C98.3013 10.8549 98.0797 11.1469 97.9647 11.4835L95.8042 11.1767C95.9746 10.5801 96.2559 10.0815 96.6479 9.68094C97.04 9.27611 97.5194 8.97355 98.0861 8.77327C98.6529 8.56873 99.2793 8.46645 99.9654 8.46645C100.438 8.46645 100.909 8.52185 101.378 8.63265C101.847 8.74344 102.275 8.92668 102.663 9.18236C103.051 9.43378 103.362 9.77682 103.596 10.2115C103.835 10.6461 103.954 11.1895 103.954 11.8415V18.4125H101.73V17.0638H101.653C101.512 17.3365 101.314 17.5922 101.058 17.8308C100.807 18.0652 100.49 18.2548 100.106 18.3997C99.7267 18.5403 99.2814 18.6106 98.7701 18.6106ZM99.3709 16.9103C99.8354 16.9103 100.238 16.8187 100.579 16.6355C100.92 16.448 101.182 16.2008 101.365 15.894C101.553 15.5872 101.646 15.2527 101.646 14.8905V13.7335C101.574 13.7932 101.45 13.8486 101.276 13.8997C101.105 13.9508 100.914 13.9956 100.7 14.0339C100.487 14.0723 100.276 14.1064 100.068 14.1362C99.8588 14.166 99.6777 14.1916 99.5243 14.2129C99.1792 14.2598 98.8702 14.3365 98.5975 14.443C98.3248 14.5495 98.1096 14.6987 97.9519 14.8905C97.7942 15.078 97.7154 15.3209 97.7154 15.6192C97.7154 16.0453 97.8709 16.367 98.182 16.5844C98.4931 16.8017 98.8894 16.9103 99.3709 16.9103ZM106.281 18.4125V8.59429H108.492V10.2626H108.607C108.812 9.70012 109.151 9.2612 109.624 8.94586C110.097 8.62625 110.661 8.46645 111.318 8.46645C111.982 8.46645 112.543 8.62838 112.999 8.95225C113.459 9.27185 113.783 9.70864 113.97 10.2626H114.073C114.29 9.71716 114.656 9.2825 115.172 8.95864C115.692 8.63052 116.308 8.46645 117.019 8.46645C117.923 8.46645 118.66 8.75196 119.231 9.32299C119.802 9.89401 120.088 10.7271 120.088 11.8223V18.4125H117.767V12.1802C117.767 11.5709 117.605 11.1255 117.281 10.8443C116.958 10.5588 116.561 10.416 116.093 10.416C115.534 10.416 115.097 10.5907 114.782 10.9402C114.471 11.2853 114.316 11.7349 114.316 12.2889V18.4125H112.046V12.0844C112.046 11.5772 111.893 11.1724 111.586 10.8699C111.284 10.5673 110.887 10.416 110.397 10.416C110.065 10.416 109.762 10.5013 109.49 10.6717C109.217 10.8379 108.999 11.0744 108.838 11.3812C108.676 11.6838 108.595 12.0375 108.595 12.4423V18.4125H106.281ZM126.718 18.6042C125.759 18.6042 124.928 18.3933 124.225 17.9714C123.522 17.5495 122.976 16.9594 122.588 16.2008C122.205 15.4423 122.013 14.5559 122.013 13.5417C122.013 12.5275 122.205 11.639 122.588 10.8763C122.976 10.1135 123.522 9.52114 124.225 9.09927C124.928 8.67739 125.759 8.46645 126.718 8.46645C127.676 8.46645 128.507 8.67739 129.211 9.09927C129.914 9.52114 130.457 10.1135 130.841 10.8763C131.228 11.639 131.422 12.5275 131.422 13.5417C131.422 14.5559 131.228 15.4423 130.841 16.2008C130.457 16.9594 129.914 17.5495 129.211 17.9714C128.507 18.3933 127.676 18.6042 126.718 18.6042ZM126.73 16.7505C127.25 16.7505 127.685 16.6078 128.034 16.3223C128.384 16.0325 128.644 15.6447 128.814 15.1589C128.989 14.6731 129.076 14.1319 129.076 13.5353C129.076 12.9345 128.989 12.3912 128.814 11.9054C128.644 11.4153 128.384 11.0254 128.034 10.7356C127.685 10.4459 127.25 10.301 126.73 10.301C126.198 10.301 125.755 10.4459 125.401 10.7356C125.051 11.0254 124.789 11.4153 124.615 11.9054C124.444 12.3912 124.359 12.9345 124.359 13.5353C124.359 14.1319 124.444 14.6731 124.615 15.1589C124.789 15.6447 125.051 16.0325 125.401 16.3223C125.755 16.6078 126.198 16.7505 126.73 16.7505ZM139.644 14.2832V8.59429H141.958V18.4125H139.714V16.6674H139.612C139.39 17.2172 139.026 17.6667 138.519 18.0162C138.016 18.3656 137.396 18.5403 136.659 18.5403C136.015 18.5403 135.447 18.3976 134.952 18.112C134.462 17.8223 134.079 17.4025 133.802 16.8528C133.525 16.2988 133.386 15.6298 133.386 14.8457V8.59429H135.7V14.4878C135.7 15.1099 135.871 15.6042 136.211 15.9707C136.552 16.3372 137 16.5204 137.554 16.5204C137.895 16.5204 138.225 16.4373 138.545 16.2711C138.864 16.1049 139.126 15.8578 139.331 15.5297C139.54 15.1973 139.644 14.7818 139.644 14.2832ZM144.337 18.4125V8.59429H146.581V10.2307H146.683C146.862 9.6639 147.169 9.22711 147.604 8.92029C148.043 8.60921 148.543 8.45367 149.106 8.45367C149.234 8.45367 149.376 8.46006 149.534 8.47284C149.696 8.48137 149.83 8.49628 149.937 8.51759V10.6461C149.839 10.612 149.683 10.5822 149.47 10.5567C149.261 10.5268 149.059 10.5119 148.863 10.5119C148.441 10.5119 148.062 10.6035 147.725 10.7868C147.393 10.9657 147.131 11.215 146.939 11.5346C146.747 11.8542 146.651 12.2228 146.651 12.6405V18.4125H144.337ZM155.416 18.6042C154.432 18.6042 153.582 18.3997 152.866 17.9906C152.154 17.5772 151.607 16.9934 151.223 16.2392C150.84 15.4807 150.648 14.5879 150.648 13.5609C150.648 12.551 150.84 11.6646 151.223 10.9018C151.611 10.1348 152.152 9.53819 152.847 9.11205C153.541 8.68165 154.357 8.46645 155.295 8.46645C155.9 8.46645 156.471 8.56446 157.008 8.76049C157.549 8.95225 158.026 9.25054 158.44 9.65537C158.857 10.0602 159.186 10.5758 159.424 11.2022C159.663 11.8244 159.782 12.5659 159.782 13.4267V14.1362H151.735V12.5765H157.564C157.56 12.1334 157.464 11.7392 157.276 11.394C157.089 11.0446 156.827 10.7697 156.49 10.5694C156.158 10.3692 155.77 10.269 155.327 10.269C154.854 10.269 154.438 10.3841 154.08 10.6142C153.722 10.84 153.443 11.1383 153.243 11.5091C153.047 11.8755 152.947 12.2782 152.943 12.7172V14.0787C152.943 14.6497 153.047 15.1397 153.256 15.5488C153.465 15.9537 153.757 16.2647 154.132 16.4821C154.507 16.6951 154.945 16.8017 155.448 16.8017C155.785 16.8017 156.09 16.7548 156.362 16.6611C156.635 16.563 156.872 16.4203 157.072 16.2328C157.272 16.0453 157.423 15.813 157.526 15.5361L159.686 15.779C159.55 16.35 159.29 16.8486 158.906 17.2747C158.527 17.6966 158.041 18.0247 157.449 18.2591C156.857 18.4892 156.179 18.6042 155.416 18.6042ZM167.998 14.2832V8.59429H170.311V18.4125H168.068V16.6674H167.966C167.744 17.2172 167.38 17.6667 166.873 18.0162C166.37 18.3656 165.75 18.5403 165.012 18.5403C164.369 18.5403 163.8 18.3976 163.306 18.112C162.816 17.8223 162.432 17.4025 162.155 16.8528C161.878 16.2988 161.74 15.6298 161.74 14.8457V8.59429H164.054V14.4878C164.054 15.1099 164.224 15.6042 164.565 15.9707C164.906 16.3372 165.353 16.5204 165.907 16.5204C166.248 16.5204 166.578 16.4373 166.898 16.2711C167.218 16.1049 167.48 15.8578 167.684 15.5297C167.893 15.1973 167.998 14.7818 167.998 14.2832ZM174.583 8.59429L176.564 12.2186L178.578 8.59429H181.026L178.067 13.5034L181.077 18.4125H178.642L176.564 14.8777L174.506 18.4125H172.052L175.043 13.5034L172.128 8.59429H174.583Z" fill="#061F31"/>
<path d="M6.54584 13.2558L14.4528 21.1627L22.3598 13.2558C23.2907 12.3248 23.8138 11.0621 23.8138 9.74541V9.52274C23.8138 6.90396 21.6908 4.78101 19.0721 4.78101C17.6315 4.78101 16.2692 5.43579 15.3693 6.5606L14.4528 7.70631L13.5362 6.5606C12.6364 5.43579 11.274 4.78101 9.83353 4.78101C7.21475 4.78101 5.0918 6.90396 5.0918 9.52274V9.74541C5.0918 11.0621 5.61483 12.3248 6.54584 13.2558Z" fill="#061F31"/>
</svg>
