<svg width="89" height="25" viewBox="0 0 89 25" fill="none" xmlns="http://www.w3.org/2000/svg">
<rect x="0.890625" y="0.550293" width="87.4424" height="24.0516" rx="5" fill="#061F31"/>
<path d="M16.7436 2.73828C12.6582 3.30071 11.2942 8.1512 12.1872 11.3703C13.3259 15.4748 8.34839 15.8459 9.43472 9.32757C7.99401 11.6772 7.59092 13.766 7.88116 15.5271C7.88201 15.5322 7.88344 15.5371 7.88434 15.5422C8.20726 17.2758 9.11865 18.6217 10.3566 19.6045C11.1522 20.236 12.0849 20.711 13.0759 21.0205C9.90191 13.3212 21.2284 13.3529 17.8296 21.2261C18.9343 20.9705 19.95 20.4934 20.7644 19.7935C21.85 18.8606 22.604 17.5422 22.7641 15.7444C22.84 14.4471 22.6399 12.9215 22.081 11.1515C20.6622 16.6618 17.554 15.3458 20.4179 8.33776C15.3316 12.7554 14.684 7.41347 16.7435 2.73833L16.7436 2.73828Z" fill="#FF823F"/>
<path d="M30.132 18.5503V5.45938H35.1434C36.0894 5.45938 36.8756 5.60853 37.502 5.90683C38.1327 6.20086 38.6036 6.60356 38.9147 7.11492C39.23 7.62629 39.3877 8.20583 39.3877 8.85356C39.3877 9.38623 39.2854 9.8422 39.0809 10.2215C38.8763 10.5965 38.6015 10.9011 38.2563 11.1355C37.9111 11.3699 37.5255 11.5382 37.0993 11.6405V11.7683C37.5638 11.7939 38.0091 11.9367 38.4353 12.1966C38.8657 12.4523 39.2172 12.8145 39.49 13.2832C39.7627 13.752 39.8991 14.3188 39.8991 14.9835C39.8991 15.6611 39.735 16.2705 39.4069 16.8117C39.0787 17.3486 38.5844 17.7726 37.9239 18.0837C37.2634 18.3948 36.4324 18.5503 35.431 18.5503H30.132ZM32.5035 16.5688H35.0539C35.9147 16.5688 36.5347 16.4047 36.914 16.0766C37.2975 15.7442 37.4893 15.318 37.4893 14.7982C37.4893 14.4104 37.3934 14.0609 37.2016 13.7499C37.0099 13.4345 36.7371 13.1874 36.3834 13.0084C36.0297 12.8252 35.6079 12.7335 35.1178 12.7335H32.5035V16.5688ZM32.5035 11.0269H34.8493C35.2584 11.0269 35.627 10.9523 35.9552 10.8031C36.2833 10.6497 36.5411 10.4345 36.7286 10.1575C36.9204 9.87629 37.0162 9.5439 37.0162 9.16038C37.0162 8.65328 36.8373 8.23566 36.4793 7.90754C36.1256 7.57941 35.5993 7.41535 34.9005 7.41535H32.5035V11.0269ZM41.8598 18.5503V8.73211H44.1034V10.3685H44.2057C44.3847 9.80171 44.6915 9.36492 45.1262 9.05811C45.5651 8.74703 46.0658 8.59149 46.6283 8.59149C46.7561 8.59149 46.8989 8.59788 47.0566 8.61066C47.2185 8.61918 47.3527 8.6341 47.4593 8.65541V10.784C47.3612 10.7499 47.2057 10.72 46.9926 10.6945C46.7838 10.6646 46.5814 10.6497 46.3854 10.6497C45.9635 10.6497 45.5843 10.7413 45.2476 10.9246C44.9152 11.1036 44.6531 11.3528 44.4614 11.6725C44.2696 11.9921 44.1737 12.3607 44.1737 12.7783V18.5503H41.8598ZM55.2544 14.421V8.73211H57.5683V18.5503H55.3247V16.8053H55.2224C55.0008 17.355 54.6365 17.8046 54.1294 18.154C53.6265 18.5034 53.0065 18.6781 52.2693 18.6781C51.6258 18.6781 51.0569 18.5354 50.5626 18.2499C50.0725 17.9601 49.689 17.5403 49.412 16.9906C49.135 16.4367 48.9965 15.7676 48.9965 14.9835V8.73211H51.3105V14.6256C51.3105 15.2477 51.4809 15.7421 51.8218 16.1085C52.1627 16.475 52.6102 16.6582 53.1642 16.6582C53.5051 16.6582 53.8353 16.5752 54.1549 16.409C54.4745 16.2428 54.7366 15.9956 54.9411 15.6675C55.1499 15.3351 55.2544 14.9196 55.2544 14.421ZM54.5896 7.55597L53.292 5.91961L51.9944 7.55597H49.9681V7.46649L52.3907 4.70512H54.1997L56.6159 7.46649V7.55597H54.5896ZM62.2616 5.45938V18.5503H59.9477V5.45938H62.2616ZM68.9877 18.7421C68.0033 18.7421 67.1531 18.5375 66.4372 18.1284C65.7256 17.7151 65.178 17.1313 64.7945 16.377C64.411 15.6185 64.2192 14.7257 64.2192 13.6987C64.2192 12.6888 64.411 11.8024 64.7945 11.0396C65.1823 10.2726 65.7235 9.676 66.4181 9.24987C67.1127 8.81947 67.9287 8.60427 68.8662 8.60427C69.4713 8.60427 70.0423 8.70228 70.5793 8.8983C71.1205 9.09007 71.5977 9.38836 72.0111 9.79319C72.4287 10.198 72.7568 10.7136 72.9955 11.3401C73.2341 11.9622 73.3534 12.7037 73.3534 13.5645V14.274H65.3058V12.7144H71.1354C71.1311 12.2712 71.0352 11.877 70.8477 11.5318C70.6602 11.1824 70.3982 10.9075 70.0615 10.7073C69.7291 10.507 69.3414 10.4068 68.8982 10.4068C68.4252 10.4068 68.0097 10.5219 67.6517 10.752C67.2938 10.9778 67.0146 11.2761 66.8144 11.6469C66.6183 12.0134 66.5182 12.4161 66.5139 12.855V14.2165C66.5139 14.7875 66.6183 15.2776 66.8271 15.6867C67.036 16.0915 67.3279 16.4026 67.7029 16.6199C68.0779 16.833 68.5168 16.9395 69.0196 16.9395C69.3563 16.9395 69.661 16.8926 69.9337 16.7989C70.2064 16.7009 70.4429 16.5581 70.6432 16.3706C70.8435 16.1831 70.9948 15.9509 71.097 15.6739L73.2575 15.9168C73.1212 16.4878 72.8612 16.9864 72.4777 17.4125C72.0985 17.8344 71.6127 18.1625 71.0203 18.3969C70.428 18.627 69.7504 18.7421 68.9877 18.7421ZM75.311 18.5503V8.73211H77.5546V10.3685H77.6569C77.8358 9.80171 78.1427 9.36492 78.5773 9.05811C79.0162 8.74703 79.517 8.59149 80.0795 8.59149C80.2073 8.59149 80.3501 8.59788 80.5077 8.61066C80.6697 8.61918 80.8039 8.6341 80.9104 8.65541V10.784C80.8124 10.7499 80.6569 10.72 80.4438 10.6945C80.235 10.6646 80.0326 10.6497 79.8366 10.6497C79.4147 10.6497 79.0354 10.7413 78.6988 10.9246C78.3664 11.1036 78.1043 11.3528 77.9126 11.6725C77.7208 11.9921 77.6249 12.3607 77.6249 12.7783V18.5503H75.311Z" fill="#FF823F"/>
</svg>
