<svg width="82" height="27" viewBox="0 0 82 27" fill="none" xmlns="http://www.w3.org/2000/svg">
<path d="M27.7785 18.5503V5.45938H32.7899C33.7359 5.45938 34.5221 5.60853 35.1485 5.90683C35.7792 6.20086 36.2501 6.60356 36.5612 7.11492C36.8765 7.62629 37.0342 8.20583 37.0342 8.85356C37.0342 9.38623 36.9319 9.8422 36.7274 10.2215C36.5228 10.5965 36.248 10.9011 35.9028 11.1355C35.5576 11.3699 35.172 11.5382 34.7458 11.6405V11.7683C35.2103 11.7939 35.6556 11.9367 36.0818 12.1966C36.5122 12.4523 36.8637 12.8145 37.1365 13.2832C37.4092 13.752 37.5455 14.3188 37.5455 14.9835C37.5455 15.6611 37.3815 16.2705 37.0534 16.8117C36.7252 17.3486 36.2309 17.7726 35.5704 18.0837C34.9099 18.3948 34.0789 18.5503 33.0775 18.5503H27.7785ZM30.1499 16.5688H32.7004C33.5612 16.5688 34.1812 16.4047 34.5605 16.0766C34.944 15.7442 35.1357 15.318 35.1357 14.7982C35.1357 14.4104 35.0399 14.0609 34.8481 13.7499C34.6563 13.4345 34.3836 13.1874 34.0299 13.0084C33.6762 12.8252 33.2544 12.7335 32.7643 12.7335H30.1499V16.5688ZM30.1499 11.0269H32.4958C32.9049 11.0269 33.2735 10.9523 33.6017 10.8031C33.9298 10.6497 34.1876 10.4345 34.3751 10.1575C34.5669 9.87629 34.6627 9.5439 34.6627 9.16038C34.6627 8.65328 34.4838 8.23566 34.1258 7.90754C33.7721 7.57941 33.2458 7.41535 32.547 7.41535H30.1499V11.0269ZM39.5063 18.5503V8.73211H41.7499V10.3685H41.8522C42.0312 9.80171 42.338 9.36492 42.7726 9.05811C43.2116 8.74703 43.7123 8.59149 44.2748 8.59149C44.4026 8.59149 44.5454 8.59788 44.703 8.61066C44.865 8.61918 44.9992 8.6341 45.1057 8.65541V10.784C45.0077 10.7499 44.8522 10.72 44.6391 10.6945C44.4303 10.6646 44.2279 10.6497 44.0319 10.6497C43.61 10.6497 43.2307 10.7413 42.8941 10.9246C42.5617 11.1036 42.2996 11.3528 42.1079 11.6725C41.9161 11.9921 41.8202 12.3607 41.8202 12.7783V18.5503H39.5063ZM52.9008 14.421V8.73211H55.2148V18.5503H52.9711V16.8053H52.8689C52.6473 17.355 52.2829 17.8046 51.7758 18.154C51.273 18.5034 50.653 18.6781 49.9157 18.6781C49.2723 18.6781 48.7034 18.5354 48.2091 18.2499C47.719 17.9601 47.3355 17.5403 47.0585 16.9906C46.7815 16.4367 46.643 15.7676 46.643 14.9835V8.73211H48.9569V14.6256C48.9569 15.2477 49.1274 15.7421 49.4683 16.1085C49.8092 16.475 50.2567 16.6582 50.8106 16.6582C51.1515 16.6582 51.4818 16.5752 51.8014 16.409C52.121 16.2428 52.3831 15.9956 52.5876 15.6675C52.7964 15.3351 52.9008 14.9196 52.9008 14.421ZM52.2361 7.55597L50.9385 5.91961L49.6409 7.55597H47.6146V7.46649L50.0372 4.70512H51.8461L54.2623 7.46649V7.55597H52.2361ZM59.9081 5.45938V18.5503H57.5942V5.45938H59.9081ZM66.6341 18.7421C65.6498 18.7421 64.7996 18.5375 64.0837 18.1284C63.3721 17.7151 62.8245 17.1313 62.441 16.377C62.0574 15.6185 61.8657 14.7257 61.8657 13.6987C61.8657 12.6888 62.0574 11.8024 62.441 11.0396C62.8287 10.2726 63.3699 9.676 64.0645 9.24987C64.7591 8.81947 65.5752 8.60427 66.5127 8.60427C67.1178 8.60427 67.6888 8.70228 68.2258 8.8983C68.767 9.09007 69.2442 9.38836 69.6576 9.79319C70.0752 10.198 70.4033 10.7136 70.642 11.3401C70.8806 11.9622 70.9999 12.7037 70.9999 13.5645V14.274H62.9523V12.7144H68.7819C68.7776 12.2712 68.6817 11.877 68.4942 11.5318C68.3067 11.1824 68.0447 10.9075 67.708 10.7073C67.3756 10.507 66.9878 10.4068 66.5447 10.4068C66.0716 10.4068 65.6562 10.5219 65.2982 10.752C64.9403 10.9778 64.6611 11.2761 64.4608 11.6469C64.2648 12.0134 64.1647 12.4161 64.1604 12.855V14.2165C64.1604 14.7875 64.2648 15.2776 64.4736 15.6867C64.6824 16.0915 64.9743 16.4026 65.3493 16.6199C65.7243 16.833 66.1633 16.9395 66.6661 16.9395C67.0028 16.9395 67.3074 16.8926 67.5802 16.7989C67.8529 16.7009 68.0894 16.5581 68.2897 16.3706C68.49 16.1831 68.6412 15.9509 68.7435 15.6739L70.904 15.9168C70.7677 16.4878 70.5077 16.9864 70.1242 17.4125C69.7449 17.8344 69.2591 18.1625 68.6668 18.3969C68.0745 18.627 67.3969 18.7421 66.6341 18.7421ZM72.9575 18.5503V8.73211H75.2011V10.3685H75.3034C75.4823 9.80171 75.7892 9.36492 76.2238 9.05811C76.6627 8.74703 77.1634 8.59149 77.7259 8.59149C77.8538 8.59149 77.9965 8.59788 78.1542 8.61066C78.3161 8.61918 78.4504 8.6341 78.5569 8.65541V10.784C78.4589 10.7499 78.3034 10.72 78.0903 10.6945C77.8815 10.6646 77.6791 10.6497 77.483 10.6497C77.0612 10.6497 76.6819 10.7413 76.3453 10.9246C76.0129 11.1036 75.7508 11.3528 75.559 11.6725C75.3673 11.9921 75.2714 12.3607 75.2714 12.7783V18.5503H72.9575Z" fill="#FF823F"/>
<path d="M10.544 20.0017C4.19977 20.0017 2.94441 13.7235 5.45579 9.95678C6.80904 7.92737 9.6013 5.6336 9.53129 1.77352C9.51478 0.868629 10.4717 0.273682 11.2801 0.680928C12.3032 1.19618 13.4963 2.00166 14.2808 3.19079C16.9747 7.27269 15.6177 11.2581 15.6177 11.2581C15.6177 11.2581 17.3306 10.2824 18.779 8.5561C19.3435 7.8828 20.4176 8.02299 20.7927 8.81785C22.5749 12.5973 22.9669 20.0017 15.5664 20.0017C15.5664 16.2348 13.0551 12.5852 13.0551 12.5852C13.0551 12.5852 10.544 16.2348 10.544 20.0017Z" fill="#FF823F"/>
</svg>
