<svg width="89" height="25" viewBox="0 0 89 25" fill="none" xmlns="http://www.w3.org/2000/svg">
<rect x="0.980469" y="0.550293" width="87.4424" height="24.0516" rx="5" fill="#E85660"/>
<path d="M16.8334 2.73828C12.7481 3.30071 11.3841 8.1512 12.2771 11.3703C13.4157 15.4748 8.43824 15.8459 9.52457 9.32757C8.08386 11.6772 7.68077 13.766 7.971 15.5271C7.97185 15.5322 7.97328 15.5371 7.97418 15.5422C8.2971 17.2758 9.20849 18.6217 10.4465 19.6045C11.242 20.236 12.1747 20.711 13.1657 21.0205C9.99175 13.3212 21.3183 13.3529 17.9195 21.2261C19.0241 20.9705 20.0399 20.4934 20.8543 19.7935C21.9398 18.8606 22.6938 17.5422 22.8539 15.7444C22.9298 14.4471 22.7298 12.9215 22.1708 11.1515C20.752 16.6618 17.6438 15.3458 20.5077 8.33776C15.4215 12.7554 14.7739 7.41347 16.8334 2.73833L16.8334 2.73828Z" fill="#061F31"/>
<path d="M30.2219 18.5503V5.45938H35.2332C36.1792 5.45938 36.9655 5.60853 37.5919 5.90683C38.2226 6.20086 38.6934 6.60356 39.0045 7.11492C39.3199 7.62629 39.4775 8.20583 39.4775 8.85356C39.4775 9.38623 39.3753 9.8422 39.1707 10.2215C38.9662 10.5965 38.6913 10.9011 38.3461 11.1355C38.001 11.3699 37.6153 11.5382 37.1892 11.6405V11.7683C37.6537 11.7939 38.099 11.9367 38.5251 12.1966C38.9555 12.4523 39.3071 12.8145 39.5798 13.2832C39.8525 13.752 39.9889 14.3188 39.9889 14.9835C39.9889 15.6611 39.8248 16.2705 39.4967 16.8117C39.1686 17.3486 38.6743 17.7726 38.0138 18.0837C37.3532 18.3948 36.5223 18.5503 35.5209 18.5503H30.2219ZM32.5933 16.5688H35.1437C36.0045 16.5688 36.6246 16.4047 37.0038 16.0766C37.3873 15.7442 37.5791 15.318 37.5791 14.7982C37.5791 14.4104 37.4832 14.0609 37.2915 13.7499C37.0997 13.4345 36.827 13.1874 36.4733 13.0084C36.1196 12.8252 35.6977 12.7335 35.2077 12.7335H32.5933V16.5688ZM32.5933 11.0269H34.9392C35.3483 11.0269 35.7169 10.9523 36.045 10.8031C36.3731 10.6497 36.6309 10.4345 36.8184 10.1575C37.0102 9.87629 37.1061 9.5439 37.1061 9.16038C37.1061 8.65328 36.9271 8.23566 36.5692 7.90754C36.2155 7.57941 35.6892 7.41535 34.9903 7.41535H32.5933V11.0269ZM41.9497 18.5503V8.73211H44.1933V10.3685H44.2955C44.4745 9.80171 44.7813 9.36492 45.216 9.05811C45.6549 8.74703 46.1556 8.59149 46.7181 8.59149C46.846 8.59149 46.9887 8.59788 47.1464 8.61066C47.3083 8.61918 47.4426 8.6341 47.5491 8.65541V10.784C47.4511 10.7499 47.2955 10.72 47.0825 10.6945C46.8737 10.6646 46.6713 10.6497 46.4752 10.6497C46.0534 10.6497 45.6741 10.7413 45.3374 10.9246C45.0051 11.1036 44.743 11.3528 44.5512 11.6725C44.3595 11.9921 44.2636 12.3607 44.2636 12.7783V18.5503H41.9497ZM55.3442 14.421V8.73211H57.6581V18.5503H55.4145V16.8053H55.3122C55.0906 17.355 54.7263 17.8046 54.2192 18.154C53.7164 18.5034 53.0963 18.6781 52.3591 18.6781C51.7156 18.6781 51.1468 18.5354 50.6524 18.2499C50.1624 17.9601 49.7789 17.5403 49.5019 16.9906C49.2249 16.4367 49.0864 15.7676 49.0864 14.9835V8.73211H51.4003V14.6256C51.4003 15.2477 51.5708 15.7421 51.9117 16.1085C52.2526 16.475 52.7 16.6582 53.254 16.6582C53.5949 16.6582 53.9252 16.5752 54.2448 16.409C54.5644 16.2428 54.8264 15.9956 55.031 15.6675C55.2398 15.3351 55.3442 14.9196 55.3442 14.421ZM54.6794 7.55597L53.3818 5.91961L52.0843 7.55597H50.058V7.46649L52.4806 4.70512H54.2895L56.7057 7.46649V7.55597H54.6794ZM62.3515 5.45938V18.5503H60.0376V5.45938H62.3515ZM69.0775 18.7421C68.0931 18.7421 67.243 18.5375 66.5271 18.1284C65.8154 17.7151 65.2678 17.1313 64.8843 16.377C64.5008 15.6185 64.309 14.7257 64.309 13.6987C64.309 12.6888 64.5008 11.8024 64.8843 11.0396C65.2721 10.2726 65.8133 9.676 66.5079 9.24987C67.2025 8.81947 68.0186 8.60427 68.9561 8.60427C69.5612 8.60427 70.1322 8.70228 70.6691 8.8983C71.2103 9.09007 71.6876 9.38836 72.1009 9.79319C72.5186 10.198 72.8467 10.7136 73.0853 11.3401C73.324 11.9622 73.4433 12.7037 73.4433 13.5645V14.274H65.3957V12.7144H71.2252C71.221 12.2712 71.1251 11.877 70.9376 11.5318C70.7501 11.1824 70.488 10.9075 70.1514 10.7073C69.819 10.507 69.4312 10.4068 68.988 10.4068C68.515 10.4068 68.0995 10.5219 67.7416 10.752C67.3836 10.9778 67.1045 11.2761 66.9042 11.6469C66.7082 12.0134 66.608 12.4161 66.6038 12.855V14.2165C66.6038 14.7875 66.7082 15.2776 66.917 15.6867C67.1258 16.0915 67.4177 16.4026 67.7927 16.6199C68.1677 16.833 68.6066 16.9395 69.1095 16.9395C69.4461 16.9395 69.7508 16.8926 70.0235 16.7989C70.2963 16.7009 70.5328 16.5581 70.733 16.3706C70.9333 16.1831 71.0846 15.9509 71.1869 15.6739L73.3474 15.9168C73.211 16.4878 72.9511 16.9864 72.5676 17.4125C72.1883 17.8344 71.7025 18.1625 71.1102 18.3969C70.5178 18.627 69.8403 18.7421 69.0775 18.7421ZM75.4008 18.5503V8.73211H77.6444V10.3685H77.7467C77.9257 9.80171 78.2325 9.36492 78.6672 9.05811C79.1061 8.74703 79.6068 8.59149 80.1693 8.59149C80.2971 8.59149 80.4399 8.59788 80.5976 8.61066C80.7595 8.61918 80.8937 8.6341 81.0003 8.65541V10.784C80.9023 10.7499 80.7467 10.72 80.5336 10.6945C80.3248 10.6646 80.1224 10.6497 79.9264 10.6497C79.5045 10.6497 79.1253 10.7413 78.7886 10.9246C78.4562 11.1036 78.1942 11.3528 78.0024 11.6725C77.8106 11.9921 77.7148 12.3607 77.7148 12.7783V18.5503H75.4008Z" fill="#061F31"/>
</svg>
