<svg width="115" height="27" viewBox="0 0 115 27" fill="none" xmlns="http://www.w3.org/2000/svg">
<path d="M12.4707 9.99768C13.4038 9.99768 14.164 10.7587 14.164 11.691C14.164 12.6233 13.403 13.36 12.4707 13.36C11.5384 13.36 10.8017 12.6233 10.8017 11.691C10.8017 10.7587 11.5384 9.99768 12.4707 9.99768ZM12.4707 5.82483C18.018 5.82483 22.0181 11.0281 22.0181 11.0281C22.2882 11.3721 22.2882 11.9855 22.0181 12.3288C22.0181 12.3288 18.0172 17.5321 12.4707 17.5321C6.92418 17.5321 2.92334 12.3288 2.92334 12.3288C2.65316 11.9847 2.65316 11.3713 2.92334 11.0281C2.92334 11.0281 6.92418 5.82483 12.4707 5.82483ZM12.4707 15.8882C14.7782 15.8882 16.6679 13.9985 16.6679 11.691C16.6679 9.38349 14.7782 7.49381 12.4707 7.49381C10.1632 7.49381 8.27351 9.38349 8.27351 11.691C8.27351 13.9985 10.1632 15.8882 12.4707 15.8882Z" fill="#A767C5"/>
<path d="M32.2136 18.1315H27.7775V5.04056H32.3031C33.6028 5.04056 34.7193 5.30263 35.6525 5.82678C36.59 6.34667 37.3102 7.09454 37.813 8.07039C38.3159 9.04624 38.5673 10.2139 38.5673 11.5732C38.5673 12.9369 38.3137 14.1087 37.8066 15.0889C37.3038 16.069 36.5772 16.8211 35.627 17.3452C34.6809 17.8694 33.5431 18.1315 32.2136 18.1315ZM30.149 16.0796H32.0985C33.0105 16.0796 33.7711 15.9134 34.3805 15.581C34.9899 15.2444 35.448 14.7437 35.7548 14.0789C36.0616 13.4099 36.215 12.5747 36.215 11.5732C36.215 10.5718 36.0616 9.74084 35.7548 9.08033C35.448 8.41556 34.9941 7.91911 34.3933 7.59099C33.7967 7.2586 33.0552 7.09241 32.1689 7.09241H30.149V16.0796ZM45.0648 18.3232C44.0804 18.3232 43.2303 18.1187 42.5144 17.7096C41.8027 17.2962 41.2551 16.7124 40.8716 15.9582C40.4881 15.1997 40.2963 14.3069 40.2963 13.2799C40.2963 12.27 40.4881 11.3836 40.8716 10.6208C41.2594 9.85377 41.8006 9.25718 42.4952 8.83104C43.1898 8.40065 44.0059 8.18545 44.9434 8.18545C45.5485 8.18545 46.1195 8.28346 46.6564 8.47948C47.1976 8.67124 47.6749 8.96954 48.0882 9.37437C48.5059 9.7792 48.834 10.2948 49.0726 10.9212C49.3113 11.5434 49.4306 12.2849 49.4306 13.1457V13.8552H41.383V12.2955H47.2125C47.2083 11.8524 47.1124 11.4582 46.9249 11.113C46.7374 10.7636 46.4753 10.4887 46.1387 10.2884C45.8063 10.0881 45.4185 9.988 44.9753 9.988C44.5023 9.988 44.0868 10.1031 43.7289 10.3332C43.3709 10.559 43.0918 10.8573 42.8915 11.2281C42.6955 11.5945 42.5953 11.9972 42.5911 12.4362V13.7977C42.5911 14.3687 42.6955 14.8587 42.9043 15.2678C43.1131 15.6727 43.405 15.9837 43.78 16.2011C44.155 16.4141 44.5939 16.5207 45.0968 16.5207C45.4334 16.5207 45.7381 16.4738 46.0108 16.38C46.2836 16.282 46.5201 16.1393 46.7203 15.9518C46.9206 15.7643 47.0719 15.532 47.1742 15.255L49.3347 15.4979C49.1983 16.069 48.9384 16.5675 48.5549 16.9937C48.1756 17.4156 47.6898 17.7437 47.0975 17.9781C46.5051 18.2082 45.8276 18.3232 45.0648 18.3232ZM43.9909 7.02209L45.4228 4.10093H47.6855L45.7232 7.02209H43.9909ZM55.6708 18.3232C54.6907 18.3232 53.8491 18.108 53.146 17.6776C52.4471 17.2472 51.908 16.6528 51.5288 15.8943C51.1538 15.1315 50.9663 14.2536 50.9663 13.2607C50.9663 12.2636 51.158 11.3836 51.5415 10.6208C51.9251 9.85377 52.4663 9.25718 53.1651 8.83104C53.8683 8.40065 54.6992 8.18545 55.658 8.18545C56.4549 8.18545 57.1602 8.33246 57.7738 8.6265C58.3917 8.91627 58.8839 9.32749 59.2504 9.86016C59.6168 10.3886 59.8256 11.0065 59.8768 11.7139H57.6651C57.5756 11.2408 57.3626 10.8467 57.0259 10.5313C56.6935 10.2117 56.2482 10.0519 55.69 10.0519C55.217 10.0519 54.8015 10.1798 54.4435 10.4354C54.0856 10.6869 53.8065 11.0491 53.6062 11.5221C53.4102 11.9951 53.3121 12.5619 53.3121 13.2224C53.3121 13.8914 53.4102 14.4667 53.6062 14.9482C53.8022 15.4255 54.0771 15.7941 54.4308 16.0541C54.7887 16.3097 55.2085 16.4376 55.69 16.4376C56.0309 16.4376 56.3356 16.3737 56.604 16.2458C56.8768 16.1137 57.1048 15.9241 57.288 15.6769C57.4712 15.4298 57.5969 15.1293 57.6651 14.7756H59.8768C59.8214 15.4702 59.6168 16.086 59.2631 16.6229C58.9094 17.1556 58.4279 17.5732 57.8185 17.8758C57.2092 18.1741 56.4933 18.3232 55.6708 18.3232ZM66.0595 18.3232C65.1007 18.3232 64.2697 18.1123 63.5666 17.6904C62.8635 17.2685 62.318 16.6783 61.9302 15.9198C61.5467 15.1613 61.3549 14.2749 61.3549 13.2607C61.3549 12.2465 61.5467 11.358 61.9302 10.5952C62.318 9.83246 62.8635 9.24013 63.5666 8.81826C64.2697 8.39638 65.1007 8.18545 66.0595 8.18545C67.0183 8.18545 67.8493 8.39638 68.5524 8.81826C69.2555 9.24013 69.7988 9.83246 70.1824 10.5952C70.5701 11.358 70.764 12.2465 70.764 13.2607C70.764 14.2749 70.5701 15.1613 70.1824 15.9198C69.7988 16.6783 69.2555 17.2685 68.5524 17.6904C67.8493 18.1123 67.0183 18.3232 66.0595 18.3232ZM66.0723 16.4695C66.5922 16.4695 67.0268 16.3268 67.3762 16.0413C67.7257 15.7515 67.9856 15.3637 68.1561 14.8779C68.3308 14.3921 68.4181 13.8509 68.4181 13.2543C68.4181 12.6535 68.3308 12.1102 68.1561 11.6244C67.9856 11.1343 67.7257 10.7444 67.3762 10.4546C67.0268 10.1649 66.5922 10.02 66.0723 10.02C65.5396 10.02 65.0964 10.1649 64.7427 10.4546C64.3933 10.7444 64.1312 11.1343 63.9565 11.6244C63.786 12.1102 63.7008 12.6535 63.7008 13.2543C63.7008 13.8509 63.786 14.3921 63.9565 14.8779C64.1312 15.3637 64.3933 15.7515 64.7427 16.0413C65.0964 16.3268 65.5396 16.4695 66.0723 16.4695ZM78.9858 14.0022V8.31329H81.2997V18.1315H79.0561V16.3864H78.9538C78.7322 16.9362 78.3679 17.3857 77.8608 17.7352C77.358 18.0846 76.7379 18.2593 76.0007 18.2593C75.3572 18.2593 74.7884 18.1166 74.294 17.831C73.804 17.5413 73.4205 17.1215 73.1435 16.5718C72.8665 16.0178 72.728 15.3488 72.728 14.5647V8.31329H75.0419V14.2068C75.0419 14.8289 75.2124 15.3232 75.5533 15.6897C75.8942 16.0562 76.3416 16.2394 76.8956 16.2394C77.2365 16.2394 77.5668 16.1563 77.8864 15.9901C78.206 15.8239 78.468 15.5768 78.6726 15.2487C78.8814 14.9163 78.9858 14.5008 78.9858 14.0022ZM92.449 8.31329L88.9526 18.1315H86.3958L82.8993 8.31329H85.3667L87.623 15.6066H87.7253L89.9881 8.31329H92.449ZM94.0502 18.1315V8.31329H96.2939V9.94965H96.3961C96.5751 9.38289 96.8819 8.9461 97.3166 8.63928C97.7555 8.3282 98.2562 8.17266 98.8187 8.17266C98.9466 8.17266 99.0893 8.17905 99.247 8.19184C99.4089 8.20036 99.5431 8.21528 99.6497 8.23658V10.3651C99.5517 10.331 99.3961 10.3012 99.1831 10.2756C98.9743 10.2458 98.7718 10.2309 98.5758 10.2309C98.1539 10.2309 97.7747 10.3225 97.438 10.5058C97.1056 10.6847 96.8436 10.934 96.6518 11.2536C96.46 11.5732 96.3642 11.9418 96.3642 12.3595V18.1315H94.0502ZM101.187 18.1315V8.31329H103.501V18.1315H101.187ZM102.35 6.91982C101.984 6.91982 101.669 6.79837 101.404 6.55548C101.14 6.30832 101.008 6.01215 101.008 5.66698C101.008 5.31755 101.14 5.02138 101.404 4.77849C101.669 4.53133 101.984 4.40775 102.35 4.40775C102.721 4.40775 103.036 4.53133 103.296 4.77849C103.561 5.02138 103.693 5.31755 103.693 5.66698C103.693 6.01215 103.561 6.30832 103.296 6.55548C103.036 6.79837 102.721 6.91982 102.35 6.91982ZM105.88 18.1315V8.31329H108.124V9.94965H108.226C108.405 9.38289 108.712 8.9461 109.147 8.63928C109.586 8.3282 110.086 8.17266 110.649 8.17266C110.777 8.17266 110.919 8.17905 111.077 8.19184C111.239 8.20036 111.373 8.21528 111.48 8.23658V10.3651C111.382 10.331 111.226 10.3012 111.013 10.2756C110.804 10.2458 110.602 10.2309 110.406 10.2309C109.984 10.2309 109.605 10.3225 109.268 10.5058C108.936 10.6847 108.674 10.934 108.482 11.2536C108.29 11.5732 108.194 11.9418 108.194 12.3595V18.1315H105.88Z" fill="#A767C5"/>
</svg>
