<svg width="120" height="25" viewBox="0 0 120 25" fill="none" xmlns="http://www.w3.org/2000/svg">
<rect x="0.212891" y="0.13147" width="119.675" height="24.0516" rx="5" fill="#A767C5"/>
<path d="M33.8904 18.1315H29.4543V5.04056H33.9798C35.2796 5.04056 36.396 5.30263 37.3293 5.82678C38.2668 6.34667 38.987 7.09454 39.4898 8.07039C39.9926 9.04624 40.2441 10.2139 40.2441 11.5732C40.2441 12.9369 39.9905 14.1087 39.4834 15.0889C38.9806 16.069 38.254 16.8211 37.3037 17.3452C36.3577 17.8694 35.2199 18.1315 33.8904 18.1315ZM31.8257 16.0796H33.7753C34.6872 16.0796 35.4479 15.9134 36.0573 15.581C36.6666 15.2444 37.1247 14.7437 37.4316 14.0789C37.7384 13.4099 37.8918 12.5747 37.8918 11.5732C37.8918 10.5718 37.7384 9.74084 37.4316 9.08033C37.1247 8.41556 36.6709 7.91911 36.07 7.59099C35.4735 7.2586 34.732 7.09241 33.8456 7.09241H31.8257V16.0796ZM46.7416 18.3232C45.7572 18.3232 44.907 18.1187 44.1911 17.7096C43.4795 17.2962 42.9319 16.7124 42.5484 15.9582C42.1649 15.1997 41.9731 14.3069 41.9731 13.2799C41.9731 12.27 42.1649 11.3836 42.5484 10.6208C42.9362 9.85377 43.4774 9.25718 44.172 8.83104C44.8666 8.40065 45.6826 8.18545 46.6201 8.18545C47.2252 8.18545 47.7963 8.28346 48.3332 8.47948C48.8744 8.67124 49.3517 8.96954 49.765 9.37437C50.1826 9.7792 50.5107 10.2948 50.7494 10.9212C50.988 11.5434 51.1073 12.2849 51.1073 13.1457V13.8552H43.0597V12.2955H48.8893C48.885 11.8524 48.7892 11.4582 48.6017 11.113C48.4142 10.7636 48.1521 10.4887 47.8154 10.2884C47.483 10.0881 47.0953 9.988 46.6521 9.988C46.1791 9.988 45.7636 10.1031 45.4056 10.3332C45.0477 10.559 44.7686 10.8573 44.5683 11.2281C44.3722 11.5945 44.2721 11.9972 44.2678 12.4362V13.7977C44.2678 14.3687 44.3722 14.8587 44.5811 15.2678C44.7899 15.6727 45.0818 15.9837 45.4568 16.2011C45.8318 16.4141 46.2707 16.5207 46.7735 16.5207C47.1102 16.5207 47.4149 16.4738 47.6876 16.38C47.9603 16.282 48.1968 16.1393 48.3971 15.9518C48.5974 15.7643 48.7487 15.532 48.8509 15.255L51.0115 15.4979C50.8751 16.069 50.6151 16.5675 50.2316 16.9937C49.8524 17.4156 49.3666 17.7437 48.7742 17.9781C48.1819 18.2082 47.5044 18.3232 46.7416 18.3232ZM45.6677 7.02209L47.0995 4.10093H49.3623L47.3999 7.02209H45.6677ZM57.3476 18.3232C56.3675 18.3232 55.5258 18.108 54.8227 17.6776C54.1238 17.2472 53.5848 16.6528 53.2055 15.8943C52.8305 15.1315 52.643 14.2536 52.643 13.2607C52.643 12.2636 52.8348 11.3836 53.2183 10.6208C53.6018 9.85377 54.143 9.25718 54.8419 8.83104C55.545 8.40065 56.376 8.18545 57.3348 8.18545C58.1317 8.18545 58.8369 8.33246 59.4506 8.6265C60.0684 8.91627 60.5606 9.32749 60.9271 9.86016C61.2936 10.3886 61.5024 11.0065 61.5535 11.7139H59.3419C59.2524 11.2408 59.0393 10.8467 58.7027 10.5313C58.3703 10.2117 57.925 10.0519 57.3667 10.0519C56.8937 10.0519 56.4782 10.1798 56.1203 10.4354C55.7623 10.6869 55.4832 11.0491 55.2829 11.5221C55.0869 11.9951 54.9889 12.5619 54.9889 13.2224C54.9889 13.8914 55.0869 14.4667 55.2829 14.9482C55.479 15.4255 55.7538 15.7941 56.1075 16.0541C56.4655 16.3097 56.8852 16.4376 57.3667 16.4376C57.7077 16.4376 58.0123 16.3737 58.2808 16.2458C58.5535 16.1137 58.7815 15.9241 58.9648 15.6769C59.148 15.4298 59.2737 15.1293 59.3419 14.7756H61.5535C61.4981 15.4702 61.2936 16.086 60.9399 16.6229C60.5862 17.1556 60.1047 17.5732 59.4953 17.8758C58.8859 18.1741 58.17 18.3232 57.3476 18.3232ZM67.7362 18.3232C66.7774 18.3232 65.9465 18.1123 65.2433 17.6904C64.5402 17.2685 63.9948 16.6783 63.607 15.9198C63.2235 15.1613 63.0317 14.2749 63.0317 13.2607C63.0317 12.2465 63.2235 11.358 63.607 10.5952C63.9948 9.83246 64.5402 9.24013 65.2433 8.81826C65.9465 8.39638 66.7774 8.18545 67.7362 8.18545C68.695 8.18545 69.526 8.39638 70.2291 8.81826C70.9323 9.24013 71.4756 9.83246 71.8591 10.5952C72.2469 11.358 72.4408 12.2465 72.4408 13.2607C72.4408 14.2749 72.2469 15.1613 71.8591 15.9198C71.4756 16.6783 70.9323 17.2685 70.2291 17.6904C69.526 18.1123 68.695 18.3232 67.7362 18.3232ZM67.749 16.4695C68.2689 16.4695 68.7036 16.3268 69.053 16.0413C69.4024 15.7515 69.6624 15.3637 69.8328 14.8779C70.0075 14.3921 70.0949 13.8509 70.0949 13.2543C70.0949 12.6535 70.0075 12.1102 69.8328 11.6244C69.6624 11.1343 69.4024 10.7444 69.053 10.4546C68.7036 10.1649 68.2689 10.02 67.749 10.02C67.2164 10.02 66.7732 10.1649 66.4195 10.4546C66.07 10.7444 65.808 11.1343 65.6333 11.6244C65.4628 12.1102 65.3776 12.6535 65.3776 13.2543C65.3776 13.8509 65.4628 14.3921 65.6333 14.8779C65.808 15.3637 66.07 15.7515 66.4195 16.0413C66.7732 16.3268 67.2164 16.4695 67.749 16.4695ZM80.6626 14.0022V8.31329H82.9765V18.1315H80.7329V16.3864H80.6306C80.409 16.9362 80.0447 17.3857 79.5376 17.7352C79.0347 18.0846 78.4147 18.2593 77.6775 18.2593C77.034 18.2593 76.4651 18.1166 75.9708 17.831C75.4807 17.5413 75.0972 17.1215 74.8202 16.5718C74.5432 16.0178 74.4047 15.3488 74.4047 14.5647V8.31329H76.7187V14.2068C76.7187 14.8289 76.8891 15.3232 77.23 15.6897C77.5709 16.0562 78.0184 16.2394 78.5724 16.2394C78.9133 16.2394 79.2435 16.1563 79.5631 15.9901C79.8827 15.8239 80.1448 15.5768 80.3493 15.2487C80.5582 14.9163 80.6626 14.5008 80.6626 14.0022ZM94.1258 8.31329L90.6294 18.1315H88.0725L84.5761 8.31329H87.0434L89.2998 15.6066H89.4021L91.6649 8.31329H94.1258ZM95.727 18.1315V8.31329H97.9706V9.94965H98.0729C98.2519 9.38289 98.5587 8.9461 98.9933 8.63928C99.4323 8.3282 99.933 8.17266 100.495 8.17266C100.623 8.17266 100.766 8.17905 100.924 8.19184C101.086 8.20036 101.22 8.21528 101.326 8.23658V10.3651C101.228 10.331 101.073 10.3012 100.86 10.2756C100.651 10.2458 100.449 10.2309 100.253 10.2309C99.8307 10.2309 99.4514 10.3225 99.1148 10.5058C98.7824 10.6847 98.5203 10.934 98.3286 11.2536C98.1368 11.5732 98.0409 11.9418 98.0409 12.3595V18.1315H95.727ZM102.864 18.1315V8.31329H105.178V18.1315H102.864ZM104.027 6.91982C103.661 6.91982 103.345 6.79837 103.081 6.55548C102.817 6.30832 102.685 6.01215 102.685 5.66698C102.685 5.31755 102.817 5.02138 103.081 4.77849C103.345 4.53133 103.661 4.40775 104.027 4.40775C104.398 4.40775 104.713 4.53133 104.973 4.77849C105.237 5.02138 105.369 5.31755 105.369 5.66698C105.369 6.01215 105.237 6.30832 104.973 6.55548C104.713 6.79837 104.398 6.91982 104.027 6.91982ZM107.557 18.1315V8.31329H109.801V9.94965H109.903C110.082 9.38289 110.389 8.9461 110.823 8.63928C111.262 8.3282 111.763 8.17266 112.326 8.17266C112.453 8.17266 112.596 8.17905 112.754 8.19184C112.916 8.20036 113.05 8.21528 113.157 8.23658V10.3651C113.059 10.331 112.903 10.3012 112.69 10.2756C112.481 10.2458 112.279 10.2309 112.083 10.2309C111.661 10.2309 111.282 10.3225 110.945 10.5058C110.612 10.6847 110.35 10.934 110.159 11.2536C109.967 11.5732 109.871 11.9418 109.871 12.3595V18.1315H107.557Z" fill="#061F31"/>
<path d="M15.1284 10.6844C16.013 10.6844 16.7338 11.4059 16.7338 12.2898C16.7338 13.1737 16.0123 13.8721 15.1284 13.8721C14.2446 13.8721 13.5461 13.1737 13.5461 12.2898C13.5461 11.4059 14.2446 10.6844 15.1284 10.6844ZM15.1284 6.72827C20.3876 6.72827 24.18 11.6613 24.18 11.6613C24.4361 11.9875 24.4361 12.569 24.18 12.8944C24.18 12.8944 20.3869 17.8275 15.1284 17.8275C9.86995 17.8275 6.07688 12.8944 6.07688 12.8944C5.82073 12.5683 5.82073 11.9867 6.07688 11.6613C6.07688 11.6613 9.86995 6.72827 15.1284 6.72827ZM15.1284 16.269C17.3161 16.269 19.1076 14.4775 19.1076 12.2898C19.1076 10.1021 17.3161 8.31058 15.1284 8.31058C12.9407 8.31058 11.1492 10.1021 11.1492 12.2898C11.1492 14.4775 12.9407 16.269 15.1284 16.269Z" fill="#061F31"/>
</svg>
