<svg width="121" height="25" viewBox="0 0 121 25" fill="none" xmlns="http://www.w3.org/2000/svg">
<rect x="0.890625" y="0.13147" width="119.675" height="24.0516" rx="5" fill="#061F31"/>
<path d="M34.5681 18.1315H30.132V5.04056H34.6576C35.9573 5.04056 37.0738 5.30263 38.007 5.82678C38.9445 6.34667 39.6647 7.09454 40.1675 8.07039C40.6704 9.04624 40.9218 10.2139 40.9218 11.5732C40.9218 12.9369 40.6682 14.1087 40.1611 15.0889C39.6583 16.069 38.9317 16.8211 37.9814 17.3452C37.0354 17.8694 35.8976 18.1315 34.5681 18.1315ZM32.5035 16.0796H34.453C35.365 16.0796 36.1256 15.9134 36.735 15.581C37.3444 15.2444 37.8025 14.7437 38.1093 14.0789C38.4161 13.4099 38.5695 12.5747 38.5695 11.5732C38.5695 10.5718 38.4161 9.74084 38.1093 9.08033C37.8025 8.41556 37.3486 7.91911 36.7478 7.59099C36.1512 7.2586 35.4097 7.09241 34.5233 7.09241H32.5035V16.0796ZM47.4193 18.3232C46.4349 18.3232 45.5848 18.1187 44.8689 17.7096C44.1572 17.2962 43.6096 16.7124 43.2261 15.9582C42.8426 15.1997 42.6508 14.3069 42.6508 13.2799C42.6508 12.27 42.8426 11.3836 43.2261 10.6208C43.6139 9.85377 44.1551 9.25718 44.8497 8.83104C45.5443 8.40065 46.3604 8.18545 47.2979 8.18545C47.903 8.18545 48.474 8.28346 49.0109 8.47948C49.5521 8.67124 50.0294 8.96954 50.4427 9.37437C50.8604 9.7792 51.1885 10.2948 51.4271 10.9212C51.6657 11.5434 51.7851 12.2849 51.7851 13.1457V13.8552H43.7375V12.2955H49.567C49.5628 11.8524 49.4669 11.4582 49.2794 11.113C49.0919 10.7636 48.8298 10.4887 48.4932 10.2884C48.1608 10.0881 47.773 9.988 47.3298 9.988C46.8568 9.988 46.4413 10.1031 46.0834 10.3332C45.7254 10.559 45.4463 10.8573 45.246 11.2281C45.05 11.5945 44.9498 11.9972 44.9456 12.4362V13.7977C44.9456 14.3687 45.05 14.8587 45.2588 15.2678C45.4676 15.6727 45.7595 15.9837 46.1345 16.2011C46.5095 16.4141 46.9484 16.5207 47.4513 16.5207C47.7879 16.5207 48.0926 16.4738 48.3653 16.38C48.6381 16.282 48.8746 16.1393 49.0748 15.9518C49.2751 15.7643 49.4264 15.532 49.5287 15.255L51.6892 15.4979C51.5528 16.069 51.2929 16.5675 50.9094 16.9937C50.5301 17.4156 50.0443 17.7437 49.452 17.9781C48.8596 18.2082 48.1821 18.3232 47.4193 18.3232ZM46.3454 7.02209L47.7773 4.10093H50.04L48.0777 7.02209H46.3454ZM58.0253 18.3232C57.0452 18.3232 56.2036 18.108 55.5004 17.6776C54.8016 17.2472 54.2625 16.6528 53.8833 15.8943C53.5083 15.1315 53.3208 14.2536 53.3208 13.2607C53.3208 12.2636 53.5125 11.3836 53.896 10.6208C54.2796 9.85377 54.8208 9.25718 55.5196 8.83104C56.2227 8.40065 57.0537 8.18545 58.0125 8.18545C58.8094 8.18545 59.5146 8.33246 60.1283 8.6265C60.7462 8.91627 61.2384 9.32749 61.6048 9.86016C61.9713 10.3886 62.1801 11.0065 62.2313 11.7139H60.0196C59.9301 11.2408 59.7171 10.8467 59.3804 10.5313C59.048 10.2117 58.6027 10.0519 58.0445 10.0519C57.5715 10.0519 57.156 10.1798 56.798 10.4354C56.4401 10.6869 56.161 11.0491 55.9607 11.5221C55.7646 11.9951 55.6666 12.5619 55.6666 13.2224C55.6666 13.8914 55.7646 14.4667 55.9607 14.9482C56.1567 15.4255 56.4316 15.7941 56.7852 16.0541C57.1432 16.3097 57.5629 16.4376 58.0445 16.4376C58.3854 16.4376 58.6901 16.3737 58.9585 16.2458C59.2313 16.1137 59.4593 15.9241 59.6425 15.6769C59.8257 15.4298 59.9514 15.1293 60.0196 14.7756H62.2313C62.1759 15.4702 61.9713 16.086 61.6176 16.6229C61.2639 17.1556 60.7824 17.5732 60.173 17.8758C59.5637 18.1741 58.8477 18.3232 58.0253 18.3232ZM68.414 18.3232C67.4552 18.3232 66.6242 18.1123 65.9211 17.6904C65.218 17.2685 64.6725 16.6783 64.2847 15.9198C63.9012 15.1613 63.7094 14.2749 63.7094 13.2607C63.7094 12.2465 63.9012 11.358 64.2847 10.5952C64.6725 9.83246 65.218 9.24013 65.9211 8.81826C66.6242 8.39638 67.4552 8.18545 68.414 8.18545C69.3728 8.18545 70.2037 8.39638 70.9069 8.81826C71.61 9.24013 72.1533 9.83246 72.5368 10.5952C72.9246 11.358 73.1185 12.2465 73.1185 13.2607C73.1185 14.2749 72.9246 15.1613 72.5368 15.9198C72.1533 16.6783 71.61 17.2685 70.9069 17.6904C70.2037 18.1123 69.3728 18.3232 68.414 18.3232ZM68.4268 16.4695C68.9466 16.4695 69.3813 16.3268 69.7307 16.0413C70.0802 15.7515 70.3401 15.3637 70.5106 14.8779C70.6853 14.3921 70.7726 13.8509 70.7726 13.2543C70.7726 12.6535 70.6853 12.1102 70.5106 11.6244C70.3401 11.1343 70.0802 10.7444 69.7307 10.4546C69.3813 10.1649 68.9466 10.02 68.4268 10.02C67.8941 10.02 67.4509 10.1649 67.0972 10.4546C66.7478 10.7444 66.4857 11.1343 66.311 11.6244C66.1405 12.1102 66.0553 12.6535 66.0553 13.2543C66.0553 13.8509 66.1405 14.3921 66.311 14.8779C66.4857 15.3637 66.7478 15.7515 67.0972 16.0413C67.4509 16.3268 67.8941 16.4695 68.4268 16.4695ZM81.3403 14.0022V8.31329H83.6542V18.1315H81.4106V16.3864H81.3083C81.0867 16.9362 80.7224 17.3857 80.2153 17.7352C79.7124 18.0846 79.0924 18.2593 78.3552 18.2593C77.7117 18.2593 77.1428 18.1166 76.6485 17.831C76.1585 17.5413 75.7749 17.1215 75.498 16.5718C75.221 16.0178 75.0825 15.3488 75.0825 14.5647V8.31329H77.3964V14.2068C77.3964 14.8289 77.5669 15.3232 77.9078 15.6897C78.2487 16.0562 78.6961 16.2394 79.2501 16.2394C79.591 16.2394 79.9213 16.1563 80.2409 15.9901C80.5605 15.8239 80.8225 15.5768 81.0271 15.2487C81.2359 14.9163 81.3403 14.5008 81.3403 14.0022ZM94.8035 8.31329L91.3071 18.1315H88.7503L85.2538 8.31329H87.7211L89.9775 15.6066H90.0798L92.3426 8.31329H94.8035ZM96.4047 18.1315V8.31329H98.6483V9.94965H98.7506C98.9296 9.38289 99.2364 8.9461 99.6711 8.63928C100.11 8.3282 100.611 8.17266 101.173 8.17266C101.301 8.17266 101.444 8.17905 101.601 8.19184C101.763 8.20036 101.898 8.21528 102.004 8.23658V10.3651C101.906 10.331 101.751 10.3012 101.538 10.2756C101.329 10.2458 101.126 10.2309 100.93 10.2309C100.508 10.2309 100.129 10.3225 99.7925 10.5058C99.4601 10.6847 99.1981 10.934 99.0063 11.2536C98.8145 11.5732 98.7187 11.9418 98.7187 12.3595V18.1315H96.4047ZM103.541 18.1315V8.31329H105.855V18.1315H103.541ZM104.705 6.91982C104.338 6.91982 104.023 6.79837 103.759 6.55548C103.495 6.30832 103.362 6.01215 103.362 5.66698C103.362 5.31755 103.495 5.02138 103.759 4.77849C104.023 4.53133 104.338 4.40775 104.705 4.40775C105.076 4.40775 105.391 4.53133 105.651 4.77849C105.915 5.02138 106.047 5.31755 106.047 5.66698C106.047 6.01215 105.915 6.30832 105.651 6.55548C105.391 6.79837 105.076 6.91982 104.705 6.91982ZM108.235 18.1315V8.31329H110.478V9.94965H110.581C110.76 9.38289 111.066 8.9461 111.501 8.63928C111.94 8.3282 112.441 8.17266 113.003 8.17266C113.131 8.17266 113.274 8.17905 113.432 8.19184C113.593 8.20036 113.728 8.21528 113.834 8.23658V10.3651C113.736 10.331 113.581 10.3012 113.368 10.2756C113.159 10.2458 112.956 10.2309 112.76 10.2309C112.339 10.2309 111.959 10.3225 111.623 10.5058C111.29 10.6847 111.028 10.934 110.836 11.2536C110.645 11.5732 110.549 11.9418 110.549 12.3595V18.1315H108.235Z" fill="#A767C5"/>
<path d="M15.8062 10.6844C16.6908 10.6844 17.4115 11.4059 17.4115 12.2898C17.4115 13.1737 16.69 13.8721 15.8062 13.8721C14.9223 13.8721 14.2238 13.1737 14.2238 12.2898C14.2238 11.4059 14.9223 10.6844 15.8062 10.6844ZM15.8062 6.72827C21.0654 6.72827 24.8577 11.6613 24.8577 11.6613C25.1138 11.9875 25.1138 12.569 24.8577 12.8944C24.8577 12.8944 21.0646 17.8275 15.8062 17.8275C10.5477 17.8275 6.75461 12.8944 6.75461 12.8944C6.49846 12.5683 6.49846 11.9867 6.75461 11.6613C6.75461 11.6613 10.5477 6.72827 15.8062 6.72827ZM15.8062 16.269C17.9938 16.269 19.7854 14.4775 19.7854 12.2898C19.7854 10.1021 17.9938 8.31058 15.8062 8.31058C13.6185 8.31058 11.8269 10.1021 11.8269 12.2898C11.8269 14.4775 13.6185 16.269 15.8062 16.269Z" fill="#A767C5"/>
</svg>
