<svg width="162" height="25" viewBox="0 0 162 25" fill="none" xmlns="http://www.w3.org/2000/svg">
<rect x="0.890625" y="0.725586" width="160.876" height="24.0516" rx="5" fill="#061F31"/>
<path d="M25.2757 12.7783L19.4161 16.7568L16.6405 21.2903H15.3696L12.6898 16.9134L22.4944 10.272L25.2757 12.7783Z" fill="#FF823F"/>
<path d="M22.4923 7.64669L10.8205 15.5527L6.73438 12.7783L9.54064 10.2494L9.47913 3.24902L14.1358 6.88823H17.8742L22.5311 3.24902L22.4923 7.64669Z" fill="#FF823F"/>
<path d="M30.132 18.7256V5.63468H35.0411C36.0468 5.63468 36.8905 5.82218 37.5724 6.19718C38.2584 6.57218 38.7762 7.0878 39.1256 7.74405C39.4793 8.39604 39.6562 9.13752 39.6562 9.96848C39.6562 10.808 39.4793 11.5537 39.1256 12.2057C38.7719 12.8577 38.2499 13.3712 37.5596 13.7462C36.8692 14.1169 36.0191 14.3023 35.0091 14.3023H31.7556V12.3527H34.6895C35.2776 12.3527 35.7591 12.2504 36.1341 12.0459C36.5091 11.8414 36.7861 11.5601 36.9651 11.2021C37.1483 10.8442 37.24 10.433 37.24 9.96848C37.24 9.504 37.1483 9.0949 36.9651 8.74121C36.7861 8.38752 36.507 8.11266 36.1278 7.91664C35.7528 7.71635 35.2691 7.61621 34.6768 7.61621H32.5035V18.7256H30.132ZM45.8197 18.9173C44.8353 18.9173 43.9852 18.7128 43.2693 18.3037C42.5576 17.8904 42.01 17.3066 41.6265 16.5523C41.243 15.7938 41.0512 14.901 41.0512 13.874C41.0512 12.8641 41.243 11.9777 41.6265 11.2149C42.0143 10.4479 42.5555 9.8513 43.2501 9.42516C43.9447 8.99476 44.7607 8.77956 45.6982 8.77956C46.3034 8.77956 46.8744 8.87757 47.4113 9.0736C47.9525 9.26536 48.4298 9.56365 48.8431 9.96848C49.2607 10.3733 49.5889 10.8889 49.8275 11.5154C50.0661 12.1375 50.1855 12.879 50.1855 13.7398V14.4493H42.1379V12.8896H47.9674C47.9632 12.4465 47.8673 12.0523 47.6798 11.7071C47.4923 11.3577 47.2302 11.0828 46.8936 10.8825C46.5612 10.6823 46.1734 10.5821 45.7302 10.5821C45.2572 10.5821 44.8417 10.6972 44.4838 10.9273C44.1258 11.1531 43.8467 11.4514 43.6464 11.8222C43.4504 12.1887 43.3502 12.5914 43.346 13.0303V14.3918C43.346 14.9628 43.4504 15.4529 43.6592 15.8619C43.868 16.2668 44.1599 16.5779 44.5349 16.7952C44.9099 17.0083 45.3488 17.1148 45.8517 17.1148C46.1883 17.1148 46.493 17.0679 46.7657 16.9742C47.0384 16.8762 47.2749 16.7334 47.4752 16.5459C47.6755 16.3584 47.8268 16.1262 47.9291 15.8492L50.0896 16.0921C49.9532 16.6631 49.6933 17.1617 49.3097 17.5878C48.9305 18.0097 48.4447 18.3378 47.8524 18.5722C47.26 18.8023 46.5825 18.9173 45.8197 18.9173ZM52.143 18.7256V8.9074H54.3866V10.5438H54.4889C54.6679 9.97701 54.9747 9.54022 55.4094 9.2334C55.8483 8.92232 56.349 8.76678 56.9115 8.76678C57.0393 8.76678 57.1821 8.77317 57.3398 8.78595C57.5017 8.79448 57.6359 8.80939 57.7425 8.8307V10.9593C57.6444 10.9252 57.4889 10.8953 57.2758 10.8698C57.067 10.8399 56.8646 10.825 56.6686 10.825C56.2467 10.825 55.8675 10.9166 55.5308 11.0999C55.1984 11.2789 54.9363 11.5281 54.7446 11.8477C54.5528 12.1673 54.4569 12.536 54.4569 12.9536V18.7256H52.143ZM62.5189 18.8982C61.7476 18.8982 61.0573 18.7 60.4479 18.3037C59.8385 17.9074 59.357 17.3321 59.0033 16.5779C58.6496 15.8236 58.4727 14.9074 58.4727 13.8293C58.4727 12.7384 58.6517 11.8179 59.0097 11.0679C59.3719 10.3137 59.8598 9.74476 60.4735 9.36124C61.0871 8.97346 61.771 8.77956 62.5253 8.77956C63.1006 8.77956 63.5736 8.87757 63.9443 9.0736C64.3151 9.26536 64.6091 9.4976 64.8264 9.77033C65.0438 10.0388 65.2121 10.2923 65.3314 10.531H65.4273V5.63468H67.7476V18.7256H65.472V17.1787H65.3314C65.2121 17.4173 65.0395 17.6709 64.8137 17.9394C64.5878 18.2036 64.2895 18.4294 63.9188 18.6169C63.548 18.8044 63.0814 18.8982 62.5189 18.8982ZM63.1645 16.9997C63.6546 16.9997 64.0722 16.8676 64.4173 16.6034C64.7625 16.335 65.0246 15.9621 65.2036 15.4848C65.3825 15.0075 65.472 14.4514 65.472 13.8165C65.472 13.1816 65.3825 12.6297 65.2036 12.161C65.0289 11.6922 64.7689 11.3279 64.4237 11.0679C64.0828 10.808 63.6631 10.678 63.1645 10.678C62.6489 10.678 62.2185 10.8122 61.8733 11.0807C61.5281 11.3492 61.2682 11.7199 61.0935 12.1929C60.9188 12.6659 60.8314 13.2071 60.8314 13.8165C60.8314 14.4301 60.9188 14.9777 61.0935 15.4593C61.2725 15.9365 61.5345 16.3137 61.8797 16.5906C62.2291 16.8634 62.6574 16.9997 63.1645 16.9997ZM70.2133 18.7256V8.9074H72.4569V10.5438H72.5592C72.7382 9.97701 73.045 9.54022 73.4797 9.2334C73.9186 8.92232 74.4193 8.76678 74.9818 8.76678C75.1096 8.76678 75.2524 8.77317 75.4101 8.78595C75.572 8.79448 75.7062 8.80939 75.8128 8.8307V10.9593C75.7148 10.9252 75.5592 10.8953 75.3461 10.8698C75.1373 10.8399 74.9349 10.825 74.7389 10.825C74.317 10.825 73.9378 10.9166 73.6011 11.0999C73.2687 11.2789 73.0067 11.5281 72.8149 11.8477C72.6231 12.1673 72.5273 12.536 72.5273 12.9536V18.7256H70.2133ZM81.2923 18.9173C80.308 18.9173 79.4578 18.7128 78.7419 18.3037C78.0303 17.8904 77.4827 17.3066 77.0992 16.5523C76.7156 15.7938 76.5239 14.901 76.5239 13.874C76.5239 12.8641 76.7156 11.9777 77.0992 11.2149C77.4869 10.4479 78.0281 9.8513 78.7227 9.42516C79.4173 8.99476 80.2334 8.77956 81.1709 8.77956C81.776 8.77956 82.347 8.87757 82.884 9.0736C83.4252 9.26536 83.9024 9.56365 84.3158 9.96848C84.7334 10.3733 85.0615 10.8889 85.3002 11.5154C85.5388 12.1375 85.6581 12.879 85.6581 13.7398V14.4493H77.6105V12.8896H83.4401C83.4358 12.4465 83.3399 12.0523 83.1524 11.7071C82.9649 11.3577 82.7029 11.0828 82.3662 10.8825C82.0338 10.6823 81.646 10.5821 81.2029 10.5821C80.7298 10.5821 80.3144 10.6972 79.9564 10.9273C79.5985 11.1531 79.3193 11.4514 79.1191 11.8222C78.923 12.1887 78.8229 12.5914 78.8186 13.0303V14.3918C78.8186 14.9628 78.923 15.4529 79.1318 15.8619C79.3406 16.2668 79.6325 16.5779 80.0075 16.7952C80.3825 17.0083 80.8215 17.1148 81.3243 17.1148C81.661 17.1148 81.9656 17.0679 82.2384 16.9742C82.5111 16.8762 82.7476 16.7334 82.9479 16.5459C83.1482 16.3584 83.2994 16.1262 83.4017 15.8492L85.5622 16.0921C85.4259 16.6631 85.1659 17.1617 84.7824 17.5878C84.4031 18.0097 83.9173 18.3378 83.325 18.5722C82.7327 18.8023 82.0551 18.9173 81.2923 18.9173ZM94.3944 5.63468V18.7256H92.0805V5.63468H94.3944ZM101.12 18.9173C100.136 18.9173 99.286 18.7128 98.57 18.3037C97.8584 17.8904 97.3108 17.3066 96.9273 16.5523C96.5438 15.7938 96.352 14.901 96.352 13.874C96.352 12.8641 96.5438 11.9777 96.9273 11.2149C97.3151 10.4479 97.8563 9.8513 98.5509 9.42516C99.2455 8.99476 100.062 8.77956 100.999 8.77956C101.604 8.77956 102.175 8.87757 102.712 9.0736C103.253 9.26536 103.731 9.56365 104.144 9.96848C104.562 10.3733 104.89 10.8889 105.128 11.5154C105.367 12.1375 105.486 12.879 105.486 13.7398V14.4493H97.4387V12.8896H103.268C103.264 12.4465 103.168 12.0523 102.981 11.7071C102.793 11.3577 102.531 11.0828 102.194 10.8825C101.862 10.6823 101.474 10.5821 101.031 10.5821C100.558 10.5821 100.142 10.6972 99.7845 10.9273C99.4266 11.1531 99.1475 11.4514 98.9472 11.8222C98.7512 12.1887 98.651 12.5914 98.6468 13.0303V14.3918C98.6468 14.9628 98.7512 15.4529 98.96 15.8619C99.1688 16.2668 99.4607 16.5779 99.8357 16.7952C100.211 17.0083 100.65 17.1148 101.152 17.1148C101.489 17.1148 101.794 17.0679 102.066 16.9742C102.339 16.8762 102.576 16.7334 102.776 16.5459C102.976 16.3584 103.128 16.1262 103.23 15.8492L105.39 16.0921C105.254 16.6631 104.994 17.1617 104.611 17.5878C104.231 18.0097 103.745 18.3378 103.153 18.5722C102.561 18.8023 101.883 18.9173 101.12 18.9173ZM116.882 8.9074V10.6972H111.078V8.9074H116.882ZM112.529 18.7256V7.98056C112.529 7.32005 112.665 6.77033 112.938 6.33141C113.215 5.89249 113.585 5.56436 114.05 5.34703C114.514 5.1297 115.03 5.02104 115.597 5.02104C115.997 5.02104 116.353 5.053 116.664 5.11692C116.975 5.18084 117.206 5.23837 117.355 5.28951L116.894 7.07928C116.796 7.04945 116.673 7.01962 116.524 6.98979C116.375 6.9557 116.208 6.93865 116.025 6.93865C115.595 6.93865 115.29 7.04306 115.111 7.25186C114.936 7.45641 114.849 7.75044 114.849 8.13397V18.7256H112.529ZM121.008 5.63468V18.7256H118.694V5.63468H121.008ZM126.212 18.9237C125.59 18.9237 125.03 18.8129 124.531 18.5914C124.037 18.3655 123.645 18.0331 123.355 17.5942C123.07 17.1553 122.927 16.6141 122.927 15.9706C122.927 15.4166 123.029 14.9585 123.234 14.5963C123.438 14.2341 123.717 13.9443 124.071 13.727C124.425 13.5097 124.823 13.3456 125.266 13.2348C125.714 13.1198 126.176 13.0367 126.653 12.9855C127.229 12.9259 127.695 12.8726 128.053 12.8257C128.411 12.7746 128.671 12.6979 128.833 12.5956C128.999 12.4891 129.082 12.325 129.082 12.1034V12.0651C129.082 11.5835 128.94 11.2107 128.654 10.9465C128.369 10.6823 127.957 10.5502 127.421 10.5502C126.854 10.5502 126.404 10.6737 126.072 10.9209C125.744 11.1681 125.522 11.46 125.407 11.7966L123.247 11.4898C123.417 10.8932 123.698 10.3946 124.09 9.99405C124.482 9.58922 124.962 9.28666 125.528 9.08638C126.095 8.88184 126.722 8.77956 127.408 8.77956C127.881 8.77956 128.352 8.83496 128.82 8.94576C129.289 9.05655 129.717 9.23979 130.105 9.49547C130.493 9.74689 130.804 10.0899 131.038 10.5246C131.277 10.9593 131.396 11.5026 131.396 12.1546V18.7256H129.172V17.3769H129.095C128.955 17.6496 128.756 17.9053 128.501 18.1439C128.249 18.3783 127.932 18.5679 127.548 18.7128C127.169 18.8534 126.724 18.9237 126.212 18.9237ZM126.813 17.2235C127.278 17.2235 127.68 17.1318 128.021 16.9486C128.362 16.7611 128.624 16.5139 128.808 16.2071C128.995 15.9003 129.089 15.5658 129.089 15.2036V14.0466C129.016 14.1063 128.893 14.1617 128.718 14.2128C128.548 14.2639 128.356 14.3087 128.143 14.347C127.93 14.3854 127.719 14.4195 127.51 14.4493C127.301 14.4791 127.12 14.5047 126.967 14.526C126.622 14.5729 126.313 14.6496 126.04 14.7561C125.767 14.8627 125.552 15.0118 125.394 15.2036C125.237 15.3911 125.158 15.634 125.158 15.9323C125.158 16.3584 125.313 16.6801 125.624 16.8975C125.935 17.1148 126.332 17.2235 126.813 17.2235ZM133.723 18.7256V8.9074H136.037V18.7256H133.723ZM134.886 7.51394C134.52 7.51394 134.205 7.39249 133.94 7.14959C133.676 6.90243 133.544 6.60627 133.544 6.2611C133.544 5.91166 133.676 5.6155 133.94 5.3726C134.205 5.12544 134.52 5.00186 134.886 5.00186C135.257 5.00186 135.573 5.12544 135.832 5.3726C136.097 5.6155 136.229 5.91166 136.229 6.2611C136.229 6.60627 136.097 6.90243 135.832 7.14959C135.573 7.39249 135.257 7.51394 134.886 7.51394ZM138.416 18.7256V8.9074H140.66V10.5438H140.762C140.941 9.97701 141.248 9.54022 141.683 9.2334C142.122 8.92232 142.622 8.76678 143.185 8.76678C143.313 8.76678 143.456 8.77317 143.613 8.78595C143.775 8.79448 143.909 8.80939 144.016 8.8307V10.9593C143.918 10.9252 143.762 10.8953 143.549 10.8698C143.34 10.8399 143.138 10.825 142.942 10.825C142.52 10.825 142.141 10.9166 141.804 11.0999C141.472 11.2789 141.21 11.5281 141.018 11.8477C140.826 12.1673 140.73 12.536 140.73 12.9536V18.7256H138.416ZM149.495 18.9173C148.511 18.9173 147.661 18.7128 146.945 18.3037C146.233 17.8904 145.686 17.3066 145.302 16.5523C144.919 15.7938 144.727 14.901 144.727 13.874C144.727 12.8641 144.919 11.9777 145.302 11.2149C145.69 10.4479 146.231 9.8513 146.926 9.42516C147.62 8.99476 148.437 8.77956 149.374 8.77956C149.979 8.77956 150.55 8.87757 151.087 9.0736C151.628 9.26536 152.106 9.56365 152.519 9.96848C152.937 10.3733 153.265 10.8889 153.503 11.5154C153.742 12.1375 153.861 12.879 153.861 13.7398V14.4493H145.814V12.8896H151.643C151.639 12.4465 151.543 12.0523 151.356 11.7071C151.168 11.3577 150.906 11.0828 150.569 10.8825C150.237 10.6823 149.849 10.5821 149.406 10.5821C148.933 10.5821 148.517 10.6972 148.16 10.9273C147.802 11.1531 147.522 11.4514 147.322 11.8222C147.126 12.1887 147.026 12.5914 147.022 13.0303V14.3918C147.022 14.9628 147.126 15.4529 147.335 15.8619C147.544 16.2668 147.836 16.5779 148.211 16.7952C148.586 17.0083 149.025 17.1148 149.527 17.1148C149.864 17.1148 150.169 17.0679 150.441 16.9742C150.714 16.8762 150.951 16.7334 151.151 16.5459C151.351 16.3584 151.503 16.1262 151.605 15.8492L153.765 16.0921C153.629 16.6631 153.369 17.1617 152.986 17.5878C152.606 18.0097 152.12 18.3378 151.528 18.5722C150.936 18.8023 150.258 18.9173 149.495 18.9173Z" fill="#FF823F"/>
</svg>
