<svg width="162" height="25" viewBox="0 0 162 25" fill="none" xmlns="http://www.w3.org/2000/svg">
<rect x="0.414062" y="0.725586" width="160.876" height="24.0516" rx="5" fill="#061F31"/>
<path d="M24.7991 12.7783L18.9396 16.7568L16.164 21.2903H14.893L12.2132 16.9134L22.0179 10.272L24.7991 12.7783Z" fill="#61646B"/>
<path d="M22.0157 7.64669L10.344 15.5527L6.25781 12.7783L9.06408 10.2494L9.00257 3.24902L13.6593 6.88823H17.3976L22.0545 3.24902L22.0157 7.64669Z" fill="#61646B"/>
<path d="M29.6555 18.7256V5.63468H34.5645C35.5702 5.63468 36.414 5.82218 37.0958 6.19718C37.7819 6.57218 38.2996 7.0878 38.6491 7.74405C39.0028 8.39604 39.1796 9.13752 39.1796 9.96848C39.1796 10.808 39.0028 11.5537 38.6491 12.2057C38.2954 12.8577 37.7733 13.3712 37.083 13.7462C36.3927 14.1169 35.5425 14.3023 34.5326 14.3023H31.279V12.3527H34.213C34.801 12.3527 35.2826 12.2504 35.6576 12.0459C36.0326 11.8414 36.3096 11.5601 36.4885 11.2021C36.6718 10.8442 36.7634 10.433 36.7634 9.96848C36.7634 9.504 36.6718 9.0949 36.4885 8.74121C36.3096 8.38752 36.0305 8.11266 35.6512 7.91664C35.2762 7.71635 34.7925 7.61621 34.2002 7.61621H32.0269V18.7256H29.6555ZM45.3431 18.9173C44.3588 18.9173 43.5086 18.7128 42.7927 18.3037C42.0811 17.8904 41.5335 17.3066 41.1499 16.5523C40.7664 15.7938 40.5747 14.901 40.5747 13.874C40.5747 12.8641 40.7664 11.9777 41.1499 11.2149C41.5377 10.4479 42.0789 9.8513 42.7735 9.42516C43.4681 8.99476 44.2842 8.77956 45.2217 8.77956C45.8268 8.77956 46.3978 8.87757 46.9347 9.0736C47.4759 9.26536 47.9532 9.56365 48.3666 9.96848C48.7842 10.3733 49.1123 10.8889 49.3509 11.5154C49.5896 12.1375 49.7089 12.879 49.7089 13.7398V14.4493H41.6613V12.8896H47.4909C47.4866 12.4465 47.3907 12.0523 47.2032 11.7071C47.0157 11.3577 46.7536 11.0828 46.417 10.8825C46.0846 10.6823 45.6968 10.5821 45.2536 10.5821C44.7806 10.5821 44.3651 10.6972 44.0072 10.9273C43.6492 11.1531 43.3701 11.4514 43.1698 11.8222C42.9738 12.1887 42.8737 12.5914 42.8694 13.0303V14.3918C42.8694 14.9628 42.9738 15.4529 43.1826 15.8619C43.3914 16.2668 43.6833 16.5779 44.0583 16.7952C44.4333 17.0083 44.8722 17.1148 45.3751 17.1148C45.7117 17.1148 46.0164 17.0679 46.2892 16.9742C46.5619 16.8762 46.7984 16.7334 46.9987 16.5459C47.199 16.3584 47.3502 16.1262 47.4525 15.8492L49.613 16.0921C49.4767 16.6631 49.2167 17.1617 48.8332 17.5878C48.4539 18.0097 47.9681 18.3378 47.3758 18.5722C46.7835 18.8023 46.1059 18.9173 45.3431 18.9173ZM51.6665 18.7256V8.9074H53.9101V10.5438H54.0123C54.1913 9.97701 54.4981 9.54022 54.9328 9.2334C55.3717 8.92232 55.8724 8.76678 56.4349 8.76678C56.5628 8.76678 56.7055 8.77317 56.8632 8.78595C57.0251 8.79448 57.1594 8.80939 57.2659 8.8307V10.9593C57.1679 10.9252 57.0123 10.8953 56.7993 10.8698C56.5905 10.8399 56.3881 10.825 56.192 10.825C55.7702 10.825 55.3909 10.9166 55.0542 11.0999C54.7219 11.2789 54.4598 11.5281 54.268 11.8477C54.0763 12.1673 53.9804 12.536 53.9804 12.9536V18.7256H51.6665ZM62.0423 18.8982C61.271 18.8982 60.5807 18.7 59.9713 18.3037C59.3619 17.9074 58.8804 17.3321 58.5267 16.5779C58.173 15.8236 57.9962 14.9074 57.9962 13.8293C57.9962 12.7384 58.1752 11.8179 58.5331 11.0679C58.8953 10.3137 59.3833 9.74476 59.9969 9.36124C60.6105 8.97346 61.2945 8.77956 62.0487 8.77956C62.624 8.77956 63.097 8.87757 63.4678 9.0736C63.8385 9.26536 64.1325 9.4976 64.3499 9.77033C64.5672 10.0388 64.7355 10.2923 64.8548 10.531H64.9507V5.63468H67.271V18.7256H64.9955V17.1787H64.8548C64.7355 17.4173 64.5629 17.6709 64.3371 17.9394C64.1112 18.2036 63.8129 18.4294 63.4422 18.6169C63.0715 18.8044 62.6048 18.8982 62.0423 18.8982ZM62.6879 16.9997C63.178 16.9997 63.5956 16.8676 63.9408 16.6034C64.286 16.335 64.548 15.9621 64.727 15.4848C64.906 15.0075 64.9955 14.4514 64.9955 13.8165C64.9955 13.1816 64.906 12.6297 64.727 12.161C64.5523 11.6922 64.2923 11.3279 63.9472 11.0679C63.6063 10.808 63.1865 10.678 62.6879 10.678C62.1723 10.678 61.7419 10.8122 61.3968 11.0807C61.0516 11.3492 60.7916 11.7199 60.6169 12.1929C60.4422 12.6659 60.3548 13.2071 60.3548 13.8165C60.3548 14.4301 60.4422 14.9777 60.6169 15.4593C60.7959 15.9365 61.058 16.3137 61.4031 16.5906C61.7526 16.8634 62.1808 16.9997 62.6879 16.9997ZM69.7368 18.7256V8.9074H71.9804V10.5438H72.0827C72.2616 9.97701 72.5684 9.54022 73.0031 9.2334C73.442 8.92232 73.9427 8.76678 74.5052 8.76678C74.6331 8.76678 74.7758 8.77317 74.9335 8.78595C75.0954 8.79448 75.2297 8.80939 75.3362 8.8307V10.9593C75.2382 10.9252 75.0827 10.8953 74.8696 10.8698C74.6608 10.8399 74.4584 10.825 74.2623 10.825C73.8405 10.825 73.4612 10.9166 73.1246 11.0999C72.7922 11.2789 72.5301 11.5281 72.3383 11.8477C72.1466 12.1673 72.0507 12.536 72.0507 12.9536V18.7256H69.7368ZM80.8158 18.9173C79.8314 18.9173 78.9813 18.7128 78.2654 18.3037C77.5537 17.8904 77.0061 17.3066 76.6226 16.5523C76.2391 15.7938 76.0473 14.901 76.0473 13.874C76.0473 12.8641 76.2391 11.9777 76.6226 11.2149C77.0104 10.4479 77.5516 9.8513 78.2462 9.42516C78.9408 8.99476 79.7568 8.77956 80.6943 8.77956C81.2994 8.77956 81.8705 8.87757 82.4074 9.0736C82.9486 9.26536 83.4259 9.56365 83.8392 9.96848C84.2568 10.3733 84.585 10.8889 84.8236 11.5154C85.0622 12.1375 85.1816 12.879 85.1816 13.7398V14.4493H77.134V12.8896H82.9635C82.9593 12.4465 82.8634 12.0523 82.6759 11.7071C82.4884 11.3577 82.2263 11.0828 81.8896 10.8825C81.5573 10.6823 81.1695 10.5821 80.7263 10.5821C80.2533 10.5821 79.8378 10.6972 79.4798 10.9273C79.1219 11.1531 78.8428 11.4514 78.6425 11.8222C78.4465 12.1887 78.3463 12.5914 78.3421 13.0303V14.3918C78.3421 14.9628 78.4465 15.4529 78.6553 15.8619C78.8641 16.2668 79.156 16.5779 79.531 16.7952C79.906 17.0083 80.3449 17.1148 80.8477 17.1148C81.1844 17.1148 81.4891 17.0679 81.7618 16.9742C82.0345 16.8762 82.271 16.7334 82.4713 16.5459C82.6716 16.3584 82.8229 16.1262 82.9252 15.8492L85.0857 16.0921C84.9493 16.6631 84.6894 17.1617 84.3058 17.5878C83.9266 18.0097 83.4408 18.3378 82.8485 18.5722C82.2561 18.8023 81.5786 18.9173 80.8158 18.9173ZM93.9179 5.63468V18.7256H91.604V5.63468H93.9179ZM100.644 18.9173C99.6595 18.9173 98.8094 18.7128 98.0935 18.3037C97.3818 17.8904 96.8343 17.3066 96.4507 16.5523C96.0672 15.7938 95.8754 14.901 95.8754 13.874C95.8754 12.8641 96.0672 11.9777 96.4507 11.2149C96.8385 10.4479 97.3797 9.8513 98.0743 9.42516C98.7689 8.99476 99.585 8.77956 100.522 8.77956C101.128 8.77956 101.699 8.87757 102.236 9.0736C102.777 9.26536 103.254 9.56365 103.667 9.96848C104.085 10.3733 104.413 10.8889 104.652 11.5154C104.89 12.1375 105.01 12.879 105.01 13.7398V14.4493H96.9621V12.8896H102.792C102.787 12.4465 102.691 12.0523 102.504 11.7071C102.316 11.3577 102.054 11.0828 101.718 10.8825C101.385 10.6823 100.998 10.5821 100.554 10.5821C100.081 10.5821 99.6659 10.6972 99.308 10.9273C98.95 11.1531 98.6709 11.4514 98.4706 11.8222C98.2746 12.1887 98.1744 12.5914 98.1702 13.0303V14.3918C98.1702 14.9628 98.2746 15.4529 98.4834 15.8619C98.6922 16.2668 98.9841 16.5779 99.3591 16.7952C99.7341 17.0083 100.173 17.1148 100.676 17.1148C101.013 17.1148 101.317 17.0679 101.59 16.9742C101.863 16.8762 102.099 16.7334 102.299 16.5459C102.5 16.3584 102.651 16.1262 102.753 15.8492L104.914 16.0921C104.777 16.6631 104.517 17.1617 104.134 17.5878C103.755 18.0097 103.269 18.3378 102.677 18.5722C102.084 18.8023 101.407 18.9173 100.644 18.9173ZM116.405 8.9074V10.6972H110.601V8.9074H116.405ZM112.052 18.7256V7.98056C112.052 7.32005 112.188 6.77033 112.461 6.33141C112.738 5.89249 113.109 5.56436 113.573 5.34703C114.038 5.1297 114.554 5.02104 115.12 5.02104C115.521 5.02104 115.877 5.053 116.188 5.11692C116.499 5.18084 116.729 5.23837 116.878 5.28951L116.418 7.07928C116.32 7.04945 116.196 7.01962 116.047 6.98979C115.898 6.9557 115.732 6.93865 115.549 6.93865C115.118 6.93865 114.813 7.04306 114.634 7.25186C114.46 7.45641 114.372 7.75044 114.372 8.13397V18.7256H112.052ZM120.531 5.63468V18.7256H118.217V5.63468H120.531ZM125.736 18.9237C125.114 18.9237 124.553 18.8129 124.055 18.5914C123.56 18.3655 123.168 18.0331 122.879 17.5942C122.593 17.1553 122.45 16.6141 122.45 15.9706C122.45 15.4166 122.553 14.9585 122.757 14.5963C122.962 14.2341 123.241 13.9443 123.595 13.727C123.948 13.5097 124.347 13.3456 124.79 13.2348C125.237 13.1198 125.7 13.0367 126.177 12.9855C126.752 12.9259 127.219 12.8726 127.577 12.8257C127.935 12.7746 128.195 12.6979 128.357 12.5956C128.523 12.4891 128.606 12.325 128.606 12.1034V12.0651C128.606 11.5835 128.463 11.2107 128.178 10.9465C127.892 10.6823 127.481 10.5502 126.944 10.5502C126.377 10.5502 125.928 10.6737 125.595 10.9209C125.267 11.1681 125.046 11.46 124.93 11.7966L122.77 11.4898C122.94 10.8932 123.222 10.3946 123.614 9.99405C124.006 9.58922 124.485 9.28666 125.052 9.08638C125.619 8.88184 126.245 8.77956 126.931 8.77956C127.404 8.77956 127.875 8.83496 128.344 8.94576C128.813 9.05655 129.241 9.23979 129.629 9.49547C130.016 9.74689 130.328 10.0899 130.562 10.5246C130.801 10.9593 130.92 11.5026 130.92 12.1546V18.7256H128.695V17.3769H128.619C128.478 17.6496 128.28 17.9053 128.024 18.1439C127.773 18.3783 127.455 18.5679 127.072 18.7128C126.693 18.8534 126.247 18.9237 125.736 18.9237ZM126.337 17.2235C126.801 17.2235 127.204 17.1318 127.545 16.9486C127.886 16.7611 128.148 16.5139 128.331 16.2071C128.519 15.9003 128.612 15.5658 128.612 15.2036V14.0466C128.54 14.1063 128.416 14.1617 128.242 14.2128C128.071 14.2639 127.879 14.3087 127.666 14.347C127.453 14.3854 127.242 14.4195 127.033 14.4493C126.825 14.4791 126.644 14.5047 126.49 14.526C126.145 14.5729 125.836 14.6496 125.563 14.7561C125.291 14.8627 125.075 15.0118 124.918 15.2036C124.76 15.3911 124.681 15.634 124.681 15.9323C124.681 16.3584 124.837 16.6801 125.148 16.8975C125.459 17.1148 125.855 17.2235 126.337 17.2235ZM133.247 18.7256V8.9074H135.56V18.7256H133.247ZM134.41 7.51394C134.043 7.51394 133.728 7.39249 133.464 7.14959C133.2 6.90243 133.068 6.60627 133.068 6.2611C133.068 5.91166 133.2 5.6155 133.464 5.3726C133.728 5.12544 134.043 5.00186 134.41 5.00186C134.781 5.00186 135.096 5.12544 135.356 5.3726C135.62 5.6155 135.752 5.91166 135.752 6.2611C135.752 6.60627 135.62 6.90243 135.356 7.14959C135.096 7.39249 134.781 7.51394 134.41 7.51394ZM137.94 18.7256V8.9074H140.184V10.5438H140.286C140.465 9.97701 140.772 9.54022 141.206 9.2334C141.645 8.92232 142.146 8.76678 142.708 8.76678C142.836 8.76678 142.979 8.77317 143.137 8.78595C143.299 8.79448 143.433 8.80939 143.539 8.8307V10.9593C143.441 10.9252 143.286 10.8953 143.073 10.8698C142.864 10.8399 142.661 10.825 142.465 10.825C142.044 10.825 141.664 10.9166 141.328 11.0999C140.995 11.2789 140.733 11.5281 140.541 11.8477C140.35 12.1673 140.254 12.536 140.254 12.9536V18.7256H137.94ZM149.019 18.9173C148.035 18.9173 147.184 18.7128 146.468 18.3037C145.757 17.8904 145.209 17.3066 144.826 16.5523C144.442 15.7938 144.25 14.901 144.25 13.874C144.25 12.8641 144.442 11.9777 144.826 11.2149C145.214 10.4479 145.755 9.8513 146.449 9.42516C147.144 8.99476 147.96 8.77956 148.897 8.77956C149.503 8.77956 150.074 8.87757 150.611 9.0736C151.152 9.26536 151.629 9.56365 152.042 9.96848C152.46 10.3733 152.788 10.8889 153.027 11.5154C153.265 12.1375 153.385 12.879 153.385 13.7398V14.4493H145.337V12.8896H151.167C151.162 12.4465 151.066 12.0523 150.879 11.7071C150.691 11.3577 150.429 11.0828 150.093 10.8825C149.76 10.6823 149.373 10.5821 148.929 10.5821C148.456 10.5821 148.041 10.6972 147.683 10.9273C147.325 11.1531 147.046 11.4514 146.846 11.8222C146.65 12.1887 146.549 12.5914 146.545 13.0303V14.3918C146.545 14.9628 146.65 15.4529 146.858 15.8619C147.067 16.2668 147.359 16.5779 147.734 16.7952C148.109 17.0083 148.548 17.1148 149.051 17.1148C149.388 17.1148 149.692 17.0679 149.965 16.9742C150.238 16.8762 150.474 16.7334 150.674 16.5459C150.875 16.3584 151.026 16.1262 151.128 15.8492L153.289 16.0921C153.152 16.6631 152.892 17.1617 152.509 17.5878C152.13 18.0097 151.644 18.3378 151.052 18.5722C150.459 18.8023 149.782 18.9173 149.019 18.9173Z" fill="#61646B"/>
</svg>
