<svg width="185" height="25" viewBox="0 0 185 25" fill="none" xmlns="http://www.w3.org/2000/svg">
<rect x="0.701172" y="0.0317383" width="184.258" height="24.0516" rx="5" fill="#061F31"/>
<path d="M34.3786 18.0317H29.9426V4.94083H34.4681C35.7678 4.94083 36.8843 5.2029 37.8176 5.72705C38.7551 6.24694 39.4752 6.99481 39.9781 7.97066C40.4809 8.94651 40.7323 10.1141 40.7323 11.4735C40.7323 12.8371 40.4788 14.009 39.9717 14.9891C39.4688 15.9692 38.7423 16.7214 37.792 17.2455C36.846 17.7697 35.7082 18.0317 34.3786 18.0317ZM32.314 15.9799H34.2636C35.1755 15.9799 35.9362 15.8137 36.5455 15.4813C37.1549 15.1447 37.613 14.644 37.9198 13.9792C38.2267 13.3101 38.3801 12.4749 38.3801 11.4735C38.3801 10.4721 38.2267 9.64111 37.9198 8.9806C37.613 8.31583 37.1592 7.81938 36.5583 7.49126C35.9617 7.15887 35.2203 6.99268 34.3339 6.99268H32.314V15.9799ZM47.2298 18.2235C46.2455 18.2235 45.3953 18.019 44.6794 17.6099C43.9678 17.1965 43.4202 16.6127 43.0367 15.8584C42.6531 15.0999 42.4614 14.2072 42.4614 13.1802C42.4614 12.1702 42.6531 11.2839 43.0367 10.5211C43.4244 9.75404 43.9656 9.15745 44.6602 8.73131C45.3548 8.30091 46.1709 8.08572 47.1084 8.08572C47.7135 8.08572 48.2845 8.18373 48.8215 8.37975C49.3627 8.57151 49.8399 8.86981 50.2533 9.27464C50.6709 9.67947 50.999 10.1951 51.2377 10.8215C51.4763 11.4437 51.5956 12.1851 51.5956 13.0459V13.7555H43.548V12.1958H49.3776C49.3733 11.7526 49.2774 11.3584 49.0899 11.0133C48.9024 10.6638 48.6404 10.389 48.3037 10.1887C47.9713 9.98841 47.5835 9.88827 47.1404 9.88827C46.6673 9.88827 46.2519 10.0033 45.8939 10.2334C45.536 10.4593 45.2568 10.7576 45.0566 11.1283C44.8605 11.4948 44.7604 11.8975 44.7561 12.3364V13.6979C44.7561 14.269 44.8605 14.759 45.0693 15.1681C45.2781 15.5729 45.57 15.884 45.945 16.1013C46.32 16.3144 46.759 16.4209 47.2618 16.4209C47.5985 16.4209 47.9031 16.3741 48.1759 16.2803C48.4486 16.1823 48.6851 16.0396 48.8854 15.8521C49.0857 15.6646 49.2369 15.4323 49.3392 15.1553L51.4997 15.3982C51.3634 15.9692 51.1034 16.4678 50.7199 16.894C50.3406 17.3158 49.8548 17.644 49.2625 17.8783C48.6702 18.1084 47.9926 18.2235 47.2298 18.2235ZM46.156 6.92236L47.5878 4.0012H49.8506L47.8882 6.92236H46.156ZM61.3131 10.8087L59.2037 11.0388C59.1441 10.8258 59.0397 10.6255 58.8905 10.438C58.7456 10.2505 58.5496 10.0992 58.3025 9.98415C58.0553 9.8691 57.7528 9.81157 57.3948 9.81157C56.9133 9.81157 56.5084 9.91597 56.1803 10.1248C55.8564 10.3336 55.6966 10.6042 55.7009 10.9366C55.6966 11.2221 55.801 11.4543 56.0141 11.6333C56.2314 11.8123 56.5894 11.9593 57.088 12.0744L58.7627 12.4323C59.6917 12.6326 60.382 12.9501 60.8337 13.3847C61.2897 13.8194 61.5198 14.3883 61.5241 15.0914C61.5198 15.7093 61.3387 16.2547 60.9807 16.7278C60.627 17.1965 60.1349 17.563 59.5042 17.8272C58.8735 18.0914 58.1491 18.2235 57.3309 18.2235C56.1292 18.2235 55.1618 17.9721 54.4289 17.4692C53.6959 16.9621 53.2591 16.2569 53.1185 15.3535L55.3749 15.1361C55.4772 15.5793 55.6945 15.9138 56.0269 16.1397C56.3593 16.3655 56.7918 16.4785 57.3245 16.4785C57.8742 16.4785 58.3153 16.3655 58.6476 16.1397C58.9843 15.9138 59.1526 15.6347 59.1526 15.3023C59.1526 15.0211 59.0439 14.7888 58.8266 14.6056C58.6135 14.4224 58.2812 14.2817 57.8295 14.1837L56.1547 13.8322C55.213 13.6361 54.5162 13.3059 54.0645 12.8414C53.6128 12.3726 53.3891 11.7803 53.3934 11.0644C53.3891 10.4593 53.5532 9.93515 53.8856 9.49197C54.2222 9.04452 54.6888 8.69935 55.2854 8.45645C55.8863 8.2093 56.5787 8.08572 57.3628 8.08572C58.5134 8.08572 59.4189 8.33074 60.0795 8.8208C60.7442 9.31086 61.1555 9.9735 61.3131 10.8087ZM63.4321 18.0317V8.21356H65.746V18.0317H63.4321ZM64.5954 6.82009C64.229 6.82009 63.9136 6.69864 63.6494 6.45574C63.3852 6.20858 63.2531 5.91242 63.2531 5.56725C63.2531 5.21782 63.3852 4.92165 63.6494 4.67875C63.9136 4.4316 64.229 4.30802 64.5954 4.30802C64.9662 4.30802 65.2815 4.4316 65.5415 4.67875C65.8057 4.92165 65.9378 5.21782 65.9378 5.56725C65.9378 5.91242 65.8057 6.20858 65.5415 6.45574C65.2815 6.69864 64.9662 6.82009 64.5954 6.82009ZM72.3953 21.9181C71.5644 21.9181 70.8506 21.8052 70.254 21.5793C69.6574 21.3577 69.178 21.0594 68.8158 20.6844C68.4536 20.3094 68.2021 19.894 68.0615 19.438L70.1453 18.933C70.2391 19.1248 70.3754 19.3144 70.5544 19.5019C70.7334 19.6937 70.9742 19.8513 71.2767 19.9749C71.5835 20.1028 71.9692 20.1667 72.4337 20.1667C73.0899 20.1667 73.6333 20.0069 74.0637 19.6873C74.4941 19.3719 74.7093 18.8521 74.7093 18.1276V16.2675H74.5942C74.4749 16.5062 74.3002 16.7512 74.07 17.0026C73.8442 17.254 73.5438 17.465 73.1688 17.6354C72.798 17.8059 72.3314 17.8911 71.7689 17.8911C71.0146 17.8911 70.3307 17.7143 69.7171 17.3606C69.1077 17.0026 68.6219 16.4699 68.2597 15.7626C67.9017 15.0509 67.7227 14.1603 67.7227 13.0907C67.7227 12.0126 67.9017 11.1028 68.2597 10.3613C68.6219 9.61555 69.1098 9.05091 69.7235 8.66739C70.3371 8.27961 71.021 8.08572 71.7753 8.08572C72.3506 8.08572 72.8236 8.18373 73.1943 8.37975C73.5693 8.57151 73.8676 8.80375 74.0892 9.07648C74.3108 9.34495 74.4791 9.5985 74.5942 9.83714H74.722V8.21356H77.004V18.1915C77.004 19.031 76.8037 19.7256 76.4031 20.2753C76.0026 20.8251 75.455 21.2363 74.7604 21.509C74.0658 21.7817 73.2774 21.9181 72.3953 21.9181ZM72.4145 16.0758C72.9046 16.0758 73.3222 15.9565 73.6673 15.7178C74.0125 15.4792 74.2746 15.1361 74.4536 14.6887C74.6325 14.2413 74.722 13.7043 74.722 13.0779C74.722 12.46 74.6325 11.9188 74.4536 11.4543C74.2789 10.9898 74.0189 10.6297 73.6737 10.3741C73.3328 10.1141 72.9131 9.98415 72.4145 9.98415C71.8989 9.98415 71.4685 10.1184 71.1233 10.3869C70.7781 10.6553 70.5182 11.0239 70.3435 11.4927C70.1688 11.9572 70.0814 12.4856 70.0814 13.0779C70.0814 13.6788 70.1688 14.205 70.3435 14.6567C70.5225 15.1042 70.7845 15.4536 71.1297 15.705C71.4791 15.9522 71.9074 16.0758 72.4145 16.0758ZM81.6894 12.2789V18.0317H79.3754V8.21356H81.5871V9.88188H81.7021C81.928 9.33216 82.2881 8.89537 82.7824 8.57151C83.281 8.24765 83.8968 8.08572 84.6297 8.08572C85.3073 8.08572 85.8975 8.2306 86.4003 8.52037C86.9074 8.81015 87.2994 9.22989 87.5764 9.77961C87.8577 10.3293 87.9962 10.9962 87.9919 11.7803V18.0317H85.678V12.1383C85.678 11.482 85.5075 10.9685 85.1666 10.5978C84.83 10.2271 84.3634 10.0417 83.7668 10.0417C83.3619 10.0417 83.0019 10.1312 82.6865 10.3101C82.3754 10.4849 82.1304 10.7384 81.9514 11.0708C81.7767 11.4032 81.6894 11.8059 81.6894 12.2789ZM94.6908 18.2235C93.7064 18.2235 92.8563 18.019 92.1404 17.6099C91.4287 17.1965 90.8811 16.6127 90.4976 15.8584C90.1141 15.0999 89.9223 14.2072 89.9223 13.1802C89.9223 12.1702 90.1141 11.2839 90.4976 10.5211C90.8854 9.75404 91.4266 9.15745 92.1212 8.73131C92.8158 8.30091 93.6318 8.08572 94.5693 8.08572C95.1744 8.08572 95.7455 8.18373 96.2824 8.37975C96.8236 8.57151 97.3009 8.86981 97.7142 9.27464C98.1318 9.67947 98.46 10.1951 98.6986 10.8215C98.9372 11.4437 99.0566 12.1851 99.0566 13.0459V13.7555H91.009V12.1958H96.8385C96.8343 11.7526 96.7384 11.3584 96.5509 11.0133C96.3634 10.6638 96.1013 10.389 95.7646 10.1887C95.4323 9.98841 95.0445 9.88827 94.6013 9.88827C94.1283 9.88827 93.7128 10.0033 93.3548 10.2334C92.9969 10.4593 92.7178 10.7576 92.5175 11.1283C92.3215 11.4948 92.2213 11.8975 92.2171 12.3364V13.6979C92.2171 14.269 92.3215 14.759 92.5303 15.1681C92.7391 15.5729 93.031 15.884 93.406 16.1013C93.781 16.3144 94.2199 16.4209 94.7227 16.4209C95.0594 16.4209 95.3641 16.3741 95.6368 16.2803C95.9095 16.1823 96.146 16.0396 96.3463 15.8521C96.5466 15.6646 96.6979 15.4323 96.8002 15.1553L98.9607 15.3982C98.8243 15.9692 98.5644 16.4678 98.1808 16.894C97.8016 17.3158 97.3158 17.644 96.7235 17.8783C96.1311 18.1084 95.4536 18.2235 94.6908 18.2235ZM101.014 18.0317V8.21356H103.258V9.84992H103.36C103.539 9.28316 103.846 8.84637 104.28 8.53955C104.719 8.22847 105.22 8.07293 105.783 8.07293C105.91 8.07293 106.053 8.07932 106.211 8.09211C106.373 8.10063 106.507 8.11554 106.614 8.13685V10.2654C106.516 10.2313 106.36 10.2015 106.147 10.1759C105.938 10.1461 105.736 10.1312 105.54 10.1312C105.118 10.1312 104.739 10.2228 104.402 10.406C104.07 10.585 103.807 10.8343 103.616 11.1539C103.424 11.4735 103.328 11.8421 103.328 12.2597V18.0317H101.014ZM114.93 4.94083V18.0317H112.616V4.94083H114.93ZM121.656 18.2235C120.671 18.2235 119.821 18.019 119.105 17.6099C118.394 17.1965 117.846 16.6127 117.462 15.8584C117.079 15.0999 116.887 14.2072 116.887 13.1802C116.887 12.1702 117.079 11.2839 117.462 10.5211C117.85 9.75404 118.391 9.15745 119.086 8.73131C119.781 8.30091 120.597 8.08572 121.534 8.08572C122.139 8.08572 122.71 8.18373 123.247 8.37975C123.788 8.57151 124.266 8.86981 124.679 9.27464C125.097 9.67947 125.425 10.1951 125.663 10.8215C125.902 11.4437 126.021 12.1851 126.021 13.0459V13.7555H117.974V12.1958H123.803C123.799 11.7526 123.703 11.3584 123.516 11.0133C123.328 10.6638 123.066 10.389 122.729 10.1887C122.397 9.98841 122.009 9.88827 121.566 9.88827C121.093 9.88827 120.678 10.0033 120.32 10.2334C119.962 10.4593 119.683 10.7576 119.482 11.1283C119.286 11.4948 119.186 11.8975 119.182 12.3364V13.6979C119.182 14.269 119.286 14.759 119.495 15.1681C119.704 15.5729 119.996 15.884 120.371 16.1013C120.746 16.3144 121.185 16.4209 121.688 16.4209C122.024 16.4209 122.329 16.3741 122.602 16.2803C122.874 16.1823 123.111 16.0396 123.311 15.8521C123.511 15.6646 123.663 15.4323 123.765 15.1553L125.926 15.3982C125.789 15.9692 125.529 16.4678 125.146 16.894C124.766 17.3158 124.281 17.644 123.688 17.8783C123.096 18.1084 122.418 18.2235 121.656 18.2235ZM132.444 18.0317V8.21356H134.655V9.88188H134.771C134.975 9.31938 135.314 8.88046 135.787 8.56512C136.26 8.24552 136.824 8.08572 137.481 8.08572C138.146 8.08572 138.706 8.24765 139.162 8.57151C139.622 8.89111 139.946 9.3279 140.133 9.88188H140.236C140.453 9.33643 140.82 8.90177 141.335 8.5779C141.855 8.24978 142.471 8.08572 143.182 8.08572C144.086 8.08572 144.823 8.37123 145.394 8.94225C145.965 9.51327 146.251 10.3464 146.251 11.4415V18.0317H143.93V11.7995C143.93 11.1901 143.768 10.7448 143.445 10.4636C143.121 10.178 142.724 10.0353 142.256 10.0353C141.697 10.0353 141.261 10.21 140.945 10.5594C140.634 10.9046 140.479 11.3542 140.479 11.9082V18.0317H138.209V11.7036C138.209 11.1965 138.056 10.7917 137.749 10.4891C137.447 10.1866 137.05 10.0353 136.56 10.0353C136.228 10.0353 135.925 10.1205 135.653 10.291C135.38 10.4572 135.163 10.6937 135.001 11.0005C134.839 11.303 134.758 11.6567 134.758 12.0616V18.0317H132.444ZM151.423 18.2299C150.801 18.2299 150.241 18.1191 149.742 17.8975C149.248 17.6717 148.856 17.3393 148.566 16.9003C148.281 16.4614 148.138 15.9202 148.138 15.2768C148.138 14.7228 148.24 14.2647 148.445 13.9025C148.649 13.5403 148.928 13.2505 149.282 13.0332C149.636 12.8158 150.034 12.6518 150.477 12.541C150.925 12.4259 151.387 12.3428 151.864 12.2917C152.44 12.232 152.906 12.1788 153.264 12.1319C153.622 12.0807 153.882 12.004 154.044 11.9018C154.21 11.7952 154.293 11.6312 154.293 11.4096V11.3712C154.293 10.8897 154.151 10.5168 153.865 10.2526C153.58 9.98841 153.168 9.85631 152.631 9.85631C152.065 9.85631 151.615 9.97989 151.283 10.2271C150.955 10.4742 150.733 10.7661 150.618 11.1028L148.457 10.7959C148.628 10.1994 148.909 9.70077 149.301 9.3002C149.693 8.89537 150.173 8.59282 150.739 8.39253C151.306 8.18799 151.933 8.08572 152.619 8.08572C153.092 8.08572 153.563 8.14111 154.031 8.25191C154.5 8.3627 154.928 8.54594 155.316 8.80162C155.704 9.05304 156.015 9.39608 156.249 9.83074C156.488 10.2654 156.607 10.8087 156.607 11.4607V18.0317H154.383V16.683H154.306C154.166 16.9557 153.967 17.2114 153.712 17.4501C153.46 17.6844 153.143 17.8741 152.759 18.019C152.38 18.1596 151.935 18.2299 151.423 18.2299ZM152.024 16.5296C152.489 16.5296 152.891 16.438 153.232 16.2547C153.573 16.0672 153.835 15.8201 154.019 15.5133C154.206 15.2065 154.3 14.8719 154.3 14.5097V13.3528C154.227 13.4124 154.104 13.4678 153.929 13.519C153.759 13.5701 153.567 13.6148 153.354 13.6532C153.141 13.6915 152.93 13.7256 152.721 13.7555C152.512 13.7853 152.331 13.8109 152.178 13.8322C151.832 13.879 151.524 13.9557 151.251 14.0623C150.978 14.1688 150.763 14.318 150.605 14.5097C150.448 14.6972 150.369 14.9401 150.369 15.2384C150.369 15.6646 150.524 15.9863 150.835 16.2036C151.146 16.4209 151.543 16.5296 152.024 16.5296ZM158.934 18.0317V8.21356H161.248V18.0317H158.934ZM160.097 6.82009C159.731 6.82009 159.416 6.69864 159.151 6.45574C158.887 6.20858 158.755 5.91242 158.755 5.56725C158.755 5.21782 158.887 4.92165 159.151 4.67875C159.416 4.4316 159.731 4.30802 160.097 4.30802C160.468 4.30802 160.783 4.4316 161.043 4.67875C161.308 4.92165 161.44 5.21782 161.44 5.56725C161.44 5.91242 161.308 6.20858 161.043 6.45574C160.783 6.69864 160.468 6.82009 160.097 6.82009ZM163.627 18.0317V8.21356H165.871V9.84992H165.973C166.152 9.28316 166.459 8.84637 166.894 8.53955C167.333 8.22847 167.833 8.07293 168.396 8.07293C168.524 8.07293 168.666 8.07932 168.824 8.09211C168.986 8.10063 169.12 8.11554 169.227 8.13685V10.2654C169.129 10.2313 168.973 10.2015 168.76 10.1759C168.551 10.1461 168.349 10.1312 168.153 10.1312C167.731 10.1312 167.352 10.2228 167.015 10.406C166.683 10.585 166.421 10.8343 166.229 11.1539C166.037 11.4735 165.941 11.8421 165.941 12.2597V18.0317H163.627ZM174.706 18.2235C173.722 18.2235 172.872 18.019 172.156 17.6099C171.444 17.1965 170.897 16.6127 170.513 15.8584C170.13 15.0999 169.938 14.2072 169.938 13.1802C169.938 12.1702 170.13 11.2839 170.513 10.5211C170.901 9.75404 171.442 9.15745 172.137 8.73131C172.831 8.30091 173.647 8.08572 174.585 8.08572C175.19 8.08572 175.761 8.18373 176.298 8.37975C176.839 8.57151 177.316 8.86981 177.73 9.27464C178.147 9.67947 178.476 10.1951 178.714 10.8215C178.953 11.4437 179.072 12.1851 179.072 13.0459V13.7555H171.025V12.1958H176.854C176.85 11.7526 176.754 11.3584 176.566 11.0133C176.379 10.6638 176.117 10.389 175.78 10.1887C175.448 9.98841 175.06 9.88827 174.617 9.88827C174.144 9.88827 173.728 10.0033 173.37 10.2334C173.013 10.4593 172.733 10.7576 172.533 11.1283C172.337 11.4948 172.237 11.8975 172.233 12.3364V13.6979C172.233 14.269 172.337 14.759 172.546 15.1681C172.755 15.5729 173.047 15.884 173.422 16.1013C173.797 16.3144 174.236 16.4209 174.738 16.4209C175.075 16.4209 175.38 16.3741 175.652 16.2803C175.925 16.1823 176.162 16.0396 176.362 15.8521C176.562 15.6646 176.714 15.4323 176.816 15.1553L178.976 15.3982C178.84 15.9692 178.58 16.4678 178.196 16.894C177.817 17.3158 177.331 17.644 176.739 17.8783C176.147 18.1084 175.469 18.2235 174.706 18.2235Z" fill="#61646B"/>
<path d="M16.4562 10.2413L15.7965 9.0999C15.7356 8.99641 15.649 8.91061 15.5445 8.85101C15.4853 8.81723 15.4219 8.79253 15.3558 8.77746C15.3057 8.76594 15.2543 8.76006 15.202 8.76006C15.0819 8.76006 14.9641 8.7914 14.8599 8.85101C14.7553 8.91061 14.6683 8.99641 14.6074 9.0999L13.9263 10.25C13.8783 10.3353 13.8123 10.4091 13.733 10.4661C13.6532 10.5231 13.5624 10.5619 13.4659 10.5799L12.1641 10.8359C12.0462 10.8577 11.9369 10.9108 11.8469 10.9897C11.7929 11.0372 11.747 11.093 11.711 11.1547C11.687 11.1955 11.6677 11.2389 11.6531 11.2842C11.6158 11.398 11.6107 11.5197 11.6373 11.6364C11.6638 11.753 11.7213 11.8604 11.804 11.947L12.7153 12.9105C12.7818 12.9804 12.8315 13.0642 12.8615 13.1558C12.8915 13.2473 12.9009 13.3444 12.8889 13.44L12.7325 14.742C12.72 14.8626 12.7398 14.9844 12.7899 15.0948C12.8396 15.2052 12.9185 15.3002 13.0175 15.3701C13.1166 15.44 13.2327 15.4822 13.3532 15.4923C13.474 15.5025 13.5954 15.4802 13.7047 15.4278L14.9242 14.8766C14.9551 14.8627 14.9868 14.8511 15.0189 14.8418C15.0811 14.8239 15.1458 14.8147 15.211 14.8147C15.3096 14.8147 15.4073 14.8358 15.4973 14.8766L16.7168 15.4278C16.8257 15.478 16.9462 15.4986 17.0658 15.4875C17.1849 15.4763 17.2994 15.4338 17.3975 15.3642C17.4953 15.2946 17.5729 15.2004 17.6226 15.0912C17.6449 15.0418 17.6612 14.9901 17.6714 14.9373C17.6839 14.8732 17.6869 14.8075 17.6804 14.742L17.524 13.44C17.5171 13.3856 17.5176 13.3308 17.5244 13.2767C17.5296 13.2357 17.5386 13.1952 17.5514 13.1558C17.5814 13.0642 17.6312 12.9804 17.6976 12.9105L18.6089 11.947C18.6569 11.8962 18.6968 11.8383 18.7268 11.7756C18.7482 11.7308 18.7645 11.6834 18.7752 11.6345C18.8014 11.5172 18.795 11.3951 18.7572 11.281C18.7379 11.2231 18.7109 11.1683 18.6771 11.1182C18.6441 11.0697 18.6051 11.0255 18.5605 10.987C18.4692 10.9086 18.3586 10.8564 18.2403 10.8359L16.9166 10.5712C16.8201 10.5532 16.7293 10.5144 16.65 10.4574C16.5702 10.4004 16.5042 10.3266 16.4562 10.2413Z" fill="#61646B"/>
<path fill-rule="evenodd" clip-rule="evenodd" d="M7.15437 11.9963C7.15437 12.3882 7.02964 12.7976 6.90618 13.2024C6.74158 13.7434 6.57912 14.2762 6.72058 14.748C6.86503 15.2298 7.33698 15.5812 7.8085 15.932C8.14371 16.1817 8.47849 16.4311 8.69496 16.7271C8.90929 17.0202 9.04303 17.4017 9.17763 17.7857C9.36967 18.3341 9.56342 18.8877 9.99722 19.1966C10.4349 19.5082 11.0179 19.5142 11.5983 19.5201C11.996 19.5242 12.3926 19.5282 12.7402 19.6306C13.1058 19.7383 13.4419 19.9849 13.7788 20.2319C14.2298 20.5623 14.6816 20.8936 15.2054 20.8936C15.7459 20.8936 16.2273 20.555 16.7005 20.2221C17.0293 19.9909 17.3542 19.7626 17.692 19.6523C18.0392 19.539 18.4542 19.5319 18.8713 19.5247C19.4448 19.5148 20.0231 19.5048 20.435 19.2183C20.8474 18.9317 21.0368 18.3948 21.2289 17.8512C21.3682 17.4561 21.5088 17.0575 21.7372 16.7488C21.9623 16.4443 22.2885 16.1988 22.613 15.9548C23.0699 15.6109 23.5235 15.2697 23.6859 14.7697C23.8471 14.2729 23.6821 13.7336 23.5153 13.1894C23.3949 12.7969 23.2736 12.4017 23.2736 12.018C23.2736 11.6317 23.3949 11.2284 23.5149 10.8292C23.6795 10.2822 23.8415 9.74314 23.6859 9.26641C23.5286 8.78453 23.0601 8.42567 22.5937 8.06856C22.2624 7.81456 21.9319 7.56147 21.7154 7.26563C21.5011 6.97244 21.3673 6.59089 21.2331 6.20681C21.0411 5.65845 20.8474 5.10495 20.4136 4.7961C19.9759 4.48447 19.3925 4.4785 18.8121 4.47256C18.4147 4.46849 18.0182 4.46443 17.6706 4.36209C17.3045 4.25439 16.968 4.00768 16.6311 3.76062C16.1806 3.43019 15.7292 3.09912 15.2054 3.09912C14.6653 3.09912 14.1839 3.43759 13.7102 3.77038C13.3815 4.0016 13.0565 4.23008 12.7183 4.34039C12.3715 4.45365 11.9566 4.4608 11.5395 4.46799C10.966 4.47789 10.3877 4.48787 9.97536 4.7744C9.56342 5.06099 9.37353 5.59801 9.18149 6.14175C9.04218 6.53675 8.90158 6.9353 8.67353 7.24393C8.44849 7.54833 8.12228 7.79368 7.79779 8.03768C7.34084 8.38161 6.88732 8.72285 6.72486 9.22301C6.56369 9.71884 6.73386 10.2643 6.90533 10.8137C7.02964 11.2116 7.15437 11.6117 7.15437 11.9963ZM15.2058 6.20935C11.9373 6.20935 9.2878 8.85894 9.2878 12.1274C9.2878 15.3958 11.9373 18.0454 15.2058 18.0454C18.4743 18.0454 21.1238 15.3958 21.1238 12.1274C21.1238 8.85894 18.4743 6.20935 15.2058 6.20935Z" fill="#61646B"/>
</svg>
