<svg width="152" height="25" viewBox="0 0 152 25" fill="none" xmlns="http://www.w3.org/2000/svg">
<rect x="0.0585938" y="0.174316" width="151.521" height="24.0516" rx="5" fill="#9BE379"/>
<path d="M29.3 18.1743V5.08341H37.6863V7.07133H31.6714V10.6253H37.1111V12.6132H31.6714V18.1743H29.3ZM43.3066 18.3661C42.3477 18.3661 41.5168 18.1551 40.8137 17.7333C40.1105 17.3114 39.5651 16.7212 39.1773 15.9627C38.7938 15.2041 38.602 14.3178 38.602 13.3036C38.602 12.2894 38.7938 11.4009 39.1773 10.6381C39.5651 9.87531 40.1105 9.28298 40.8137 8.86111C41.5168 8.43923 42.3477 8.22829 43.3066 8.22829C44.2654 8.22829 45.0963 8.43923 45.7994 8.86111C46.5026 9.28298 47.0459 9.87531 47.4294 10.6381C47.8172 11.4009 48.0111 12.2894 48.0111 13.3036C48.0111 14.3178 47.8172 15.2041 47.4294 15.9627C47.0459 16.7212 46.5026 17.3114 45.7994 17.7333C45.0963 18.1551 44.2654 18.3661 43.3066 18.3661ZM43.3193 16.5124C43.8392 16.5124 44.2739 16.3696 44.6233 16.0841C44.9727 15.7943 45.2327 15.4066 45.4031 14.9208C45.5779 14.435 45.6652 13.8938 45.6652 13.2972C45.6652 12.6963 45.5779 12.153 45.4031 11.6672C45.2327 11.1772 44.9727 10.7872 44.6233 10.4975C44.2739 10.2077 43.8392 10.0628 43.3193 10.0628C42.7867 10.0628 42.3435 10.2077 41.9898 10.4975C41.6404 10.7872 41.3783 11.1772 41.2036 11.6672C41.0331 12.153 40.9479 12.6963 40.9479 13.2972C40.9479 13.8938 41.0331 14.435 41.2036 14.9208C41.3783 15.4066 41.6404 15.7943 41.9898 16.0841C42.3435 16.3696 42.7867 16.5124 43.3193 16.5124ZM49.9751 18.1743V8.35613H52.2187V9.9925H52.3209C52.4999 9.42574 52.8067 8.98895 53.2414 8.68213C53.6803 8.37105 54.181 8.21551 54.7435 8.21551C54.8714 8.21551 55.0141 8.2219 55.1718 8.23468C55.3337 8.24321 55.468 8.25812 55.5745 8.27943V10.408C55.4765 10.3739 55.3209 10.3441 55.1079 10.3185C54.8991 10.2887 54.6966 10.2737 54.5006 10.2737C54.0787 10.2737 53.6995 10.3654 53.3628 10.5486C53.0305 10.7276 52.7684 10.9769 52.5766 11.2965C52.3849 11.6161 52.289 11.9847 52.289 12.4023V18.1743H49.9751ZM60.9901 18.3661C60.01 18.3661 59.1684 18.1509 58.4653 17.7205C57.7664 17.2901 57.2274 16.6956 56.8481 15.9371C56.4731 15.1743 56.2856 14.2965 56.2856 13.3036C56.2856 12.3064 56.4774 11.4264 56.8609 10.6637C57.2444 9.89662 57.7856 9.30003 58.4845 8.87389C59.1876 8.44349 60.0186 8.22829 60.9774 8.22829C61.7742 8.22829 62.4795 8.37531 63.0931 8.66934C63.711 8.95912 64.2032 9.37034 64.5697 9.90301C64.9362 10.4314 65.145 11.0493 65.1961 11.7567H62.9845C62.895 11.2837 62.6819 10.8895 62.3453 10.5742C62.0129 10.2546 61.5676 10.0948 61.0093 10.0948C60.5363 10.0948 60.1208 10.2226 59.7629 10.4783C59.4049 10.7297 59.1258 11.0919 58.9255 11.5649C58.7295 12.038 58.6315 12.6047 58.6315 13.2652C58.6315 13.9343 58.7295 14.5095 58.9255 14.9911C59.1215 15.4684 59.3964 15.837 59.7501 16.0969C60.108 16.3526 60.5278 16.4804 61.0093 16.4804C61.3502 16.4804 61.6549 16.4165 61.9234 16.2887C62.1961 16.1566 62.4241 15.9669 62.6073 15.7198C62.7906 15.4726 62.9163 15.1722 62.9845 14.8185H65.1961C65.1407 15.5131 64.9362 16.1289 64.5825 16.6658C64.2288 17.1985 63.7472 17.6161 63.1379 17.9186C62.5285 18.2169 61.8126 18.3661 60.9901 18.3661ZM71.4427 18.3661C70.4584 18.3661 69.6082 18.1615 68.8923 17.7524C68.1807 17.3391 67.6331 16.7553 67.2496 16.001C66.866 15.2425 66.6743 14.3497 66.6743 13.3228C66.6743 12.3128 66.866 11.4264 67.2496 10.6637C67.6373 9.89662 68.1785 9.30003 68.8731 8.87389C69.5677 8.44349 70.3838 8.22829 71.3213 8.22829C71.9264 8.22829 72.4974 8.3263 73.0344 8.52233C73.5756 8.71409 74.0528 9.01238 74.4662 9.41721C74.8838 9.82204 75.2119 10.3377 75.4506 10.9641C75.6892 11.5862 75.8085 12.3277 75.8085 13.1885V13.898H67.7609V12.3384H73.5905C73.5862 11.8952 73.4903 11.501 73.3028 11.1559C73.1153 10.8064 72.8532 10.5316 72.5166 10.3313C72.1842 10.131 71.7964 10.0309 71.3532 10.0309C70.8802 10.0309 70.4648 10.1459 70.1068 10.376C69.7488 10.6019 69.4697 10.9002 69.2694 11.2709C69.0734 11.6374 68.9733 12.0401 68.969 12.479V13.8405C68.969 14.4115 69.0734 14.9016 69.2822 15.3107C69.491 15.7155 69.7829 16.0266 70.1579 16.2439C70.5329 16.457 70.9719 16.5635 71.4747 16.5635C71.8113 16.5635 72.116 16.5166 72.3888 16.4229C72.6615 16.3249 72.898 16.1821 73.0983 15.9946C73.2986 15.8071 73.4498 15.5749 73.5521 15.2979L75.7126 15.5408C75.5763 16.1118 75.3163 16.6104 74.9328 17.0365C74.5535 17.4584 74.0677 17.7865 73.4754 18.0209C72.8831 18.251 72.2055 18.3661 71.4427 18.3661ZM77.7661 18.1743V8.35613H80.0097V9.9925H80.1119C80.2909 9.42574 80.5977 8.98895 81.0324 8.68213C81.4713 8.37105 81.972 8.21551 82.5345 8.21551C82.6624 8.21551 82.8051 8.2219 82.9628 8.23468C83.1247 8.24321 83.259 8.25812 83.3655 8.27943V10.408C83.2675 10.3739 83.1119 10.3441 82.8989 10.3185C82.6901 10.2887 82.4877 10.2737 82.2916 10.2737C81.8698 10.2737 81.4905 10.3654 81.1539 10.5486C80.8215 10.7276 80.5594 10.9769 80.3676 11.2965C80.1759 11.6161 80.08 11.9847 80.08 12.4023V18.1743H77.7661ZM91.6816 5.08341V18.1743H89.3676V5.08341H91.6816ZM98.4076 18.3661C97.4232 18.3661 96.5731 18.1615 95.8572 17.7524C95.1455 17.3391 94.5979 16.7553 94.2144 16.001C93.8309 15.2425 93.6391 14.3497 93.6391 13.3228C93.6391 12.3128 93.8309 11.4264 94.2144 10.6637C94.6022 9.89662 95.1434 9.30003 95.838 8.87389C96.5326 8.44349 97.3486 8.22829 98.2861 8.22829C98.8912 8.22829 99.4623 8.3263 99.9992 8.52233C100.54 8.71409 101.018 9.01238 101.431 9.41721C101.849 9.82204 102.177 10.3377 102.415 10.9641C102.654 11.5862 102.773 12.3277 102.773 13.1885V13.898H94.7258V12.3384H100.555C100.551 11.8952 100.455 11.501 100.268 11.1559C100.08 10.8064 99.8181 10.5316 99.4814 10.3313C99.1491 10.131 98.7613 10.0309 98.3181 10.0309C97.8451 10.0309 97.4296 10.1459 97.0716 10.376C96.7137 10.6019 96.4346 10.9002 96.2343 11.2709C96.0383 11.6374 95.9381 12.0401 95.9339 12.479V13.8405C95.9339 14.4115 96.0383 14.9016 96.2471 15.3107C96.4559 15.7155 96.7478 16.0266 97.1228 16.2439C97.4978 16.457 97.9367 16.5635 98.4395 16.5635C98.7762 16.5635 99.0809 16.5166 99.3536 16.4229C99.6263 16.3249 99.8628 16.1821 100.063 15.9946C100.263 15.8071 100.415 15.5749 100.517 15.2979L102.677 15.5408C102.541 16.1118 102.281 16.6104 101.898 17.0365C101.518 17.4584 101.033 17.7865 100.44 18.0209C99.8479 18.251 99.1704 18.3661 98.4076 18.3661ZM117.966 8.35613L114.469 18.1743H111.912L108.416 8.35613H110.883L113.14 15.6495H113.242L115.505 8.35613H117.966ZM123.516 18.3661C122.557 18.3661 121.726 18.1551 121.023 17.7333C120.32 17.3114 119.774 16.7212 119.386 15.9627C119.003 15.2041 118.811 14.3178 118.811 13.3036C118.811 12.2894 119.003 11.4009 119.386 10.6381C119.774 9.87531 120.32 9.28298 121.023 8.86111C121.726 8.43923 122.557 8.22829 123.516 8.22829C124.474 8.22829 125.305 8.43923 126.008 8.86111C126.712 9.28298 127.255 9.87531 127.638 10.6381C128.026 11.4009 128.22 12.2894 128.22 13.3036C128.22 14.3178 128.026 15.2041 127.638 15.9627C127.255 16.7212 126.712 17.3114 126.008 17.7333C125.305 18.1551 124.474 18.3661 123.516 18.3661ZM123.528 16.5124C124.048 16.5124 124.483 16.3696 124.832 16.0841C125.182 15.7943 125.442 15.4066 125.612 14.9208C125.787 14.435 125.874 13.8938 125.874 13.2972C125.874 12.6963 125.787 12.153 125.612 11.6672C125.442 11.1772 125.182 10.7872 124.832 10.4975C124.483 10.2077 124.048 10.0628 123.528 10.0628C122.996 10.0628 122.552 10.2077 122.199 10.4975C121.849 10.7872 121.587 11.1772 121.413 11.6672C121.242 12.153 121.157 12.6963 121.157 13.2972C121.157 13.8938 121.242 14.435 121.413 14.9208C121.587 15.4066 121.849 15.7943 122.199 16.0841C122.552 16.3696 122.996 16.5124 123.528 16.5124ZM135.087 8.35613V10.1459H129.443V8.35613H135.087ZM130.836 6.00386H133.15V15.2212C133.15 15.5323 133.197 15.7709 133.291 15.9371C133.389 16.099 133.516 16.2098 133.674 16.2695C133.832 16.3291 134.006 16.359 134.198 16.359C134.343 16.359 134.475 16.3483 134.595 16.327C134.718 16.3057 134.812 16.2865 134.876 16.2695L135.266 18.0784C135.142 18.121 134.965 18.1679 134.735 18.2191C134.509 18.2702 134.232 18.3 133.904 18.3085C133.325 18.3256 132.803 18.2382 132.338 18.0465C131.874 17.8505 131.505 17.5479 131.232 17.1388C130.964 16.7297 130.832 16.2184 130.836 15.6047V6.00386ZM141.263 18.3661C140.279 18.3661 139.429 18.1615 138.713 17.7524C138.001 17.3391 137.453 16.7553 137.07 16.001C136.686 15.2425 136.495 14.3497 136.495 13.3228C136.495 12.3128 136.686 11.4264 137.07 10.6637C137.458 9.89662 137.999 9.30003 138.693 8.87389C139.388 8.44349 140.204 8.22829 141.142 8.22829C141.747 8.22829 142.318 8.3263 142.855 8.52233C143.396 8.71409 143.873 9.01238 144.286 9.41721C144.704 9.82204 145.032 10.3377 145.271 10.9641C145.509 11.5862 145.629 12.3277 145.629 13.1885V13.898H137.581V12.3384H143.411C143.407 11.8952 143.311 11.501 143.123 11.1559C142.936 10.8064 142.674 10.5316 142.337 10.3313C142.005 10.131 141.617 10.0309 141.174 10.0309C140.701 10.0309 140.285 10.1459 139.927 10.376C139.569 10.6019 139.29 10.9002 139.09 11.2709C138.894 11.6374 138.794 12.0401 138.789 12.479V13.8405C138.789 14.4115 138.894 14.9016 139.103 15.3107C139.311 15.7155 139.603 16.0266 139.978 16.2439C140.353 16.457 140.792 16.5635 141.295 16.5635C141.632 16.5635 141.936 16.5166 142.209 16.4229C142.482 16.3249 142.718 16.1821 142.919 15.9946C143.119 15.8071 143.27 15.5749 143.372 15.2979L145.533 15.5408C145.397 16.1118 145.137 16.6104 144.753 17.0365C144.374 17.4584 143.888 17.7865 143.296 18.0209C142.703 18.251 142.026 18.3661 141.263 18.3661Z" fill="#061F31"/>
<path d="M24.2719 8.9853C24.1962 8.80248 24.0509 8.65725 23.8681 8.58155L11.1135 3.2986C10.7332 3.14113 10.2965 3.32167 10.1388 3.70234L4.85568 16.457C4.77988 16.6398 4.77988 16.8451 4.85568 17.028C4.93137 17.2108 5.0766 17.356 5.25942 17.4317L13.8242 20.9793C13.9156 21.0171 14.0127 21.0361 14.1097 21.0361C14.2068 21.0361 14.3037 21.0172 14.3952 20.9793L20.3202 18.5248C20.503 18.4491 20.6483 18.3039 20.724 18.121L24.2718 9.55616C24.3475 9.37354 24.3475 9.16813 24.2719 8.9853ZM15.4883 18.9115L16.249 17.075L18.0854 17.8357L15.4883 18.9115ZM19.6311 16.8608L16.1307 15.411C15.7504 15.2535 15.3137 15.4341 15.156 15.8147L13.706 19.3154L6.51951 16.3387L11.2318 4.96253L22.6079 9.67453L19.6311 16.8608Z" fill="#061F31"/>
<path d="M18.0656 12.1264L17.4945 10.748L13.6745 12.3308L13.0259 10.7651L11.6475 11.3361L12.867 14.2803L18.0656 12.1264Z" fill="#061F31"/>
</svg>
