<svg width="186" height="25" viewBox="0 0 186 25" fill="none" xmlns="http://www.w3.org/2000/svg">
<rect x="0.795898" y="0.0317383" width="184.258" height="24.0516" rx="5" fill="#F4CE7B"/>
<path d="M34.4734 18.0317H30.0373V4.94083H34.5629C35.8626 4.94083 36.979 5.2029 37.9123 5.72705C38.8498 6.24694 39.57 6.99481 40.0728 7.97066C40.5756 8.94651 40.8271 10.1141 40.8271 11.4735C40.8271 12.8371 40.5735 14.009 40.0664 14.9891C39.5636 15.9692 38.837 16.7214 37.8867 17.2455C36.9407 17.7697 35.8029 18.0317 34.4734 18.0317ZM32.4087 15.9799H34.3583C35.2702 15.9799 36.0309 15.8137 36.6403 15.4813C37.2496 15.1447 37.7077 14.644 38.0146 13.9792C38.3214 13.3101 38.4748 12.4749 38.4748 11.4735C38.4748 10.4721 38.3214 9.64111 38.0146 8.9806C37.7077 8.31583 37.2539 7.81938 36.6531 7.49126C36.0565 7.15887 35.315 6.99268 34.4286 6.99268H32.4087V15.9799ZM47.3246 18.2235C46.3402 18.2235 45.4901 18.019 44.7741 17.6099C44.0625 17.1965 43.5149 16.6127 43.1314 15.8584C42.7479 15.0999 42.5561 14.2072 42.5561 13.1802C42.5561 12.1702 42.7479 11.2839 43.1314 10.5211C43.5192 9.75404 44.0604 9.15745 44.755 8.73131C45.4496 8.30091 46.2656 8.08572 47.2031 8.08572C47.8082 8.08572 48.3793 8.18373 48.9162 8.37975C49.4574 8.57151 49.9347 8.86981 50.348 9.27464C50.7656 9.67947 51.0938 10.1951 51.3324 10.8215C51.571 11.4437 51.6903 12.1851 51.6903 13.0459V13.7555H43.6428V12.1958H49.4723C49.468 11.7526 49.3722 11.3584 49.1847 11.0133C48.9972 10.6638 48.7351 10.389 48.3984 10.1887C48.0661 9.98841 47.6783 9.88827 47.2351 9.88827C46.7621 9.88827 46.3466 10.0033 45.9886 10.2334C45.6307 10.4593 45.3516 10.7576 45.1513 11.1283C44.9553 11.4948 44.8551 11.8975 44.8509 12.3364V13.6979C44.8509 14.269 44.9553 14.759 45.1641 15.1681C45.3729 15.5729 45.6648 15.884 46.0398 16.1013C46.4148 16.3144 46.8537 16.4209 47.3565 16.4209C47.6932 16.4209 47.9979 16.3741 48.2706 16.2803C48.5433 16.1823 48.7798 16.0396 48.9801 15.8521C49.1804 15.6646 49.3317 15.4323 49.4339 15.1553L51.5945 15.3982C51.4581 15.9692 51.1982 16.4678 50.8146 16.894C50.4354 17.3158 49.9496 17.644 49.3572 17.8783C48.7649 18.1084 48.0874 18.2235 47.3246 18.2235ZM46.2507 6.92236L47.6825 4.0012H49.9453L47.983 6.92236H46.2507ZM61.4078 10.8087L59.2985 11.0388C59.2388 10.8258 59.1344 10.6255 58.9853 10.438C58.8404 10.2505 58.6444 10.0992 58.3972 9.98415C58.15 9.8691 57.8475 9.81157 57.4895 9.81157C57.008 9.81157 56.6032 9.91597 56.275 10.1248C55.9512 10.3336 55.7914 10.6042 55.7956 10.9366C55.7914 11.2221 55.8958 11.4543 56.1088 11.6333C56.3262 11.8123 56.6841 11.9593 57.1827 12.0744L58.8574 12.4323C59.7864 12.6326 60.4767 12.9501 60.9284 13.3847C61.3844 13.8194 61.6145 14.3883 61.6188 15.0914C61.6145 15.7093 61.4334 16.2547 61.0755 16.7278C60.7218 17.1965 60.2296 17.563 59.5989 17.8272C58.9682 18.0914 58.2438 18.2235 57.4256 18.2235C56.2239 18.2235 55.2566 17.9721 54.5236 17.4692C53.7907 16.9621 53.3539 16.2569 53.2132 15.3535L55.4696 15.1361C55.5719 15.5793 55.7892 15.9138 56.1216 16.1397C56.454 16.3655 56.8865 16.4785 57.4192 16.4785C57.9689 16.4785 58.41 16.3655 58.7424 16.1397C59.079 15.9138 59.2473 15.6347 59.2473 15.3023C59.2473 15.0211 59.1387 14.7888 58.9213 14.6056C58.7083 14.4224 58.3759 14.2817 57.9242 14.1837L56.2495 13.8322C55.3077 13.6361 54.611 13.3059 54.1593 12.8414C53.7076 12.3726 53.4838 11.7803 53.4881 11.0644C53.4838 10.4593 53.6479 9.93515 53.9803 9.49197C54.3169 9.04452 54.7836 8.69935 55.3801 8.45645C55.981 8.2093 56.6735 8.08572 57.4576 8.08572C58.6081 8.08572 59.5137 8.33074 60.1742 8.8208C60.839 9.31086 61.2502 9.9735 61.4078 10.8087ZM63.5268 18.0317V8.21356H65.8407V18.0317H63.5268ZM64.6902 6.82009C64.3237 6.82009 64.0083 6.69864 63.7441 6.45574C63.4799 6.20858 63.3478 5.91242 63.3478 5.56725C63.3478 5.21782 63.4799 4.92165 63.7441 4.67875C64.0083 4.4316 64.3237 4.30802 64.6902 4.30802C65.0609 4.30802 65.3762 4.4316 65.6362 4.67875C65.9004 4.92165 66.0325 5.21782 66.0325 5.56725C66.0325 5.91242 65.9004 6.20858 65.6362 6.45574C65.3762 6.69864 65.0609 6.82009 64.6902 6.82009ZM72.4901 21.9181C71.6591 21.9181 70.9453 21.8052 70.3487 21.5793C69.7521 21.3577 69.2727 21.0594 68.9105 20.6844C68.5483 20.3094 68.2969 19.894 68.1562 19.438L70.2401 18.933C70.3338 19.1248 70.4702 19.3144 70.6491 19.5019C70.8281 19.6937 71.0689 19.8513 71.3714 19.9749C71.6783 20.1028 72.0639 20.1667 72.5284 20.1667C73.1847 20.1667 73.728 20.0069 74.1584 19.6873C74.5888 19.3719 74.804 18.8521 74.804 18.1276V16.2675H74.6889C74.5696 16.5062 74.3949 16.7512 74.1648 17.0026C73.9389 17.254 73.6385 17.465 73.2635 17.6354C72.8928 17.8059 72.4261 17.8911 71.8636 17.8911C71.1094 17.8911 70.4254 17.7143 69.8118 17.3606C69.2024 17.0026 68.7166 16.4699 68.3544 15.7626C67.9964 15.0509 67.8175 14.1603 67.8175 13.0907C67.8175 12.0126 67.9964 11.1028 68.3544 10.3613C68.7166 9.61555 69.2045 9.05091 69.8182 8.66739C70.4318 8.27961 71.1158 8.08572 71.87 8.08572C72.4453 8.08572 72.9183 8.18373 73.2891 8.37975C73.6641 8.57151 73.9624 8.80375 74.1839 9.07648C74.4055 9.34495 74.5739 9.5985 74.6889 9.83714H74.8168V8.21356H77.0987V18.1915C77.0987 19.031 76.8984 19.7256 76.4979 20.2753C76.0973 20.8251 75.5497 21.2363 74.8551 21.509C74.1605 21.7817 73.3722 21.9181 72.4901 21.9181ZM72.5092 16.0758C72.9993 16.0758 73.4169 15.9565 73.7621 15.7178C74.1072 15.4792 74.3693 15.1361 74.5483 14.6887C74.7273 14.2413 74.8168 13.7043 74.8168 13.0779C74.8168 12.46 74.7273 11.9188 74.5483 11.4543C74.3736 10.9898 74.1136 10.6297 73.7685 10.3741C73.4276 10.1141 73.0078 9.98415 72.5092 9.98415C71.9936 9.98415 71.5632 10.1184 71.218 10.3869C70.8729 10.6553 70.6129 11.0239 70.4382 11.4927C70.2635 11.9572 70.1761 12.4856 70.1761 13.0779C70.1761 13.6788 70.2635 14.205 70.4382 14.6567C70.6172 15.1042 70.8793 15.4536 71.2244 15.705C71.5739 15.9522 72.0021 16.0758 72.5092 16.0758ZM81.7841 12.2789V18.0317H79.4702V8.21356H81.6818V9.88188H81.7969C82.0227 9.33216 82.3828 8.89537 82.8771 8.57151C83.3757 8.24765 83.9915 8.08572 84.7244 8.08572C85.402 8.08572 85.9922 8.2306 86.495 8.52037C87.0021 8.81015 87.3942 9.22989 87.6712 9.77961C87.9524 10.3293 88.0909 10.9962 88.0866 11.7803V18.0317H85.7727V12.1383C85.7727 11.482 85.6023 10.9685 85.2614 10.5978C84.9247 10.2271 84.4581 10.0417 83.8615 10.0417C83.4567 10.0417 83.0966 10.1312 82.7812 10.3101C82.4702 10.4849 82.2251 10.7384 82.0462 11.0708C81.8714 11.4032 81.7841 11.8059 81.7841 12.2789ZM94.7855 18.2235C93.8011 18.2235 92.951 18.019 92.2351 17.6099C91.5234 17.1965 90.9759 16.6127 90.5923 15.8584C90.2088 15.0999 90.017 14.2072 90.017 13.1802C90.017 12.1702 90.2088 11.2839 90.5923 10.5211C90.9801 9.75404 91.5213 9.15745 92.2159 8.73131C92.9105 8.30091 93.7266 8.08572 94.6641 8.08572C95.2692 8.08572 95.8402 8.18373 96.3771 8.37975C96.9183 8.57151 97.3956 8.86981 97.8089 9.27464C98.2266 9.67947 98.5547 10.1951 98.7933 10.8215C99.032 11.4437 99.1513 12.1851 99.1513 13.0459V13.7555H91.1037V12.1958H96.9332C96.929 11.7526 96.8331 11.3584 96.6456 11.0133C96.4581 10.6638 96.196 10.389 95.8594 10.1887C95.527 9.98841 95.1392 9.88827 94.696 9.88827C94.223 9.88827 93.8075 10.0033 93.4496 10.2334C93.0916 10.4593 92.8125 10.7576 92.6122 11.1283C92.4162 11.4948 92.3161 11.8975 92.3118 12.3364V13.6979C92.3118 14.269 92.4162 14.759 92.625 15.1681C92.8338 15.5729 93.1257 15.884 93.5007 16.1013C93.8757 16.3144 94.3146 16.4209 94.8175 16.4209C95.1541 16.4209 95.4588 16.3741 95.7315 16.2803C96.0043 16.1823 96.2408 16.0396 96.4411 15.8521C96.6413 15.6646 96.7926 15.4323 96.8949 15.1553L99.0554 15.3982C98.919 15.9692 98.6591 16.4678 98.2756 16.894C97.8963 17.3158 97.4105 17.644 96.8182 17.8783C96.2259 18.1084 95.5483 18.2235 94.7855 18.2235ZM101.109 18.0317V8.21356H103.352V9.84992H103.455C103.634 9.28316 103.941 8.84637 104.375 8.53955C104.814 8.22847 105.315 8.07293 105.877 8.07293C106.005 8.07293 106.148 8.07932 106.306 8.09211C106.468 8.10063 106.602 8.11554 106.708 8.13685V10.2654C106.61 10.2313 106.455 10.2015 106.242 10.1759C106.033 10.1461 105.83 10.1312 105.634 10.1312C105.213 10.1312 104.833 10.2228 104.497 10.406C104.164 10.585 103.902 10.8343 103.71 11.1539C103.519 11.4735 103.423 11.8421 103.423 12.2597V18.0317H101.109ZM115.024 4.94083V18.0317H112.71V4.94083H115.024ZM121.75 18.2235C120.766 18.2235 119.916 18.019 119.2 17.6099C118.488 17.1965 117.941 16.6127 117.557 15.8584C117.174 15.0999 116.982 14.2072 116.982 13.1802C116.982 12.1702 117.174 11.2839 117.557 10.5211C117.945 9.75404 118.486 9.15745 119.181 8.73131C119.875 8.30091 120.691 8.08572 121.629 8.08572C122.234 8.08572 122.805 8.18373 123.342 8.37975C123.883 8.57151 124.36 8.86981 124.774 9.27464C125.191 9.67947 125.52 10.1951 125.758 10.8215C125.997 11.4437 126.116 12.1851 126.116 13.0459V13.7555H118.069V12.1958H123.898C123.894 11.7526 123.798 11.3584 123.61 11.0133C123.423 10.6638 123.161 10.389 122.824 10.1887C122.492 9.98841 122.104 9.88827 121.661 9.88827C121.188 9.88827 120.772 10.0033 120.414 10.2334C120.056 10.4593 119.777 10.7576 119.577 11.1283C119.381 11.4948 119.281 11.8975 119.277 12.3364V13.6979C119.277 14.269 119.381 14.759 119.59 15.1681C119.799 15.5729 120.091 15.884 120.466 16.1013C120.841 16.3144 121.279 16.4209 121.782 16.4209C122.119 16.4209 122.424 16.3741 122.696 16.2803C122.969 16.1823 123.206 16.0396 123.406 15.8521C123.606 15.6646 123.757 15.4323 123.86 15.1553L126.02 15.3982C125.884 15.9692 125.624 16.4678 125.24 16.894C124.861 17.3158 124.375 17.644 123.783 17.8783C123.191 18.1084 122.513 18.2235 121.75 18.2235ZM132.539 18.0317V8.21356H134.75V9.88188H134.865C135.07 9.31938 135.409 8.88046 135.882 8.56512C136.355 8.24552 136.919 8.08572 137.575 8.08572C138.24 8.08572 138.801 8.24765 139.257 8.57151C139.717 8.89111 140.041 9.3279 140.228 9.88188H140.33C140.548 9.33643 140.914 8.90177 141.43 8.5779C141.95 8.24978 142.566 8.08572 143.277 8.08572C144.181 8.08572 144.918 8.37123 145.489 8.94225C146.06 9.51327 146.345 10.3464 146.345 11.4415V18.0317H144.025V11.7995C144.025 11.1901 143.863 10.7448 143.539 10.4636C143.215 10.178 142.819 10.0353 142.35 10.0353C141.792 10.0353 141.355 10.21 141.04 10.5594C140.729 10.9046 140.573 11.3542 140.573 11.9082V18.0317H138.304V11.7036C138.304 11.1965 138.151 10.7917 137.844 10.4891C137.541 10.1866 137.145 10.0353 136.655 10.0353C136.323 10.0353 136.02 10.1205 135.747 10.291C135.475 10.4572 135.257 10.6937 135.095 11.0005C134.933 11.303 134.852 11.6567 134.852 12.0616V18.0317H132.539ZM151.518 18.2299C150.896 18.2299 150.336 18.1191 149.837 17.8975C149.343 17.6717 148.951 17.3393 148.661 16.9003C148.375 16.4614 148.233 15.9202 148.233 15.2768C148.233 14.7228 148.335 14.2647 148.539 13.9025C148.744 13.5403 149.023 13.2505 149.377 13.0332C149.73 12.8158 150.129 12.6518 150.572 12.541C151.02 12.4259 151.482 12.3428 151.959 12.2917C152.534 12.232 153.001 12.1788 153.359 12.1319C153.717 12.0807 153.977 12.004 154.139 11.9018C154.305 11.7952 154.388 11.6312 154.388 11.4096V11.3712C154.388 10.8897 154.245 10.5168 153.96 10.2526C153.674 9.98841 153.263 9.85631 152.726 9.85631C152.159 9.85631 151.71 9.97989 151.377 10.2271C151.049 10.4742 150.828 10.7661 150.713 11.1028L148.552 10.7959C148.723 10.1994 149.004 9.70077 149.396 9.3002C149.788 8.89537 150.267 8.59282 150.834 8.39253C151.401 8.18799 152.027 8.08572 152.713 8.08572C153.186 8.08572 153.657 8.14111 154.126 8.25191C154.595 8.3627 155.023 8.54594 155.411 8.80162C155.799 9.05304 156.11 9.39608 156.344 9.83074C156.583 10.2654 156.702 10.8087 156.702 11.4607V18.0317H154.478V16.683H154.401C154.26 16.9557 154.062 17.2114 153.806 17.4501C153.555 17.6844 153.238 17.8741 152.854 18.019C152.475 18.1596 152.029 18.2299 151.518 18.2299ZM152.119 16.5296C152.583 16.5296 152.986 16.438 153.327 16.2547C153.668 16.0672 153.93 15.8201 154.113 15.5133C154.301 15.2065 154.395 14.8719 154.395 14.5097V13.3528C154.322 13.4124 154.199 13.4678 154.024 13.519C153.853 13.5701 153.662 13.6148 153.449 13.6532C153.235 13.6915 153.025 13.7256 152.816 13.7555C152.607 13.7853 152.426 13.8109 152.272 13.8322C151.927 13.879 151.618 13.9557 151.346 14.0623C151.073 14.1688 150.858 14.318 150.7 14.5097C150.542 14.6972 150.463 14.9401 150.463 15.2384C150.463 15.6646 150.619 15.9863 150.93 16.2036C151.241 16.4209 151.637 16.5296 152.119 16.5296ZM159.029 18.0317V8.21356H161.343V18.0317H159.029ZM160.192 6.82009C159.826 6.82009 159.51 6.69864 159.246 6.45574C158.982 6.20858 158.85 5.91242 158.85 5.56725C158.85 5.21782 158.982 4.92165 159.246 4.67875C159.51 4.4316 159.826 4.30802 160.192 4.30802C160.563 4.30802 160.878 4.4316 161.138 4.67875C161.402 4.92165 161.534 5.21782 161.534 5.56725C161.534 5.91242 161.402 6.20858 161.138 6.45574C160.878 6.69864 160.563 6.82009 160.192 6.82009ZM163.722 18.0317V8.21356H165.966V9.84992H166.068C166.247 9.28316 166.554 8.84637 166.988 8.53955C167.427 8.22847 167.928 8.07293 168.491 8.07293C168.618 8.07293 168.761 8.07932 168.919 8.09211C169.081 8.10063 169.215 8.11554 169.322 8.13685V10.2654C169.224 10.2313 169.068 10.2015 168.855 10.1759C168.646 10.1461 168.444 10.1312 168.248 10.1312C167.826 10.1312 167.447 10.2228 167.11 10.406C166.778 10.585 166.515 10.8343 166.324 11.1539C166.132 11.4735 166.036 11.8421 166.036 12.2597V18.0317H163.722ZM174.801 18.2235C173.817 18.2235 172.967 18.019 172.251 17.6099C171.539 17.1965 170.991 16.6127 170.608 15.8584C170.224 15.0999 170.033 14.2072 170.033 13.1802C170.033 12.1702 170.224 11.2839 170.608 10.5211C170.996 9.75404 171.537 9.15745 172.232 8.73131C172.926 8.30091 173.742 8.08572 174.68 8.08572C175.285 8.08572 175.856 8.18373 176.393 8.37975C176.934 8.57151 177.411 8.86981 177.825 9.27464C178.242 9.67947 178.57 10.1951 178.809 10.8215C179.048 11.4437 179.167 12.1851 179.167 13.0459V13.7555H171.119V12.1958H176.949C176.945 11.7526 176.849 11.3584 176.661 11.0133C176.474 10.6638 176.212 10.389 175.875 10.1887C175.543 9.98841 175.155 9.88827 174.712 9.88827C174.239 9.88827 173.823 10.0033 173.465 10.2334C173.107 10.4593 172.828 10.7576 172.628 11.1283C172.432 11.4948 172.332 11.8975 172.327 12.3364V13.6979C172.327 14.269 172.432 14.759 172.641 15.1681C172.849 15.5729 173.141 15.884 173.516 16.1013C173.891 16.3144 174.33 16.4209 174.833 16.4209C175.17 16.4209 175.474 16.3741 175.747 16.2803C176.02 16.1823 176.256 16.0396 176.457 15.8521C176.657 15.6646 176.808 15.4323 176.911 15.1553L179.071 15.3982C178.935 15.9692 178.675 16.4678 178.291 16.894C177.912 17.3158 177.426 17.644 176.834 17.8783C176.241 18.1084 175.564 18.2235 174.801 18.2235Z" fill="#061F31"/>
<path d="M16.5509 10.2413L15.8912 9.0999C15.8304 8.99641 15.7438 8.91061 15.6392 8.85101C15.58 8.81723 15.5166 8.79253 15.4506 8.77746C15.4004 8.76594 15.349 8.76006 15.2967 8.76006C15.1767 8.76006 15.0588 8.7914 14.9546 8.85101C14.85 8.91061 14.763 8.99641 14.7021 9.0999L14.021 10.25C13.973 10.3353 13.907 10.4091 13.8277 10.4661C13.748 10.5231 13.6571 10.5619 13.5606 10.5799L12.2588 10.8359C12.1409 10.8577 12.0316 10.9108 11.9416 10.9897C11.8876 11.0372 11.8417 11.093 11.8057 11.1547C11.7817 11.1955 11.7624 11.2389 11.7478 11.2842C11.7106 11.398 11.7054 11.5197 11.732 11.6364C11.7586 11.753 11.816 11.8604 11.8987 11.947L12.8101 12.9105C12.8765 12.9804 12.9262 13.0642 12.9562 13.1558C12.9862 13.2473 12.9957 13.3444 12.9837 13.44L12.8272 14.742C12.8148 14.8626 12.8345 14.9844 12.8846 15.0948C12.9344 15.2052 13.0132 15.3002 13.1123 15.3701C13.2113 15.44 13.3274 15.4822 13.4479 15.4923C13.5688 15.5025 13.6901 15.4802 13.7994 15.4278L15.0189 14.8766C15.0498 14.8627 15.0815 14.8511 15.1137 14.8418C15.1758 14.8239 15.2405 14.8147 15.3057 14.8147C15.4043 14.8147 15.502 14.8358 15.592 14.8766L16.8116 15.4278C16.9204 15.478 17.0409 15.4986 17.1605 15.4875C17.2796 15.4763 17.3941 15.4338 17.4923 15.3642C17.59 15.2946 17.6676 15.2004 17.7173 15.0912C17.7396 15.0418 17.7559 14.9901 17.7662 14.9373C17.7786 14.8732 17.7816 14.8075 17.7752 14.742L17.6187 13.44C17.6119 13.3856 17.6123 13.3308 17.6191 13.2767C17.6243 13.2357 17.6333 13.1952 17.6462 13.1558C17.6762 13.0642 17.7259 12.9804 17.7923 12.9105L18.7036 11.947C18.7517 11.8962 18.7915 11.8383 18.8215 11.7756C18.843 11.7308 18.8592 11.6834 18.87 11.6345C18.8961 11.5172 18.8897 11.3951 18.852 11.281C18.8327 11.2231 18.8057 11.1683 18.7718 11.1182C18.7388 11.0697 18.6998 11.0255 18.6552 10.987C18.5639 10.9086 18.4533 10.8564 18.335 10.8359L17.0113 10.5712C16.9149 10.5532 16.824 10.5144 16.7447 10.4574C16.665 10.4004 16.5989 10.3266 16.5509 10.2413Z" fill="#061F31"/>
<path fill-rule="evenodd" clip-rule="evenodd" d="M7.2491 11.9963C7.2491 12.3882 7.12436 12.7976 7.00091 13.2024C6.83631 13.7434 6.67385 14.2762 6.8153 14.748C6.95976 15.2298 7.43171 15.5812 7.90323 15.932C8.23844 16.1817 8.57322 16.4311 8.78969 16.7271C9.00402 17.0202 9.13776 17.4017 9.27236 17.7857C9.4644 18.3341 9.65815 18.8877 10.0919 19.1966C10.5296 19.5082 11.1126 19.5142 11.693 19.5201C12.0908 19.5242 12.4873 19.5282 12.8349 19.6306C13.2006 19.7383 13.5366 19.9849 13.8735 20.2319C14.3245 20.5623 14.7763 20.8936 15.3001 20.8936C15.8407 20.8936 16.322 20.555 16.7953 20.2221C17.124 19.9909 17.449 19.7626 17.7867 19.6523C18.134 19.539 18.5489 19.5319 18.966 19.5247C19.5395 19.5148 20.1178 19.5048 20.5297 19.2183C20.9421 18.9317 21.1316 18.3948 21.3236 17.8512C21.4629 17.4561 21.6035 17.0575 21.832 16.7488C22.057 16.4443 22.3832 16.1988 22.7077 15.9548C23.1647 15.6109 23.6182 15.2697 23.7806 14.7697C23.9418 14.2729 23.7768 13.7336 23.61 13.1894C23.4896 12.7969 23.3683 12.4017 23.3683 12.018C23.3683 11.6317 23.4896 11.2284 23.6096 10.8292C23.7742 10.2822 23.9362 9.74314 23.7806 9.26641C23.6233 8.78453 23.1548 8.42567 22.6884 8.06856C22.3571 7.81456 22.0266 7.56147 21.8101 7.26563C21.5958 6.97244 21.462 6.59089 21.3279 6.20681C21.1358 5.65845 20.9421 5.10495 20.5083 4.7961C20.0706 4.48447 19.4872 4.4785 18.9068 4.47256C18.5095 4.46849 18.113 4.46443 17.7653 4.36209C17.3992 4.25439 17.0627 4.00768 16.7258 3.76062C16.2753 3.43019 15.8239 3.09912 15.3001 3.09912C14.76 3.09912 14.2786 3.43759 13.805 3.77038C13.4762 4.0016 13.1513 4.23008 12.8131 4.34039C12.4663 4.45365 12.0513 4.4608 11.6343 4.46799C11.0607 4.47789 10.4825 4.48787 10.0701 4.7744C9.65815 5.06099 9.46825 5.59801 9.27622 6.14175C9.1369 6.53675 8.9963 6.9353 8.76826 7.24393C8.54321 7.54833 8.21701 7.79368 7.89251 8.03768C7.43557 8.38161 6.98205 8.72285 6.81959 9.22301C6.65841 9.71884 6.82859 10.2643 7.00005 10.8137C7.12436 11.2116 7.2491 11.6117 7.2491 11.9963ZM15.3005 6.20935C12.032 6.20935 9.38252 8.85894 9.38252 12.1274C9.38252 15.3958 12.032 18.0454 15.3005 18.0454C18.569 18.0454 21.2186 15.3958 21.2186 12.1274C21.2186 8.85894 18.569 6.20935 15.3005 6.20935Z" fill="#061F31"/>
</svg>
