<svg width="186" height="25" viewBox="0 0 186 25" fill="none" xmlns="http://www.w3.org/2000/svg">
<rect x="0.890625" y="0.0317383" width="184.258" height="24.0516" rx="5" fill="#061F31"/>
<path d="M34.5681 18.0317H30.132V4.94083H34.6576C35.9573 4.94083 37.0738 5.2029 38.007 5.72705C38.9445 6.24694 39.6647 6.99481 40.1675 7.97066C40.6704 8.94651 40.9218 10.1141 40.9218 11.4735C40.9218 12.8371 40.6682 14.009 40.1611 14.9891C39.6583 15.9692 38.9317 16.7214 37.9814 17.2455C37.0354 17.7697 35.8976 18.0317 34.5681 18.0317ZM32.5035 15.9799H34.453C35.365 15.9799 36.1256 15.8137 36.735 15.4813C37.3444 15.1447 37.8025 14.644 38.1093 13.9792C38.4161 13.3101 38.5695 12.4749 38.5695 11.4735C38.5695 10.4721 38.4161 9.64111 38.1093 8.9806C37.8025 8.31583 37.3486 7.81938 36.7478 7.49126C36.1512 7.15887 35.4097 6.99268 34.5233 6.99268H32.5035V15.9799ZM47.4193 18.2235C46.4349 18.2235 45.5848 18.019 44.8689 17.6099C44.1572 17.1965 43.6096 16.6127 43.2261 15.8584C42.8426 15.0999 42.6508 14.2072 42.6508 13.1802C42.6508 12.1702 42.8426 11.2839 43.2261 10.5211C43.6139 9.75404 44.1551 9.15745 44.8497 8.73131C45.5443 8.30091 46.3604 8.08572 47.2979 8.08572C47.903 8.08572 48.474 8.18373 49.0109 8.37975C49.5521 8.57151 50.0294 8.86981 50.4427 9.27464C50.8604 9.67947 51.1885 10.1951 51.4271 10.8215C51.6657 11.4437 51.7851 12.1851 51.7851 13.0459V13.7555H43.7375V12.1958H49.567C49.5628 11.7526 49.4669 11.3584 49.2794 11.0133C49.0919 10.6638 48.8298 10.389 48.4932 10.1887C48.1608 9.98841 47.773 9.88827 47.3298 9.88827C46.8568 9.88827 46.4413 10.0033 46.0834 10.2334C45.7254 10.4593 45.4463 10.7576 45.246 11.1283C45.05 11.4948 44.9498 11.8975 44.9456 12.3364V13.6979C44.9456 14.269 45.05 14.759 45.2588 15.1681C45.4676 15.5729 45.7595 15.884 46.1345 16.1013C46.5095 16.3144 46.9484 16.4209 47.4513 16.4209C47.7879 16.4209 48.0926 16.3741 48.3653 16.2803C48.6381 16.1823 48.8746 16.0396 49.0748 15.8521C49.2751 15.6646 49.4264 15.4323 49.5287 15.1553L51.6892 15.3982C51.5528 15.9692 51.2929 16.4678 50.9094 16.894C50.5301 17.3158 50.0443 17.644 49.452 17.8783C48.8596 18.1084 48.1821 18.2235 47.4193 18.2235ZM46.3454 6.92236L47.7773 4.0012H50.04L48.0777 6.92236H46.3454ZM61.5026 10.8087L59.3932 11.0388C59.3335 10.8258 59.2291 10.6255 59.08 10.438C58.9351 10.2505 58.7391 10.0992 58.4919 9.98415C58.2448 9.8691 57.9422 9.81157 57.5843 9.81157C57.1027 9.81157 56.6979 9.91597 56.3698 10.1248C56.0459 10.3336 55.8861 10.6042 55.8904 10.9366C55.8861 11.2221 55.9905 11.4543 56.2036 11.6333C56.4209 11.8123 56.7789 11.9593 57.2774 12.0744L58.9521 12.4323C59.8811 12.6326 60.5715 12.9501 61.0232 13.3847C61.4791 13.8194 61.7093 14.3883 61.7135 15.0914C61.7093 15.7093 61.5281 16.2547 61.1702 16.7278C60.8165 17.1965 60.3243 17.563 59.6936 17.8272C59.0629 18.0914 58.3385 18.2235 57.5203 18.2235C56.3186 18.2235 55.3513 17.9721 54.6183 17.4692C53.8854 16.9621 53.4486 16.2569 53.308 15.3535L55.5644 15.1361C55.6666 15.5793 55.884 15.9138 56.2164 16.1397C56.5487 16.3655 56.9813 16.4785 57.5139 16.4785C58.0637 16.4785 58.5047 16.3655 58.8371 16.1397C59.1737 15.9138 59.3421 15.6347 59.3421 15.3023C59.3421 15.0211 59.2334 14.7888 59.0161 14.6056C58.803 14.4224 58.4706 14.2817 58.0189 14.1837L56.3442 13.8322C55.4024 13.6361 54.7057 13.3059 54.254 12.8414C53.8023 12.3726 53.5786 11.7803 53.5828 11.0644C53.5786 10.4593 53.7426 9.93515 54.075 9.49197C54.4117 9.04452 54.8783 8.69935 55.4749 8.45645C56.0757 8.2093 56.7682 8.08572 57.5523 8.08572C58.7029 8.08572 59.6084 8.33074 60.2689 8.8208C60.9337 9.31086 61.3449 9.9735 61.5026 10.8087ZM63.6215 18.0317V8.21356H65.9355V18.0317H63.6215ZM64.7849 6.82009C64.4184 6.82009 64.1031 6.69864 63.8389 6.45574C63.5747 6.20858 63.4426 5.91242 63.4426 5.56725C63.4426 5.21782 63.5747 4.92165 63.8389 4.67875C64.1031 4.4316 64.4184 4.30802 64.7849 4.30802C65.1556 4.30802 65.471 4.4316 65.7309 4.67875C65.9951 4.92165 66.1272 5.21782 66.1272 5.56725C66.1272 5.91242 65.9951 6.20858 65.7309 6.45574C65.471 6.69864 65.1556 6.82009 64.7849 6.82009ZM72.5848 21.9181C71.7538 21.9181 71.04 21.8052 70.4434 21.5793C69.8469 21.3577 69.3675 21.0594 69.0052 20.6844C68.643 20.3094 68.3916 19.894 68.251 19.438L70.3348 18.933C70.4285 19.1248 70.5649 19.3144 70.7439 19.5019C70.9229 19.6937 71.1636 19.8513 71.4662 19.9749C71.773 20.1028 72.1586 20.1667 72.6231 20.1667C73.2794 20.1667 73.8227 20.0069 74.2531 19.6873C74.6835 19.3719 74.8987 18.8521 74.8987 18.1276V16.2675H74.7836C74.6643 16.5062 74.4896 16.7512 74.2595 17.0026C74.0336 17.254 73.7332 17.465 73.3582 17.6354C72.9875 17.8059 72.5209 17.8911 71.9584 17.8911C71.2041 17.8911 70.5202 17.7143 69.9065 17.3606C69.2971 17.0026 68.8113 16.4699 68.4491 15.7626C68.0912 15.0509 67.9122 14.1603 67.9122 13.0907C67.9122 12.0126 68.0912 11.1028 68.4491 10.3613C68.8113 9.61555 69.2993 9.05091 69.9129 8.66739C70.5265 8.27961 71.2105 8.08572 71.9648 8.08572C72.54 8.08572 73.0131 8.18373 73.3838 8.37975C73.7588 8.57151 74.0571 8.80375 74.2787 9.07648C74.5003 9.34495 74.6686 9.5985 74.7836 9.83714H74.9115V8.21356H77.1934V18.1915C77.1934 19.031 76.9932 19.7256 76.5926 20.2753C76.192 20.8251 75.6444 21.2363 74.9498 21.509C74.2552 21.7817 73.4669 21.9181 72.5848 21.9181ZM72.604 16.0758C73.094 16.0758 73.5116 15.9565 73.8568 15.7178C74.202 15.4792 74.464 15.1361 74.643 14.6887C74.822 14.2413 74.9115 13.7043 74.9115 13.0779C74.9115 12.46 74.822 11.9188 74.643 11.4543C74.4683 10.9898 74.2084 10.6297 73.8632 10.3741C73.5223 10.1141 73.1025 9.98415 72.604 9.98415C72.0883 9.98415 71.6579 10.1184 71.3128 10.3869C70.9676 10.6553 70.7077 11.0239 70.5329 11.4927C70.3582 11.9572 70.2709 12.4856 70.2709 13.0779C70.2709 13.6788 70.3582 14.205 70.5329 14.6567C70.7119 15.1042 70.974 15.4536 71.3192 15.705C71.6686 15.9522 72.0969 16.0758 72.604 16.0758ZM81.8788 12.2789V18.0317H79.5649V8.21356H81.7765V9.88188H81.8916C82.1175 9.33216 82.4775 8.89537 82.9719 8.57151C83.4704 8.24765 84.0862 8.08572 84.8192 8.08572C85.4967 8.08572 86.0869 8.2306 86.5898 8.52037C87.0969 8.81015 87.4889 9.22989 87.7659 9.77961C88.0471 10.3293 88.1856 10.9962 88.1814 11.7803V18.0317H85.8675V12.1383C85.8675 11.482 85.697 10.9685 85.3561 10.5978C85.0194 10.2271 84.5528 10.0417 83.9562 10.0417C83.5514 10.0417 83.1913 10.1312 82.876 10.3101C82.5649 10.4849 82.3199 10.7384 82.1409 11.0708C81.9662 11.4032 81.8788 11.8059 81.8788 12.2789ZM94.8802 18.2235C93.8959 18.2235 93.0457 18.019 92.3298 17.6099C91.6182 17.1965 91.0706 16.6127 90.6871 15.8584C90.3035 15.0999 90.1118 14.2072 90.1118 13.1802C90.1118 12.1702 90.3035 11.2839 90.6871 10.5211C91.0748 9.75404 91.616 9.15745 92.3106 8.73131C93.0052 8.30091 93.8213 8.08572 94.7588 8.08572C95.3639 8.08572 95.9349 8.18373 96.4719 8.37975C97.0131 8.57151 97.4903 8.86981 97.9037 9.27464C98.3213 9.67947 98.6494 10.1951 98.8881 10.8215C99.1267 11.4437 99.246 12.1851 99.246 13.0459V13.7555H91.1984V12.1958H97.028C97.0237 11.7526 96.9278 11.3584 96.7403 11.0133C96.5528 10.6638 96.2907 10.389 95.9541 10.1887C95.6217 9.98841 95.2339 9.88827 94.7907 9.88827C94.3177 9.88827 93.9023 10.0033 93.5443 10.2334C93.1863 10.4593 92.9072 10.7576 92.7069 11.1283C92.5109 11.4948 92.4108 11.8975 92.4065 12.3364V13.6979C92.4065 14.269 92.5109 14.759 92.7197 15.1681C92.9285 15.5729 93.2204 15.884 93.5954 16.1013C93.9704 16.3144 94.4094 16.4209 94.9122 16.4209C95.2488 16.4209 95.5535 16.3741 95.8263 16.2803C96.099 16.1823 96.3355 16.0396 96.5358 15.8521C96.7361 15.6646 96.8873 15.4323 96.9896 15.1553L99.1501 15.3982C99.0138 15.9692 98.7538 16.4678 98.3703 16.894C97.991 17.3158 97.5052 17.644 96.9129 17.8783C96.3206 18.1084 95.643 18.2235 94.8802 18.2235ZM101.204 18.0317V8.21356H103.447V9.84992H103.549C103.728 9.28316 104.035 8.84637 104.47 8.53955C104.909 8.22847 105.41 8.07293 105.972 8.07293C106.1 8.07293 106.243 8.07932 106.4 8.09211C106.562 8.10063 106.696 8.11554 106.803 8.13685V10.2654C106.705 10.2313 106.549 10.2015 106.336 10.1759C106.128 10.1461 105.925 10.1312 105.729 10.1312C105.307 10.1312 104.928 10.2228 104.591 10.406C104.259 10.585 103.997 10.8343 103.805 11.1539C103.613 11.4735 103.517 11.8421 103.517 12.2597V18.0317H101.204ZM115.119 4.94083V18.0317H112.805V4.94083H115.119ZM121.845 18.2235C120.861 18.2235 120.011 18.019 119.295 17.6099C118.583 17.1965 118.035 16.6127 117.652 15.8584C117.268 15.0999 117.077 14.2072 117.077 13.1802C117.077 12.1702 117.268 11.2839 117.652 10.5211C118.04 9.75404 118.581 9.15745 119.275 8.73131C119.97 8.30091 120.786 8.08572 121.724 8.08572C122.329 8.08572 122.9 8.18373 123.437 8.37975C123.978 8.57151 124.455 8.86981 124.869 9.27464C125.286 9.67947 125.614 10.1951 125.853 10.8215C126.092 11.4437 126.211 12.1851 126.211 13.0459V13.7555H118.163V12.1958H123.993C123.989 11.7526 123.893 11.3584 123.705 11.0133C123.518 10.6638 123.256 10.389 122.919 10.1887C122.587 9.98841 122.199 9.88827 121.756 9.88827C121.283 9.88827 120.867 10.0033 120.509 10.2334C120.151 10.4593 119.872 10.7576 119.672 11.1283C119.476 11.4948 119.376 11.8975 119.371 12.3364V13.6979C119.371 14.269 119.476 14.759 119.685 15.1681C119.893 15.5729 120.185 15.884 120.56 16.1013C120.935 16.3144 121.374 16.4209 121.877 16.4209C122.214 16.4209 122.518 16.3741 122.791 16.2803C123.064 16.1823 123.3 16.0396 123.501 15.8521C123.701 15.6646 123.852 15.4323 123.954 15.1553L126.115 15.3982C125.979 15.9692 125.719 16.4678 125.335 16.894C124.956 17.3158 124.47 17.644 123.878 17.8783C123.285 18.1084 122.608 18.2235 121.845 18.2235ZM132.633 18.0317V8.21356H134.845V9.88188H134.96C135.165 9.31938 135.503 8.88046 135.976 8.56512C136.449 8.24552 137.014 8.08572 137.67 8.08572C138.335 8.08572 138.895 8.24765 139.351 8.57151C139.812 8.89111 140.135 9.3279 140.323 9.88188H140.425C140.642 9.33643 141.009 8.90177 141.525 8.5779C142.044 8.24978 142.66 8.08572 143.372 8.08572C144.275 8.08572 145.013 8.37123 145.584 8.94225C146.155 9.51327 146.44 10.3464 146.44 11.4415V18.0317H144.12V11.7995C144.12 11.1901 143.958 10.7448 143.634 10.4636C143.31 10.178 142.914 10.0353 142.445 10.0353C141.887 10.0353 141.45 10.21 141.135 10.5594C140.824 10.9046 140.668 11.3542 140.668 11.9082V18.0317H138.399V11.7036C138.399 11.1965 138.245 10.7917 137.939 10.4891C137.636 10.1866 137.24 10.0353 136.75 10.0353C136.417 10.0353 136.115 10.1205 135.842 10.291C135.569 10.4572 135.352 10.6937 135.19 11.0005C135.028 11.303 134.947 11.6567 134.947 12.0616V18.0317H132.633ZM151.613 18.2299C150.991 18.2299 150.43 18.1191 149.932 17.8975C149.437 17.6717 149.045 17.3393 148.756 16.9003C148.47 16.4614 148.327 15.9202 148.327 15.2768C148.327 14.7228 148.43 14.2647 148.634 13.9025C148.839 13.5403 149.118 13.2505 149.472 13.0332C149.825 12.8158 150.224 12.6518 150.667 12.541C151.114 12.4259 151.577 12.3428 152.054 12.2917C152.629 12.232 153.096 12.1788 153.454 12.1319C153.812 12.0807 154.072 12.004 154.234 11.9018C154.4 11.7952 154.483 11.6312 154.483 11.4096V11.3712C154.483 10.8897 154.34 10.5168 154.055 10.2526C153.769 9.98841 153.358 9.85631 152.821 9.85631C152.254 9.85631 151.805 9.97989 151.472 10.2271C151.144 10.4742 150.922 10.7661 150.807 11.1028L148.647 10.7959C148.817 10.1994 149.099 9.70077 149.491 9.3002C149.883 8.89537 150.362 8.59282 150.929 8.39253C151.496 8.18799 152.122 8.08572 152.808 8.08572C153.281 8.08572 153.752 8.14111 154.221 8.25191C154.69 8.3627 155.118 8.54594 155.506 8.80162C155.893 9.05304 156.204 9.39608 156.439 9.83074C156.677 10.2654 156.797 10.8087 156.797 11.4607V18.0317H154.572V16.683H154.496C154.355 16.9557 154.157 17.2114 153.901 17.4501C153.65 17.6844 153.332 17.8741 152.949 18.019C152.57 18.1596 152.124 18.2299 151.613 18.2299ZM152.214 16.5296C152.678 16.5296 153.081 16.438 153.422 16.2547C153.763 16.0672 154.025 15.8201 154.208 15.5133C154.396 15.2065 154.489 14.8719 154.489 14.5097V13.3528C154.417 13.4124 154.293 13.4678 154.119 13.519C153.948 13.5701 153.756 13.6148 153.543 13.6532C153.33 13.6915 153.119 13.7256 152.91 13.7555C152.702 13.7853 152.521 13.8109 152.367 13.8322C152.022 13.879 151.713 13.9557 151.44 14.0623C151.168 14.1688 150.952 14.318 150.795 14.5097C150.637 14.6972 150.558 14.9401 150.558 15.2384C150.558 15.6646 150.714 15.9863 151.025 16.2036C151.336 16.4209 151.732 16.5296 152.214 16.5296ZM159.123 18.0317V8.21356H161.437V18.0317H159.123ZM160.287 6.82009C159.92 6.82009 159.605 6.69864 159.341 6.45574C159.077 6.20858 158.945 5.91242 158.945 5.56725C158.945 5.21782 159.077 4.92165 159.341 4.67875C159.605 4.4316 159.92 4.30802 160.287 4.30802C160.658 4.30802 160.973 4.4316 161.233 4.67875C161.497 4.92165 161.629 5.21782 161.629 5.56725C161.629 5.91242 161.497 6.20858 161.233 6.45574C160.973 6.69864 160.658 6.82009 160.287 6.82009ZM163.817 18.0317V8.21356H166.06V9.84992H166.163C166.342 9.28316 166.649 8.84637 167.083 8.53955C167.522 8.22847 168.023 8.07293 168.585 8.07293C168.713 8.07293 168.856 8.07932 169.014 8.09211C169.176 8.10063 169.31 8.11554 169.416 8.13685V10.2654C169.318 10.2313 169.163 10.2015 168.95 10.1759C168.741 10.1461 168.538 10.1312 168.342 10.1312C167.921 10.1312 167.541 10.2228 167.205 10.406C166.872 10.585 166.61 10.8343 166.418 11.1539C166.227 11.4735 166.131 11.8421 166.131 12.2597V18.0317H163.817ZM174.896 18.2235C173.911 18.2235 173.061 18.019 172.345 17.6099C171.634 17.1965 171.086 16.6127 170.703 15.8584C170.319 15.0999 170.127 14.2072 170.127 13.1802C170.127 12.1702 170.319 11.2839 170.703 10.5211C171.09 9.75404 171.632 9.15745 172.326 8.73131C173.021 8.30091 173.837 8.08572 174.774 8.08572C175.38 8.08572 175.951 8.18373 176.487 8.37975C177.029 8.57151 177.506 8.86981 177.919 9.27464C178.337 9.67947 178.665 10.1951 178.904 10.8215C179.142 11.4437 179.262 12.1851 179.262 13.0459V13.7555H171.214V12.1958H177.044C177.039 11.7526 176.943 11.3584 176.756 11.0133C176.568 10.6638 176.306 10.389 175.97 10.1887C175.637 9.98841 175.25 9.88827 174.806 9.88827C174.333 9.88827 173.918 10.0033 173.56 10.2334C173.202 10.4593 172.923 10.7576 172.723 11.1283C172.527 11.4948 172.426 11.8975 172.422 12.3364V13.6979C172.422 14.269 172.527 14.759 172.735 15.1681C172.944 15.5729 173.236 15.884 173.611 16.1013C173.986 16.3144 174.425 16.4209 174.928 16.4209C175.264 16.4209 175.569 16.3741 175.842 16.2803C176.115 16.1823 176.351 16.0396 176.551 15.8521C176.752 15.6646 176.903 15.4323 177.005 15.1553L179.166 15.3982C179.029 15.9692 178.769 16.4678 178.386 16.894C178.007 17.3158 177.521 17.644 176.929 17.8783C176.336 18.1084 175.659 18.2235 174.896 18.2235Z" fill="#F4CE7B"/>
<path d="M16.6457 10.2413L15.986 9.0999C15.9251 8.99641 15.8385 8.91061 15.7339 8.85101C15.6748 8.81723 15.6113 8.79253 15.5453 8.77746C15.4951 8.76594 15.4437 8.76006 15.3914 8.76006C15.2714 8.76006 15.1535 8.7914 15.0493 8.85101C14.9448 8.91061 14.8577 8.99641 14.7969 9.0999L14.1157 10.25C14.0677 10.3353 14.0017 10.4091 13.9224 10.4661C13.8427 10.5231 13.7518 10.5619 13.6554 10.5799L12.3535 10.8359C12.2356 10.8577 12.1263 10.9108 12.0363 10.9897C11.9823 11.0372 11.9364 11.093 11.9004 11.1547C11.8764 11.1955 11.8571 11.2389 11.8426 11.2842C11.8053 11.398 11.8001 11.5197 11.8267 11.6364C11.8533 11.753 11.9107 11.8604 11.9935 11.947L12.9048 12.9105C12.9712 12.9804 13.0209 13.0642 13.051 13.1558C13.081 13.2473 13.0904 13.3444 13.0784 13.44L12.9219 14.742C12.9095 14.8626 12.9292 14.9844 12.9794 15.0948C13.0291 15.2052 13.108 15.3002 13.207 15.3701C13.306 15.44 13.4222 15.4822 13.5426 15.4923C13.6635 15.5025 13.7848 15.4802 13.8941 15.4278L15.1136 14.8766C15.1445 14.8627 15.1762 14.8511 15.2084 14.8418C15.2705 14.8239 15.3353 14.8147 15.4004 14.8147C15.499 14.8147 15.5967 14.8358 15.6868 14.8766L16.9063 15.4278C17.0152 15.478 17.1356 15.4986 17.2552 15.4875C17.3744 15.4763 17.4888 15.4338 17.587 15.3642C17.6847 15.2946 17.7623 15.2004 17.812 15.0912C17.8343 15.0418 17.8506 14.9901 17.8609 14.9373C17.8733 14.8732 17.8763 14.8075 17.8699 14.742L17.7134 13.44C17.7066 13.3856 17.707 13.3308 17.7139 13.2767C17.719 13.2357 17.728 13.1952 17.7409 13.1558C17.7709 13.0642 17.8206 12.9804 17.887 12.9105L18.7984 11.947C18.8464 11.8962 18.8862 11.8383 18.9163 11.7756C18.9377 11.7308 18.954 11.6834 18.9647 11.6345C18.9908 11.5172 18.9844 11.3951 18.9467 11.281C18.9274 11.2231 18.9004 11.1683 18.8665 11.1182C18.8335 11.0697 18.7945 11.0255 18.7499 10.987C18.6586 10.9086 18.548 10.8564 18.4297 10.8359L17.106 10.5712C17.0096 10.5532 16.9187 10.5144 16.8394 10.4574C16.7597 10.4004 16.6937 10.3266 16.6457 10.2413Z" fill="#F4CE7B"/>
<path fill-rule="evenodd" clip-rule="evenodd" d="M7.34383 11.9963C7.34383 12.3882 7.21909 12.7976 7.09564 13.2024C6.93103 13.7434 6.76857 14.2762 6.91003 14.748C7.05449 15.2298 7.52644 15.5812 7.99796 15.932C8.33317 16.1817 8.66795 16.4311 8.88442 16.7271C9.09875 17.0202 9.23249 17.4017 9.36708 17.7857C9.55912 18.3341 9.75287 18.8877 10.1867 19.1966C10.6243 19.5082 11.2073 19.5142 11.7877 19.5201C12.1855 19.5242 12.582 19.5282 12.9296 19.6306C13.2953 19.7383 13.6314 19.9849 13.9683 20.2319C14.4192 20.5623 14.871 20.8936 15.3948 20.8936C15.9354 20.8936 16.4168 20.555 16.89 20.2221C17.2188 19.9909 17.5437 19.7626 17.8815 19.6523C18.2287 19.539 18.6436 19.5319 19.0607 19.5247C19.6342 19.5148 20.2125 19.5048 20.6244 19.2183C21.0368 18.9317 21.2263 18.3948 21.4183 17.8512C21.5576 17.4561 21.6982 17.0575 21.9267 16.7488C22.1517 16.4443 22.478 16.1988 22.8024 15.9548C23.2594 15.6109 23.7129 15.2697 23.8754 14.7697C24.0365 14.2729 23.8715 13.7336 23.7048 13.1894C23.5843 12.7969 23.463 12.4017 23.463 12.018C23.463 11.6317 23.5843 11.2284 23.7043 10.8292C23.8689 10.2822 24.031 9.74314 23.8754 9.26641C23.7181 8.78453 23.2495 8.42567 22.7832 8.06856C22.4518 7.81456 22.1213 7.56147 21.9048 7.26563C21.6905 6.97244 21.5568 6.59089 21.4226 6.20681C21.2306 5.65845 21.0368 5.10495 20.603 4.7961C20.1654 4.48447 19.582 4.4785 19.0016 4.47256C18.6042 4.46849 18.2077 4.46443 17.86 4.36209C17.494 4.25439 17.1575 4.00768 16.8206 3.76062C16.37 3.43019 15.9187 3.09912 15.3948 3.09912C14.8547 3.09912 14.3734 3.43759 13.8997 3.77038C13.5709 4.0016 13.246 4.23008 12.9078 4.34039C12.561 4.45365 12.1461 4.4608 11.729 4.46799C11.1554 4.47789 10.5772 4.48787 10.1648 4.7744C9.75287 5.06099 9.56298 5.59801 9.37094 6.14175C9.23163 6.53675 9.09103 6.9353 8.86298 7.24393C8.63794 7.54833 8.31173 7.79368 7.98724 8.03768C7.53029 8.38161 7.07678 8.72285 6.91431 9.22301C6.75314 9.71884 6.92332 10.2643 7.09478 10.8137C7.21909 11.2116 7.34383 11.6117 7.34383 11.9963ZM15.3953 6.20935C12.1268 6.20935 9.47725 8.85894 9.47725 12.1274C9.47725 15.3958 12.1268 18.0454 15.3953 18.0454C18.6638 18.0454 21.3133 15.3958 21.3133 12.1274C21.3133 8.85894 18.6638 6.20935 15.3953 6.20935Z" fill="#F4CE7B"/>
</svg>
