<svg width="153" height="25" viewBox="0 0 153 25" fill="none" xmlns="http://www.w3.org/2000/svg">
<rect x="0.890625" y="0.174316" width="151.521" height="24.0516" rx="5" fill="#061F31"/>
<path d="M30.132 18.1743V5.08341H38.5184V7.07133H32.5035V10.6253H37.9431V12.6132H32.5035V18.1743H30.132ZM44.1386 18.3661C43.1798 18.3661 42.3488 18.1551 41.6457 17.7333C40.9426 17.3114 40.3971 16.7212 40.0093 15.9627C39.6258 15.2041 39.434 14.3178 39.434 13.3036C39.434 12.2894 39.6258 11.4009 40.0093 10.6381C40.3971 9.87531 40.9426 9.28298 41.6457 8.86111C42.3488 8.43923 43.1798 8.22829 44.1386 8.22829C45.0974 8.22829 45.9284 8.43923 46.6315 8.86111C47.3346 9.28298 47.8779 9.87531 48.2615 10.6381C48.6492 11.4009 48.8431 12.2894 48.8431 13.3036C48.8431 14.3178 48.6492 15.2041 48.2615 15.9627C47.8779 16.7212 47.3346 17.3114 46.6315 17.7333C45.9284 18.1551 45.0974 18.3661 44.1386 18.3661ZM44.1514 16.5124C44.6713 16.5124 45.1059 16.3696 45.4553 16.0841C45.8048 15.7943 46.0647 15.4066 46.2352 14.9208C46.4099 14.435 46.4972 13.8938 46.4972 13.2972C46.4972 12.6963 46.4099 12.153 46.2352 11.6672C46.0647 11.1772 45.8048 10.7872 45.4553 10.4975C45.1059 10.2077 44.6713 10.0628 44.1514 10.0628C43.6187 10.0628 43.1755 10.2077 42.8218 10.4975C42.4724 10.7872 42.2103 11.1772 42.0356 11.6672C41.8651 12.153 41.7799 12.6963 41.7799 13.2972C41.7799 13.8938 41.8651 14.435 42.0356 14.9208C42.2103 15.4066 42.4724 15.7943 42.8218 16.0841C43.1755 16.3696 43.6187 16.5124 44.1514 16.5124ZM50.8071 18.1743V8.35613H53.0507V9.9925H53.153C53.3319 9.42574 53.6388 8.98895 54.0734 8.68213C54.5123 8.37105 55.0131 8.21551 55.5756 8.21551C55.7034 8.21551 55.8461 8.2219 56.0038 8.23468C56.1657 8.24321 56.3 8.25812 56.4065 8.27943V10.408C56.3085 10.3739 56.153 10.3441 55.9399 10.3185C55.7311 10.2887 55.5287 10.2737 55.3327 10.2737C54.9108 10.2737 54.5315 10.3654 54.1949 10.5486C53.8625 10.7276 53.6004 10.9769 53.4086 11.2965C53.2169 11.6161 53.121 11.9847 53.121 12.4023V18.1743H50.8071ZM61.8222 18.3661C60.8421 18.3661 60.0004 18.1509 59.2973 17.7205C58.5985 17.2901 58.0594 16.6956 57.6801 15.9371C57.3051 15.1743 57.1176 14.2965 57.1176 13.3036C57.1176 12.3064 57.3094 11.4264 57.6929 10.6637C58.0764 9.89662 58.6176 9.30003 59.3165 8.87389C60.0196 8.44349 60.8506 8.22829 61.8094 8.22829C62.6063 8.22829 63.3115 8.37531 63.9252 8.66934C64.5431 8.95912 65.0352 9.37034 65.4017 9.90301C65.7682 10.4314 65.977 11.0493 66.0281 11.7567H63.8165C63.727 11.2837 63.5139 10.8895 63.1773 10.5742C62.8449 10.2546 62.3996 10.0948 61.8414 10.0948C61.3683 10.0948 60.9529 10.2226 60.5949 10.4783C60.2369 10.7297 59.9578 11.0919 59.7575 11.5649C59.5615 12.038 59.4635 12.6047 59.4635 13.2652C59.4635 13.9343 59.5615 14.5095 59.7575 14.9911C59.9536 15.4684 60.2284 15.837 60.5821 16.0969C60.9401 16.3526 61.3598 16.4804 61.8414 16.4804C62.1823 16.4804 62.4869 16.4165 62.7554 16.2887C63.0281 16.1566 63.2561 15.9669 63.4394 15.7198C63.6226 15.4726 63.7483 15.1722 63.8165 14.8185H66.0281C65.9727 15.5131 65.7682 16.1289 65.4145 16.6658C65.0608 17.1985 64.5793 17.6161 63.9699 17.9186C63.3605 18.2169 62.6446 18.3661 61.8222 18.3661ZM72.2748 18.3661C71.2904 18.3661 70.4403 18.1615 69.7243 17.7524C69.0127 17.3391 68.4651 16.7553 68.0816 16.001C67.6981 15.2425 67.5063 14.3497 67.5063 13.3228C67.5063 12.3128 67.6981 11.4264 68.0816 10.6637C68.4694 9.89662 69.0106 9.30003 69.7052 8.87389C70.3998 8.44349 71.2158 8.22829 72.1533 8.22829C72.7584 8.22829 73.3295 8.3263 73.8664 8.52233C74.4076 8.71409 74.8849 9.01238 75.2982 9.41721C75.7158 9.82204 76.0439 10.3377 76.2826 10.9641C76.5212 11.5862 76.6405 12.3277 76.6405 13.1885V13.898H68.593V12.3384H74.4225C74.4182 11.8952 74.3224 11.501 74.1349 11.1559C73.9474 10.8064 73.6853 10.5316 73.3486 10.3313C73.0162 10.131 72.6285 10.0309 72.1853 10.0309C71.7123 10.0309 71.2968 10.1459 70.9388 10.376C70.5809 10.6019 70.3018 10.9002 70.1015 11.2709C69.9055 11.6374 69.8053 12.0401 69.801 12.479V13.8405C69.801 14.4115 69.9055 14.9016 70.1143 15.3107C70.3231 15.7155 70.615 16.0266 70.99 16.2439C71.365 16.457 71.8039 16.5635 72.3067 16.5635C72.6434 16.5635 72.9481 16.5166 73.2208 16.4229C73.4935 16.3249 73.73 16.1821 73.9303 15.9946C74.1306 15.8071 74.2819 15.5749 74.3841 15.2979L76.5447 15.5408C76.4083 16.1118 76.1483 16.6104 75.7648 17.0365C75.3856 17.4584 74.8998 17.7865 74.3074 18.0209C73.7151 18.251 73.0376 18.3661 72.2748 18.3661ZM78.5981 18.1743V8.35613H80.8417V9.9925H80.944C81.123 9.42574 81.4298 8.98895 81.8644 8.68213C82.3034 8.37105 82.8041 8.21551 83.3666 8.21551C83.4944 8.21551 83.6372 8.2219 83.7948 8.23468C83.9568 8.24321 84.091 8.25812 84.1975 8.27943V10.408C84.0995 10.3739 83.944 10.3441 83.7309 10.3185C83.5221 10.2887 83.3197 10.2737 83.1237 10.2737C82.7018 10.2737 82.3225 10.3654 81.9859 10.5486C81.6535 10.7276 81.3914 10.9769 81.1997 11.2965C81.0079 11.6161 80.912 11.9847 80.912 12.4023V18.1743H78.5981ZM92.5136 5.08341V18.1743H90.1997V5.08341H92.5136ZM99.2396 18.3661C98.2552 18.3661 97.4051 18.1615 96.6892 17.7524C95.9775 17.3391 95.43 16.7553 95.0464 16.001C94.6629 15.2425 94.4711 14.3497 94.4711 13.3228C94.4711 12.3128 94.6629 11.4264 95.0464 10.6637C95.4342 9.89662 95.9754 9.30003 96.67 8.87389C97.3646 8.44349 98.1807 8.22829 99.1182 8.22829C99.7233 8.22829 100.294 8.3263 100.831 8.52233C101.372 8.71409 101.85 9.01238 102.263 9.41721C102.681 9.82204 103.009 10.3377 103.247 10.9641C103.486 11.5862 103.605 12.3277 103.605 13.1885V13.898H95.5578V12.3384H101.387C101.383 11.8952 101.287 11.501 101.1 11.1559C100.912 10.8064 100.65 10.5316 100.313 10.3313C99.9811 10.131 99.5933 10.0309 99.1501 10.0309C98.6771 10.0309 98.2616 10.1459 97.9037 10.376C97.5457 10.6019 97.2666 10.9002 97.0663 11.2709C96.8703 11.6374 96.7702 12.0401 96.7659 12.479V13.8405C96.7659 14.4115 96.8703 14.9016 97.0791 15.3107C97.2879 15.7155 97.5798 16.0266 97.9548 16.2439C98.3298 16.457 98.7687 16.5635 99.2716 16.5635C99.6082 16.5635 99.9129 16.5166 100.186 16.4229C100.458 16.3249 100.695 16.1821 100.895 15.9946C101.095 15.8071 101.247 15.5749 101.349 15.2979L103.509 15.5408C103.373 16.1118 103.113 16.6104 102.73 17.0365C102.35 17.4584 101.865 17.7865 101.272 18.0209C100.68 18.251 100.002 18.3661 99.2396 18.3661ZM118.798 8.35613L115.301 18.1743H112.744L109.248 8.35613H111.715L113.972 15.6495H114.074L116.337 8.35613H118.798ZM124.348 18.3661C123.389 18.3661 122.558 18.1551 121.855 17.7333C121.152 17.3114 120.606 16.7212 120.218 15.9627C119.835 15.2041 119.643 14.3178 119.643 13.3036C119.643 12.2894 119.835 11.4009 120.218 10.6381C120.606 9.87531 121.152 9.28298 121.855 8.86111C122.558 8.43923 123.389 8.22829 124.348 8.22829C125.306 8.22829 126.137 8.43923 126.84 8.86111C127.544 9.28298 128.087 9.87531 128.47 10.6381C128.858 11.4009 129.052 12.2894 129.052 13.3036C129.052 14.3178 128.858 15.2041 128.47 15.9627C128.087 16.7212 127.544 17.3114 126.84 17.7333C126.137 18.1551 125.306 18.3661 124.348 18.3661ZM124.36 16.5124C124.88 16.5124 125.315 16.3696 125.664 16.0841C126.014 15.7943 126.274 15.4066 126.444 14.9208C126.619 14.435 126.706 13.8938 126.706 13.2972C126.706 12.6963 126.619 12.153 126.444 11.6672C126.274 11.1772 126.014 10.7872 125.664 10.4975C125.315 10.2077 124.88 10.0628 124.36 10.0628C123.828 10.0628 123.384 10.2077 123.031 10.4975C122.681 10.7872 122.419 11.1772 122.245 11.6672C122.074 12.153 121.989 12.6963 121.989 13.2972C121.989 13.8938 122.074 14.435 122.245 14.9208C122.419 15.4066 122.681 15.7943 123.031 16.0841C123.384 16.3696 123.828 16.5124 124.36 16.5124ZM135.919 8.35613V10.1459H130.275V8.35613H135.919ZM131.668 6.00386H133.982V15.2212C133.982 15.5323 134.029 15.7709 134.123 15.9371C134.221 16.099 134.348 16.2098 134.506 16.2695C134.664 16.3291 134.839 16.359 135.03 16.359C135.175 16.359 135.307 16.3483 135.427 16.327C135.55 16.3057 135.644 16.2865 135.708 16.2695L136.098 18.0784C135.974 18.121 135.797 18.1679 135.567 18.2191C135.341 18.2702 135.064 18.3 134.736 18.3085C134.157 18.3256 133.635 18.2382 133.17 18.0465C132.706 17.8505 132.337 17.5479 132.064 17.1388C131.796 16.7297 131.664 16.2184 131.668 15.6047V6.00386ZM142.095 18.3661C141.111 18.3661 140.261 18.1615 139.545 17.7524C138.833 17.3391 138.285 16.7553 137.902 16.001C137.518 15.2425 137.327 14.3497 137.327 13.3228C137.327 12.3128 137.518 11.4264 137.902 10.6637C138.29 9.89662 138.831 9.30003 139.525 8.87389C140.22 8.44349 141.036 8.22829 141.974 8.22829C142.579 8.22829 143.15 8.3263 143.687 8.52233C144.228 8.71409 144.705 9.01238 145.119 9.41721C145.536 9.82204 145.864 10.3377 146.103 10.9641C146.342 11.5862 146.461 12.3277 146.461 13.1885V13.898H138.413V12.3384H144.243C144.239 11.8952 144.143 11.501 143.955 11.1559C143.768 10.8064 143.506 10.5316 143.169 10.3313C142.837 10.131 142.449 10.0309 142.006 10.0309C141.533 10.0309 141.117 10.1459 140.759 10.376C140.401 10.6019 140.122 10.9002 139.922 11.2709C139.726 11.6374 139.626 12.0401 139.621 12.479V13.8405C139.621 14.4115 139.726 14.9016 139.935 15.3107C140.143 15.7155 140.435 16.0266 140.81 16.2439C141.185 16.457 141.624 16.5635 142.127 16.5635C142.464 16.5635 142.768 16.5166 143.041 16.4229C143.314 16.3249 143.55 16.1821 143.751 15.9946C143.951 15.8071 144.102 15.5749 144.204 15.2979L146.365 15.5408C146.229 16.1118 145.969 16.6104 145.585 17.0365C145.206 17.4584 144.72 17.7865 144.128 18.0209C143.535 18.251 142.858 18.3661 142.095 18.3661Z" fill="#9BE379"/>
<path d="M25.1039 8.9853C25.0282 8.80248 24.883 8.65725 24.7001 8.58155L11.9456 3.2986C11.5652 3.14113 11.1285 3.32167 10.9709 3.70234L5.68771 16.457C5.61191 16.6398 5.61191 16.8451 5.68771 17.028C5.7634 17.2108 5.90863 17.356 6.09146 17.4317L14.6562 20.9793C14.7476 21.0171 14.8447 21.0361 14.9417 21.0361C15.0388 21.0361 15.1358 21.0172 15.2272 20.9793L21.1522 18.5248C21.3351 18.4491 21.4803 18.3039 21.556 18.121L25.1038 9.55616C25.1796 9.37354 25.1796 9.16813 25.1039 8.9853ZM16.3204 18.9115L17.081 17.075L18.9174 17.8357L16.3204 18.9115ZM20.4631 16.8608L16.9627 15.411C16.5825 15.2535 16.1457 15.4341 15.988 15.8147L14.5381 19.3154L7.35154 16.3387L12.0638 4.96253L23.4399 9.67453L20.4631 16.8608Z" fill="#9BE379"/>
<path d="M18.8976 12.1264L18.3265 10.748L14.5065 12.3308L13.8579 10.7651L12.4795 11.3361L13.699 14.2803L18.8976 12.1264Z" fill="#9BE379"/>
</svg>
