<svg width="89" height="25" viewBox="0 0 89 25" fill="none" xmlns="http://www.w3.org/2000/svg">
<rect x="0.890625" y="0.937134" width="87.4424" height="24.0516" rx="5" fill="#061F31"/>
<path d="M30.132 18.9371V5.84622H32.5035V11.3881H38.5695V5.84622H40.9474V18.9371H38.5695V13.3761H32.5035V18.9371H30.132ZM49.6821 14.8079V9.11895H51.996V18.9371H49.7524V17.1921H49.6501C49.4285 17.7418 49.0642 18.1914 48.5571 18.5408C48.0542 18.8903 47.4342 19.065 46.697 19.065C46.0535 19.065 45.4846 18.9222 44.9903 18.6367C44.5003 18.3469 44.1167 17.9272 43.8398 17.3775C43.5628 16.8235 43.4243 16.1545 43.4243 15.3704V9.11895H45.7382V15.0124C45.7382 15.6346 45.9086 16.1289 46.2496 16.4954C46.5905 16.8618 47.0379 17.0451 47.5919 17.0451C47.9328 17.0451 48.2631 16.962 48.5827 16.7958C48.9023 16.6296 49.1643 16.3824 49.3689 16.0543C49.5777 15.7219 49.6821 15.3065 49.6821 14.8079ZM54.3754 18.9371V9.11895H56.6894V18.9371H54.3754ZM55.5388 7.72549C55.1723 7.72549 54.857 7.60404 54.5928 7.36114C54.3286 7.11398 54.1965 6.81781 54.1965 6.47264C54.1965 6.12321 54.3286 5.82705 54.5928 5.58415C54.857 5.33699 55.1723 5.21341 55.5388 5.21341C55.9095 5.21341 56.2249 5.33699 56.4848 5.58415C56.749 5.82705 56.8811 6.12321 56.8811 6.47264C56.8811 6.81781 56.749 7.11398 56.4848 7.36114C56.2249 7.60404 55.9095 7.72549 55.5388 7.72549ZM61.3827 5.84622V18.9371H59.0688V5.84622H61.3827ZM68.1088 19.1289C67.1244 19.1289 66.2742 18.9243 65.5583 18.5153C64.8467 18.1019 64.2991 17.5181 63.9156 16.7638C63.532 16.0053 63.3403 15.1126 63.3403 14.0856C63.3403 13.0756 63.532 12.1893 63.9156 11.4265C64.3034 10.6594 64.8445 10.0628 65.5392 9.63671C66.2338 9.20631 67.0498 8.99111 67.9873 8.99111C68.5924 8.99111 69.1634 9.08912 69.7004 9.28514C70.2416 9.47691 70.7188 9.7752 71.1322 10.18C71.5498 10.5849 71.8779 11.1005 72.1166 11.7269C72.3552 12.3491 72.4745 13.0905 72.4745 13.9513V14.6609H64.4269V13.1012H70.2565C70.2522 12.658 70.1563 12.2638 69.9688 11.9187C69.7813 11.5692 69.5193 11.2944 69.1826 11.0941C68.8502 10.8938 68.4624 10.7937 68.0193 10.7937C67.5463 10.7937 67.1308 10.9087 66.7728 11.1388C66.4149 11.3647 66.1357 11.663 65.9355 12.0337C65.7394 12.4002 65.6393 12.8029 65.635 13.2418V14.6033C65.635 15.1743 65.7394 15.6644 65.9482 16.0735C66.157 16.4783 66.449 16.7894 66.824 17.0067C67.199 17.2198 67.6379 17.3263 68.1407 17.3263C68.4774 17.3263 68.782 17.2795 69.0548 17.1857C69.3275 17.0877 69.564 16.9449 69.7643 16.7574C69.9646 16.5699 70.1159 16.3377 70.2181 16.0607L72.3786 16.3036C72.2423 16.8746 71.9823 17.3732 71.5988 17.7993C71.2195 18.2212 70.7338 18.5493 70.1414 18.7837C69.5491 19.0138 68.8715 19.1289 68.1088 19.1289ZM74.4321 18.9371V9.11895H76.6757V10.7553H76.778C76.9569 10.1886 77.2638 9.75176 77.6984 9.44495C78.1373 9.13387 78.6381 8.97833 79.2006 8.97833C79.3284 8.97833 79.4711 8.98472 79.6288 8.9975C79.7907 9.00603 79.925 9.02094 80.0315 9.04225V11.1708C79.9335 11.1367 79.778 11.1069 79.5649 11.0813C79.3561 11.0515 79.1537 11.0366 78.9577 11.0366C78.5358 11.0366 78.1565 11.1282 77.8199 11.3114C77.4875 11.4904 77.2254 11.7397 77.0336 12.0593C76.8419 12.3789 76.746 12.7475 76.746 13.1651V18.9371H74.4321Z" fill="#FFCF4A"/>
<path d="M22.9369 14.9483C22.9369 18.7402 20.6035 20.4041 18.8004 20.9652C18.4159 21.0848 18.1632 20.6366 18.3932 20.306C19.1779 19.1784 20.0849 17.458 20.0849 15.8396C20.0849 14.1011 18.6196 12.0486 17.4754 10.7826C17.2138 10.4932 16.7575 10.6847 16.7433 11.0746C16.696 12.3662 16.4921 14.0943 15.6133 15.4487C15.4718 15.6667 15.1716 15.6847 15.0103 15.4808C14.7357 15.1335 14.4611 14.7045 14.1865 14.3656C14.0386 14.1831 13.7712 14.1806 13.6006 14.3421C12.9354 14.9719 12.0041 15.9542 12.0041 17.1765C12.0041 18.0052 12.3252 18.8741 12.6875 19.5731C12.8868 19.9577 12.5324 20.4206 12.1489 20.2194C10.5601 19.3856 8.67676 17.6966 8.67676 14.9483C8.67676 12.144 12.5183 8.25924 13.9851 4.58911C14.2166 4.00998 14.9299 3.73784 15.426 4.11577C18.4306 6.40458 22.9369 10.829 22.9369 14.9483Z" fill="#FFCF4A"/>
</svg>
