<svg width="89" height="25" viewBox="0 0 89 25" fill="none" xmlns="http://www.w3.org/2000/svg">
<rect x="0.980469" y="0.937134" width="87.4424" height="24.0516" rx="5" fill="#FFCF4A"/>
<path d="M30.2219 18.9371V5.84622H32.5933V11.3881H38.6594V5.84622H41.0372V18.9371H38.6594V13.3761H32.5933V18.9371H30.2219ZM49.7719 14.8079V9.11895H52.0858V18.9371H49.8422V17.1921H49.74C49.5184 17.7418 49.154 18.1914 48.6469 18.5408C48.1441 18.8903 47.5241 19.065 46.7868 19.065C46.1434 19.065 45.5745 18.9222 45.0802 18.6367C44.5901 18.3469 44.2066 17.9272 43.9296 17.3775C43.6526 16.8235 43.5141 16.1545 43.5141 15.3704V9.11895H45.828V15.0124C45.828 15.6346 45.9985 16.1289 46.3394 16.4954C46.6803 16.8618 47.1278 17.0451 47.6817 17.0451C48.0226 17.0451 48.3529 16.962 48.6725 16.7958C48.9921 16.6296 49.2542 16.3824 49.4587 16.0543C49.6675 15.7219 49.7719 15.3065 49.7719 14.8079ZM54.4653 18.9371V9.11895H56.7792V18.9371H54.4653ZM55.6286 7.72549C55.2622 7.72549 54.9468 7.60404 54.6826 7.36114C54.4184 7.11398 54.2863 6.81781 54.2863 6.47264C54.2863 6.12321 54.4184 5.82705 54.6826 5.58415C54.9468 5.33699 55.2622 5.21341 55.6286 5.21341C55.9994 5.21341 56.3147 5.33699 56.5747 5.58415C56.8389 5.82705 56.971 6.12321 56.971 6.47264C56.971 6.81781 56.8389 7.11398 56.5747 7.36114C56.3147 7.60404 55.9994 7.72549 55.6286 7.72549ZM61.4726 5.84622V18.9371H59.1586V5.84622H61.4726ZM68.1986 19.1289C67.2142 19.1289 66.3641 18.9243 65.6482 18.5153C64.9365 18.1019 64.3889 17.5181 64.0054 16.7638C63.6219 16.0053 63.4301 15.1126 63.4301 14.0856C63.4301 13.0756 63.6219 12.1893 64.0054 11.4265C64.3932 10.6594 64.9344 10.0628 65.629 9.63671C66.3236 9.20631 67.1396 8.99111 68.0771 8.99111C68.6823 8.99111 69.2533 9.08912 69.7902 9.28514C70.3314 9.47691 70.8087 9.7752 71.222 10.18C71.6396 10.5849 71.9678 11.1005 72.2064 11.7269C72.445 12.3491 72.5644 13.0905 72.5644 13.9513V14.6609H64.5168V13.1012H70.3463C70.3421 12.658 70.2462 12.2638 70.0587 11.9187C69.8712 11.5692 69.6091 11.2944 69.2725 11.0941C68.9401 10.8938 68.5523 10.7937 68.1091 10.7937C67.6361 10.7937 67.2206 10.9087 66.8627 11.1388C66.5047 11.3647 66.2256 11.663 66.0253 12.0337C65.8293 12.4002 65.7291 12.8029 65.7249 13.2418V14.6033C65.7249 15.1743 65.8293 15.6644 66.0381 16.0735C66.2469 16.4783 66.5388 16.7894 66.9138 17.0067C67.2888 17.2198 67.7277 17.3263 68.2306 17.3263C68.5672 17.3263 68.8719 17.2795 69.1446 17.1857C69.4173 17.0877 69.6539 16.9449 69.8541 16.7574C70.0544 16.5699 70.2057 16.3377 70.308 16.0607L72.4685 16.3036C72.3321 16.8746 72.0722 17.3732 71.6887 17.7993C71.3094 18.2212 70.8236 18.5493 70.2313 18.7837C69.6389 19.0138 68.9614 19.1289 68.1986 19.1289ZM74.5219 18.9371V9.11895H76.7655V10.7553H76.8678C77.0468 10.1886 77.3536 9.75176 77.7883 9.44495C78.2272 9.13387 78.7279 8.97833 79.2904 8.97833C79.4182 8.97833 79.561 8.98472 79.7187 8.9975C79.8806 9.00603 80.0148 9.02094 80.1214 9.04225V11.1708C80.0233 11.1367 79.8678 11.1069 79.6547 11.0813C79.4459 11.0515 79.2435 11.0366 79.0475 11.0366C78.6256 11.0366 78.2464 11.1282 77.9097 11.3114C77.5773 11.4904 77.3153 11.7397 77.1235 12.0593C76.9317 12.3789 76.8358 12.7475 76.8358 13.1651V18.9371H74.5219Z" fill="#061F31"/>
<path d="M23.0268 14.9483C23.0268 18.7402 20.6934 20.4041 18.8903 20.9652C18.5058 21.0848 18.253 20.6366 18.483 20.306C19.2677 19.1784 20.1747 17.458 20.1747 15.8396C20.1747 14.1011 18.7094 12.0486 17.5652 10.7826C17.3036 10.4932 16.8474 10.6847 16.8331 11.0746C16.7858 12.3662 16.582 14.0943 15.7031 15.4487C15.5617 15.6667 15.2614 15.6847 15.1002 15.4808C14.8256 15.1335 14.551 14.7045 14.2764 14.3656C14.1284 14.1831 13.8611 14.1806 13.6905 14.3421C13.0253 14.9719 12.094 15.9542 12.094 17.1765C12.094 18.0052 12.4151 18.8741 12.7773 19.5731C12.9766 19.9577 12.6223 20.4206 12.2387 20.2194C10.6499 19.3856 8.7666 17.6966 8.7666 14.9483C8.7666 12.144 12.6082 8.25924 14.075 4.58911C14.3064 4.00998 15.0198 3.73784 15.5158 4.11577C18.5205 6.40458 23.0268 10.829 23.0268 14.9483Z" fill="#061F31"/>
</svg>
