<svg width="81" height="27" viewBox="0 0 81 27" fill="none" xmlns="http://www.w3.org/2000/svg">
<path d="M22.0333 14.7116C22.0333 19.4821 19.0976 21.5754 16.8292 22.2814C16.3455 22.4319 16.0275 21.868 16.3169 21.4521C17.304 20.0334 18.4452 17.869 18.4452 15.8329C18.4452 13.6457 16.6017 11.0635 15.1622 9.47086C14.8331 9.10678 14.2591 9.34764 14.2412 9.8382C14.1816 11.4632 13.9252 13.6372 12.8195 15.3411C12.6415 15.6154 12.2638 15.638 12.0609 15.3816C11.7155 14.9446 11.37 14.4049 11.0245 13.9785C10.8384 13.7489 10.5021 13.7457 10.2874 13.9489C9.45053 14.7413 8.27889 15.9771 8.27889 17.5148C8.27889 18.5575 8.68285 19.6506 9.13862 20.5301C9.38935 21.0139 8.94351 21.5963 8.46098 21.3431C6.46212 20.2941 4.09277 18.1692 4.09277 14.7116C4.09277 11.1836 8.92582 6.29622 10.7712 1.67888C11.0623 0.950285 11.9598 0.607913 12.5839 1.08338C16.364 3.9629 22.0333 9.52917 22.0333 14.7116Z" fill="#FFCF4A"/>
<path d="M27.7775 18.864V5.7731H30.149V11.315H36.215V5.7731H38.5929V18.864H36.215V13.3029H30.149V18.864H27.7775ZM47.3276 14.7348V9.04583H49.6415V18.864H47.3979V17.119H47.2956C47.074 17.6687 46.7097 18.1183 46.2026 18.4677C45.6998 18.8171 45.0797 18.9919 44.3425 18.9919C43.699 18.9919 43.1301 18.8491 42.6358 18.5636C42.1458 18.2738 41.7623 17.8541 41.4853 17.3044C41.2083 16.7504 41.0698 16.0813 41.0698 15.2973V9.04583H43.3837V14.9393C43.3837 15.5615 43.5542 16.0558 43.8951 16.4223C44.236 16.7887 44.6834 16.972 45.2374 16.972C45.5783 16.972 45.9086 16.8889 46.2282 16.7227C46.5478 16.5565 46.8098 16.3093 47.0144 15.9812C47.2232 15.6488 47.3276 15.2333 47.3276 14.7348ZM52.021 18.864V9.04583H54.3349V18.864H52.021ZM53.1843 7.65237C52.8178 7.65237 52.5025 7.53092 52.2383 7.28802C51.9741 7.04086 51.842 6.74469 51.842 6.39952C51.842 6.05009 51.9741 5.75393 52.2383 5.51103C52.5025 5.26387 52.8178 5.14029 53.1843 5.14029C53.555 5.14029 53.8704 5.26387 54.1303 5.51103C54.3945 5.75393 54.5266 6.05009 54.5266 6.39952C54.5266 6.74469 54.3945 7.04086 54.1303 7.28802C53.8704 7.53092 53.555 7.65237 53.1843 7.65237ZM59.0282 5.7731V18.864H56.7143V5.7731H59.0282ZM65.7543 19.0558C64.7699 19.0558 63.9197 18.8512 63.2038 18.4421C62.4922 18.0288 61.9446 17.445 61.5611 16.6907C61.1776 15.9322 60.9858 15.0394 60.9858 14.0125C60.9858 13.0025 61.1776 12.1161 61.5611 11.3534C61.9489 10.5863 62.4901 9.98972 63.1847 9.56359C63.8793 9.13319 64.6953 8.91799 65.6328 8.91799C66.2379 8.91799 66.8089 9.016 67.3459 9.21202C67.8871 9.40379 68.3643 9.70208 68.7777 10.1069C69.1953 10.5117 69.5234 11.0274 69.7621 11.6538C70.0007 12.2759 70.12 13.0174 70.12 13.8782V14.5877H62.0724V13.0281H67.902C67.8977 12.5849 67.8018 12.1907 67.6143 11.8455C67.4268 11.4961 67.1648 11.2213 66.8281 11.021C66.4957 10.8207 66.108 10.7205 65.6648 10.7205C65.1918 10.7205 64.7763 10.8356 64.4183 11.0657C64.0604 11.2916 63.7813 11.5899 63.581 11.9606C63.3849 12.3271 63.2848 12.7298 63.2805 13.1687V14.5302C63.2805 15.1012 63.3849 15.5913 63.5938 16.0004C63.8026 16.4052 64.0945 16.7163 64.4695 16.9336C64.8445 17.1467 65.2834 17.2532 65.7862 17.2532C66.1229 17.2532 66.4276 17.2063 66.7003 17.1126C66.973 17.0146 67.2095 16.8718 67.4098 16.6843C67.6101 16.4968 67.7614 16.2646 67.8636 15.9876L70.0241 16.2305C69.8878 16.8015 69.6278 17.3001 69.2443 17.7262C68.8651 18.1481 68.3793 18.4762 67.7869 18.7106C67.1946 18.9407 66.517 19.0558 65.7543 19.0558ZM72.0776 18.864V9.04583H74.3212V10.6822H74.4235C74.6025 10.1154 74.9093 9.67864 75.3439 9.37183C75.7828 9.06075 76.2836 8.90521 76.8461 8.90521C76.9739 8.90521 77.1167 8.9116 77.2743 8.92438C77.4363 8.93291 77.5705 8.94782 77.677 8.96913V11.0977C77.579 11.0636 77.4235 11.0338 77.2104 11.0082C77.0016 10.9784 76.7992 10.9634 76.6032 10.9634C76.1813 10.9634 75.802 11.0551 75.4654 11.2383C75.133 11.4173 74.8709 11.6666 74.6792 11.9862C74.4874 12.3058 74.3915 12.6744 74.3915 13.092V18.864H72.0776Z" fill="#FFCF4A"/>
</svg>
