<svg width="103" height="25" viewBox="0 0 103 25" fill="none" xmlns="http://www.w3.org/2000/svg">
<rect x="0.626953" y="0.566528" width="102.089" height="24.0516" rx="5" fill="#E85660"/>
<path d="M32.2398 5.47562V18.5665H29.8683V5.47562H32.2398ZM37.0194 12.8137V18.5665H34.7055V8.74835H36.9172V10.4167H37.0322C37.2581 9.86695 37.6182 9.43016 38.1125 9.1063C38.6111 8.78244 39.2268 8.62051 39.9598 8.62051C40.6373 8.62051 41.2275 8.76539 41.7304 9.05516C42.2375 9.34494 42.6295 9.76468 42.9065 10.3144C43.1878 10.8641 43.3263 11.531 43.322 12.3151V18.5665H41.0081V12.6731C41.0081 12.0168 40.8376 11.5033 40.4967 11.1326C40.1601 10.7618 39.6934 10.5765 39.0969 10.5765C38.692 10.5765 38.3319 10.666 38.0166 10.8449C37.7055 11.0197 37.4605 11.2732 37.2815 11.6056C37.1068 11.938 37.0194 12.3407 37.0194 12.8137ZM50.6473 8.74835V10.5381H44.8433V8.74835H50.6473ZM46.2943 18.5665V7.8215C46.2943 7.16099 46.4307 6.61127 46.7034 6.17235C46.9804 5.73343 47.3511 5.40531 47.8156 5.18798C48.2801 4.97065 48.7957 4.86198 49.3625 4.86198C49.7631 4.86198 50.1189 4.89394 50.43 4.95786C50.741 5.02178 50.9711 5.07931 51.1203 5.13045L50.6601 6.92022C50.5621 6.89039 50.4385 6.86056 50.2893 6.83073C50.1402 6.79664 49.974 6.7796 49.7907 6.7796C49.3604 6.7796 49.0557 6.884 48.8767 7.09281C48.702 7.29735 48.6146 7.59139 48.6146 7.97491V18.5665H46.2943ZM56.4369 18.7583C55.4525 18.7583 54.6024 18.5537 53.8865 18.1447C53.1748 17.7313 52.6272 17.1475 52.2437 16.3932C51.8602 15.6347 51.6684 14.742 51.6684 13.715C51.6684 12.705 51.8602 11.8187 52.2437 11.0559C52.6315 10.2888 53.1727 9.69224 53.8673 9.2661C54.5619 8.8357 55.3779 8.62051 56.3154 8.62051C56.9205 8.62051 57.4916 8.71852 58.0285 8.91454C58.5697 9.1063 59.047 9.4046 59.4603 9.80943C59.8779 10.2143 60.2061 10.7299 60.4447 11.3563C60.6833 11.9785 60.8026 12.7199 60.8026 13.5807V14.2902H52.7551V12.7306H58.5846C58.5803 12.2874 58.4845 11.8932 58.297 11.5481C58.1095 11.1986 57.8474 10.9238 57.5107 10.7235C57.1784 10.5232 56.7906 10.4231 56.3474 10.4231C55.8744 10.4231 55.4589 10.5381 55.1009 10.7682C54.743 10.9941 54.4639 11.2924 54.2636 11.6631C54.0676 12.0296 53.9674 12.4323 53.9632 12.8712V14.2327C53.9632 14.8037 54.0676 15.2938 54.2764 15.7029C54.4852 16.1077 54.7771 16.4188 55.1521 16.6361C55.5271 16.8492 55.966 16.9557 56.4688 16.9557C56.8055 16.9557 57.1102 16.9089 57.3829 16.8151C57.6556 16.7171 57.8921 16.5743 58.0924 16.3868C58.2927 16.1993 58.444 15.9671 58.5463 15.6901L60.7068 15.933C60.5704 16.504 60.3105 17.0026 59.9269 17.4287C59.5477 17.8506 59.0619 18.1787 58.4695 18.4131C57.8772 18.6432 57.1997 18.7583 56.4369 18.7583ZM67.0429 18.7583C66.0628 18.7583 65.2211 18.5431 64.518 18.1127C63.8192 17.6823 63.2801 17.0878 62.9008 16.3293C62.5258 15.5665 62.3383 14.6887 62.3383 13.6958C62.3383 12.6986 62.5301 11.8187 62.9136 11.0559C63.2971 10.2888 63.8383 9.69224 64.5372 9.2661C65.2403 8.8357 66.0713 8.62051 67.0301 8.62051C67.827 8.62051 68.5322 8.76752 69.1459 9.06156C69.7638 9.35133 70.2559 9.76255 70.6224 10.2952C70.9889 10.8236 71.1977 11.4415 71.2488 12.1489H69.0372C68.9477 11.6759 68.7346 11.2817 68.398 10.9664C68.0656 10.6468 67.6203 10.487 67.0621 10.487C66.589 10.487 66.1736 10.6148 65.8156 10.8705C65.4577 11.1219 65.1785 11.4841 64.9782 11.9572C64.7822 12.4302 64.6842 12.9969 64.6842 13.6574C64.6842 14.3265 64.7822 14.9018 64.9782 15.3833C65.1743 15.8606 65.4491 16.2292 65.8028 16.4891C66.1608 16.7448 66.5805 16.8726 67.0621 16.8726C67.403 16.8726 67.7077 16.8087 67.9761 16.6809C68.2488 16.5488 68.4768 16.3591 68.6601 16.112C68.8433 15.8648 68.969 15.5644 69.0372 15.2107H71.2488C71.1934 15.9053 70.9889 16.5211 70.6352 17.058C70.2815 17.5907 69.8 18.0083 69.1906 18.3108C68.5812 18.6091 67.8653 18.7583 67.0429 18.7583ZM78.0516 8.74835V10.5381H72.4074V8.74835H78.0516ZM73.8009 6.39607H76.1148V15.6134C76.1148 15.9245 76.1617 16.1631 76.2554 16.3293C76.3534 16.4912 76.4813 16.602 76.6389 16.6617C76.7966 16.7214 76.9713 16.7512 77.1631 16.7512C77.308 16.7512 77.4401 16.7405 77.5594 16.7192C77.683 16.6979 77.7767 16.6787 77.8406 16.6617L78.2306 18.4706C78.107 18.5133 77.9301 18.5601 77.7 18.6113C77.4742 18.6624 77.1972 18.6922 76.8691 18.7008C76.2895 18.7178 75.7675 18.6304 75.303 18.4387C74.8385 18.2427 74.4699 17.9401 74.1972 17.531C73.9287 17.1219 73.7966 16.6106 73.8009 15.9969V6.39607ZM84.2279 18.7583C83.2435 18.7583 82.3934 18.5537 81.6775 18.1447C80.9658 17.7313 80.4182 17.1475 80.0347 16.3932C79.6512 15.6347 79.4594 14.742 79.4594 13.715C79.4594 12.705 79.6512 11.8187 80.0347 11.0559C80.4225 10.2888 80.9637 9.69224 81.6583 9.2661C82.3529 8.8357 83.1689 8.62051 84.1064 8.62051C84.7116 8.62051 85.2826 8.71852 85.8195 8.91454C86.3607 9.1063 86.838 9.4046 87.2513 9.80943C87.6689 10.2143 87.9971 10.7299 88.2357 11.3563C88.4743 11.9785 88.5937 12.7199 88.5937 13.5807V14.2902H80.5461V12.7306H86.3756C86.3714 12.2874 86.2755 11.8932 86.088 11.5481C85.9005 11.1986 85.6384 10.9238 85.3018 10.7235C84.9694 10.5232 84.5816 10.4231 84.1384 10.4231C83.6654 10.4231 83.2499 10.5381 82.892 10.7682C82.534 10.9941 82.2549 11.2924 82.0546 11.6631C81.8586 12.0296 81.7584 12.4323 81.7542 12.8712V14.2327C81.7542 14.8037 81.8586 15.2938 82.0674 15.7029C82.2762 16.1077 82.5681 16.4188 82.9431 16.6361C83.3181 16.8492 83.757 16.9557 84.2599 16.9557C84.5965 16.9557 84.9012 16.9089 85.1739 16.8151C85.4466 16.7171 85.6831 16.5743 85.8834 16.3868C86.0837 16.1993 86.235 15.9671 86.3373 15.6901L88.4978 15.933C88.3614 16.504 88.1015 17.0026 87.718 17.4287C87.3387 17.8506 86.8529 18.1787 86.2606 18.4131C85.6682 18.6432 84.9907 18.7583 84.2279 18.7583ZM90.5512 18.5665V8.74835H92.7948V10.3847H92.8971C93.0761 9.81795 93.3829 9.38116 93.8176 9.07434C94.2565 8.76326 94.7572 8.60772 95.3197 8.60772C95.4475 8.60772 95.5903 8.61411 95.748 8.6269C95.9099 8.63542 96.0441 8.65033 96.1507 8.67164V10.8002C96.0526 10.7661 95.8971 10.7363 95.684 10.7107C95.4752 10.6809 95.2728 10.666 95.0768 10.666C94.6549 10.666 94.2757 10.7576 93.939 10.9408C93.6066 11.1198 93.3445 11.3691 93.1528 11.6887C92.961 12.0083 92.8651 12.3769 92.8651 12.7945V18.5665H90.5512Z" fill="#061F31"/>
<path d="M7.73071 21.8793C7.73068 21.8793 7.7306 21.8793 7.73057 21.8792C7.71205 21.848 7.65664 21.8013 7.60733 21.7755C7.53021 21.735 7.51422 21.7412 7.49377 21.8194C7.4703 21.9092 7.4687 21.9093 7.38191 21.8308C7.3161 21.7712 7.27592 21.7618 7.2228 21.7934C7.12319 21.8526 7.01741 21.8207 6.99209 21.7239C6.97893 21.6736 6.92061 21.6319 6.84096 21.616C6.76962 21.6017 6.71125 21.5754 6.71125 21.5576C6.71125 21.5397 6.64967 21.5251 6.57441 21.5251C6.49915 21.5251 6.37172 21.497 6.29124 21.4628V21.4628C6.26328 21.4509 6.27299 21.4089 6.30332 21.4109V21.4109C6.39043 21.4166 6.47026 21.4074 6.4807 21.3905C6.49115 21.3736 6.58033 21.3753 6.67888 21.3943C6.83976 21.4253 6.86681 21.4183 6.94355 21.3259C6.99057 21.2693 7.0708 21.223 7.12184 21.223C7.17289 21.223 7.21466 21.2035 7.21466 21.1796C7.21466 21.1513 7.24024 21.1498 7.28807 21.1753C7.42548 21.2485 7.97299 21.2013 8.27302 21.0903C8.58621 20.9745 8.72487 20.8716 8.72487 20.7551C8.72487 20.6807 8.63378 20.651 8.47317 20.6731C8.43856 20.6779 8.31586 20.6867 8.20049 20.6928C8.07266 20.6995 7.99447 20.7222 8.0003 20.7509C8.00661 20.7819 7.96041 20.7899 7.86431 20.7743C7.78184 20.7609 7.69395 20.7713 7.6615 20.7982C7.62846 20.8257 7.54848 20.8346 7.47247 20.8194C7.39134 20.8032 7.3162 20.8134 7.2769 20.846C7.22482 20.8893 7.19911 20.8864 7.13715 20.8303C7.04065 20.7429 6.97742 20.7432 6.92825 20.8311C6.89289 20.8943 6.87792 20.8924 6.76238 20.8101C6.62459 20.712 6.54345 20.6946 6.54345 20.7631C6.54345 20.8262 6.37599 20.7298 6.37433 20.6657C6.37217 20.5824 6.20019 20.4823 5.9767 20.4342C5.86156 20.4094 5.70129 20.3587 5.62054 20.3215C5.47561 20.2548 5.47847 20.2543 5.84196 20.2774C6.14998 20.297 6.21429 20.2902 6.23509 20.236C6.28108 20.1162 6.50254 20.0575 6.75384 20.0986C7.39355 20.2031 7.4845 20.2053 7.97526 20.1275C8.24362 20.085 8.51263 20.0314 8.57306 20.0084C8.71417 19.9547 8.71887 19.8032 8.58336 19.6759C8.49241 19.5904 8.47804 19.5881 8.41719 19.649C8.3624 19.7038 8.33579 19.7064 8.26739 19.6636C8.19851 19.6206 8.17056 19.624 8.10479 19.6836C8.04801 19.7349 7.98756 19.7479 7.8927 19.7289C7.7873 19.7078 7.76001 19.7164 7.76001 19.7705C7.76001 19.845 7.68816 19.8583 7.59708 19.8006C7.56449 19.78 7.48439 19.7795 7.41448 19.7995C7.33205 19.8232 7.23465 19.8162 7.12644 19.7789C6.98808 19.7312 6.96295 19.7315 6.96295 19.7806C6.96295 19.8574 6.90234 19.8543 6.83581 19.7742C6.80639 19.7387 6.75216 19.7133 6.71531 19.7178C6.67847 19.7223 6.59411 19.7037 6.52786 19.6765C6.44318 19.6418 6.39161 19.6402 6.35426 19.6712C6.27749 19.7349 6.11732 19.6512 6.03222 19.503C5.98646 19.4232 5.84947 19.3242 5.63418 19.2152C5.25907 19.0252 5.28449 18.9463 5.67724 19.0814C5.91475 19.1631 5.92221 19.1632 6.00449 19.0866C6.15793 18.9436 6.42287 18.9552 6.85644 19.1238C6.92476 19.1504 7.02271 19.1615 7.07411 19.1486C7.12551 19.1357 7.18051 19.1461 7.19633 19.1717C7.21586 19.2033 7.32776 19.2093 7.54499 19.1902C7.72093 19.1748 7.96687 19.1532 8.09152 19.1422C8.301 19.1236 8.55707 19.0011 8.55707 18.9194C8.55707 18.8713 8.41137 18.7479 8.3545 18.7479C8.32748 18.7479 8.30537 18.7668 8.30537 18.7899C8.30537 18.8445 8.15029 18.8444 8.11652 18.7898C8.09914 18.7616 8.06447 18.7616 8.01193 18.7898C7.90365 18.8477 7.77087 18.8425 7.74801 18.7794C7.73306 18.7381 7.71074 18.7377 7.64322 18.7775C7.57418 18.8182 7.54765 18.8163 7.50748 18.7679C7.46987 18.7226 7.43723 18.7186 7.37524 18.7518C7.31367 18.7847 7.26855 18.7799 7.19621 18.7325C7.14301 18.6976 7.05922 18.6796 7.01002 18.6925C6.96081 18.7053 6.89229 18.6924 6.85775 18.6637C6.82029 18.6327 6.74366 18.6219 6.66786 18.637C6.55858 18.6589 6.53498 18.6472 6.49941 18.5537C6.46823 18.4716 6.43681 18.4504 6.37175 18.4674C6.28216 18.4909 6.12394 18.3875 6.12394 18.3056C6.12394 18.2447 5.80888 18.0906 5.61005 18.0542C5.52353 18.0384 5.45273 18.0087 5.45273 17.9881C5.45273 17.9434 5.9015 17.9436 6.01594 17.9885C6.07016 18.0097 6.12113 17.9957 6.17101 17.9458C6.26339 17.8534 6.61485 17.8714 6.77557 17.9767C6.83393 18.0149 6.893 18.0349 6.90685 18.021C6.92071 18.0072 6.97203 18.0181 7.02091 18.0452C7.06979 18.0724 7.15895 18.0972 7.21906 18.1004C7.27916 18.1036 7.35177 18.1207 7.38041 18.1384C7.44757 18.1799 8.40842 18.209 8.59395 18.1752C8.68296 18.1589 8.74331 18.1202 8.75615 18.0711C8.76741 18.0281 8.80096 17.9929 8.83071 17.9929C8.91734 17.9929 8.85555 17.8444 8.73041 17.7519C8.6681 17.7058 8.52338 17.6564 8.4088 17.6421C8.29423 17.6277 8.15944 17.6078 8.10926 17.5977C7.99259 17.5743 7.67611 17.2689 7.67611 17.1798C7.67611 17.1425 7.65868 17.1119 7.63738 17.1119C7.61608 17.1119 7.54528 17.069 7.48006 17.0165C7.41484 16.9641 7.30485 16.9151 7.23563 16.9076C7.16641 16.9001 7.10034 16.8841 7.0888 16.872C7.05564 16.8371 7.63928 16.9062 7.75751 16.9511C7.81609 16.9734 7.92556 16.9801 8.00079 16.966C8.08432 16.9503 8.13757 16.9574 8.13757 16.9842C8.13757 17.0387 8.30728 17.0412 8.44526 16.9887C8.53098 16.9561 8.5523 16.9633 8.56991 17.0307C8.58325 17.0816 8.62781 17.1121 8.68948 17.1125C8.85158 17.1135 8.97658 17.1601 8.97658 17.2197C8.97658 17.2708 9.21321 17.3628 9.34612 17.3634C9.37632 17.3635 9.38885 17.3833 9.37397 17.4074C9.32057 17.4938 9.44433 17.5787 9.58023 17.5488C9.69145 17.5244 9.70194 17.5291 9.65693 17.5833C9.57881 17.6775 9.69309 17.7563 9.85582 17.7206C9.97221 17.695 9.98339 17.702 9.98339 17.8008C9.98339 17.9189 10.0369 17.9344 10.2131 17.8674C10.3064 17.832 10.3207 17.8366 10.3103 17.8989C10.3021 17.9475 10.3296 17.9764 10.3924 17.9853C10.4443 17.9927 10.4868 18.0138 10.4868 18.0322C10.4868 18.0507 10.5942 18.0682 10.7255 18.0713C10.8568 18.0743 10.9748 18.0935 10.9877 18.114C11.0006 18.1344 11.082 18.1468 11.1685 18.1414C11.255 18.136 11.3258 18.1433 11.3258 18.1576C11.3258 18.1719 11.4485 18.1891 11.5985 18.1958C11.8231 18.2059 11.8712 18.1965 11.8712 18.1424C11.8712 18.1063 11.8498 18.0768 11.8236 18.0768C11.7975 18.0768 11.7454 18.0438 11.7078 18.0034C11.6703 17.963 11.5934 17.9038 11.537 17.8718C11.4542 17.8248 11.431 17.8241 11.4164 17.868C11.4053 17.9011 11.3276 17.842 11.2168 17.7164C11.0577 17.5357 11.0352 17.5224 11.0338 17.6073C11.0316 17.7376 10.9615 17.6871 10.9271 17.5306C10.8956 17.3872 10.7762 17.3007 10.7064 17.3706C10.6744 17.4026 10.6364 17.3665 10.5747 17.2456C10.4659 17.0323 10.4129 16.999 10.3385 17.0972C10.2834 17.17 10.2796 17.1679 10.2784 17.0625C10.2762 16.8827 10.0654 16.7306 10.0125 16.8707C10.0017 16.8995 9.96127 16.8504 9.92279 16.7616C9.86942 16.6383 9.8341 16.6049 9.77383 16.6206C9.71119 16.637 9.68343 16.6054 9.63984 16.4679C9.58305 16.2889 9.45837 16.2141 9.39303 16.3198C9.358 16.3765 9.30002 16.2704 9.26423 16.0841C9.25456 16.0338 9.21476 16.0002 9.16478 16.0002C9.06518 16.0002 9.02004 15.9472 9.01917 15.8293C9.01838 15.7312 8.84012 15.5424 8.79289 15.5896C8.74699 15.6355 8.68146 15.5077 8.70768 15.4234C8.76762 15.2308 8.54724 15.0422 8.4158 15.1736C8.35246 15.237 8.34678 15.2359 8.34014 15.1597C8.32602 14.9975 8.31546 14.9495 8.2636 14.8119C8.21925 14.6942 8.19538 14.6762 8.11136 14.6973C8.00679 14.7236 8.0083 14.7271 7.99529 14.4271C7.9915 14.3397 7.97153 14.3235 7.87537 14.3301C7.76772 14.3375 7.76001 14.327 7.76001 14.1728C7.76001 14.0537 7.74239 14.0076 7.69693 14.0076C7.65154 14.0076 7.63683 13.9693 7.64449 13.8713C7.65334 13.7579 7.63922 13.7327 7.56075 13.7215C7.47498 13.7093 7.46636 13.6854 7.46636 13.4593C7.46636 13.2033 7.42163 13.15 7.30154 13.263C7.25548 13.3063 7.24936 13.2789 7.26632 13.1056C7.29337 12.8293 7.25375 12.6864 7.14973 12.6851C7.06461 12.684 7.06445 12.6828 7.10637 12.3566C7.12405 12.219 7.1142 12.1915 7.04019 12.1722C6.96377 12.1522 6.95627 12.1273 6.97827 11.9668C6.99312 11.8584 6.98658 11.7842 6.96215 11.7842C6.93952 11.7842 6.921 11.7441 6.921 11.6952C6.921 11.6171 6.91246 11.6132 6.8515 11.6637C6.78808 11.7162 6.78473 11.7066 6.81323 11.5535C6.84972 11.3575 6.84844 11.3712 6.84207 11.2465C6.83812 11.1692 6.81993 11.1547 6.7532 11.1759C6.6529 11.2078 6.64413 11.1412 6.72756 10.9814C6.78041 10.8801 6.77528 10.6515 6.72014 10.6515C6.70735 10.6515 6.66093 10.6841 6.61701 10.7238C6.53989 10.7936 6.53809 10.7918 6.56468 10.6714C6.57982 10.6028 6.6117 10.4951 6.63553 10.4321C6.69297 10.2801 6.65032 10.1743 6.54293 10.2024C6.4425 10.2286 6.44152 10.2208 6.52498 10.0594C6.61769 9.88008 6.59038 9.71133 6.4658 9.6937C6.38127 9.68173 6.37141 9.66376 6.39676 9.56785C6.41302 9.50631 6.42908 9.38044 6.43245 9.28815C6.43771 9.14385 6.42534 9.11847 6.34417 9.10694C6.23446 9.09136 6.22403 9.04713 6.31271 8.97353C6.39472 8.90547 6.3924 8.82848 6.30572 8.74181C6.24651 8.6826 6.24342 8.65085 6.2855 8.53446C6.34244 8.37701 6.31259 8.25499 6.22533 8.28848C6.14736 8.3184 6.14959 8.26399 6.22999 8.17515C6.32271 8.07269 6.2432 7.86593 6.12546 7.9033C6.04605 7.9285 6.04526 7.92234 6.10292 7.72783C6.15047 7.5674 6.16282 7.34477 6.12871 7.26308C6.12608 7.25678 6.07641 7.28275 6.01833 7.32081C5.91792 7.3866 5.91409 7.38613 5.94029 7.31129C5.95545 7.268 5.99444 7.21096 6.02695 7.18452C6.07725 7.14361 6.07428 7.11708 6.00695 7.00638C5.96345 6.93484 5.91534 6.88883 5.90004 6.90413C5.88474 6.91943 5.87222 6.91369 5.87222 6.89139C5.87222 6.86909 5.8927 6.83037 5.91772 6.80534C5.98994 6.73312 5.94791 6.55924 5.86173 6.57371C5.78311 6.58692 5.75871 6.47976 5.83027 6.43553C5.90097 6.39183 5.87723 6.2899 5.77179 6.18446C5.71656 6.12923 5.68267 6.07273 5.69649 6.05891C5.71032 6.0451 5.72351 5.95839 5.72582 5.86624C5.72888 5.74449 5.71505 5.70444 5.67527 5.7197C5.60875 5.74523 5.60664 5.72181 5.66554 5.61177C5.69762 5.55182 5.69755 5.49035 5.66538 5.39784C5.62858 5.29228 5.63287 5.25395 5.68837 5.19263C5.75969 5.11382 5.74177 4.98824 5.65921 4.98824C5.63286 4.98824 5.65366 4.95394 5.70543 4.91201C5.78454 4.84796 5.79195 4.82158 5.75191 4.74676C5.72063 4.68831 5.71871 4.6488 5.74633 4.63173C5.76947 4.61743 5.7884 4.57603 5.7884 4.53971C5.7884 4.50341 5.82248 4.44317 5.86413 4.40585C5.93907 4.33873 6.1234 3.83742 6.12464 3.69738C6.12528 3.63493 6.13119 3.63359 6.1678 3.68777C6.19293 3.72498 6.19965 3.86499 6.18423 4.0303C6.16028 4.28702 6.1655 4.31384 6.24797 4.35797C6.31186 4.39217 6.33015 4.4301 6.31133 4.4894C6.29677 4.53525 6.30689 4.5993 6.33382 4.63174C6.37009 4.67545 6.37154 4.76452 6.3394 4.97582C6.29078 5.29546 6.36907 6.04178 6.45421 6.07016C6.48025 6.07885 6.50155 6.11995 6.50155 6.16152C6.50155 6.24122 6.66716 6.3726 6.76762 6.3726C6.80021 6.3726 6.85018 6.34453 6.87866 6.31022C6.94407 6.23141 6.89905 6.037 6.81538 6.037C6.74212 6.037 6.73885 6.01645 6.79535 5.91087C6.82791 5.85005 6.81964 5.81973 6.7589 5.77719C6.67682 5.7197 6.67071 5.67728 6.66933 5.15604C6.66791 4.62974 6.67512 4.56389 6.73635 4.54039C6.82908 4.50481 6.80498 4.40093 6.70399 4.40093V4.40093C6.66943 4.40093 6.65157 4.35964 6.67523 4.33445L6.70399 4.30384C6.80404 4.19735 6.82543 4.06554 6.74277 4.06496C6.71393 4.0648 6.76035 3.99823 6.84594 3.9171C6.95126 3.81727 7.00962 3.71911 7.02652 3.61333C7.04025 3.52737 7.06934 3.42426 7.09115 3.3842C7.11296 3.34413 7.13081 3.27334 7.13081 3.22688C7.13081 3.18043 7.14497 3.14242 7.16227 3.14242C7.17958 3.14242 7.19598 3.27928 7.19871 3.44656C7.20253 3.68047 7.22541 3.78722 7.29776 3.90889C7.35286 4.00155 7.38236 4.10335 7.36895 4.15461C7.35636 4.20275 7.36267 4.28584 7.38298 4.33926C7.40963 4.40934 7.40254 4.4508 7.35754 4.48814C7.31753 4.52135 7.29666 4.60901 7.29933 4.73261C7.30161 4.8386 7.2905 5.025 7.27461 5.14684C7.24003 5.4121 7.38552 6.00007 7.52384 6.15411C7.64801 6.29239 7.7776 6.26139 7.79418 6.08944C7.8017 6.0115 7.78787 5.9531 7.76192 5.9531C7.73458 5.9531 7.72686 5.91187 7.74252 5.84946C7.75972 5.78093 7.74496 5.72226 7.69896 5.67625C7.65826 5.63555 7.64107 5.57845 7.65753 5.53867C7.73122 5.36065 7.72822 5.31863 7.64022 5.29562C7.59129 5.28282 7.56155 5.25569 7.57413 5.23533C7.60575 5.18418 7.64275 5.02982 7.65347 4.90434C7.6584 4.84665 7.6771 4.76611 7.69503 4.72535C7.71296 4.68459 7.71784 4.60003 7.70587 4.53745C7.69178 4.46373 7.71272 4.3835 7.76538 4.30956C7.81938 4.23373 7.83788 4.16057 7.82053 4.09147C7.78883 3.96514 7.83138 3.81414 7.89923 3.81223C8.03586 3.80839 8.26347 3.43483 8.26347 3.21443C8.26347 3.17482 8.28507 3.14242 8.31148 3.14242C8.34527 3.14242 8.35188 3.22397 8.3338 3.4176C8.3148 3.62115 8.32564 3.7366 8.37543 3.86106C8.44859 4.04391 8.42973 4.54068 8.34352 4.70178C8.28905 4.80355 8.27246 5.56451 8.31875 5.83773C8.3569 6.06295 8.43262 6.09601 8.53888 5.93383C8.58372 5.86539 8.59735 5.78905 8.57935 5.70709C8.56308 5.63304 8.57091 5.57197 8.59889 5.55468C8.63161 5.53446 8.6252 5.49472 8.57748 5.42189C8.51458 5.32589 8.51465 5.30991 8.57843 5.21263C8.61639 5.1547 8.6365 5.0788 8.62313 5.04396C8.60977 5.00913 8.63932 4.92375 8.68881 4.85424C8.76289 4.75021 8.76848 4.72142 8.72042 4.69143C8.67356 4.66219 8.68067 4.64187 8.75643 4.58851C8.85567 4.51861 8.88643 4.35898 8.80067 4.35898C8.77309 4.35898 8.825 4.28928 8.91603 4.20409C9.04987 4.07884 9.0675 4.04614 9.00813 4.03321C8.92011 4.01404 8.9095 3.93947 8.99478 3.93947C9.02782 3.93947 9.09518 3.88284 9.14446 3.81362C9.19375 3.74441 9.25792 3.68777 9.28706 3.68777C9.34208 3.68777 9.37432 3.63426 9.52078 3.29973C9.56876 3.19013 9.62321 3.10046 9.64177 3.10046C9.66034 3.10046 9.65023 3.22352 9.61929 3.37392C9.56679 3.62922 9.56877 3.65858 9.64913 3.81609C9.70662 3.92878 9.72921 4.03689 9.71716 4.14172C9.69798 4.30869 9.43534 4.86155 9.33606 4.94395C9.30335 4.9711 9.28487 5.03787 9.29485 5.09289C9.30479 5.14775 9.29548 5.20344 9.27404 5.21666C9.1947 5.2657 9.20402 6.41497 9.28417 6.46596C9.37889 6.52621 9.51296 6.49753 9.57353 6.40407C9.60716 6.35215 9.64716 6.18828 9.6624 6.03989C9.6962 5.71091 9.75839 5.61001 10.0306 5.4425C10.194 5.34201 10.2656 5.26196 10.3481 5.08756C10.4068 4.96372 10.4738 4.86239 10.4971 4.86239C10.5482 4.86239 10.5013 5.20512 10.4455 5.23961C10.4 5.26771 10.3817 5.6535 10.4214 5.74842C10.4392 5.79112 10.4254 5.82575 10.3844 5.84149C10.3389 5.85896 10.3191 5.92284 10.3191 6.05217C10.3191 6.17845 10.299 6.24549 10.2561 6.26192C10.2167 6.27708 10.1932 6.34123 10.1932 6.43421C10.1932 6.53238 10.1736 6.58236 10.1352 6.58236C10.0759 6.58236 10.027 6.70457 10.026 6.85558C10.0257 6.90254 9.98353 6.95839 9.93103 6.98142C9.87912 7.0042 9.83057 7.06559 9.82315 7.11785C9.81573 7.1701 9.79466 7.20358 9.77632 7.19225C9.71096 7.15185 9.59769 7.3347 9.59335 7.48762C9.59093 7.57316 9.58175 7.62156 9.57296 7.59518C9.52672 7.45647 9.35421 7.61394 9.35421 7.79485C9.35421 7.84836 9.33353 7.87225 9.29876 7.85891C9.23393 7.83404 9.12525 8.03403 9.1408 8.1496C9.14669 8.19345 9.13269 8.21611 9.10882 8.20135C9.02264 8.14809 8.97815 8.36664 9.03703 8.55403C9.06399 8.63983 9.05997 8.64937 9.01493 8.60647C8.91775 8.5139 8.89682 8.54909 8.91029 8.78242C8.9195 8.94208 8.90691 9.01717 8.86845 9.03194C8.83035 9.04655 8.82056 9.10213 8.83664 9.21256C8.86272 9.39162 9.00826 9.72864 9.05952 9.72864C9.1155 9.72864 9.23037 9.4471 9.20325 9.3764C9.18594 9.33132 9.2193 9.28656 9.3077 9.23624C9.42901 9.16719 9.4898 9.01548 9.39616 9.01548C9.30418 9.01548 9.36236 8.93165 9.4995 8.86658C9.65246 8.79399 9.70938 8.69579 9.66521 8.58069C9.64561 8.52961 9.6778 8.49529 9.78877 8.44893C9.8713 8.41444 9.97719 8.38623 10.0241 8.38623C10.1265 8.38623 10.1307 8.35157 10.0437 8.22734C9.9811 8.13794 9.98425 8.13038 10.1132 8.06069C10.1875 8.02055 10.2853 7.95243 10.3306 7.90933C10.3975 7.8456 10.4022 7.82406 10.3555 7.79397C10.2765 7.74303 10.3715 7.68178 10.5849 7.64613C10.7408 7.62008 10.8466 7.50632 10.7461 7.47282C10.6478 7.44005 10.7003 7.38929 10.8865 7.33716C11.0959 7.27854 11.1497 7.22835 11.0789 7.15762C10.9988 7.0775 11.0255 7.0537 11.2525 7.00278C11.597 6.92552 11.5933 6.92768 11.5136 6.84801C11.448 6.78239 11.4508 6.77395 11.557 6.71833C11.6194 6.68561 11.7042 6.66763 11.7453 6.67838C11.8278 6.69996 11.8642 6.68098 11.9498 6.57187C11.9942 6.51527 11.9961 6.48489 11.9582 6.43926C11.9037 6.37359 11.9236 6.3548 12.0889 6.31532C12.1509 6.30051 12.2134 6.3074 12.2278 6.33061C12.2708 6.40024 12.4275 6.29384 12.3975 6.21542C12.3637 6.12751 12.4482 6.07897 12.5867 6.10668C12.6735 6.12403 12.7182 6.10309 12.7904 6.01129C12.8606 5.92198 12.9138 5.89602 13.0114 5.90346C13.1482 5.91388 13.2519 5.82312 13.2543 5.6909C13.2554 5.63281 13.2928 5.61736 13.4339 5.61685C13.6422 5.61606 13.739 5.56725 13.7054 5.47975C13.6749 5.40043 13.9756 5.34405 14.0933 5.40702C14.2376 5.48427 14.3463 5.45976 14.3463 5.34995C14.3463 5.21048 14.4313 5.14828 14.5267 5.21799C14.6286 5.2925 14.764 5.2501 14.81 5.12933C14.8519 5.01911 14.9194 5.00641 15.0785 5.07887C15.2083 5.13803 15.3951 5.06983 15.3951 4.96327C15.3951 4.90944 15.4201 4.90066 15.5104 4.92273C15.7165 4.97305 15.7941 4.96976 15.7819 4.91123C15.7732 4.86929 15.8033 4.86245 15.9015 4.88402C16.0226 4.91061 16.0304 4.90571 16.0034 4.82055C15.9772 4.73812 15.9846 4.7319 16.0726 4.76236C16.1268 4.78112 16.2372 4.79714 16.318 4.79796C16.4472 4.79923 16.4635 4.78771 16.4542 4.70172C16.4445 4.61169 16.4544 4.6065 16.5801 4.63599C16.812 4.69042 16.9131 4.67821 16.9629 4.58971C16.9889 4.54356 17.0164 4.4964 17.0241 4.4849C17.0318 4.4734 17.0632 4.49841 17.0939 4.54047C17.1715 4.64655 17.3748 4.61917 17.4291 4.49532C17.477 4.38631 17.6014 4.3725 17.7035 4.46487C17.796 4.54858 17.9121 4.50132 17.9121 4.37996C17.9121 4.25321 18.0189 4.21747 18.1709 4.29332C18.3203 4.36785 18.3887 4.34638 18.4532 4.20467C18.498 4.10643 18.5087 4.1026 18.5743 4.16124C18.6919 4.26636 18.8082 4.26549 18.8553 4.15915C18.8825 4.09765 18.9196 4.07338 18.9606 4.09028C19.1179 4.15525 19.3092 4.19528 19.3632 4.17455C19.3957 4.16207 19.4223 4.1115 19.4223 4.06216C19.4223 3.99294 19.4391 3.9795 19.4957 4.00331C19.657 4.07111 19.7423 4.06773 19.832 3.99C19.8835 3.94526 19.9257 3.88768 19.9257 3.86204C19.9257 3.8283 19.955 3.82876 20.0318 3.86372C20.1121 3.90035 20.1497 3.90013 20.187 3.86277C20.214 3.83571 20.278 3.81357 20.3292 3.81357C20.3803 3.81357 20.4293 3.79199 20.4381 3.7656C20.45 3.73008 20.4787 3.73081 20.549 3.76839C20.671 3.83368 20.8906 3.78807 20.8906 3.69745C20.8906 3.64336 20.9076 3.64819 20.9761 3.72176C21.0733 3.82607 21.1644 3.83975 21.2136 3.75741C21.2769 3.65152 21.4016 3.61084 21.528 3.6549C21.6138 3.68481 21.6648 3.68216 21.709 3.64549C21.744 3.61644 21.8159 3.60584 21.8759 3.6209C21.947 3.63874 21.9814 3.63002 21.9815 3.59412C21.9816 3.56213 22.0441 3.53762 22.138 3.5327C22.224 3.5282 22.301 3.50461 22.3092 3.48027C22.3306 3.41606 22.4242 3.42602 22.4847 3.49893C22.543 3.56918 22.7364 3.5853 22.7364 3.51991C22.7364 3.45689 22.8178 3.46942 22.8923 3.54392C22.9374 3.58902 22.9928 3.60067 23.0676 3.58075C23.3416 3.50776 23.4188 3.51735 23.5298 3.63815C23.6392 3.75728 23.8017 3.83856 23.9949 3.87084C24.0526 3.88048 24.1659 3.91719 24.2466 3.95242L24.2779 3.96604C24.3074 3.97891 24.2997 4.02272 24.2676 4.02486V4.02486C24.1984 4.02947 24.1229 4.02914 24.0998 4.02407C24.0767 4.01904 23.9729 4.0121 23.8691 4.00861C23.7202 4.00361 23.6644 4.0219 23.6051 4.09511C23.5013 4.22316 23.2825 4.25414 22.9301 4.1907C22.5109 4.11523 22.2773 4.11088 22.152 4.17623C22.0927 4.20718 22.0106 4.23261 21.9695 4.23275C21.9284 4.2329 21.8839 4.26133 21.8706 4.29594C21.8573 4.33055 21.8202 4.35886 21.788 4.35886C21.7078 4.35886 21.714 4.51171 21.7956 4.543C21.8319 4.55692 21.9003 4.54755 21.9477 4.52218C22.001 4.49368 22.0439 4.49127 22.0601 4.51587C22.1083 4.58932 22.2937 4.60733 22.3755 4.54652C22.4193 4.514 22.4732 4.49859 22.4954 4.51228C22.5186 4.52661 22.5115 4.55243 22.4787 4.57322C22.4451 4.59449 22.4412 4.60954 22.4691 4.60992C22.4951 4.61024 22.5399 4.58225 22.5686 4.54764C22.6422 4.45895 22.6841 4.46841 22.8006 4.60008C22.8864 4.69703 22.9093 4.70546 22.9437 4.65288C22.9978 4.57012 23.1151 4.57178 23.2189 4.65678C23.2719 4.70021 23.3779 4.72495 23.5069 4.72397C23.655 4.72286 23.7219 4.74164 23.7502 4.79235C23.7718 4.8308 23.8266 4.86226 23.8722 4.86226C23.9211 4.86226 23.9708 4.90359 23.9934 4.96307C24.0405 5.08686 24.0551 5.09604 24.3937 5.21444C24.5435 5.26685 24.6526 5.32331 24.636 5.33992C24.6194 5.35652 24.6363 5.35838 24.6737 5.34406C24.711 5.32972 24.754 5.33817 24.7693 5.36281C24.8048 5.42039 24.6862 5.42036 24.4981 5.36274C24.2052 5.27305 24.0926 5.27915 24.0099 5.38921C23.9221 5.50618 23.7161 5.52754 23.5635 5.43551C23.5124 5.4047 23.3958 5.37459 23.3043 5.3686C23.2129 5.36261 23.061 5.32145 22.9667 5.27715C22.8724 5.23284 22.7207 5.1978 22.6295 5.19929C22.5384 5.20072 22.4185 5.20108 22.3631 5.19992C22.3078 5.19881 22.2417 5.21321 22.2163 5.2319C22.1909 5.25059 22.1068 5.26473 22.0294 5.26332C21.9175 5.26127 21.8767 5.28401 21.8299 5.3745C21.7773 5.47625 21.7789 5.49224 21.8447 5.52601C21.9695 5.58997 22.1491 5.62123 22.1491 5.579C22.1491 5.48891 22.3281 5.48397 22.4456 5.57082C22.5544 5.65126 22.5681 5.65283 22.6038 5.58905C22.6401 5.52418 22.6538 5.52444 22.7978 5.59278C22.9424 5.66143 22.9562 5.66164 23.0041 5.59608C23.0521 5.53045 23.0594 5.5305 23.1145 5.59687C23.2038 5.70451 23.3721 5.75797 23.415 5.6923C23.4417 5.65133 23.4691 5.66255 23.528 5.73863C23.5883 5.81634 23.6302 5.83289 23.7139 5.81189C23.7741 5.79678 23.834 5.80416 23.8491 5.82857C23.864 5.85267 23.9103 5.86153 23.9521 5.84827C23.9939 5.83502 24.0536 5.84938 24.0849 5.88038C24.1162 5.91129 24.1766 5.94978 24.2192 5.96592C24.2617 5.98205 24.3062 6.0321 24.318 6.07714C24.3298 6.12226 24.4002 6.17909 24.4747 6.2037C24.6621 6.26552 24.9187 6.39951 24.895 6.42315C24.8843 6.4339 24.7613 6.42542 24.6217 6.40429C24.4408 6.37691 24.3512 6.37977 24.3097 6.41424C24.2776 6.44085 24.1531 6.48856 24.0329 6.52026C23.8326 6.57308 23.8002 6.57106 23.6451 6.49611C23.552 6.45113 23.4586 6.41432 23.4377 6.41432C23.4168 6.41432 23.3401 6.37185 23.2673 6.31993C23.1945 6.26802 23.0878 6.22308 23.0301 6.22007C22.9724 6.21706 22.7623 6.20029 22.5632 6.18281C22.364 6.16532 22.1537 6.1629 22.0958 6.17743C21.9749 6.20779 21.9176 6.31658 21.9819 6.39402C22.0414 6.46577 22.2472 6.50129 22.2815 6.44575C22.3008 6.41449 22.3477 6.41687 22.4364 6.45363C22.5063 6.4826 22.5839 6.49373 22.6088 6.47835C22.6337 6.46297 22.7173 6.48946 22.7946 6.53723C22.8719 6.585 22.9819 6.62408 23.039 6.62408C23.0962 6.62408 23.1754 6.65999 23.2152 6.70388C23.2642 6.75811 23.3252 6.77773 23.4053 6.76511C23.4984 6.75042 23.5465 6.77424 23.6344 6.87867C23.71 6.96857 23.7713 7.0041 23.826 6.98979C23.8875 6.9737 23.9124 6.99624 23.9321 7.0859C23.9523 7.17774 24.0162 7.23297 24.2281 7.34165C24.3767 7.41789 24.4984 7.49417 24.4984 7.51116C24.4984 7.57973 24.4155 7.58511 24.2734 7.52574C24.0801 7.44496 23.885 7.44509 23.8539 7.52606C23.8406 7.56067 23.7823 7.58899 23.7242 7.58899C23.5875 7.58897 23.2398 7.49604 23.2398 7.45951C23.2398 7.44402 23.1785 7.40615 23.1035 7.37534C23.0285 7.34454 22.9057 7.27787 22.8305 7.22719C22.7553 7.1765 22.661 7.14011 22.6208 7.14631C22.5806 7.15251 22.5355 7.13878 22.5206 7.11578C22.4968 7.07892 22.4079 7.07058 22.1911 7.08487C22.1565 7.08715 22.0475 7.07182 21.949 7.05081C21.8451 7.02867 21.7601 7.02823 21.7468 7.0497C21.7342 7.07014 21.7045 7.07489 21.6808 7.06026C21.6044 7.01303 21.436 7.13551 21.436 7.23834C21.436 7.34212 21.6143 7.46305 21.7674 7.46305C22.1124 7.46305 22.5383 7.6933 22.5753 7.89979C22.5861 7.9603 22.6668 8.00126 22.9042 8.0668L22.9345 8.07515C22.9927 8.09122 22.9853 8.17602 22.9252 8.18178V8.18178C22.6217 8.21086 22.4591 8.19402 22.3705 8.12431C22.3358 8.09697 22.2953 8.108 22.2447 8.15856C22.1768 8.22644 22.1689 8.22692 22.1568 8.16387C22.1435 8.09498 21.9677 8.08586 21.8659 8.14878C21.8419 8.16359 21.8124 8.14989 21.8003 8.11822C21.7864 8.08208 21.7386 8.06829 21.6716 8.0811C21.6064 8.09356 21.5388 8.07525 21.4975 8.03392C21.4538 7.99026 21.3939 7.97541 21.3281 7.99193C21.2664 8.00741 21.2262 7.99926 21.2262 7.97129C21.2262 7.94587 21.0422 7.83671 20.8172 7.72871C20.5922 7.6207 20.3931 7.5073 20.3746 7.47671C20.3562 7.44612 20.3137 7.42109 20.2802 7.42109C20.2468 7.42109 20.2194 7.40221 20.2194 7.37914C20.2194 7.35607 20.1817 7.33719 20.1355 7.33719C20.0798 7.33719 20.0516 7.30922 20.0516 7.25409C20.0516 7.16654 19.8923 7.09912 19.7838 7.14075C19.7436 7.15618 19.7317 7.13932 19.7456 7.08639C19.7688 6.99739 19.6449 6.94127 19.5259 6.98694C19.4675 7.00934 19.4557 7.0005 19.4755 6.94901C19.502 6.87991 19.4138 6.77244 19.368 6.81817C19.354 6.83224 19.3104 6.81174 19.2713 6.77259C19.2321 6.73345 19.1658 6.71039 19.1239 6.72135C19.0805 6.73268 19.0516 6.72055 19.0567 6.69314C19.0622 6.66384 19.0083 6.64642 18.9189 6.64863C18.8382 6.65062 18.7616 6.63654 18.7488 6.61737C18.736 6.59818 18.6793 6.58258 18.6229 6.58269C18.3073 6.58332 18.1064 6.60845 18.0928 6.64903C18.0842 6.67432 18.1572 6.74789 18.2548 6.81252C18.3664 6.88634 18.4384 6.91214 18.4484 6.88191C18.4738 6.80571 18.5295 6.82581 18.5542 6.92008C18.5666 6.96755 18.6349 7.02832 18.7059 7.05513C18.7844 7.08478 18.835 7.13356 18.835 7.17962C18.835 7.2546 18.999 7.34577 19.0987 7.32622C19.1267 7.32072 19.1557 7.36887 19.1631 7.43322C19.1736 7.52457 19.2035 7.55562 19.2997 7.57486C19.3861 7.59214 19.4502 7.64806 19.5143 7.762C19.6016 7.91734 19.6741 7.97202 19.6741 7.88255C19.6741 7.85947 19.6902 7.8406 19.71 7.8406C19.7298 7.8406 19.7629 7.91886 19.7835 8.01452C19.8263 8.21347 19.945 8.31981 20.0109 8.21815C20.0471 8.16222 20.0562 8.16222 20.0929 8.21815C20.1156 8.25276 20.1345 8.31157 20.1349 8.34883C20.1358 8.45129 20.2983 8.63694 20.3647 8.61146C20.407 8.59522 20.4308 8.64099 20.4514 8.77835C20.4784 8.95803 20.5654 9.05827 20.6191 8.97143C20.6712 8.88712 20.7228 8.93699 20.7228 9.07163C20.7228 9.22058 20.8586 9.39468 20.9099 9.3116C20.9783 9.20086 21.0248 9.27518 20.9981 9.45285C20.9721 9.6264 20.9789 9.64519 21.1004 9.73502C21.2 9.80865 21.225 9.85353 21.2067 9.92613C21.1804 10.031 21.2599 10.1898 21.3387 10.1898C21.414 10.1898 21.453 10.2759 21.4432 10.4205C21.4319 10.5885 21.5337 10.7364 21.6093 10.6618C21.7082 10.5643 21.7284 10.6085 21.7018 10.8633C21.6771 11.0993 21.6817 11.119 21.7658 11.141C21.8754 11.1697 21.9246 11.3344 21.8635 11.4684C21.8272 11.5482 21.8341 11.5798 21.9012 11.6405C21.9641 11.6975 21.9948 11.7033 22.0327 11.6655C22.121 11.5771 22.141 11.613 22.0979 11.7828C22.0746 11.8745 22.068 11.9989 22.0831 12.0592C22.106 12.1505 22.1211 12.1602 22.1729 12.1173C22.2652 12.0407 22.2865 12.0921 22.2369 12.2717C22.2081 12.3762 22.207 12.4459 22.2339 12.4728C22.2565 12.4954 22.275 12.5491 22.275 12.5922C22.275 12.6505 22.2957 12.664 22.356 12.6448C22.4307 12.6211 22.4338 12.631 22.3952 12.7707C22.3659 12.8771 22.3672 12.9391 22.3999 12.9784C22.4266 13.0105 22.4344 13.0853 22.4182 13.1538C22.395 13.252 22.3999 13.2639 22.4458 13.2207C22.5367 13.1353 22.5651 13.1603 22.5272 13.2924C22.5076 13.3606 22.4981 13.4502 22.506 13.4916C22.5138 13.533 22.5217 13.581 22.5235 13.5983C22.5252 13.6156 22.5645 13.6298 22.6106 13.6298C22.7065 13.6298 22.714 13.667 22.6473 13.8134C22.6199 13.8734 22.6121 13.9814 22.6288 14.0701C22.6529 14.1986 22.6674 14.215 22.719 14.1722C22.8113 14.0956 22.8224 14.1382 22.7626 14.3406C22.6984 14.5583 22.7519 14.7353 22.8728 14.7049C22.9624 14.6823 22.966 14.7202 22.8846 14.8278C22.7976 14.9429 22.8059 15.0602 22.903 15.0855C22.9808 15.1059 22.9818 15.1145 22.9208 15.2325C22.8275 15.4129 22.8178 15.5052 22.8862 15.5619C22.9326 15.6005 22.9604 15.5999 23.0091 15.5595C23.0608 15.5166 23.0721 15.5197 23.0721 15.5768C23.0721 15.615 23.0444 15.6886 23.0106 15.7402C22.9286 15.8653 22.9714 16.0351 23.0778 16.0073C23.1376 15.9916 23.156 16.0099 23.156 16.0853C23.156 16.1395 23.1371 16.1955 23.114 16.2097C23.0512 16.2485 23.0635 16.4231 23.1331 16.4809C23.1667 16.5087 23.2132 16.5199 23.2363 16.5055C23.2634 16.4888 23.2625 16.5253 23.2338 16.6075C23.1767 16.7715 23.2172 16.9499 23.304 16.9166C23.3572 16.8962 23.3602 16.911 23.3228 17.0093C23.2695 17.1494 23.308 17.3633 23.3865 17.3633C23.4174 17.3633 23.4505 17.3492 23.4602 17.3319C23.4699 17.3146 23.4701 17.3287 23.4609 17.3633C23.3957 17.6039 23.3977 17.6717 23.4712 17.7255C23.5296 17.7682 23.5615 17.7699 23.6062 17.7329C23.6548 17.6925 23.6598 17.705 23.6355 17.807C23.6194 17.8745 23.5775 17.9627 23.5424 18.0031C23.4853 18.0689 23.4854 18.0765 23.5435 18.0765C23.5793 18.0765 23.6198 18.1061 23.6337 18.1423C23.6501 18.1849 23.6875 18.1991 23.7396 18.1826C23.8052 18.1618 23.816 18.1731 23.7977 18.2432C23.7853 18.2907 23.7585 18.3398 23.7382 18.3523C23.718 18.3649 23.7014 18.4102 23.7014 18.453C23.7014 18.4959 23.6778 18.5405 23.6489 18.5521C23.6201 18.5638 23.6578 18.5748 23.7328 18.5766C23.8078 18.5784 23.8692 18.5885 23.8692 18.5989C23.8692 18.6442 23.7625 18.8551 23.7269 18.8802C23.7048 18.8958 23.7187 18.9389 23.7586 18.9788C23.8155 19.0356 23.8418 19.0395 23.8913 18.9985C23.9423 18.9561 23.9531 18.9624 23.9531 19.0348C23.9531 19.0829 23.917 19.1416 23.8729 19.1652C23.782 19.2139 23.799 19.377 23.895 19.377C23.9647 19.377 23.9725 19.4859 23.9057 19.5271C23.873 19.5474 23.8782 19.5675 23.9228 19.5924C23.9755 19.6219 23.9784 19.6476 23.9387 19.7331C23.912 19.7907 23.876 19.8379 23.8587 19.8381C23.8414 19.8383 23.8272 19.8652 23.8272 19.8979C23.8272 19.9305 23.8036 19.9652 23.7748 19.9748C23.7275 19.9905 23.7163 20.0813 23.704 20.5462C23.6988 20.7412 23.588 20.5599 23.5595 20.31C23.5366 20.109 23.5105 20.0513 23.4018 19.9611C23.291 19.8693 23.2691 19.819 23.2554 19.6255C23.2465 19.5004 23.2308 19.375 23.2204 19.3469C23.2101 19.3188 23.2206 19.284 23.2438 19.2697C23.2718 19.2524 23.2712 19.2259 23.242 19.1908C23.2179 19.1617 23.1795 19.0396 23.1568 18.9195C23.1109 18.6777 22.9107 18.1952 22.8052 18.0719C22.7679 18.0283 22.6994 17.9926 22.653 17.9926C22.5798 17.9926 22.5687 18.0202 22.5687 18.2024C22.5687 18.3593 22.5843 18.4121 22.6306 18.4121C22.677 18.4121 22.6861 18.4436 22.6673 18.538C22.6505 18.6221 22.6589 18.6638 22.6926 18.6638C22.7271 18.6638 22.7343 18.7044 22.7151 18.7914C22.6846 18.9303 22.7555 19.0599 22.8356 19.0119C22.8619 18.9962 22.8572 19.0155 22.8253 19.0548C22.7422 19.1573 22.7228 19.377 22.7969 19.377C22.8458 19.377 22.8444 19.4054 22.7884 19.5481C22.7379 19.6767 22.7335 19.7268 22.7708 19.7498C22.8079 19.7727 22.8049 19.801 22.7588 19.8619C22.6799 19.9663 22.6784 20.0665 22.755 20.1301C22.8062 20.1726 22.7924 20.2049 22.6648 20.3403C22.5705 20.4405 22.5077 20.5532 22.497 20.6414C22.4877 20.7189 22.473 20.8295 22.4643 20.8872C22.4557 20.9449 22.4473 21.01 22.4457 21.0319C22.4439 21.0571 22.4282 21.0571 22.4032 21.0319C22.3813 21.01 22.3577 20.8882 22.3507 20.7613C22.3407 20.5808 22.3197 20.5212 22.2541 20.4874C22.0778 20.3967 22.0115 20.0848 22.0849 19.6916C22.1022 19.5993 22.1325 19.4932 22.1523 19.4557C22.1722 19.4183 22.1819 19.3522 22.1741 19.3089C22.1662 19.2656 22.1461 19.1169 22.1295 18.9784C22.1128 18.84 22.0798 18.7031 22.0561 18.6743C22.0324 18.6455 22.0253 18.6219 22.0403 18.6219C22.0552 18.6219 22.0382 18.5652 22.0024 18.496C21.9268 18.3498 21.8941 18.3419 21.7991 18.4469C21.7219 18.5322 21.7068 18.6867 21.7718 18.7268C21.7996 18.744 21.7984 18.7816 21.7684 18.8376C21.7323 18.9052 21.7381 18.9334 21.7975 18.9768C21.8677 19.0282 21.8679 19.0373 21.8008 19.1397C21.7176 19.2666 21.7093 19.3632 21.7795 19.3866C21.8149 19.3984 21.8088 19.4326 21.7585 19.5043C21.6697 19.6312 21.6688 19.7105 21.7556 19.7739C21.8165 19.8184 21.8122 19.8356 21.7136 19.942C21.6272 20.0352 21.6141 20.073 21.6524 20.119C21.6892 20.1634 21.6892 20.1894 21.6524 20.2262C21.6257 20.2529 21.6038 20.3249 21.6038 20.3863C21.6038 20.4569 21.5416 20.5685 21.4344 20.6903C21.3353 20.8028 21.2389 20.9707 21.2021 21.0947C21.1675 21.2113 21.119 21.3067 21.0943 21.3067C21.0697 21.3067 21.0594 21.2808 21.0716 21.2491C21.0837 21.2175 21.107 21.1026 21.1233 20.9939C21.1481 20.8289 21.1382 20.7764 21.0638 20.6756C21.0071 20.5989 20.9746 20.4926 20.9746 20.3836C20.9746 20.1932 21.091 19.6775 21.1516 19.5997C21.1915 19.5484 21.2123 18.7862 21.1774 18.6515C21.1544 18.5626 21.0321 18.4121 20.9829 18.4121C20.9312 18.4121 20.7648 18.6509 20.7648 18.725C20.7648 18.7606 20.7837 18.7897 20.8068 18.7897C20.8719 18.7897 20.8563 18.8795 20.7759 18.9684C20.7066 19.045 20.7068 19.0517 20.7807 19.1058C20.856 19.1608 20.8556 19.1671 20.7697 19.3062C20.6617 19.4809 20.6576 19.5443 20.7543 19.5463C20.8124 19.5476 20.8036 19.5676 20.7124 19.6423C20.5823 19.7488 20.5619 19.8384 20.6679 19.8384C20.721 19.8384 20.705 19.8715 20.6044 19.9698C20.508 20.0641 20.4821 20.1156 20.5126 20.1524C20.5628 20.2129 20.3873 20.4257 20.2872 20.4257C20.2531 20.4257 20.2131 20.4635 20.1985 20.5096C20.1838 20.5558 20.1551 20.5935 20.1346 20.5935C20.1142 20.5935 20.085 20.6596 20.0699 20.7404C20.0239 20.9853 19.9615 20.9063 19.9743 20.6195C19.981 20.4723 19.9661 20.326 19.9414 20.2944C19.886 20.2235 19.8971 19.942 19.9617 19.7833C19.9881 19.7183 20.0097 19.6481 20.0097 19.6272C20.0097 19.6064 20.0494 19.5131 20.098 19.4199C20.1466 19.3268 20.1761 19.2241 20.1637 19.1918C20.1513 19.1594 20.1673 19.0336 20.1994 18.9122C20.2314 18.7909 20.2473 18.6749 20.2347 18.6546C20.2222 18.6343 20.2432 18.5516 20.2815 18.471C20.3263 18.3766 20.3413 18.2797 20.3237 18.1993C20.3086 18.1306 20.291 18.0084 20.2846 17.9278C20.2611 17.6315 19.9624 17.5096 19.8076 17.7332C19.6949 17.896 19.6666 17.996 19.7162 18.0557C19.7482 18.0943 19.7373 18.1141 19.6748 18.1304C19.6048 18.1487 19.5931 18.1786 19.6085 18.2992C19.6343 18.5004 19.4175 18.7617 19.2249 18.7617C19.1206 18.7617 19.0832 18.7878 19.031 18.8973C18.9954 18.9719 18.9535 19.1011 18.9379 19.1844C18.8951 19.4128 18.845 19.403 18.8287 19.1632C18.8207 19.0456 18.8272 18.9414 18.8432 18.9315C18.8591 18.9216 18.8851 18.8243 18.9009 18.7153C18.9168 18.6062 18.941 18.4981 18.9549 18.475C19.0029 18.395 19.126 18.0132 19.1274 17.9402C19.1282 17.8998 19.1571 17.8668 19.1917 17.8668C19.2574 17.8668 19.2668 17.8377 19.2628 17.6458C19.2615 17.582 19.2781 17.5407 19.2997 17.5541C19.3214 17.5675 19.3512 17.5442 19.366 17.5023C19.3808 17.4605 19.4419 17.3602 19.5019 17.2795C19.6125 17.1305 19.6176 17.1193 19.6269 17.0057C19.6298 16.9706 19.6794 16.9238 19.737 16.9019C19.823 16.8692 19.8419 16.8338 19.8419 16.7058C19.8419 16.5868 19.8536 16.5612 19.8908 16.5984C19.9698 16.6774 20.044 16.533 20.0246 16.3379C20.0108 16.1983 20.0152 16.1847 20.0493 16.2622C20.0964 16.3689 20.1775 16.3889 20.1775 16.2936C20.1775 16.259 20.1964 16.2307 20.2195 16.2307C20.2425 16.2307 20.2614 16.1646 20.2614 16.0839C20.2614 15.9795 20.2801 15.937 20.3262 15.937C20.3618 15.937 20.3879 15.9134 20.3841 15.8846C20.3636 15.7264 20.3912 15.6056 20.4432 15.6255C20.4845 15.6414 20.4942 15.6135 20.4803 15.5188C20.47 15.4483 20.4448 15.3803 20.4244 15.3677C20.3576 15.3264 20.3854 15.2658 20.4712 15.2658C20.544 15.2658 20.5551 15.2379 20.5551 15.0543C20.5551 14.8979 20.5324 14.8187 20.4679 14.7502V14.7502C20.4218 14.7011 20.343 14.7039 20.3004 14.7561L20.2782 14.7834C20.211 14.8658 20.1833 14.9413 20.1979 15.002C20.2141 15.0692 20.1942 15.1084 20.1255 15.1446C20.0032 15.209 19.9644 15.2699 19.9912 15.3559C20.0056 15.4023 19.9653 15.4542 19.8685 15.5141C19.7027 15.6165 19.652 15.713 19.7205 15.7955C19.7587 15.8416 19.7375 15.866 19.6148 15.9172C19.4688 15.9782 19.3518 16.1503 19.4015 16.2308C19.4134 16.2501 19.3652 16.2785 19.2944 16.2941C19.1622 16.3231 19.0617 16.4823 19.1047 16.5945C19.118 16.6291 19.0692 16.674 18.976 16.7129C18.8486 16.7661 18.8297 16.7908 18.851 16.8758C18.8718 16.9586 18.8541 16.9851 18.7491 17.0286C18.6791 17.0576 18.5748 17.1184 18.5172 17.1637C18.4316 17.231 18.4218 17.2574 18.4638 17.3079C18.5047 17.3572 18.5029 17.3775 18.4548 17.4079C18.4217 17.4288 18.3685 17.4463 18.3366 17.4466C18.2609 17.4474 17.9961 17.6115 17.9961 17.6576C17.9961 17.6772 18.0363 17.7061 18.0855 17.7217C18.1558 17.744 18.1625 17.758 18.117 17.7868C18.0851 17.807 18.0195 17.8238 17.9711 17.8242C17.8688 17.825 17.724 17.9677 17.7625 18.0299C17.7773 18.0539 17.7106 18.0947 17.6093 18.1237C17.4139 18.1794 17.2784 18.2734 17.2893 18.3455C17.3031 18.437 17.23 18.538 17.1498 18.538C17.0045 18.538 16.915 18.6115 16.9347 18.7148C16.9515 18.8027 16.9363 18.8116 16.7509 18.8222C16.5396 18.8344 16.3847 18.9477 16.4274 19.0589C16.4496 19.1166 16.3288 19.1656 16.1616 19.1667C16.097 19.167 16.0598 19.1997 16.0416 19.2721C16.0204 19.3566 15.9893 19.377 15.8814 19.377C15.7293 19.377 15.6469 19.4406 15.6469 19.5581C15.6469 19.623 15.6249 19.6343 15.5323 19.6166C15.3995 19.5912 15.1854 19.6878 15.1854 19.7731C15.1854 19.8142 15.1301 19.8314 14.9983 19.8314C14.7766 19.8314 14.724 19.8574 14.724 19.9668C14.724 20.0261 14.6949 20.0482 14.617 20.0482C14.4878 20.0482 14.2625 20.1585 14.2625 20.2217C14.2625 20.2512 14.2099 20.2574 14.1138 20.2394C13.9051 20.2002 13.7907 20.243 13.8239 20.3478C13.8478 20.4232 13.8364 20.4283 13.7001 20.4027C13.5109 20.3672 13.3396 20.4084 13.3396 20.4895C13.3396 20.5602 13.2437 20.5706 13.1339 20.5118C13.0219 20.4519 12.8708 20.5042 12.899 20.5932C12.92 20.6593 12.9044 20.6622 12.7366 20.6238C12.5147 20.573 12.4067 20.6027 12.4455 20.7037C12.4656 20.7562 12.458 20.7659 12.4167 20.7404C12.3096 20.6742 11.9674 20.6692 11.9427 20.7335C11.921 20.7901 11.7076 20.7948 11.6201 20.7407C11.5568 20.7015 11.4518 20.7689 11.4518 20.8487C11.4518 20.9123 11.434 20.9205 11.3574 20.8923C11.2042 20.836 10.9591 20.8837 10.9354 20.9745C10.9171 21.0445 10.8991 21.0481 10.7777 21.0057C10.6517 20.9618 10.6328 20.9672 10.5411 21.0738C10.4719 21.1542 10.4151 21.1828 10.3554 21.1672C10.3081 21.1548 10.2045 21.1811 10.1252 21.2257C10.0459 21.2702 9.92648 21.3067 9.85985 21.3067C9.69274 21.3067 9.60599 21.3459 9.60599 21.4215C9.60599 21.471 9.57321 21.4802 9.46075 21.4619C9.35173 21.4442 9.28048 21.4621 9.17502 21.5337C9.06874 21.6058 9.01066 21.6202 8.93662 21.5928C8.80375 21.5437 8.68308 21.5885 8.68308 21.6871C8.68308 21.7799 8.68031 21.7809 8.54947 21.7316C8.42124 21.6832 8.24671 21.7476 8.27885 21.8313C8.30862 21.9089 8.30177 21.9089 8.15301 21.8313C7.99301 21.7479 7.9388 21.7519 7.87629 21.8521C7.81491 21.9503 7.77706 21.9574 7.73086 21.8793C7.73083 21.8792 7.73075 21.8792 7.73071 21.8793V21.8793ZM22.219 19.6079C22.219 19.5733 22.2032 19.545 22.184 19.545C22.1648 19.545 22.149 19.5733 22.149 19.6079C22.149 19.6425 22.1648 19.6708 22.184 19.6708C22.2032 19.6708 22.219 19.6425 22.219 19.6079ZM12.878 15.3031C12.878 15.276 12.9213 15.2645 12.9807 15.2759C13.0847 15.2958 13.1641 15.2083 13.0859 15.16C13.0231 15.1212 13.0389 15.0563 13.1112 15.0563C13.1471 15.0563 13.1661 15.0732 13.1534 15.0938C13.1106 15.163 13.2723 15.1895 13.322 15.1215C13.3482 15.0856 13.4006 15.0563 13.4384 15.0563C13.4763 15.0563 13.5072 15.0281 13.5072 14.9936C13.5072 14.9468 13.5431 14.9355 13.649 14.9491C13.7626 14.9636 13.7896 14.9532 13.7853 14.8964C13.782 14.8528 13.8161 14.8204 13.8743 14.8122C13.9262 14.8048 13.9687 14.7791 13.9687 14.7552C13.9687 14.7299 14.0117 14.7224 14.071 14.7373C14.1273 14.7514 14.185 14.744 14.1993 14.7208C14.2136 14.6977 14.2053 14.6787 14.1809 14.6787C14.1565 14.6787 14.1365 14.6515 14.1365 14.6183C14.1365 14.5661 14.1519 14.5658 14.2499 14.6167C14.3862 14.6874 14.4239 14.6665 14.3299 14.5725C14.2923 14.5349 14.2724 14.4866 14.2856 14.4653C14.2988 14.4439 14.3389 14.4557 14.3748 14.4915C14.4458 14.5625 14.535 14.5539 14.535 14.476C14.535 14.449 14.5539 14.4317 14.577 14.4375C14.6 14.4433 14.6163 14.4716 14.6131 14.5004C14.6099 14.5293 14.624 14.5529 14.6446 14.5529C14.6651 14.5529 14.6818 14.5251 14.6818 14.4913C14.6818 14.4536 14.7064 14.4391 14.7451 14.4539C14.7886 14.4706 14.8062 14.4538 14.8014 14.4002C14.7882 14.2524 14.8079 14.1842 14.8708 14.1601C14.9241 14.1396 14.9232 14.1521 14.8651 14.2408C14.8273 14.2985 14.8079 14.3573 14.822 14.3714C14.8361 14.3855 14.8596 14.3661 14.8741 14.3281C14.8925 14.2803 14.9538 14.2583 15.0744 14.2563C15.2099 14.254 15.2297 14.2454 15.1643 14.2173C15.0845 14.183 15.0851 14.1811 15.1757 14.1783C15.2349 14.1764 15.2891 14.1356 15.3187 14.0704C15.345 14.0128 15.3965 13.9658 15.4332 13.9662C15.4906 13.9668 15.4913 13.9723 15.4382 14.0059C15.3488 14.0624 15.3967 14.0877 15.5407 14.0601C15.6499 14.0391 15.6551 14.0321 15.5826 14.0038C15.5175 13.9784 15.5302 13.9708 15.6418 13.9685C15.7674 13.9659 15.9401 13.8452 15.9405 13.7599C15.9405 13.7461 15.9976 13.7328 16.0673 13.7303C16.2213 13.7248 16.2743 13.6811 16.1908 13.6283C16.147 13.6006 16.1447 13.5891 16.1829 13.5886C16.2125 13.5883 16.2487 13.6193 16.2634 13.6577C16.2862 13.7173 16.2949 13.7143 16.3236 13.6367C16.3531 13.5569 16.456 13.5197 16.584 13.5424C16.6035 13.5459 16.6106 13.5245 16.5998 13.4949C16.5889 13.4654 16.5541 13.4472 16.5224 13.4547C16.479 13.4648 16.4766 13.4561 16.5127 13.4193C16.5491 13.3822 16.583 13.3825 16.6543 13.4206C16.7288 13.4604 16.7551 13.4593 16.7823 13.4154C16.8015 13.3844 16.7965 13.3359 16.771 13.3052C16.7459 13.275 16.7386 13.2371 16.7547 13.2211C16.7708 13.205 16.7976 13.2139 16.8142 13.2408C16.8341 13.273 16.8658 13.2764 16.9063 13.2507C16.9884 13.1989 17.0846 13.1996 17.0523 13.2519C17.0375 13.2759 17.0549 13.2825 17.0936 13.2676C17.1304 13.2535 17.1509 13.2324 17.1392 13.2207C17.1275 13.2089 17.1369 13.1638 17.1602 13.1203C17.1924 13.0603 17.187 13.0354 17.1378 13.0165C17.0194 12.9711 17.0648 12.8848 17.1989 12.9004C17.3302 12.9157 17.3574 12.8822 17.278 12.8029C17.2238 12.7487 17.266 12.658 17.3384 12.6731C17.4125 12.6886 17.6215 12.5362 17.5918 12.4882C17.5759 12.4625 17.5505 12.4683 17.526 12.5032C17.4938 12.5493 17.4894 12.5481 17.5035 12.4972C17.5142 12.4583 17.56 12.439 17.6235 12.4466C17.7013 12.4559 17.7277 12.4382 17.7326 12.3732C17.7361 12.326 17.7213 12.2875 17.6997 12.2875C17.6245 12.2875 17.6608 12.1713 17.7428 12.1499C17.7995 12.135 17.8333 12.1539 17.8512 12.2102C17.8793 12.2988 17.975 12.2945 17.975 12.2047C17.975 12.1504 17.9484 12.1313 17.7442 12.0388C17.6865 12.0126 17.6708 12.0001 17.7093 12.0109C17.7724 12.0286 17.8356 11.9546 17.8455 11.8512C17.8475 11.8305 17.8869 11.7988 17.933 11.7808C18.0005 11.7544 18.003 11.7474 17.946 11.7451C17.8665 11.7418 17.8051 11.6673 17.8472 11.6252C17.8623 11.6101 17.8915 11.625 17.9121 11.6583C17.943 11.7084 17.9548 11.705 17.9803 11.6386C17.9996 11.5881 17.9916 11.5519 17.9586 11.5409C17.9238 11.5293 17.9354 11.503 17.993 11.4626C18.0408 11.4291 18.0798 11.3718 18.0798 11.3351C18.0798 11.2861 18.0526 11.2978 17.9773 11.379C17.8388 11.5285 17.7379 11.4911 17.79 11.3094C17.811 11.2362 17.8281 11.1715 17.8281 11.1656C17.8281 11.1597 17.8565 11.1548 17.8911 11.1548C17.9924 11.1548 17.9633 11.0824 17.8506 11.0541C17.7812 11.0367 17.7551 11.0075 17.7712 10.9656C17.7844 10.9312 17.7788 10.9031 17.7588 10.9031C17.7388 10.9031 17.696 10.8606 17.6637 10.8087C17.6113 10.7247 17.612 10.7202 17.6694 10.7677C17.7236 10.8124 17.7377 10.8068 17.757 10.7329C17.7742 10.6672 17.7643 10.6508 17.718 10.6686C17.6797 10.6833 17.6669 10.6748 17.6845 10.6462C17.7002 10.6209 17.6898 10.5857 17.6614 10.5682C17.6206 10.543 17.6205 10.516 17.6609 10.4406C17.7052 10.3579 17.7029 10.3485 17.6442 10.3711C17.5589 10.4038 17.5591 10.3813 17.645 10.2501C17.7254 10.1275 17.6994 10.073 17.6054 10.167C17.5191 10.2532 17.3489 10.2548 17.3819 10.169C17.3964 10.1311 17.382 10.1061 17.3459 10.1061C17.296 10.1061 17.1685 9.94124 17.1918 9.9068C17.2178 9.86835 17.191 9.77045 17.1545 9.77045C17.13 9.77045 17.1217 9.78933 17.136 9.81241C17.1502 9.83548 17.143 9.85436 17.1199 9.85436C17.0593 9.85436 17.0136 9.76583 17.058 9.7343C17.0787 9.71957 17.1192 9.6509 17.148 9.58168C17.1959 9.46623 17.195 9.46256 17.1366 9.53726C17.1017 9.58205 17.073 9.63396 17.073 9.65262C17.073 9.67129 17.0164 9.68656 16.9472 9.68656C16.8633 9.68656 16.8213 9.66558 16.8213 9.62363C16.8213 9.58902 16.8361 9.5607 16.8542 9.5607C16.8908 9.5607 16.8911 9.36483 16.8547 9.32833C16.8419 9.31555 16.8187 9.3559 16.8031 9.41799C16.7812 9.50508 16.7634 9.51951 16.725 9.48112C16.6866 9.44274 16.6895 9.42231 16.7378 9.3918C16.7722 9.37004 16.7815 9.35192 16.7584 9.35154C16.697 9.35059 16.4857 9.16023 16.4857 9.10587C16.4857 9.03429 16.3349 8.80264 16.3066 8.83087C16.2929 8.8446 16.2913 8.81899 16.3031 8.77395C16.3294 8.67337 16.1379 8.43 16.0915 8.50506C16.0749 8.53192 16.0766 8.55388 16.0952 8.55387C16.1219 8.55386 16.1304 8.83223 16.111 9.07026C16.1094 9.08893 16.0846 9.09088 16.0558 9.07459C16.0138 9.0509 16.0138 9.05628 16.0558 9.10148C16.1186 9.16923 16.125 9.33561 16.0661 9.37202C16.0429 9.38633 16.0355 9.44408 16.0497 9.50034C16.0661 9.56567 16.0574 9.60265 16.0256 9.60265C15.9951 9.60265 15.9805 9.65537 15.9877 9.73959C16.001 9.89446 15.956 9.99478 15.8911 9.95467C15.863 9.93732 15.8678 9.91496 15.9044 9.8917C15.9506 9.86244 15.9493 9.85552 15.8975 9.85499C15.8624 9.85468 15.797 9.92243 15.7521 10.0056C15.7073 10.0888 15.6635 10.1354 15.6548 10.1092C15.646 10.0829 15.6707 10.0128 15.7096 9.9534C15.8033 9.81048 15.7278 9.7214 15.6306 9.86015C15.5933 9.91337 15.5628 9.93384 15.5628 9.90564C15.5628 9.87743 15.5445 9.85436 15.5222 9.85436C15.4998 9.85436 15.4936 9.88577 15.5084 9.92416C15.5264 9.9711 15.5191 9.98403 15.4861 9.96364C15.4591 9.94695 15.437 9.9533 15.437 9.97773C15.437 10.0399 15.3227 10.0334 15.297 9.96972C15.2836 9.93661 15.2746 9.94269 15.2725 9.98621C15.2683 10.0729 15.3694 10.1149 15.4319 10.0524C15.4667 10.0177 15.4789 10.0282 15.4789 10.093C15.4789 10.1412 15.4553 10.1798 15.4265 10.1787C15.2707 10.1729 15.2196 10.1935 15.2424 10.2529C15.2752 10.3383 15.2281 10.3324 15.1598 10.2424C15.0828 10.141 15.088 10.104 15.1748 10.1345C15.2296 10.1538 15.2367 10.1478 15.2028 10.1109C15.1408 10.0433 15.0061 10.0997 15.037 10.1803C15.0553 10.2279 15.048 10.2327 15.0079 10.1995C14.9552 10.1557 14.9316 10.148 14.8497 10.148C14.8266 10.148 14.8077 10.128 14.8077 10.1036C14.8077 10.0791 14.8264 10.0707 14.8492 10.0848C14.8729 10.0995 14.88 10.0827 14.8658 10.0455C14.8521 10.0099 14.8238 9.99121 14.803 10.0041C14.7822 10.0169 14.7539 9.99796 14.74 9.96189C14.7262 9.92582 14.6951 9.8963 14.6709 9.8963C14.6467 9.8963 14.6611 9.93406 14.7028 9.9802C14.7446 10.0263 14.7639 10.0641 14.7457 10.0641C14.7039 10.0641 14.5142 9.84562 14.5141 9.79743C14.5141 9.77765 14.4858 9.77234 14.4511 9.78561C14.3806 9.81267 14.3623 9.70753 14.4302 9.66557C14.4532 9.65131 14.4715 9.61716 14.4708 9.58968C14.47 9.5622 14.443 9.57464 14.4106 9.61733C14.3469 9.70148 14.2429 9.6718 14.2783 9.57956C14.2926 9.54253 14.2783 9.53135 14.2371 9.54717C14.1915 9.56468 14.1816 9.60534 14.2013 9.69491C14.2162 9.76288 14.2277 9.9105 14.2268 10.023C14.2257 10.1759 14.2393 10.222 14.2809 10.2061C14.319 10.1914 14.342 10.2319 14.354 10.3347C14.3732 10.4994 14.3569 10.5429 14.2624 10.5789C14.2189 10.5954 14.2272 10.6039 14.2893 10.6061C14.3388 10.608 14.3902 10.638 14.4036 10.6729C14.4225 10.7223 14.4056 10.7307 14.3271 10.711C14.2417 10.6896 14.2296 10.6986 14.2482 10.7696C14.2652 10.8346 14.2361 10.8697 14.1194 10.925C14.0365 10.9644 13.9687 11.0144 13.9687 11.0362C13.9687 11.058 13.9905 11.0624 14.0171 11.0459C14.0484 11.0266 14.0541 11.0345 14.0334 11.0681C14.0157 11.0967 13.9656 11.1109 13.922 11.0995C13.8722 11.0864 13.8429 11.1006 13.8429 11.1378C13.8429 11.1702 13.8193 11.1971 13.7904 11.1974C13.7542 11.1979 13.7522 11.2076 13.7841 11.2289C13.8094 11.2458 13.8299 11.2898 13.8295 11.3267C13.8291 11.3774 13.7924 11.3912 13.6786 11.3834C13.5448 11.3743 13.5387 11.378 13.6226 11.4172C13.7424 11.4732 13.7425 11.5186 13.6228 11.5566C13.5 11.5956 13.4337 11.6896 13.4466 11.8065C13.4571 11.9027 13.2956 12.0191 13.1798 11.9987C13.1478 11.9931 13.1303 12.0206 13.1378 12.0645C13.1457 12.1105 13.1135 12.1564 13.0554 12.1821C12.9943 12.2091 12.9642 12.2544 12.9715 12.3083C12.9793 12.3662 12.9601 12.3906 12.9099 12.3866C12.8684 12.3833 12.8488 12.4 12.8644 12.4252C12.8813 12.4527 12.8656 12.4595 12.8232 12.4432C12.7841 12.4282 12.7238 12.4477 12.6829 12.4885C12.6435 12.5279 12.6005 12.5573 12.5873 12.5539C12.5742 12.5504 12.5686 12.566 12.5749 12.5884C12.5812 12.6109 12.5684 12.6182 12.5463 12.6045C12.5243 12.5909 12.4949 12.5981 12.481 12.6206C12.4672 12.643 12.4279 12.6507 12.3937 12.6376C12.3483 12.6201 12.3392 12.6334 12.3598 12.6871C12.3798 12.7391 12.3708 12.7544 12.3288 12.7397C12.2963 12.7283 12.2727 12.6859 12.2763 12.6456C12.2808 12.5953 12.2693 12.5858 12.2397 12.6153C12.216 12.6391 12.1658 12.6468 12.1283 12.6326C12.0694 12.6104 12.0701 12.6171 12.1334 12.6809C12.2114 12.7596 12.2316 12.8112 12.1694 12.7727C12.1489 12.76 12.1008 12.7973 12.0627 12.8555C12.0244 12.914 11.9725 12.9485 11.9469 12.9326C11.9161 12.9136 11.9264 12.8849 11.9777 12.8474C12.0604 12.7869 12.0451 12.7751 11.9375 12.8163C11.901 12.8303 11.8712 12.8735 11.8712 12.9122C11.8712 12.9547 11.8379 12.9827 11.7873 12.9827C11.7411 12.9827 11.7034 12.9678 11.7034 12.9497C11.7034 12.8872 11.6395 12.9169 11.5845 13.005C11.5542 13.0536 11.5483 13.0816 11.5715 13.0673C11.5947 13.0529 11.6255 13.0604 11.64 13.0839C11.6738 13.1384 11.5949 13.1387 11.4934 13.0845C11.4409 13.0564 11.4062 13.0564 11.3888 13.0845C11.3745 13.1076 11.3828 13.1266 11.4072 13.1266C11.4317 13.1266 11.4517 13.1464 11.4517 13.1706C11.4517 13.1981 11.4272 13.2009 11.3865 13.1782C11.2888 13.1235 11.0645 13.1667 11.0907 13.2352C11.117 13.3036 11.0488 13.3551 11.0116 13.295C10.9716 13.2304 10.8941 13.2441 10.9199 13.3112C10.9567 13.4072 10.904 13.4206 10.7882 13.3447C10.6861 13.2779 10.6813 13.2779 10.7069 13.3448C10.7265 13.3958 10.717 13.4093 10.6735 13.3926C10.64 13.3798 10.6127 13.3886 10.6127 13.4122C10.6127 13.4358 10.6363 13.4638 10.6651 13.4744C10.7053 13.4891 10.706 13.5059 10.6684 13.5459C10.6162 13.6014 10.6404 13.7276 10.6965 13.6929C10.7147 13.6817 10.7416 13.7206 10.7564 13.7795C10.7762 13.8583 10.803 13.8802 10.8584 13.8626C10.9104 13.8461 10.9511 13.8715 10.9904 13.9449C11.0316 14.022 11.0565 14.0365 11.081 13.9978C11.1055 13.9592 11.115 13.9647 11.1154 14.018C11.1157 14.0584 11.1444 14.0914 11.179 14.0914C11.2136 14.0914 11.2419 14.0688 11.2419 14.0411C11.2419 14.0019 11.2531 14.0019 11.2923 14.0411C11.3686 14.1174 11.4282 14.1013 11.3624 14.022C11.3089 13.9575 11.3142 13.9574 11.4366 14.0207C11.5676 14.0885 11.5687 14.0881 11.6184 13.9682C11.6643 13.8573 11.6791 13.8506 11.801 13.8856C11.9669 13.9332 11.9551 13.9352 11.9551 13.8589C11.9551 13.8232 11.9787 13.7972 12.0075 13.8009C12.1169 13.8151 12.1648 13.7958 12.1648 13.7375C12.1648 13.703 12.2008 13.6798 12.2487 13.6835C12.2949 13.6869 12.3326 13.7053 12.3326 13.7243C12.3326 13.7677 12.4533 13.7031 12.5634 13.6007C12.6095 13.5578 12.6803 13.5293 12.7207 13.5375C12.7644 13.5462 12.7941 13.5269 12.7941 13.4896C12.7941 13.4416 12.8376 13.4299 12.9806 13.4395C13.1437 13.4505 13.1687 13.441 13.1799 13.3628C13.1899 13.2926 13.2265 13.2706 13.3499 13.2604C13.4365 13.2532 13.5073 13.2328 13.5073 13.2149C13.5073 13.1971 13.5356 13.1825 13.5702 13.1825C13.6048 13.1825 13.6331 13.1993 13.6331 13.2199C13.6331 13.2405 13.652 13.2457 13.6751 13.2314C13.6981 13.2172 13.717 13.2287 13.717 13.2569C13.717 13.2852 13.728 13.2974 13.7414 13.284C13.7548 13.2706 13.7447 13.2202 13.7189 13.1721C13.6828 13.1046 13.6844 13.0839 13.726 13.0815C13.8695 13.0732 13.9916 13.0349 14.0537 12.9787C14.1374 12.903 14.2063 12.8994 14.2347 12.9693C14.2515 13.0108 14.2636 13.0109 14.2927 12.9699C14.3214 12.9294 14.3484 12.9314 14.4166 12.9792C14.5182 13.0503 14.5773 13.258 14.4861 13.2229C14.4483 13.2085 14.4375 13.2228 14.4539 13.2655C14.4752 13.3211 14.3444 13.5041 14.2833 13.5041C14.24 13.5041 14.1026 13.6659 14.126 13.6894C14.1492 13.7126 14.055 13.7299 13.9344 13.7247C13.9041 13.7234 13.8886 13.7317 13.9002 13.7432C13.9117 13.7547 13.8613 13.8227 13.7881 13.8941C13.7078 13.9726 13.6854 14.0125 13.7315 13.9948C13.7832 13.975 13.8023 13.9825 13.7904 14.018C13.7808 14.0468 13.7273 14.0704 13.6716 14.0704C13.546 14.0704 13.4684 14.1346 13.4987 14.2134C13.5117 14.2473 13.5031 14.2616 13.4788 14.2466C13.4337 14.2187 13.2555 14.3618 13.2555 14.4259C13.2555 14.4465 13.2036 14.4694 13.1402 14.4767C13.0767 14.484 13.0293 14.5129 13.0348 14.5409C13.0403 14.5689 13.0191 14.582 12.9878 14.5699C12.9359 14.55 12.8671 14.6444 12.8896 14.7046C12.8948 14.7184 12.8334 14.7607 12.7533 14.7986C12.6732 14.8365 12.5838 14.9147 12.5547 14.9724C12.5255 15.0301 12.5014 15.0543 12.5011 15.0261C12.5007 14.998 12.475 14.9848 12.4438 14.9968C12.372 15.0243 12.376 15.249 12.448 15.2346C12.4768 15.2288 12.5004 15.239 12.5004 15.2571C12.5004 15.2753 12.5382 15.293 12.5843 15.2965C12.6305 15.2999 12.6682 15.2851 12.6682 15.2634C12.6682 15.2418 12.7054 15.2241 12.7508 15.2241C12.807 15.2241 12.8257 15.2442 12.8093 15.287C12.796 15.3216 12.806 15.3499 12.8316 15.3499C12.8571 15.3499 12.878 15.3289 12.878 15.3031ZM13.2555 14.9724C13.2555 14.9493 13.2744 14.9304 13.2975 14.9304C13.3206 14.9304 13.3394 14.9493 13.3394 14.9724C13.3394 14.9955 13.3206 15.0143 13.2975 15.0143C13.2744 15.0143 13.2555 14.9955 13.2555 14.9724ZM13.717 14.7207C13.717 14.6976 13.7464 14.6787 13.7824 14.6787C13.8184 14.6787 13.8361 14.6976 13.8219 14.7207C13.8076 14.7437 13.7782 14.7626 13.7565 14.7626C13.7347 14.7626 13.717 14.7437 13.717 14.7207ZM15.5423 13.881C15.5567 13.8575 15.5862 13.8492 15.6077 13.8625C15.6658 13.8984 15.655 13.9236 15.5813 13.9236C15.5453 13.9236 15.5278 13.9044 15.5423 13.881ZM16.5906 13.2944C16.5763 13.2713 16.5847 13.2524 16.6091 13.2524C16.6335 13.2524 16.6535 13.2713 16.6535 13.2944C16.6535 13.3174 16.6452 13.3363 16.635 13.3363C16.6248 13.3363 16.6049 13.3174 16.5906 13.2944ZM15.1102 11.8101C14.9497 11.6515 14.9335 11.4984 15.0528 11.2684C15.1158 11.1469 15.1784 11.0755 15.211 11.088C15.2447 11.1009 15.2561 11.0859 15.2416 11.0479C15.2271 11.0103 15.244 10.9871 15.2856 10.9871C15.3227 10.9871 15.3531 10.9669 15.3531 10.9423C15.3531 10.9166 15.3888 10.9089 15.437 10.9242C15.4982 10.9436 15.5209 10.9317 15.5209 10.8801C15.5209 10.8301 15.5454 10.8159 15.6048 10.8314C15.6509 10.8435 15.6887 10.8387 15.6887 10.8209C15.6887 10.803 15.7453 10.7949 15.8145 10.803C15.9062 10.8137 15.9404 10.8001 15.9404 10.7531C15.9404 10.7116 15.9591 10.7004 15.9928 10.7218C16.053 10.76 16.0347 10.7549 16.2618 10.7967C16.4421 10.8299 16.4851 10.8858 16.5054 11.1129C16.5148 11.2186 16.4167 11.4454 16.3389 11.4977C16.3158 11.5132 16.2214 11.5934 16.1291 11.676C16.0368 11.7585 15.933 11.8275 15.8984 11.8293C15.8638 11.831 15.7977 11.8408 15.7516 11.8509C15.5343 11.8984 15.417 11.9023 15.3462 11.8644C15.2945 11.8367 15.2692 11.8374 15.2692 11.8666C15.2692 11.9333 15.2157 11.9143 15.1102 11.8101ZM15.8565 11.5818C16.0715 11.5038 16.2474 11.3197 16.2665 11.1527C16.2772 11.0591 16.2588 11.0332 16.1624 11.0062C16.0979 10.9881 16.0302 10.9767 16.0119 10.9808C15.9936 10.9849 15.9275 10.9903 15.8651 10.9926C15.7094 10.9985 15.3131 11.1995 15.2591 11.2999C15.136 11.5287 15.2586 11.7082 15.5132 11.6721C15.5982 11.6601 15.7526 11.6194 15.8565 11.5818ZM15.4265 11.5035C15.3161 11.4747 15.3366 11.4285 15.5104 11.3148C15.7214 11.1768 15.8137 11.139 15.9508 11.1347C16.1821 11.1274 16.0133 11.3642 15.7152 11.4655C15.6067 11.5023 15.5139 11.5302 15.5089 11.5276C15.5039 11.5249 15.4668 11.5141 15.4265 11.5035ZM17.434 10.4589C17.3937 10.3539 17.4523 10.3025 17.5162 10.3868C17.5903 10.4846 17.5909 10.5256 17.518 10.5256C17.4858 10.5256 17.448 10.4956 17.434 10.4589ZM16.0452 9.68661C16.031 9.66354 16.0393 9.64466 16.0637 9.64466C16.0882 9.64466 16.1082 9.66354 16.1082 9.68661C16.1082 9.70969 16.0998 9.72856 16.0897 9.72856C16.0795 9.72856 16.0595 9.70969 16.0452 9.68661ZM12.7187 14.6633C12.7518 14.6116 12.4702 14.4568 12.4103 14.4938C12.3899 14.5064 12.4059 14.572 12.4459 14.6396C12.5011 14.7332 12.5389 14.7562 12.6038 14.736C12.6508 14.7213 12.7025 14.6886 12.7187 14.6633ZM14.556 14.6787C14.5807 14.6326 14.5915 14.5948 14.5799 14.5948C14.5684 14.5948 14.5387 14.6326 14.514 14.6787C14.4893 14.7249 14.4786 14.7626 14.4901 14.7626C14.5017 14.7626 14.5313 14.7249 14.556 14.6787ZM11.6815 14.3536C11.6241 14.1862 11.543 14.1424 11.4215 14.2132C11.3804 14.2371 11.3704 14.2572 11.3992 14.2579C11.4281 14.2586 11.4517 14.2798 11.4517 14.3049C11.4517 14.3603 11.6217 14.5076 11.6879 14.5095C11.7221 14.5105 11.7203 14.4668 11.6815 14.3536ZM13.1481 14.346C13.2189 14.2677 13.2157 14.262 13.0514 14.1782C12.8477 14.0743 12.836 14.0731 12.836 14.1563C12.836 14.2123 13.0123 14.427 13.0583 14.427C13.0673 14.427 13.1077 14.3906 13.1481 14.346ZM12.1648 14.2592C12.1401 14.2131 12.1307 14.1753 12.1438 14.1753C12.157 14.1753 12.1476 14.1376 12.1229 14.0914C12.0677 13.9884 11.9131 13.9787 11.9131 14.0782C11.9131 14.1648 12.0743 14.3431 12.1526 14.3431C12.1967 14.3431 12.1995 14.324 12.1648 14.2592ZM12.7102 14.0934C12.7102 14.0315 12.6116 13.822 12.568 13.7912C12.4988 13.7422 12.4165 13.804 12.4165 13.9048C12.4165 13.9587 12.4585 14.0321 12.5098 14.0681C12.6146 14.1415 12.7102 14.1536 12.7102 14.0934ZM13.5205 14.031C13.6118 13.9618 13.6171 13.924 13.5423 13.8765C13.4711 13.8314 13.2555 13.8288 13.2555 13.8731C13.2555 13.913 13.3933 14.0906 13.4233 14.0895C13.4349 14.0891 13.4786 14.0628 13.5205 14.031ZM10.9063 13.9656C10.9063 13.9425 10.898 13.9236 10.8878 13.9236C10.8776 13.9236 10.8576 13.9425 10.8434 13.9656C10.8291 13.9886 10.8374 14.0075 10.8619 14.0075C10.8863 14.0075 10.9063 13.9886 10.9063 13.9656ZM12.3746 13.8656C12.3746 13.8567 12.3368 13.8396 12.2906 13.8275C12.2444 13.8155 12.2172 13.8227 12.2302 13.8436C12.2527 13.8802 12.3746 13.8987 12.3746 13.8656ZM13.0989 13.7873C13.0639 13.6435 12.9587 13.5384 12.8992 13.5878C12.8717 13.6106 12.8387 13.6187 12.8259 13.6058C12.813 13.593 12.7897 13.603 12.7742 13.6282C12.7586 13.6534 12.7614 13.6691 12.7805 13.6631C12.7995 13.6572 12.8661 13.7039 12.9285 13.767C13.0663 13.9063 13.1296 13.9138 13.0989 13.7873ZM13.5492 13.5541C13.5492 13.4893 13.5234 13.4009 13.4918 13.3577C13.4365 13.2821 13.4325 13.2827 13.3833 13.3747C13.3394 13.4568 13.3455 13.4842 13.427 13.571C13.546 13.6976 13.5492 13.6971 13.5492 13.5541ZM14.0061 13.5856C14.0613 13.5396 14.0917 13.4883 14.0738 13.4716C14.0558 13.4549 14.0326 13.4649 14.0223 13.4939C14.0086 13.5322 13.97 13.5228 13.881 13.4595C13.7778 13.3859 13.7548 13.3821 13.7346 13.4349C13.7047 13.5128 13.7861 13.6724 13.8548 13.6705C13.8828 13.6697 13.9509 13.6315 14.0061 13.5856ZM14.2791 13.3468C14.2529 13.2342 14.1574 13.1266 14.0836 13.1266C14.0076 13.1266 14.0774 13.317 14.168 13.3567C14.2199 13.3795 14.2623 13.4126 14.2623 13.4302C14.2623 13.4478 14.2721 13.4622 14.2841 13.4622C14.2961 13.4622 14.2938 13.4102 14.2791 13.3468ZM17.6813 12.6232C17.6956 12.6001 17.6872 12.5812 17.6628 12.5812C17.6384 12.5812 17.6184 12.6001 17.6184 12.6232C17.6184 12.6462 17.6267 12.6651 17.6369 12.6651C17.6471 12.6651 17.667 12.6462 17.6813 12.6232ZM12.5058 12.4658C12.559 12.3979 12.5571 12.397 12.4794 12.454C12.4333 12.4878 12.3877 12.5208 12.3781 12.5274C12.3685 12.5339 12.3803 12.5392 12.4044 12.5392C12.4285 12.5392 12.4741 12.5062 12.5058 12.4658ZM17.8701 12.3714C17.8701 12.3484 17.8512 12.3295 17.8281 12.3295C17.8051 12.3295 17.7862 12.3484 17.7862 12.3714C17.7862 12.3945 17.8051 12.4134 17.8281 12.4134C17.8512 12.4134 17.8701 12.3945 17.8701 12.3714ZM13.1926 11.91C13.2069 11.8869 13.1997 11.868 13.1766 11.868C13.1535 11.868 13.123 11.8869 13.1087 11.91C13.0944 11.9331 13.1016 11.9519 13.1247 11.9519C13.1478 11.9519 13.1783 11.9331 13.1926 11.91ZM18.0665 11.8602C18.0531 11.8267 18.0432 11.8366 18.0412 11.8855C18.0394 11.9297 18.0493 11.9545 18.0632 11.9406C18.0772 11.9266 18.0787 11.8905 18.0665 11.8602ZM18.1218 11.6978C18.1218 11.6761 18.1029 11.6583 18.0798 11.6583C18.0568 11.6583 18.0379 11.6877 18.0379 11.7237C18.0379 11.7597 18.0568 11.7774 18.0798 11.7632C18.1029 11.7489 18.1218 11.7195 18.1218 11.6978ZM18.1637 11.5139C18.1637 11.5038 18.1449 11.4838 18.1218 11.4695C18.0987 11.4553 18.0798 11.4636 18.0798 11.488C18.0798 11.5124 18.0987 11.5324 18.1218 11.5324C18.1449 11.5324 18.1637 11.5241 18.1637 11.5139ZM17.9067 10.8983C17.8599 10.8682 17.8593 10.8546 17.9035 10.8261C17.9475 10.7976 17.9464 10.7813 17.898 10.7411C17.8507 10.7018 17.8327 10.7049 17.8134 10.7553C17.7849 10.8296 17.823 10.9527 17.888 10.9962C17.9128 11.0128 17.94 11.0059 17.9486 10.9809C17.9572 10.9559 17.9383 10.9187 17.9067 10.8983ZM13.8752 10.8691C13.9003 10.7936 13.8136 10.8095 13.7844 10.8857C13.7687 10.9266 13.7781 10.9457 13.8087 10.9355C13.8361 10.9264 13.866 10.8965 13.8752 10.8691ZM14.1677 10.7254C14.1732 10.6517 14.1662 10.6449 14.1353 10.694C14.0868 10.7707 14.0838 10.8193 14.1276 10.8193C14.1457 10.8193 14.1638 10.777 14.1677 10.7254ZM17.926 10.4238C17.9387 10.3909 17.9233 10.3426 17.8919 10.3165C17.8458 10.2783 17.8394 10.2871 17.859 10.362C17.8757 10.4259 17.8682 10.4455 17.8347 10.4248C17.808 10.4083 17.7862 10.4148 17.7862 10.4392C17.7862 10.5055 17.8995 10.4929 17.926 10.4238ZM16.4515 8.71266C16.4214 8.68256 16.4018 8.68008 16.4018 8.70637C16.4018 8.76236 16.4514 8.81197 16.4794 8.78398C16.4913 8.77205 16.4788 8.73997 16.4515 8.71266ZM16.3002 8.52149C16.228 8.4523 16.2271 8.45319 16.2802 8.54156C16.3107 8.59242 16.3447 8.62501 16.3558 8.61397C16.3668 8.60293 16.3418 8.56132 16.3002 8.52149ZM19.9257 20.9713C19.9257 20.9482 19.9456 20.9293 19.9701 20.9293C19.9945 20.9293 20.0028 20.9482 19.9886 20.9713C19.9743 20.9944 19.9543 21.0132 19.9442 21.0132C19.934 21.0132 19.9257 20.9944 19.9257 20.9713Z" fill="#061F31"/>
</svg>
