<svg width="103" height="25" viewBox="0 0 103 25" fill="none" xmlns="http://www.w3.org/2000/svg">
<rect x="0.890625" y="0.566528" width="102.089" height="24.0516" rx="5" fill="#061F31"/>
<path d="M32.5035 5.47562V18.5665H30.132V5.47562H32.5035ZM37.2831 12.8137V18.5665H34.9692V8.74835H37.1808V10.4167H37.2959C37.5218 9.86695 37.8818 9.43016 38.3762 9.1063C38.8747 8.78244 39.4905 8.62051 40.2235 8.62051C40.901 8.62051 41.4912 8.76539 41.9941 9.05516C42.5012 9.34494 42.8932 9.76468 43.1702 10.3144C43.4514 10.8641 43.5899 11.531 43.5857 12.3151V18.5665H41.2718V12.6731C41.2718 12.0168 41.1013 11.5033 40.7604 11.1326C40.4237 10.7618 39.9571 10.5765 39.3605 10.5765C38.9557 10.5765 38.5956 10.666 38.2803 10.8449C37.9692 11.0197 37.7242 11.2732 37.5452 11.6056C37.3705 11.938 37.2831 12.3407 37.2831 12.8137ZM50.911 8.74835V10.5381H45.107V8.74835H50.911ZM46.558 18.5665V7.8215C46.558 7.16099 46.6943 6.61127 46.9671 6.17235C47.2441 5.73343 47.6148 5.40531 48.0793 5.18798C48.5438 4.97065 49.0594 4.86198 49.6262 4.86198C50.0267 4.86198 50.3825 4.89394 50.6936 4.95786C51.0047 5.02178 51.2348 5.07931 51.384 5.13045L50.9237 6.92022C50.8257 6.89039 50.7021 6.86056 50.553 6.83073C50.4039 6.79664 50.2377 6.7796 50.0544 6.7796C49.624 6.7796 49.3193 6.884 49.1404 7.09281C48.9656 7.29735 48.8783 7.59139 48.8783 7.97491V18.5665H46.558ZM56.7006 18.7583C55.7162 18.7583 54.866 18.5537 54.1501 18.1447C53.4385 17.7313 52.8909 17.1475 52.5074 16.3932C52.1238 15.6347 51.9321 14.742 51.9321 13.715C51.9321 12.705 52.1238 11.8187 52.5074 11.0559C52.8952 10.2888 53.4363 9.69224 54.1309 9.2661C54.8256 8.8357 55.6416 8.62051 56.5791 8.62051C57.1842 8.62051 57.7552 8.71852 58.2922 8.91454C58.8334 9.1063 59.3106 9.4046 59.724 9.80943C60.1416 10.2143 60.4697 10.7299 60.7084 11.3563C60.947 11.9785 61.0663 12.7199 61.0663 13.5807V14.2902H53.0187V12.7306H58.8483C58.844 12.2874 58.7481 11.8932 58.5606 11.5481C58.3731 11.1986 58.1111 10.9238 57.7744 10.7235C57.442 10.5232 57.0542 10.4231 56.6111 10.4231C56.1381 10.4231 55.7226 10.5381 55.3646 10.7682C55.0067 10.9941 54.7275 11.2924 54.5273 11.6631C54.3312 12.0296 54.2311 12.4323 54.2268 12.8712V14.2327C54.2268 14.8037 54.3312 15.2938 54.54 15.7029C54.7488 16.1077 55.0407 16.4188 55.4157 16.6361C55.7907 16.8492 56.2297 16.9557 56.7325 16.9557C57.0692 16.9557 57.3738 16.9089 57.6466 16.8151C57.9193 16.7171 58.1558 16.5743 58.3561 16.3868C58.5564 16.1993 58.7077 15.9671 58.8099 15.6901L60.9704 15.933C60.8341 16.504 60.5741 17.0026 60.1906 17.4287C59.8113 17.8506 59.3256 18.1787 58.7332 18.4131C58.1409 18.6432 57.4633 18.7583 56.7006 18.7583ZM67.3066 18.7583C66.3264 18.7583 65.4848 18.5431 64.7817 18.1127C64.0828 17.6823 63.5438 17.0878 63.1645 16.3293C62.7895 15.5665 62.602 14.6887 62.602 13.6958C62.602 12.6986 62.7938 11.8187 63.1773 11.0559C63.5608 10.2888 64.102 9.69224 64.8009 9.2661C65.504 8.8357 66.335 8.62051 67.2938 8.62051C68.0906 8.62051 68.7959 8.76752 69.4095 9.06156C70.0274 9.35133 70.5196 9.76255 70.8861 10.2952C71.2526 10.8236 71.4614 11.4415 71.5125 12.1489H69.3009C69.2114 11.6759 68.9983 11.2817 68.6617 10.9664C68.3293 10.6468 67.884 10.487 67.3257 10.487C66.8527 10.487 66.4372 10.6148 66.0793 10.8705C65.7213 11.1219 65.4422 11.4841 65.2419 11.9572C65.0459 12.4302 64.9479 12.9969 64.9479 13.6574C64.9479 14.3265 65.0459 14.9018 65.2419 15.3833C65.4379 15.8606 65.7128 16.2292 66.0665 16.4891C66.4244 16.7448 66.8442 16.8726 67.3257 16.8726C67.6666 16.8726 67.9713 16.8087 68.2398 16.6809C68.5125 16.5488 68.7405 16.3591 68.9237 16.112C69.107 15.8648 69.2327 15.5644 69.3009 15.2107H71.5125C71.4571 15.9053 71.2526 16.5211 70.8989 17.058C70.5452 17.5907 70.0637 18.0083 69.4543 18.3108C68.8449 18.6091 68.129 18.7583 67.3066 18.7583ZM78.3153 8.74835V10.5381H72.6711V8.74835H78.3153ZM74.0645 6.39607H76.3785V15.6134C76.3785 15.9245 76.4253 16.1631 76.5191 16.3293C76.6171 16.4912 76.7449 16.602 76.9026 16.6617C77.0603 16.7214 77.235 16.7512 77.4268 16.7512C77.5716 16.7512 77.7037 16.7405 77.8231 16.7192C77.9466 16.6979 78.0404 16.6787 78.1043 16.6617L78.4942 18.4706C78.3707 18.5133 78.1938 18.5601 77.9637 18.6113C77.7378 18.6624 77.4608 18.6922 77.1327 18.7008C76.5532 18.7178 76.0312 18.6304 75.5667 18.4387C75.1022 18.2427 74.7336 17.9401 74.4608 17.531C74.1924 17.1219 74.0603 16.6106 74.0645 15.9969V6.39607ZM84.4916 18.7583C83.5072 18.7583 82.657 18.5537 81.9411 18.1447C81.2295 17.7313 80.6819 17.1475 80.2984 16.3932C79.9149 15.6347 79.7231 14.742 79.7231 13.715C79.7231 12.705 79.9149 11.8187 80.2984 11.0559C80.6862 10.2888 81.2274 9.69224 81.922 9.2661C82.6166 8.8357 83.4326 8.62051 84.3701 8.62051C84.9752 8.62051 85.5463 8.71852 86.0832 8.91454C86.6244 9.1063 87.1017 9.4046 87.515 9.80943C87.9326 10.2143 88.2607 10.7299 88.4994 11.3563C88.738 11.9785 88.8573 12.7199 88.8573 13.5807V14.2902H80.8097V12.7306H86.6393C86.635 12.2874 86.5392 11.8932 86.3517 11.5481C86.1642 11.1986 85.9021 10.9238 85.5654 10.7235C85.233 10.5232 84.8453 10.4231 84.4021 10.4231C83.9291 10.4231 83.5136 10.5381 83.1556 10.7682C82.7977 10.9941 82.5186 11.2924 82.3183 11.6631C82.1222 12.0296 82.0221 12.4323 82.0178 12.8712V14.2327C82.0178 14.8037 82.1222 15.2938 82.3311 15.7029C82.5399 16.1077 82.8318 16.4188 83.2068 16.6361C83.5818 16.8492 84.0207 16.9557 84.5235 16.9557C84.8602 16.9557 85.1649 16.9089 85.4376 16.8151C85.7103 16.7171 85.9468 16.5743 86.1471 16.3868C86.3474 16.1993 86.4987 15.9671 86.6009 15.6901L88.7615 15.933C88.6251 16.504 88.3651 17.0026 87.9816 17.4287C87.6024 17.8506 87.1166 18.1787 86.5242 18.4131C85.9319 18.6432 85.2544 18.7583 84.4916 18.7583ZM90.8149 18.5665V8.74835H93.0585V10.3847H93.1608C93.3398 9.81795 93.6466 9.38116 94.0812 9.07434C94.5202 8.76326 95.0209 8.60772 95.5834 8.60772C95.7112 8.60772 95.854 8.61411 96.0116 8.6269C96.1736 8.63542 96.3078 8.65033 96.4143 8.67164V10.8002C96.3163 10.7661 96.1608 10.7363 95.9477 10.7107C95.7389 10.6809 95.5365 10.666 95.3405 10.666C94.9186 10.666 94.5393 10.7576 94.2027 10.9408C93.8703 11.1198 93.6082 11.3691 93.4165 11.6887C93.2247 12.0083 93.1288 12.3769 93.1288 12.7945V18.5665H90.8149Z" fill="#E85660"/>
<path d="M7.99439 21.8793C7.99435 21.8793 7.99427 21.8793 7.99424 21.8792C7.97573 21.848 7.92031 21.8013 7.871 21.7755C7.79388 21.735 7.77789 21.7412 7.75744 21.8194C7.73397 21.9092 7.73238 21.9093 7.64558 21.8308C7.57977 21.7712 7.53959 21.7618 7.48647 21.7934C7.38686 21.8526 7.28109 21.8207 7.25576 21.7239C7.2426 21.6736 7.18428 21.6319 7.10463 21.616C7.03329 21.6017 6.97492 21.5754 6.97492 21.5576C6.97492 21.5397 6.91334 21.5251 6.83808 21.5251C6.76282 21.5251 6.63539 21.497 6.55491 21.4628V21.4628C6.52695 21.4509 6.53666 21.4089 6.56699 21.4109V21.4109C6.6541 21.4166 6.73393 21.4074 6.74437 21.3905C6.75482 21.3736 6.844 21.3753 6.94256 21.3943C7.10343 21.4253 7.13049 21.4183 7.20723 21.3259C7.25424 21.2693 7.33447 21.223 7.38552 21.223C7.43656 21.223 7.47833 21.2035 7.47833 21.1796C7.47833 21.1513 7.50391 21.1498 7.55174 21.1753C7.68915 21.2485 8.23666 21.2013 8.53669 21.0903C8.84988 20.9745 8.98855 20.8716 8.98855 20.7551C8.98855 20.6807 8.89745 20.651 8.73684 20.6731C8.70223 20.6779 8.57953 20.6867 8.46416 20.6928C8.33633 20.6995 8.25815 20.7222 8.26397 20.7509C8.27028 20.7819 8.22409 20.7899 8.12799 20.7743C8.04551 20.7609 7.95763 20.7713 7.92517 20.7982C7.89213 20.8257 7.81215 20.8346 7.73614 20.8194C7.65501 20.8032 7.57987 20.8134 7.54057 20.846C7.4885 20.8893 7.46279 20.8864 7.40083 20.8303C7.30433 20.7429 7.24109 20.7432 7.19192 20.8311C7.15656 20.8943 7.14159 20.8924 7.02605 20.8101C6.88826 20.712 6.80712 20.6946 6.80712 20.7631C6.80712 20.8262 6.63966 20.7298 6.638 20.6657C6.63584 20.5824 6.46386 20.4823 6.24037 20.4342C6.12523 20.4094 5.96496 20.3587 5.88421 20.3215C5.73928 20.2548 5.74214 20.2543 6.10564 20.2774C6.41365 20.297 6.47796 20.2902 6.49877 20.236C6.54475 20.1162 6.76621 20.0575 7.01751 20.0986C7.65722 20.2031 7.74817 20.2053 8.23893 20.1275C8.50729 20.085 8.7763 20.0314 8.83673 20.0084C8.97785 19.9547 8.98254 19.8032 8.84703 19.6759C8.75608 19.5904 8.74171 19.5881 8.68086 19.649C8.62608 19.7038 8.59947 19.7064 8.53106 19.6636C8.46218 19.6206 8.43423 19.624 8.36847 19.6836C8.31169 19.7349 8.25124 19.7479 8.15637 19.7289C8.05097 19.7078 8.02368 19.7164 8.02368 19.7705C8.02368 19.845 7.95184 19.8583 7.86075 19.8006C7.82816 19.78 7.74806 19.7795 7.67815 19.7995C7.59572 19.8232 7.49832 19.8162 7.39012 19.7789C7.25175 19.7312 7.22662 19.7315 7.22662 19.7806C7.22662 19.8574 7.16601 19.8543 7.09949 19.7742C7.07006 19.7387 7.01583 19.7133 6.97899 19.7178C6.94214 19.7223 6.85778 19.7037 6.79153 19.6765C6.70685 19.6418 6.65528 19.6402 6.61793 19.6712C6.54116 19.7349 6.38099 19.6512 6.2959 19.503C6.25013 19.4232 6.11315 19.3242 5.89785 19.2152C5.52274 19.0252 5.54816 18.9463 5.94091 19.0814C6.17843 19.1631 6.18588 19.1632 6.26816 19.0866C6.42161 18.9436 6.68655 18.9552 7.12011 19.1238C7.18843 19.1504 7.28638 19.1615 7.33778 19.1486C7.38918 19.1357 7.44418 19.1461 7.46 19.1717C7.47953 19.2033 7.59143 19.2093 7.80866 19.1902C7.98461 19.1748 8.23054 19.1532 8.35519 19.1422C8.56467 19.1236 8.82074 19.0011 8.82074 18.9194C8.82074 18.8713 8.67504 18.7479 8.61817 18.7479C8.59115 18.7479 8.56904 18.7668 8.56904 18.7899C8.56904 18.8445 8.41396 18.8444 8.38019 18.7898C8.36281 18.7616 8.32814 18.7616 8.2756 18.7898C8.16732 18.8477 8.03454 18.8425 8.01169 18.7794C7.99673 18.7381 7.97441 18.7377 7.90689 18.7775C7.83786 18.8182 7.81133 18.8163 7.77115 18.7679C7.73354 18.7226 7.7009 18.7186 7.63891 18.7518C7.57735 18.7847 7.53223 18.7799 7.45988 18.7325C7.40668 18.6976 7.3229 18.6796 7.27369 18.6925C7.22449 18.7053 7.15596 18.6924 7.12142 18.6637C7.08396 18.6327 7.00733 18.6219 6.93153 18.637C6.82225 18.6589 6.79865 18.6472 6.76309 18.5537C6.7319 18.4716 6.70048 18.4504 6.63542 18.4674C6.54583 18.4909 6.38761 18.3875 6.38761 18.3056C6.38761 18.2447 6.07255 18.0906 5.87372 18.0542C5.7872 18.0384 5.71641 18.0087 5.71641 17.9881C5.71641 17.9434 6.16517 17.9436 6.27961 17.9885C6.33383 18.0097 6.3848 17.9957 6.43468 17.9458C6.52707 17.8534 6.87853 17.8714 7.03925 17.9767C7.0976 18.0149 7.15667 18.0349 7.17052 18.021C7.18438 18.0072 7.2357 18.0181 7.28458 18.0452C7.33346 18.0724 7.42263 18.0972 7.48273 18.1004C7.54283 18.1036 7.61544 18.1207 7.64408 18.1384C7.71125 18.1799 8.67209 18.209 8.85762 18.1752C8.94664 18.1589 9.00698 18.1202 9.01983 18.0711C9.03108 18.0281 9.06463 17.9929 9.09439 17.9929C9.18102 17.9929 9.11922 17.8444 8.99408 17.7519C8.93177 17.7058 8.78705 17.6564 8.67248 17.6421C8.5579 17.6277 8.42311 17.6078 8.37293 17.5977C8.25627 17.5743 7.93978 17.2689 7.93978 17.1798C7.93978 17.1425 7.92235 17.1119 7.90105 17.1119C7.87975 17.1119 7.80896 17.069 7.74374 17.0165C7.67852 16.9641 7.56852 16.9151 7.4993 16.9076C7.43009 16.9001 7.36401 16.8841 7.35248 16.872C7.31932 16.8371 7.90295 16.9062 8.02118 16.9511C8.07976 16.9734 8.18924 16.9801 8.26446 16.966C8.348 16.9503 8.40124 16.9574 8.40124 16.9842C8.40124 17.0387 8.57095 17.0412 8.70893 16.9887C8.79465 16.9561 8.81597 16.9633 8.83359 17.0307C8.84692 17.0816 8.89149 17.1121 8.95315 17.1125C9.11525 17.1135 9.24025 17.1601 9.24025 17.2197C9.24025 17.2708 9.47688 17.3628 9.60979 17.3634C9.63999 17.3635 9.65253 17.3833 9.63764 17.4074C9.58424 17.4938 9.708 17.5787 9.8439 17.5488C9.95512 17.5244 9.96561 17.5291 9.9206 17.5833C9.84248 17.6775 9.95676 17.7563 10.1195 17.7206C10.2359 17.695 10.2471 17.702 10.2471 17.8008C10.2471 17.9189 10.3006 17.9344 10.4768 17.8674C10.57 17.832 10.5844 17.8366 10.5739 17.8989C10.5658 17.9475 10.5933 17.9764 10.6561 17.9853C10.708 17.9927 10.7505 18.0138 10.7505 18.0322C10.7505 18.0507 10.8579 18.0682 10.9892 18.0713C11.1205 18.0743 11.2385 18.0935 11.2514 18.114C11.2643 18.1344 11.3456 18.1468 11.4322 18.1414C11.5187 18.136 11.5895 18.1433 11.5895 18.1576C11.5895 18.1719 11.7122 18.1891 11.8622 18.1958C12.0868 18.2059 12.1348 18.1965 12.1348 18.1424C12.1348 18.1063 12.1135 18.0768 12.0873 18.0768C12.0612 18.0768 12.0091 18.0438 11.9715 18.0034C11.9339 17.963 11.8571 17.9038 11.8007 17.8718C11.7179 17.8248 11.6947 17.8241 11.6801 17.868C11.669 17.9011 11.5912 17.842 11.4805 17.7164C11.3213 17.5357 11.2988 17.5224 11.2974 17.6073C11.2953 17.7376 11.2251 17.6871 11.1908 17.5306C11.1593 17.3872 11.0399 17.3007 10.97 17.3706C10.938 17.4026 10.9001 17.3665 10.8384 17.2456C10.7296 17.0323 10.6766 16.999 10.6022 17.0972C10.547 17.17 10.5433 17.1679 10.542 17.0625C10.5399 16.8827 10.3291 16.7306 10.2762 16.8707C10.2653 16.8995 10.2249 16.8504 10.1865 16.7616C10.1331 16.6383 10.0978 16.6049 10.0375 16.6206C9.97487 16.637 9.9471 16.6054 9.90351 16.4679C9.84672 16.2889 9.72204 16.2141 9.6567 16.3198C9.62168 16.3765 9.5637 16.2704 9.5279 16.0841C9.51823 16.0338 9.47843 16.0002 9.42845 16.0002C9.32885 16.0002 9.28371 15.9472 9.28284 15.8293C9.28205 15.7312 9.10379 15.5424 9.05656 15.5896C9.01067 15.6355 8.94513 15.5077 8.97135 15.4234C9.03129 15.2308 8.81091 15.0422 8.67947 15.1736C8.61613 15.237 8.61045 15.2359 8.60381 15.1597C8.58969 14.9975 8.57914 14.9495 8.52727 14.8119C8.48292 14.6942 8.45905 14.6762 8.37503 14.6973C8.27046 14.7236 8.27197 14.7271 8.25896 14.4271C8.25517 14.3397 8.2352 14.3235 8.13905 14.3301C8.03139 14.3375 8.02368 14.327 8.02368 14.1728C8.02368 14.0537 8.00606 14.0076 7.9606 14.0076C7.91521 14.0076 7.9005 13.9693 7.90816 13.8713C7.91701 13.7579 7.9029 13.7327 7.82442 13.7215C7.73865 13.7093 7.73003 13.6854 7.73003 13.4593C7.73003 13.2033 7.6853 13.15 7.56521 13.263C7.51916 13.3063 7.51303 13.2789 7.52999 13.1056C7.55704 12.8293 7.51742 12.6864 7.4134 12.6851C7.32828 12.684 7.32813 12.6828 7.37004 12.3566C7.38773 12.219 7.37787 12.1915 7.30387 12.1722C7.22744 12.1522 7.21994 12.1273 7.24194 11.9668C7.2568 11.8584 7.25025 11.7842 7.22582 11.7842C7.20319 11.7842 7.18467 11.7441 7.18467 11.6952C7.18467 11.6171 7.17613 11.6132 7.11517 11.6637C7.05175 11.7162 7.0484 11.7066 7.0769 11.5535C7.1134 11.3575 7.11211 11.3712 7.10574 11.2465C7.10179 11.1692 7.0836 11.1547 7.01687 11.1759C6.91657 11.2078 6.9078 11.1412 6.99123 10.9814C7.04408 10.8801 7.03895 10.6515 6.98381 10.6515C6.97102 10.6515 6.92461 10.6841 6.88068 10.7238C6.80356 10.7936 6.80176 10.7918 6.82835 10.6714C6.84349 10.6028 6.87537 10.4951 6.8992 10.4321C6.95664 10.2801 6.91399 10.1743 6.8066 10.2024C6.70617 10.2286 6.70519 10.2208 6.78865 10.0594C6.88136 9.88008 6.85405 9.71133 6.72947 9.6937C6.64494 9.68173 6.63508 9.66376 6.66043 9.56785C6.6767 9.50631 6.69275 9.38044 6.69612 9.28815C6.70138 9.14385 6.68902 9.11847 6.60785 9.10694C6.49813 9.09136 6.4877 9.04713 6.57638 8.97353C6.65839 8.90547 6.65607 8.82848 6.56939 8.74181C6.51019 8.6826 6.50709 8.65085 6.54918 8.53446C6.60611 8.37701 6.57627 8.25499 6.489 8.28848C6.41103 8.3184 6.41327 8.26399 6.49366 8.17515C6.58639 8.07269 6.50687 7.86593 6.38913 7.9033C6.30973 7.9285 6.30893 7.92234 6.36659 7.72783C6.41414 7.5674 6.42649 7.34477 6.39238 7.26308C6.38975 7.25678 6.34008 7.28275 6.28201 7.32081C6.18159 7.3866 6.17777 7.38613 6.20397 7.31129C6.21912 7.268 6.25811 7.21096 6.29062 7.18452C6.34093 7.14361 6.33795 7.11708 6.27063 7.00638C6.22712 6.93484 6.17901 6.88883 6.16371 6.90413C6.14841 6.91943 6.13589 6.91369 6.13589 6.89139C6.13589 6.86909 6.15637 6.83037 6.1814 6.80534C6.25362 6.73312 6.21159 6.55924 6.12541 6.57371C6.04678 6.58692 6.02238 6.47976 6.09394 6.43553C6.16464 6.39183 6.1409 6.2899 6.03547 6.18446C5.98023 6.12923 5.94635 6.07273 5.96016 6.05891C5.97399 6.0451 5.98718 5.95839 5.98949 5.86624C5.99255 5.74449 5.97873 5.70444 5.93894 5.7197C5.87242 5.74523 5.87031 5.72181 5.92921 5.61177C5.96129 5.55182 5.96122 5.49035 5.92905 5.39784C5.89225 5.29228 5.89655 5.25395 5.95204 5.19263C6.02336 5.11382 6.00544 4.98824 5.92288 4.98824C5.89653 4.98824 5.91733 4.95394 5.9691 4.91201C6.04821 4.84796 6.05563 4.82158 6.01558 4.74676C5.9843 4.68831 5.98238 4.6488 6.01 4.63173C6.03314 4.61743 6.05207 4.57603 6.05207 4.53971C6.05207 4.50341 6.08615 4.44317 6.12781 4.40585C6.20274 4.33873 6.38707 3.83742 6.38831 3.69738C6.38895 3.63493 6.39486 3.63359 6.43147 3.68777C6.4566 3.72498 6.46332 3.86499 6.4479 4.0303C6.42396 4.28702 6.42917 4.31384 6.51164 4.35797C6.57553 4.39217 6.59382 4.4301 6.575 4.4894C6.56044 4.53525 6.57056 4.5993 6.59749 4.63174C6.63377 4.67545 6.63521 4.76452 6.60307 4.97582C6.55445 5.29546 6.63275 6.04178 6.71788 6.07016C6.74392 6.07885 6.76522 6.11995 6.76522 6.16152C6.76522 6.24122 6.93083 6.3726 7.03129 6.3726C7.06389 6.3726 7.11385 6.34453 7.14233 6.31022C7.20774 6.23141 7.16272 6.037 7.07906 6.037C7.00579 6.037 7.00252 6.01645 7.05903 5.91087C7.09158 5.85005 7.08331 5.81973 7.02257 5.77719C6.94049 5.7197 6.93438 5.67728 6.933 5.15604C6.93158 4.62974 6.93879 4.56389 7.00002 4.54039C7.09275 4.50481 7.06865 4.40093 6.96767 4.40093V4.40093C6.9331 4.40093 6.91524 4.35964 6.93891 4.33445L6.96767 4.30384C7.06771 4.19735 7.0891 4.06554 7.00644 4.06496C6.9776 4.0648 7.02402 3.99823 7.10961 3.9171C7.21494 3.81727 7.27329 3.71911 7.29019 3.61333C7.30392 3.52737 7.33301 3.42426 7.35482 3.3842C7.37664 3.34413 7.39448 3.27334 7.39448 3.22688C7.39448 3.18043 7.40864 3.14242 7.42595 3.14242C7.44325 3.14242 7.45965 3.27928 7.46238 3.44656C7.4662 3.68047 7.48908 3.78722 7.56143 3.90889C7.61654 4.00155 7.64603 4.10335 7.63262 4.15461C7.62003 4.20275 7.62635 4.28584 7.64666 4.33926C7.6733 4.40934 7.66621 4.4508 7.62121 4.48814C7.58121 4.52135 7.56033 4.60901 7.563 4.73261C7.56528 4.8386 7.55417 5.025 7.53828 5.14684C7.50371 5.4121 7.64919 6.00007 7.78751 6.15411C7.91168 6.29239 8.04128 6.26139 8.05785 6.08944C8.06537 6.0115 8.05154 5.9531 8.02559 5.9531C7.99825 5.9531 7.99053 5.91187 8.00619 5.84946C8.02339 5.78093 8.00864 5.72226 7.96263 5.67625C7.92193 5.63555 7.90474 5.57845 7.9212 5.53867C7.99489 5.36065 7.99189 5.31863 7.90389 5.29562C7.85496 5.28282 7.82522 5.25569 7.83781 5.23533C7.86942 5.18418 7.90642 5.02982 7.91714 4.90434C7.92207 4.84665 7.94077 4.76611 7.9587 4.72535C7.97663 4.68459 7.98151 4.60003 7.96954 4.53745C7.95545 4.46373 7.97639 4.3835 8.02905 4.30956C8.08305 4.23373 8.10155 4.16057 8.0842 4.09147C8.0525 3.96514 8.09505 3.81414 8.1629 3.81223C8.29953 3.80839 8.52714 3.43483 8.52714 3.21443C8.52714 3.17482 8.54875 3.14242 8.57516 3.14242C8.60894 3.14242 8.61556 3.22397 8.59747 3.4176C8.57847 3.62115 8.58931 3.7366 8.63911 3.86106C8.71227 4.04391 8.6934 4.54068 8.60719 4.70178C8.55272 4.80355 8.53613 5.56451 8.58242 5.83773C8.62058 6.06295 8.69629 6.09601 8.80256 5.93383C8.8474 5.86539 8.86102 5.78905 8.84302 5.70709C8.82675 5.63304 8.83458 5.57197 8.86257 5.55468C8.89528 5.53446 8.88887 5.49472 8.84115 5.42189C8.77825 5.32589 8.77832 5.30991 8.8421 5.21263C8.88006 5.1547 8.90017 5.0788 8.8868 5.04396C8.87344 5.00913 8.90299 4.92375 8.95249 4.85424C9.02656 4.75021 9.03215 4.72142 8.98409 4.69143C8.93724 4.66219 8.94434 4.64187 9.0201 4.58851C9.11934 4.51861 9.15011 4.35898 9.06434 4.35898C9.03676 4.35898 9.08867 4.28928 9.1797 4.20409C9.31355 4.07884 9.33117 4.04614 9.2718 4.03321C9.18378 4.01404 9.17317 3.93947 9.25845 3.93947C9.29149 3.93947 9.35885 3.88284 9.40814 3.81362C9.45742 3.74441 9.52159 3.68777 9.55073 3.68777C9.60576 3.68777 9.63799 3.63426 9.78445 3.29973C9.83243 3.19013 9.88688 3.10046 9.90545 3.10046C9.92401 3.10046 9.9139 3.22352 9.88297 3.37392C9.83046 3.62922 9.83245 3.65858 9.9128 3.81609C9.97029 3.92878 9.99288 4.03689 9.98083 4.14172C9.96165 4.30869 9.69901 4.86155 9.59973 4.94395C9.56702 4.9711 9.54854 5.03787 9.55852 5.09289C9.56846 5.14775 9.55915 5.20344 9.53771 5.21666C9.45837 5.2657 9.46769 6.41497 9.54784 6.46596C9.64256 6.52621 9.77663 6.49753 9.8372 6.40407C9.87084 6.35215 9.91083 6.18828 9.92607 6.03989C9.95987 5.71091 10.0221 5.61001 10.2943 5.4425C10.4576 5.34201 10.5292 5.26196 10.6118 5.08756C10.6704 4.96372 10.7375 4.86239 10.7608 4.86239C10.8119 4.86239 10.7649 5.20512 10.7091 5.23961C10.6637 5.26771 10.6454 5.6535 10.685 5.74842C10.7029 5.79112 10.6891 5.82575 10.6481 5.84149C10.6026 5.85896 10.5827 5.92284 10.5827 6.05217C10.5827 6.17845 10.5626 6.24549 10.5198 6.26192C10.4803 6.27708 10.4569 6.34123 10.4569 6.43421C10.4569 6.53238 10.4373 6.58236 10.3989 6.58236C10.3395 6.58236 10.2907 6.70457 10.2897 6.85558C10.2893 6.90254 10.2472 6.95839 10.1947 6.98142C10.1428 7.0042 10.0942 7.06559 10.0868 7.11785C10.0794 7.1701 10.0583 7.20358 10.04 7.19225C9.97463 7.15185 9.86136 7.3347 9.85703 7.48762C9.8546 7.57316 9.84542 7.62156 9.83663 7.59518C9.7904 7.45647 9.61788 7.61394 9.61788 7.79485C9.61788 7.84836 9.5972 7.87225 9.56243 7.85891C9.49761 7.83404 9.38893 8.03403 9.40447 8.1496C9.41037 8.19345 9.39637 8.21611 9.37249 8.20135C9.28631 8.14809 9.24182 8.36664 9.3007 8.55403C9.32767 8.63983 9.32364 8.64937 9.2786 8.60647C9.18142 8.5139 9.16049 8.54909 9.17396 8.78242C9.18317 8.94208 9.17058 9.01717 9.13212 9.03194C9.09402 9.04655 9.08424 9.10213 9.10032 9.21256C9.12639 9.39162 9.27194 9.72864 9.32319 9.72864C9.37917 9.72864 9.49405 9.4471 9.46692 9.3764C9.44961 9.33132 9.48297 9.28656 9.57138 9.23624C9.69268 9.16719 9.75347 9.01548 9.65983 9.01548C9.56786 9.01548 9.62603 8.93165 9.76317 8.86658C9.91613 8.79399 9.97306 8.69579 9.92889 8.58069C9.90929 8.52961 9.94148 8.49529 10.0524 8.44893C10.135 8.41444 10.2409 8.38623 10.2877 8.38623C10.3901 8.38623 10.3944 8.35157 10.3074 8.22734C10.2448 8.13794 10.2479 8.13038 10.3769 8.06069C10.4512 8.02055 10.549 7.95243 10.5943 7.90933C10.6612 7.8456 10.6658 7.82406 10.6192 7.79397C10.5401 7.74303 10.6352 7.68178 10.8485 7.64613C11.0044 7.62008 11.1103 7.50632 11.0098 7.47282C10.9115 7.44005 10.964 7.38929 11.1502 7.33716C11.3595 7.27854 11.4133 7.22835 11.3426 7.15762C11.2625 7.0775 11.2891 7.0537 11.5161 7.00278C11.8606 6.92552 11.857 6.92768 11.7773 6.84801C11.7117 6.78239 11.7145 6.77395 11.8207 6.71833C11.8831 6.68561 11.9678 6.66763 12.0089 6.67838C12.0915 6.69996 12.1279 6.68098 12.2135 6.57187C12.2578 6.51527 12.2598 6.48489 12.2219 6.43926C12.1674 6.37359 12.1872 6.3548 12.3526 6.31532C12.4146 6.30051 12.4771 6.3074 12.4915 6.33061C12.5345 6.40024 12.6912 6.29384 12.6611 6.21542C12.6274 6.12751 12.7119 6.07897 12.8504 6.10668C12.9371 6.12403 12.9818 6.10309 13.0541 6.01129C13.1243 5.92198 13.1775 5.89602 13.2751 5.90346C13.4118 5.91388 13.5155 5.82312 13.5179 5.6909C13.5191 5.63281 13.5565 5.61736 13.6976 5.61685C13.9059 5.61606 14.0026 5.56725 13.9691 5.47975C13.9386 5.40043 14.2393 5.34405 14.3569 5.40702C14.5013 5.48427 14.61 5.45976 14.61 5.34995C14.61 5.21048 14.695 5.14828 14.7904 5.21799C14.8922 5.2925 15.0277 5.2501 15.0736 5.12933C15.1155 5.01911 15.1831 5.00641 15.3422 5.07887C15.472 5.13803 15.6588 5.06983 15.6588 4.96327C15.6588 4.90944 15.6838 4.90066 15.7741 4.92273C15.9802 4.97305 16.0578 4.96976 16.0456 4.91123C16.0368 4.86929 16.0669 4.86245 16.1651 4.88402C16.2862 4.91061 16.2941 4.90571 16.2671 4.82055C16.2409 4.73812 16.2483 4.7319 16.3363 4.76236C16.3905 4.78112 16.5009 4.79714 16.5817 4.79796C16.7108 4.79923 16.7272 4.78771 16.7179 4.70172C16.7082 4.61169 16.7181 4.6065 16.8438 4.63599C17.0757 4.69042 17.1767 4.67821 17.2266 4.58971C17.2526 4.54356 17.2801 4.4964 17.2878 4.4849C17.2954 4.4734 17.3268 4.49841 17.3576 4.54047C17.4352 4.64655 17.6385 4.61917 17.6928 4.49532C17.7406 4.38631 17.8651 4.3725 17.9671 4.46487C18.0596 4.54858 18.1758 4.50132 18.1758 4.37996C18.1758 4.25321 18.2826 4.21747 18.4346 4.29332C18.584 4.36785 18.6524 4.34638 18.7169 4.20467C18.7617 4.10643 18.7724 4.1026 18.838 4.16124C18.9556 4.26636 19.0719 4.26549 19.119 4.15915C19.1462 4.09765 19.1833 4.07338 19.2243 4.09028C19.3816 4.15525 19.5729 4.19528 19.6269 4.17455C19.6594 4.16207 19.686 4.1115 19.686 4.06216C19.686 3.99294 19.7028 3.9795 19.7594 4.00331C19.9207 4.07111 20.006 4.06773 20.0956 3.99C20.1472 3.94526 20.1894 3.88768 20.1894 3.86204C20.1894 3.8283 20.2187 3.82876 20.2954 3.86372C20.3758 3.90035 20.4133 3.90013 20.4506 3.86277C20.4777 3.83571 20.5417 3.81357 20.5928 3.81357C20.644 3.81357 20.693 3.79199 20.7018 3.7656C20.7137 3.73008 20.7424 3.73081 20.8126 3.76839C20.9346 3.83368 21.1543 3.78807 21.1543 3.69745C21.1543 3.64336 21.1713 3.64819 21.2398 3.72176C21.337 3.82607 21.4281 3.83975 21.4773 3.75741C21.5406 3.65152 21.6653 3.61084 21.7917 3.6549C21.8775 3.68481 21.9285 3.68216 21.9726 3.64549C22.0076 3.61644 22.0796 3.60584 22.1396 3.6209C22.2106 3.63874 22.245 3.63002 22.2452 3.59412C22.2453 3.56213 22.3078 3.53762 22.4017 3.5327C22.4877 3.5282 22.5647 3.50461 22.5728 3.48027C22.5942 3.41606 22.6879 3.42602 22.7484 3.49893C22.8067 3.56918 23.0001 3.5853 23.0001 3.51991C23.0001 3.45689 23.0814 3.46942 23.1559 3.54392C23.201 3.58902 23.2565 3.60067 23.3312 3.58075C23.6052 3.50776 23.6824 3.51735 23.7934 3.63815C23.9029 3.75728 24.0654 3.83856 24.2586 3.87084C24.3163 3.88048 24.4296 3.91719 24.5103 3.95242L24.5415 3.96604C24.571 3.97891 24.5634 4.02272 24.5313 4.02486V4.02486C24.4621 4.02947 24.3866 4.02914 24.3635 4.02407C24.3404 4.01904 24.2366 4.0121 24.1328 4.00861C23.9839 4.00361 23.9281 4.0219 23.8687 4.09511C23.765 4.22316 23.5462 4.25414 23.1938 4.1907C22.7746 4.11523 22.5409 4.11088 22.4157 4.17623C22.3564 4.20718 22.2743 4.23261 22.2332 4.23275C22.1921 4.2329 22.1476 4.26133 22.1343 4.29594C22.121 4.33055 22.0839 4.35886 22.0517 4.35886C21.9715 4.35886 21.9777 4.51171 22.0592 4.543C22.0955 4.55692 22.164 4.54755 22.2114 4.52218C22.2647 4.49368 22.3076 4.49127 22.3237 4.51587C22.3719 4.58932 22.5573 4.60733 22.6392 4.54652C22.683 4.514 22.7369 4.49859 22.7591 4.51228C22.7823 4.52661 22.7752 4.55243 22.7424 4.57322C22.7088 4.59449 22.7049 4.60954 22.7328 4.60992C22.7588 4.61024 22.8036 4.58225 22.8323 4.54764C22.9059 4.45895 22.9477 4.46841 23.0643 4.60008C23.1501 4.69703 23.1729 4.70546 23.2073 4.65288C23.2615 4.57012 23.3788 4.57178 23.4825 4.65678C23.5355 4.70021 23.6416 4.72495 23.7706 4.72397C23.9187 4.72286 23.9855 4.74164 24.0139 4.79235C24.0354 4.8308 24.0903 4.86226 24.1359 4.86226C24.1848 4.86226 24.2345 4.90359 24.2571 4.96307C24.3041 5.08686 24.3188 5.09604 24.6573 5.21444C24.8072 5.26685 24.9162 5.32331 24.8996 5.33992C24.883 5.35652 24.9 5.35838 24.9373 5.34406C24.9747 5.32972 25.0177 5.33817 25.0329 5.36281C25.0685 5.42039 24.9499 5.42036 24.7617 5.36274C24.4689 5.27305 24.3562 5.27915 24.2736 5.38921C24.1857 5.50618 23.9798 5.52754 23.8271 5.43551C23.776 5.4047 23.6594 5.37459 23.568 5.3686C23.4766 5.36261 23.3246 5.32145 23.2304 5.27715C23.1361 5.23284 22.9844 5.1978 22.8932 5.19929C22.802 5.20072 22.6821 5.20108 22.6268 5.19992C22.5714 5.19881 22.5054 5.21321 22.48 5.2319C22.4546 5.25059 22.3705 5.26473 22.2931 5.26332C22.1812 5.26127 22.1404 5.28401 22.0936 5.3745C22.041 5.47625 22.0425 5.49224 22.1084 5.52601C22.2332 5.58997 22.4128 5.62123 22.4128 5.579C22.4128 5.48891 22.5918 5.48397 22.7093 5.57082C22.8181 5.65126 22.8317 5.65283 22.8674 5.58905C22.9037 5.52418 22.9174 5.52444 23.0615 5.59278C23.2061 5.66143 23.2198 5.66164 23.2678 5.59608C23.3158 5.53045 23.323 5.5305 23.3781 5.59687C23.4675 5.70451 23.6358 5.75797 23.6786 5.6923C23.7053 5.65133 23.7327 5.66255 23.7917 5.73863C23.8519 5.81634 23.8939 5.83289 23.9776 5.81189C24.0378 5.79678 24.0977 5.80416 24.1128 5.82857C24.1276 5.85267 24.174 5.86153 24.2158 5.84827C24.2576 5.83502 24.3173 5.84938 24.3486 5.88038C24.3799 5.91129 24.4403 5.94978 24.4828 5.96592C24.5254 5.98205 24.5699 6.0321 24.5817 6.07714C24.5935 6.12226 24.6639 6.17909 24.7384 6.2037C24.9257 6.26552 25.1824 6.39951 25.1587 6.42315C25.148 6.4339 25.025 6.42542 24.8854 6.40429C24.7045 6.37691 24.6149 6.37977 24.5733 6.41424C24.5413 6.44085 24.4167 6.48856 24.2965 6.52026C24.0963 6.57308 24.0639 6.57106 23.9087 6.49611C23.8156 6.45113 23.7223 6.41432 23.7014 6.41432C23.6804 6.41432 23.6037 6.37185 23.531 6.31993C23.4582 6.26802 23.3514 6.22308 23.2938 6.22007C23.2361 6.21706 23.026 6.20029 22.8268 6.18281C22.6277 6.16532 22.4174 6.1629 22.3595 6.17743C22.2385 6.20779 22.1813 6.31658 22.2456 6.39402C22.3051 6.46577 22.5108 6.50129 22.5452 6.44575C22.5645 6.41449 22.6113 6.41687 22.7 6.45363C22.77 6.4826 22.8476 6.49373 22.8725 6.47835C22.8974 6.46297 22.981 6.48946 23.0583 6.53723C23.1356 6.585 23.2455 6.62408 23.3027 6.62408C23.3599 6.62408 23.4391 6.65999 23.4788 6.70388C23.5279 6.75811 23.5888 6.77773 23.6689 6.76511C23.7621 6.75042 23.8102 6.77424 23.898 6.87867C23.9737 6.96857 24.0349 7.0041 24.0896 6.98979C24.1512 6.9737 24.1761 6.99624 24.1958 7.0859C24.2159 7.17774 24.2799 7.23297 24.4918 7.34165C24.6404 7.41789 24.762 7.49417 24.762 7.51116C24.762 7.57973 24.6792 7.58511 24.5371 7.52574C24.3438 7.44496 24.1487 7.44509 24.1176 7.52606C24.1043 7.56067 24.0459 7.58899 23.9879 7.58899C23.8512 7.58897 23.5035 7.49604 23.5035 7.45951C23.5035 7.44402 23.4422 7.40615 23.3672 7.37534C23.2922 7.34454 23.1693 7.27787 23.0942 7.22719C23.019 7.1765 22.9246 7.14011 22.8844 7.14631C22.8442 7.15251 22.7992 7.13878 22.7843 7.11578C22.7605 7.07892 22.6715 7.07058 22.4548 7.08487C22.4201 7.08715 22.3112 7.07182 22.2126 7.05081C22.1088 7.02867 22.0238 7.02823 22.0105 7.0497C21.9978 7.07014 21.9681 7.07489 21.9444 7.06026C21.868 7.01303 21.6996 7.13551 21.6996 7.23834C21.6996 7.34212 21.878 7.46305 22.0311 7.46305C22.3761 7.46305 22.8019 7.6933 22.8389 7.89979C22.8498 7.9603 22.9305 8.00126 23.1679 8.0668L23.1982 8.07515C23.2564 8.09122 23.249 8.17602 23.1889 8.18178V8.18178C22.8854 8.21086 22.7228 8.19402 22.6342 8.12431C22.5995 8.09697 22.5589 8.108 22.5084 8.15856C22.4405 8.22644 22.4326 8.22692 22.4204 8.16387C22.4072 8.09498 22.2314 8.08586 22.1296 8.14878C22.1056 8.16359 22.0761 8.14989 22.0639 8.11822C22.0501 8.08208 22.0023 8.06829 21.9353 8.0811C21.8701 8.09356 21.8024 8.07525 21.7611 8.03392C21.7175 7.99026 21.6576 7.97541 21.5917 7.99193C21.5301 8.00741 21.4899 7.99926 21.4899 7.97129C21.4899 7.94587 21.3058 7.83671 21.0809 7.72871C20.8559 7.6207 20.6568 7.5073 20.6383 7.47671C20.6199 7.44612 20.5774 7.42109 20.5439 7.42109C20.5105 7.42109 20.4831 7.40221 20.4831 7.37914C20.4831 7.35607 20.4453 7.33719 20.3992 7.33719C20.3435 7.33719 20.3153 7.30922 20.3153 7.25409C20.3153 7.16654 20.1559 7.09912 20.0474 7.14075C20.0073 7.15618 19.9954 7.13932 20.0092 7.08639C20.0325 6.99739 19.9085 6.94127 19.7895 6.98694C19.7312 7.00934 19.7194 7.0005 19.7392 6.94901C19.7657 6.87991 19.6774 6.77244 19.6317 6.81817C19.6176 6.83224 19.5741 6.81174 19.5349 6.77259C19.4958 6.73345 19.4295 6.71039 19.3875 6.72135C19.3442 6.73268 19.3152 6.72055 19.3204 6.69314C19.3259 6.66384 19.272 6.64642 19.1826 6.64863C19.1019 6.65062 19.0253 6.63654 19.0125 6.61737C18.9996 6.59818 18.943 6.58258 18.8866 6.58269C18.571 6.58332 18.3701 6.60845 18.3564 6.64903C18.3479 6.67432 18.4208 6.74789 18.5185 6.81252C18.63 6.88634 18.702 6.91214 18.7121 6.88191C18.7375 6.80571 18.7932 6.82581 18.8178 6.92008C18.8303 6.96755 18.8985 7.02832 18.9696 7.05513C19.0481 7.08478 19.0987 7.13356 19.0987 7.17962C19.0987 7.2546 19.2627 7.34577 19.3624 7.32622C19.3904 7.32072 19.4194 7.36887 19.4268 7.43322C19.4373 7.52457 19.4672 7.55562 19.5634 7.57486C19.6498 7.59214 19.7139 7.64806 19.7779 7.762C19.8653 7.91734 19.9377 7.97202 19.9377 7.88255C19.9377 7.85947 19.9539 7.8406 19.9737 7.8406C19.9935 7.8406 20.0265 7.91886 20.0471 8.01452C20.0899 8.21347 20.2087 8.31981 20.2745 8.21815C20.3108 8.16222 20.3199 8.16222 20.3566 8.21815C20.3793 8.25276 20.3982 8.31157 20.3985 8.34883C20.3995 8.45129 20.562 8.63694 20.6284 8.61146C20.6707 8.59522 20.6945 8.64099 20.7151 8.77835C20.742 8.95803 20.8291 9.05827 20.8827 8.97143C20.9348 8.88712 20.9865 8.93699 20.9865 9.07163C20.9865 9.22058 21.1222 9.39468 21.1736 9.3116C21.242 9.20086 21.2884 9.27518 21.2618 9.45285C21.2358 9.6264 21.2426 9.64519 21.3641 9.73502C21.4637 9.80865 21.4886 9.85353 21.4704 9.92613C21.4441 10.031 21.5236 10.1898 21.6024 10.1898C21.6776 10.1898 21.7166 10.2759 21.7069 10.4205C21.6956 10.5885 21.7974 10.7364 21.873 10.6618C21.9718 10.5643 21.9921 10.6085 21.9655 10.8633C21.9408 11.0993 21.9453 11.119 22.0295 11.141C22.1391 11.1697 22.1883 11.3344 22.1272 11.4684C22.0909 11.5482 22.0978 11.5798 22.1648 11.6405C22.2278 11.6975 22.2585 11.7033 22.2963 11.6655C22.3847 11.5771 22.4047 11.613 22.3616 11.7828C22.3383 11.8745 22.3316 11.9989 22.3468 12.0592C22.3697 12.1505 22.3848 12.1602 22.4365 12.1173C22.5288 12.0407 22.5502 12.0921 22.5006 12.2717C22.4718 12.3762 22.4707 12.4459 22.4975 12.4728C22.5202 12.4954 22.5387 12.5491 22.5387 12.5922C22.5387 12.6505 22.5594 12.664 22.6197 12.6448C22.6944 12.6211 22.6975 12.631 22.6589 12.7707C22.6295 12.8771 22.6309 12.9391 22.6636 12.9784C22.6903 13.0105 22.6981 13.0853 22.6819 13.1538C22.6587 13.252 22.6636 13.2639 22.7094 13.2207C22.8003 13.1353 22.8288 13.1603 22.7909 13.2924C22.7713 13.3606 22.7618 13.4502 22.7696 13.4916C22.7775 13.533 22.7854 13.581 22.7872 13.5983C22.7889 13.6156 22.8281 13.6298 22.8743 13.6298C22.9702 13.6298 22.9776 13.667 22.9109 13.8134C22.8836 13.8734 22.8758 13.9814 22.8924 14.0701C22.9165 14.1986 22.9311 14.215 22.9826 14.1722C23.075 14.0956 23.0861 14.1382 23.0263 14.3406C22.962 14.5583 23.0156 14.7353 23.1365 14.7049C23.226 14.6823 23.2297 14.7202 23.1483 14.8278C23.0613 14.9429 23.0696 15.0602 23.1666 15.0855C23.2444 15.1059 23.2455 15.1145 23.1844 15.2325C23.0912 15.4129 23.0815 15.5052 23.1499 15.5619C23.1963 15.6005 23.2241 15.5999 23.2728 15.5595C23.3244 15.5166 23.3357 15.5197 23.3357 15.5768C23.3357 15.615 23.3081 15.6886 23.2742 15.7402C23.1923 15.8653 23.235 16.0351 23.3415 16.0073C23.4013 15.9916 23.4196 16.0099 23.4196 16.0853C23.4196 16.1395 23.4008 16.1955 23.3777 16.2097C23.3148 16.2485 23.3272 16.4231 23.3968 16.4809C23.4304 16.5087 23.4769 16.5199 23.5 16.5055C23.5271 16.4888 23.5261 16.5253 23.4975 16.6075C23.4403 16.7715 23.4809 16.9499 23.5677 16.9166C23.6208 16.8962 23.6238 16.911 23.5865 17.0093C23.5332 17.1494 23.5717 17.3633 23.6502 17.3633C23.6811 17.3633 23.7142 17.3492 23.7239 17.3319C23.7336 17.3146 23.7338 17.3287 23.7245 17.3633C23.6594 17.6039 23.6613 17.6717 23.7349 17.7255C23.7933 17.7682 23.8252 17.7699 23.8699 17.7329C23.9185 17.6925 23.9235 17.705 23.8991 17.807C23.8831 17.8745 23.8412 17.9627 23.8061 18.0031C23.7489 18.0689 23.7491 18.0765 23.8072 18.0765C23.8429 18.0765 23.8835 18.1061 23.8974 18.1423C23.9137 18.1849 23.9511 18.1991 24.0033 18.1826C24.0688 18.1618 24.0797 18.1731 24.0614 18.2432C24.049 18.2907 24.0222 18.3398 24.0019 18.3523C23.9816 18.3649 23.965 18.4102 23.965 18.453C23.965 18.4959 23.9414 18.5405 23.9126 18.5521C23.8838 18.5638 23.9215 18.5748 23.9965 18.5766C24.0715 18.5784 24.1328 18.5885 24.1328 18.5989C24.1328 18.6442 24.0262 18.8551 23.9905 18.8802C23.9685 18.8958 23.9824 18.9389 24.0223 18.9788C24.0792 19.0356 24.1055 19.0395 24.155 18.9985C24.206 18.9561 24.2167 18.9624 24.2167 19.0348C24.2167 19.0829 24.1807 19.1416 24.1366 19.1652C24.0457 19.2139 24.0627 19.377 24.1587 19.377C24.2284 19.377 24.2361 19.4859 24.1694 19.5271C24.1367 19.5474 24.1419 19.5675 24.1865 19.5924C24.2391 19.6219 24.242 19.6476 24.2024 19.7331C24.1757 19.7907 24.1397 19.8379 24.1224 19.8381C24.105 19.8383 24.0909 19.8652 24.0909 19.8979C24.0909 19.9305 24.0673 19.9652 24.0384 19.9748C23.9912 19.9905 23.9799 20.0813 23.9677 20.5462C23.9625 20.7412 23.8517 20.5599 23.8232 20.31C23.8003 20.109 23.7742 20.0513 23.6655 19.9611C23.5547 19.8693 23.5328 19.819 23.519 19.6255C23.5102 19.5004 23.4944 19.375 23.4841 19.3469C23.4738 19.3188 23.4842 19.284 23.5075 19.2697C23.5355 19.2524 23.5349 19.2259 23.5057 19.1908C23.4816 19.1617 23.4432 19.0396 23.4204 18.9195C23.3746 18.6777 23.1744 18.1952 23.0688 18.0719C23.0315 18.0283 22.963 17.9926 22.9167 17.9926C22.8435 17.9926 22.8324 18.0202 22.8324 18.2024C22.8324 18.3593 22.848 18.4121 22.8942 18.4121C22.9406 18.4121 22.9498 18.4436 22.931 18.538C22.9141 18.6221 22.9225 18.6638 22.9563 18.6638C22.9908 18.6638 22.9979 18.7044 22.9788 18.7914C22.9483 18.9303 23.0191 19.0599 23.0993 19.0119C23.1255 18.9962 23.1209 19.0155 23.089 19.0548C23.0058 19.1573 22.9864 19.377 23.0605 19.377C23.1095 19.377 23.1081 19.4054 23.0521 19.5481C23.0016 19.6767 22.9972 19.7268 23.0345 19.7498C23.0716 19.7727 23.0685 19.801 23.0225 19.8619C22.9435 19.9663 22.9421 20.0665 23.0187 20.1301C23.0699 20.1726 23.056 20.2049 22.9285 20.3403C22.8342 20.4405 22.7714 20.5532 22.7607 20.6414C22.7514 20.7189 22.7366 20.8295 22.728 20.8872C22.7194 20.9449 22.711 21.01 22.7094 21.0319C22.7076 21.0571 22.6919 21.0571 22.6668 21.0319C22.645 21.01 22.6214 20.8882 22.6144 20.7613C22.6044 20.5808 22.5834 20.5212 22.5177 20.4874C22.3414 20.3967 22.2751 20.0848 22.3486 19.6916C22.3659 19.5993 22.3962 19.4932 22.416 19.4557C22.4358 19.4183 22.4456 19.3522 22.4378 19.3089C22.4299 19.2656 22.4098 19.1169 22.3931 18.9784C22.3765 18.84 22.3435 18.7031 22.3198 18.6743C22.2961 18.6455 22.289 18.6219 22.3039 18.6219C22.3189 18.6219 22.3018 18.5652 22.266 18.496C22.1904 18.3498 22.1578 18.3419 22.0628 18.4469C21.9856 18.5322 21.9705 18.6867 22.0354 18.7268C22.0632 18.744 22.0621 18.7816 22.0321 18.8376C21.9959 18.9052 22.0018 18.9334 22.0611 18.9768C22.1314 19.0282 22.1315 19.0373 22.0644 19.1397C21.9813 19.2666 21.973 19.3632 22.0432 19.3866C22.0785 19.3984 22.0724 19.4326 22.0222 19.5043C21.9333 19.6312 21.9325 19.7105 22.0192 19.7739C22.0801 19.8184 22.0758 19.8356 21.9773 19.942C21.8909 20.0352 21.8778 20.073 21.916 20.119C21.9528 20.1634 21.9528 20.1894 21.9161 20.2262C21.8894 20.2529 21.8675 20.3249 21.8675 20.3863C21.8675 20.4569 21.8053 20.5685 21.6981 20.6903C21.599 20.8028 21.5026 20.9707 21.4657 21.0947C21.4311 21.2113 21.3826 21.3067 21.358 21.3067C21.3333 21.3067 21.3231 21.2808 21.3353 21.2491C21.3474 21.2175 21.3707 21.1026 21.387 20.9939C21.4117 20.8289 21.4019 20.7764 21.3274 20.6756C21.2707 20.5989 21.2382 20.4926 21.2382 20.3836C21.2382 20.1932 21.3547 19.6775 21.4152 19.5997C21.4552 19.5484 21.476 18.7862 21.4411 18.6515C21.418 18.5626 21.2957 18.4121 21.2465 18.4121C21.1949 18.4121 21.0285 18.6509 21.0285 18.725C21.0285 18.7606 21.0474 18.7897 21.0704 18.7897C21.1355 18.7897 21.12 18.8795 21.0395 18.9684C20.9703 19.045 20.9705 19.0517 21.0444 19.1058C21.1196 19.1608 21.1193 19.1671 21.0333 19.3062C20.9254 19.4809 20.9213 19.5443 21.018 19.5463C21.0761 19.5476 21.0673 19.5676 20.9761 19.6423C20.8459 19.7488 20.8256 19.8384 20.9316 19.8384C20.9846 19.8384 20.9686 19.8715 20.8681 19.9698C20.7716 20.0641 20.7457 20.1156 20.7763 20.1524C20.8265 20.2129 20.651 20.4257 20.5509 20.4257C20.5167 20.4257 20.4768 20.4635 20.4622 20.5096C20.4475 20.5558 20.4188 20.5935 20.3983 20.5935C20.3778 20.5935 20.3487 20.6596 20.3335 20.7404C20.2876 20.9853 20.2251 20.9063 20.238 20.6195C20.2446 20.4723 20.2298 20.326 20.2051 20.2944C20.1496 20.2235 20.1608 19.942 20.2254 19.7833C20.2518 19.7183 20.2734 19.6481 20.2734 19.6272C20.2734 19.6064 20.3131 19.5131 20.3617 19.4199C20.4102 19.3268 20.4398 19.2241 20.4274 19.1918C20.415 19.1594 20.431 19.0336 20.463 18.9122C20.495 18.7909 20.511 18.6749 20.4984 18.6546C20.4859 18.6343 20.5069 18.5516 20.5452 18.471C20.59 18.3766 20.605 18.2797 20.5873 18.1993C20.5723 18.1306 20.5547 18.0084 20.5483 17.9278C20.5248 17.6315 20.2261 17.5096 20.0713 17.7332C19.9586 17.896 19.9303 17.996 19.9799 18.0557C20.0119 18.0943 20.0009 18.1141 19.9384 18.1304C19.8685 18.1487 19.8567 18.1786 19.8722 18.2992C19.8979 18.5004 19.6812 18.7617 19.4886 18.7617C19.3842 18.7617 19.3469 18.7878 19.2947 18.8973C19.2591 18.9719 19.2172 19.1011 19.2016 19.1844C19.1587 19.4128 19.1086 19.403 19.0923 19.1632C19.0843 19.0456 19.0909 18.9414 19.1068 18.9315C19.1228 18.9216 19.1488 18.8243 19.1646 18.7153C19.1804 18.6062 19.2047 18.4981 19.2185 18.475C19.2665 18.395 19.3897 18.0132 19.3911 17.9402C19.3919 17.8998 19.4207 17.8668 19.4554 17.8668C19.5211 17.8668 19.5305 17.8377 19.5265 17.6458C19.5252 17.582 19.5418 17.5407 19.5634 17.5541C19.5851 17.5675 19.6149 17.5442 19.6297 17.5023C19.6445 17.4605 19.7056 17.3602 19.7656 17.2795C19.8762 17.1305 19.8813 17.1193 19.8906 17.0057C19.8935 16.9706 19.943 16.9238 20.0007 16.9019C20.0867 16.8692 20.1056 16.8338 20.1056 16.7058C20.1056 16.5868 20.1173 16.5612 20.1545 16.5984C20.2335 16.6774 20.3076 16.533 20.2883 16.3379C20.2745 16.1983 20.2789 16.1847 20.313 16.2622C20.36 16.3689 20.4412 16.3889 20.4412 16.2936C20.4412 16.259 20.4601 16.2307 20.4831 16.2307C20.5062 16.2307 20.5251 16.1646 20.5251 16.0839C20.5251 15.9795 20.5438 15.937 20.5899 15.937C20.6255 15.937 20.6516 15.9134 20.6478 15.8846C20.6273 15.7264 20.6548 15.6056 20.7069 15.6255C20.7482 15.6414 20.7579 15.6135 20.744 15.5188C20.7336 15.4483 20.7085 15.3803 20.6881 15.3677C20.6213 15.3264 20.6491 15.2658 20.7348 15.2658C20.8077 15.2658 20.8187 15.2379 20.8187 15.0543C20.8187 14.8979 20.7961 14.8187 20.7316 14.7502V14.7502C20.6855 14.7011 20.6067 14.7039 20.5641 14.7561L20.5419 14.7834C20.4747 14.8658 20.447 14.9413 20.4616 15.002C20.4778 15.0692 20.4579 15.1084 20.3891 15.1446C20.2669 15.209 20.2281 15.2699 20.2548 15.3559C20.2693 15.4023 20.229 15.4542 20.1322 15.5141C19.9664 15.6165 19.9157 15.713 19.9841 15.7955C20.0224 15.8416 20.0011 15.866 19.8785 15.9172C19.7325 15.9782 19.6154 16.1503 19.6652 16.2308C19.6771 16.2501 19.6289 16.2785 19.5581 16.2941C19.4258 16.3231 19.3254 16.4823 19.3684 16.5945C19.3817 16.6291 19.3328 16.674 19.2397 16.7129C19.1123 16.7661 19.0934 16.7908 19.1147 16.8758C19.1355 16.9586 19.1178 16.9851 19.0127 17.0286C18.9428 17.0576 18.8385 17.1184 18.7809 17.1637C18.6953 17.231 18.6855 17.2574 18.7274 17.3079C18.7684 17.3572 18.7665 17.3775 18.7185 17.4079C18.6854 17.4288 18.6322 17.4463 18.6003 17.4466C18.5246 17.4474 18.2598 17.6115 18.2598 17.6576C18.2598 17.6772 18.3 17.7061 18.3492 17.7217C18.4195 17.744 18.4262 17.758 18.3807 17.7868C18.3488 17.807 18.2831 17.8238 18.2348 17.8242C18.1325 17.825 17.9877 17.9677 18.0261 18.0299C18.041 18.0539 17.9743 18.0947 17.8729 18.1237C17.6776 18.1794 17.542 18.2734 17.5529 18.3455C17.5668 18.437 17.4937 18.538 17.4135 18.538C17.2681 18.538 17.1787 18.6115 17.1984 18.7148C17.2152 18.8027 17.2 18.8116 17.0146 18.8222C16.8033 18.8344 16.6484 18.9477 16.6911 19.0589C16.7133 19.1166 16.5924 19.1656 16.4252 19.1667C16.3606 19.167 16.3235 19.1997 16.3053 19.2721C16.2841 19.3566 16.2529 19.377 16.1451 19.377C15.993 19.377 15.9105 19.4406 15.9105 19.5581C15.9105 19.623 15.8885 19.6343 15.7959 19.6166C15.6631 19.5912 15.4491 19.6878 15.4491 19.7731C15.4491 19.8142 15.3938 19.8314 15.262 19.8314C15.0403 19.8314 14.9876 19.8574 14.9876 19.9668C14.9876 20.0261 14.9586 20.0482 14.8807 20.0482C14.7514 20.0482 14.5262 20.1585 14.5262 20.2217C14.5262 20.2512 14.4736 20.2574 14.3775 20.2394C14.1687 20.2002 14.0543 20.243 14.0876 20.3478C14.1115 20.4232 14.1001 20.4283 13.9638 20.4027C13.7745 20.3672 13.6033 20.4084 13.6033 20.4895C13.6033 20.5602 13.5074 20.5706 13.3975 20.5118C13.2855 20.4519 13.1344 20.5042 13.1627 20.5932C13.1836 20.6593 13.1681 20.6622 13.0002 20.6238C12.7784 20.573 12.6704 20.6027 12.7092 20.7037C12.7293 20.7562 12.7217 20.7659 12.6804 20.7404C12.5733 20.6742 12.231 20.6692 12.2063 20.7335C12.1847 20.7901 11.9713 20.7948 11.8838 20.7407C11.8205 20.7015 11.7155 20.7689 11.7155 20.8487C11.7155 20.9123 11.6977 20.9205 11.6211 20.8923C11.4679 20.836 11.2228 20.8837 11.199 20.9745C11.1807 21.0445 11.1628 21.0481 11.0414 21.0057C10.9153 20.9618 10.8964 20.9672 10.8047 21.0738C10.7356 21.1542 10.6788 21.1828 10.6191 21.1672C10.5718 21.1548 10.4682 21.1811 10.3889 21.2257C10.3096 21.2702 10.1902 21.3067 10.1235 21.3067C9.95641 21.3067 9.86967 21.3459 9.86967 21.4215C9.86967 21.471 9.83688 21.4802 9.72443 21.4619C9.6154 21.4442 9.54415 21.4621 9.43869 21.5337C9.33242 21.6058 9.27433 21.6202 9.20029 21.5928C9.06743 21.5437 8.94675 21.5885 8.94675 21.6871C8.94675 21.7799 8.94398 21.7809 8.81315 21.7316C8.68491 21.6832 8.51038 21.7476 8.54252 21.8313C8.57229 21.9089 8.56545 21.9089 8.41668 21.8313C8.25668 21.7479 8.20247 21.7519 8.13996 21.8521C8.07858 21.9503 8.04074 21.9574 7.99453 21.8793C7.9945 21.8792 7.99442 21.8792 7.99439 21.8793V21.8793ZM22.4826 19.6079C22.4826 19.5733 22.4669 19.545 22.4477 19.545C22.4284 19.545 22.4127 19.5733 22.4127 19.6079C22.4127 19.6425 22.4284 19.6708 22.4477 19.6708C22.4669 19.6708 22.4826 19.6425 22.4826 19.6079ZM13.1416 15.3031C13.1416 15.276 13.185 15.2645 13.2444 15.2759C13.3484 15.2958 13.4277 15.2083 13.3496 15.16C13.2867 15.1212 13.3026 15.0563 13.3748 15.0563C13.4108 15.0563 13.4298 15.0732 13.417 15.0938C13.3743 15.163 13.5359 15.1895 13.5856 15.1215C13.6119 15.0856 13.6643 15.0563 13.7021 15.0563C13.74 15.0563 13.7709 15.0281 13.7709 14.9936C13.7709 14.9468 13.8068 14.9355 13.9126 14.9491C14.0262 14.9636 14.0533 14.9532 14.049 14.8964C14.0456 14.8528 14.0798 14.8204 14.138 14.8122C14.1899 14.8048 14.2324 14.7791 14.2324 14.7552C14.2324 14.7299 14.2754 14.7224 14.3347 14.7373C14.3909 14.7514 14.4487 14.744 14.463 14.7208C14.4773 14.6977 14.469 14.6787 14.4446 14.6787C14.4202 14.6787 14.4002 14.6515 14.4002 14.6183C14.4002 14.5661 14.4156 14.5658 14.5136 14.6167C14.6498 14.6874 14.6876 14.6665 14.5935 14.5725C14.556 14.5349 14.5361 14.4866 14.5493 14.4653C14.5625 14.4439 14.6026 14.4557 14.6384 14.4915C14.7095 14.5625 14.7987 14.5539 14.7987 14.476C14.7987 14.449 14.8176 14.4317 14.8406 14.4375C14.8637 14.4433 14.88 14.4716 14.8768 14.5004C14.8736 14.5293 14.8877 14.5529 14.9082 14.5529C14.9287 14.5529 14.9455 14.5251 14.9455 14.4913C14.9455 14.4536 14.9701 14.4391 15.0088 14.4539C15.0523 14.4706 15.0698 14.4538 15.065 14.4002C15.0518 14.2524 15.0715 14.1842 15.1344 14.1601C15.1878 14.1396 15.1869 14.1521 15.1288 14.2408C15.0909 14.2985 15.0716 14.3573 15.0857 14.3714C15.0998 14.3855 15.1233 14.3661 15.1378 14.3281C15.1562 14.2803 15.2175 14.2583 15.3381 14.2563C15.4736 14.254 15.4934 14.2454 15.428 14.2173C15.3482 14.183 15.3488 14.1811 15.4393 14.1783C15.4985 14.1764 15.5527 14.1356 15.5824 14.0704C15.6087 14.0128 15.6602 13.9658 15.6969 13.9662C15.7543 13.9668 15.755 13.9723 15.7018 14.0059C15.6125 14.0624 15.6604 14.0877 15.8043 14.0601C15.9136 14.0391 15.9188 14.0321 15.8463 14.0038C15.7812 13.9784 15.7938 13.9708 15.9055 13.9685C16.031 13.9659 16.2038 13.8452 16.2041 13.7599C16.2042 13.7461 16.2613 13.7328 16.331 13.7303C16.4849 13.7248 16.5379 13.6811 16.4545 13.6283C16.4107 13.6006 16.4084 13.5891 16.4466 13.5886C16.4761 13.5883 16.5123 13.6193 16.527 13.6577C16.5499 13.7173 16.5586 13.7143 16.5873 13.6367C16.6168 13.5569 16.7197 13.5197 16.8477 13.5424C16.8672 13.5459 16.8743 13.5245 16.8634 13.4949C16.8526 13.4654 16.8178 13.4472 16.7861 13.4547C16.7427 13.4648 16.7403 13.4561 16.7763 13.4193C16.8128 13.3822 16.8467 13.3825 16.918 13.4206C16.9925 13.4604 17.0188 13.4593 17.046 13.4154C17.0651 13.3844 17.0602 13.3359 17.0347 13.3052C17.0096 13.275 17.0023 13.2371 17.0184 13.2211C17.0344 13.205 17.0612 13.2139 17.0779 13.2408C17.0978 13.273 17.1294 13.2764 17.17 13.2507C17.2521 13.1989 17.3483 13.1996 17.316 13.2519C17.3012 13.2759 17.3185 13.2825 17.3573 13.2676C17.3941 13.2535 17.4146 13.2324 17.4029 13.2207C17.3912 13.2089 17.4006 13.1638 17.4239 13.1203C17.456 13.0603 17.4507 13.0354 17.4014 13.0165C17.2831 12.9711 17.3285 12.8848 17.4625 12.9004C17.5938 12.9157 17.621 12.8822 17.5417 12.8029C17.4875 12.7487 17.5297 12.658 17.602 12.6731C17.6762 12.6886 17.8851 12.5362 17.8555 12.4882C17.8396 12.4625 17.8142 12.4683 17.7897 12.5032C17.7574 12.5493 17.7531 12.5481 17.7671 12.4972C17.7779 12.4583 17.8237 12.439 17.8871 12.4466C17.965 12.4559 17.9913 12.4382 17.9962 12.3732C17.9998 12.326 17.985 12.2875 17.9633 12.2875C17.8881 12.2875 17.9245 12.1713 18.0064 12.1499C18.0631 12.135 18.097 12.1539 18.1149 12.2102C18.143 12.2988 18.2386 12.2945 18.2386 12.2047C18.2386 12.1504 18.2121 12.1313 18.0079 12.0388C17.9502 12.0126 17.9345 12.0001 17.973 12.0109C18.0361 12.0286 18.0992 11.9546 18.1092 11.8512C18.1111 11.8305 18.1505 11.7988 18.1967 11.7808C18.2641 11.7544 18.2667 11.7474 18.2096 11.7451C18.1301 11.7418 18.0688 11.6673 18.1109 11.6252C18.126 11.6101 18.1552 11.625 18.1757 11.6583C18.2067 11.7084 18.2184 11.705 18.2439 11.6386C18.2633 11.5881 18.2553 11.5519 18.2223 11.5409C18.1875 11.5293 18.199 11.503 18.2567 11.4626C18.3044 11.4291 18.3435 11.3718 18.3435 11.3351C18.3435 11.2861 18.3163 11.2978 18.241 11.379C18.1024 11.5285 18.0016 11.4911 18.0537 11.3094C18.0746 11.2362 18.0918 11.1715 18.0918 11.1656C18.0918 11.1597 18.1201 11.1548 18.1547 11.1548C18.2561 11.1548 18.227 11.0824 18.1143 11.0541C18.0449 11.0367 18.0188 11.0075 18.0349 10.9656C18.048 10.9312 18.0425 10.9031 18.0225 10.9031C18.0025 10.9031 17.9597 10.8606 17.9274 10.8087C17.875 10.7247 17.8756 10.7202 17.9331 10.7677C17.9872 10.8124 18.0014 10.8068 18.0207 10.7329C18.0379 10.6672 18.028 10.6508 17.9817 10.6686C17.9433 10.6833 17.9305 10.6748 17.9482 10.6462C17.9639 10.6209 17.9534 10.5857 17.925 10.5682C17.8843 10.543 17.8842 10.516 17.9246 10.4406C17.9688 10.3579 17.9666 10.3485 17.9079 10.3711C17.8226 10.4038 17.8227 10.3813 17.9087 10.2501C17.989 10.1275 17.963 10.073 17.8691 10.167C17.7828 10.2532 17.6126 10.2548 17.6455 10.169C17.6601 10.1311 17.6457 10.1061 17.6095 10.1061C17.5596 10.1061 17.4322 9.94124 17.4555 9.9068C17.4814 9.86835 17.4547 9.77045 17.4181 9.77045C17.3937 9.77045 17.3854 9.78933 17.3996 9.81241C17.4139 9.83548 17.4067 9.85436 17.3836 9.85436C17.323 9.85436 17.2773 9.76583 17.3217 9.7343C17.3424 9.71957 17.3829 9.6509 17.4116 9.58168C17.4596 9.46623 17.4587 9.46256 17.4003 9.53726C17.3653 9.58205 17.3367 9.63396 17.3367 9.65262C17.3367 9.67129 17.2801 9.68656 17.2109 9.68656C17.127 9.68656 17.085 9.66558 17.085 9.62363C17.085 9.58902 17.0998 9.5607 17.1178 9.5607C17.1544 9.5607 17.1548 9.36483 17.1183 9.32833C17.1055 9.31555 17.0823 9.3559 17.0668 9.41799C17.0449 9.50508 17.027 9.51951 16.9887 9.48112C16.9503 9.44274 16.9532 9.42231 17.0015 9.3918C17.0359 9.37004 17.0452 9.35192 17.0221 9.35154C16.9606 9.35059 16.7494 9.16023 16.7494 9.10587C16.7494 9.03429 16.5985 8.80264 16.5703 8.83087C16.5566 8.8446 16.555 8.81899 16.5668 8.77395C16.5931 8.67337 16.4015 8.43 16.3551 8.50506C16.3385 8.53192 16.3402 8.55388 16.3589 8.55387C16.3856 8.55386 16.3941 8.83223 16.3746 9.07026C16.373 9.08893 16.3483 9.09088 16.3194 9.07459C16.2775 9.0509 16.2775 9.05628 16.3194 9.10148C16.3823 9.16923 16.3887 9.33561 16.3298 9.37202C16.3066 9.38633 16.2992 9.44408 16.3133 9.50034C16.3297 9.56567 16.321 9.60265 16.2893 9.60265C16.2587 9.60265 16.2441 9.65537 16.2514 9.73959C16.2647 9.89446 16.2196 9.99478 16.1547 9.95467C16.1267 9.93732 16.1314 9.91496 16.1681 9.8917C16.2143 9.86244 16.213 9.85552 16.1612 9.85499C16.126 9.85468 16.0606 9.92243 16.0158 10.0056C15.971 10.0888 15.9272 10.1354 15.9184 10.1092C15.9097 10.0829 15.9344 10.0128 15.9733 9.9534C16.0669 9.81048 15.9915 9.7214 15.8943 9.86015C15.857 9.91337 15.8265 9.93384 15.8265 9.90564C15.8265 9.87743 15.8082 9.85436 15.7859 9.85436C15.7635 9.85436 15.7573 9.88577 15.772 9.92416C15.79 9.9711 15.7827 9.98403 15.7497 9.96364C15.7227 9.94695 15.7007 9.9533 15.7007 9.97773C15.7007 10.0399 15.5863 10.0334 15.5606 9.96972C15.5473 9.93661 15.5383 9.94269 15.5362 9.98621C15.532 10.0729 15.6331 10.1149 15.6955 10.0524C15.7303 10.0177 15.7426 10.0282 15.7426 10.093C15.7426 10.1412 15.719 10.1798 15.6902 10.1787C15.5344 10.1729 15.4833 10.1935 15.5061 10.2529C15.5389 10.3383 15.4917 10.3324 15.4234 10.2424C15.3465 10.141 15.3517 10.104 15.4385 10.1345C15.4932 10.1538 15.5003 10.1478 15.4665 10.1109C15.4044 10.0433 15.2697 10.0997 15.3007 10.1803C15.3189 10.2279 15.3117 10.2327 15.2716 10.1995C15.2189 10.1557 15.1953 10.148 15.1133 10.148C15.0903 10.148 15.0714 10.128 15.0714 10.1036C15.0714 10.0791 15.0901 10.0707 15.1129 10.0848C15.1366 10.0995 15.1437 10.0827 15.1294 10.0455C15.1158 10.0099 15.0875 9.99121 15.0667 10.0041C15.0459 10.0169 15.0175 9.99796 15.0037 9.96189C14.9898 9.92582 14.9587 9.8963 14.9346 9.8963C14.9104 9.8963 14.9248 9.93406 14.9665 9.9802C15.0083 10.0263 15.0276 10.0641 15.0094 10.0641C14.9676 10.0641 14.7779 9.84562 14.7778 9.79743C14.7778 9.77765 14.7494 9.77234 14.7148 9.78561C14.6443 9.81267 14.6259 9.70753 14.6938 9.66557C14.7169 9.65131 14.7352 9.61716 14.7345 9.58968C14.7337 9.5622 14.7067 9.57464 14.6743 9.61733C14.6106 9.70148 14.5066 9.6718 14.542 9.57956C14.5562 9.54253 14.542 9.53135 14.5008 9.54717C14.4551 9.56468 14.4453 9.60534 14.465 9.69491C14.4799 9.76288 14.4914 9.9105 14.4905 10.023C14.4894 10.1759 14.5029 10.222 14.5445 10.2061C14.5827 10.1914 14.6057 10.2319 14.6177 10.3347C14.6369 10.4994 14.6205 10.5429 14.526 10.5789C14.4826 10.5954 14.4909 10.6039 14.553 10.6061C14.6025 10.608 14.6539 10.638 14.6673 10.6729C14.6862 10.7223 14.6693 10.7307 14.5908 10.711C14.5054 10.6896 14.4933 10.6986 14.5119 10.7696C14.5289 10.8346 14.4998 10.8697 14.3831 10.925C14.3002 10.9644 14.2324 11.0144 14.2324 11.0362C14.2324 11.058 14.2542 11.0624 14.2808 11.0459C14.312 11.0266 14.3178 11.0345 14.2971 11.0681C14.2794 11.0967 14.2292 11.1109 14.1857 11.0995C14.1358 11.0864 14.1065 11.1006 14.1065 11.1378C14.1065 11.1702 14.0829 11.1971 14.0541 11.1974C14.0179 11.1979 14.0159 11.2076 14.0478 11.2289C14.0731 11.2458 14.0936 11.2898 14.0932 11.3267C14.0927 11.3774 14.056 11.3912 13.9422 11.3834C13.8085 11.3743 13.8023 11.378 13.8863 11.4172C14.0061 11.4732 14.0062 11.5186 13.8865 11.5566C13.7637 11.5956 13.6974 11.6896 13.7102 11.8065C13.7208 11.9027 13.5593 12.0191 13.4434 11.9987C13.4115 11.9931 13.394 12.0206 13.4015 12.0645C13.4093 12.1105 13.3772 12.1564 13.3191 12.1821C13.258 12.2091 13.2279 12.2544 13.2352 12.3083C13.243 12.3662 13.2238 12.3906 13.1736 12.3866C13.1321 12.3833 13.1124 12.4 13.128 12.4252C13.145 12.4527 13.1293 12.4595 13.0868 12.4432C13.0477 12.4282 12.9875 12.4477 12.9466 12.4885C12.9072 12.5279 12.8642 12.5573 12.851 12.5539C12.8378 12.5504 12.8322 12.566 12.8386 12.5884C12.8449 12.6109 12.8321 12.6182 12.81 12.6045C12.788 12.5909 12.7586 12.5981 12.7447 12.6206C12.7308 12.643 12.6916 12.6507 12.6574 12.6376C12.612 12.6201 12.6029 12.6334 12.6235 12.6871C12.6435 12.7391 12.6345 12.7544 12.5925 12.7397C12.56 12.7283 12.5363 12.6859 12.54 12.6456C12.5445 12.5953 12.533 12.5858 12.5034 12.6153C12.4797 12.6391 12.4295 12.6468 12.3919 12.6326C12.3331 12.6104 12.3338 12.6171 12.397 12.6809C12.4751 12.7596 12.4953 12.8112 12.4331 12.7727C12.4125 12.76 12.3645 12.7973 12.3264 12.8555C12.2881 12.914 12.2362 12.9485 12.2106 12.9326C12.1797 12.9136 12.1901 12.8849 12.2414 12.8474C12.3241 12.7869 12.3088 12.7751 12.2012 12.8163C12.1647 12.8303 12.1348 12.8735 12.1348 12.9122C12.1348 12.9547 12.1015 12.9827 12.0509 12.9827C12.0048 12.9827 11.967 12.9678 11.967 12.9497C11.967 12.8872 11.9032 12.9169 11.8482 13.005C11.8179 13.0536 11.812 13.0816 11.8352 13.0673C11.8584 13.0529 11.8892 13.0604 11.9037 13.0839C11.9374 13.1384 11.8586 13.1387 11.7571 13.0845C11.7045 13.0564 11.6699 13.0564 11.6525 13.0845C11.6382 13.1076 11.6465 13.1266 11.6709 13.1266C11.6954 13.1266 11.7153 13.1464 11.7153 13.1706C11.7153 13.1981 11.6909 13.2009 11.6502 13.1782C11.5525 13.1235 11.3281 13.1667 11.3544 13.2352C11.3806 13.3036 11.3124 13.3551 11.2753 13.295C11.2353 13.2304 11.1578 13.2441 11.1836 13.3112C11.2204 13.4072 11.1677 13.4206 11.0518 13.3447C10.9498 13.2779 10.9449 13.2779 10.9706 13.3448C10.9902 13.3958 10.9807 13.4093 10.9371 13.3926C10.9037 13.3798 10.8763 13.3886 10.8763 13.4122C10.8763 13.4358 10.8999 13.4638 10.9288 13.4744C10.9689 13.4891 10.9697 13.5059 10.9321 13.5459C10.8799 13.6014 10.904 13.7276 10.9602 13.6929C10.9784 13.6817 11.0053 13.7206 11.0201 13.7795C11.0399 13.8583 11.0667 13.8802 11.1221 13.8626C11.174 13.8461 11.2148 13.8715 11.2541 13.9449C11.2953 14.022 11.3201 14.0365 11.3447 13.9978C11.3692 13.9592 11.3786 13.9647 11.3791 14.018C11.3794 14.0584 11.4081 14.0914 11.4427 14.0914C11.4773 14.0914 11.5056 14.0688 11.5056 14.0411C11.5056 14.0019 11.5168 14.0019 11.5559 14.0411C11.6323 14.1174 11.6918 14.1013 11.6261 14.022C11.5726 13.9575 11.5778 13.9574 11.7003 14.0207C11.8313 14.0885 11.8324 14.0881 11.8821 13.9682C11.928 13.8573 11.9428 13.8506 12.0646 13.8856C12.2306 13.9332 12.2188 13.9352 12.2188 13.8589C12.2188 13.8232 12.2424 13.7972 12.2712 13.8009C12.3806 13.8151 12.4285 13.7958 12.4285 13.7375C12.4285 13.703 12.4645 13.6798 12.5124 13.6835C12.5586 13.6869 12.5963 13.7053 12.5963 13.7243C12.5963 13.7677 12.717 13.7031 12.827 13.6007C12.8732 13.5578 12.944 13.5293 12.9844 13.5375C13.0281 13.5462 13.0578 13.5269 13.0578 13.4896C13.0578 13.4416 13.1012 13.4299 13.2443 13.4395C13.4074 13.4505 13.4324 13.441 13.4435 13.3628C13.4536 13.2926 13.4901 13.2706 13.6136 13.2604C13.7001 13.2532 13.7709 13.2328 13.7709 13.2149C13.7709 13.1971 13.7992 13.1825 13.8338 13.1825C13.8685 13.1825 13.8968 13.1993 13.8968 13.2199C13.8968 13.2405 13.9157 13.2457 13.9387 13.2314C13.9618 13.2172 13.9807 13.2287 13.9807 13.2569C13.9807 13.2852 13.9916 13.2974 14.005 13.284C14.0185 13.2706 14.0083 13.2202 13.9826 13.1721C13.9465 13.1046 13.9481 13.0839 13.9897 13.0815C14.1332 13.0732 14.2553 13.0349 14.3174 12.9787C14.4011 12.903 14.47 12.8994 14.4984 12.9693C14.5152 13.0108 14.5273 13.0109 14.5564 12.9699C14.5851 12.9294 14.6121 12.9314 14.6803 12.9792C14.7819 13.0503 14.841 13.258 14.7497 13.2229C14.712 13.2085 14.7012 13.2228 14.7176 13.2655C14.7389 13.3211 14.6081 13.5041 14.547 13.5041C14.5036 13.5041 14.3662 13.6659 14.3897 13.6894C14.4129 13.7126 14.3187 13.7299 14.1981 13.7247C14.1677 13.7234 14.1523 13.7317 14.1638 13.7432C14.1754 13.7547 14.1249 13.8227 14.0518 13.8941C13.9715 13.9726 13.9491 14.0125 13.9952 13.9948C14.0469 13.975 14.0659 13.9825 14.0541 14.018C14.0445 14.0468 13.991 14.0704 13.9352 14.0704C13.8096 14.0704 13.7321 14.1346 13.7623 14.2134C13.7753 14.2473 13.7668 14.2616 13.7425 14.2466C13.6974 14.2187 13.5192 14.3618 13.5192 14.4259C13.5192 14.4465 13.4673 14.4694 13.4039 14.4767C13.3404 14.484 13.293 14.5129 13.2985 14.5409C13.304 14.5689 13.2828 14.582 13.2515 14.5699C13.1996 14.55 13.1308 14.6444 13.1533 14.7046C13.1584 14.7184 13.0971 14.7607 13.017 14.7986C12.9369 14.8365 12.8475 14.9147 12.8183 14.9724C12.7892 15.0301 12.7651 15.0543 12.7647 15.0261C12.7644 14.998 12.7386 14.9848 12.7075 14.9968C12.6357 15.0243 12.6396 15.249 12.7117 15.2346C12.7405 15.2288 12.7641 15.239 12.7641 15.2571C12.7641 15.2753 12.8019 15.293 12.848 15.2965C12.8942 15.2999 12.9319 15.2851 12.9319 15.2634C12.9319 15.2418 12.9691 15.2241 13.0145 15.2241C13.0707 15.2241 13.0894 15.2442 13.0729 15.287C13.0596 15.3216 13.0697 15.3499 13.0952 15.3499C13.1208 15.3499 13.1416 15.3289 13.1416 15.3031ZM13.5192 14.9724C13.5192 14.9493 13.5381 14.9304 13.5612 14.9304C13.5842 14.9304 13.6031 14.9493 13.6031 14.9724C13.6031 14.9955 13.5842 15.0143 13.5612 15.0143C13.5381 15.0143 13.5192 14.9955 13.5192 14.9724ZM13.9807 14.7207C13.9807 14.6976 14.0101 14.6787 14.0461 14.6787C14.082 14.6787 14.0998 14.6976 14.0855 14.7207C14.0713 14.7437 14.0418 14.7626 14.0201 14.7626C13.9984 14.7626 13.9807 14.7437 13.9807 14.7207ZM15.8059 13.881C15.8204 13.8575 15.8498 13.8492 15.8713 13.8625C15.9295 13.8984 15.9187 13.9236 15.845 13.9236C15.809 13.9236 15.7914 13.9044 15.8059 13.881ZM16.8543 13.2944C16.84 13.2713 16.8483 13.2524 16.8728 13.2524C16.8972 13.2524 16.9172 13.2713 16.9172 13.2944C16.9172 13.3174 16.9089 13.3363 16.8987 13.3363C16.8885 13.3363 16.8685 13.3174 16.8543 13.2944ZM15.3739 11.8101C15.2134 11.6515 15.1971 11.4984 15.3165 11.2684C15.3795 11.1469 15.4421 11.0755 15.4747 11.088C15.5084 11.1009 15.5198 11.0859 15.5052 11.0479C15.4908 11.0103 15.5077 10.9871 15.5493 10.9871C15.5864 10.9871 15.6167 10.9669 15.6167 10.9423C15.6167 10.9166 15.6525 10.9089 15.7006 10.9242C15.7619 10.9436 15.7845 10.9317 15.7845 10.8801C15.7845 10.8301 15.8091 10.8159 15.8684 10.8314C15.9146 10.8435 15.9523 10.8387 15.9523 10.8209C15.9523 10.803 16.009 10.7949 16.0782 10.803C16.1699 10.8137 16.204 10.8001 16.204 10.7531C16.204 10.7116 16.2228 10.7004 16.2565 10.7218C16.3167 10.76 16.2984 10.7549 16.5255 10.7967C16.7057 10.8299 16.7488 10.8858 16.7691 11.1129C16.7785 11.2186 16.6804 11.4454 16.6026 11.4977C16.5795 11.5132 16.4851 11.5934 16.3928 11.676C16.3005 11.7585 16.1967 11.8275 16.1621 11.8293C16.1275 11.831 16.0614 11.8408 16.0153 11.8509C15.798 11.8984 15.6807 11.9023 15.6099 11.8644C15.5582 11.8367 15.5328 11.8374 15.5328 11.8666C15.5328 11.9333 15.4794 11.9143 15.3739 11.8101ZM16.1201 11.5818C16.3352 11.5038 16.5111 11.3197 16.5302 11.1527C16.5409 11.0591 16.5224 11.0332 16.426 11.0062C16.3616 10.9881 16.2939 10.9767 16.2756 10.9808C16.2572 10.9849 16.1912 10.9903 16.1287 10.9926C15.973 10.9985 15.5768 11.1995 15.5228 11.2999C15.3997 11.5287 15.5223 11.7082 15.7769 11.6721C15.8618 11.6601 16.0163 11.6194 16.1201 11.5818ZM15.6901 11.5035C15.5798 11.4747 15.6003 11.4285 15.774 11.3148C15.9851 11.1768 16.0774 11.139 16.2145 11.1347C16.4457 11.1274 16.277 11.3642 15.9789 11.4655C15.8704 11.5023 15.7775 11.5302 15.7726 11.5276C15.7676 11.5249 15.7305 11.5141 15.6901 11.5035ZM17.6976 10.4589C17.6573 10.3539 17.716 10.3025 17.7799 10.3868C17.854 10.4846 17.8545 10.5256 17.7817 10.5256C17.7495 10.5256 17.7117 10.4956 17.6976 10.4589ZM16.3089 9.68661C16.2947 9.66354 16.303 9.64466 16.3274 9.64466C16.3518 9.64466 16.3718 9.66354 16.3718 9.68661C16.3718 9.70969 16.3635 9.72856 16.3533 9.72856C16.3432 9.72856 16.3232 9.70969 16.3089 9.68661ZM12.9824 14.6633C13.0155 14.6116 12.7339 14.4568 12.674 14.4938C12.6536 14.5064 12.6696 14.572 12.7095 14.6396C12.7648 14.7332 12.8025 14.7562 12.8675 14.736C12.9145 14.7213 12.9661 14.6886 12.9824 14.6633ZM14.8197 14.6787C14.8444 14.6326 14.8551 14.5948 14.8436 14.5948C14.832 14.5948 14.8024 14.6326 14.7777 14.6787C14.753 14.7249 14.7423 14.7626 14.7538 14.7626C14.7653 14.7626 14.795 14.7249 14.8197 14.6787ZM11.9452 14.3536C11.8878 14.1862 11.8067 14.1424 11.6852 14.2132C11.6441 14.2371 11.634 14.2572 11.6629 14.2579C11.6917 14.2586 11.7153 14.2798 11.7153 14.3049C11.7153 14.3603 11.8854 14.5076 11.9516 14.5095C11.9858 14.5105 11.984 14.4668 11.9452 14.3536ZM13.4117 14.346C13.4826 14.2677 13.4793 14.262 13.315 14.1782C13.1113 14.0743 13.0997 14.0731 13.0997 14.1563C13.0997 14.2123 13.276 14.427 13.322 14.427C13.331 14.427 13.3714 14.3906 13.4117 14.346ZM12.4285 14.2592C12.4038 14.2131 12.3944 14.1753 12.4075 14.1753C12.4207 14.1753 12.4112 14.1376 12.3865 14.0914C12.3314 13.9884 12.1768 13.9787 12.1768 14.0782C12.1768 14.1648 12.338 14.3431 12.4163 14.3431C12.4604 14.3431 12.4632 14.324 12.4285 14.2592ZM12.9738 14.0934C12.9738 14.0315 12.8753 13.822 12.8317 13.7912C12.7625 13.7422 12.6802 13.804 12.6802 13.9048C12.6802 13.9587 12.7221 14.0321 12.7734 14.0681C12.8783 14.1415 12.9738 14.1536 12.9738 14.0934ZM13.7842 14.031C13.8755 13.9618 13.8808 13.924 13.8059 13.8765C13.7348 13.8314 13.5192 13.8288 13.5192 13.8731C13.5192 13.913 13.657 14.0906 13.687 14.0895C13.6985 14.0891 13.7423 14.0628 13.7842 14.031ZM11.17 13.9656C11.17 13.9425 11.1616 13.9236 11.1515 13.9236C11.1413 13.9236 11.1213 13.9425 11.107 13.9656C11.0928 13.9886 11.1011 14.0075 11.1255 14.0075C11.15 14.0075 11.17 13.9886 11.17 13.9656ZM12.6382 13.8656C12.6382 13.8567 12.6005 13.8396 12.5543 13.8275C12.5081 13.8155 12.4809 13.8227 12.4938 13.8436C12.5164 13.8802 12.6382 13.8987 12.6382 13.8656ZM13.3625 13.7873C13.3275 13.6435 13.2224 13.5384 13.1629 13.5878C13.1354 13.6106 13.1024 13.6187 13.0895 13.6058C13.0767 13.593 13.0534 13.603 13.0379 13.6282C13.0223 13.6534 13.0251 13.6691 13.0441 13.6631C13.0632 13.6572 13.1298 13.7039 13.1922 13.767C13.33 13.9063 13.3933 13.9138 13.3625 13.7873ZM13.8129 13.5541C13.8129 13.4893 13.787 13.4009 13.7555 13.3577C13.7001 13.2821 13.6962 13.2827 13.647 13.3747C13.603 13.4568 13.6091 13.4842 13.6907 13.571C13.8096 13.6976 13.8129 13.6971 13.8129 13.5541ZM14.2698 13.5856C14.3249 13.5396 14.3554 13.4883 14.3374 13.4716C14.3195 13.4549 14.2963 13.4649 14.2859 13.4939C14.2723 13.5322 14.2336 13.5228 14.1447 13.4595C14.0414 13.3859 14.0185 13.3821 13.9982 13.4349C13.9683 13.5128 14.0498 13.6724 14.1185 13.6705C14.1465 13.6697 14.2146 13.6315 14.2698 13.5856ZM14.5428 13.3468C14.5166 13.2342 14.4211 13.1266 14.3473 13.1266C14.2712 13.1266 14.341 13.317 14.4316 13.3567C14.4835 13.3795 14.526 13.4126 14.526 13.4302C14.526 13.4478 14.5358 13.4622 14.5478 13.4622C14.5598 13.4622 14.5575 13.4102 14.5428 13.3468ZM17.945 12.6232C17.9592 12.6001 17.9509 12.5812 17.9265 12.5812C17.902 12.5812 17.8821 12.6001 17.8821 12.6232C17.8821 12.6462 17.8904 12.6651 17.9006 12.6651C17.9107 12.6651 17.9307 12.6462 17.945 12.6232ZM12.7694 12.4658C12.8227 12.3979 12.8207 12.397 12.7431 12.454C12.697 12.4878 12.6514 12.5208 12.6417 12.5274C12.6321 12.5339 12.644 12.5392 12.6681 12.5392C12.6922 12.5392 12.7378 12.5062 12.7694 12.4658ZM18.1338 12.3714C18.1338 12.3484 18.1149 12.3295 18.0918 12.3295C18.0687 12.3295 18.0499 12.3484 18.0499 12.3714C18.0499 12.3945 18.0687 12.4134 18.0918 12.4134C18.1149 12.4134 18.1338 12.3945 18.1338 12.3714ZM13.4563 11.91C13.4705 11.8869 13.4633 11.868 13.4403 11.868C13.4172 11.868 13.3866 11.8869 13.3724 11.91C13.3581 11.9331 13.3653 11.9519 13.3884 11.9519C13.4115 11.9519 13.442 11.9331 13.4563 11.91ZM18.3302 11.8602C18.3168 11.8267 18.3069 11.8366 18.3049 11.8855C18.303 11.9297 18.313 11.9545 18.3269 11.9406C18.3408 11.9266 18.3423 11.8905 18.3302 11.8602ZM18.3855 11.6978C18.3855 11.6761 18.3666 11.6583 18.3435 11.6583C18.3204 11.6583 18.3016 11.6877 18.3016 11.7237C18.3016 11.7597 18.3204 11.7774 18.3435 11.7632C18.3666 11.7489 18.3855 11.7195 18.3855 11.6978ZM18.4274 11.5139C18.4274 11.5038 18.4085 11.4838 18.3855 11.4695C18.3624 11.4553 18.3435 11.4636 18.3435 11.488C18.3435 11.5124 18.3624 11.5324 18.3855 11.5324C18.4085 11.5324 18.4274 11.5241 18.4274 11.5139ZM18.1703 10.8983C18.1236 10.8682 18.123 10.8546 18.1672 10.8261C18.2112 10.7976 18.2101 10.7813 18.1616 10.7411C18.1143 10.7018 18.0964 10.7049 18.0771 10.7553C18.0485 10.8296 18.0867 10.9527 18.1517 10.9962C18.1764 11.0128 18.2037 11.0059 18.2123 10.9809C18.2209 10.9559 18.202 10.9187 18.1703 10.8983ZM14.1388 10.8691C14.164 10.7936 14.0773 10.8095 14.048 10.8857C14.0324 10.9266 14.0417 10.9457 14.0724 10.9355C14.0998 10.9264 14.1297 10.8965 14.1388 10.8691ZM14.4313 10.7254C14.4369 10.6517 14.4299 10.6449 14.3989 10.694C14.3505 10.7707 14.3475 10.8193 14.3912 10.8193C14.4094 10.8193 14.4274 10.777 14.4313 10.7254ZM18.1897 10.4238C18.2023 10.3909 18.187 10.3426 18.1555 10.3165C18.1095 10.2783 18.1031 10.2871 18.1227 10.362C18.1394 10.4259 18.1319 10.4455 18.0984 10.4248C18.0717 10.4083 18.0499 10.4148 18.0499 10.4392C18.0499 10.5055 18.1632 10.4929 18.1897 10.4238ZM16.7151 8.71266C16.685 8.68256 16.6655 8.68008 16.6655 8.70637C16.6655 8.76236 16.7151 8.81197 16.7431 8.78398C16.755 8.77205 16.7425 8.73997 16.7151 8.71266ZM16.5639 8.52149C16.4917 8.4523 16.4908 8.45319 16.5438 8.54156C16.5744 8.59242 16.6084 8.62501 16.6195 8.61397C16.6305 8.60293 16.6055 8.56132 16.5639 8.52149ZM20.1893 20.9713C20.1893 20.9482 20.2093 20.9293 20.2338 20.9293C20.2582 20.9293 20.2665 20.9482 20.2523 20.9713C20.238 20.9944 20.218 21.0132 20.2078 21.0132C20.1976 21.0132 20.1893 20.9944 20.1893 20.9713Z" fill="#E85660"/>
</svg>
