<svg width="101" height="27" viewBox="0 0 101 27" fill="none" xmlns="http://www.w3.org/2000/svg">
<path d="M31.6138 5.54251V18.6334H29.2424V5.54251H31.6138ZM36.3935 12.8806V18.6334H34.0795V8.81524H36.2912V10.4836H36.4062C36.6321 9.93385 36.9922 9.49706 37.4865 9.1732C37.9851 8.84933 38.6009 8.6874 39.3338 8.6874C40.0114 8.6874 40.6016 8.83229 41.1044 9.12206C41.6115 9.41183 42.0036 9.83158 42.2805 10.3813C42.5618 10.931 42.7003 11.5979 42.696 12.382V18.6334H40.3821V12.74C40.3821 12.0837 40.2116 11.5702 39.8707 11.1995C39.5341 10.8287 39.0675 10.6434 38.4709 10.6434C38.0661 10.6434 37.706 10.7329 37.3906 10.9118C37.0795 11.0865 36.8345 11.3401 36.6555 11.6725C36.4808 12.0049 36.3935 12.4076 36.3935 12.8806ZM50.0213 8.81524V10.605H44.2173V8.81524H50.0213ZM45.6683 18.6334V7.88839C45.6683 7.22788 45.8047 6.67817 46.0774 6.23925C46.3544 5.80033 46.7251 5.4722 47.1896 5.25487C47.6541 5.03754 48.1697 4.92888 48.7365 4.92888C49.1371 4.92888 49.4929 4.96084 49.804 5.02476C50.1151 5.08868 50.3452 5.14621 50.4943 5.19734L50.0341 6.98712C49.9361 6.95729 49.8125 6.92746 49.6634 6.89763C49.5142 6.86354 49.348 6.84649 49.1648 6.84649C48.7344 6.84649 48.4297 6.95089 48.2507 7.1597C48.076 7.36425 47.9886 7.65828 47.9886 8.0418V18.6334H45.6683ZM55.8109 18.8252C54.8265 18.8252 53.9764 18.6206 53.2605 18.2115C52.5488 17.7982 52.0012 17.2144 51.6177 16.4601C51.2342 15.7016 51.0424 14.8088 51.0424 13.7819C51.0424 12.7719 51.2342 11.8856 51.6177 11.1228C52.0055 10.3557 52.5467 9.75913 53.2413 9.333C53.9359 8.9026 54.752 8.6874 55.6895 8.6874C56.2946 8.6874 56.8656 8.78541 57.4025 8.98143C57.9437 9.1732 58.421 9.47149 58.8343 9.87632C59.252 10.2811 59.5801 10.7968 59.8187 11.4232C60.0574 12.0454 60.1767 12.7868 60.1767 13.6476V14.3571H52.1291V12.7975H57.9586C57.9544 12.3543 57.8585 11.9601 57.671 11.615C57.4835 11.2655 57.2214 10.9907 56.8848 10.7904C56.5524 10.5901 56.1646 10.49 55.7214 10.49C55.2484 10.49 54.8329 10.605 54.475 10.8351C54.117 11.061 53.8379 11.3593 53.6376 11.73C53.4416 12.0965 53.3414 12.4992 53.3372 12.9381V14.2996C53.3372 14.8706 53.4416 15.3607 53.6504 15.7698C53.8592 16.1746 54.1511 16.4857 54.5261 16.703C54.9011 16.9161 55.34 17.0226 55.8429 17.0226C56.1795 17.0226 56.4842 16.9758 56.7569 16.882C57.0297 16.784 57.2662 16.6412 57.4664 16.4537C57.6667 16.2662 57.818 16.034 57.9203 15.757L60.0808 15.9999C59.9444 16.5709 59.6845 17.0695 59.301 17.4956C58.9217 17.9175 58.4359 18.2456 57.8436 18.48C57.2512 18.7101 56.5737 18.8252 55.8109 18.8252ZM66.4169 18.8252C65.4368 18.8252 64.5952 18.61 63.892 18.1796C63.1932 17.7492 62.6541 17.1547 62.2749 16.3962C61.8999 15.6334 61.7124 14.7556 61.7124 13.7627C61.7124 12.7655 61.9041 11.8856 62.2876 11.1228C62.6712 10.3557 63.2124 9.75913 63.9112 9.333C64.6143 8.9026 65.4453 8.6874 66.4041 8.6874C67.201 8.6874 67.9063 8.83442 68.5199 9.12845C69.1378 9.41822 69.63 9.82945 69.9964 10.3621C70.3629 10.8905 70.5717 11.5084 70.6229 12.2158H68.4112C68.3217 11.7428 68.1087 11.3486 67.772 11.0333C67.4396 10.7137 66.9943 10.5539 66.4361 10.5539C65.9631 10.5539 65.5476 10.6817 65.1896 10.9374C64.8317 11.1888 64.5526 11.551 64.3523 12.024C64.1563 12.4971 64.0582 13.0638 64.0582 13.7243C64.0582 14.3934 64.1563 14.9687 64.3523 15.4502C64.5483 15.9275 64.8232 16.2961 65.1768 16.556C65.5348 16.8117 65.9545 16.9395 66.4361 16.9395C66.777 16.9395 67.0817 16.8756 67.3501 16.7478C67.6229 16.6157 67.8509 16.426 68.0341 16.1789C68.2173 15.9317 68.343 15.6313 68.4112 15.2776H70.6229C70.5675 15.9722 70.3629 16.588 70.0092 17.1249C69.6555 17.6576 69.174 18.0752 68.5646 18.3777C67.9553 18.676 67.2393 18.8252 66.4169 18.8252ZM77.4256 8.81524V10.605H71.7814V8.81524H77.4256ZM73.1749 6.46297H75.4888V15.6803C75.4888 15.9914 75.5357 16.23 75.6294 16.3962C75.7275 16.5581 75.8553 16.6689 76.013 16.7286C76.1706 16.7883 76.3453 16.8181 76.5371 16.8181C76.682 16.8181 76.8141 16.8074 76.9334 16.7861C77.057 16.7648 77.1507 16.7456 77.2147 16.7286L77.6046 18.5375C77.481 18.5802 77.3042 18.627 77.074 18.6782C76.8482 18.7293 76.5712 18.7591 76.2431 18.7677C75.6635 18.7847 75.1415 18.6973 74.677 18.5056C74.2125 18.3096 73.8439 18.007 73.5712 17.5979C73.3027 17.1888 73.1706 16.6775 73.1749 16.0638V6.46297ZM83.6019 18.8252C82.6175 18.8252 81.7674 18.6206 81.0515 18.2115C80.3398 17.7982 79.7923 17.2144 79.4087 16.4601C79.0252 15.7016 78.8335 14.8088 78.8335 13.7819C78.8335 12.7719 79.0252 11.8856 79.4087 11.1228C79.7965 10.3557 80.3377 9.75913 81.0323 9.333C81.7269 8.9026 82.543 8.6874 83.4805 8.6874C84.0856 8.6874 84.6566 8.78541 85.1935 8.98143C85.7347 9.1732 86.212 9.47149 86.6254 9.87632C87.043 10.2811 87.3711 10.7968 87.6097 11.4232C87.8484 12.0454 87.9677 12.7868 87.9677 13.6476V14.3571H79.9201V12.7975H85.7496C85.7454 12.3543 85.6495 11.9601 85.462 11.615C85.2745 11.2655 85.0124 10.9907 84.6758 10.7904C84.3434 10.5901 83.9556 10.49 83.5124 10.49C83.0394 10.49 82.6239 10.605 82.266 10.8351C81.908 11.061 81.6289 11.3593 81.4286 11.73C81.2326 12.0965 81.1325 12.4992 81.1282 12.9381V14.2996C81.1282 14.8706 81.2326 15.3607 81.4414 15.7698C81.6502 16.1746 81.9421 16.4857 82.3171 16.703C82.6921 16.9161 83.131 17.0226 83.6339 17.0226C83.9705 17.0226 84.2752 16.9758 84.5479 16.882C84.8207 16.784 85.0572 16.6412 85.2575 16.4537C85.4577 16.2662 85.609 16.034 85.7113 15.757L87.8718 15.9999C87.7354 16.5709 87.4755 17.0695 87.092 17.4956C86.7127 17.9175 86.2269 18.2456 85.6346 18.48C85.0423 18.7101 84.3647 18.8252 83.6019 18.8252ZM89.9252 18.6334V8.81524H92.1689V10.4516H92.2711C92.4501 9.88484 92.7569 9.44805 93.1916 9.14124C93.6305 8.83016 94.1312 8.67462 94.6937 8.67462C94.8216 8.67462 94.9643 8.68101 95.122 8.69379C95.2839 8.70231 95.4181 8.71723 95.5247 8.73854V10.8671C95.4267 10.833 95.2711 10.8032 95.0581 10.7776C94.8493 10.7478 94.6468 10.7329 94.4508 10.7329C94.0289 10.7329 93.6497 10.8245 93.313 11.0077C92.9806 11.1867 92.7186 11.436 92.5268 11.7556C92.335 12.0752 92.2392 12.4438 92.2392 12.8614V18.6334H89.9252Z" fill="#E85660"/>
<path d="M6.30506 21.4064C6.28557 21.3734 6.22696 21.324 6.17481 21.2966C6.09335 21.2539 6.07646 21.2605 6.05486 21.3431C6.03007 21.4378 6.02839 21.438 5.93671 21.3551C5.86719 21.2921 5.82475 21.2822 5.76864 21.3155C5.66343 21.3781 5.5517 21.3444 5.52495 21.2421C5.51105 21.189 5.44945 21.145 5.36531 21.1282C5.28996 21.1131 5.2283 21.0853 5.2283 21.0664C5.2283 21.0476 5.16326 21.0321 5.08376 21.0321C5.00426 21.0321 4.86966 21.0025 4.78466 20.9663L4.6301 20.9006L4.79741 20.9115C4.88943 20.9175 4.97375 20.9079 4.98478 20.89C4.99581 20.8722 5.09001 20.8739 5.19411 20.894C5.36404 20.9267 5.39262 20.9193 5.47368 20.8218C5.52334 20.762 5.60808 20.7131 5.66201 20.7131C5.71593 20.7131 5.76004 20.6924 5.76004 20.6672C5.76004 20.6373 5.78706 20.6357 5.83759 20.6627C5.98273 20.74 6.56105 20.6901 6.87797 20.5729C7.20879 20.4506 7.35526 20.3419 7.35526 20.2188C7.35526 20.1402 7.25904 20.1089 7.08939 20.1322C7.05283 20.1372 6.92322 20.1466 6.80136 20.153C6.66633 20.1601 6.58375 20.184 6.5899 20.2143C6.59657 20.2472 6.54777 20.2556 6.44626 20.2391C6.35915 20.225 6.26631 20.2359 6.23203 20.2644C6.19713 20.2934 6.11265 20.3028 6.03236 20.2868C5.94667 20.2696 5.8673 20.2804 5.82579 20.3149C5.77078 20.3605 5.74362 20.3575 5.67818 20.2982C5.57625 20.206 5.50945 20.2062 5.45752 20.2991C5.42016 20.3658 5.40435 20.3638 5.28231 20.2769C5.13677 20.1733 5.05106 20.1549 5.05106 20.2273C5.05106 20.2939 4.87417 20.1921 4.87242 20.1244C4.87014 20.0364 4.68848 19.9306 4.45241 19.8798C4.33079 19.8537 4.1615 19.8001 4.0762 19.7609C3.92312 19.6904 3.92614 19.6898 4.31009 19.7142C4.63544 19.7349 4.70337 19.7278 4.72535 19.6705C4.77392 19.5439 5.00784 19.482 5.27329 19.5253C5.949 19.6358 6.04507 19.6381 6.56345 19.5559C6.84692 19.511 7.13107 19.4544 7.19489 19.4301C7.34395 19.3734 7.34891 19.2133 7.20578 19.0789C7.10971 18.9886 7.09453 18.9862 7.03025 19.0504C6.97239 19.1083 6.94428 19.1111 6.87202 19.0659C6.79926 19.0205 6.76974 19.0241 6.70028 19.087C6.6403 19.1413 6.57645 19.1549 6.47624 19.1349C6.36491 19.1126 6.33609 19.1216 6.33609 19.1788C6.33609 19.2575 6.2602 19.2716 6.16399 19.2106C6.12956 19.1888 6.04495 19.1884 5.97111 19.2095C5.88404 19.2344 5.78116 19.2271 5.66686 19.1877C5.52071 19.1373 5.49417 19.1376 5.49417 19.1895C5.49417 19.2706 5.43014 19.2673 5.35988 19.1827C5.32879 19.1452 5.27151 19.1184 5.23259 19.1231C5.19368 19.1278 5.10457 19.1082 5.03459 19.0795C4.94515 19.0428 4.89067 19.0412 4.85122 19.0739C4.77013 19.1412 4.60094 19.0528 4.51106 18.8962C4.46272 18.812 4.31802 18.7074 4.09061 18.5922C3.69439 18.3916 3.72124 18.3082 4.1361 18.4509C4.38698 18.5372 4.39486 18.5374 4.48177 18.4564C4.64384 18.3054 4.9237 18.3176 5.38166 18.4957C5.45383 18.5238 5.55729 18.5356 5.61158 18.5219C5.66588 18.5083 5.72397 18.5193 5.74068 18.5463C5.76132 18.5797 5.87951 18.586 6.10897 18.5659C6.29481 18.5496 6.55459 18.5267 6.68626 18.5151C6.90752 18.4955 7.17801 18.3661 7.17801 18.2798C7.17801 18.2289 7.02411 18.0987 6.96404 18.0987C6.93549 18.0987 6.91214 18.1186 6.91214 18.143C6.91214 18.2007 6.74834 18.2006 6.71266 18.1429C6.69431 18.1132 6.65768 18.1132 6.60218 18.1429C6.48781 18.2041 6.34755 18.1986 6.32342 18.1319C6.30762 18.0883 6.28404 18.0879 6.21272 18.1299C6.1398 18.1729 6.11178 18.1709 6.06935 18.1198C6.02962 18.0719 5.99514 18.0677 5.92966 18.1028C5.86463 18.1376 5.81697 18.1324 5.74055 18.0823C5.68436 18.0455 5.59586 18.0265 5.54389 18.0401C5.49191 18.0537 5.41953 18.0401 5.38305 18.0098C5.34348 17.9769 5.26253 17.9655 5.18247 17.9815C5.06704 18.0046 5.04211 17.9923 5.00454 17.8935C4.97161 17.8069 4.93841 17.7844 4.8697 17.8024C4.77506 17.8272 4.60794 17.718 4.60794 17.6314C4.60794 17.5672 4.27515 17.4044 4.06512 17.3659C3.97373 17.3492 3.89895 17.3178 3.89895 17.2961C3.89895 17.2488 4.37298 17.2491 4.49386 17.2965C4.55113 17.3189 4.60497 17.3041 4.65766 17.2514C4.75524 17.1538 5.12648 17.1728 5.29625 17.284C5.35788 17.3244 5.42028 17.3455 5.43491 17.3309C5.44955 17.3162 5.50376 17.3277 5.55539 17.3564C5.60702 17.3851 5.7012 17.4114 5.76469 17.4147C5.82818 17.4181 5.90487 17.4362 5.93512 17.4549C6.00607 17.4987 7.02099 17.5295 7.21696 17.4937C7.31099 17.4765 7.37473 17.4356 7.3883 17.3838C7.40019 17.3383 7.43562 17.3011 7.46705 17.3011C7.55856 17.3011 7.49329 17.1443 7.36111 17.0466C7.29529 16.9979 7.14242 16.9457 7.0214 16.9306C6.90038 16.9154 6.75799 16.8943 6.70499 16.8837C6.58176 16.859 6.24747 16.5365 6.24747 16.4423C6.24747 16.4028 6.22906 16.3706 6.20656 16.3706C6.18405 16.3706 6.10928 16.3253 6.04039 16.2699C5.9715 16.2144 5.85531 16.1627 5.7822 16.1548C5.70908 16.1469 5.63929 16.1299 5.62711 16.1171C5.59208 16.0803 6.20856 16.1533 6.33345 16.2008C6.39532 16.2243 6.51096 16.2314 6.59042 16.2165C6.67866 16.1999 6.73489 16.2074 6.73489 16.2357C6.73489 16.2932 6.91416 16.2959 7.05991 16.2405C7.15045 16.206 7.17297 16.2136 7.19158 16.2848C7.20566 16.3386 7.25273 16.3708 7.31787 16.3712C7.48909 16.3722 7.62112 16.4215 7.62112 16.4845C7.62112 16.5385 7.87108 16.6356 8.01147 16.6362C8.04337 16.6364 8.05661 16.6573 8.04089 16.6827C7.98448 16.774 8.1152 16.8636 8.25876 16.8321C8.37624 16.8063 8.38731 16.8113 8.33977 16.8685C8.25725 16.968 8.37796 17.0513 8.54985 17.0135C8.6728 16.9865 8.6846 16.9939 8.6846 17.0982C8.6846 17.223 8.74115 17.2394 8.92728 17.1686C9.02576 17.1312 9.04089 17.1361 9.02987 17.2018C9.02126 17.2532 9.0503 17.2837 9.11664 17.2932C9.17147 17.3009 9.21634 17.3232 9.21634 17.3427C9.21634 17.3622 9.32981 17.3807 9.46851 17.3839C9.6072 17.3871 9.73183 17.4074 9.74545 17.4291C9.75909 17.4507 9.84501 17.4637 9.9364 17.458C10.0278 17.4524 10.1026 17.4601 10.1026 17.4752C10.1026 17.4903 10.2322 17.5084 10.3906 17.5155C10.6279 17.5262 10.6786 17.5162 10.6786 17.4591C10.6786 17.421 10.656 17.3898 10.6284 17.3898C10.6008 17.3898 10.5458 17.3549 10.5061 17.3122C10.4664 17.2696 10.3852 17.207 10.3257 17.1733C10.2382 17.1237 10.2137 17.1229 10.1983 17.1692C10.1866 17.2042 10.1044 17.1418 9.98746 17.0091C9.81934 16.8183 9.79559 16.8041 9.79409 16.8939C9.7918 17.0315 9.71773 16.9782 9.68142 16.8128C9.64816 16.6614 9.52208 16.57 9.44828 16.6438C9.41447 16.6776 9.37435 16.6395 9.30919 16.5118C9.19426 16.2865 9.13829 16.2514 9.05971 16.3551C9.00146 16.432 8.99751 16.4297 8.99619 16.3184C8.99393 16.1285 8.77123 15.9679 8.7154 16.1158C8.70391 16.1463 8.66124 16.0944 8.6206 16.0005C8.56422 15.8703 8.52691 15.835 8.46325 15.8516C8.39709 15.869 8.36776 15.8355 8.32172 15.6904C8.26173 15.5013 8.13004 15.4222 8.06102 15.5339C8.02402 15.5938 7.96278 15.4817 7.92497 15.285C7.91475 15.2318 7.87272 15.1963 7.81992 15.1963C7.71471 15.1963 7.66703 15.1404 7.66611 15.0157C7.66528 14.9122 7.47699 14.7127 7.4271 14.7626C7.37862 14.8111 7.3094 14.6761 7.3371 14.5871C7.40041 14.3836 7.16762 14.1844 7.02879 14.3232C6.96188 14.3901 6.95588 14.389 6.94887 14.3085C6.93395 14.1372 6.9228 14.0865 6.86802 13.9411C6.82118 13.8168 6.79596 13.7978 6.70721 13.8201C6.59676 13.8478 6.59835 13.8515 6.58461 13.5347C6.58061 13.4423 6.55951 13.4253 6.45795 13.4322C6.34423 13.44 6.33609 13.4289 6.33609 13.2661C6.33609 13.1403 6.31748 13.0915 6.26945 13.0915C6.22151 13.0915 6.20597 13.0512 6.21406 12.9476C6.22341 12.8279 6.2085 12.8012 6.12561 12.7894C6.03502 12.7765 6.02591 12.7512 6.02591 12.5124C6.02591 12.242 5.97866 12.1857 5.85182 12.305C5.80317 12.3508 5.7967 12.3219 5.81461 12.1388C5.84318 11.847 5.80133 11.696 5.69146 11.6946C5.60155 11.6934 5.60139 11.6922 5.64566 11.3477C5.66434 11.2023 5.65393 11.1733 5.57576 11.1528C5.49503 11.1317 5.48711 11.1055 5.51035 10.9359C5.52604 10.8214 5.51912 10.743 5.49332 10.743C5.46942 10.743 5.44986 10.7007 5.44986 10.649C5.44986 10.5665 5.44083 10.5624 5.37644 10.6158C5.30946 10.6712 5.30592 10.661 5.33603 10.4993C5.37457 10.2923 5.37321 10.3068 5.36648 10.1751C5.36231 10.0934 5.3431 10.0781 5.27261 10.1005C5.16666 10.1341 5.15741 10.0639 5.24553 9.89499C5.30136 9.788 5.29593 9.54662 5.23769 9.54662C5.22418 9.54662 5.17515 9.58098 5.12876 9.62297C5.0473 9.69669 5.0454 9.69479 5.07348 9.56758C5.08948 9.49512 5.12315 9.38137 5.14832 9.31479C5.20899 9.15426 5.16394 9.04251 5.05051 9.07218C4.94443 9.09992 4.94339 9.09161 5.03155 8.92112C5.12948 8.73174 5.10063 8.5535 4.96904 8.53487C4.87975 8.52223 4.86933 8.50325 4.89611 8.40194C4.91329 8.33693 4.93025 8.20398 4.93381 8.1065C4.93937 7.95408 4.9263 7.92727 4.84057 7.91509C4.72468 7.89863 4.71366 7.85191 4.80733 7.77416C4.89396 7.70227 4.89151 7.62095 4.79995 7.5294C4.73741 7.46687 4.73414 7.43332 4.77859 7.31039C4.83874 7.14407 4.80721 7.01519 4.71503 7.05056C4.63267 7.08217 4.63504 7.02469 4.71996 6.93085C4.8179 6.82263 4.73391 6.60423 4.60954 6.6437C4.52567 6.67032 4.52483 6.66381 4.58573 6.45835C4.63596 6.28889 4.64901 6.05374 4.61297 5.96745C4.61019 5.9608 4.55773 5.98823 4.49639 6.02843C4.39032 6.09792 4.38628 6.09743 4.41396 6.01838C4.42997 5.97265 4.47115 5.91239 4.50549 5.88447C4.55862 5.84126 4.55548 5.81323 4.48437 5.6963C4.43841 5.62074 4.38759 5.57213 4.37143 5.58829C4.35527 5.60446 4.34205 5.59839 4.34205 5.57485C4.34205 5.55129 4.36368 5.51038 4.39011 5.48395C4.4664 5.40766 4.422 5.224 4.33097 5.23928C4.24792 5.25323 4.22215 5.14004 4.29774 5.09333C4.37242 5.04717 4.34734 4.9395 4.23597 4.82813C4.17763 4.76979 4.14184 4.71011 4.15643 4.69551C4.17104 4.68092 4.18497 4.58933 4.18741 4.49199C4.19064 4.36339 4.17604 4.32108 4.13402 4.33721C4.06375 4.36417 4.06152 4.33944 4.12373 4.2232C4.15762 4.15988 4.15755 4.09495 4.12357 3.99724C4.0847 3.88573 4.08923 3.84525 4.14786 3.78047C4.22318 3.69723 4.20426 3.56458 4.11705 3.56458C4.08921 3.56458 4.11119 3.52835 4.16587 3.48406C4.24943 3.4164 4.25727 3.38854 4.21497 3.30951C4.18193 3.24777 4.1799 3.20603 4.20908 3.18801C4.23351 3.1729 4.25351 3.12916 4.25351 3.09081C4.25351 3.05246 4.28951 2.98883 4.33351 2.94941C4.41266 2.87851 4.60737 2.34899 4.60868 2.20107C4.60935 2.1351 4.6156 2.13369 4.65426 2.19092C4.68081 2.23022 4.68791 2.37811 4.67162 2.55273C4.64633 2.8239 4.65184 2.85222 4.73895 2.89884C4.80643 2.93496 4.82575 2.97503 4.80587 3.03766C4.7905 3.08609 4.80118 3.15375 4.82963 3.18801C4.86794 3.23418 4.86947 3.32827 4.83552 3.55146C4.78417 3.88909 4.86687 4.67742 4.95679 4.70739C4.9843 4.71657 5.0068 4.75999 5.0068 4.80389C5.0068 4.88808 5.18173 5.02686 5.28784 5.02686C5.32227 5.02686 5.37505 4.99721 5.40513 4.96097C5.47422 4.87771 5.42667 4.67237 5.3383 4.67237C5.26091 4.67237 5.25746 4.65066 5.31714 4.53914C5.35152 4.47489 5.34279 4.44287 5.27863 4.39793C5.19194 4.33721 5.18548 4.2924 5.18403 3.74182C5.18252 3.18591 5.19014 3.11634 5.25482 3.09152C5.35276 3.05394 5.3273 2.94422 5.22064 2.94422H5.12429L5.22064 2.84166C5.32631 2.72917 5.34891 2.58994 5.26159 2.58934C5.23113 2.58917 5.28017 2.51885 5.37057 2.43316C5.48183 2.3277 5.54346 2.22402 5.56131 2.11229C5.57582 2.02149 5.60655 1.91258 5.62959 1.87026C5.65263 1.82794 5.67148 1.75317 5.67148 1.70409C5.67148 1.65502 5.68643 1.61487 5.70471 1.61487C5.72299 1.61487 5.74031 1.75944 5.7432 1.93613C5.74723 2.18321 5.7714 2.29597 5.84782 2.42448C5.90603 2.52235 5.93718 2.62988 5.92302 2.68403C5.90972 2.73488 5.91639 2.82265 5.93784 2.87907C5.96599 2.95309 5.9585 2.99689 5.91097 3.03634C5.86871 3.07141 5.84666 3.164 5.84948 3.29456C5.85189 3.40651 5.84015 3.60341 5.82337 3.73211C5.78685 4.0123 5.94052 4.63336 6.08662 4.79606C6.21779 4.94213 6.35467 4.90938 6.37218 4.72776C6.38012 4.64543 6.36552 4.58374 6.33811 4.58374C6.30922 4.58374 6.30107 4.54019 6.31762 4.47427C6.33578 4.40189 6.3202 4.33991 6.2716 4.29131C6.22861 4.24832 6.21045 4.18801 6.22784 4.14599C6.30567 3.95795 6.30251 3.91357 6.20956 3.88926C6.15787 3.87574 6.12646 3.84708 6.13975 3.82557C6.17314 3.77154 6.21222 3.6085 6.22355 3.47595C6.22876 3.41502 6.24851 3.32995 6.26745 3.28689C6.28639 3.24383 6.29154 3.15452 6.2789 3.08842C6.26401 3.01055 6.28614 2.92581 6.34176 2.8477C6.3988 2.7676 6.41834 2.69033 6.40002 2.61733C6.36653 2.48389 6.41147 2.3244 6.48314 2.32238C6.62746 2.31833 6.86788 1.92374 6.86788 1.69093C6.86788 1.6491 6.8907 1.61487 6.9186 1.61487C6.95429 1.61487 6.96127 1.70101 6.94217 1.90555C6.9221 2.12055 6.93355 2.24249 6.98615 2.37396C7.06343 2.5671 7.0435 3.09183 6.95244 3.262C6.8949 3.3695 6.87738 4.17328 6.92627 4.46189C6.96658 4.69978 7.04656 4.73469 7.1588 4.56339C7.20616 4.4911 7.22055 4.41047 7.20154 4.32389C7.18436 4.24568 7.19263 4.18116 7.22219 4.1629C7.25674 4.14154 7.24997 4.09957 7.19956 4.02263C7.13313 3.92124 7.1332 3.90435 7.20057 3.8016C7.24066 3.74041 7.26191 3.66024 7.24779 3.62344C7.23367 3.58664 7.26489 3.49646 7.31717 3.42304C7.39541 3.31316 7.40131 3.28274 7.35055 3.25106C7.30106 3.22018 7.30857 3.19872 7.38858 3.14235C7.49341 3.06851 7.52591 2.8999 7.43532 2.8999C7.40618 2.8999 7.46102 2.82628 7.55717 2.7363C7.69855 2.604 7.71716 2.56946 7.65445 2.5558C7.56148 2.53555 7.55027 2.45679 7.64035 2.45679C7.67525 2.45679 7.7464 2.39697 7.79846 2.32385C7.85052 2.25074 7.9183 2.19092 7.94908 2.19092C8.0072 2.19092 8.04125 2.13439 8.19595 1.78104C8.24664 1.66527 8.30415 1.57056 8.32376 1.57056C8.34337 1.57056 8.33269 1.70054 8.30002 1.85941C8.24456 2.12908 8.24665 2.16009 8.33153 2.32645C8.39225 2.44549 8.41611 2.55968 8.40339 2.67042C8.38313 2.84678 8.10571 3.43076 8.00084 3.5178C7.96629 3.54647 7.94677 3.617 7.95731 3.67512C7.96781 3.73306 7.95798 3.79189 7.93533 3.80586C7.85152 3.85765 7.86137 5.07161 7.94603 5.12547C8.04608 5.18911 8.1877 5.15882 8.25167 5.06009C8.2872 5.00526 8.32945 4.83216 8.34555 4.67542C8.38125 4.32792 8.44694 4.22135 8.73451 4.0444C8.90702 3.93826 8.98265 3.85371 9.06987 3.66949C9.13181 3.53868 9.20264 3.43164 9.22728 3.43164C9.28124 3.43164 9.23163 3.79366 9.17268 3.83009C9.12466 3.85978 9.10535 4.26728 9.14721 4.36754C9.16605 4.41265 9.15153 4.44922 9.10819 4.46585C9.0601 4.48431 9.03918 4.55178 9.03918 4.68839C9.03918 4.82178 9.01794 4.89259 8.97271 4.90995C8.93099 4.92596 8.90624 4.99372 8.90624 5.09193C8.90624 5.19562 8.88556 5.24841 8.84495 5.24841C8.78228 5.24841 8.73069 5.37751 8.7296 5.53701C8.72927 5.58662 8.68475 5.64561 8.6293 5.66994C8.57446 5.694 8.52319 5.75885 8.51535 5.81404C8.50751 5.86924 8.48525 5.90461 8.46588 5.89263C8.39684 5.84996 8.27719 6.04311 8.27262 6.20463C8.27005 6.29498 8.26036 6.3461 8.25107 6.31824C8.20224 6.17173 8.02001 6.33806 8.02001 6.52915C8.02001 6.58567 7.99817 6.61091 7.96144 6.59682C7.89297 6.57054 7.77817 6.78179 7.79459 6.90386C7.80082 6.95019 7.78603 6.97412 7.76081 6.95853C7.66978 6.90227 7.62278 7.13313 7.68498 7.33106C7.71346 7.42168 7.70921 7.43176 7.66164 7.38645C7.55899 7.28867 7.53688 7.32585 7.55111 7.57231C7.56084 7.74095 7.54754 7.82027 7.50691 7.83586C7.46667 7.8513 7.45633 7.91001 7.47332 8.02665C7.50086 8.21579 7.6546 8.57178 7.70874 8.57178C7.76786 8.57178 7.88921 8.2744 7.86055 8.19972C7.84227 8.15209 7.87751 8.10481 7.97089 8.05166C8.09902 7.97873 8.16323 7.81848 8.06432 7.81848C7.96717 7.81848 8.02862 7.72993 8.17347 7.6612C8.33505 7.58452 8.39518 7.48079 8.34852 7.35921C8.32782 7.30526 8.36182 7.26901 8.47903 7.22004C8.5662 7.18361 8.67805 7.15381 8.72757 7.15381C8.83572 7.15381 8.84024 7.11721 8.74833 6.98598C8.68218 6.89154 8.68551 6.88356 8.82174 6.80996C8.90022 6.76755 9.00355 6.6956 9.05135 6.65008C9.12203 6.58276 9.12694 6.56 9.07764 6.52822C8.99419 6.47441 9.09457 6.40971 9.31992 6.37206C9.48459 6.34455 9.59641 6.22438 9.49027 6.189C9.3864 6.15438 9.44188 6.10076 9.63853 6.0457C9.85969 5.98378 9.91651 5.93077 9.84179 5.85605C9.75716 5.77142 9.78534 5.74628 10.0251 5.6925C10.389 5.61089 10.3851 5.61318 10.301 5.52902C10.2317 5.45971 10.2346 5.45079 10.3468 5.39204C10.4127 5.35748 10.5022 5.33849 10.5456 5.34984C10.6328 5.37264 10.6713 5.35259 10.7617 5.23734C10.8086 5.17756 10.8106 5.14547 10.7706 5.09727C10.713 5.0279 10.734 5.00806 10.9086 4.96635C10.9742 4.95071 11.0402 4.95798 11.0553 4.9825C11.1008 5.05605 11.2663 4.94366 11.2345 4.86083C11.1989 4.76797 11.2881 4.7167 11.4345 4.74597C11.5261 4.76429 11.5733 4.74218 11.6496 4.6452C11.7238 4.55087 11.78 4.52346 11.8831 4.53131C12.0275 4.54231 12.137 4.44644 12.1396 4.30679C12.1407 4.24543 12.1803 4.2291 12.3293 4.22857C12.5494 4.22773 12.6515 4.17618 12.6161 4.08375C12.5839 3.99996 12.9015 3.94041 13.0258 4.00693C13.1783 4.08853 13.2931 4.06264 13.2931 3.94665C13.2931 3.79933 13.3829 3.73362 13.4836 3.80726C13.5912 3.88596 13.7343 3.84117 13.7828 3.71361C13.8271 3.59718 13.8985 3.58377 14.0665 3.66031C14.2036 3.7228 14.4009 3.65076 14.4009 3.5382C14.4009 3.48135 14.4273 3.47207 14.5227 3.49538C14.7404 3.54854 14.8224 3.54506 14.8095 3.48324C14.8002 3.43894 14.832 3.43171 14.9358 3.45449C15.0637 3.48258 15.072 3.47741 15.0434 3.38745C15.0158 3.30039 15.0236 3.29382 15.1166 3.32599C15.1738 3.3458 15.2904 3.36272 15.3757 3.36359C15.5122 3.36493 15.5295 3.35276 15.5196 3.26193C15.5093 3.16684 15.5198 3.16136 15.6526 3.19251C15.8976 3.24999 16.0043 3.2371 16.0569 3.14362C16.0844 3.09488 16.1135 3.04506 16.1216 3.03291C16.1297 3.02077 16.1629 3.04718 16.1953 3.09161C16.2773 3.20366 16.492 3.17474 16.5494 3.04392C16.5999 2.92878 16.7314 2.91419 16.8392 3.01175C16.9369 3.10018 17.0596 3.05025 17.0596 2.92206C17.0596 2.78818 17.1723 2.75043 17.333 2.83055C17.4908 2.90927 17.563 2.88659 17.6312 2.73691C17.6784 2.63314 17.6897 2.62909 17.759 2.69103C17.8832 2.80207 18.0061 2.80115 18.0559 2.68882C18.0846 2.62387 18.1238 2.59823 18.167 2.61608C18.3333 2.68471 18.5353 2.72699 18.5923 2.7051C18.6267 2.69192 18.6548 2.6385 18.6548 2.58638C18.6548 2.51326 18.6725 2.49907 18.7323 2.52422C18.9027 2.59583 18.9928 2.59226 19.0875 2.51015C19.1419 2.4629 19.1865 2.40208 19.1865 2.375C19.1865 2.33935 19.2174 2.33984 19.2985 2.37677C19.3834 2.41546 19.423 2.41523 19.4625 2.37577C19.491 2.34718 19.5586 2.3238 19.6127 2.3238C19.6667 2.3238 19.7185 2.301 19.7278 2.27313C19.7403 2.23561 19.7706 2.23638 19.8448 2.27608C19.9737 2.34504 20.2057 2.29686 20.2057 2.20114C20.2057 2.14401 20.2236 2.14911 20.296 2.22682C20.3987 2.337 20.4949 2.35145 20.5469 2.26448C20.6137 2.15263 20.7455 2.10966 20.879 2.1562C20.9696 2.18779 21.0234 2.18499 21.0701 2.14626C21.1071 2.11557 21.1831 2.10438 21.2464 2.12029C21.3215 2.13913 21.3579 2.12992 21.358 2.092C21.3581 2.05821 21.4241 2.03232 21.5233 2.02712C21.6142 2.02237 21.6955 1.99744 21.7041 1.97173C21.7267 1.90392 21.8256 1.91444 21.8895 1.99145C21.9511 2.06565 22.1554 2.08268 22.1554 2.01361C22.1554 1.94704 22.2413 1.96028 22.32 2.03897C22.3677 2.08661 22.4262 2.09891 22.5052 2.07788C22.7946 2.00078 22.8761 2.01091 22.9934 2.13851C23.109 2.26434 23.2806 2.35019 23.4847 2.38429C23.5457 2.39448 23.6653 2.43325 23.7506 2.47046L23.9057 2.53812L23.7728 2.54698C23.6996 2.55185 23.6199 2.5515 23.5955 2.54614C23.5711 2.54083 23.4615 2.5335 23.3518 2.52981C23.1945 2.52454 23.1356 2.54385 23.0729 2.62118C22.9633 2.75644 22.7322 2.78917 22.36 2.72215C21.9172 2.64243 21.6704 2.63784 21.5381 2.70687C21.4755 2.73956 21.3887 2.76642 21.3453 2.76657C21.3019 2.76672 21.2549 2.79676 21.2409 2.83331C21.2268 2.86987 21.1876 2.89978 21.1536 2.89978C21.0689 2.89978 21.0755 3.06123 21.1616 3.09428C21.1999 3.10899 21.2722 3.09909 21.3223 3.07229C21.3786 3.04218 21.4239 3.03964 21.441 3.06563C21.4919 3.14321 21.6877 3.16223 21.7742 3.098C21.8204 3.06365 21.8774 3.04738 21.9008 3.06183C21.9253 3.07697 21.9178 3.10424 21.8832 3.1262C21.8477 3.14867 21.8436 3.16457 21.873 3.16497C21.9005 3.1653 21.9478 3.13574 21.9782 3.09918C22.0559 3.0055 22.1001 3.01549 22.2232 3.15457C22.3138 3.25698 22.338 3.26588 22.3743 3.21035C22.4315 3.12292 22.5554 3.12468 22.665 3.21447C22.721 3.26034 22.833 3.28647 22.9693 3.28544C23.1257 3.28427 23.1963 3.3041 23.2263 3.35766C23.249 3.39828 23.307 3.43151 23.3551 3.43151C23.4068 3.43151 23.4592 3.47517 23.4831 3.53799C23.5328 3.66875 23.5483 3.67845 23.9059 3.80351C24.0642 3.85887 24.1794 3.91851 24.1619 3.93605C24.1443 3.95359 24.1622 3.95555 24.2017 3.94042C24.2411 3.92528 24.2866 3.93421 24.3026 3.96023C24.3402 4.02106 24.2149 4.02102 24.0162 3.96016C23.7068 3.86541 23.5879 3.87186 23.5006 3.98811C23.4078 4.11167 23.1902 4.13423 23.029 4.03702C22.975 4.00448 22.8518 3.97268 22.7553 3.96635C22.6587 3.96002 22.4982 3.91655 22.3986 3.86975C22.2991 3.82295 22.1388 3.78594 22.0425 3.78751C21.9462 3.78902 21.8195 3.7894 21.7611 3.78818C21.7026 3.78701 21.6328 3.80221 21.606 3.82195C21.5792 3.8417 21.4903 3.85663 21.4086 3.85514C21.2904 3.85298 21.2473 3.87699 21.1979 3.97258C21.1423 4.08005 21.1439 4.09695 21.2135 4.13262C21.3453 4.20018 21.5351 4.2332 21.5351 4.18859C21.5351 4.09342 21.7241 4.08821 21.8482 4.17994C21.9631 4.26491 21.9776 4.26658 22.0153 4.19921C22.0536 4.13068 22.0681 4.13096 22.2202 4.20314C22.373 4.27565 22.3875 4.27588 22.4382 4.20663C22.4889 4.1373 22.4965 4.13736 22.5547 4.20747C22.6491 4.32117 22.8269 4.37764 22.8721 4.30827C22.9003 4.26499 22.9293 4.27684 22.9915 4.3572C23.0552 4.43929 23.0995 4.45677 23.1879 4.43458C23.2515 4.41862 23.3148 4.42643 23.3307 4.4522C23.3464 4.47766 23.3954 4.48702 23.4395 4.47302C23.4836 4.45902 23.5468 4.47419 23.5798 4.50693C23.6128 4.53958 23.6766 4.58024 23.7216 4.59728C23.7666 4.61432 23.8135 4.66719 23.826 4.71476C23.8384 4.76242 23.9128 4.82246 23.9916 4.84845C24.1894 4.91375 24.4605 5.05528 24.4355 5.08025C24.4242 5.09161 24.2942 5.08265 24.1468 5.06033C23.9557 5.03141 23.8611 5.03443 23.8172 5.07084C23.7833 5.09894 23.6518 5.14934 23.5248 5.18282C23.3133 5.23862 23.2791 5.23648 23.1152 5.15732C23.0168 5.1098 22.9183 5.07092 22.8961 5.07092C22.874 5.07092 22.793 5.02606 22.7161 4.97122C22.6393 4.91639 22.5265 4.86892 22.4656 4.86574C22.4047 4.86256 22.1827 4.84485 21.9724 4.82638C21.762 4.80791 21.5399 4.80535 21.4788 4.8207C21.351 4.85277 21.2905 4.96769 21.3584 5.04948C21.4213 5.12527 21.6386 5.16279 21.6749 5.10412C21.6953 5.0711 21.7448 5.07362 21.8385 5.11244C21.9124 5.14305 21.9943 5.1548 22.0206 5.13855C22.0469 5.12231 22.1352 5.15029 22.2168 5.20075C22.2985 5.25121 22.4147 5.29249 22.475 5.29249C22.5354 5.29249 22.6191 5.33042 22.6611 5.37678C22.7129 5.43406 22.7773 5.45478 22.8619 5.44145C22.9603 5.42594 23.0111 5.4511 23.1039 5.56141C23.1838 5.65636 23.2485 5.69389 23.3063 5.67878C23.3713 5.66178 23.3976 5.6856 23.4184 5.7803C23.4397 5.87731 23.5072 5.93565 23.731 6.05045C23.888 6.13098 24.0165 6.21155 24.0165 6.22949C24.0165 6.30193 23.929 6.3076 23.7789 6.2449C23.5747 6.15957 23.3686 6.15971 23.3358 6.24523C23.3218 6.28179 23.2601 6.3117 23.1988 6.3117C23.0544 6.31169 22.6871 6.21353 22.6871 6.17494C22.6871 6.15858 22.6223 6.11857 22.5431 6.08603C22.4639 6.0535 22.3342 5.98307 22.2548 5.92954C22.1754 5.876 22.0757 5.83756 22.0332 5.84411C21.9908 5.85066 21.9432 5.83615 21.9275 5.81186C21.9023 5.77293 21.8083 5.76412 21.5794 5.77921C21.5428 5.78162 21.4277 5.76543 21.3236 5.74323C21.2139 5.71985 21.1241 5.71939 21.1101 5.74206C21.0967 5.76365 21.0653 5.76867 21.0403 5.75322C20.9596 5.70333 20.7818 5.83271 20.7818 5.94131C20.7818 6.05094 20.9702 6.17868 21.1319 6.17868C21.4962 6.17868 21.9461 6.42189 21.9852 6.64C21.9966 6.70391 22.0818 6.74717 22.3327 6.81641L22.665 6.90814L22.3548 6.93786C22.0343 6.96858 21.8625 6.95079 21.7689 6.87715C21.7322 6.84827 21.6894 6.85992 21.636 6.91333C21.5643 6.98503 21.5559 6.98554 21.5431 6.91894C21.5291 6.84617 21.3434 6.83654 21.2359 6.903C21.2106 6.91864 21.1794 6.90417 21.1665 6.87072C21.1519 6.83254 21.1014 6.81798 21.0306 6.83151C20.9618 6.84467 20.8903 6.82533 20.8467 6.78168C20.8006 6.73556 20.7373 6.71987 20.6678 6.73733C20.6026 6.75367 20.5602 6.74506 20.5602 6.71552C20.5602 6.68867 20.3658 6.57337 20.1282 6.45928C19.8905 6.3452 19.6802 6.22542 19.6607 6.19311C19.6412 6.16079 19.5963 6.13436 19.561 6.13436C19.5256 6.13436 19.4967 6.11442 19.4967 6.09004C19.4967 6.06567 19.4568 6.04573 19.4081 6.04573C19.3493 6.04573 19.3195 6.01619 19.3195 5.95795C19.3195 5.86548 19.1512 5.79426 19.0366 5.83824C18.9941 5.85453 18.9816 5.83673 18.9962 5.78082C19.0208 5.68681 18.8898 5.62753 18.7641 5.67577C18.7025 5.69943 18.6901 5.69009 18.7109 5.63571C18.739 5.56271 18.6457 5.4492 18.5974 5.4975C18.5826 5.51237 18.5366 5.49071 18.4952 5.44936C18.4539 5.40801 18.3838 5.38365 18.3395 5.39523C18.2937 5.4072 18.2632 5.39439 18.2686 5.36544C18.2744 5.33449 18.2175 5.31609 18.1231 5.31841C18.0378 5.32053 17.9569 5.30565 17.9433 5.2854C17.9298 5.26513 17.87 5.24865 17.8104 5.24877C17.477 5.24944 17.2648 5.27598 17.2504 5.31884C17.2414 5.34555 17.3184 5.42326 17.4216 5.49153C17.5394 5.5695 17.6154 5.59676 17.6261 5.56483C17.6529 5.48434 17.7117 5.50557 17.7378 5.60515C17.7509 5.65529 17.823 5.71948 17.898 5.7478C17.981 5.77912 18.0344 5.83064 18.0344 5.8793C18.0344 5.95849 18.2076 6.0548 18.3129 6.03414C18.3425 6.02833 18.3732 6.07919 18.381 6.14716C18.392 6.24365 18.4237 6.27646 18.5253 6.29678C18.6165 6.31503 18.6843 6.3741 18.7519 6.49445C18.8441 6.65854 18.9207 6.71629 18.9207 6.62178C18.9207 6.59741 18.9378 6.57747 18.9587 6.57747C18.9796 6.57747 19.0145 6.66014 19.0362 6.76118C19.0814 6.97133 19.2069 7.08365 19.2764 6.97627C19.3147 6.91719 19.3243 6.91719 19.3631 6.97627C19.3871 7.01283 19.407 7.07495 19.4074 7.11431C19.4084 7.22254 19.5801 7.41863 19.6502 7.39172C19.6949 7.37456 19.72 7.42291 19.7418 7.568C19.7702 7.75779 19.8622 7.86368 19.9189 7.77195C19.9739 7.68289 20.0285 7.73558 20.0285 7.87779C20.0285 8.03512 20.1718 8.21902 20.2261 8.13126C20.2984 8.01429 20.3474 8.0928 20.3192 8.28046C20.2918 8.46379 20.299 8.48363 20.4273 8.57851C20.5325 8.65629 20.5589 8.7037 20.5396 8.78038C20.5118 8.89112 20.5958 9.05892 20.679 9.05892C20.7585 9.05892 20.7997 9.14984 20.7894 9.30253C20.7775 9.48008 20.885 9.63624 20.9649 9.55742C21.0693 9.45446 21.0907 9.50112 21.0625 9.77033C21.0365 10.0196 21.0413 10.0404 21.1302 10.0637C21.246 10.0939 21.2979 10.2679 21.2334 10.4094C21.195 10.4937 21.2023 10.5271 21.2731 10.5912C21.3396 10.6514 21.3721 10.6576 21.412 10.6176C21.5054 10.5243 21.5265 10.5622 21.4809 10.7416C21.4564 10.8384 21.4493 10.9698 21.4653 11.0335C21.4895 11.1299 21.5054 11.1402 21.5601 11.0948C21.6576 11.0139 21.6802 11.0683 21.6278 11.2579C21.5973 11.3683 21.5962 11.442 21.6246 11.4703C21.6484 11.4942 21.668 11.551 21.668 11.5965C21.668 11.6581 21.6899 11.6723 21.7536 11.6521C21.8325 11.6271 21.8357 11.6375 21.795 11.7851C21.764 11.8974 21.7654 11.9629 21.7999 12.0044C21.8281 12.0384 21.8364 12.1174 21.8193 12.1897C21.7948 12.2935 21.7999 12.306 21.8484 12.2604C21.9444 12.1701 21.9744 12.1965 21.9344 12.3361C21.9137 12.4081 21.9036 12.5028 21.912 12.5465C21.9203 12.5902 21.9286 12.641 21.9305 12.6592C21.9323 12.6775 21.9737 12.6925 22.0225 12.6925C22.1238 12.6925 22.1317 12.7318 22.0612 12.8864C22.0323 12.9498 22.0241 13.0639 22.0417 13.1576C22.0671 13.2933 22.0825 13.3106 22.137 13.2655C22.2345 13.1845 22.2462 13.2295 22.1831 13.4433C22.1152 13.6733 22.1718 13.8603 22.2994 13.8281C22.3941 13.8042 22.3979 13.8443 22.3119 13.9579C22.22 14.0795 22.2288 14.2034 22.3313 14.2302C22.4135 14.2517 22.4146 14.2607 22.3501 14.3854C22.2516 14.5759 22.2414 14.6734 22.3136 14.7334C22.3627 14.7741 22.392 14.7735 22.4435 14.7308C22.498 14.6855 22.5099 14.6888 22.5099 14.7491C22.5099 14.7895 22.4807 14.8671 22.445 14.9217C22.3584 15.0538 22.4036 15.2332 22.516 15.2038C22.5792 15.1873 22.5985 15.2066 22.5985 15.2862C22.5985 15.3434 22.5786 15.4026 22.5542 15.4176C22.4879 15.4586 22.5009 15.643 22.5744 15.704C22.6099 15.7335 22.659 15.7452 22.6835 15.7301C22.712 15.7124 22.7111 15.751 22.6808 15.8378C22.6204 16.011 22.6632 16.1995 22.7549 16.1643C22.8111 16.1427 22.8142 16.1584 22.7748 16.2622C22.7185 16.4102 22.7592 16.6362 22.8421 16.6362C22.8747 16.6362 22.9097 16.6212 22.9199 16.6029C22.9301 16.5847 22.9304 16.5996 22.9206 16.6362C22.8518 16.8902 22.8539 16.9619 22.9315 17.0187C22.9932 17.0638 23.0269 17.0657 23.0741 17.0265C23.1255 16.9839 23.1307 16.9971 23.105 17.1048C23.0881 17.1761 23.0438 17.2693 23.0068 17.3119C22.9464 17.3814 22.9465 17.3895 23.0079 17.3895C23.0457 17.3895 23.0885 17.4208 23.1032 17.459C23.1205 17.504 23.16 17.519 23.2151 17.5015C23.2843 17.4795 23.2958 17.4915 23.2764 17.5656C23.2633 17.6157 23.235 17.6676 23.2136 17.6808C23.1922 17.6941 23.1746 17.7419 23.1746 17.7872C23.1746 17.8325 23.1497 17.8796 23.1193 17.8919C23.0888 17.9042 23.1287 17.9158 23.2079 17.9177C23.2871 17.9196 23.3519 17.9302 23.3519 17.9413C23.3519 17.9891 23.2392 18.2118 23.2016 18.2385C23.1783 18.2549 23.193 18.3004 23.2352 18.3426C23.2952 18.4026 23.323 18.4067 23.3753 18.3633C23.4292 18.3186 23.4405 18.3252 23.4405 18.4017C23.4405 18.4525 23.4024 18.5145 23.3559 18.5394C23.2598 18.5908 23.2778 18.7631 23.3792 18.7631C23.4528 18.7631 23.461 18.8782 23.3905 18.9217C23.3559 18.9431 23.3615 18.9644 23.4086 18.9907C23.4642 19.0219 23.4672 19.049 23.4253 19.1393C23.3971 19.2001 23.3591 19.25 23.3408 19.2502C23.3225 19.2504 23.3076 19.2788 23.3076 19.3133C23.3076 19.3479 23.2827 19.3844 23.2522 19.3946C23.2023 19.4112 23.1904 19.5071 23.1774 19.9982C23.172 20.2041 23.0549 20.0127 23.0248 19.7487C23.0006 19.5364 22.973 19.4754 22.8582 19.3802C22.7412 19.2832 22.7181 19.2301 22.7036 19.0257C22.6942 18.8935 22.6776 18.761 22.6666 18.7313C22.6557 18.7016 22.6668 18.665 22.6913 18.6498C22.7209 18.6315 22.7203 18.6036 22.6895 18.5665C22.664 18.5358 22.6235 18.4068 22.5994 18.2799C22.551 18.0245 22.3395 17.5148 22.228 17.3846C22.1886 17.3385 22.1163 17.3009 22.0673 17.3009C21.99 17.3009 21.9782 17.33 21.9782 17.5224C21.9782 17.6881 21.9947 17.744 22.0436 17.744C22.0926 17.744 22.1023 17.7773 22.0824 17.8769C22.0646 17.9657 22.0735 18.0098 22.1091 18.0098C22.1456 18.0098 22.1531 18.0527 22.1329 18.1446C22.1007 18.2913 22.1755 18.4282 22.2602 18.3775C22.2879 18.3609 22.283 18.3813 22.2493 18.4228C22.1615 18.5311 22.141 18.7631 22.2192 18.7631C22.2709 18.7631 22.2695 18.7932 22.2103 18.9438C22.1569 19.0797 22.1523 19.1326 22.1917 19.1569C22.2309 19.1812 22.2277 19.211 22.179 19.2753C22.0956 19.3856 22.0942 19.4915 22.1751 19.5586C22.2291 19.6035 22.2145 19.6377 22.0798 19.7807C21.9802 19.8865 21.9138 20.0055 21.9025 20.0987C21.8927 20.1806 21.8771 20.2974 21.868 20.3584C21.8589 20.4193 21.85 20.4881 21.8484 20.5112C21.8464 20.5378 21.8299 20.5378 21.8034 20.5112C21.7803 20.4881 21.7554 20.3595 21.748 20.2254C21.7375 20.0348 21.7152 19.9718 21.6459 19.9361C21.4597 19.8403 21.3896 19.5108 21.4672 19.0955C21.4855 18.998 21.5175 18.8859 21.5384 18.8463C21.5594 18.8068 21.5697 18.737 21.5614 18.6912C21.5531 18.6455 21.5319 18.4884 21.5143 18.3422C21.4967 18.196 21.4618 18.0514 21.4368 18.0209C21.4118 17.9905 21.4043 17.9655 21.4201 17.9655C21.4358 17.9655 21.4178 17.9057 21.38 17.8326C21.3002 17.6781 21.2657 17.6698 21.1653 17.7807C21.0838 17.8708 21.0679 18.034 21.1364 18.0764C21.1658 18.0945 21.1646 18.1342 21.1329 18.1934C21.0947 18.2648 21.1009 18.2946 21.1636 18.3404C21.2378 18.3947 21.238 18.4043 21.1671 18.5125C21.0793 18.6465 21.0705 18.7486 21.1446 18.7733C21.182 18.7857 21.1755 18.8219 21.1225 18.8976C21.0286 19.0317 21.0277 19.1154 21.1193 19.1824C21.1837 19.2294 21.1791 19.2476 21.075 19.36C20.9838 19.4584 20.97 19.4983 21.0103 19.547C21.0492 19.5938 21.0492 19.6213 21.0104 19.6601C20.9821 19.6883 20.9591 19.7644 20.9591 19.8292C20.9591 19.9038 20.8933 20.0217 20.7801 20.1504C20.6755 20.2693 20.5736 20.4466 20.5347 20.5775C20.4981 20.7007 20.4469 20.8015 20.4209 20.8015C20.3948 20.8015 20.384 20.7741 20.3969 20.7407C20.4097 20.7072 20.4343 20.5859 20.4515 20.4711C20.4776 20.2968 20.4673 20.2413 20.3886 20.1349C20.3287 20.0539 20.2944 19.9415 20.2944 19.8264C20.2944 19.6253 20.4174 19.0806 20.4813 18.9984C20.5236 18.9442 20.5455 18.1391 20.5086 17.9968C20.4843 17.9029 20.3551 17.744 20.3032 17.744C20.2486 17.744 20.0728 17.9962 20.0728 18.0745C20.0728 18.1121 20.0928 18.1428 20.1171 18.1428C20.1859 18.1428 20.1695 18.2377 20.0845 18.3316C20.0113 18.4125 20.0116 18.4196 20.0896 18.4767C20.1691 18.5348 20.1687 18.5415 20.0779 18.6884C19.9639 18.8729 19.9596 18.9399 20.0618 18.942C20.1231 18.9433 20.1138 18.9645 20.0174 19.0433C19.88 19.1559 19.8585 19.2506 19.9705 19.2506C20.0265 19.2506 20.0096 19.2855 19.9034 19.3893C19.8015 19.489 19.7742 19.5434 19.8064 19.5822C19.8594 19.6461 19.6741 19.8709 19.5684 19.8709C19.5323 19.8709 19.4901 19.9108 19.4746 19.9595C19.4592 20.0083 19.4288 20.0482 19.4072 20.0482C19.3856 20.0482 19.3548 20.118 19.3388 20.2033C19.2902 20.4619 19.2243 20.3785 19.2379 20.0756C19.2448 19.9201 19.2292 19.7656 19.2031 19.7322C19.1445 19.6573 19.1563 19.36 19.2245 19.1923C19.2524 19.1237 19.2752 19.0495 19.2752 19.0275C19.2752 19.0055 19.3172 18.9069 19.3685 18.8085C19.4198 18.7101 19.451 18.6017 19.4379 18.5675C19.4248 18.5333 19.4417 18.4005 19.4755 18.2722C19.5094 18.144 19.5262 18.0216 19.5129 18.0001C19.4997 17.9786 19.5219 17.8913 19.5623 17.8061C19.6096 17.7064 19.6255 17.6041 19.6069 17.5192C19.5909 17.4466 19.5723 17.3176 19.5656 17.2324C19.5408 16.9194 19.2253 16.7907 19.0618 17.0269C18.9427 17.1988 18.9128 17.3044 18.9652 17.3675C18.999 17.4083 18.9874 17.4292 18.9214 17.4465C18.8475 17.4658 18.8351 17.4974 18.8514 17.6247C18.8786 17.8372 18.6497 18.1132 18.4463 18.1132C18.336 18.1132 18.2966 18.1408 18.2414 18.2565C18.2039 18.3353 18.1596 18.4717 18.1431 18.5598C18.0979 18.801 18.0449 18.7907 18.0277 18.5373C18.0193 18.4131 18.0262 18.303 18.043 18.2926C18.0599 18.2822 18.0874 18.1794 18.1041 18.0642C18.1208 17.949 18.1464 17.8348 18.161 17.8104C18.2117 17.7259 18.3418 17.3226 18.3432 17.2455C18.3441 17.2028 18.3746 17.1679 18.4112 17.1679C18.4806 17.1679 18.4905 17.1372 18.4863 16.9345C18.4849 16.8671 18.5024 16.8235 18.5253 16.8377C18.5482 16.8518 18.5796 16.8272 18.5953 16.783C18.6109 16.7388 18.6755 16.6329 18.7388 16.5476C18.8556 16.3902 18.8611 16.3784 18.8709 16.2584C18.8739 16.2213 18.9263 16.1719 18.9872 16.1488C19.078 16.1142 19.098 16.0769 19.098 15.9416C19.098 15.816 19.1103 15.7889 19.1496 15.8282C19.2331 15.9116 19.3114 15.7591 19.291 15.553C19.2764 15.4055 19.2811 15.3912 19.3171 15.473C19.3668 15.5858 19.4525 15.6068 19.4525 15.5062C19.4525 15.4697 19.4724 15.4398 19.4968 15.4398C19.5212 15.4398 19.5411 15.37 19.5411 15.2847C19.5411 15.1744 19.5609 15.1296 19.6095 15.1296C19.6471 15.1296 19.6747 15.1047 19.6707 15.0742C19.649 14.9072 19.6781 14.7795 19.7331 14.8005C19.7767 14.8173 19.787 14.7878 19.7723 14.6878C19.7614 14.6134 19.7348 14.5416 19.7132 14.5282C19.6427 14.4846 19.6721 14.4206 19.7627 14.4206C19.8396 14.4206 19.8513 14.3911 19.8513 14.1972C19.8513 14.032 19.8273 13.9483 19.7592 13.8759L19.6672 13.7781L19.5588 13.911C19.4879 13.9981 19.4586 14.0778 19.474 14.1419C19.4911 14.2129 19.4701 14.2543 19.3975 14.2925C19.2683 14.3605 19.2274 14.425 19.2556 14.5157C19.2709 14.5648 19.2283 14.6196 19.1261 14.6828C18.951 14.791 18.8974 14.893 18.9697 14.9801C19.0101 15.0287 18.9877 15.0546 18.8581 15.1087C18.7039 15.1731 18.5802 15.3549 18.6328 15.4399C18.6454 15.4602 18.5945 15.4903 18.5197 15.5067C18.38 15.5374 18.2738 15.7055 18.3193 15.8241C18.3333 15.8606 18.2817 15.908 18.1833 15.9491C18.0488 16.0053 18.0288 16.0314 18.0513 16.1212C18.0733 16.2086 18.0546 16.2367 17.9436 16.2826C17.8698 16.3132 17.7595 16.3774 17.6987 16.4253C17.6083 16.4964 17.598 16.5243 17.6423 16.5776C17.6855 16.6297 17.6836 16.6511 17.6328 16.6832C17.5979 16.7053 17.5417 16.7238 17.508 16.7241C17.428 16.725 17.1483 16.8983 17.1483 16.947C17.1483 16.9677 17.1908 16.9982 17.2428 17.0147C17.317 17.0382 17.3241 17.053 17.276 17.0835C17.2423 17.1048 17.173 17.1226 17.1219 17.1229C17.0138 17.1238 16.8609 17.2745 16.9015 17.3402C16.9172 17.3656 16.8467 17.4087 16.7397 17.4393C16.5333 17.4982 16.3902 17.5974 16.4017 17.6736C16.4163 17.7703 16.3391 17.8769 16.2544 17.8769C16.1008 17.8769 16.0064 17.9546 16.0272 18.0637C16.0449 18.1566 16.0289 18.1659 15.833 18.1772C15.6099 18.19 15.4462 18.3097 15.4913 18.4271C15.5147 18.4882 15.3871 18.5399 15.2105 18.541C15.1423 18.5413 15.103 18.5759 15.0838 18.6524C15.0614 18.7416 15.0285 18.7631 14.9146 18.7631C14.7539 18.7631 14.6668 18.8304 14.6668 18.9544C14.6668 19.023 14.6436 19.0349 14.5458 19.0162C14.4055 18.9894 14.1794 19.0914 14.1794 19.1815C14.1794 19.225 14.121 19.2432 13.9817 19.2432C13.7476 19.2432 13.692 19.2706 13.692 19.3861C13.692 19.4488 13.6613 19.4721 13.579 19.4721C13.4425 19.4721 13.2045 19.5886 13.2045 19.6554C13.2045 19.6865 13.149 19.6931 13.0475 19.6741C12.827 19.6327 12.7061 19.6779 12.7413 19.7886C12.7666 19.8683 12.7545 19.8736 12.6105 19.8466C12.4106 19.8091 12.2297 19.8527 12.2297 19.9382C12.2297 20.0129 12.1284 20.0239 12.0124 19.9618C11.8941 19.8985 11.7345 19.9538 11.7643 20.0478C11.7865 20.1176 11.7701 20.1207 11.5927 20.0801C11.3584 20.0265 11.2443 20.0578 11.2853 20.1645C11.3065 20.22 11.2985 20.2302 11.2549 20.2033C11.1417 20.1333 10.7802 20.1281 10.7542 20.1961C10.7312 20.2557 10.5059 20.2607 10.4134 20.2036C10.3466 20.1622 10.2357 20.2334 10.2357 20.3177C10.2357 20.3849 10.2169 20.3935 10.136 20.3638C9.97416 20.3042 9.71524 20.3546 9.69016 20.4506C9.67082 20.5245 9.65184 20.5283 9.52363 20.4836C9.39047 20.4372 9.37053 20.4429 9.27367 20.5555C9.20062 20.6404 9.14061 20.6706 9.07756 20.6541C9.02759 20.6411 8.91817 20.6689 8.83439 20.7159C8.75062 20.763 8.62449 20.8015 8.55411 20.8015C8.37759 20.8015 8.28597 20.8429 8.28597 20.9228C8.28597 20.9751 8.25134 20.9847 8.13255 20.9654C8.01739 20.9467 7.94213 20.9656 7.83073 21.0412C7.71848 21.1174 7.65713 21.1326 7.57892 21.1037C7.43858 21.0518 7.31111 21.0992 7.31111 21.2033C7.31111 21.3013 7.30818 21.3023 7.16998 21.2502C7.03454 21.1992 6.85018 21.2672 6.88413 21.3556C6.91557 21.4376 6.90834 21.4376 6.75121 21.3556C6.5822 21.2675 6.52494 21.2718 6.45891 21.3775C6.39404 21.4814 6.35406 21.4888 6.30523 21.4061L6.30506 21.4064ZM21.6088 19.0071C21.6088 18.9705 21.5922 18.9406 21.5719 18.9406C21.5516 18.9406 21.535 18.9705 21.535 19.0071C21.535 19.0436 21.5516 19.0735 21.5719 19.0735C21.5922 19.0735 21.6088 19.0436 21.6088 19.0071ZM11.7421 14.46C11.7421 14.4314 11.7879 14.4192 11.8507 14.4312C11.9605 14.4522 12.0443 14.3599 11.9617 14.3088C11.8954 14.2678 11.9121 14.1993 11.9884 14.1993C12.0264 14.1993 12.0465 14.2171 12.033 14.2389C11.9879 14.3119 12.1586 14.3399 12.2111 14.2681C12.2388 14.2303 12.2942 14.1993 12.3341 14.1993C12.3741 14.1993 12.4068 14.1695 12.4068 14.1331C12.4068 14.0836 12.4447 14.0717 12.5565 14.086C12.6765 14.1014 12.7051 14.0904 12.7005 14.0304C12.697 13.9843 12.733 13.9502 12.7945 13.9414C12.8493 13.9336 12.8942 13.9065 12.8942 13.8812C12.8942 13.8545 12.9397 13.8466 13.0023 13.8623C13.0617 13.8772 13.1227 13.8694 13.1378 13.8449C13.1529 13.8205 13.1442 13.8005 13.1184 13.8005C13.0926 13.8005 13.0714 13.7717 13.0714 13.7366C13.0714 13.6815 13.0877 13.6812 13.1913 13.7349C13.3352 13.8096 13.375 13.7875 13.2757 13.6882C13.236 13.6485 13.215 13.5976 13.229 13.575C13.2429 13.5524 13.2853 13.5649 13.3231 13.6027C13.3981 13.6777 13.4924 13.6686 13.4924 13.5863C13.4924 13.5578 13.5123 13.5396 13.5367 13.5457C13.5611 13.5518 13.5783 13.5817 13.5749 13.6121C13.5715 13.6426 13.5864 13.6675 13.6081 13.6675C13.6298 13.6675 13.6475 13.6382 13.6475 13.6024C13.6475 13.5626 13.6735 13.5473 13.7143 13.563C13.7602 13.5806 13.7788 13.5629 13.7737 13.5062C13.7598 13.3501 13.7806 13.2781 13.847 13.2526C13.9034 13.231 13.9024 13.2442 13.841 13.3379C13.8011 13.3989 13.7806 13.4609 13.7955 13.4758C13.8105 13.4907 13.8352 13.4702 13.8506 13.4301C13.87 13.3796 13.9347 13.3564 14.0621 13.3542C14.2053 13.3518 14.2262 13.3427 14.1571 13.313C14.0728 13.2768 14.0734 13.2748 14.1691 13.2718C14.2316 13.2699 14.2889 13.2267 14.3202 13.1579C14.348 13.097 14.4024 13.0475 14.4411 13.0478C14.5018 13.0485 14.5025 13.0542 14.4464 13.0897C14.352 13.1494 14.4026 13.1762 14.5546 13.147C14.6701 13.1248 14.6755 13.1175 14.599 13.0875C14.5302 13.0607 14.5436 13.0527 14.6615 13.0503C14.7941 13.0475 14.9766 12.92 14.9769 12.8299C14.977 12.8153 15.0373 12.8013 15.111 12.7987C15.2735 12.7929 15.3295 12.7466 15.2414 12.6909C15.1951 12.6617 15.1927 12.6495 15.233 12.649C15.2642 12.6487 15.3025 12.6815 15.318 12.7219C15.3422 12.7849 15.3514 12.7817 15.3817 12.6998C15.4128 12.6155 15.5215 12.5762 15.6567 12.6002C15.6773 12.6038 15.6848 12.5813 15.6734 12.55C15.6619 12.5188 15.6252 12.4997 15.5917 12.5075C15.5458 12.5182 15.5433 12.509 15.5814 12.4702C15.6199 12.4309 15.6557 12.4313 15.731 12.4715C15.8096 12.5136 15.8375 12.5125 15.8662 12.466C15.8864 12.4332 15.8812 12.3821 15.8542 12.3496C15.8278 12.3177 15.82 12.2777 15.837 12.2608C15.854 12.2438 15.8823 12.2532 15.8999 12.2816C15.9209 12.3156 15.9543 12.3192 15.9972 12.2921C16.0838 12.2373 16.1855 12.2381 16.1514 12.2933C16.1357 12.3187 16.1541 12.3257 16.195 12.31C16.2339 12.295 16.2556 12.2727 16.2432 12.2603C16.2308 12.248 16.2408 12.2003 16.2653 12.1544C16.2993 12.0909 16.2936 12.0646 16.2416 12.0447C16.1166 11.9967 16.1646 11.9056 16.3062 11.9221C16.4449 11.9382 16.4736 11.9029 16.3898 11.8191C16.3326 11.7618 16.3771 11.666 16.4535 11.682C16.5319 11.6984 16.7526 11.5373 16.7212 11.4866C16.7045 11.4595 16.6776 11.4656 16.6518 11.5025C16.6177 11.5512 16.6131 11.55 16.6279 11.4962C16.6393 11.4551 16.6876 11.4347 16.7547 11.4427C16.8369 11.4526 16.8647 11.4338 16.8699 11.3652C16.8737 11.3154 16.858 11.2746 16.8352 11.2746C16.7557 11.2746 16.7942 11.1519 16.8807 11.1293C16.9406 11.1136 16.9763 11.1335 16.9952 11.193C17.0249 11.2865 17.1259 11.282 17.1259 11.1872C17.1259 11.1298 17.0979 11.1097 16.8822 11.0119C16.8213 10.9843 16.8047 10.971 16.8453 10.9824C16.912 11.0012 16.9787 10.923 16.9892 10.8138C16.9913 10.7919 17.0329 10.7584 17.0816 10.7394C17.1529 10.7116 17.1556 10.7042 17.0953 10.7017C17.0114 10.6982 16.9465 10.6195 16.991 10.5751C17.0069 10.5591 17.0378 10.5749 17.0595 10.61C17.0922 10.663 17.1046 10.6594 17.1315 10.5892C17.152 10.5359 17.1435 10.4977 17.1087 10.486C17.0719 10.4738 17.0841 10.446 17.145 10.4033C17.1955 10.368 17.2367 10.3074 17.2367 10.2686C17.2367 10.2169 17.2079 10.2293 17.1285 10.315C16.9821 10.473 16.8755 10.4334 16.9306 10.2415C16.9527 10.1642 16.9709 10.0959 16.9709 10.0896C16.9709 10.0834 17.0008 10.0782 17.0373 10.0782C17.1444 10.0782 17.1137 10.0017 16.9946 9.9718C16.9213 9.95342 16.8937 9.92265 16.9107 9.87837C16.9246 9.84206 16.9188 9.81236 16.8976 9.81236C16.8765 9.81236 16.8313 9.76749 16.7972 9.71266C16.7419 9.62387 16.7425 9.61912 16.8032 9.66928C16.8604 9.7165 16.8753 9.71057 16.8957 9.63255C16.9139 9.56314 16.9034 9.54588 16.8545 9.56464C16.814 9.58018 16.8005 9.57117 16.8191 9.54103C16.8357 9.51421 16.8247 9.4771 16.7947 9.45855C16.7517 9.43196 16.7516 9.40347 16.7942 9.32385C16.841 9.23648 16.8386 9.22658 16.7766 9.25035C16.6865 9.28494 16.6867 9.26119 16.7775 9.12259C16.8623 8.99311 16.8348 8.93554 16.7356 9.0348C16.6445 9.12591 16.4647 9.12752 16.4995 9.03691C16.5148 8.99687 16.4996 8.97044 16.4615 8.97044C16.4087 8.97044 16.2741 8.79634 16.2987 8.75996C16.3262 8.71935 16.2979 8.61595 16.2593 8.61595C16.2335 8.61595 16.2247 8.63589 16.2397 8.66026C16.2548 8.68463 16.2472 8.70457 16.2228 8.70457C16.1587 8.70457 16.1105 8.61106 16.1574 8.57776C16.1793 8.5622 16.2221 8.48966 16.2524 8.41655C16.3031 8.2946 16.3021 8.29072 16.2404 8.36962C16.2035 8.41693 16.1733 8.47177 16.1733 8.49148C16.1733 8.51119 16.1134 8.52732 16.0403 8.52732C15.9517 8.52732 15.9074 8.50517 15.9074 8.46086C15.9074 8.4243 15.923 8.39439 15.9421 8.39439C15.9807 8.39439 15.9811 8.18749 15.9426 8.14893C15.9291 8.13543 15.9046 8.17806 15.8881 8.24364C15.865 8.33563 15.8462 8.35088 15.8056 8.31033C15.7651 8.26978 15.7682 8.24821 15.8192 8.21598C15.8555 8.19299 15.8653 8.17386 15.8409 8.17345C15.776 8.17245 15.5529 7.97137 15.5529 7.91395C15.5529 7.83835 15.3936 7.59366 15.3637 7.62348C15.3492 7.63798 15.3476 7.61093 15.36 7.56335C15.3878 7.45711 15.1855 7.20005 15.1365 7.27933C15.1189 7.3077 15.1207 7.3309 15.1404 7.33089C15.1686 7.33087 15.1776 7.62491 15.157 7.87634C15.1554 7.89606 15.1292 7.89812 15.0987 7.88091C15.0544 7.8559 15.0544 7.86158 15.0987 7.90932C15.1651 7.98088 15.1719 8.15663 15.1096 8.19508C15.0852 8.2102 15.0774 8.2712 15.0923 8.33063C15.1096 8.39964 15.1004 8.43869 15.0669 8.43869C15.0346 8.43869 15.0192 8.49439 15.0269 8.58335C15.0409 8.74693 14.9933 8.8529 14.9248 8.81053C14.8951 8.79221 14.9001 8.76858 14.9389 8.74402C14.9877 8.7131 14.9863 8.70579 14.9316 8.70524C14.8944 8.70491 14.8254 8.77647 14.778 8.86436C14.7307 8.95224 14.6844 9.00146 14.6752 8.97372C14.6659 8.94598 14.692 8.87194 14.7331 8.80919C14.832 8.65822 14.7523 8.56413 14.6497 8.71069C14.6103 8.76691 14.5781 8.78853 14.5781 8.75874C14.5781 8.72894 14.5587 8.70457 14.5351 8.70457C14.5115 8.70457 14.505 8.73775 14.5205 8.7783C14.5395 8.82788 14.5318 8.84154 14.497 8.82C14.4685 8.80238 14.4451 8.80908 14.4451 8.83489C14.4451 8.9006 14.3244 8.89369 14.2972 8.82643C14.2831 8.79145 14.2736 8.79787 14.2714 8.84384C14.267 8.93541 14.3738 8.97979 14.4397 8.91381C14.4765 8.87706 14.4894 8.88825 14.4894 8.95666C14.4894 9.00756 14.4645 9.04829 14.4341 9.04716C14.2695 9.04105 14.2155 9.0628 14.2396 9.12553C14.2742 9.2158 14.2245 9.20948 14.1523 9.11445C14.0711 9.00739 14.0765 8.96824 14.1682 9.0005C14.226 9.02086 14.2335 9.01452 14.1977 8.9755C14.1323 8.90413 13.99 8.96376 14.0226 9.04889C14.0419 9.09913 14.0342 9.10419 13.992 9.06909C13.9362 9.02283 13.9113 9.01474 13.8248 9.01474C13.8004 9.01474 13.7805 8.99363 13.7805 8.96782C13.7805 8.94201 13.8002 8.93307 13.8243 8.94796C13.8493 8.96347 13.8568 8.94575 13.8418 8.90652C13.8273 8.86884 13.7975 8.84913 13.7755 8.86272C13.7535 8.8763 13.7236 8.85625 13.7089 8.81815C13.6943 8.78005 13.6615 8.74887 13.6359 8.74887C13.6104 8.74887 13.6256 8.78875 13.6697 8.8375C13.7138 8.88624 13.7342 8.92612 13.7149 8.92612C13.6708 8.92612 13.4704 8.69534 13.4703 8.64443C13.4703 8.62355 13.4404 8.61794 13.4038 8.63196C13.3293 8.66053 13.3099 8.54948 13.3817 8.50515C13.406 8.4901 13.4253 8.45402 13.4246 8.42499C13.4237 8.39597 13.3952 8.40911 13.361 8.4542C13.2937 8.54308 13.1839 8.51174 13.2213 8.4143C13.2363 8.37519 13.2213 8.36338 13.1777 8.38009C13.1295 8.39859 13.1191 8.44153 13.1399 8.53615C13.1556 8.60795 13.1678 8.76387 13.1669 8.88265C13.1657 9.04426 13.18 9.09294 13.2239 9.07607C13.2642 9.06062 13.2885 9.10331 13.3012 9.21197C13.3215 9.38589 13.3042 9.43186 13.2044 9.46987C13.1585 9.48735 13.1673 9.49625 13.2329 9.49867C13.2851 9.50059 13.3394 9.53232 13.3536 9.56918C13.3736 9.62137 13.3557 9.63028 13.2728 9.60946C13.1826 9.58682 13.1698 9.5963 13.1895 9.67135C13.2074 9.73996 13.1767 9.77703 13.0534 9.83552C12.9659 9.87707 12.8942 9.92991 12.8942 9.95294C12.8942 9.97598 12.9172 9.98059 12.9454 9.96321C12.9784 9.94283 12.9845 9.95115 12.9625 9.98661C12.9438 10.0169 12.8909 10.0318 12.8449 10.0198C12.7922 10.006 12.7613 10.0209 12.7613 10.0602C12.7613 10.0945 12.7364 10.1228 12.7059 10.1232C12.6676 10.1237 12.6656 10.134 12.6992 10.1564C12.726 10.1743 12.7476 10.2209 12.7472 10.2598C12.7467 10.3134 12.708 10.3279 12.5877 10.3197C12.4465 10.31 12.44 10.314 12.5287 10.3554C12.6552 10.4145 12.6553 10.4625 12.5288 10.5026C12.3991 10.5438 12.3291 10.6431 12.3427 10.7666C12.3538 10.8682 12.1832 10.9911 12.0609 10.9696C12.0272 10.9637 12.0086 10.9927 12.0166 11.0391C12.0248 11.0876 11.9909 11.1361 11.9295 11.1633C11.865 11.1918 11.8332 11.2397 11.8409 11.2966C11.8492 11.3578 11.8289 11.3835 11.7758 11.3793C11.732 11.3759 11.7113 11.3935 11.7277 11.4201C11.7457 11.4491 11.7291 11.4564 11.6842 11.4391C11.6429 11.4233 11.5792 11.4439 11.5361 11.487C11.4945 11.5286 11.449 11.5597 11.4351 11.556C11.4212 11.5524 11.4153 11.5688 11.422 11.5925C11.4287 11.6163 11.4151 11.6239 11.3918 11.6095C11.3685 11.5952 11.3375 11.6028 11.3228 11.6265C11.3082 11.6502 11.2667 11.6582 11.2306 11.6444C11.1826 11.626 11.173 11.64 11.1948 11.6967C11.2159 11.7517 11.2064 11.7678 11.1621 11.7523C11.1277 11.7402 11.1027 11.6955 11.1065 11.6529C11.1113 11.5998 11.0991 11.5897 11.0679 11.6209C11.0428 11.646 10.9899 11.6542 10.9502 11.6392C10.888 11.6157 10.8888 11.6228 10.9556 11.6902C11.038 11.7733 11.0594 11.8278 10.9937 11.7872C10.972 11.7738 10.9212 11.8131 10.8809 11.8746C10.8405 11.9364 10.7857 11.9729 10.7586 11.9561C10.726 11.936 10.737 11.9057 10.7912 11.8661C10.8785 11.8022 10.8623 11.7897 10.7487 11.8333C10.7102 11.8481 10.6786 11.8936 10.6786 11.9345C10.6786 11.9794 10.6434 12.0089 10.59 12.0089C10.5413 12.0089 10.5014 11.9933 10.5014 11.9741C10.5014 11.9081 10.4339 11.9395 10.3758 12.0326C10.3438 12.0839 10.3376 12.1134 10.3621 12.0983C10.3866 12.0832 10.4192 12.0911 10.4345 12.1158C10.4701 12.1735 10.3868 12.1738 10.2796 12.1165C10.2241 12.0868 10.1875 12.0868 10.1691 12.1165C10.154 12.1409 10.1628 12.1609 10.1886 12.1609C10.2144 12.1609 10.2355 12.1819 10.2355 12.2074C10.2355 12.2365 10.2097 12.2395 10.1667 12.2155C10.0635 12.1577 9.82652 12.2034 9.85428 12.2757C9.88198 12.3479 9.80993 12.4024 9.7707 12.3389C9.72848 12.2706 9.64661 12.2851 9.67383 12.356C9.71274 12.4574 9.65701 12.4715 9.53467 12.3914C9.42688 12.3208 9.42175 12.3208 9.44887 12.3914C9.46954 12.4453 9.45954 12.4596 9.4135 12.442C9.37819 12.4284 9.34929 12.4377 9.34929 12.4627C9.34929 12.4876 9.37422 12.5172 9.40468 12.5283C9.44711 12.5439 9.44792 12.5616 9.40815 12.6039C9.35307 12.6625 9.37856 12.7958 9.43783 12.7592C9.45705 12.7473 9.48554 12.7884 9.50113 12.8506C9.52203 12.9338 9.55038 12.9569 9.60887 12.9384C9.66375 12.921 9.70678 12.9478 9.74827 13.0253C9.79186 13.1068 9.81806 13.1221 9.84398 13.0812C9.8699 13.0404 9.87986 13.0462 9.88035 13.1026C9.88069 13.1452 9.91094 13.1801 9.9475 13.1801C9.98406 13.1801 10.014 13.1562 10.014 13.1269C10.014 13.0856 10.0258 13.0856 10.0671 13.1269C10.1478 13.2076 10.2107 13.1905 10.1413 13.1068C10.0847 13.0387 10.0903 13.0386 10.2196 13.1054C10.358 13.177 10.3592 13.1766 10.4116 13.05C10.4601 12.9329 10.4758 12.9258 10.6045 12.9627C10.7797 13.013 10.7673 13.0151 10.7673 12.9344C10.7673 12.8968 10.7922 12.8693 10.8227 12.8732C10.9382 12.8882 10.9888 12.8678 10.9888 12.8062C10.9888 12.7698 11.0268 12.7454 11.0774 12.7492C11.1262 12.7528 11.1661 12.7723 11.1661 12.7923C11.1661 12.8382 11.2935 12.7699 11.4098 12.6618C11.4585 12.6164 11.5333 12.5864 11.576 12.595C11.6221 12.6042 11.6535 12.5838 11.6535 12.5444C11.6535 12.4937 11.6994 12.4813 11.8505 12.4915C12.0228 12.5032 12.0492 12.493 12.061 12.4104C12.0716 12.3363 12.1102 12.3131 12.2406 12.3023C12.332 12.2947 12.4068 12.2731 12.4068 12.2543C12.4068 12.2354 12.4367 12.22 12.4733 12.22C12.5098 12.22 12.5397 12.2378 12.5397 12.2596C12.5397 12.2813 12.5597 12.2868 12.584 12.2717C12.6084 12.2567 12.6283 12.2688 12.6283 12.2986C12.6283 12.3285 12.6399 12.3414 12.6541 12.3272C12.6683 12.3131 12.6576 12.2599 12.6304 12.2091C12.5922 12.1378 12.5939 12.1159 12.6379 12.1133C12.7895 12.1046 12.9184 12.0641 12.984 12.0048C13.0724 11.9248 13.1452 11.921 13.1752 11.9948C13.193 12.0386 13.2057 12.0388 13.2365 11.9954C13.2668 11.9527 13.2953 11.9548 13.3673 12.0052C13.4746 12.0804 13.5371 12.2997 13.4407 12.2627C13.4008 12.2474 13.3894 12.2626 13.4067 12.3077C13.4293 12.3664 13.2911 12.5597 13.2266 12.5597C13.1808 12.5597 13.0356 12.7307 13.0604 12.7555C13.0849 12.78 12.9854 12.7983 12.858 12.7927C12.8259 12.7914 12.8096 12.8001 12.8218 12.8123C12.834 12.8245 12.7807 12.8962 12.7035 12.9717C12.6187 13.0546 12.595 13.0968 12.6437 13.0781C12.6983 13.0571 12.7184 13.065 12.7059 13.1025C12.6957 13.133 12.6392 13.1579 12.5803 13.1579C12.4477 13.1579 12.3658 13.2257 12.3977 13.309C12.4115 13.3448 12.4024 13.3599 12.3767 13.344C12.3291 13.3146 12.1409 13.4657 12.1409 13.5334C12.1409 13.5552 12.0861 13.5793 12.0191 13.587C11.952 13.5947 11.902 13.6253 11.9078 13.6549C11.9135 13.6844 11.8912 13.6983 11.8581 13.6855C11.8033 13.6645 11.7306 13.7642 11.7544 13.8278C11.7598 13.8424 11.695 13.887 11.6104 13.9271C11.5258 13.9671 11.4314 14.0497 11.4006 14.1106C11.3698 14.1716 11.3443 14.1971 11.344 14.1674C11.3436 14.1377 11.3164 14.1238 11.2835 14.1364C11.2076 14.1655 11.2118 14.4028 11.2879 14.3876C11.3184 14.3815 11.3433 14.3922 11.3433 14.4114C11.3433 14.4306 11.3832 14.4493 11.4319 14.453C11.4807 14.4566 11.5206 14.4409 11.5206 14.4181C11.5206 14.3952 11.5598 14.3765 11.6078 14.3765C11.6671 14.3765 11.6869 14.3978 11.6695 14.443C11.6555 14.4795 11.6661 14.5095 11.6931 14.5095C11.72 14.5095 11.7421 14.4872 11.7421 14.46ZM12.1409 14.1106C12.1409 14.0863 12.1608 14.0663 12.1852 14.0663C12.2096 14.0663 12.2295 14.0863 12.2295 14.1106C12.2295 14.135 12.2096 14.1549 12.1852 14.1549C12.1608 14.1549 12.1409 14.135 12.1409 14.1106ZM12.6283 13.8448C12.6283 13.8204 12.6594 13.8005 12.6974 13.8005C12.7354 13.8005 12.7542 13.8204 12.7391 13.8448C12.7241 13.8691 12.693 13.8891 12.67 13.8891C12.6471 13.8891 12.6283 13.8691 12.6283 13.8448ZM14.5563 12.9578C14.5716 12.933 14.6027 12.9243 14.6254 12.9383C14.6869 12.9763 14.6754 13.0028 14.5976 13.0028C14.5596 13.0028 14.541 12.9826 14.5563 12.9578ZM15.6637 12.3382C15.6486 12.3138 15.6574 12.2939 15.6832 12.2939C15.709 12.2939 15.7301 12.3138 15.7301 12.3382C15.7301 12.3625 15.7213 12.3825 15.7106 12.3825C15.6998 12.3825 15.6787 12.3625 15.6637 12.3382ZM14.1 10.7703C13.9304 10.6028 13.9133 10.4412 14.0393 10.1982C14.1059 10.0698 14.172 9.99442 14.2064 10.0076C14.242 10.0213 14.2541 10.0054 14.2387 9.96525C14.2235 9.9256 14.2413 9.90104 14.2853 9.90104C14.3244 9.90104 14.3565 9.87976 14.3565 9.85374C14.3565 9.82661 14.3943 9.81844 14.4451 9.83457C14.5098 9.8551 14.5337 9.84255 14.5337 9.78808C14.5337 9.73528 14.5596 9.72023 14.6223 9.73664C14.6711 9.74938 14.711 9.74436 14.711 9.72547C14.711 9.70657 14.7708 9.69808 14.8439 9.70659C14.9407 9.71786 14.9768 9.70354 14.9768 9.65385C14.9768 9.61006 14.9967 9.59823 15.0322 9.62081C15.0958 9.66118 15.0765 9.65581 15.3164 9.69995C15.5068 9.73498 15.5523 9.79406 15.5737 10.034C15.5837 10.1456 15.48 10.3852 15.3978 10.4404C15.3734 10.4568 15.2737 10.5415 15.1762 10.6287C15.0788 10.7159 14.9691 10.7887 14.9325 10.7906C14.896 10.7925 14.8262 10.8028 14.7774 10.8134C14.548 10.8636 14.424 10.8678 14.3492 10.8277C14.2946 10.7985 14.2679 10.7993 14.2679 10.83C14.2679 10.9005 14.2114 10.8804 14.1 10.7703ZM14.8882 10.5292C15.1154 10.4468 15.3012 10.2524 15.3213 10.076C15.3326 9.97713 15.3132 9.94976 15.2113 9.9212C15.1433 9.90212 15.0718 9.89007 15.0524 9.89443C15.033 9.89879 14.9632 9.90442 14.8973 9.90691C14.7329 9.91316 14.3143 10.1254 14.2572 10.2315C14.1273 10.4732 14.2567 10.6628 14.5257 10.6246C14.6154 10.6119 14.7785 10.5689 14.8882 10.5292ZM14.434 10.4465C14.3174 10.4161 14.3391 10.3673 14.5226 10.2472C14.7455 10.1014 14.8431 10.0616 14.9879 10.057C15.2322 10.0493 15.0539 10.2994 14.739 10.4063C14.6244 10.4453 14.5263 10.4748 14.5211 10.472C14.5159 10.4691 14.4767 10.4577 14.434 10.4465ZM16.5545 9.34315C16.5119 9.23222 16.5739 9.17791 16.6414 9.26695C16.7197 9.37025 16.7202 9.41362 16.6433 9.41362C16.6093 9.41362 16.5694 9.3819 16.5545 9.34315ZM15.0876 8.52738C15.0726 8.50301 15.0814 8.48307 15.1072 8.48307C15.133 8.48307 15.1541 8.50301 15.1541 8.52738C15.1541 8.55176 15.1453 8.5717 15.1345 8.5717C15.1238 8.5717 15.1027 8.55176 15.0876 8.52738ZM11.5739 13.7841C11.6088 13.7295 11.3114 13.566 11.2481 13.6051C11.2266 13.6184 11.2435 13.6877 11.2857 13.7592C11.344 13.858 11.3839 13.8823 11.4525 13.8609C11.5021 13.8455 11.5567 13.8109 11.5739 13.7841ZM13.5146 13.8005C13.5406 13.7517 13.552 13.7118 13.5398 13.7118C13.5276 13.7118 13.4963 13.7517 13.4702 13.8005C13.4442 13.8492 13.4328 13.8891 13.445 13.8891C13.4572 13.8891 13.4885 13.8492 13.5146 13.8005ZM10.4783 13.457C10.4176 13.2802 10.332 13.234 10.2037 13.3087C10.1603 13.334 10.1497 13.3553 10.1801 13.356C10.2106 13.3567 10.2355 13.3791 10.2355 13.4056C10.2355 13.4641 10.4151 13.6197 10.4851 13.6217C10.5212 13.6227 10.5193 13.5766 10.4783 13.457ZM12.0274 13.449C12.1023 13.3663 12.0988 13.3603 11.9253 13.2717C11.7101 13.162 11.6978 13.1607 11.6978 13.2486C11.6978 13.3078 11.884 13.5346 11.9326 13.5346C11.9421 13.5346 11.9848 13.4961 12.0274 13.449ZM10.9888 13.3573C10.9627 13.3086 10.9527 13.2687 10.9666 13.2687C10.9805 13.2687 10.9706 13.2288 10.9445 13.1801C10.8862 13.0713 10.7229 13.061 10.7229 13.1662C10.7229 13.2576 10.8932 13.446 10.9759 13.446C11.0225 13.446 11.0254 13.4258 10.9888 13.3573ZM11.5649 13.1822C11.5649 13.1168 11.4607 12.8955 11.4147 12.8629C11.3416 12.8113 11.2547 12.8765 11.2547 12.9829C11.2547 13.0399 11.299 13.1175 11.3532 13.1554C11.4639 13.233 11.5649 13.2458 11.5649 13.1822ZM12.4208 13.1163C12.5173 13.0431 12.5229 13.0032 12.4438 12.9531C12.3686 12.9054 12.1409 12.9027 12.1409 12.9495C12.1409 12.9916 12.2864 13.1793 12.3181 13.1781C12.3303 13.1776 12.3765 13.1498 12.4208 13.1163ZM9.65946 13.0472C9.65946 13.0228 9.65066 13.0029 9.63992 13.0029C9.62916 13.0029 9.60805 13.0228 9.59299 13.0472C9.57793 13.0715 9.58672 13.0915 9.61253 13.0915C9.63834 13.0915 9.65946 13.0715 9.65946 13.0472ZM11.2104 12.9416C11.2104 12.9322 11.1705 12.9141 11.1217 12.9014C11.0729 12.8886 11.0442 12.8963 11.0578 12.9184C11.0817 12.957 11.2104 12.9765 11.2104 12.9416ZM11.9754 12.8588C11.9385 12.707 11.8274 12.596 11.7645 12.6481C11.7355 12.6722 11.7007 12.6808 11.6871 12.6672C11.6735 12.6536 11.6489 12.6642 11.6325 12.6908C11.616 12.7174 11.619 12.734 11.6391 12.7277C11.6592 12.7214 11.7296 12.7708 11.7955 12.8374C11.941 12.9846 12.0079 12.9925 11.9754 12.8588ZM12.4511 12.6125C12.4511 12.5441 12.4238 12.4507 12.3905 12.4051C12.332 12.3252 12.3279 12.3259 12.2759 12.423C12.2295 12.5097 12.2359 12.5387 12.3221 12.6304C12.4477 12.7641 12.4511 12.7636 12.4511 12.6125ZM12.9337 12.6458C12.992 12.5972 13.0242 12.5431 13.0052 12.5254C12.9862 12.5077 12.9617 12.5183 12.9508 12.549C12.9363 12.5894 12.8955 12.5795 12.8016 12.5126C12.6925 12.4349 12.6683 12.4309 12.6469 12.4867C12.6153 12.569 12.7013 12.7375 12.7739 12.7355C12.8035 12.7347 12.8754 12.6943 12.9337 12.6458ZM13.2221 12.3936C13.1944 12.2746 13.0935 12.1609 13.0156 12.1609C12.9353 12.1609 13.009 12.3621 13.1047 12.4041C13.1595 12.4281 13.2044 12.463 13.2044 12.4816C13.2044 12.5002 13.2147 12.5154 13.2274 12.5154C13.24 12.5154 13.2376 12.4606 13.2221 12.3936ZM16.8158 11.6292C16.8308 11.6048 16.822 11.5849 16.7962 11.5849C16.7704 11.5849 16.7493 11.6048 16.7493 11.6292C16.7493 11.6536 16.7581 11.6735 16.7688 11.6735C16.7796 11.6735 16.8007 11.6536 16.8158 11.6292ZM11.3489 11.463C11.4052 11.3913 11.4031 11.3904 11.3211 11.4505C11.2724 11.4862 11.2242 11.5211 11.2141 11.528C11.2039 11.5349 11.2164 11.5406 11.2419 11.5406C11.2673 11.5406 11.3155 11.5057 11.3489 11.463ZM17.0152 11.3633C17.0152 11.339 16.9952 11.319 16.9709 11.319C16.9465 11.319 16.9265 11.339 16.9265 11.3633C16.9265 11.3877 16.9465 11.4076 16.9709 11.4076C16.9952 11.4076 17.0152 11.3877 17.0152 11.3633ZM12.0744 10.8759C12.0895 10.8515 12.0819 10.8316 12.0575 10.8316C12.0331 10.8316 12.0009 10.8515 11.9858 10.8759C11.9708 10.9003 11.9784 10.9202 12.0027 10.9202C12.0271 10.9202 12.0594 10.9003 12.0744 10.8759ZM17.2227 10.8233C17.2085 10.7879 17.198 10.7984 17.1959 10.85C17.194 10.8968 17.2045 10.9229 17.2192 10.9082C17.2339 10.8935 17.2355 10.8553 17.2227 10.8233ZM17.281 10.6517C17.281 10.6288 17.2611 10.61 17.2367 10.61C17.2124 10.61 17.1924 10.6411 17.1924 10.6791C17.1924 10.7171 17.2124 10.7359 17.2367 10.7208C17.2611 10.7058 17.281 10.6747 17.281 10.6517ZM17.3254 10.4576C17.3254 10.4468 17.3054 10.4257 17.281 10.4106C17.2567 10.3956 17.2367 10.4044 17.2367 10.4302C17.2367 10.456 17.2567 10.4771 17.281 10.4771C17.3054 10.4771 17.3254 10.4683 17.3254 10.4576ZM17.0538 9.8073C17.0045 9.77548 17.0038 9.76112 17.0505 9.73096C17.097 9.70095 17.0958 9.68372 17.0446 9.64121C16.9947 9.59976 16.9757 9.60294 16.9553 9.6562C16.9252 9.73467 16.9655 9.86477 17.0341 9.9107C17.0603 9.9282 17.0891 9.9209 17.0981 9.8945C17.1072 9.8681 17.0872 9.82885 17.0538 9.8073ZM12.7954 9.77642C12.822 9.69666 12.7304 9.71342 12.6995 9.79397C12.6829 9.83712 12.6929 9.85738 12.7252 9.84659C12.7542 9.83694 12.7858 9.80536 12.7954 9.77642ZM13.1044 9.62465C13.1102 9.54674 13.1029 9.53962 13.0702 9.59142C13.0189 9.67244 13.0158 9.7238 13.062 9.7238C13.0812 9.7238 13.1003 9.67918 13.1044 9.62465ZM17.0743 9.30608C17.0876 9.2713 17.0714 9.22031 17.0382 9.19277C16.9895 9.15239 16.9828 9.16169 17.0035 9.24077C17.0211 9.30833 17.0132 9.32899 16.9778 9.30715C16.9496 9.28972 16.9265 9.29657 16.9265 9.32238C16.9265 9.39231 17.0462 9.3791 17.0743 9.30608ZM15.5167 7.49862C15.4849 7.46682 15.4643 7.46421 15.4643 7.49197C15.4643 7.55111 15.5167 7.60352 15.5462 7.57395C15.5588 7.56135 15.5456 7.52746 15.5167 7.49862ZM15.357 7.29669C15.2807 7.2236 15.2797 7.22455 15.3358 7.31788C15.368 7.37161 15.404 7.40603 15.4156 7.39437C15.4273 7.38272 15.4009 7.33876 15.357 7.29669ZM19.1864 20.4472C19.1864 20.4228 19.2076 20.4029 19.2334 20.4029C19.2592 20.4029 19.268 20.4228 19.2529 20.4472C19.2378 20.4716 19.2167 20.4915 19.206 20.4915C19.1952 20.4915 19.1864 20.4716 19.1864 20.4472Z" fill="#E85660"/>
</svg>
