<svg width="202" height="25" viewBox="0 0 202 25" fill="none" xmlns="http://www.w3.org/2000/svg">
<rect x="0.890625" y="0.889648" width="200.744" height="24.0516" rx="5" fill="#061F31"/>
<path d="M30.132 18.8896V5.79874H35.0411C36.0468 5.79874 36.8905 5.97345 37.5724 6.32289C38.2584 6.67232 38.7762 7.16238 39.1256 7.79306C39.4793 8.41948 39.6562 9.1503 39.6562 9.98553C39.6562 10.825 39.4772 11.5537 39.1192 12.1716C38.7655 12.7852 38.2435 13.2604 37.5532 13.597C36.8628 13.9294 36.0148 14.0956 35.0091 14.0956H31.5127V12.1269H34.6895C35.2776 12.1269 35.7591 12.0459 36.1341 11.884C36.5091 11.7178 36.7861 11.477 36.9651 11.1617C37.1483 10.8421 37.24 10.45 37.24 9.98553C37.24 9.52104 37.1483 9.12473 36.9651 8.79661C36.7819 8.46422 36.5028 8.2128 36.1278 8.04235C35.7528 7.86763 35.2691 7.78027 34.6768 7.78027H32.5035V18.8896H30.132ZM36.8948 12.9578L40.1356 18.8896H37.4893L34.306 12.9578H36.8948ZM45.9427 19.0814C44.9584 19.0814 44.1082 18.8769 43.3923 18.4678C42.6807 18.0544 42.1331 17.4706 41.7496 16.7164C41.366 15.9578 41.1743 15.0651 41.1743 14.0381C41.1743 13.0281 41.366 12.1418 41.7496 11.379C42.1373 10.6119 42.6785 10.0154 43.3731 9.58922C44.0677 9.15882 44.8838 8.94363 45.8213 8.94363C46.4264 8.94363 46.9974 9.04164 47.5344 9.23766C48.0756 9.42942 48.5528 9.72772 48.9662 10.1325C49.3838 10.5374 49.7119 11.053 49.9506 11.6794C50.1892 12.3016 50.3085 13.0431 50.3085 13.9039V14.6134H42.2609V13.0537H48.0905C48.0862 12.6105 47.9903 12.2164 47.8028 11.8712C47.6153 11.5218 47.3532 11.2469 47.0166 11.0466C46.6842 10.8463 46.2964 10.7462 45.8532 10.7462C45.3802 10.7462 44.9648 10.8612 44.6068 11.0914C44.2488 11.3172 43.9697 11.6155 43.7694 11.9862C43.5734 12.3527 43.4733 12.7554 43.469 13.1943V14.5558C43.469 15.1269 43.5734 15.6169 43.7822 16.026C43.991 16.4308 44.2829 16.7419 44.6579 16.9593C45.0329 17.1723 45.4719 17.2789 45.9747 17.2789C46.3113 17.2789 46.616 17.232 46.8888 17.1382C47.1615 17.0402 47.398 16.8975 47.5983 16.71C47.7986 16.5225 47.9498 16.2902 48.0521 16.0132L50.2126 16.2561C50.0763 16.8271 49.8163 17.3257 49.4328 17.7519C49.0535 18.1737 48.5677 18.5019 47.9754 18.7362C47.3831 18.9664 46.7055 19.0814 45.9427 19.0814ZM57.1688 9.07147V10.8612H51.5246V9.07147H57.1688ZM52.9181 6.71919H55.232V15.9365C55.232 16.2476 55.2789 16.4862 55.3726 16.6524C55.4706 16.8144 55.5985 16.9252 55.7561 16.9848C55.9138 17.0445 56.0885 17.0743 56.2803 17.0743C56.4252 17.0743 56.5573 17.0637 56.6766 17.0423C56.8002 17.021 56.8939 17.0019 56.9578 16.9848L57.3477 18.7938C57.2242 18.8364 57.0473 18.8833 56.8172 18.9344C56.5914 18.9855 56.3144 19.0154 55.9862 19.0239C55.4067 19.0409 54.8847 18.9536 54.4202 18.7618C53.9557 18.5658 53.5871 18.2632 53.3144 17.8541C53.0459 17.445 52.9138 16.9337 52.9181 16.32V6.71919ZM63.2812 19.0814C62.3224 19.0814 61.4914 18.8705 60.7883 18.4486C60.0851 18.0267 59.5397 17.4365 59.1519 16.678C58.7684 15.9195 58.5766 15.0331 58.5766 14.0189C58.5766 13.0047 58.7684 12.1162 59.1519 11.3534C59.5397 10.5906 60.0851 9.99831 60.7883 9.57644C61.4914 9.15456 62.3224 8.94363 63.2812 8.94363C64.24 8.94363 65.0709 9.15456 65.7741 9.57644C66.4772 9.99831 67.0205 10.5906 67.404 11.3534C67.7918 12.1162 67.9857 13.0047 67.9857 14.0189C67.9857 15.0331 67.7918 15.9195 67.404 16.678C67.0205 17.4365 66.4772 18.0267 65.7741 18.4486C65.0709 18.8705 64.24 19.0814 63.2812 19.0814ZM63.2939 17.2277C63.8138 17.2277 64.2485 17.085 64.5979 16.7994C64.9474 16.5097 65.2073 16.1219 65.3778 15.6361C65.5525 15.1503 65.6398 14.6091 65.6398 14.0125C65.6398 13.4117 65.5525 12.8683 65.3778 12.3825C65.2073 11.8925 64.9474 11.5026 64.5979 11.2128C64.2485 10.923 63.8138 10.7781 63.2939 10.7781C62.7613 10.7781 62.3181 10.923 61.9644 11.2128C61.615 11.5026 61.3529 11.8925 61.1782 12.3825C61.0077 12.8683 60.9225 13.4117 60.9225 14.0125C60.9225 14.6091 61.0077 15.1503 61.1782 15.6361C61.3529 16.1219 61.615 16.5097 61.9644 16.7994C62.3181 17.085 62.7613 17.2277 63.2939 17.2277ZM76.2075 14.7604V9.07147H78.5214V18.8896H76.2778V17.1446H76.1755C75.9539 17.6943 75.5896 18.1439 75.0825 18.4933C74.5796 18.8428 73.9596 19.0175 73.2224 19.0175C72.5789 19.0175 72.01 18.8747 71.5157 18.5892C71.0257 18.2994 70.6421 17.8797 70.3651 17.33C70.0882 16.776 69.9497 16.107 69.9497 15.3229V9.07147H72.2636V14.9649C72.2636 15.5871 72.434 16.0814 72.7749 16.4479C73.1159 16.8144 73.5633 16.9976 74.1173 16.9976C74.4582 16.9976 74.7884 16.9145 75.108 16.7483C75.4276 16.5821 75.6897 16.335 75.8943 16.0068C76.1031 15.6744 76.2075 15.259 76.2075 14.7604ZM80.9008 18.8896V9.07147H83.1444V10.7078H83.2467C83.4257 10.1411 83.7325 9.70428 84.1672 9.39746C84.6061 9.08638 85.1068 8.93084 85.6693 8.93084C85.7971 8.93084 85.9399 8.93723 86.0976 8.95002C86.2595 8.95854 86.3937 8.97345 86.5003 8.99476V11.1233C86.4023 11.0892 86.2467 11.0594 86.0336 11.0338C85.8248 11.004 85.6224 10.9891 85.4264 10.9891C85.0045 10.9891 84.6253 11.0807 84.2886 11.2639C83.9562 11.4429 83.6942 11.6922 83.5024 12.0118C83.3106 12.3314 83.2148 12.7 83.2148 13.1176V18.8896H80.9008ZM90.3515 13.1368V18.8896H88.0376V9.07147H90.2492V10.7398H90.3643C90.5901 10.1901 90.9502 9.75328 91.4445 9.42942C91.9431 9.10556 92.5589 8.94363 93.2918 8.94363C93.9694 8.94363 94.5596 9.08851 95.0624 9.37828C95.5695 9.66806 95.9616 10.0878 96.2385 10.6375C96.5198 11.1872 96.6583 11.8541 96.654 12.6382V18.8896H94.3401V12.9962C94.3401 12.3399 94.1697 11.8264 93.8287 11.4557C93.4921 11.085 93.0255 10.8996 92.4289 10.8996C92.0241 10.8996 91.664 10.9891 91.3486 11.1681C91.0376 11.3428 90.7925 11.5963 90.6135 11.9287C90.4388 12.2611 90.3515 12.6638 90.3515 13.1368ZM103.353 19.0814C102.369 19.0814 101.518 18.8769 100.802 18.4678C100.091 18.0544 99.5432 17.4706 99.1597 16.7164C98.7762 15.9578 98.5844 15.0651 98.5844 14.0381C98.5844 13.0281 98.7762 12.1418 99.1597 11.379C99.5475 10.6119 100.089 10.0154 100.783 9.58922C101.478 9.15882 102.294 8.94363 103.231 8.94363C103.837 8.94363 104.408 9.04164 104.945 9.23766C105.486 9.42942 105.963 9.72772 106.376 10.1325C106.794 10.5374 107.122 11.053 107.361 11.6794C107.599 12.3016 107.719 13.0431 107.719 13.9039V14.6134H99.6711V13.0537H105.501C105.496 12.6105 105.4 12.2164 105.213 11.8712C105.025 11.5218 104.763 11.2469 104.427 11.0466C104.094 10.8463 103.707 10.7462 103.263 10.7462C102.79 10.7462 102.375 10.8612 102.017 11.0914C101.659 11.3172 101.38 11.6155 101.18 11.9862C100.984 12.3527 100.883 12.7554 100.879 13.1943V14.5558C100.879 15.1269 100.984 15.6169 101.192 16.026C101.401 16.4308 101.693 16.7419 102.068 16.9593C102.443 17.1723 102.882 17.2789 103.385 17.2789C103.722 17.2789 104.026 17.232 104.299 17.1382C104.572 17.0402 104.808 16.8975 105.008 16.71C105.209 16.5225 105.36 16.2902 105.462 16.0132L107.623 16.2561C107.486 16.8271 107.226 17.3257 106.843 17.7519C106.464 18.1737 105.978 18.5019 105.386 18.7362C104.793 18.9664 104.116 19.0814 103.353 19.0814ZM109.676 18.8896V9.07147H111.92V10.7078H112.022C112.201 10.1411 112.508 9.70428 112.943 9.39746C113.381 9.08638 113.882 8.93084 114.445 8.93084C114.573 8.93084 114.715 8.93723 114.873 8.95002C115.035 8.95854 115.169 8.97345 115.276 8.99476V11.1233C115.178 11.0892 115.022 11.0594 114.809 11.0338C114.6 11.004 114.398 10.9891 114.202 10.9891C113.78 10.9891 113.401 11.0807 113.064 11.2639C112.732 11.4429 112.47 11.6922 112.278 12.0118C112.086 12.3314 111.99 12.7 111.99 13.1176V18.8896H109.676ZM124.103 19.0878C123.481 19.0878 122.921 18.977 122.422 18.7554C121.928 18.5296 121.536 18.1972 121.246 17.7583C120.96 17.3193 120.818 16.7781 120.818 16.1347C120.818 15.5807 120.92 15.1226 121.124 14.7604C121.329 14.3982 121.608 14.1084 121.962 13.8911C122.315 13.6737 122.714 13.5097 123.157 13.3989C123.604 13.2838 124.067 13.2007 124.544 13.1496C125.119 13.0899 125.586 13.0367 125.944 12.9898C126.302 12.9387 126.562 12.8619 126.724 12.7597C126.89 12.6531 126.973 12.4891 126.973 12.2675V12.2291C126.973 11.7476 126.83 11.3747 126.545 11.1105C126.259 10.8463 125.848 10.7142 125.311 10.7142C124.744 10.7142 124.295 10.8378 123.962 11.085C123.634 11.3321 123.413 11.624 123.298 11.9607L121.137 11.6539C121.308 11.0573 121.589 10.5587 121.981 10.1581C122.373 9.75328 122.852 9.45073 123.419 9.25044C123.986 9.0459 124.612 8.94363 125.298 8.94363C125.771 8.94363 126.242 8.99902 126.711 9.10982C127.18 9.22061 127.608 9.40385 127.996 9.65953C128.384 9.91095 128.695 10.254 128.929 10.6887C129.168 11.1233 129.287 11.6666 129.287 12.3186V18.8896H127.063V17.5409H126.986C126.845 17.8137 126.647 18.0693 126.391 18.308C126.14 18.5423 125.823 18.732 125.439 18.8769C125.06 19.0175 124.614 19.0878 124.103 19.0878ZM124.704 17.3875C125.168 17.3875 125.571 17.2959 125.912 17.1127C126.253 16.9252 126.515 16.678 126.698 16.3712C126.886 16.0644 126.979 15.7298 126.979 15.3676V14.2107C126.907 14.2703 126.783 14.3257 126.609 14.3769C126.438 14.428 126.247 14.4727 126.033 14.5111C125.82 14.5494 125.609 14.5835 125.401 14.6134C125.192 14.6432 125.011 14.6688 124.857 14.6901C124.512 14.7369 124.203 14.8137 123.93 14.9202C123.658 15.0267 123.443 15.1759 123.285 15.3676C123.127 15.5551 123.048 15.798 123.048 16.0963C123.048 16.5225 123.204 16.8442 123.515 17.0615C123.826 17.2789 124.222 17.3875 124.704 17.3875ZM137.872 14.7604V9.07147H140.185V18.8896H137.942V17.1446H137.84C137.618 17.6943 137.254 18.1439 136.747 18.4933C136.244 18.8428 135.624 19.0175 134.886 19.0175C134.243 19.0175 133.674 18.8747 133.18 18.5892C132.69 18.2994 132.306 17.8797 132.029 17.33C131.752 16.776 131.614 16.107 131.614 15.3229V9.07147H133.928V14.9649C133.928 15.5871 134.098 16.0814 134.439 16.4479C134.78 16.8144 135.227 16.9976 135.781 16.9976C136.122 16.9976 136.453 16.9145 136.772 16.7483C137.092 16.5821 137.354 16.335 137.558 16.0068C137.767 15.6744 137.872 15.259 137.872 14.7604ZM149.344 5.79874V18.8896H147.03V5.79874H149.344ZM156.006 19.0814C155.047 19.0814 154.216 18.8705 153.513 18.4486C152.81 18.0267 152.264 17.4365 151.877 16.678C151.493 15.9195 151.301 15.0331 151.301 14.0189C151.301 13.0047 151.493 12.1162 151.877 11.3534C152.264 10.5906 152.81 9.99831 153.513 9.57644C154.216 9.15456 155.047 8.94363 156.006 8.94363C156.965 8.94363 157.796 9.15456 158.499 9.57644C159.202 9.99831 159.745 10.5906 160.129 11.3534C160.516 12.1162 160.71 13.0047 160.71 14.0189C160.71 15.0331 160.516 15.9195 160.129 16.678C159.745 17.4365 159.202 18.0267 158.499 18.4486C157.796 18.8705 156.965 19.0814 156.006 19.0814ZM156.019 17.2277C156.538 17.2277 156.973 17.085 157.323 16.7994C157.672 16.5097 157.932 16.1219 158.102 15.6361C158.277 15.1503 158.364 14.6091 158.364 14.0125C158.364 13.4117 158.277 12.8683 158.102 12.3825C157.932 11.8925 157.672 11.5026 157.323 11.2128C156.973 10.923 156.538 10.7781 156.019 10.7781C155.486 10.7781 155.043 10.923 154.689 11.2128C154.34 11.5026 154.078 11.8925 153.903 12.3825C153.732 12.8683 153.647 13.4117 153.647 14.0125C153.647 14.6091 153.732 15.1503 153.903 15.6361C154.078 16.1219 154.34 16.5097 154.689 16.7994C155.043 17.085 155.486 17.2277 156.019 17.2277ZM162.777 18.8896V5.79874H165.09V10.695H165.186C165.306 10.4564 165.474 10.2029 165.691 9.93439C165.909 9.66167 166.203 9.42942 166.573 9.23766C166.944 9.04164 167.417 8.94363 167.992 8.94363C168.751 8.94363 169.435 9.13752 170.044 9.5253C170.658 9.90882 171.144 10.4777 171.502 11.232C171.864 11.982 172.045 12.9024 172.045 13.9933C172.045 15.0715 171.868 15.9877 171.514 16.7419C171.161 17.4962 170.679 18.0715 170.07 18.4678C169.46 18.8641 168.77 19.0622 167.999 19.0622C167.436 19.0622 166.97 18.9685 166.599 18.781C166.228 18.5935 165.93 18.3676 165.704 18.1034C165.483 17.835 165.31 17.5814 165.186 17.3428H165.052V18.8896H162.777ZM165.046 13.9806C165.046 14.6155 165.135 15.1716 165.314 15.6489C165.497 16.1262 165.759 16.499 166.1 16.7675C166.446 17.0317 166.863 17.1638 167.353 17.1638C167.865 17.1638 168.293 17.0274 168.638 16.7547C168.983 16.4777 169.243 16.1006 169.418 15.6233C169.597 15.1418 169.686 14.5942 169.686 13.9806C169.686 13.3712 169.599 12.83 169.424 12.357C169.25 11.884 168.99 11.5132 168.644 11.2448C168.299 10.9763 167.869 10.8421 167.353 10.8421C166.859 10.8421 166.439 10.972 166.094 11.232C165.749 11.4919 165.487 11.8563 165.308 12.325C165.133 12.7938 165.046 13.3456 165.046 13.9806ZM174.114 18.8896V5.79874H176.428V10.695H176.524C176.644 10.4564 176.812 10.2029 177.029 9.93439C177.247 9.66167 177.541 9.42942 177.911 9.23766C178.282 9.04164 178.755 8.94363 179.33 8.94363C180.089 8.94363 180.773 9.13752 181.382 9.5253C181.996 9.90882 182.482 10.4777 182.84 11.232C183.202 11.982 183.383 12.9024 183.383 13.9933C183.383 15.0715 183.206 15.9877 182.852 16.7419C182.499 17.4962 182.017 18.0715 181.408 18.4678C180.798 18.8641 180.108 19.0622 179.337 19.0622C178.774 19.0622 178.308 18.9685 177.937 18.781C177.566 18.5935 177.268 18.3676 177.042 18.1034C176.82 17.835 176.648 17.5814 176.524 17.3428H176.39V18.8896H174.114ZM176.384 13.9806C176.384 14.6155 176.473 15.1716 176.652 15.6489C176.835 16.1262 177.097 16.499 177.438 16.7675C177.783 17.0317 178.201 17.1638 178.691 17.1638C179.203 17.1638 179.631 17.0274 179.976 16.7547C180.321 16.4777 180.581 16.1006 180.756 15.6233C180.935 15.1418 181.024 14.5942 181.024 13.9806C181.024 13.3712 180.937 12.83 180.762 12.357C180.587 11.884 180.328 11.5132 179.982 11.2448C179.637 10.9763 179.207 10.8421 178.691 10.8421C178.197 10.8421 177.777 10.972 177.432 11.232C177.087 11.4919 176.825 11.8563 176.646 12.325C176.471 12.7938 176.384 13.3456 176.384 13.9806ZM186.454 22.5715C186.139 22.5715 185.847 22.5459 185.579 22.4948C185.314 22.4479 185.103 22.3925 184.946 22.3286L185.483 20.526C185.819 20.624 186.12 20.6709 186.384 20.6666C186.648 20.6624 186.88 20.5793 187.081 20.4173C187.285 20.2597 187.458 19.9955 187.598 19.6247L187.797 19.0942L184.236 9.07147H186.691L188.954 16.4862H189.056L191.325 9.07147H193.786L189.855 20.0786C189.672 20.5985 189.429 21.0438 189.126 21.4145C188.824 21.7895 188.453 22.075 188.014 22.271C187.579 22.4713 187.059 22.5715 186.454 22.5715Z" fill="#CAB8FF"/>
</svg>
