<svg width="282" height="25" viewBox="0 0 282 25" fill="none" xmlns="http://www.w3.org/2000/svg">
<rect x="0.890625" y="0.275635" width="280.545" height="24.0516" rx="5" fill="#061F31"/>
<path fill-rule="evenodd" clip-rule="evenodd" d="M9.57129 5.68941C9.57129 4.59282 10.4603 3.70386 11.5568 3.70386H18.6678C19.7644 3.70386 20.6534 4.59282 20.6534 5.68941V6.37905L18.6678 7.89946V5.68941L12.3009 5.68941L14.5629 8.17583C14.7566 8.38872 14.8635 8.66349 14.8635 8.94814V16.6638H18.6678V14.5685L20.6534 16.089V16.6638C20.6534 17.7604 19.7644 18.6493 18.6678 18.6493H14.8635V20.6307C14.8635 21.701 13.5073 22.2035 12.7791 21.403L9.87192 18.2075C9.67825 17.9946 9.57129 17.7198 9.57129 17.4352V5.68941ZM13.4387 14.6072C13.4387 15.0848 13.1427 15.4719 12.7777 15.4719C12.4127 15.4719 12.1167 15.0848 12.1167 14.6072C12.1167 14.1297 12.4127 13.7426 12.7777 13.7426C13.1427 13.7426 13.4387 14.1297 13.4387 14.6072Z" fill="#CAB8FF"/>
<path d="M17.0993 10.6428C16.7101 10.9408 16.7101 11.5271 17.0993 11.8251L21.7969 15.4222C22.2868 15.7973 22.9941 15.448 22.9941 14.831V7.63692C22.9941 7.01992 22.2868 6.67063 21.7969 7.04575L17.0993 10.6428Z" fill="#CAB8FF"/>
<path d="M30.132 17.8911V4.8002H35.0411C36.0468 4.8002 36.8905 4.97492 37.5724 5.32435C38.2584 5.67378 38.7762 6.16384 39.1256 6.79452C39.4793 7.42094 39.6562 8.15177 39.6562 8.98699C39.6562 9.82648 39.4772 10.5552 39.1192 11.1731C38.7655 11.7867 38.2435 12.2619 37.5532 12.5985C36.8628 12.9309 36.0148 13.0971 35.0091 13.0971H31.5127V11.1283H34.6895C35.2776 11.1283 35.7591 11.0474 36.1341 10.8854C36.5091 10.7192 36.7861 10.4785 36.9651 10.1631C37.1483 9.84353 37.24 9.45148 37.24 8.98699C37.24 8.52251 37.1483 8.1262 36.9651 7.79807C36.7819 7.46569 36.5028 7.21427 36.1278 7.04381C35.7528 6.8691 35.2691 6.78174 34.6768 6.78174H32.5035V17.8911H30.132ZM36.8948 11.9593L40.1356 17.8911H37.4893L34.306 11.9593H36.8948ZM45.9427 18.0829C44.9584 18.0829 44.1082 17.8783 43.3923 17.4692C42.6807 17.0559 42.1331 16.4721 41.7496 15.7178C41.366 14.9593 41.1743 14.0665 41.1743 13.0396C41.1743 12.0296 41.366 11.1432 41.7496 10.3805C42.1373 9.61341 42.6785 9.01682 43.3731 8.59069C44.0677 8.16029 44.8838 7.94509 45.8213 7.94509C46.4264 7.94509 46.9974 8.0431 47.5344 8.23912C48.0756 8.43089 48.5528 8.72918 48.9662 9.13401C49.3838 9.53884 49.7119 10.0545 49.9506 10.6809C50.1892 11.303 50.3085 12.0445 50.3085 12.9053V13.6148H42.2609V12.0552H48.0905C48.0862 11.612 47.9903 11.2178 47.8028 10.8726C47.6153 10.5232 47.3532 10.2484 47.0166 10.0481C46.6842 9.84779 46.2964 9.74765 45.8532 9.74765C45.3802 9.74765 44.9648 9.8627 44.6068 10.0928C44.2488 10.3187 43.9697 10.617 43.7694 10.9877C43.5734 11.3542 43.4733 11.7569 43.469 12.1958V13.5573C43.469 14.1283 43.5734 14.6184 43.7822 15.0275C43.991 15.4323 44.2829 15.7434 44.6579 15.9607C45.0329 16.1738 45.4719 16.2803 45.9747 16.2803C46.3113 16.2803 46.616 16.2334 46.8888 16.1397C47.1615 16.0417 47.398 15.8989 47.5983 15.7114C47.7986 15.5239 47.9498 15.2917 48.0521 15.0147L50.2126 15.2576C50.0763 15.8286 49.8163 16.3272 49.4328 16.7533C49.0535 17.1752 48.5677 17.5033 47.9754 17.7377C47.3831 17.9678 46.7055 18.0829 45.9427 18.0829ZM57.1688 8.07293V9.8627H51.5246V8.07293H57.1688ZM52.9181 5.72066H55.232V14.938C55.232 15.2491 55.2789 15.4877 55.3726 15.6539C55.4706 15.8158 55.5985 15.9266 55.7561 15.9863C55.9138 16.0459 56.0885 16.0758 56.2803 16.0758C56.4252 16.0758 56.5573 16.0651 56.6766 16.0438C56.8002 16.0225 56.8939 16.0033 56.9578 15.9863L57.3477 17.7952C57.2242 17.8378 57.0473 17.8847 56.8172 17.9359C56.5914 17.987 56.3144 18.0168 55.9862 18.0253C55.4067 18.0424 54.8847 17.955 54.4202 17.7633C53.9557 17.5672 53.5871 17.2647 53.3144 16.8556C53.0459 16.4465 52.9138 15.9351 52.9181 15.3215V5.72066ZM63.2812 18.0829C62.3224 18.0829 61.4914 17.8719 60.7883 17.4501C60.0851 17.0282 59.5397 16.438 59.1519 15.6795C58.7684 14.9209 58.5766 14.0346 58.5766 13.0204C58.5766 12.0062 58.7684 11.1177 59.1519 10.3549C59.5397 9.59211 60.0851 8.99978 60.7883 8.5779C61.4914 8.15603 62.3224 7.94509 63.2812 7.94509C64.24 7.94509 65.0709 8.15603 65.7741 8.5779C66.4772 8.99978 67.0205 9.59211 67.404 10.3549C67.7918 11.1177 67.9857 12.0062 67.9857 13.0204C67.9857 14.0346 67.7918 14.9209 67.404 15.6795C67.0205 16.438 66.4772 17.0282 65.7741 17.4501C65.0709 17.8719 64.24 18.0829 63.2812 18.0829ZM63.2939 16.2292C63.8138 16.2292 64.2485 16.0864 64.5979 15.8009C64.9474 15.5111 65.2073 15.1234 65.3778 14.6376C65.5525 14.1518 65.6398 13.6106 65.6398 13.014C65.6398 12.4131 65.5525 11.8698 65.3778 11.384C65.2073 10.894 64.9474 10.504 64.5979 10.2143C64.2485 9.92449 63.8138 9.77961 63.2939 9.77961C62.7613 9.77961 62.3181 9.92449 61.9644 10.2143C61.615 10.504 61.3529 10.894 61.1782 11.384C61.0077 11.8698 60.9225 12.4131 60.9225 13.014C60.9225 13.6106 61.0077 14.1518 61.1782 14.6376C61.3529 15.1234 61.615 15.5111 61.9644 15.8009C62.3181 16.0864 62.7613 16.2292 63.2939 16.2292ZM76.2075 13.7619V8.07293H78.5214V17.8911H76.2778V16.1461H76.1755C75.9539 16.6958 75.5896 17.1454 75.0825 17.4948C74.5796 17.8442 73.9596 18.019 73.2224 18.019C72.5789 18.019 72.01 17.8762 71.5157 17.5907C71.0257 17.3009 70.6421 16.8812 70.3651 16.3315C70.0882 15.7775 69.9497 15.1084 69.9497 14.3244V8.07293H72.2636V13.9664C72.2636 14.5886 72.434 15.0829 72.7749 15.4494C73.1159 15.8158 73.5633 15.9991 74.1173 15.9991C74.4582 15.9991 74.7884 15.916 75.108 15.7498C75.4276 15.5836 75.6897 15.3364 75.8943 15.0083C76.1031 14.6759 76.2075 14.2604 76.2075 13.7619ZM80.9008 17.8911V8.07293H83.1444V9.70929H83.2467C83.4257 9.14253 83.7325 8.70574 84.1672 8.39893C84.6061 8.08785 85.1068 7.93231 85.6693 7.93231C85.7971 7.93231 85.9399 7.9387 86.0976 7.95148C86.2595 7.96 86.3937 7.97492 86.5003 7.99623V10.1248C86.4023 10.0907 86.2467 10.0609 86.0336 10.0353C85.8248 10.0055 85.6224 9.99054 85.4264 9.99054C85.0045 9.99054 84.6253 10.0822 84.2886 10.2654C83.9562 10.4444 83.6942 10.6937 83.5024 11.0133C83.3106 11.3329 83.2148 11.7015 83.2148 12.1191V17.8911H80.9008ZM90.3515 12.1383V17.8911H88.0376V8.07293H90.2492V9.74125H90.3643C90.5901 9.19154 90.9502 8.75475 91.4445 8.43089C91.9431 8.10702 92.5589 7.94509 93.2918 7.94509C93.9694 7.94509 94.5596 8.08998 95.0624 8.37975C95.5695 8.66952 95.9616 9.08927 96.2385 9.63898C96.5198 10.1887 96.6583 10.8556 96.654 11.6397V17.8911H94.3401V11.9976C94.3401 11.3414 94.1697 10.8279 93.8287 10.4572C93.4921 10.0864 93.0255 9.90106 92.4289 9.90106C92.0241 9.90106 91.664 9.99054 91.3486 10.1695C91.0376 10.3442 90.7925 10.5978 90.6135 10.9302C90.4388 11.2626 90.3515 11.6653 90.3515 12.1383ZM103.353 18.0829C102.369 18.0829 101.518 17.8783 100.802 17.4692C100.091 17.0559 99.5432 16.4721 99.1597 15.7178C98.7762 14.9593 98.5844 14.0665 98.5844 13.0396C98.5844 12.0296 98.7762 11.1432 99.1597 10.3805C99.5475 9.61341 100.089 9.01682 100.783 8.59069C101.478 8.16029 102.294 7.94509 103.231 7.94509C103.837 7.94509 104.408 8.0431 104.945 8.23912C105.486 8.43089 105.963 8.72918 106.376 9.13401C106.794 9.53884 107.122 10.0545 107.361 10.6809C107.599 11.303 107.719 12.0445 107.719 12.9053V13.6148H99.6711V12.0552H105.501C105.496 11.612 105.4 11.2178 105.213 10.8726C105.025 10.5232 104.763 10.2484 104.427 10.0481C104.094 9.84779 103.707 9.74765 103.263 9.74765C102.79 9.74765 102.375 9.8627 102.017 10.0928C101.659 10.3187 101.38 10.617 101.18 10.9877C100.984 11.3542 100.883 11.7569 100.879 12.1958V13.5573C100.879 14.1283 100.984 14.6184 101.192 15.0275C101.401 15.4323 101.693 15.7434 102.068 15.9607C102.443 16.1738 102.882 16.2803 103.385 16.2803C103.722 16.2803 104.026 16.2334 104.299 16.1397C104.572 16.0417 104.808 15.8989 105.008 15.7114C105.209 15.5239 105.36 15.2917 105.462 15.0147L107.623 15.2576C107.486 15.8286 107.226 16.3272 106.843 16.7533C106.464 17.1752 105.978 17.5033 105.386 17.7377C104.793 17.9678 104.116 18.0829 103.353 18.0829ZM109.676 17.8911V8.07293H111.92V9.70929H112.022C112.201 9.14253 112.508 8.70574 112.943 8.39893C113.381 8.08785 113.882 7.93231 114.445 7.93231C114.573 7.93231 114.715 7.9387 114.873 7.95148C115.035 7.96 115.169 7.97492 115.276 7.99623V10.1248C115.178 10.0907 115.022 10.0609 114.809 10.0353C114.6 10.0055 114.398 9.99054 114.202 9.99054C113.78 9.99054 113.401 10.0822 113.064 10.2654C112.732 10.4444 112.47 10.6937 112.278 11.0133C112.086 11.3329 111.99 11.7015 111.99 12.1191V17.8911H109.676ZM124.103 18.0893C123.481 18.0893 122.921 17.9785 122.422 17.7569C121.928 17.531 121.536 17.1986 121.246 16.7597C120.96 16.3208 120.818 15.7796 120.818 15.1361C120.818 14.5822 120.92 14.1241 121.124 13.7619C121.329 13.3996 121.608 13.1099 121.962 12.8925C122.315 12.6752 122.714 12.5111 123.157 12.4003C123.604 12.2853 124.067 12.2022 124.544 12.1511C125.119 12.0914 125.586 12.0381 125.944 11.9913C126.302 11.9401 126.562 11.8634 126.724 11.7611C126.89 11.6546 126.973 11.4905 126.973 11.269V11.2306C126.973 10.7491 126.83 10.3762 126.545 10.112C126.259 9.84779 125.848 9.71569 125.311 9.71569C124.744 9.71569 124.295 9.83927 123.962 10.0864C123.634 10.3336 123.413 10.6255 123.298 10.9621L121.137 10.6553C121.308 10.0587 121.589 9.56015 121.981 9.15958C122.373 8.75475 122.852 8.45219 123.419 8.25191C123.986 8.04736 124.612 7.94509 125.298 7.94509C125.771 7.94509 126.242 8.00049 126.711 8.11128C127.18 8.22208 127.608 8.40532 127.996 8.661C128.384 8.91242 128.695 9.25546 128.929 9.69012C129.168 10.1248 129.287 10.6681 129.287 11.3201V17.8911H127.063V16.5424H126.986C126.845 16.8151 126.647 17.0708 126.391 17.3094C126.14 17.5438 125.823 17.7334 125.439 17.8783C125.06 18.019 124.614 18.0893 124.103 18.0893ZM124.704 16.389C125.168 16.389 125.571 16.2974 125.912 16.1141C126.253 15.9266 126.515 15.6795 126.698 15.3726C126.886 15.0658 126.979 14.7313 126.979 14.3691V13.2121C126.907 13.2718 126.783 13.3272 126.609 13.3783C126.438 13.4295 126.247 13.4742 126.033 13.5126C125.82 13.5509 125.609 13.585 125.401 13.6148C125.192 13.6447 125.011 13.6702 124.857 13.6915C124.512 13.7384 124.203 13.8151 123.93 13.9217C123.658 14.0282 123.443 14.1773 123.285 14.3691C123.127 14.5566 123.048 14.7995 123.048 15.0978C123.048 15.5239 123.204 15.8457 123.515 16.063C123.826 16.2803 124.222 16.389 124.704 16.389ZM137.872 13.7619V8.07293H140.185V17.8911H137.942V16.1461H137.84C137.618 16.6958 137.254 17.1454 136.747 17.4948C136.244 17.8442 135.624 18.019 134.886 18.019C134.243 18.019 133.674 17.8762 133.18 17.5907C132.69 17.3009 132.306 16.8812 132.029 16.3315C131.752 15.7775 131.614 15.1084 131.614 14.3244V8.07293H133.928V13.9664C133.928 14.5886 134.098 15.0829 134.439 15.4494C134.78 15.8158 135.227 15.9991 135.781 15.9991C136.122 15.9991 136.453 15.916 136.772 15.7498C137.092 15.5836 137.354 15.3364 137.558 15.0083C137.767 14.6759 137.872 14.2604 137.872 13.7619ZM147.03 17.8911V8.07293H149.241V9.74125H149.356C149.561 9.17875 149.9 8.73983 150.373 8.42449C150.846 8.10489 151.41 7.94509 152.067 7.94509C152.731 7.94509 153.292 8.10702 153.748 8.43089C154.208 8.75049 154.532 9.18728 154.719 9.74125H154.822C155.039 9.1958 155.405 8.76114 155.921 8.43728C156.441 8.10915 157.057 7.94509 157.768 7.94509C158.672 7.94509 159.409 8.2306 159.98 8.80162C160.551 9.37265 160.837 10.2057 160.837 11.3009V17.8911H158.516V11.6589C158.516 11.0495 158.354 10.6042 158.03 10.3229C157.707 10.0374 157.31 9.89466 156.842 9.89466C156.283 9.89466 155.847 10.0694 155.531 10.4188C155.22 10.764 155.065 11.2136 155.065 11.7675V17.8911H152.795V11.563C152.795 11.0559 152.642 10.6511 152.335 10.3485C152.033 10.0459 151.636 9.89466 151.146 9.89466C150.814 9.89466 150.511 9.97989 150.239 10.1503C149.966 10.3165 149.748 10.553 149.587 10.8599C149.425 11.1624 149.344 11.5161 149.344 11.9209V17.8911H147.03ZM167.531 18.0829C166.546 18.0829 165.696 17.8783 164.98 17.4692C164.269 17.0559 163.721 16.4721 163.337 15.7178C162.954 14.9593 162.762 14.0665 162.762 13.0396C162.762 12.0296 162.954 11.1432 163.337 10.3805C163.725 9.61341 164.266 9.01682 164.961 8.59069C165.656 8.16029 166.472 7.94509 167.409 7.94509C168.014 7.94509 168.585 8.0431 169.122 8.23912C169.663 8.43089 170.141 8.72918 170.554 9.13401C170.972 9.53884 171.3 10.0545 171.538 10.6809C171.777 11.303 171.896 12.0445 171.896 12.9053V13.6148H163.849V12.0552H169.678C169.674 11.612 169.578 11.2178 169.391 10.8726C169.203 10.5232 168.941 10.2484 168.604 10.0481C168.272 9.84779 167.884 9.74765 167.441 9.74765C166.968 9.74765 166.553 9.8627 166.195 10.0928C165.837 10.3187 165.558 10.617 165.357 10.9877C165.161 11.3542 165.061 11.7569 165.057 12.1958V13.5573C165.057 14.1283 165.161 14.6184 165.37 15.0275C165.579 15.4323 165.871 15.7434 166.246 15.9607C166.621 16.1738 167.06 16.2803 167.563 16.2803C167.899 16.2803 168.204 16.2334 168.477 16.1397C168.749 16.0417 168.986 15.8989 169.186 15.7114C169.386 15.5239 169.538 15.2917 169.64 15.0147L171.801 15.2576C171.664 15.8286 171.404 16.3272 171.021 16.7533C170.641 17.1752 170.156 17.5033 169.563 17.7377C168.971 17.9678 168.293 18.0829 167.531 18.0829ZM176.168 12.1383V17.8911H173.854V8.07293H176.066V9.74125H176.181C176.407 9.19154 176.767 8.75475 177.261 8.43089C177.759 8.10702 178.375 7.94509 179.108 7.94509C179.786 7.94509 180.376 8.08998 180.879 8.37975C181.386 8.66952 181.778 9.08927 182.055 9.63898C182.336 10.1887 182.475 10.8556 182.47 11.6397V17.8911H180.157V11.9976C180.157 11.3414 179.986 10.8279 179.645 10.4572C179.309 10.0864 178.842 9.90106 178.245 9.90106C177.84 9.90106 177.48 9.99054 177.165 10.1695C176.854 10.3442 176.609 10.5978 176.43 10.9302C176.255 11.2626 176.168 11.6653 176.168 12.1383ZM191.081 13.7619V8.07293H193.394V17.8911H191.151V16.1461H191.049C190.827 16.6958 190.463 17.1454 189.956 17.4948C189.453 17.8442 188.833 18.019 188.095 18.019C187.452 18.019 186.883 17.8762 186.389 17.5907C185.899 17.3009 185.515 16.8812 185.238 16.3315C184.961 15.7775 184.823 15.1084 184.823 14.3244V8.07293H187.137V13.9664C187.137 14.5886 187.307 15.0829 187.648 15.4494C187.989 15.8158 188.436 15.9991 188.99 15.9991C189.331 15.9991 189.661 15.916 189.981 15.7498C190.301 15.5836 190.563 15.3364 190.767 15.0083C190.976 14.6759 191.081 14.2604 191.081 13.7619ZM200.239 21.5729V8.07293H202.514V9.69651H202.649C202.768 9.45787 202.936 9.20432 203.153 8.93586C203.371 8.66313 203.665 8.43089 204.036 8.23912C204.406 8.0431 204.879 7.94509 205.455 7.94509C206.213 7.94509 206.897 8.13898 207.506 8.52677C208.12 8.91029 208.606 9.47918 208.964 10.2334C209.326 10.9834 209.507 11.9039 209.507 12.9948C209.507 14.0729 209.33 14.9891 208.977 15.7434C208.623 16.4976 208.141 17.0729 207.532 17.4692C206.923 17.8655 206.232 18.0637 205.461 18.0637C204.899 18.0637 204.432 17.9699 204.061 17.7824C203.69 17.5949 203.392 17.3691 203.166 17.1049C202.945 16.8364 202.772 16.5829 202.649 16.3442H202.553V21.5729H200.239ZM202.508 12.982C202.508 13.617 202.597 14.1731 202.776 14.6503C202.96 15.1276 203.222 15.5005 203.563 15.769C203.908 16.0332 204.325 16.1653 204.815 16.1653C205.327 16.1653 205.755 16.0289 206.1 15.7562C206.445 15.4792 206.705 15.1021 206.88 14.6248C207.059 14.1432 207.149 13.5957 207.149 12.982C207.149 12.3726 207.061 11.8315 206.886 11.3584C206.712 10.8854 206.452 10.5147 206.107 10.2462C205.761 9.97776 205.331 9.84353 204.815 9.84353C204.321 9.84353 203.901 9.9735 203.556 10.2334C203.211 10.4934 202.949 10.8577 202.77 11.3265C202.595 11.7952 202.508 12.3471 202.508 12.982ZM211.489 17.8911V8.07293H213.732V9.70929H213.835C214.014 9.14253 214.32 8.70574 214.755 8.39893C215.194 8.08785 215.695 7.93231 216.257 7.93231C216.385 7.93231 216.528 7.9387 216.685 7.95148C216.847 7.96 216.982 7.97492 217.088 7.99623V10.1248C216.99 10.0907 216.835 10.0609 216.622 10.0353C216.413 10.0055 216.21 9.99054 216.014 9.99054C215.592 9.99054 215.213 10.0822 214.877 10.2654C214.544 10.4444 214.282 10.6937 214.09 11.0133C213.899 11.3329 213.803 11.7015 213.803 12.1191V17.8911H211.489ZM218.625 17.8911V8.07293H220.939V17.8911H218.625ZM219.789 6.67947C219.422 6.67947 219.107 6.55802 218.843 6.31512C218.579 6.06796 218.446 5.77179 218.446 5.42662C218.446 5.07719 218.579 4.78103 218.843 4.53813C219.107 4.29097 219.422 4.16739 219.789 4.16739C220.16 4.16739 220.475 4.29097 220.735 4.53813C220.999 4.78103 221.131 5.07719 221.131 5.42662C221.131 5.77179 220.999 6.06796 220.735 6.31512C220.475 6.55802 220.16 6.67947 219.789 6.67947ZM225.633 12.1383V17.8911H223.319V8.07293H225.53V9.74125H225.646C225.871 9.19154 226.231 8.75475 226.726 8.43089C227.224 8.10702 227.84 7.94509 228.573 7.94509C229.251 7.94509 229.841 8.08998 230.344 8.37975C230.851 8.66952 231.243 9.08927 231.52 9.63898C231.801 10.1887 231.94 10.8556 231.935 11.6397V17.8911H229.621V11.9976C229.621 11.3414 229.451 10.8279 229.11 10.4572C228.773 10.0864 228.307 9.90106 227.71 9.90106C227.305 9.90106 226.945 9.99054 226.63 10.1695C226.319 10.3442 226.074 10.5978 225.895 10.9302C225.72 11.2626 225.633 11.6653 225.633 12.1383ZM238.57 18.0829C237.59 18.0829 236.748 17.8677 236.045 17.4373C235.347 17.0069 234.807 16.4124 234.428 15.6539C234.053 14.8911 233.866 14.0133 233.866 13.0204C233.866 12.0232 234.057 11.1432 234.441 10.3805C234.824 9.61341 235.366 9.01682 236.065 8.59069C236.768 8.16029 237.599 7.94509 238.557 7.94509C239.354 7.94509 240.06 8.09211 240.673 8.38614C241.291 8.67591 241.783 9.08714 242.15 9.61981C242.516 10.1482 242.725 10.7661 242.776 11.4735H240.565C240.475 11.0005 240.262 10.6063 239.925 10.291C239.593 9.97137 239.148 9.81157 238.589 9.81157C238.116 9.81157 237.701 9.93941 237.343 10.1951C236.985 10.4465 236.706 10.8087 236.506 11.2817C236.31 11.7547 236.212 12.3215 236.212 12.982C236.212 13.6511 236.31 14.2263 236.506 14.7079C236.702 15.1851 236.976 15.5538 237.33 15.8137C237.688 16.0694 238.108 16.1972 238.589 16.1972C238.93 16.1972 239.235 16.1333 239.503 16.0055C239.776 15.8734 240.004 15.6837 240.187 15.4366C240.371 15.1894 240.496 14.889 240.565 14.5353H242.776C242.721 15.2299 242.516 15.8457 242.163 16.3826C241.809 16.9153 241.327 17.3329 240.718 17.6354C240.109 17.9337 239.393 18.0829 238.57 18.0829ZM244.676 17.8911V8.07293H246.99V17.8911H244.676ZM245.84 6.67947C245.473 6.67947 245.158 6.55802 244.894 6.31512C244.629 6.06796 244.497 5.77179 244.497 5.42662C244.497 5.07719 244.629 4.78103 244.894 4.53813C245.158 4.29097 245.473 4.16739 245.84 4.16739C246.21 4.16739 246.526 4.29097 246.786 4.53813C247.05 4.78103 247.182 5.07719 247.182 5.42662C247.182 5.77179 247.05 6.06796 246.786 6.31512C246.526 6.55802 246.21 6.67947 245.84 6.67947ZM249.37 21.5729V8.07293H251.645V9.69651H251.779C251.899 9.45787 252.067 9.20432 252.284 8.93586C252.502 8.66313 252.796 8.43089 253.166 8.23912C253.537 8.0431 254.01 7.94509 254.585 7.94509C255.344 7.94509 256.028 8.13898 256.637 8.52677C257.251 8.91029 257.737 9.47918 258.095 10.2334C258.457 10.9834 258.638 11.9039 258.638 12.9948C258.638 14.0729 258.461 14.9891 258.108 15.7434C257.754 16.4976 257.272 17.0729 256.663 17.4692C256.054 17.8655 255.363 18.0637 254.592 18.0637C254.029 18.0637 253.563 17.9699 253.192 17.7824C252.821 17.5949 252.523 17.3691 252.297 17.1049C252.076 16.8364 251.903 16.5829 251.779 16.3442H251.684V21.5729H249.37ZM251.639 12.982C251.639 13.617 251.728 14.1731 251.907 14.6503C252.09 15.1276 252.353 15.5005 252.693 15.769C253.039 16.0332 253.456 16.1653 253.946 16.1653C254.458 16.1653 254.886 16.0289 255.231 15.7562C255.576 15.4792 255.836 15.1021 256.011 14.6248C256.19 14.1432 256.279 13.5957 256.279 12.982C256.279 12.3726 256.192 11.8315 256.017 11.3584C255.843 10.8854 255.583 10.5147 255.237 10.2462C254.892 9.97776 254.462 9.84353 253.946 9.84353C253.452 9.84353 253.032 9.9735 252.687 10.2334C252.342 10.4934 252.08 10.8577 251.901 11.3265C251.726 11.7952 251.639 12.3471 251.639 12.982ZM263.445 18.0893C262.823 18.0893 262.262 17.9785 261.764 17.7569C261.269 17.531 260.877 17.1986 260.588 16.7597C260.302 16.3208 260.159 15.7796 260.159 15.1361C260.159 14.5822 260.262 14.1241 260.466 13.7619C260.671 13.3996 260.95 13.1099 261.304 12.8925C261.657 12.6752 262.056 12.5111 262.499 12.4003C262.946 12.2853 263.409 12.2022 263.886 12.1511C264.461 12.0914 264.928 12.0381 265.286 11.9913C265.644 11.9401 265.904 11.8634 266.066 11.7611C266.232 11.6546 266.315 11.4905 266.315 11.269V11.2306C266.315 10.7491 266.172 10.3762 265.887 10.112C265.601 9.84779 265.19 9.71569 264.653 9.71569C264.086 9.71569 263.637 9.83927 263.304 10.0864C262.976 10.3336 262.755 10.6255 262.639 10.9621L260.479 10.6553C260.649 10.0587 260.931 9.56015 261.323 9.15958C261.715 8.75475 262.194 8.45219 262.761 8.25191C263.328 8.04736 263.954 7.94509 264.64 7.94509C265.113 7.94509 265.584 8.00049 266.053 8.11128C266.522 8.22208 266.95 8.40532 267.338 8.661C267.725 8.91242 268.036 9.25546 268.271 9.69012C268.509 10.1248 268.629 10.6681 268.629 11.3201V17.8911H266.404V16.5424H266.328C266.187 16.8151 265.989 17.0708 265.733 17.3094C265.482 17.5438 265.164 17.7334 264.781 17.8783C264.402 18.019 263.956 18.0893 263.445 18.0893ZM264.046 16.389C264.51 16.389 264.913 16.2974 265.254 16.1141C265.595 15.9266 265.857 15.6795 266.04 15.3726C266.228 15.0658 266.321 14.7313 266.321 14.3691V13.2121C266.249 13.2718 266.125 13.3272 265.951 13.3783C265.78 13.4295 265.588 13.4742 265.375 13.5126C265.162 13.5509 264.951 13.585 264.742 13.6148C264.534 13.6447 264.353 13.6702 264.199 13.6915C263.854 13.7384 263.545 13.8151 263.272 13.9217C263 14.0282 262.784 14.1773 262.627 14.3691C262.469 14.5566 262.39 14.7995 262.39 15.0978C262.39 15.5239 262.546 15.8457 262.857 16.063C263.168 16.2803 263.564 16.389 264.046 16.389ZM273.269 4.8002V17.8911H270.956V4.8002H273.269Z" fill="#CAB8FF"/>
</svg>
