<svg width="170" height="25" viewBox="0 0 170 25" fill="none" xmlns="http://www.w3.org/2000/svg">
<rect x="0.9375" y="0.339355" width="168.399" height="24.0516" rx="5" fill="#F4CE7B"/>
<path d="M41.3841 9.66535H38.9935C38.9253 9.2733 38.7996 8.926 38.6164 8.62345C38.4332 8.31663 38.2052 8.05668 37.9324 7.84362C37.6597 7.63055 37.3486 7.47075 36.9992 7.36421C36.654 7.25342 36.2812 7.19802 35.8806 7.19802C35.1689 7.19802 34.5383 7.377 33.9885 7.73495C33.4388 8.08864 33.0084 8.60853 32.6974 9.29461C32.3863 9.97643 32.2307 10.8095 32.2307 11.7939C32.2307 12.7953 32.3863 13.6391 32.6974 14.3252C33.0127 15.007 33.4431 15.5226 33.9885 15.872C34.5383 16.2172 35.1668 16.3898 35.8742 16.3898C36.2662 16.3898 36.6327 16.3386 36.9736 16.2364C37.3188 16.1298 37.6278 15.9743 37.9005 15.7698C38.1775 15.5652 38.4097 15.3138 38.5972 15.0155C38.789 14.7172 38.9211 14.3763 38.9935 13.9928L41.3841 14.0055C41.2947 14.6277 41.1008 15.2115 40.8025 15.757C40.5084 16.3024 40.1228 16.784 39.6455 17.2016C39.1682 17.6149 38.61 17.9388 37.9708 18.1732C37.3316 18.4033 36.6221 18.5183 35.8422 18.5183C34.6917 18.5183 33.6647 18.252 32.7613 17.7193C31.8579 17.1867 31.1462 16.4175 30.6263 15.4118C30.1064 14.4061 29.8465 13.2002 29.8465 11.7939C29.8465 10.3834 30.1086 9.17742 30.6327 8.176C31.1569 7.17032 31.8706 6.40114 32.7741 5.86847C33.6775 5.3358 34.7002 5.06947 35.8422 5.06947C36.5709 5.06947 37.2485 5.17174 37.8749 5.37629C38.5013 5.58083 39.0596 5.88126 39.5496 6.27757C40.0397 6.66961 40.4424 7.15114 40.7577 7.72217C41.0773 8.28893 41.2861 8.93666 41.3841 9.66535ZM45.7675 12.5865V18.3394H43.4536V5.24845H45.7164V10.1895H45.8314C46.0615 9.63552 46.4173 9.19873 46.8989 8.87913C47.3847 8.55526 48.0026 8.39333 48.7526 8.39333C49.4344 8.39333 50.0289 8.53609 50.536 8.8216C51.0431 9.10711 51.4351 9.52472 51.7121 10.0744C51.9933 10.6242 52.134 11.2953 52.134 12.0879V18.3394H49.82V12.4459C49.82 11.7854 49.6496 11.2719 49.3087 10.9054C48.972 10.5347 48.499 10.3493 47.8896 10.3493C47.4806 10.3493 47.1141 10.4388 46.7902 10.6178C46.4706 10.7925 46.2192 11.046 46.036 11.3784C45.857 11.7108 45.7675 12.1135 45.7675 12.5865ZM58.7753 18.5311C57.8165 18.5311 56.9855 18.3202 56.2824 17.8983C55.5793 17.4764 55.0338 16.8862 54.646 16.1277C54.2625 15.3692 54.0708 14.4828 54.0708 13.4686C54.0708 12.4544 54.2625 11.5659 54.646 10.8031C55.0338 10.0403 55.5793 9.44802 56.2824 9.02615C56.9855 8.60427 57.8165 8.39333 58.7753 8.39333C59.7341 8.39333 60.5651 8.60427 61.2682 9.02615C61.9713 9.44802 62.5146 10.0403 62.8982 10.8031C63.286 11.5659 63.4798 12.4544 63.4798 13.4686C63.4798 14.4828 63.286 15.3692 62.8982 16.1277C62.5146 16.8862 61.9713 17.4764 61.2682 17.8983C60.5651 18.3202 59.7341 18.5311 58.7753 18.5311ZM58.7881 16.6774C59.308 16.6774 59.7426 16.5347 60.0921 16.2492C60.4415 15.9594 60.7014 15.5716 60.8719 15.0858C61.0466 14.6 61.134 14.0588 61.134 13.4622C61.134 12.8614 61.0466 12.318 60.8719 11.8323C60.7014 11.3422 60.4415 10.9523 60.0921 10.6625C59.7426 10.3727 59.308 10.2278 58.7881 10.2278C58.2554 10.2278 57.8122 10.3727 57.4585 10.6625C57.1091 10.9523 56.847 11.3422 56.6723 11.8323C56.5019 12.318 56.4166 12.8614 56.4166 13.4622C56.4166 14.0588 56.5019 14.6 56.6723 15.0858C56.847 15.5716 57.1091 15.9594 57.4585 16.2492C57.8122 16.5347 58.2554 16.6774 58.7881 16.6774ZM65.4438 18.3394V8.52117H67.7577V18.3394H65.4438ZM66.6072 7.12771C66.2407 7.12771 65.9253 7.00626 65.6611 6.76336C65.3969 6.5162 65.2648 6.22004 65.2648 5.87487C65.2648 5.52543 65.3969 5.22927 65.6611 4.98637C65.9253 4.73921 66.2407 4.61563 66.6072 4.61563C66.9779 4.61563 67.2932 4.73921 67.5532 4.98637C67.8174 5.22927 67.9495 5.52543 67.9495 5.87487C67.9495 6.22004 67.8174 6.5162 67.5532 6.76336C67.2932 7.00626 66.9779 7.12771 66.6072 7.12771ZM77.8971 11.1163L75.7877 11.3465C75.7281 11.1334 75.6237 10.9331 75.4745 10.7456C75.3296 10.5581 75.1336 10.4068 74.8865 10.2918C74.6393 10.1767 74.3367 10.1192 73.9788 10.1192C73.4972 10.1192 73.0924 10.2236 72.7643 10.4324C72.4404 10.6412 72.2806 10.9118 72.2849 11.2442C72.2806 11.5297 72.385 11.7619 72.5981 11.9409C72.8154 12.1199 73.1734 12.2669 73.672 12.382L75.3467 12.7399C76.2757 12.9402 76.966 13.2577 77.4177 13.6923C77.8737 14.127 78.1038 14.6959 78.108 15.399C78.1038 16.0169 77.9227 16.5624 77.5647 17.0354C77.211 17.5041 76.7188 17.8706 76.0882 18.1348C75.4575 18.399 74.733 18.5311 73.9149 18.5311C72.7132 18.5311 71.7458 18.2797 71.0129 17.7769C70.2799 17.2698 69.8431 16.5645 69.7025 15.6611L71.9589 15.4438C72.0612 15.8869 72.2785 16.2215 72.6109 16.4473C72.9433 16.6732 73.3758 16.7861 73.9085 16.7861C74.4582 16.7861 74.8992 16.6732 75.2316 16.4473C75.5683 16.2215 75.7366 15.9423 75.7366 15.61C75.7366 15.3287 75.6279 15.0965 75.4106 14.9132C75.1975 14.73 74.8651 14.5894 74.4134 14.4913L72.7387 14.1398C71.797 13.9438 71.1002 13.6135 70.6485 13.149C70.1968 12.6803 69.9731 12.0879 69.9774 11.372C69.9731 10.7669 70.1372 10.2428 70.4695 9.79958C70.8062 9.35214 71.2728 9.00697 71.8694 8.76407C72.4703 8.51691 73.1627 8.39333 73.9468 8.39333C75.0974 8.39333 76.0029 8.63836 76.6634 9.12842C77.3282 9.61847 77.7394 10.2811 77.8971 11.1163ZM80.0161 18.3394V8.52117H82.33V18.3394H80.0161ZM81.1794 7.12771C80.8129 7.12771 80.4976 7.00626 80.2334 6.76336C79.9692 6.5162 79.8371 6.22004 79.8371 5.87487C79.8371 5.52543 79.9692 5.22927 80.2334 4.98637C80.4976 4.73921 80.8129 4.61563 81.1794 4.61563C81.5502 4.61563 81.8655 4.73921 82.1254 4.98637C82.3896 5.22927 82.5218 5.52543 82.5218 5.87487C82.5218 6.22004 82.3896 6.5162 82.1254 6.76336C81.8655 7.00626 81.5502 7.12771 81.1794 7.12771ZM84.7094 18.3394V8.52117H86.953V10.1575H87.0553C87.2343 9.59078 87.5411 9.15399 87.9758 8.84717C88.4147 8.53609 88.9154 8.38055 89.4779 8.38055C89.6057 8.38055 89.7485 8.38694 89.9062 8.39972C90.0681 8.40825 90.2023 8.42316 90.3089 8.44447V10.573C90.2108 10.5389 90.0553 10.5091 89.8422 10.4835C89.6334 10.4537 89.431 10.4388 89.235 10.4388C88.8131 10.4388 88.4339 10.5304 88.0972 10.7136C87.7648 10.8926 87.5028 11.1419 87.311 11.4615C87.1192 11.7811 87.0233 12.1497 87.0233 12.5673V18.3394H84.7094ZM98.6249 5.24845V18.3394H96.311V5.24845H98.6249ZM105.351 18.5311C104.367 18.5311 103.516 18.3266 102.801 17.9175C102.089 17.5041 101.541 16.9203 101.158 16.1661C100.774 15.4075 100.582 14.5148 100.582 13.4878C100.582 12.4778 100.774 11.5915 101.158 10.8287C101.546 10.0617 102.087 9.46507 102.781 9.03893C103.476 8.60853 104.292 8.39333 105.229 8.39333C105.835 8.39333 106.406 8.49134 106.943 8.68737C107.484 8.87913 107.961 9.17742 108.374 9.58225C108.792 9.98708 109.12 10.5027 109.359 11.1291C109.597 11.7513 109.717 12.4928 109.717 13.3536V14.0631H101.669V12.5034H107.499C107.494 12.0602 107.399 11.6661 107.211 11.3209C107.024 10.9715 106.761 10.6966 106.425 10.4963C106.092 10.296 105.705 10.1959 105.261 10.1959C104.788 10.1959 104.373 10.3109 104.015 10.5411C103.657 10.7669 103.378 11.0652 103.178 11.4359C102.982 11.8024 102.881 12.2051 102.877 12.644V14.0055C102.877 14.5766 102.982 15.0666 103.19 15.4757C103.399 15.8805 103.691 16.1916 104.066 16.409C104.441 16.622 104.88 16.7286 105.383 16.7286C105.72 16.7286 106.024 16.6817 106.297 16.5879C106.57 16.4899 106.806 16.3472 107.006 16.1597C107.207 15.9722 107.358 15.7399 107.46 15.4629L109.621 15.7058C109.484 16.2769 109.225 16.7754 108.841 17.2016C108.462 17.6234 107.976 17.9516 107.384 18.1859C106.791 18.4161 106.114 18.5311 105.351 18.5311ZM116.139 18.3394V8.52117H118.351V10.1895H118.466C118.67 9.627 119.009 9.18808 119.482 8.87274C119.955 8.55313 120.52 8.39333 121.176 8.39333C121.841 8.39333 122.401 8.55526 122.857 8.87913C123.317 9.19873 123.641 9.63552 123.829 10.1895H123.931C124.148 9.64404 124.515 9.20938 125.03 8.88552C125.55 8.5574 126.166 8.39333 126.878 8.39333C127.781 8.39333 128.518 8.67884 129.089 9.24987C129.66 9.82089 129.946 10.654 129.946 11.7492V18.3394H127.626V12.1071C127.626 11.4977 127.464 11.0524 127.14 10.7712C126.816 10.4857 126.42 10.3429 125.951 10.3429C125.393 10.3429 124.956 10.5176 124.641 10.8671C124.329 11.2122 124.174 11.6618 124.174 12.2158V18.3394H121.905V12.0112C121.905 11.5041 121.751 11.0993 121.445 10.7967C121.142 10.4942 120.746 10.3429 120.256 10.3429C119.923 10.3429 119.621 10.4281 119.348 10.5986C119.075 10.7648 118.858 11.0013 118.696 11.3081C118.534 11.6107 118.453 11.9644 118.453 12.3692V18.3394H116.139ZM135.119 18.5375C134.497 18.5375 133.936 18.4267 133.438 18.2051C132.943 17.9793 132.551 17.6469 132.261 17.208C131.976 16.769 131.833 16.2278 131.833 15.5844C131.833 15.0304 131.935 14.5723 132.14 14.2101C132.345 13.8479 132.624 13.5581 132.977 13.3408C133.331 13.1234 133.729 12.9594 134.173 12.8486C134.62 12.7335 135.082 12.6504 135.56 12.5993C136.135 12.5396 136.602 12.4864 136.96 12.4395C137.318 12.3884 137.578 12.3117 137.739 12.2094C137.906 12.1028 137.989 11.9388 137.989 11.7172V11.6788C137.989 11.1973 137.846 10.8244 137.56 10.5602C137.275 10.296 136.864 10.1639 136.327 10.1639C135.76 10.1639 135.31 10.2875 134.978 10.5347C134.65 10.7818 134.428 11.0737 134.313 11.4104L132.153 11.1036C132.323 10.507 132.604 10.0084 132.997 9.60782C133.389 9.20299 133.868 8.90043 134.435 8.70015C135.002 8.49561 135.628 8.39333 136.314 8.39333C136.787 8.39333 137.258 8.44873 137.727 8.55953C138.195 8.67032 138.624 8.85356 139.011 9.10924C139.399 9.36066 139.71 9.7037 139.945 10.1384C140.183 10.573 140.303 11.1163 140.303 11.7683V18.3394H138.078V16.9906H138.002C137.861 17.2634 137.663 17.519 137.407 17.7577C137.156 17.9921 136.838 18.1817 136.455 18.3266C136.075 18.4672 135.63 18.5375 135.119 18.5375ZM135.72 16.8372C136.184 16.8372 136.587 16.7456 136.928 16.5624C137.269 16.3749 137.531 16.1277 137.714 15.8209C137.901 15.5141 137.995 15.1796 137.995 14.8173V13.6604C137.923 13.72 137.799 13.7754 137.624 13.8266C137.454 13.8777 137.262 13.9225 137.049 13.9608C136.836 13.9992 136.625 14.0332 136.416 14.0631C136.207 14.0929 136.026 14.1185 135.873 14.1398C135.528 14.1867 135.219 14.2634 134.946 14.3699C134.673 14.4764 134.458 14.6256 134.301 14.8173C134.143 15.0048 134.064 15.2477 134.064 15.546C134.064 15.9722 134.22 16.2939 134.531 16.5112C134.842 16.7286 135.238 16.8372 135.72 16.8372ZM142.629 18.3394V8.52117H144.943V18.3394H142.629ZM143.793 7.12771C143.426 7.12771 143.111 7.00626 142.847 6.76336C142.582 6.5162 142.45 6.22004 142.45 5.87487C142.45 5.52543 142.582 5.22927 142.847 4.98637C143.111 4.73921 143.426 4.61563 143.793 4.61563C144.163 4.61563 144.479 4.73921 144.739 4.98637C145.003 5.22927 145.135 5.52543 145.135 5.87487C145.135 6.22004 145.003 6.5162 144.739 6.76336C144.479 7.00626 144.163 7.12771 143.793 7.12771ZM147.323 18.3394V8.52117H149.566V10.1575H149.669C149.848 9.59078 150.154 9.15399 150.589 8.84717C151.028 8.53609 151.529 8.38055 152.091 8.38055C152.219 8.38055 152.362 8.38694 152.519 8.39972C152.681 8.40825 152.816 8.42316 152.922 8.44447V10.573C152.824 10.5389 152.669 10.5091 152.456 10.4835C152.247 10.4537 152.044 10.4388 151.848 10.4388C151.426 10.4388 151.047 10.5304 150.71 10.7136C150.378 10.8926 150.116 11.1419 149.924 11.4615C149.733 11.7811 149.637 12.1497 149.637 12.5673V18.3394H147.323ZM158.402 18.5311C157.417 18.5311 156.567 18.3266 155.851 17.9175C155.14 17.5041 154.592 16.9203 154.209 16.1661C153.825 15.4075 153.633 14.5148 153.633 13.4878C153.633 12.4778 153.825 11.5915 154.209 10.8287C154.596 10.0617 155.138 9.46507 155.832 9.03893C156.527 8.60853 157.343 8.39333 158.28 8.39333C158.885 8.39333 159.456 8.49134 159.993 8.68737C160.535 8.87913 161.012 9.17742 161.425 9.58225C161.843 9.98708 162.171 10.5027 162.41 11.1291C162.648 11.7513 162.767 12.4928 162.767 13.3536V14.0631H154.72V12.5034H160.549C160.545 12.0602 160.449 11.6661 160.262 11.3209C160.074 10.9715 159.812 10.6966 159.476 10.4963C159.143 10.296 158.755 10.1959 158.312 10.1959C157.839 10.1959 157.424 10.3109 157.066 10.5411C156.708 10.7669 156.429 11.0652 156.228 11.4359C156.032 11.8024 155.932 12.2051 155.928 12.644V14.0055C155.928 14.5766 156.032 15.0666 156.241 15.4757C156.45 15.8805 156.742 16.1916 157.117 16.409C157.492 16.622 157.931 16.7286 158.434 16.7286C158.77 16.7286 159.075 16.6817 159.348 16.5879C159.62 16.4899 159.857 16.3472 160.057 16.1597C160.258 15.9722 160.409 15.7399 160.511 15.4629L162.672 15.7058C162.535 16.2769 162.275 16.7754 161.892 17.2016C161.513 17.6234 161.027 17.9516 160.434 18.1859C159.842 18.4161 159.165 18.5311 158.402 18.5311Z" fill="#061F31"/>
<path d="M16.6925 10.549L16.0328 9.40752C15.972 9.30403 15.8854 9.21823 15.7808 9.15863C15.7216 9.12485 15.6582 9.10015 15.5922 9.08508C15.542 9.07356 15.4906 9.06768 15.4383 9.06768C15.3183 9.06768 15.2004 9.09902 15.0962 9.15863C14.9916 9.21823 14.9046 9.30403 14.8437 9.40752L14.1626 10.5576C14.1146 10.6429 14.0486 10.7167 13.9693 10.7737C13.8896 10.8307 13.7987 10.8695 13.7022 10.8875L12.4004 11.1436C12.2825 11.1653 12.1732 11.2184 12.0832 11.2973C12.0292 11.3448 11.9833 11.4006 11.9473 11.4623C11.9233 11.5031 11.904 11.5465 11.8894 11.5918C11.8522 11.7056 11.847 11.8273 11.8736 11.944C11.9002 12.0607 11.9576 12.168 12.0403 12.2546L12.9517 13.2181C13.0181 13.288 13.0678 13.3718 13.0978 13.4634C13.1278 13.5549 13.1373 13.652 13.1253 13.7476L12.9688 15.0497C12.9564 15.1702 12.9761 15.292 13.0262 15.4024C13.076 15.5128 13.1548 15.6079 13.2539 15.6778C13.3529 15.7476 13.469 15.7898 13.5895 15.7999C13.7104 15.8101 13.8317 15.7878 13.941 15.7354L15.1605 15.1842C15.1914 15.1703 15.2231 15.1587 15.2553 15.1494C15.3174 15.1315 15.3821 15.1224 15.4473 15.1224C15.5459 15.1224 15.6436 15.1434 15.7336 15.1842L16.9532 15.7354C17.062 15.7857 17.1825 15.8063 17.3021 15.7951C17.4213 15.7839 17.5357 15.7414 17.6339 15.6718C17.7316 15.6022 17.8092 15.508 17.8589 15.3988C17.8812 15.3494 17.8975 15.2977 17.9078 15.2449C17.9202 15.1808 17.9232 15.1151 17.9168 15.0497L17.7603 13.7476C17.7535 13.6932 17.7539 13.6384 17.7607 13.5843C17.7659 13.5434 17.7749 13.5028 17.7878 13.4634C17.8178 13.3718 17.8675 13.288 17.9339 13.2181L18.8452 12.2546C18.8933 12.2038 18.9331 12.1459 18.9631 12.0832C18.9846 12.0384 19.0008 11.9911 19.0116 11.9421C19.0377 11.8248 19.0313 11.7027 18.9936 11.5886C18.9743 11.5307 18.9473 11.476 18.9134 11.4258C18.8804 11.3773 18.8414 11.3332 18.7968 11.2946C18.7055 11.2162 18.5949 11.164 18.4766 11.1436L17.1529 10.8788C17.0565 10.8609 16.9656 10.822 16.8863 10.765C16.8066 10.708 16.7405 10.6343 16.6925 10.549Z" fill="#061F31"/>
<path fill-rule="evenodd" clip-rule="evenodd" d="M7.3907 12.304C7.3907 12.6959 7.26596 13.1052 7.14251 13.51C6.97791 14.0511 6.81545 14.5838 6.9569 15.0556C7.10136 15.5374 7.57331 15.8888 8.04483 16.2396C8.38004 16.4893 8.71482 16.7387 8.93129 17.0347C9.14562 17.3278 9.27936 17.7093 9.41396 18.0934C9.606 18.6418 9.79975 19.1953 10.2335 19.5042C10.6712 19.8158 11.2542 19.8218 11.8346 19.8277C12.2324 19.8318 12.6289 19.8359 12.9765 19.9382C13.3422 20.0459 13.6782 20.2925 14.0152 20.5395C14.4661 20.87 14.9179 21.2012 15.4417 21.2012C15.9823 21.2012 16.4636 20.8626 16.9369 20.5297C17.2656 20.2986 17.5906 20.0702 17.9284 19.9599C18.2756 19.8466 18.6905 19.8395 19.1076 19.8323C19.6811 19.8224 20.2594 19.8124 20.6713 19.5259C21.0837 19.2393 21.2732 18.7024 21.4652 18.1588C21.6045 17.7637 21.7451 17.3651 21.9736 17.0564C22.1986 16.7519 22.5248 16.5065 22.8493 16.2624C23.3063 15.9185 23.7598 15.5773 23.9222 15.0773C24.0834 14.5805 23.9184 14.0413 23.7516 13.497C23.6312 13.1045 23.5099 12.7094 23.5099 12.3257C23.5099 11.9393 23.6312 11.536 23.7512 11.1368C23.9158 10.5899 24.0778 10.0508 23.9222 9.57403C23.7649 9.09215 23.2964 8.73328 22.83 8.37617C22.4987 8.12218 22.1682 7.86909 21.9517 7.57325C21.7374 7.28006 21.6036 6.8985 21.4695 6.51443C21.2774 5.96607 21.0837 5.41257 20.6499 5.10372C20.2122 4.79209 19.6288 4.78611 19.0484 4.78018C18.6511 4.77611 18.2546 4.77205 17.9069 4.66971C17.5408 4.56201 17.2044 4.3153 16.8674 4.06824C16.4169 3.73781 15.9655 3.40674 15.4417 3.40674C14.9016 3.40674 14.4202 3.7452 13.9466 4.078C13.6178 4.30922 13.2929 4.53769 12.9547 4.64801C12.6079 4.76126 12.1929 4.76842 11.7759 4.77561C11.2023 4.78551 10.6241 4.79549 10.2117 5.08202C9.79975 5.3686 9.60985 5.90563 9.41782 6.44936C9.2785 6.84437 9.1379 7.24291 8.90986 7.55155C8.68482 7.85595 8.35861 8.1013 8.03412 8.3453C7.57717 8.68923 7.12365 9.03046 6.96119 9.53062C6.80002 10.0265 6.97019 10.5719 7.14165 11.1213C7.26596 11.5193 7.3907 11.9193 7.3907 12.304ZM15.4421 6.51697C12.1736 6.51697 9.52412 9.16656 9.52412 12.435C9.52412 15.7034 12.1736 18.353 15.4421 18.353C18.7106 18.353 21.3602 15.7034 21.3602 12.435C21.3602 9.16656 18.7106 6.51697 15.4421 6.51697Z" fill="#061F31"/>
</svg>
