<svg width="198" height="25" viewBox="0 0 198 25" fill="none" xmlns="http://www.w3.org/2000/svg">
<rect x="0.890625" y="0.10791" width="197.014" height="24.0516" rx="5" fill="#061F31"/>
<path d="M31.8834 5.017L35.2904 15.321H35.4246L38.8252 5.017H41.4332L36.8181 18.1079H33.8905L29.2819 5.017H31.8834ZM46.2831 18.2997C45.3243 18.2997 44.4933 18.0887 43.7902 17.6669C43.0871 17.245 42.5416 16.6548 42.1539 15.8963C41.7703 15.1377 41.5786 14.2514 41.5786 13.2372C41.5786 12.223 41.7703 11.3345 42.1539 10.5717C42.5416 9.8089 43.0871 9.21657 43.7902 8.7947C44.4933 8.37283 45.3243 8.16189 46.2831 8.16189C47.2419 8.16189 48.0729 8.37283 48.776 8.7947C49.4791 9.21657 50.0225 9.8089 50.406 10.5717C50.7938 11.3345 50.9877 12.223 50.9877 13.2372C50.9877 14.2514 50.7938 15.1377 50.406 15.8963C50.0225 16.6548 49.4791 17.245 48.776 17.6669C48.0729 18.0887 47.2419 18.2997 46.2831 18.2997ZM46.2959 16.446C46.8158 16.446 47.2504 16.3032 47.5999 16.0177C47.9493 15.7279 48.2093 15.3402 48.3797 14.8544C48.5544 14.3686 48.6418 13.8274 48.6418 13.2308C48.6418 12.6299 48.5544 12.0866 48.3797 11.6008C48.2093 11.1108 47.9493 10.7208 47.5999 10.4311C47.2504 10.1413 46.8158 9.9964 46.2959 9.9964C45.7632 9.9964 45.32 10.1413 44.9664 10.4311C44.6169 10.7208 44.3548 11.1108 44.1801 11.6008C44.0097 12.0866 43.9244 12.6299 43.9244 13.2308C43.9244 13.8274 44.0097 14.3686 44.1801 14.8544C44.3548 15.3402 44.6169 15.7279 44.9664 16.0177C45.32 16.3032 45.7632 16.446 46.2959 16.446ZM57.8543 8.28973V10.0795H52.2101V8.28973H57.8543ZM53.6036 5.93746H55.9175V15.1548C55.9175 15.4659 55.9644 15.7045 56.0582 15.8707C56.1562 16.0326 56.284 16.1434 56.4417 16.2031C56.5993 16.2627 56.7741 16.2926 56.9658 16.2926C57.1107 16.2926 57.2428 16.2819 57.3621 16.2606C57.4857 16.2393 57.5795 16.2201 57.6434 16.2031L58.0333 18.012C57.9097 18.0546 57.7329 18.1015 57.5028 18.1527C57.2769 18.2038 56.9999 18.2336 56.6718 18.2421C56.0922 18.2592 55.5702 18.1718 55.1057 17.9801C54.6412 17.784 54.2726 17.4815 53.9999 17.0724C53.7314 16.6633 53.5993 16.1519 53.6036 15.5383V5.93746ZM64.0306 18.2997C63.0463 18.2997 62.1961 18.0951 61.4802 17.686C60.7686 17.2727 60.221 16.6889 59.8374 15.9346C59.4539 15.1761 59.2622 14.2833 59.2622 13.2563C59.2622 12.2464 59.4539 11.36 59.8374 10.5973C60.2252 9.83021 60.7664 9.23362 61.461 8.80748C62.1556 8.37709 62.9717 8.16189 63.9092 8.16189C64.5143 8.16189 65.0853 8.2599 65.6222 8.45592C66.1634 8.64768 66.6407 8.94598 67.0541 9.35081C67.4717 9.75564 67.7998 10.2713 68.0384 10.8977C68.2771 11.5198 68.3964 12.2613 68.3964 13.1221V13.8316H60.3488V12.272H66.1784C66.1741 11.8288 66.0782 11.4346 65.8907 11.0894C65.7032 10.74 65.4411 10.4652 65.1045 10.2649C64.7721 10.0646 64.3843 9.96444 63.9411 9.96444C63.4681 9.96444 63.0526 10.0795 62.6947 10.3096C62.3367 10.5355 62.0576 10.8338 61.8573 11.2045C61.6613 11.571 61.5612 11.9737 61.5569 12.4126V13.7741C61.5569 14.3451 61.6613 14.8352 61.8701 15.2443C62.0789 15.6491 62.3708 15.9602 62.7458 16.1775C63.1208 16.3906 63.5597 16.4971 64.0626 16.4971C64.3992 16.4971 64.7039 16.4502 64.9767 16.3565C65.2494 16.2585 65.4859 16.1157 65.6862 15.9282C65.8865 15.7407 66.0377 15.5085 66.14 15.2315L68.3005 15.4744C68.1642 16.0454 67.9042 16.544 67.5207 16.9701C67.1414 17.392 66.6556 17.7201 66.0633 17.9545C65.471 18.1846 64.7934 18.2997 64.0306 18.2997ZM70.354 18.1079V8.28973H72.5976V9.92609H72.6998C72.8788 9.35933 73.1856 8.92254 73.6203 8.61572C74.0592 8.30464 74.5599 8.1491 75.1224 8.1491C75.2503 8.1491 75.393 8.15549 75.5507 8.16828C75.7126 8.1768 75.8469 8.19172 75.9534 8.21302V10.3416C75.8554 10.3075 75.6998 10.2777 75.4868 10.2521C75.278 10.2223 75.0756 10.2073 74.8795 10.2073C74.4577 10.2073 74.0784 10.299 73.7417 10.4822C73.4094 10.6612 73.1473 10.9105 72.9555 11.2301C72.7638 11.5497 72.6679 11.9183 72.6679 12.3359V18.1079H70.354ZM81.9555 21.7897V8.28973H84.2311V9.91331H84.3653C84.4846 9.67467 84.653 9.42112 84.8703 9.15265C85.0876 8.87993 85.3817 8.64768 85.7524 8.45592C86.1231 8.2599 86.5961 8.16189 87.1714 8.16189C87.93 8.16189 88.6139 8.35578 89.2233 8.74356C89.8369 9.12709 90.3227 9.69598 90.6807 10.4502C91.0429 11.2002 91.224 12.1207 91.224 13.2116C91.224 14.2897 91.0471 15.2059 90.6934 15.9602C90.3398 16.7144 89.8582 17.2897 89.2488 17.686C88.6395 18.0823 87.9491 18.2805 87.1778 18.2805C86.6153 18.2805 86.1487 18.1867 85.778 17.9992C85.4072 17.8117 85.1089 17.5859 84.8831 17.3217C84.6615 17.0532 84.4889 16.7997 84.3653 16.561H84.2694V21.7897H81.9555ZM84.2247 13.1988C84.2247 13.8338 84.3142 14.3899 84.4932 14.8671C84.6764 15.3444 84.9385 15.7173 85.2794 15.9858C85.6246 16.25 86.0422 16.3821 86.5322 16.3821C87.0436 16.3821 87.4719 16.2457 87.817 15.973C88.1622 15.696 88.4221 15.3188 88.5969 14.8416C88.7758 14.36 88.8653 13.8125 88.8653 13.1988C88.8653 12.5894 88.778 12.0483 88.6032 11.5752C88.4285 11.1022 88.1686 10.7315 87.8234 10.463C87.4782 10.1946 87.0479 10.0603 86.5322 10.0603C86.0379 10.0603 85.6182 10.1903 85.273 10.4502C84.9278 10.7102 84.6657 11.0745 84.4868 11.5433C84.3121 12.012 84.2247 12.5639 84.2247 13.1988ZM97.4882 18.2997C96.5294 18.2997 95.6984 18.0887 94.9953 17.6669C94.2922 17.245 93.7467 16.6548 93.3589 15.8963C92.9754 15.1377 92.7836 14.2514 92.7836 13.2372C92.7836 12.223 92.9754 11.3345 93.3589 10.5717C93.7467 9.8089 94.2922 9.21657 94.9953 8.7947C95.6984 8.37283 96.5294 8.16189 97.4882 8.16189C98.447 8.16189 99.278 8.37283 99.9811 8.7947C100.684 9.21657 101.228 9.8089 101.611 10.5717C101.999 11.3345 102.193 12.223 102.193 13.2372C102.193 14.2514 101.999 15.1377 101.611 15.8963C101.228 16.6548 100.684 17.245 99.9811 17.6669C99.278 18.0887 98.447 18.2997 97.4882 18.2997ZM97.501 16.446C98.0209 16.446 98.4555 16.3032 98.805 16.0177C99.1544 15.7279 99.4143 15.3402 99.5848 14.8544C99.7595 14.3686 99.8469 13.8274 99.8469 13.2308C99.8469 12.6299 99.7595 12.0866 99.5848 11.6008C99.4143 11.1108 99.1544 10.7208 98.805 10.4311C98.4555 10.1413 98.0209 9.9964 97.501 9.9964C96.9683 9.9964 96.5251 10.1413 96.1714 10.4311C95.822 10.7208 95.5599 11.1108 95.3852 11.6008C95.2148 12.0866 95.1295 12.6299 95.1295 13.2308C95.1295 13.8274 95.2148 14.3686 95.3852 14.8544C95.5599 15.3402 95.822 15.7279 96.1714 16.0177C96.5251 16.3032 96.9683 16.446 97.501 16.446ZM110.415 13.9786V8.28973H112.728V18.1079H110.485V16.3629H110.383C110.161 16.9126 109.797 17.3622 109.29 17.7116C108.787 18.061 108.167 18.2358 107.429 18.2358C106.786 18.2358 106.217 18.093 105.723 17.8075C105.233 17.5177 104.849 17.098 104.572 16.5483C104.295 15.9943 104.157 15.3252 104.157 14.5411V8.28973H106.471V14.1832C106.471 14.8054 106.641 15.2997 106.982 15.6661C107.323 16.0326 107.77 16.2159 108.324 16.2159C108.665 16.2159 108.995 16.1328 109.315 15.9666C109.635 15.8004 109.897 15.5532 110.101 15.2251C110.31 14.8927 110.415 14.4772 110.415 13.9786ZM115.108 18.1079V8.28973H117.351V9.92609H117.454C117.633 9.35933 117.94 8.92254 118.374 8.61572C118.813 8.30464 119.314 8.1491 119.876 8.1491C120.004 8.1491 120.147 8.15549 120.305 8.16828C120.467 8.1768 120.601 8.19172 120.707 8.21302V10.3416C120.609 10.3075 120.454 10.2777 120.241 10.2521C120.032 10.2223 119.829 10.2073 119.633 10.2073C119.212 10.2073 118.832 10.299 118.496 10.4822C118.163 10.6612 117.901 10.9105 117.709 11.2301C117.518 11.5497 117.422 11.9183 117.422 12.3359V18.1079H115.108ZM129.023 5.017V18.1079H126.709V5.017H129.023ZM135.749 18.2997C134.765 18.2997 133.915 18.0951 133.199 17.686C132.487 17.2727 131.94 16.6889 131.556 15.9346C131.173 15.1761 130.981 14.2833 130.981 13.2563C130.981 12.2464 131.173 11.36 131.556 10.5973C131.944 9.83021 132.485 9.23362 133.18 8.80748C133.874 8.37709 134.69 8.16189 135.628 8.16189C136.233 8.16189 136.804 8.2599 137.341 8.45592C137.882 8.64768 138.359 8.94598 138.773 9.35081C139.19 9.75564 139.519 10.2713 139.757 10.8977C139.996 11.5198 140.115 12.2613 140.115 13.1221V13.8316H132.068V12.272H137.897C137.893 11.8288 137.797 11.4346 137.609 11.0894C137.422 10.74 137.16 10.4652 136.823 10.2649C136.491 10.0646 136.103 9.96444 135.66 9.96444C135.187 9.96444 134.771 10.0795 134.413 10.3096C134.055 10.5355 133.776 10.8338 133.576 11.2045C133.38 11.571 133.28 11.9737 133.276 12.4126V13.7741C133.276 14.3451 133.38 14.8352 133.589 15.2443C133.798 15.6491 134.09 15.9602 134.465 16.1775C134.84 16.3906 135.278 16.4971 135.781 16.4971C136.118 16.4971 136.423 16.4502 136.695 16.3565C136.968 16.2585 137.205 16.1157 137.405 15.9282C137.605 15.7407 137.756 15.5085 137.859 15.2315L140.019 15.4744C139.883 16.0454 139.623 16.544 139.239 16.9701C138.86 17.392 138.374 17.7201 137.782 17.9545C137.19 18.1846 136.512 18.2997 135.749 18.2997ZM146.538 18.1079V8.28973H148.749V9.95805H148.864C149.069 9.39555 149.408 8.95663 149.881 8.64129C150.354 8.32169 150.918 8.16189 151.574 8.16189C152.239 8.16189 152.8 8.32382 153.256 8.64768C153.716 8.96728 154.04 9.40407 154.227 9.95805H154.329C154.547 9.4126 154.913 8.97794 155.429 8.65408C155.949 8.32595 156.565 8.16189 157.276 8.16189C158.18 8.16189 158.917 8.4474 159.488 9.01842C160.059 9.58944 160.344 10.4225 160.344 11.5177V18.1079H158.024V11.8757C158.024 11.2663 157.862 10.821 157.538 10.5397C157.214 10.2542 156.818 10.1115 156.349 10.1115C155.791 10.1115 155.354 10.2862 155.039 10.6356C154.728 10.9808 154.572 11.4304 154.572 11.9843V18.1079H152.303V11.7798C152.303 11.2727 152.15 10.8679 151.843 10.5653C151.54 10.2627 151.144 10.1115 150.654 10.1115C150.322 10.1115 150.019 10.1967 149.746 10.3671C149.474 10.5333 149.256 10.7698 149.094 11.0767C148.932 11.3792 148.851 11.7329 148.851 12.1377V18.1079H146.538ZM165.517 18.3061C164.895 18.3061 164.335 18.1953 163.836 17.9737C163.342 17.7478 162.95 17.4154 162.66 16.9765C162.374 16.5376 162.232 15.9964 162.232 15.3529C162.232 14.799 162.334 14.3409 162.538 13.9786C162.743 13.6164 163.022 13.3267 163.376 13.1093C163.729 12.892 164.128 12.7279 164.571 12.6171C165.019 12.5021 165.481 12.419 165.958 12.3679C166.533 12.3082 167 12.2549 167.358 12.2081C167.716 12.1569 167.976 12.0802 168.138 11.9779C168.304 11.8714 168.387 11.7073 168.387 11.4858V11.4474C168.387 10.9659 168.244 10.593 167.959 10.3288C167.673 10.0646 167.262 9.93248 166.725 9.93248C166.158 9.93248 165.709 10.0561 165.377 10.3032C165.048 10.5504 164.827 10.8423 164.712 11.1789L162.551 10.8721C162.722 10.2755 163.003 9.77694 163.395 9.37638C163.787 8.97155 164.266 8.66899 164.833 8.46871C165.4 8.26416 166.026 8.16189 166.712 8.16189C167.185 8.16189 167.656 8.21729 168.125 8.32808C168.594 8.43888 169.022 8.62211 169.41 8.8778C169.798 9.12922 170.109 9.47226 170.343 9.90692C170.582 10.3416 170.701 10.8849 170.701 11.5369V18.1079H168.477V16.7592H168.4C168.259 17.0319 168.061 17.2876 167.805 17.5262C167.554 17.7606 167.237 17.9502 166.853 18.0951C166.474 18.2358 166.028 18.3061 165.517 18.3061ZM166.118 16.6058C166.582 16.6058 166.985 16.5142 167.326 16.3309C167.667 16.1434 167.929 15.8963 168.112 15.5894C168.3 15.2826 168.394 14.9481 168.394 14.5859V13.4289C168.321 13.4886 168.198 13.544 168.023 13.5951C167.852 13.6463 167.661 13.691 167.448 13.7294C167.234 13.7677 167.024 13.8018 166.815 13.8316C166.606 13.8615 166.425 13.887 166.271 13.9083C165.926 13.9552 165.617 14.0319 165.345 14.1384C165.072 14.245 164.857 14.3941 164.699 14.5859C164.541 14.7734 164.462 15.0163 164.462 15.3146C164.462 15.7407 164.618 16.0625 164.929 16.2798C165.24 16.4971 165.636 16.6058 166.118 16.6058ZM173.028 18.1079V8.28973H175.342V18.1079H173.028ZM174.191 6.89626C173.825 6.89626 173.509 6.77481 173.245 6.53192C172.981 6.28476 172.849 5.98859 172.849 5.64342C172.849 5.29399 172.981 4.99782 173.245 4.75493C173.509 4.50777 173.825 4.38419 174.191 4.38419C174.562 4.38419 174.877 4.50777 175.137 4.75493C175.401 4.99782 175.533 5.29399 175.533 5.64342C175.533 5.98859 175.401 6.28476 175.137 6.53192C174.877 6.77481 174.562 6.89626 174.191 6.89626ZM177.721 18.1079V8.28973H179.965V9.92609H180.067C180.246 9.35933 180.553 8.92254 180.987 8.61572C181.426 8.30464 181.927 8.1491 182.49 8.1491C182.617 8.1491 182.76 8.15549 182.918 8.16828C183.08 8.1768 183.214 8.19172 183.321 8.21302V10.3416C183.223 10.3075 183.067 10.2777 182.854 10.2521C182.645 10.2223 182.443 10.2073 182.247 10.2073C181.825 10.2073 181.446 10.299 181.109 10.4822C180.777 10.6612 180.514 10.9105 180.323 11.2301C180.131 11.5497 180.035 11.9183 180.035 12.3359V18.1079H177.721ZM188.8 18.2997C187.816 18.2997 186.966 18.0951 186.25 17.686C185.538 17.2727 184.991 16.6889 184.607 15.9346C184.223 15.1761 184.032 14.2833 184.032 13.2563C184.032 12.2464 184.223 11.36 184.607 10.5973C184.995 9.83021 185.536 9.23362 186.231 8.80748C186.925 8.37709 187.741 8.16189 188.679 8.16189C189.284 8.16189 189.855 8.2599 190.392 8.45592C190.933 8.64768 191.41 8.94598 191.824 9.35081C192.241 9.75564 192.569 10.2713 192.808 10.8977C193.047 11.5198 193.166 12.2613 193.166 13.1221V13.8316H185.118V12.272H190.948C190.944 11.8288 190.848 11.4346 190.66 11.0894C190.473 10.74 190.211 10.4652 189.874 10.2649C189.542 10.0646 189.154 9.96444 188.711 9.96444C188.238 9.96444 187.822 10.0795 187.464 10.3096C187.106 10.5355 186.827 10.8338 186.627 11.2045C186.431 11.571 186.331 11.9737 186.326 12.4126V13.7741C186.326 14.3451 186.431 14.8352 186.64 15.2443C186.848 15.6491 187.14 15.9602 187.515 16.1775C187.89 16.3906 188.329 16.4971 188.832 16.4971C189.169 16.4971 189.473 16.4502 189.746 16.3565C190.019 16.2585 190.255 16.1157 190.456 15.9282C190.656 15.7407 190.807 15.5085 190.91 15.2315L193.07 15.4744C192.934 16.0454 192.674 16.544 192.29 16.9701C191.911 17.392 191.425 17.7201 190.833 17.9545C190.241 18.1846 189.563 18.2997 188.8 18.2997Z" fill="#F4CE7B"/>
<path d="M16.6457 10.3175L15.986 9.17607C15.9251 9.07258 15.8385 8.98678 15.7339 8.92719C15.6748 8.8934 15.6113 8.8687 15.5453 8.85363C15.4951 8.84211 15.4437 8.83623 15.3914 8.83623C15.2714 8.83623 15.1535 8.86758 15.0493 8.92719C14.9448 8.98678 14.8577 9.07258 14.7969 9.17607L14.1157 10.3262C14.0677 10.4115 14.0017 10.4852 13.9224 10.5422C13.8427 10.5992 13.7518 10.6381 13.6554 10.656L12.3535 10.9121C12.2356 10.9338 12.1263 10.987 12.0363 11.0658C11.9823 11.1133 11.9364 11.1691 11.9004 11.2308C11.8764 11.2716 11.8571 11.315 11.8426 11.3603C11.8053 11.4742 11.8001 11.5959 11.8267 11.7125C11.8533 11.8292 11.9107 11.9365 11.9935 12.0232L12.9048 12.9867C12.9712 13.0566 13.0209 13.1404 13.051 13.2319C13.081 13.3235 13.0904 13.4206 13.0784 13.5162L12.9219 14.8182C12.9095 14.9388 12.9292 15.0606 12.9794 15.171C13.0291 15.2814 13.108 15.3764 13.207 15.4463C13.306 15.5162 13.4222 15.5584 13.5426 15.5685C13.6635 15.5786 13.7848 15.5564 13.8941 15.5039L15.1136 14.9527C15.1445 14.9389 15.1762 14.9273 15.2084 14.918C15.2705 14.9001 15.3353 14.8909 15.4004 14.8909C15.499 14.8909 15.5967 14.912 15.6868 14.9527L16.9063 15.5039C17.0152 15.5542 17.1356 15.5748 17.2552 15.5637C17.3744 15.5525 17.4888 15.5099 17.587 15.4404C17.6847 15.3708 17.7623 15.2766 17.812 15.1673C17.8343 15.1179 17.8506 15.0663 17.8609 15.0134C17.8733 14.9494 17.8763 14.8836 17.8699 14.8182L17.7134 13.5162C17.7066 13.4618 17.707 13.4069 17.7139 13.3529C17.719 13.3119 17.728 13.2714 17.7409 13.2319C17.7709 13.1404 17.8206 13.0566 17.887 12.9867L18.7984 12.0232C18.8464 11.9723 18.8862 11.9144 18.9163 11.8518C18.9377 11.8069 18.954 11.7596 18.9647 11.7107C18.9908 11.5934 18.9844 11.4712 18.9467 11.3572C18.9274 11.2992 18.9004 11.2445 18.8665 11.1944C18.8335 11.1459 18.7945 11.1017 18.7499 11.0632C18.6586 10.9848 18.548 10.9326 18.4297 10.9121L17.106 10.6474C17.0096 10.6294 16.9187 10.5905 16.8394 10.5336C16.7597 10.4766 16.6937 10.4028 16.6457 10.3175Z" fill="#F4CE7B"/>
<path fill-rule="evenodd" clip-rule="evenodd" d="M7.34383 12.0725C7.34383 12.4644 7.21909 12.8738 7.09564 13.2786C6.93103 13.8196 6.76857 14.3524 6.91003 14.8241C7.05449 15.3059 7.52644 15.6573 7.99796 16.0082C8.33317 16.2579 8.66795 16.5073 8.88442 16.8032C9.09875 17.0964 9.23249 17.4779 9.36708 17.8619C9.55912 18.4103 9.75287 18.9639 10.1867 19.2727C10.6243 19.5844 11.2073 19.5904 11.7877 19.5963C12.1855 19.6004 12.582 19.6044 12.9296 19.7068C13.2953 19.8144 13.6314 20.061 13.9683 20.308C14.4192 20.6385 14.871 20.9697 15.3948 20.9697C15.9354 20.9697 16.4168 20.6311 16.89 20.2983C17.2188 20.0671 17.5437 19.8387 17.8815 19.7284C18.2287 19.6152 18.6436 19.608 19.0607 19.6009C19.6342 19.591 20.2125 19.581 20.6244 19.2944C21.0368 19.0079 21.2263 18.471 21.4183 17.9274C21.5576 17.5323 21.6982 17.1336 21.9267 16.8249C22.1517 16.5204 22.478 16.275 22.8024 16.0309C23.2594 15.6871 23.7129 15.3459 23.8754 14.8458C24.0365 14.3491 23.8715 13.8098 23.7048 13.2655C23.5843 12.873 23.463 12.4779 23.463 12.0942C23.463 11.7079 23.5843 11.3045 23.7043 10.9054C23.8689 10.3584 24.031 9.81931 23.8754 9.34258C23.7181 8.8607 23.2495 8.50184 22.7832 8.14473C22.4518 7.89074 22.1213 7.63764 21.9048 7.3418C21.6905 7.04861 21.5568 6.66706 21.4226 6.28298C21.2306 5.73462 21.0368 5.18112 20.603 4.87228C20.1654 4.56064 19.582 4.55467 19.0016 4.54873C18.6042 4.54466 18.2077 4.5406 17.86 4.43826C17.494 4.33056 17.1575 4.08386 16.8206 3.83679C16.37 3.50636 15.9187 3.17529 15.3948 3.17529C14.8547 3.17529 14.3734 3.51376 13.8997 3.84656C13.5709 4.07778 13.246 4.30625 12.9078 4.41656C12.561 4.52982 12.1461 4.53697 11.729 4.54417C11.1554 4.55406 10.5772 4.56404 10.1648 4.85057C9.75287 5.13716 9.56298 5.67418 9.37094 6.21792C9.23163 6.61293 9.09103 7.01147 8.86298 7.3201C8.63794 7.6245 8.31173 7.86985 7.98724 8.11385C7.53029 8.45778 7.07678 8.79902 6.91431 9.29918C6.75314 9.79501 6.92332 10.3405 7.09478 10.8899C7.21909 11.2878 7.34383 11.6878 7.34383 12.0725ZM15.3953 6.28553C12.1268 6.28553 9.47725 8.93512 9.47725 12.2036C9.47725 15.472 12.1268 18.1216 15.3953 18.1216C18.6638 18.1216 21.3133 15.472 21.3133 12.2036C21.3133 8.93512 18.6638 6.28553 15.3953 6.28553Z" fill="#F4CE7B"/>
</svg>
