<svg width="198" height="25" viewBox="0 0 198 25" fill="none" xmlns="http://www.w3.org/2000/svg">
<rect x="0.810547" y="0.10791" width="197.014" height="24.0516" rx="5" fill="#061F31"/>
<path d="M31.8034 5.017L35.2103 15.321H35.3445L38.7451 5.017H41.3531L36.738 18.1079H33.8105L29.2018 5.017H31.8034ZM46.203 18.2997C45.2442 18.2997 44.4133 18.0887 43.7101 17.6669C43.007 17.245 42.4616 16.6548 42.0738 15.8963C41.6903 15.1377 41.4985 14.2514 41.4985 13.2372C41.4985 12.223 41.6903 11.3345 42.0738 10.5717C42.4616 9.8089 43.007 9.21657 43.7101 8.7947C44.4133 8.37283 45.2442 8.16189 46.203 8.16189C47.1618 8.16189 47.9928 8.37283 48.6959 8.7947C49.3991 9.21657 49.9424 9.8089 50.3259 10.5717C50.7137 11.3345 50.9076 12.223 50.9076 13.2372C50.9076 14.2514 50.7137 15.1377 50.3259 15.8963C49.9424 16.6548 49.3991 17.245 48.6959 17.6669C47.9928 18.0887 47.1618 18.2997 46.203 18.2997ZM46.2158 16.446C46.7357 16.446 47.1704 16.3032 47.5198 16.0177C47.8692 15.7279 48.1292 15.3402 48.2996 14.8544C48.4743 14.3686 48.5617 13.8274 48.5617 13.2308C48.5617 12.6299 48.4743 12.0866 48.2996 11.6008C48.1292 11.1108 47.8692 10.7208 47.5198 10.4311C47.1704 10.1413 46.7357 9.9964 46.2158 9.9964C45.6832 9.9964 45.24 10.1413 44.8863 10.4311C44.5368 10.7208 44.2748 11.1108 44.1001 11.6008C43.9296 12.0866 43.8444 12.6299 43.8444 13.2308C43.8444 13.8274 43.9296 14.3686 44.1001 14.8544C44.2748 15.3402 44.5368 15.7279 44.8863 16.0177C45.24 16.3032 45.6832 16.446 46.2158 16.446ZM57.7742 8.28973V10.0795H52.1301V8.28973H57.7742ZM53.5235 5.93746H55.8374V15.1548C55.8374 15.4659 55.8843 15.7045 55.9781 15.8707C56.0761 16.0326 56.2039 16.1434 56.3616 16.2031C56.5193 16.2627 56.694 16.2926 56.8857 16.2926C57.0306 16.2926 57.1627 16.2819 57.282 16.2606C57.4056 16.2393 57.4994 16.2201 57.5633 16.2031L57.9532 18.012C57.8296 18.0546 57.6528 18.1015 57.4227 18.1527C57.1968 18.2038 56.9198 18.2336 56.5917 18.2421C56.0122 18.2592 55.4901 18.1718 55.0257 17.9801C54.5612 17.784 54.1926 17.4815 53.9198 17.0724C53.6514 16.6633 53.5193 16.1519 53.5235 15.5383V5.93746ZM63.9506 18.2997C62.9662 18.2997 62.116 18.0951 61.4001 17.686C60.6885 17.2727 60.1409 16.6889 59.7574 15.9346C59.3738 15.1761 59.1821 14.2833 59.1821 13.2563C59.1821 12.2464 59.3738 11.36 59.7574 10.5973C60.1452 9.83021 60.6863 9.23362 61.3809 8.80748C62.0756 8.37709 62.8916 8.16189 63.8291 8.16189C64.4342 8.16189 65.0052 8.2599 65.5422 8.45592C66.0834 8.64768 66.5606 8.94598 66.974 9.35081C67.3916 9.75564 67.7197 10.2713 67.9584 10.8977C68.197 11.5198 68.3163 12.2613 68.3163 13.1221V13.8316H60.2687V12.272H66.0983C66.094 11.8288 65.9981 11.4346 65.8106 11.0894C65.6231 10.74 65.3611 10.4652 65.0244 10.2649C64.692 10.0646 64.3042 9.96444 63.8611 9.96444C63.3881 9.96444 62.9726 10.0795 62.6146 10.3096C62.2567 10.5355 61.9775 10.8338 61.7773 11.2045C61.5812 11.571 61.4811 11.9737 61.4768 12.4126V13.7741C61.4768 14.3451 61.5812 14.8352 61.79 15.2443C61.9988 15.6491 62.2907 15.9602 62.6657 16.1775C63.0407 16.3906 63.4797 16.4971 63.9825 16.4971C64.3192 16.4971 64.6238 16.4502 64.8966 16.3565C65.1693 16.2585 65.4058 16.1157 65.6061 15.9282C65.8064 15.7407 65.9577 15.5085 66.0599 15.2315L68.2204 15.4744C68.0841 16.0454 67.8241 16.544 67.4406 16.9701C67.0613 17.392 66.5756 17.7201 65.9832 17.9545C65.3909 18.1846 64.7133 18.2997 63.9506 18.2997ZM70.2739 18.1079V8.28973H72.5175V9.92609H72.6198C72.7987 9.35933 73.1056 8.92254 73.5402 8.61572C73.9791 8.30464 74.4798 8.1491 75.0423 8.1491C75.1702 8.1491 75.3129 8.15549 75.4706 8.16828C75.6325 8.1768 75.7668 8.19172 75.8733 8.21302V10.3416C75.7753 10.3075 75.6198 10.2777 75.4067 10.2521C75.1979 10.2223 74.9955 10.2073 74.7994 10.2073C74.3776 10.2073 73.9983 10.299 73.6617 10.4822C73.3293 10.6612 73.0672 10.9105 72.8754 11.2301C72.6837 11.5497 72.5878 11.9183 72.5878 12.3359V18.1079H70.2739ZM81.8754 21.7897V8.28973H84.151V9.91331H84.2852C84.4046 9.67467 84.5729 9.42112 84.7902 9.15265C85.0075 8.87993 85.3016 8.64768 85.6723 8.45592C86.0431 8.2599 86.5161 8.16189 87.0914 8.16189C87.8499 8.16189 88.5338 8.35578 89.1432 8.74356C89.7568 9.12709 90.2426 9.69598 90.6006 10.4502C90.9628 11.2002 91.1439 12.1207 91.1439 13.2116C91.1439 14.2897 90.9671 15.2059 90.6134 15.9602C90.2597 16.7144 89.7781 17.2897 89.1688 17.686C88.5594 18.0823 87.8691 18.2805 87.0977 18.2805C86.5352 18.2805 86.0686 18.1867 85.6979 17.9992C85.3271 17.8117 85.0289 17.5859 84.803 17.3217C84.5814 17.0532 84.4088 16.7997 84.2852 16.561H84.1894V21.7897H81.8754ZM84.1446 13.1988C84.1446 13.8338 84.2341 14.3899 84.4131 14.8671C84.5963 15.3444 84.8584 15.7173 85.1993 15.9858C85.5445 16.25 85.9621 16.3821 86.4521 16.3821C86.9635 16.3821 87.3918 16.2457 87.7369 15.973C88.0821 15.696 88.3421 15.3188 88.5168 14.8416C88.6958 14.36 88.7852 13.8125 88.7852 13.1988C88.7852 12.5894 88.6979 12.0483 88.5232 11.5752C88.3485 11.1022 88.0885 10.7315 87.7433 10.463C87.3982 10.1946 86.9678 10.0603 86.4521 10.0603C85.9578 10.0603 85.5381 10.1903 85.1929 10.4502C84.8477 10.7102 84.5857 11.0745 84.4067 11.5433C84.232 12.012 84.1446 12.5639 84.1446 13.1988ZM97.4081 18.2997C96.4493 18.2997 95.6183 18.0887 94.9152 17.6669C94.2121 17.245 93.6666 16.6548 93.2789 15.8963C92.8953 15.1377 92.7036 14.2514 92.7036 13.2372C92.7036 12.223 92.8953 11.3345 93.2789 10.5717C93.6666 9.8089 94.2121 9.21657 94.9152 8.7947C95.6183 8.37283 96.4493 8.16189 97.4081 8.16189C98.3669 8.16189 99.1979 8.37283 99.901 8.7947C100.604 9.21657 101.147 9.8089 101.531 10.5717C101.919 11.3345 102.113 12.223 102.113 13.2372C102.113 14.2514 101.919 15.1377 101.531 15.8963C101.147 16.6548 100.604 17.245 99.901 17.6669C99.1979 18.0887 98.3669 18.2997 97.4081 18.2997ZM97.4209 16.446C97.9408 16.446 98.3754 16.3032 98.7249 16.0177C99.0743 15.7279 99.3343 15.3402 99.5047 14.8544C99.6794 14.3686 99.7668 13.8274 99.7668 13.2308C99.7668 12.6299 99.6794 12.0866 99.5047 11.6008C99.3343 11.1108 99.0743 10.7208 98.7249 10.4311C98.3754 10.1413 97.9408 9.9964 97.4209 9.9964C96.8882 9.9964 96.445 10.1413 96.0914 10.4311C95.7419 10.7208 95.4798 11.1108 95.3051 11.6008C95.1347 12.0866 95.0494 12.6299 95.0494 13.2308C95.0494 13.8274 95.1347 14.3686 95.3051 14.8544C95.4798 15.3402 95.7419 15.7279 96.0914 16.0177C96.445 16.3032 96.8882 16.446 97.4209 16.446ZM110.334 13.9786V8.28973H112.648V18.1079H110.405V16.3629H110.302C110.081 16.9126 109.717 17.3622 109.209 17.7116C108.707 18.061 108.087 18.2358 107.349 18.2358C106.706 18.2358 106.137 18.093 105.643 17.8075C105.153 17.5177 104.769 17.098 104.492 16.5483C104.215 15.9943 104.077 15.3252 104.077 14.5411V8.28973H106.391V14.1832C106.391 14.8054 106.561 15.2997 106.902 15.6661C107.243 16.0326 107.69 16.2159 108.244 16.2159C108.585 16.2159 108.915 16.1328 109.235 15.9666C109.555 15.8004 109.817 15.5532 110.021 15.2251C110.23 14.8927 110.334 14.4772 110.334 13.9786ZM115.028 18.1079V8.28973H117.271V9.92609H117.374C117.553 9.35933 117.859 8.92254 118.294 8.61572C118.733 8.30464 119.234 8.1491 119.796 8.1491C119.924 8.1491 120.067 8.15549 120.225 8.16828C120.386 8.1768 120.521 8.19172 120.627 8.21302V10.3416C120.529 10.3075 120.374 10.2777 120.161 10.2521C119.952 10.2223 119.749 10.2073 119.553 10.2073C119.131 10.2073 118.752 10.299 118.416 10.4822C118.083 10.6612 117.821 10.9105 117.629 11.2301C117.438 11.5497 117.342 11.9183 117.342 12.3359V18.1079H115.028ZM128.943 5.017V18.1079H126.629V5.017H128.943ZM135.669 18.2997C134.685 18.2997 133.835 18.0951 133.119 17.686C132.407 17.2727 131.86 16.6889 131.476 15.9346C131.093 15.1761 130.901 14.2833 130.901 13.2563C130.901 12.2464 131.093 11.36 131.476 10.5973C131.864 9.83021 132.405 9.23362 133.1 8.80748C133.794 8.37709 134.61 8.16189 135.548 8.16189C136.153 8.16189 136.724 8.2599 137.261 8.45592C137.802 8.64768 138.279 8.94598 138.693 9.35081C139.11 9.75564 139.438 10.2713 139.677 10.8977C139.916 11.5198 140.035 12.2613 140.035 13.1221V13.8316H131.987V12.272H137.817C137.813 11.8288 137.717 11.4346 137.529 11.0894C137.342 10.74 137.08 10.4652 136.743 10.2649C136.411 10.0646 136.023 9.96444 135.58 9.96444C135.107 9.96444 134.691 10.0795 134.333 10.3096C133.975 10.5355 133.696 10.8338 133.496 11.2045C133.3 11.571 133.2 11.9737 133.196 12.4126V13.7741C133.196 14.3451 133.3 14.8352 133.509 15.2443C133.718 15.6491 134.009 15.9602 134.384 16.1775C134.759 16.3906 135.198 16.4971 135.701 16.4971C136.038 16.4971 136.343 16.4502 136.615 16.3565C136.888 16.2585 137.125 16.1157 137.325 15.9282C137.525 15.7407 137.676 15.5085 137.779 15.2315L139.939 15.4744C139.803 16.0454 139.543 16.544 139.159 16.9701C138.78 17.392 138.294 17.7201 137.702 17.9545C137.11 18.1846 136.432 18.2997 135.669 18.2997ZM146.457 18.1079V8.28973H148.669V9.95805H148.784C148.989 9.39555 149.328 8.95663 149.801 8.64129C150.274 8.32169 150.838 8.16189 151.494 8.16189C152.159 8.16189 152.72 8.32382 153.176 8.64768C153.636 8.96728 153.96 9.40407 154.147 9.95805H154.249C154.467 9.4126 154.833 8.97794 155.349 8.65408C155.869 8.32595 156.484 8.16189 157.196 8.16189C158.1 8.16189 158.837 8.4474 159.408 9.01842C159.979 9.58944 160.264 10.4225 160.264 11.5177V18.1079H157.944V11.8757C157.944 11.2663 157.782 10.821 157.458 10.5397C157.134 10.2542 156.738 10.1115 156.269 10.1115C155.711 10.1115 155.274 10.2862 154.959 10.6356C154.648 10.9808 154.492 11.4304 154.492 11.9843V18.1079H152.223V11.7798C152.223 11.2727 152.07 10.8679 151.763 10.5653C151.46 10.2627 151.064 10.1115 150.574 10.1115C150.242 10.1115 149.939 10.1967 149.666 10.3671C149.394 10.5333 149.176 10.7698 149.014 11.0767C148.852 11.3792 148.771 11.7329 148.771 12.1377V18.1079H146.457ZM165.437 18.3061C164.815 18.3061 164.255 18.1953 163.756 17.9737C163.262 17.7478 162.87 17.4154 162.58 16.9765C162.294 16.5376 162.152 15.9964 162.152 15.3529C162.152 14.799 162.254 14.3409 162.458 13.9786C162.663 13.6164 162.942 13.3267 163.296 13.1093C163.649 12.892 164.048 12.7279 164.491 12.6171C164.938 12.5021 165.401 12.419 165.878 12.3679C166.453 12.3082 166.92 12.2549 167.278 12.2081C167.636 12.1569 167.896 12.0802 168.058 11.9779C168.224 11.8714 168.307 11.7073 168.307 11.4858V11.4474C168.307 10.9659 168.164 10.593 167.879 10.3288C167.593 10.0646 167.182 9.93248 166.645 9.93248C166.078 9.93248 165.629 10.0561 165.296 10.3032C164.968 10.5504 164.747 10.8423 164.632 11.1789L162.471 10.8721C162.642 10.2755 162.923 9.77694 163.315 9.37638C163.707 8.97155 164.186 8.66899 164.753 8.46871C165.32 8.26416 165.946 8.16189 166.632 8.16189C167.105 8.16189 167.576 8.21729 168.045 8.32808C168.514 8.43888 168.942 8.62211 169.33 8.8778C169.718 9.12922 170.029 9.47226 170.263 9.90692C170.502 10.3416 170.621 10.8849 170.621 11.5369V18.1079H168.397V16.7592H168.32C168.179 17.0319 167.981 17.2876 167.725 17.5262C167.474 17.7606 167.157 17.9502 166.773 18.0951C166.394 18.2358 165.948 18.3061 165.437 18.3061ZM166.038 16.6058C166.502 16.6058 166.905 16.5142 167.246 16.3309C167.587 16.1434 167.849 15.8963 168.032 15.5894C168.22 15.2826 168.313 14.9481 168.313 14.5859V13.4289C168.241 13.4886 168.117 13.544 167.943 13.5951C167.772 13.6463 167.581 13.691 167.367 13.7294C167.154 13.7677 166.943 13.8018 166.735 13.8316C166.526 13.8615 166.345 13.887 166.191 13.9083C165.846 13.9552 165.537 14.0319 165.264 14.1384C164.992 14.245 164.777 14.3941 164.619 14.5859C164.461 14.7734 164.382 15.0163 164.382 15.3146C164.382 15.7407 164.538 16.0625 164.849 16.2798C165.16 16.4971 165.556 16.6058 166.038 16.6058ZM172.948 18.1079V8.28973H175.262V18.1079H172.948ZM174.111 6.89626C173.745 6.89626 173.429 6.77481 173.165 6.53192C172.901 6.28476 172.769 5.98859 172.769 5.64342C172.769 5.29399 172.901 4.99782 173.165 4.75493C173.429 4.50777 173.745 4.38419 174.111 4.38419C174.482 4.38419 174.797 4.50777 175.057 4.75493C175.321 4.99782 175.453 5.29399 175.453 5.64342C175.453 5.98859 175.321 6.28476 175.057 6.53192C174.797 6.77481 174.482 6.89626 174.111 6.89626ZM177.641 18.1079V8.28973H179.885V9.92609H179.987C180.166 9.35933 180.473 8.92254 180.907 8.61572C181.346 8.30464 181.847 8.1491 182.41 8.1491C182.537 8.1491 182.68 8.15549 182.838 8.16828C183 8.1768 183.134 8.19172 183.241 8.21302V10.3416C183.142 10.3075 182.987 10.2777 182.774 10.2521C182.565 10.2223 182.363 10.2073 182.167 10.2073C181.745 10.2073 181.366 10.299 181.029 10.4822C180.696 10.6612 180.434 10.9105 180.243 11.2301C180.051 11.5497 179.955 11.9183 179.955 12.3359V18.1079H177.641ZM188.72 18.2997C187.736 18.2997 186.886 18.0951 186.17 17.686C185.458 17.2727 184.91 16.6889 184.527 15.9346C184.143 15.1761 183.952 14.2833 183.952 13.2563C183.952 12.2464 184.143 11.36 184.527 10.5973C184.915 9.83021 185.456 9.23362 186.15 8.80748C186.845 8.37709 187.661 8.16189 188.599 8.16189C189.204 8.16189 189.775 8.2599 190.312 8.45592C190.853 8.64768 191.33 8.94598 191.744 9.35081C192.161 9.75564 192.489 10.2713 192.728 10.8977C192.967 11.5198 193.086 12.2613 193.086 13.1221V13.8316H185.038V12.272H190.868C190.864 11.8288 190.768 11.4346 190.58 11.0894C190.393 10.74 190.131 10.4652 189.794 10.2649C189.462 10.0646 189.074 9.96444 188.631 9.96444C188.158 9.96444 187.742 10.0795 187.384 10.3096C187.026 10.5355 186.747 10.8338 186.547 11.2045C186.351 11.571 186.251 11.9737 186.246 12.4126V13.7741C186.246 14.3451 186.351 14.8352 186.56 15.2443C186.768 15.6491 187.06 15.9602 187.435 16.1775C187.81 16.3906 188.249 16.4971 188.752 16.4971C189.089 16.4971 189.393 16.4502 189.666 16.3565C189.939 16.2585 190.175 16.1157 190.376 15.9282C190.576 15.7407 190.727 15.5085 190.829 15.2315L192.99 15.4744C192.854 16.0454 192.594 16.544 192.21 16.9701C191.831 17.392 191.345 17.7201 190.753 17.9545C190.16 18.1846 189.483 18.2997 188.72 18.2997Z" fill="#61646B"/>
<path d="M16.5656 10.3175L15.9059 9.17607C15.845 9.07258 15.7584 8.98678 15.6538 8.92719C15.5947 8.8934 15.5312 8.8687 15.4652 8.85363C15.4151 8.84211 15.3636 8.83623 15.3113 8.83623C15.1913 8.83623 15.0734 8.86758 14.9693 8.92719C14.8647 8.98678 14.7777 9.07258 14.7168 9.17607L14.0357 10.3262C13.9876 10.4115 13.9216 10.4852 13.8423 10.5422C13.7626 10.5992 13.6717 10.6381 13.5753 10.656L12.2735 10.9121C12.1556 10.9338 12.0463 10.987 11.9562 11.0658C11.9022 11.1133 11.8564 11.1691 11.8204 11.2308C11.7964 11.2716 11.7771 11.315 11.7625 11.3603C11.7252 11.4742 11.7201 11.5959 11.7466 11.7125C11.7732 11.8292 11.8307 11.9365 11.9134 12.0232L12.8247 12.9867C12.8911 13.0566 12.9409 13.1404 12.9709 13.2319C13.0009 13.3235 13.0103 13.4206 12.9983 13.5162L12.8418 14.8182C12.8294 14.9388 12.8491 15.0606 12.8993 15.171C12.949 15.2814 13.0279 15.3764 13.1269 15.4463C13.2259 15.5162 13.3421 15.5584 13.4625 15.5685C13.5834 15.5786 13.7047 15.5564 13.814 15.5039L15.0336 14.9527C15.0644 14.9389 15.0961 14.9273 15.1283 14.918C15.1905 14.9001 15.2552 14.8909 15.3203 14.8909C15.4189 14.8909 15.5167 14.912 15.6067 14.9527L16.8262 15.5039C16.9351 15.5542 17.0555 15.5748 17.1751 15.5637C17.2943 15.5525 17.4087 15.5099 17.5069 15.4404C17.6046 15.3708 17.6822 15.2766 17.732 15.1673C17.7542 15.1179 17.7705 15.0663 17.7808 15.0134C17.7933 14.9494 17.7963 14.8836 17.7898 14.8182L17.6334 13.5162C17.6265 13.4618 17.6269 13.4069 17.6338 13.3529C17.6389 13.3119 17.6479 13.2714 17.6608 13.2319C17.6908 13.1404 17.7405 13.0566 17.807 12.9867L18.7183 12.0232C18.7663 11.9723 18.8062 11.9144 18.8362 11.8518C18.8576 11.8069 18.8739 11.7596 18.8846 11.7107C18.9108 11.5934 18.9043 11.4712 18.8666 11.3572C18.8473 11.2992 18.8203 11.2445 18.7864 11.1944C18.7534 11.1459 18.7144 11.1017 18.6699 11.0632C18.5786 10.9848 18.468 10.9326 18.3496 10.9121L17.026 10.6474C16.9295 10.6294 16.8386 10.5905 16.7593 10.5336C16.6796 10.4766 16.6136 10.4028 16.5656 10.3175Z" fill="#61646B"/>
<path fill-rule="evenodd" clip-rule="evenodd" d="M7.26375 12.0725C7.26375 12.4644 7.13901 12.8738 7.01556 13.2786C6.85095 13.8196 6.68849 14.3524 6.82995 14.8241C6.97441 15.3059 7.44636 15.6573 7.91788 16.0082C8.25309 16.2579 8.58787 16.5073 8.80434 16.8032C9.01867 17.0964 9.15241 17.4779 9.28701 17.8619C9.47904 18.4103 9.6728 18.9639 10.1066 19.2727C10.5443 19.5844 11.1272 19.5904 11.7076 19.5963C12.1054 19.6004 12.5019 19.6044 12.8496 19.7068C13.2152 19.8144 13.5513 20.061 13.8882 20.308C14.3391 20.6385 14.7909 20.9697 15.3148 20.9697C15.8553 20.9697 16.3367 20.6311 16.8099 20.2983C17.1387 20.0671 17.4636 19.8387 17.8014 19.7284C18.1486 19.6152 18.5635 19.608 18.9806 19.6009C19.5542 19.591 20.1324 19.581 20.5444 19.2944C20.9567 19.0079 21.1462 18.471 21.3382 17.9274C21.4776 17.5323 21.6181 17.1336 21.8466 16.8249C22.0717 16.5204 22.3979 16.275 22.7224 16.0309C23.1793 15.6871 23.6328 15.3459 23.7953 14.8458C23.9565 14.3491 23.7914 13.8098 23.6247 13.2655C23.5042 12.873 23.3829 12.4779 23.3829 12.0942C23.3829 11.7079 23.5042 11.3045 23.6243 10.9054C23.7889 10.3584 23.9509 9.81931 23.7953 9.34258C23.638 8.8607 23.1695 8.50184 22.7031 8.14473C22.3717 7.89074 22.0412 7.63764 21.8248 7.3418C21.6104 7.04861 21.4767 6.66706 21.3425 6.28298C21.1505 5.73462 20.9567 5.18112 20.5229 4.87228C20.0853 4.56064 19.5019 4.55467 18.9215 4.54873C18.5241 4.54466 18.1276 4.5406 17.78 4.43826C17.4139 4.33056 17.0774 4.08386 16.7405 3.83679C16.29 3.50636 15.8386 3.17529 15.3148 3.17529C14.7747 3.17529 14.2933 3.51376 13.8196 3.84656C13.4908 4.07778 13.1659 4.30625 12.8277 4.41656C12.4809 4.52982 12.066 4.53697 11.6489 4.54417C11.0754 4.55406 10.4971 4.56404 10.0847 4.85057C9.6728 5.13716 9.4829 5.67418 9.29086 6.21792C9.15155 6.61293 9.01095 7.01147 8.78291 7.3201C8.55786 7.6245 8.23166 7.86985 7.90716 8.11385C7.45022 8.45778 6.9967 8.79902 6.83424 9.29918C6.67306 9.79501 6.84324 10.3405 7.0147 10.8899C7.13901 11.2878 7.26375 11.6878 7.26375 12.0725ZM15.3152 6.28553C12.0467 6.28553 9.39717 8.93512 9.39717 12.2036C9.39717 15.472 12.0467 18.1216 15.3152 18.1216C18.5837 18.1216 21.2332 15.472 21.2332 12.2036C21.2332 8.93512 18.5837 6.28553 15.3152 6.28553Z" fill="#61646B"/>
</svg>
