<svg width="170" height="25" viewBox="0 0 170 25" fill="none" xmlns="http://www.w3.org/2000/svg">
<rect x="0.984375" y="0.339355" width="168.399" height="24.0516" rx="5" fill="#061F31"/>
<path d="M41.431 9.66535H39.0404C38.9722 9.2733 38.8465 8.926 38.6633 8.62345C38.48 8.31663 38.252 8.05668 37.9793 7.84362C37.7066 7.63055 37.3955 7.47075 37.0461 7.36421C36.7009 7.25342 36.328 7.19802 35.9275 7.19802C35.2158 7.19802 34.5851 7.377 34.0354 7.73495C33.4857 8.08864 33.0553 8.60853 32.7442 9.29461C32.4331 9.97643 32.2776 10.8095 32.2776 11.7939C32.2776 12.7953 32.4331 13.6391 32.7442 14.3252C33.0596 15.007 33.49 15.5226 34.0354 15.872C34.5851 16.2172 35.2137 16.3898 35.9211 16.3898C36.3131 16.3898 36.6796 16.3386 37.0205 16.2364C37.3657 16.1298 37.6746 15.9743 37.9474 15.7698C38.2243 15.5652 38.4566 15.3138 38.6441 15.0155C38.8358 14.7172 38.968 14.3763 39.0404 13.9928L41.431 14.0055C41.3415 14.6277 41.1476 15.2115 40.8493 15.757C40.5553 16.3024 40.1697 16.784 39.6924 17.2016C39.2151 17.6149 38.6569 17.9388 38.0177 18.1732C37.3785 18.4033 36.6689 18.5183 35.8891 18.5183C34.7385 18.5183 33.7116 18.252 32.8082 17.7193C31.9047 17.1867 31.1931 16.4175 30.6732 15.4118C30.1533 14.4061 29.8934 13.2002 29.8934 11.7939C29.8934 10.3834 30.1555 9.17742 30.6796 8.176C31.2037 7.17032 31.9175 6.40114 32.8209 5.86847C33.7243 5.3358 34.7471 5.06947 35.8891 5.06947C36.6178 5.06947 37.2954 5.17174 37.9218 5.37629C38.5482 5.58083 39.1064 5.88126 39.5965 6.27757C40.0866 6.66961 40.4893 7.15114 40.8046 7.72217C41.1242 8.28893 41.333 8.93666 41.431 9.66535ZM45.8144 12.5865V18.3394H43.5004V5.24845H45.7632V10.1895H45.8783C46.1084 9.63552 46.4642 9.19873 46.9458 8.87913C47.4316 8.55526 48.0494 8.39333 48.7994 8.39333C49.4813 8.39333 50.0757 8.53609 50.5828 8.8216C51.0899 9.10711 51.482 9.52472 51.759 10.0744C52.0402 10.6242 52.1808 11.2953 52.1808 12.0879V18.3394H49.8669V12.4459C49.8669 11.7854 49.6965 11.2719 49.3556 10.9054C49.0189 10.5347 48.5459 10.3493 47.9365 10.3493C47.5274 10.3493 47.161 10.4388 46.8371 10.6178C46.5175 10.7925 46.2661 11.046 46.0828 11.3784C45.9039 11.7108 45.8144 12.1135 45.8144 12.5865ZM58.8222 18.5311C57.8634 18.5311 57.0324 18.3202 56.3293 17.8983C55.6262 17.4764 55.0807 16.8862 54.6929 16.1277C54.3094 15.3692 54.1176 14.4828 54.1176 13.4686C54.1176 12.4544 54.3094 11.5659 54.6929 10.8031C55.0807 10.0403 55.6262 9.44802 56.3293 9.02615C57.0324 8.60427 57.8634 8.39333 58.8222 8.39333C59.781 8.39333 60.6119 8.60427 61.3151 9.02615C62.0182 9.44802 62.5615 10.0403 62.945 10.8031C63.3328 11.5659 63.5267 12.4544 63.5267 13.4686C63.5267 14.4828 63.3328 15.3692 62.945 16.1277C62.5615 16.8862 62.0182 17.4764 61.3151 17.8983C60.6119 18.3202 59.781 18.5311 58.8222 18.5311ZM58.835 16.6774C59.3548 16.6774 59.7895 16.5347 60.1389 16.2492C60.4884 15.9594 60.7483 15.5716 60.9188 15.0858C61.0935 14.6 61.1808 14.0588 61.1808 13.4622C61.1808 12.8614 61.0935 12.318 60.9188 11.8323C60.7483 11.3422 60.4884 10.9523 60.1389 10.6625C59.7895 10.3727 59.3548 10.2278 58.835 10.2278C58.3023 10.2278 57.8591 10.3727 57.5054 10.6625C57.156 10.9523 56.8939 11.3422 56.7192 11.8323C56.5487 12.318 56.4635 12.8614 56.4635 13.4622C56.4635 14.0588 56.5487 14.6 56.7192 15.0858C56.8939 15.5716 57.156 15.9594 57.5054 16.2492C57.8591 16.5347 58.3023 16.6774 58.835 16.6774ZM65.4907 18.3394V8.52117H67.8046V18.3394H65.4907ZM66.654 7.12771C66.2876 7.12771 65.9722 7.00626 65.708 6.76336C65.4438 6.5162 65.3117 6.22004 65.3117 5.87487C65.3117 5.52543 65.4438 5.22927 65.708 4.98637C65.9722 4.73921 66.2876 4.61563 66.654 4.61563C67.0248 4.61563 67.3401 4.73921 67.6001 4.98637C67.8643 5.22927 67.9964 5.52543 67.9964 5.87487C67.9964 6.22004 67.8643 6.5162 67.6001 6.76336C67.3401 7.00626 67.0248 7.12771 66.654 7.12771ZM77.944 11.1163L75.8346 11.3465C75.7749 11.1334 75.6705 10.9331 75.5214 10.7456C75.3765 10.5581 75.1805 10.4068 74.9333 10.2918C74.6862 10.1767 74.3836 10.1192 74.0257 10.1192C73.5441 10.1192 73.1393 10.2236 72.8112 10.4324C72.4873 10.6412 72.3275 10.9118 72.3318 11.2442C72.3275 11.5297 72.4319 11.7619 72.645 11.9409C72.8623 12.1199 73.2203 12.2669 73.7188 12.382L75.3936 12.7399C76.3225 12.9402 77.0129 13.2577 77.4646 13.6923C77.9205 14.127 78.1507 14.6959 78.1549 15.399C78.1507 16.0169 77.9695 16.5624 77.6116 17.0354C77.2579 17.5041 76.7657 17.8706 76.135 18.1348C75.5044 18.399 74.7799 18.5311 73.9617 18.5311C72.76 18.5311 71.7927 18.2797 71.0597 17.7769C70.3268 17.2698 69.89 16.5645 69.7494 15.6611L72.0058 15.4438C72.108 15.8869 72.3254 16.2215 72.6578 16.4473C72.9901 16.6732 73.4227 16.7861 73.9553 16.7861C74.5051 16.7861 74.9461 16.6732 75.2785 16.4473C75.6151 16.2215 75.7835 15.9423 75.7835 15.61C75.7835 15.3287 75.6748 15.0965 75.4575 14.9132C75.2444 14.73 74.912 14.5894 74.4603 14.4913L72.7856 14.1398C71.8438 13.9438 71.1471 13.6135 70.6954 13.149C70.2437 12.6803 70.02 12.0879 70.0242 11.372C70.02 10.7669 70.184 10.2428 70.5164 9.79958C70.8531 9.35214 71.3197 9.00697 71.9163 8.76407C72.5171 8.51691 73.2096 8.39333 73.9937 8.39333C75.1443 8.39333 76.0498 8.63836 76.7103 9.12842C77.3751 9.61847 77.7863 10.2811 77.944 11.1163ZM80.0629 18.3394V8.52117H82.3769V18.3394H80.0629ZM81.2263 7.12771C80.8598 7.12771 80.5445 7.00626 80.2803 6.76336C80.0161 6.5162 79.884 6.22004 79.884 5.87487C79.884 5.52543 80.0161 5.22927 80.2803 4.98637C80.5445 4.73921 80.8598 4.61563 81.2263 4.61563C81.597 4.61563 81.9124 4.73921 82.1723 4.98637C82.4365 5.22927 82.5686 5.52543 82.5686 5.87487C82.5686 6.22004 82.4365 6.5162 82.1723 6.76336C81.9124 7.00626 81.597 7.12771 81.2263 7.12771ZM84.7563 18.3394V8.52117H86.9999V10.1575H87.1022C87.2812 9.59078 87.588 9.15399 88.0226 8.84717C88.4616 8.53609 88.9623 8.38055 89.5248 8.38055C89.6526 8.38055 89.7954 8.38694 89.953 8.39972C90.115 8.40825 90.2492 8.42316 90.3557 8.44447V10.573C90.2577 10.5389 90.1022 10.5091 89.8891 10.4835C89.6803 10.4537 89.4779 10.4388 89.2819 10.4388C88.86 10.4388 88.4807 10.5304 88.1441 10.7136C87.8117 10.8926 87.5496 11.1419 87.3579 11.4615C87.1661 11.7811 87.0702 12.1497 87.0702 12.5673V18.3394H84.7563ZM98.6718 5.24845V18.3394H96.3579V5.24845H98.6718ZM105.398 18.5311C104.413 18.5311 103.563 18.3266 102.847 17.9175C102.136 17.5041 101.588 16.9203 101.205 16.1661C100.821 15.4075 100.629 14.5148 100.629 13.4878C100.629 12.4778 100.821 11.5915 101.205 10.8287C101.592 10.0617 102.134 9.46507 102.828 9.03893C103.523 8.60853 104.339 8.39333 105.276 8.39333C105.881 8.39333 106.453 8.49134 106.989 8.68737C107.531 8.87913 108.008 9.17742 108.421 9.58225C108.839 9.98708 109.167 10.5027 109.406 11.1291C109.644 11.7513 109.764 12.4928 109.764 13.3536V14.0631H101.716V12.5034H107.546C107.541 12.0602 107.445 11.6661 107.258 11.3209C107.07 10.9715 106.808 10.6966 106.472 10.4963C106.139 10.296 105.752 10.1959 105.308 10.1959C104.835 10.1959 104.42 10.3109 104.062 10.5411C103.704 10.7669 103.425 11.0652 103.225 11.4359C103.028 11.8024 102.928 12.2051 102.924 12.644V14.0055C102.924 14.5766 103.028 15.0666 103.237 15.4757C103.446 15.8805 103.738 16.1916 104.113 16.409C104.488 16.622 104.927 16.7286 105.43 16.7286C105.766 16.7286 106.071 16.6817 106.344 16.5879C106.617 16.4899 106.853 16.3472 107.053 16.1597C107.254 15.9722 107.405 15.7399 107.507 15.4629L109.668 15.7058C109.531 16.2769 109.271 16.7754 108.888 17.2016C108.509 17.6234 108.023 17.9516 107.43 18.1859C106.838 18.4161 106.161 18.5311 105.398 18.5311ZM116.186 18.3394V8.52117H118.398V10.1895H118.513C118.717 9.627 119.056 9.18808 119.529 8.87274C120.002 8.55313 120.567 8.39333 121.223 8.39333C121.888 8.39333 122.448 8.55526 122.904 8.87913C123.364 9.19873 123.688 9.63552 123.876 10.1895H123.978C124.195 9.64404 124.562 9.20938 125.077 8.88552C125.597 8.5574 126.213 8.39333 126.925 8.39333C127.828 8.39333 128.565 8.67884 129.136 9.24987C129.707 9.82089 129.993 10.654 129.993 11.7492V18.3394H127.672V12.1071C127.672 11.4977 127.511 11.0524 127.187 10.7712C126.863 10.4857 126.467 10.3429 125.998 10.3429C125.44 10.3429 125.003 10.5176 124.687 10.8671C124.376 11.2122 124.221 11.6618 124.221 12.2158V18.3394H121.952V12.0112C121.952 11.5041 121.798 11.0993 121.491 10.7967C121.189 10.4942 120.793 10.3429 120.302 10.3429C119.97 10.3429 119.668 10.4281 119.395 10.5986C119.122 10.7648 118.905 11.0013 118.743 11.3081C118.581 11.6107 118.5 11.9644 118.5 12.3692V18.3394H116.186ZM135.166 18.5375C134.543 18.5375 133.983 18.4267 133.484 18.2051C132.99 17.9793 132.598 17.6469 132.308 17.208C132.023 16.769 131.88 16.2278 131.88 15.5844C131.88 15.0304 131.982 14.5723 132.187 14.2101C132.391 13.8479 132.671 13.5581 133.024 13.3408C133.378 13.1234 133.776 12.9594 134.22 12.8486C134.667 12.7335 135.129 12.6504 135.607 12.5993C136.182 12.5396 136.649 12.4864 137.006 12.4395C137.364 12.3884 137.624 12.3117 137.786 12.2094C137.953 12.1028 138.036 11.9388 138.036 11.7172V11.6788C138.036 11.1973 137.893 10.8244 137.607 10.5602C137.322 10.296 136.911 10.1639 136.374 10.1639C135.807 10.1639 135.357 10.2875 135.025 10.5347C134.697 10.7818 134.475 11.0737 134.36 11.4104L132.2 11.1036C132.37 10.507 132.651 10.0084 133.043 9.60782C133.435 9.20299 133.915 8.90043 134.482 8.70015C135.048 8.49561 135.675 8.39333 136.361 8.39333C136.834 8.39333 137.305 8.44873 137.774 8.55953C138.242 8.67032 138.671 8.85356 139.058 9.10924C139.446 9.36066 139.757 9.7037 139.992 10.1384C140.23 10.573 140.35 11.1163 140.35 11.7683V18.3394H138.125V16.9906H138.048C137.908 17.2634 137.71 17.519 137.454 17.7577C137.203 17.9921 136.885 18.1817 136.502 18.3266C136.122 18.4672 135.677 18.5375 135.166 18.5375ZM135.766 16.8372C136.231 16.8372 136.634 16.7456 136.975 16.5624C137.315 16.3749 137.578 16.1277 137.761 15.8209C137.948 15.5141 138.042 15.1796 138.042 14.8173V13.6604C137.97 13.72 137.846 13.7754 137.671 13.8266C137.501 13.8777 137.309 13.9225 137.096 13.9608C136.883 13.9992 136.672 14.0332 136.463 14.0631C136.254 14.0929 136.073 14.1185 135.92 14.1398C135.575 14.1867 135.266 14.2634 134.993 14.3699C134.72 14.4764 134.505 14.6256 134.347 14.8173C134.19 15.0048 134.111 15.2477 134.111 15.546C134.111 15.9722 134.266 16.2939 134.578 16.5112C134.889 16.7286 135.285 16.8372 135.766 16.8372ZM142.676 18.3394V8.52117H144.99V18.3394H142.676ZM143.84 7.12771C143.473 7.12771 143.158 7.00626 142.894 6.76336C142.629 6.5162 142.497 6.22004 142.497 5.87487C142.497 5.52543 142.629 5.22927 142.894 4.98637C143.158 4.73921 143.473 4.61563 143.84 4.61563C144.21 4.61563 144.526 4.73921 144.786 4.98637C145.05 5.22927 145.182 5.52543 145.182 5.87487C145.182 6.22004 145.05 6.5162 144.786 6.76336C144.526 7.00626 144.21 7.12771 143.84 7.12771ZM147.37 18.3394V8.52117H149.613V10.1575H149.715C149.894 9.59078 150.201 9.15399 150.636 8.84717C151.075 8.53609 151.576 8.38055 152.138 8.38055C152.266 8.38055 152.409 8.38694 152.566 8.39972C152.728 8.40825 152.862 8.42316 152.969 8.44447V10.573C152.871 10.5389 152.715 10.5091 152.502 10.4835C152.294 10.4537 152.091 10.4388 151.895 10.4388C151.473 10.4388 151.094 10.5304 150.757 10.7136C150.425 10.8926 150.163 11.1419 149.971 11.4615C149.779 11.7811 149.684 12.1497 149.684 12.5673V18.3394H147.37ZM158.449 18.5311C157.464 18.5311 156.614 18.3266 155.898 17.9175C155.187 17.5041 154.639 16.9203 154.255 16.1661C153.872 15.4075 153.68 14.5148 153.68 13.4878C153.68 12.4778 153.872 11.5915 154.255 10.8287C154.643 10.0617 155.184 9.46507 155.879 9.03893C156.574 8.60853 157.39 8.39333 158.327 8.39333C158.932 8.39333 159.503 8.49134 160.04 8.68737C160.581 8.87913 161.059 9.17742 161.472 9.58225C161.89 9.98708 162.218 10.5027 162.456 11.1291C162.695 11.7513 162.814 12.4928 162.814 13.3536V14.0631H154.767V12.5034H160.596C160.592 12.0602 160.496 11.6661 160.309 11.3209C160.121 10.9715 159.859 10.6966 159.522 10.4963C159.19 10.296 158.802 10.1959 158.359 10.1959C157.886 10.1959 157.471 10.3109 157.113 10.5411C156.755 10.7669 156.476 11.0652 156.275 11.4359C156.079 11.8024 155.979 12.2051 155.975 12.644V14.0055C155.975 14.5766 156.079 15.0666 156.288 15.4757C156.497 15.8805 156.789 16.1916 157.164 16.409C157.539 16.622 157.978 16.7286 158.481 16.7286C158.817 16.7286 159.122 16.6817 159.395 16.5879C159.667 16.4899 159.904 16.3472 160.104 16.1597C160.304 15.9722 160.456 15.7399 160.558 15.4629L162.718 15.7058C162.582 16.2769 162.322 16.7754 161.939 17.2016C161.559 17.6234 161.074 17.9516 160.481 18.1859C159.889 18.4161 159.211 18.5311 158.449 18.5311Z" fill="#61646B"/>
<path d="M16.7394 10.549L16.0797 9.40752C16.0188 9.30403 15.9323 9.21823 15.8277 9.15863C15.7685 9.12485 15.7051 9.10015 15.6391 9.08508C15.5889 9.07356 15.5375 9.06768 15.4852 9.06768C15.3651 9.06768 15.2473 9.09902 15.1431 9.15863C15.0385 9.21823 14.9515 9.30403 14.8906 9.40752L14.2095 10.5576C14.1615 10.6429 14.0955 10.7167 14.0162 10.7737C13.9364 10.8307 13.8456 10.8695 13.7491 10.8875L12.4473 11.1436C12.3294 11.1653 12.2201 11.2184 12.1301 11.2973C12.0761 11.3448 12.0302 11.4006 11.9942 11.4623C11.9702 11.5031 11.9509 11.5465 11.9363 11.5918C11.899 11.7056 11.8939 11.8273 11.9205 11.944C11.947 12.0607 12.0045 12.168 12.0872 12.2546L12.9985 13.2181C13.065 13.288 13.1147 13.3718 13.1447 13.4634C13.1747 13.5549 13.1841 13.652 13.1721 13.7476L13.0157 15.0497C13.0032 15.1702 13.023 15.292 13.0731 15.4024C13.1228 15.5128 13.2017 15.6079 13.3007 15.6778C13.3998 15.7476 13.5159 15.7898 13.6364 15.7999C13.7573 15.8101 13.8786 15.7878 13.9879 15.7354L15.2074 15.1842C15.2383 15.1703 15.27 15.1587 15.3021 15.1494C15.3643 15.1315 15.429 15.1224 15.4942 15.1224C15.5928 15.1224 15.6905 15.1434 15.7805 15.1842L17 15.7354C17.1089 15.7857 17.2294 15.8063 17.349 15.7951C17.4681 15.7839 17.5826 15.7414 17.6807 15.6718C17.7785 15.6022 17.8561 15.508 17.9058 15.3988C17.9281 15.3494 17.9444 15.2977 17.9546 15.2449C17.9671 15.1808 17.9701 15.1151 17.9637 15.0497L17.8072 13.7476C17.8003 13.6932 17.8008 13.6384 17.8076 13.5843C17.8128 13.5434 17.8218 13.5028 17.8346 13.4634C17.8646 13.3718 17.9144 13.288 17.9808 13.2181L18.8921 12.2546C18.9401 12.2038 18.98 12.1459 19.01 12.0832C19.0314 12.0384 19.0477 11.9911 19.0584 11.9421C19.0846 11.8248 19.0782 11.7027 19.0404 11.5886C19.0211 11.5307 18.9941 11.476 18.9603 11.4258C18.9273 11.3773 18.8883 11.3332 18.8437 11.2946C18.7524 11.2162 18.6418 11.164 18.5235 11.1436L17.1998 10.8788C17.1033 10.8609 17.0125 10.822 16.9332 10.765C16.8534 10.708 16.7874 10.6343 16.7394 10.549Z" fill="#61646B"/>
<path fill-rule="evenodd" clip-rule="evenodd" d="M7.43758 12.304C7.43758 12.6959 7.31284 13.1052 7.18939 13.51C7.02478 14.0511 6.86232 14.5838 7.00378 15.0556C7.14824 15.5374 7.62019 15.8888 8.09171 16.2396C8.42692 16.4893 8.7617 16.7387 8.97817 17.0347C9.1925 17.3278 9.32624 17.7093 9.46083 18.0934C9.65287 18.6418 9.84662 19.1953 10.2804 19.5042C10.7181 19.8158 11.3011 19.8218 11.8815 19.8277C12.2792 19.8318 12.6758 19.8359 13.0234 19.9382C13.389 20.0459 13.7251 20.2925 14.062 20.5395C14.513 20.87 14.9648 21.2012 15.4886 21.2012C16.0291 21.2012 16.5105 20.8626 16.9837 20.5297C17.3125 20.2986 17.6374 20.0702 17.9752 19.9599C18.3224 19.8466 18.7374 19.8395 19.1545 19.8323C19.728 19.8224 20.3063 19.8124 20.7182 19.5259C21.1306 19.2393 21.32 18.7024 21.5121 18.1588C21.6514 17.7637 21.792 17.3651 22.0205 17.0564C22.2455 16.7519 22.5717 16.5065 22.8962 16.2624C23.3531 15.9185 23.8067 15.5773 23.9691 15.0773C24.1303 14.5805 23.9653 14.0413 23.7985 13.497C23.6781 13.1045 23.5568 12.7094 23.5568 12.3257C23.5568 11.9393 23.6781 11.536 23.7981 11.1368C23.9627 10.5899 24.1247 10.0508 23.9691 9.57403C23.8118 9.09215 23.3433 8.73328 22.8769 8.37617C22.5456 8.12218 22.2151 7.86909 21.9986 7.57325C21.7843 7.28006 21.6505 6.8985 21.5164 6.51443C21.3243 5.96607 21.1306 5.41257 20.6968 5.10372C20.2591 4.79209 19.6757 4.78611 19.0953 4.78018C18.6979 4.77611 18.3014 4.77205 17.9538 4.66971C17.5877 4.56201 17.2512 4.3153 16.9143 4.06824C16.4638 3.73781 16.0124 3.40674 15.4886 3.40674C14.9485 3.40674 14.4671 3.7452 13.9934 4.078C13.6647 4.30922 13.3397 4.53769 13.0015 4.64801C12.6547 4.76126 12.2398 4.76842 11.8227 4.77561C11.2492 4.78551 10.6709 4.79549 10.2586 5.08202C9.84662 5.3686 9.65673 5.90563 9.46469 6.44936C9.32538 6.84437 9.18478 7.24291 8.95673 7.55155C8.73169 7.85595 8.40548 8.1013 8.08099 8.3453C7.62404 8.68923 7.17053 9.03046 7.00806 9.53062C6.84689 10.0265 7.01707 10.5719 7.18853 11.1213C7.31284 11.5193 7.43758 11.9193 7.43758 12.304ZM15.489 6.51697C12.2205 6.51697 9.571 9.16656 9.571 12.435C9.571 15.7034 12.2205 18.353 15.489 18.353C18.7575 18.353 21.407 15.7034 21.407 12.435C21.407 9.16656 18.7575 6.51697 15.489 6.51697Z" fill="#61646B"/>
</svg>
