<svg width="170" height="25" viewBox="0 0 170 25" fill="none" xmlns="http://www.w3.org/2000/svg">
<rect x="0.890625" y="0.339355" width="168.399" height="24.0516" rx="5" fill="#061F31"/>
<path d="M41.3373 9.66535H38.9466C38.8785 9.2733 38.7528 8.926 38.5695 8.62345C38.3863 8.31663 38.1583 8.05668 37.8856 7.84362C37.6128 7.63055 37.3018 7.47075 36.9523 7.36421C36.6072 7.25342 36.2343 7.19802 35.8337 7.19802C35.1221 7.19802 34.4914 7.377 33.9417 7.73495C33.392 8.08864 32.9616 8.60853 32.6505 9.29461C32.3394 9.97643 32.1839 10.8095 32.1839 11.7939C32.1839 12.7953 32.3394 13.6391 32.6505 14.3252C32.9658 15.007 33.3962 15.5226 33.9417 15.872C34.4914 16.2172 35.1199 16.3898 35.8273 16.3898C36.2194 16.3898 36.5858 16.3386 36.9268 16.2364C37.2719 16.1298 37.5809 15.9743 37.8536 15.7698C38.1306 15.5652 38.3628 15.3138 38.5503 15.0155C38.7421 14.7172 38.8742 14.3763 38.9466 13.9928L41.3373 14.0055C41.2478 14.6277 41.0539 15.2115 40.7556 15.757C40.4616 16.3024 40.0759 16.784 39.5986 17.2016C39.1214 17.6149 38.5631 17.9388 37.9239 18.1732C37.2847 18.4033 36.5752 18.5183 35.7954 18.5183C34.6448 18.5183 33.6178 18.252 32.7144 17.7193C31.811 17.1867 31.0993 16.4175 30.5795 15.4118C30.0596 14.4061 29.7996 13.2002 29.7996 11.7939C29.7996 10.3834 30.0617 9.17742 30.5858 8.176C31.11 7.17032 31.8238 6.40114 32.7272 5.86847C33.6306 5.3358 34.6533 5.06947 35.7954 5.06947C36.5241 5.06947 37.2016 5.17174 37.828 5.37629C38.4545 5.58083 39.0127 5.88126 39.5028 6.27757C39.9928 6.66961 40.3955 7.15114 40.7108 7.72217C41.0305 8.28893 41.2393 8.93666 41.3373 9.66535ZM45.7206 12.5865V18.3394H43.4067V5.24845H45.6695V10.1895H45.7845C46.0146 9.63552 46.3705 9.19873 46.852 8.87913C47.3378 8.55526 47.9557 8.39333 48.7057 8.39333C49.3875 8.39333 49.982 8.53609 50.4891 8.8216C50.9962 9.10711 51.3882 9.52472 51.6652 10.0744C51.9465 10.6242 52.0871 11.2953 52.0871 12.0879V18.3394H49.7732V12.4459C49.7732 11.7854 49.6027 11.2719 49.2618 10.9054C48.9252 10.5347 48.4521 10.3493 47.8428 10.3493C47.4337 10.3493 47.0672 10.4388 46.7433 10.6178C46.4237 10.7925 46.1723 11.046 45.9891 11.3784C45.8101 11.7108 45.7206 12.1135 45.7206 12.5865ZM58.7284 18.5311C57.7696 18.5311 56.9387 18.3202 56.2355 17.8983C55.5324 17.4764 54.9869 16.8862 54.5992 16.1277C54.2156 15.3692 54.0239 14.4828 54.0239 13.4686C54.0239 12.4544 54.2156 11.5659 54.5992 10.8031C54.9869 10.0403 55.5324 9.44802 56.2355 9.02615C56.9387 8.60427 57.7696 8.39333 58.7284 8.39333C59.6872 8.39333 60.5182 8.60427 61.2213 9.02615C61.9244 9.44802 62.4678 10.0403 62.8513 10.8031C63.2391 11.5659 63.433 12.4544 63.433 13.4686C63.433 14.4828 63.2391 15.3692 62.8513 16.1277C62.4678 16.8862 61.9244 17.4764 61.2213 17.8983C60.5182 18.3202 59.6872 18.5311 58.7284 18.5311ZM58.7412 16.6774C59.2611 16.6774 59.6958 16.5347 60.0452 16.2492C60.3946 15.9594 60.6546 15.5716 60.825 15.0858C60.9997 14.6 61.0871 14.0588 61.0871 13.4622C61.0871 12.8614 60.9997 12.318 60.825 11.8323C60.6546 11.3422 60.3946 10.9523 60.0452 10.6625C59.6958 10.3727 59.2611 10.2278 58.7412 10.2278C58.2085 10.2278 57.7654 10.3727 57.4117 10.6625C57.0622 10.9523 56.8002 11.3422 56.6254 11.8323C56.455 12.318 56.3698 12.8614 56.3698 13.4622C56.3698 14.0588 56.455 14.6 56.6254 15.0858C56.8002 15.5716 57.0622 15.9594 57.4117 16.2492C57.7654 16.5347 58.2085 16.6774 58.7412 16.6774ZM65.3969 18.3394V8.52117H67.7108V18.3394H65.3969ZM66.5603 7.12771C66.1938 7.12771 65.8785 7.00626 65.6143 6.76336C65.3501 6.5162 65.218 6.22004 65.218 5.87487C65.218 5.52543 65.3501 5.22927 65.6143 4.98637C65.8785 4.73921 66.1938 4.61563 66.5603 4.61563C66.931 4.61563 67.2464 4.73921 67.5063 4.98637C67.7705 5.22927 67.9026 5.52543 67.9026 5.87487C67.9026 6.22004 67.7705 6.5162 67.5063 6.76336C67.2464 7.00626 66.931 7.12771 66.5603 7.12771ZM77.8502 11.1163L75.7409 11.3465C75.6812 11.1334 75.5768 10.9331 75.4276 10.7456C75.2828 10.5581 75.0867 10.4068 74.8396 10.2918C74.5924 10.1767 74.2899 10.1192 73.9319 10.1192C73.4504 10.1192 73.0455 10.2236 72.7174 10.4324C72.3936 10.6412 72.2338 10.9118 72.238 11.2442C72.2338 11.5297 72.3382 11.7619 72.5512 11.9409C72.7686 12.1199 73.1265 12.2669 73.6251 12.382L75.2998 12.7399C76.2288 12.9402 76.9191 13.2577 77.3708 13.6923C77.8268 14.127 78.0569 14.6959 78.0612 15.399C78.0569 16.0169 77.8758 16.5624 77.5178 17.0354C77.1642 17.5041 76.672 17.8706 76.0413 18.1348C75.4106 18.399 74.6862 18.5311 73.868 18.5311C72.6663 18.5311 71.699 18.2797 70.966 17.7769C70.233 17.2698 69.7963 16.5645 69.6556 15.6611L71.912 15.4438C72.0143 15.8869 72.2316 16.2215 72.564 16.4473C72.8964 16.6732 73.3289 16.7861 73.8616 16.7861C74.4113 16.7861 74.8524 16.6732 75.1847 16.4473C75.5214 16.2215 75.6897 15.9423 75.6897 15.61C75.6897 15.3287 75.5811 15.0965 75.3637 14.9132C75.1507 14.73 74.8183 14.5894 74.3666 14.4913L72.6919 14.1398C71.7501 13.9438 71.0534 13.6135 70.6017 13.149C70.1499 12.6803 69.9262 12.0879 69.9305 11.372C69.9262 10.7669 70.0903 10.2428 70.4227 9.79958C70.7593 9.35214 71.2259 9.00697 71.8225 8.76407C72.4234 8.51691 73.1159 8.39333 73.8999 8.39333C75.0505 8.39333 75.9561 8.63836 76.6166 9.12842C77.2813 9.61847 77.6926 10.2811 77.8502 11.1163ZM79.9692 18.3394V8.52117H82.2831V18.3394H79.9692ZM81.1325 7.12771C80.7661 7.12771 80.4507 7.00626 80.1865 6.76336C79.9223 6.5162 79.7902 6.22004 79.7902 5.87487C79.7902 5.52543 79.9223 5.22927 80.1865 4.98637C80.4507 4.73921 80.7661 4.61563 81.1325 4.61563C81.5033 4.61563 81.8186 4.73921 82.0786 4.98637C82.3428 5.22927 82.4749 5.52543 82.4749 5.87487C82.4749 6.22004 82.3428 6.5162 82.0786 6.76336C81.8186 7.00626 81.5033 7.12771 81.1325 7.12771ZM84.6626 18.3394V8.52117H86.9062V10.1575H87.0084C87.1874 9.59078 87.4942 9.15399 87.9289 8.84717C88.3678 8.53609 88.8685 8.38055 89.431 8.38055C89.5589 8.38055 89.7016 8.38694 89.8593 8.39972C90.0212 8.40825 90.1555 8.42316 90.262 8.44447V10.573C90.164 10.5389 90.0084 10.5091 89.7954 10.4835C89.5866 10.4537 89.3841 10.4388 89.1881 10.4388C88.7662 10.4388 88.387 10.5304 88.0503 10.7136C87.718 10.8926 87.4559 11.1419 87.2641 11.4615C87.0724 11.7811 86.9765 12.1497 86.9765 12.5673V18.3394H84.6626ZM98.578 5.24845V18.3394H96.2641V5.24845H98.578ZM105.304 18.5311C104.32 18.5311 103.47 18.3266 102.754 17.9175C102.042 17.5041 101.494 16.9203 101.111 16.1661C100.727 15.4075 100.536 14.5148 100.536 13.4878C100.536 12.4778 100.727 11.5915 101.111 10.8287C101.499 10.0617 102.04 9.46507 102.734 9.03893C103.429 8.60853 104.245 8.39333 105.183 8.39333C105.788 8.39333 106.359 8.49134 106.896 8.68737C107.437 8.87913 107.914 9.17742 108.328 9.58225C108.745 9.98708 109.073 10.5027 109.312 11.1291C109.551 11.7513 109.67 12.4928 109.67 13.3536V14.0631H101.622V12.5034H107.452C107.448 12.0602 107.352 11.6661 107.164 11.3209C106.977 10.9715 106.715 10.6966 106.378 10.4963C106.046 10.296 105.658 10.1959 105.215 10.1959C104.742 10.1959 104.326 10.3109 103.968 10.5411C103.61 10.7669 103.331 11.0652 103.131 11.4359C102.935 11.8024 102.835 12.2051 102.83 12.644V14.0055C102.83 14.5766 102.935 15.0666 103.144 15.4757C103.352 15.8805 103.644 16.1916 104.019 16.409C104.394 16.622 104.833 16.7286 105.336 16.7286C105.673 16.7286 105.977 16.6817 106.25 16.5879C106.523 16.4899 106.759 16.3472 106.96 16.1597C107.16 15.9722 107.311 15.7399 107.413 15.4629L109.574 15.7058C109.438 16.2769 109.178 16.7754 108.794 17.2016C108.415 17.6234 107.929 17.9516 107.337 18.1859C106.744 18.4161 106.067 18.5311 105.304 18.5311ZM116.092 18.3394V8.52117H118.304V10.1895H118.419C118.623 9.627 118.962 9.18808 119.435 8.87274C119.908 8.55313 120.473 8.39333 121.129 8.39333C121.794 8.39333 122.354 8.55526 122.81 8.87913C123.271 9.19873 123.594 9.63552 123.782 10.1895H123.884C124.101 9.64404 124.468 9.20938 124.984 8.88552C125.503 8.5574 126.119 8.39333 126.831 8.39333C127.734 8.39333 128.472 8.67884 129.043 9.24987C129.614 9.82089 129.899 10.654 129.899 11.7492V18.3394H127.579V12.1071C127.579 11.4977 127.417 11.0524 127.093 10.7712C126.769 10.4857 126.373 10.3429 125.904 10.3429C125.346 10.3429 124.909 10.5176 124.594 10.8671C124.283 11.2122 124.127 11.6618 124.127 12.2158V18.3394H121.858V12.0112C121.858 11.5041 121.704 11.0993 121.398 10.7967C121.095 10.4942 120.699 10.3429 120.209 10.3429C119.876 10.3429 119.574 10.4281 119.301 10.5986C119.028 10.7648 118.811 11.0013 118.649 11.3081C118.487 11.6107 118.406 11.9644 118.406 12.3692V18.3394H116.092ZM135.072 18.5375C134.45 18.5375 133.889 18.4267 133.391 18.2051C132.896 17.9793 132.504 17.6469 132.215 17.208C131.929 16.769 131.786 16.2278 131.786 15.5844C131.786 15.0304 131.889 14.5723 132.093 14.2101C132.298 13.8479 132.577 13.5581 132.93 13.3408C133.284 13.1234 133.683 12.9594 134.126 12.8486C134.573 12.7335 135.036 12.6504 135.513 12.5993C136.088 12.5396 136.555 12.4864 136.913 12.4395C137.271 12.3884 137.531 12.3117 137.693 12.2094C137.859 12.1028 137.942 11.9388 137.942 11.7172V11.6788C137.942 11.1973 137.799 10.8244 137.514 10.5602C137.228 10.296 136.817 10.1639 136.28 10.1639C135.713 10.1639 135.264 10.2875 134.931 10.5347C134.603 10.7818 134.381 11.0737 134.266 11.4104L132.106 11.1036C132.276 10.507 132.558 10.0084 132.95 9.60782C133.342 9.20299 133.821 8.90043 134.388 8.70015C134.955 8.49561 135.581 8.39333 136.267 8.39333C136.74 8.39333 137.211 8.44873 137.68 8.55953C138.149 8.67032 138.577 8.85356 138.965 9.10924C139.352 9.36066 139.663 9.7037 139.898 10.1384C140.136 10.573 140.256 11.1163 140.256 11.7683V18.3394H138.031V16.9906H137.955C137.814 17.2634 137.616 17.519 137.36 17.7577C137.109 17.9921 136.791 18.1817 136.408 18.3266C136.028 18.4672 135.583 18.5375 135.072 18.5375ZM135.673 16.8372C136.137 16.8372 136.54 16.7456 136.881 16.5624C137.222 16.3749 137.484 16.1277 137.667 15.8209C137.854 15.5141 137.948 15.1796 137.948 14.8173V13.6604C137.876 13.72 137.752 13.7754 137.578 13.8266C137.407 13.8777 137.215 13.9225 137.002 13.9608C136.789 13.9992 136.578 14.0332 136.369 14.0631C136.161 14.0929 135.979 14.1185 135.826 14.1398C135.481 14.1867 135.172 14.2634 134.899 14.3699C134.627 14.4764 134.411 14.6256 134.254 14.8173C134.096 15.0048 134.017 15.2477 134.017 15.546C134.017 15.9722 134.173 16.2939 134.484 16.5112C134.795 16.7286 135.191 16.8372 135.673 16.8372ZM142.582 18.3394V8.52117H144.896V18.3394H142.582ZM143.746 7.12771C143.379 7.12771 143.064 7.00626 142.8 6.76336C142.536 6.5162 142.403 6.22004 142.403 5.87487C142.403 5.52543 142.536 5.22927 142.8 4.98637C143.064 4.73921 143.379 4.61563 143.746 4.61563C144.117 4.61563 144.432 4.73921 144.692 4.98637C144.956 5.22927 145.088 5.52543 145.088 5.87487C145.088 6.22004 144.956 6.5162 144.692 6.76336C144.432 7.00626 144.117 7.12771 143.746 7.12771ZM147.276 18.3394V8.52117H149.519V10.1575H149.622C149.801 9.59078 150.108 9.15399 150.542 8.84717C150.981 8.53609 151.482 8.38055 152.044 8.38055C152.172 8.38055 152.315 8.38694 152.473 8.39972C152.634 8.40825 152.769 8.42316 152.875 8.44447V10.573C152.777 10.5389 152.622 10.5091 152.409 10.4835C152.2 10.4537 151.997 10.4388 151.801 10.4388C151.38 10.4388 151 10.5304 150.664 10.7136C150.331 10.8926 150.069 11.1419 149.877 11.4615C149.686 11.7811 149.59 12.1497 149.59 12.5673V18.3394H147.276ZM158.355 18.5311C157.37 18.5311 156.52 18.3266 155.804 17.9175C155.093 17.5041 154.545 16.9203 154.162 16.1661C153.778 15.4075 153.586 14.5148 153.586 13.4878C153.586 12.4778 153.778 11.5915 154.162 10.8287C154.549 10.0617 155.091 9.46507 155.785 9.03893C156.48 8.60853 157.296 8.39333 158.233 8.39333C158.839 8.39333 159.41 8.49134 159.946 8.68737C160.488 8.87913 160.965 9.17742 161.378 9.58225C161.796 9.98708 162.124 10.5027 162.363 11.1291C162.601 11.7513 162.721 12.4928 162.721 13.3536V14.0631H154.673V12.5034H160.503C160.498 12.0602 160.402 11.6661 160.215 11.3209C160.027 10.9715 159.765 10.6966 159.429 10.4963C159.096 10.296 158.709 10.1959 158.265 10.1959C157.792 10.1959 157.377 10.3109 157.019 10.5411C156.661 10.7669 156.382 11.0652 156.182 11.4359C155.986 11.8024 155.885 12.2051 155.881 12.644V14.0055C155.881 14.5766 155.986 15.0666 156.194 15.4757C156.403 15.8805 156.695 16.1916 157.07 16.409C157.445 16.622 157.884 16.7286 158.387 16.7286C158.723 16.7286 159.028 16.6817 159.301 16.5879C159.574 16.4899 159.81 16.3472 160.01 16.1597C160.211 15.9722 160.362 15.7399 160.464 15.4629L162.625 15.7058C162.488 16.2769 162.228 16.7754 161.845 17.2016C161.466 17.6234 160.98 17.9516 160.388 18.1859C159.795 18.4161 159.118 18.5311 158.355 18.5311Z" fill="#F4CE7B"/>
<path d="M16.6457 10.549L15.986 9.40752C15.9251 9.30403 15.8385 9.21823 15.7339 9.15863C15.6748 9.12485 15.6113 9.10015 15.5453 9.08508C15.4951 9.07356 15.4437 9.06768 15.3914 9.06768C15.2714 9.06768 15.1535 9.09902 15.0493 9.15863C14.9448 9.21823 14.8577 9.30403 14.7969 9.40752L14.1157 10.5576C14.0677 10.6429 14.0017 10.7167 13.9224 10.7737C13.8427 10.8307 13.7518 10.8695 13.6554 10.8875L12.3535 11.1436C12.2356 11.1653 12.1263 11.2184 12.0363 11.2973C11.9823 11.3448 11.9364 11.4006 11.9004 11.4623C11.8764 11.5031 11.8571 11.5465 11.8426 11.5918C11.8053 11.7056 11.8001 11.8273 11.8267 11.944C11.8533 12.0607 11.9107 12.168 11.9935 12.2546L12.9048 13.2181C12.9712 13.288 13.0209 13.3718 13.051 13.4634C13.081 13.5549 13.0904 13.652 13.0784 13.7476L12.9219 15.0497C12.9095 15.1702 12.9292 15.292 12.9794 15.4024C13.0291 15.5128 13.108 15.6079 13.207 15.6778C13.306 15.7476 13.4222 15.7898 13.5426 15.7999C13.6635 15.8101 13.7848 15.7878 13.8941 15.7354L15.1136 15.1842C15.1445 15.1703 15.1762 15.1587 15.2084 15.1494C15.2705 15.1315 15.3353 15.1224 15.4004 15.1224C15.499 15.1224 15.5967 15.1434 15.6868 15.1842L16.9063 15.7354C17.0152 15.7857 17.1356 15.8063 17.2552 15.7951C17.3744 15.7839 17.4888 15.7414 17.587 15.6718C17.6847 15.6022 17.7623 15.508 17.812 15.3988C17.8343 15.3494 17.8506 15.2977 17.8609 15.2449C17.8733 15.1808 17.8763 15.1151 17.8699 15.0497L17.7134 13.7476C17.7066 13.6932 17.707 13.6384 17.7139 13.5843C17.719 13.5434 17.728 13.5028 17.7409 13.4634C17.7709 13.3718 17.8206 13.288 17.887 13.2181L18.7984 12.2546C18.8464 12.2038 18.8862 12.1459 18.9163 12.0832C18.9377 12.0384 18.954 11.9911 18.9647 11.9421C18.9908 11.8248 18.9844 11.7027 18.9467 11.5886C18.9274 11.5307 18.9004 11.476 18.8665 11.4258C18.8335 11.3773 18.7945 11.3332 18.7499 11.2946C18.6586 11.2162 18.548 11.164 18.4297 11.1436L17.106 10.8788C17.0096 10.8609 16.9187 10.822 16.8394 10.765C16.7597 10.708 16.6937 10.6343 16.6457 10.549Z" fill="#F4CE7B"/>
<path fill-rule="evenodd" clip-rule="evenodd" d="M7.34383 12.304C7.34383 12.6959 7.21909 13.1052 7.09564 13.51C6.93103 14.0511 6.76857 14.5838 6.91003 15.0556C7.05449 15.5374 7.52644 15.8888 7.99796 16.2396C8.33317 16.4893 8.66795 16.7387 8.88442 17.0347C9.09875 17.3278 9.23249 17.7093 9.36708 18.0934C9.55912 18.6418 9.75287 19.1953 10.1867 19.5042C10.6243 19.8158 11.2073 19.8218 11.7877 19.8277C12.1855 19.8318 12.582 19.8359 12.9296 19.9382C13.2953 20.0459 13.6314 20.2925 13.9683 20.5395C14.4192 20.87 14.871 21.2012 15.3948 21.2012C15.9354 21.2012 16.4168 20.8626 16.89 20.5297C17.2188 20.2986 17.5437 20.0702 17.8815 19.9599C18.2287 19.8466 18.6436 19.8395 19.0607 19.8323C19.6342 19.8224 20.2125 19.8124 20.6244 19.5259C21.0368 19.2393 21.2263 18.7024 21.4183 18.1588C21.5576 17.7637 21.6982 17.3651 21.9267 17.0564C22.1517 16.7519 22.478 16.5065 22.8024 16.2624C23.2594 15.9185 23.7129 15.5773 23.8754 15.0773C24.0365 14.5805 23.8715 14.0413 23.7048 13.497C23.5843 13.1045 23.463 12.7094 23.463 12.3257C23.463 11.9393 23.5843 11.536 23.7043 11.1368C23.8689 10.5899 24.031 10.0508 23.8754 9.57403C23.7181 9.09215 23.2495 8.73328 22.7832 8.37617C22.4518 8.12218 22.1213 7.86909 21.9048 7.57325C21.6905 7.28006 21.5568 6.8985 21.4226 6.51443C21.2306 5.96607 21.0368 5.41257 20.603 5.10372C20.1654 4.79209 19.582 4.78611 19.0016 4.78018C18.6042 4.77611 18.2077 4.77205 17.86 4.66971C17.494 4.56201 17.1575 4.3153 16.8206 4.06824C16.37 3.73781 15.9187 3.40674 15.3948 3.40674C14.8547 3.40674 14.3734 3.7452 13.8997 4.078C13.5709 4.30922 13.246 4.53769 12.9078 4.64801C12.561 4.76126 12.1461 4.76842 11.729 4.77561C11.1554 4.78551 10.5772 4.79549 10.1648 5.08202C9.75287 5.3686 9.56298 5.90563 9.37094 6.44936C9.23163 6.84437 9.09103 7.24291 8.86298 7.55155C8.63794 7.85595 8.31173 8.1013 7.98724 8.3453C7.53029 8.68923 7.07678 9.03046 6.91431 9.53062C6.75314 10.0265 6.92332 10.5719 7.09478 11.1213C7.21909 11.5193 7.34383 11.9193 7.34383 12.304ZM15.3953 6.51697C12.1268 6.51697 9.47725 9.16656 9.47725 12.435C9.47725 15.7034 12.1268 18.353 15.3953 18.353C18.6638 18.353 21.3133 15.7034 21.3133 12.435C21.3133 9.16656 18.6638 6.51697 15.3953 6.51697Z" fill="#F4CE7B"/>
</svg>
