<svg width="198" height="25" viewBox="0 0 198 25" fill="none" xmlns="http://www.w3.org/2000/svg">
<rect x="0.850586" y="0.10791" width="197.014" height="24.0516" rx="5" fill="#F4CE7B"/>
<path d="M31.8434 5.017L35.2504 15.321H35.3846L38.7852 5.017H41.3931L36.7781 18.1079H33.8505L29.2418 5.017H31.8434ZM46.2431 18.2997C45.2843 18.2997 44.4533 18.0887 43.7502 17.6669C43.0471 17.245 42.5016 16.6548 42.1138 15.8963C41.7303 15.1377 41.5385 14.2514 41.5385 13.2372C41.5385 12.223 41.7303 11.3345 42.1138 10.5717C42.5016 9.8089 43.0471 9.21657 43.7502 8.7947C44.4533 8.37283 45.2843 8.16189 46.2431 8.16189C47.2019 8.16189 48.0328 8.37283 48.736 8.7947C49.4391 9.21657 49.9824 9.8089 50.3659 10.5717C50.7537 11.3345 50.9476 12.223 50.9476 13.2372C50.9476 14.2514 50.7537 15.1377 50.3659 15.8963C49.9824 16.6548 49.4391 17.245 48.736 17.6669C48.0328 18.0887 47.2019 18.2997 46.2431 18.2997ZM46.2559 16.446C46.7757 16.446 47.2104 16.3032 47.5598 16.0177C47.9093 15.7279 48.1692 15.3402 48.3397 14.8544C48.5144 14.3686 48.6017 13.8274 48.6017 13.2308C48.6017 12.6299 48.5144 12.0866 48.3397 11.6008C48.1692 11.1108 47.9093 10.7208 47.5598 10.4311C47.2104 10.1413 46.7757 9.9964 46.2559 9.9964C45.7232 9.9964 45.28 10.1413 44.9263 10.4311C44.5769 10.7208 44.3148 11.1108 44.1401 11.6008C43.9696 12.0866 43.8844 12.6299 43.8844 13.2308C43.8844 13.8274 43.9696 14.3686 44.1401 14.8544C44.3148 15.3402 44.5769 15.7279 44.9263 16.0177C45.28 16.3032 45.7232 16.446 46.2559 16.446ZM57.8143 8.28973V10.0795H52.1701V8.28973H57.8143ZM53.5636 5.93746H55.8775V15.1548C55.8775 15.4659 55.9244 15.7045 56.0181 15.8707C56.1161 16.0326 56.244 16.1434 56.4016 16.2031C56.5593 16.2627 56.734 16.2926 56.9258 16.2926C57.0707 16.2926 57.2028 16.2819 57.3221 16.2606C57.4457 16.2393 57.5394 16.2201 57.6033 16.2031L57.9933 18.012C57.8697 18.0546 57.6928 18.1015 57.4627 18.1527C57.2369 18.2038 56.9599 18.2336 56.6317 18.2421C56.0522 18.2592 55.5302 18.1718 55.0657 17.9801C54.6012 17.784 54.2326 17.4815 53.9599 17.0724C53.6914 16.6633 53.5593 16.1519 53.5636 15.5383V5.93746ZM63.9906 18.2997C63.0062 18.2997 62.1561 18.0951 61.4402 17.686C60.7285 17.2727 60.1809 16.6889 59.7974 15.9346C59.4139 15.1761 59.2221 14.2833 59.2221 13.2563C59.2221 12.2464 59.4139 11.36 59.7974 10.5973C60.1852 9.83021 60.7264 9.23362 61.421 8.80748C62.1156 8.37709 62.9316 8.16189 63.8691 8.16189C64.4743 8.16189 65.0453 8.2599 65.5822 8.45592C66.1234 8.64768 66.6007 8.94598 67.014 9.35081C67.4316 9.75564 67.7598 10.2713 67.9984 10.8977C68.237 11.5198 68.3564 12.2613 68.3564 13.1221V13.8316H60.3088V12.272H66.1383C66.1341 11.8288 66.0382 11.4346 65.8507 11.0894C65.6632 10.74 65.4011 10.4652 65.0645 10.2649C64.7321 10.0646 64.3443 9.96444 63.9011 9.96444C63.4281 9.96444 63.0126 10.0795 62.6547 10.3096C62.2967 10.5355 62.0176 10.8338 61.8173 11.2045C61.6213 11.571 61.5211 11.9737 61.5169 12.4126V13.7741C61.5169 14.3451 61.6213 14.8352 61.8301 15.2443C62.0389 15.6491 62.3308 15.9602 62.7058 16.1775C63.0808 16.3906 63.5197 16.4971 64.0226 16.4971C64.3592 16.4971 64.6639 16.4502 64.9366 16.3565C65.2093 16.2585 65.4458 16.1157 65.6461 15.9282C65.8464 15.7407 65.9977 15.5085 66.1 15.2315L68.2605 15.4744C68.1241 16.0454 67.8642 16.544 67.4806 16.9701C67.1014 17.392 66.6156 17.7201 66.0233 17.9545C65.4309 18.1846 64.7534 18.2997 63.9906 18.2997ZM70.3139 18.1079V8.28973H72.5575V9.92609H72.6598C72.8388 9.35933 73.1456 8.92254 73.5803 8.61572C74.0192 8.30464 74.5199 8.1491 75.0824 8.1491C75.2102 8.1491 75.353 8.15549 75.5107 8.16828C75.6726 8.1768 75.8068 8.19172 75.9134 8.21302V10.3416C75.8153 10.3075 75.6598 10.2777 75.4467 10.2521C75.2379 10.2223 75.0355 10.2073 74.8395 10.2073C74.4176 10.2073 74.0384 10.299 73.7017 10.4822C73.3693 10.6612 73.1072 10.9105 72.9155 11.2301C72.7237 11.5497 72.6278 11.9183 72.6278 12.3359V18.1079H70.3139ZM81.9155 21.7897V8.28973H84.1911V9.91331H84.3253C84.4446 9.67467 84.6129 9.42112 84.8303 9.15265C85.0476 8.87993 85.3416 8.64768 85.7124 8.45592C86.0831 8.2599 86.5561 8.16189 87.1314 8.16189C87.8899 8.16189 88.5739 8.35578 89.1832 8.74356C89.7969 9.12709 90.2827 9.69598 90.6406 10.4502C91.0028 11.2002 91.1839 12.1207 91.1839 13.2116C91.1839 14.2897 91.0071 15.2059 90.6534 15.9602C90.2997 16.7144 89.8182 17.2897 89.2088 17.686C88.5994 18.0823 87.9091 18.2805 87.1378 18.2805C86.5753 18.2805 86.1087 18.1867 85.7379 17.9992C85.3672 17.8117 85.0689 17.5859 84.843 17.3217C84.6214 17.0532 84.4489 16.7997 84.3253 16.561H84.2294V21.7897H81.9155ZM84.1847 13.1988C84.1847 13.8338 84.2741 14.3899 84.4531 14.8671C84.6364 15.3444 84.8984 15.7173 85.2393 15.9858C85.5845 16.25 86.0021 16.3821 86.4922 16.3821C87.0036 16.3821 87.4318 16.2457 87.777 15.973C88.1222 15.696 88.3821 15.3188 88.5568 14.8416C88.7358 14.36 88.8253 13.8125 88.8253 13.1988C88.8253 12.5894 88.7379 12.0483 88.5632 11.5752C88.3885 11.1022 88.1286 10.7315 87.7834 10.463C87.4382 10.1946 87.0078 10.0603 86.4922 10.0603C85.9979 10.0603 85.5781 10.1903 85.233 10.4502C84.8878 10.7102 84.6257 11.0745 84.4467 11.5433C84.272 12.012 84.1847 12.5639 84.1847 13.1988ZM97.4482 18.2997C96.4893 18.2997 95.6584 18.0887 94.9553 17.6669C94.2521 17.245 93.7067 16.6548 93.3189 15.8963C92.9354 15.1377 92.7436 14.2514 92.7436 13.2372C92.7436 12.223 92.9354 11.3345 93.3189 10.5717C93.7067 9.8089 94.2521 9.21657 94.9553 8.7947C95.6584 8.37283 96.4893 8.16189 97.4482 8.16189C98.407 8.16189 99.2379 8.37283 99.9411 8.7947C100.644 9.21657 101.188 9.8089 101.571 10.5717C101.959 11.3345 102.153 12.223 102.153 13.2372C102.153 14.2514 101.959 15.1377 101.571 15.8963C101.188 16.6548 100.644 17.245 99.9411 17.6669C99.2379 18.0887 98.407 18.2997 97.4482 18.2997ZM97.4609 16.446C97.9808 16.446 98.4155 16.3032 98.7649 16.0177C99.1143 15.7279 99.3743 15.3402 99.5447 14.8544C99.7195 14.3686 99.8068 13.8274 99.8068 13.2308C99.8068 12.6299 99.7195 12.0866 99.5447 11.6008C99.3743 11.1108 99.1143 10.7208 98.7649 10.4311C98.4155 10.1413 97.9808 9.9964 97.4609 9.9964C96.9283 9.9964 96.4851 10.1413 96.1314 10.4311C95.782 10.7208 95.5199 11.1108 95.3452 11.6008C95.1747 12.0866 95.0895 12.6299 95.0895 13.2308C95.0895 13.8274 95.1747 14.3686 95.3452 14.8544C95.5199 15.3402 95.782 15.7279 96.1314 16.0177C96.4851 16.3032 96.9283 16.446 97.4609 16.446ZM110.374 13.9786V8.28973H112.688V18.1079H110.445V16.3629H110.343C110.121 16.9126 109.757 17.3622 109.249 17.7116C108.747 18.061 108.127 18.2358 107.389 18.2358C106.746 18.2358 106.177 18.093 105.683 17.8075C105.193 17.5177 104.809 17.098 104.532 16.5483C104.255 15.9943 104.117 15.3252 104.117 14.5411V8.28973H106.431V14.1832C106.431 14.8054 106.601 15.2997 106.942 15.6661C107.283 16.0326 107.73 16.2159 108.284 16.2159C108.625 16.2159 108.955 16.1328 109.275 15.9666C109.595 15.8004 109.857 15.5532 110.061 15.2251C110.27 14.8927 110.374 14.4772 110.374 13.9786ZM115.068 18.1079V8.28973H117.311V9.92609H117.414C117.593 9.35933 117.9 8.92254 118.334 8.61572C118.773 8.30464 119.274 8.1491 119.836 8.1491C119.964 8.1491 120.107 8.15549 120.265 8.16828C120.426 8.1768 120.561 8.19172 120.667 8.21302V10.3416C120.569 10.3075 120.414 10.2777 120.201 10.2521C119.992 10.2223 119.789 10.2073 119.593 10.2073C119.172 10.2073 118.792 10.299 118.456 10.4822C118.123 10.6612 117.861 10.9105 117.669 11.2301C117.478 11.5497 117.382 11.9183 117.382 12.3359V18.1079H115.068ZM128.983 5.017V18.1079H126.669V5.017H128.983ZM135.709 18.2997C134.725 18.2997 133.875 18.0951 133.159 17.686C132.447 17.2727 131.9 16.6889 131.516 15.9346C131.133 15.1761 130.941 14.2833 130.941 13.2563C130.941 12.2464 131.133 11.36 131.516 10.5973C131.904 9.83021 132.445 9.23362 133.14 8.80748C133.834 8.37709 134.65 8.16189 135.588 8.16189C136.193 8.16189 136.764 8.2599 137.301 8.45592C137.842 8.64768 138.319 8.94598 138.733 9.35081C139.15 9.75564 139.479 10.2713 139.717 10.8977C139.956 11.5198 140.075 12.2613 140.075 13.1221V13.8316H132.028V12.272H137.857C137.853 11.8288 137.757 11.4346 137.569 11.0894C137.382 10.74 137.12 10.4652 136.783 10.2649C136.451 10.0646 136.063 9.96444 135.62 9.96444C135.147 9.96444 134.731 10.0795 134.373 10.3096C134.015 10.5355 133.736 10.8338 133.536 11.2045C133.34 11.571 133.24 11.9737 133.236 12.4126V13.7741C133.236 14.3451 133.34 14.8352 133.549 15.2443C133.758 15.6491 134.05 15.9602 134.425 16.1775C134.8 16.3906 135.238 16.4971 135.741 16.4971C136.078 16.4971 136.383 16.4502 136.655 16.3565C136.928 16.2585 137.165 16.1157 137.365 15.9282C137.565 15.7407 137.716 15.5085 137.819 15.2315L139.979 15.4744C139.843 16.0454 139.583 16.544 139.199 16.9701C138.82 17.392 138.334 17.7201 137.742 17.9545C137.15 18.1846 136.472 18.2997 135.709 18.2997ZM146.498 18.1079V8.28973H148.709V9.95805H148.824C149.029 9.39555 149.368 8.95663 149.841 8.64129C150.314 8.32169 150.878 8.16189 151.534 8.16189C152.199 8.16189 152.76 8.32382 153.216 8.64768C153.676 8.96728 154 9.40407 154.187 9.95805H154.289C154.507 9.4126 154.873 8.97794 155.389 8.65408C155.909 8.32595 156.525 8.16189 157.236 8.16189C158.14 8.16189 158.877 8.4474 159.448 9.01842C160.019 9.58944 160.304 10.4225 160.304 11.5177V18.1079H157.984V11.8757C157.984 11.2663 157.822 10.821 157.498 10.5397C157.174 10.2542 156.778 10.1115 156.309 10.1115C155.751 10.1115 155.314 10.2862 154.999 10.6356C154.688 10.9808 154.532 11.4304 154.532 11.9843V18.1079H152.263V11.7798C152.263 11.2727 152.11 10.8679 151.803 10.5653C151.5 10.2627 151.104 10.1115 150.614 10.1115C150.282 10.1115 149.979 10.1967 149.706 10.3671C149.434 10.5333 149.216 10.7698 149.054 11.0767C148.892 11.3792 148.811 11.7329 148.811 12.1377V18.1079H146.498ZM165.477 18.3061C164.855 18.3061 164.295 18.1953 163.796 17.9737C163.302 17.7478 162.91 17.4154 162.62 16.9765C162.334 16.5376 162.192 15.9964 162.192 15.3529C162.192 14.799 162.294 14.3409 162.498 13.9786C162.703 13.6164 162.982 13.3267 163.336 13.1093C163.689 12.892 164.088 12.7279 164.531 12.6171C164.979 12.5021 165.441 12.419 165.918 12.3679C166.493 12.3082 166.96 12.2549 167.318 12.2081C167.676 12.1569 167.936 12.0802 168.098 11.9779C168.264 11.8714 168.347 11.7073 168.347 11.4858V11.4474C168.347 10.9659 168.204 10.593 167.919 10.3288C167.633 10.0646 167.222 9.93248 166.685 9.93248C166.118 9.93248 165.669 10.0561 165.336 10.3032C165.008 10.5504 164.787 10.8423 164.672 11.1789L162.511 10.8721C162.682 10.2755 162.963 9.77694 163.355 9.37638C163.747 8.97155 164.226 8.66899 164.793 8.46871C165.36 8.26416 165.986 8.16189 166.672 8.16189C167.145 8.16189 167.616 8.21729 168.085 8.32808C168.554 8.43888 168.982 8.62211 169.37 8.8778C169.758 9.12922 170.069 9.47226 170.303 9.90692C170.542 10.3416 170.661 10.8849 170.661 11.5369V18.1079H168.437V16.7592H168.36C168.219 17.0319 168.021 17.2876 167.765 17.5262C167.514 17.7606 167.197 17.9502 166.813 18.0951C166.434 18.2358 165.988 18.3061 165.477 18.3061ZM166.078 16.6058C166.542 16.6058 166.945 16.5142 167.286 16.3309C167.627 16.1434 167.889 15.8963 168.072 15.5894C168.26 15.2826 168.354 14.9481 168.354 14.5859V13.4289C168.281 13.4886 168.157 13.544 167.983 13.5951C167.812 13.6463 167.621 13.691 167.407 13.7294C167.194 13.7677 166.983 13.8018 166.775 13.8316C166.566 13.8615 166.385 13.887 166.231 13.9083C165.886 13.9552 165.577 14.0319 165.305 14.1384C165.032 14.245 164.817 14.3941 164.659 14.5859C164.501 14.7734 164.422 15.0163 164.422 15.3146C164.422 15.7407 164.578 16.0625 164.889 16.2798C165.2 16.4971 165.596 16.6058 166.078 16.6058ZM172.988 18.1079V8.28973H175.302V18.1079H172.988ZM174.151 6.89626C173.785 6.89626 173.469 6.77481 173.205 6.53192C172.941 6.28476 172.809 5.98859 172.809 5.64342C172.809 5.29399 172.941 4.99782 173.205 4.75493C173.469 4.50777 173.785 4.38419 174.151 4.38419C174.522 4.38419 174.837 4.50777 175.097 4.75493C175.361 4.99782 175.493 5.29399 175.493 5.64342C175.493 5.98859 175.361 6.28476 175.097 6.53192C174.837 6.77481 174.522 6.89626 174.151 6.89626ZM177.681 18.1079V8.28973H179.925V9.92609H180.027C180.206 9.35933 180.513 8.92254 180.947 8.61572C181.386 8.30464 181.887 8.1491 182.45 8.1491C182.577 8.1491 182.72 8.15549 182.878 8.16828C183.04 8.1768 183.174 8.19172 183.281 8.21302V10.3416C183.183 10.3075 183.027 10.2777 182.814 10.2521C182.605 10.2223 182.403 10.2073 182.207 10.2073C181.785 10.2073 181.406 10.299 181.069 10.4822C180.737 10.6612 180.474 10.9105 180.283 11.2301C180.091 11.5497 179.995 11.9183 179.995 12.3359V18.1079H177.681ZM188.76 18.2997C187.776 18.2997 186.926 18.0951 186.21 17.686C185.498 17.2727 184.95 16.6889 184.567 15.9346C184.183 15.1761 183.992 14.2833 183.992 13.2563C183.992 12.2464 184.183 11.36 184.567 10.5973C184.955 9.83021 185.496 9.23362 186.191 8.80748C186.885 8.37709 187.701 8.16189 188.639 8.16189C189.244 8.16189 189.815 8.2599 190.352 8.45592C190.893 8.64768 191.37 8.94598 191.784 9.35081C192.201 9.75564 192.529 10.2713 192.768 10.8977C193.007 11.5198 193.126 12.2613 193.126 13.1221V13.8316H185.078V12.272H190.908C190.904 11.8288 190.808 11.4346 190.62 11.0894C190.433 10.74 190.171 10.4652 189.834 10.2649C189.502 10.0646 189.114 9.96444 188.671 9.96444C188.198 9.96444 187.782 10.0795 187.424 10.3096C187.066 10.5355 186.787 10.8338 186.587 11.2045C186.391 11.571 186.291 11.9737 186.286 12.4126V13.7741C186.286 14.3451 186.391 14.8352 186.6 15.2443C186.808 15.6491 187.1 15.9602 187.475 16.1775C187.85 16.3906 188.289 16.4971 188.792 16.4971C189.129 16.4971 189.433 16.4502 189.706 16.3565C189.979 16.2585 190.215 16.1157 190.416 15.9282C190.616 15.7407 190.767 15.5085 190.869 15.2315L193.03 15.4744C192.894 16.0454 192.634 16.544 192.25 16.9701C191.871 17.392 191.385 17.7201 190.793 17.9545C190.2 18.1846 189.523 18.2997 188.76 18.2997Z" fill="#061F31"/>
<path d="M16.6056 10.3175L15.9459 9.17607C15.8851 9.07258 15.7985 8.98678 15.6939 8.92719C15.6347 8.8934 15.5713 8.8687 15.5053 8.85363C15.4551 8.84211 15.4037 8.83623 15.3514 8.83623C15.2314 8.83623 15.1135 8.86758 15.0093 8.92719C14.9047 8.98678 14.8177 9.07258 14.7568 9.17607L14.0757 10.3262C14.0277 10.4115 13.9617 10.4852 13.8824 10.5422C13.8026 10.5992 13.7118 10.6381 13.6153 10.656L12.3135 10.9121C12.1956 10.9338 12.0863 10.987 11.9963 11.0658C11.9423 11.1133 11.8964 11.1691 11.8604 11.2308C11.8364 11.2716 11.8171 11.315 11.8025 11.3603C11.7652 11.4742 11.7601 11.5959 11.7867 11.7125C11.8132 11.8292 11.8707 11.9365 11.9534 12.0232L12.8647 12.9867C12.9312 13.0566 12.9809 13.1404 13.0109 13.2319C13.0409 13.3235 13.0504 13.4206 13.0383 13.5162L12.8819 14.8182C12.8695 14.9388 12.8892 15.0606 12.9393 15.171C12.9891 15.2814 13.0679 15.3764 13.1669 15.4463C13.266 15.5162 13.3821 15.5584 13.5026 15.5685C13.6235 15.5786 13.7448 15.5564 13.8541 15.5039L15.0736 14.9527C15.1045 14.9389 15.1362 14.9273 15.1683 14.918C15.2305 14.9001 15.2952 14.8909 15.3604 14.8909C15.459 14.8909 15.5567 14.912 15.6467 14.9527L16.8662 15.5039C16.9751 15.5542 17.0956 15.5748 17.2152 15.5637C17.3343 15.5525 17.4488 15.5099 17.5469 15.4404C17.6447 15.3708 17.7223 15.2766 17.772 15.1673C17.7943 15.1179 17.8106 15.0663 17.8209 15.0134C17.8333 14.9494 17.8363 14.8836 17.8299 14.8182L17.6734 13.5162C17.6665 13.4618 17.667 13.4069 17.6738 13.3529C17.679 13.3119 17.688 13.2714 17.7008 13.2319C17.7308 13.1404 17.7806 13.0566 17.847 12.9867L18.7583 12.0232C18.8063 11.9723 18.8462 11.9144 18.8762 11.8518C18.8976 11.8069 18.9139 11.7596 18.9246 11.7107C18.9508 11.5934 18.9444 11.4712 18.9066 11.3572C18.8874 11.2992 18.8604 11.2445 18.8265 11.1944C18.7935 11.1459 18.7545 11.1017 18.7099 11.0632C18.6186 10.9848 18.508 10.9326 18.3897 10.9121L17.066 10.6474C16.9696 10.6294 16.8787 10.5905 16.7994 10.5336C16.7196 10.4766 16.6536 10.4028 16.6056 10.3175Z" fill="#061F31"/>
<path fill-rule="evenodd" clip-rule="evenodd" d="M7.30379 12.0725C7.30379 12.4644 7.17905 12.8738 7.0556 13.2786C6.89099 13.8196 6.72853 14.3524 6.86999 14.8241C7.01445 15.3059 7.4864 15.6573 7.95792 16.0082C8.29313 16.2579 8.62791 16.5073 8.84438 16.8032C9.05871 17.0964 9.19245 17.4779 9.32704 17.8619C9.51908 18.4103 9.71283 18.9639 10.1466 19.2727C10.5843 19.5844 11.1673 19.5904 11.7477 19.5963C12.1455 19.6004 12.542 19.6044 12.8896 19.7068C13.2552 19.8144 13.5913 20.061 13.9282 20.308C14.3792 20.6385 14.831 20.9697 15.3548 20.9697C15.8953 20.9697 16.3767 20.6311 16.85 20.2983C17.1787 20.0671 17.5037 19.8387 17.8414 19.7284C18.1886 19.6152 18.6036 19.608 19.0207 19.6009C19.5942 19.591 20.1725 19.581 20.5844 19.2944C20.9968 19.0079 21.1862 18.471 21.3783 17.9274C21.5176 17.5323 21.6582 17.1336 21.8867 16.8249C22.1117 16.5204 22.4379 16.275 22.7624 16.0309C23.2194 15.6871 23.6729 15.3459 23.8353 14.8458C23.9965 14.3491 23.8315 13.8098 23.6647 13.2655C23.5443 12.873 23.423 12.4779 23.423 12.0942C23.423 11.7079 23.5443 11.3045 23.6643 10.9054C23.8289 10.3584 23.9909 9.81931 23.8353 9.34258C23.678 8.8607 23.2095 8.50184 22.7431 8.14473C22.4118 7.89074 22.0813 7.63764 21.8648 7.3418C21.6505 7.04861 21.5167 6.66706 21.3826 6.28298C21.1905 5.73462 20.9968 5.18112 20.563 4.87228C20.1253 4.56064 19.5419 4.55467 18.9615 4.54873C18.5642 4.54466 18.1676 4.5406 17.82 4.43826C17.4539 4.33056 17.1174 4.08386 16.7805 3.83679C16.33 3.50636 15.8786 3.17529 15.3548 3.17529C14.8147 3.17529 14.3333 3.51376 13.8597 3.84656C13.5309 4.07778 13.206 4.30625 12.8677 4.41656C12.521 4.52982 12.106 4.53697 11.6889 4.54417C11.1154 4.55406 10.5371 4.56404 10.1248 4.85057C9.71284 5.13716 9.52294 5.67418 9.3309 6.21792C9.19159 6.61293 9.05099 7.01147 8.82295 7.3201C8.5979 7.6245 8.27169 7.86985 7.9472 8.11385C7.49025 8.45778 7.03674 8.79902 6.87428 9.29918C6.7131 9.79501 6.88328 10.3405 7.05474 10.8899C7.17905 11.2878 7.30379 11.6878 7.30379 12.0725ZM15.3552 6.28553C12.0867 6.28553 9.43721 8.93512 9.43721 12.2036C9.43721 15.472 12.0867 18.1216 15.3552 18.1216C18.6237 18.1216 21.2733 15.472 21.2733 12.2036C21.2733 8.93512 18.6237 6.28553 15.3552 6.28553Z" fill="#061F31"/>
</svg>
