<svg width="191" height="25" viewBox="0 0 191 25" fill="none" xmlns="http://www.w3.org/2000/svg">
<rect x="0.890625" y="0.633423" width="189.168" height="24.0516" rx="5" fill="#061F31"/>
<path d="M39.3373 9.95942H36.9466C36.8785 9.56737 36.7528 9.22007 36.5695 8.91751C36.3863 8.6107 36.1583 8.35075 35.8856 8.13768C35.6128 7.92462 35.3018 7.76481 34.9523 7.65828C34.6072 7.54749 34.2343 7.49209 33.8337 7.49209C33.1221 7.49209 32.4914 7.67106 31.9417 8.02902C31.392 8.38271 30.9616 8.9026 30.6505 9.58868C30.3394 10.2705 30.1839 11.1036 30.1839 12.088C30.1839 13.0894 30.3394 13.9331 30.6505 14.6192C30.9658 15.301 31.3962 15.8167 31.9417 16.1661C32.4914 16.5113 33.1199 16.6838 33.8273 16.6838C34.2194 16.6838 34.5858 16.6327 34.9268 16.5304C35.2719 16.4239 35.5809 16.2684 35.8536 16.0638C36.1306 15.8593 36.3628 15.6079 36.5503 15.3096C36.7421 15.0113 36.8742 14.6704 36.9466 14.2868L39.3373 14.2996C39.2478 14.9218 39.0539 15.5056 38.7556 16.051C38.4616 16.5965 38.0759 17.078 37.5986 17.4956C37.1214 17.909 36.5631 18.2329 35.9239 18.4672C35.2847 18.6973 34.5752 18.8124 33.7954 18.8124C32.6448 18.8124 31.6178 18.5461 30.7144 18.0134C29.811 17.4807 29.0993 16.7115 28.5795 15.7059C28.0596 14.7002 27.7996 13.4942 27.7996 12.088C27.7996 10.6775 28.0617 9.47149 28.5858 8.47007C29.11 7.46439 29.8238 6.69521 30.7272 6.16254C31.6306 5.62987 32.6533 5.36354 33.7954 5.36354C34.5241 5.36354 35.2016 5.46581 35.828 5.67035C36.4545 5.8749 37.0127 6.17533 37.5028 6.57163C37.9928 6.96368 38.3955 7.44521 38.7108 8.01624C39.0305 8.583 39.2393 9.23072 39.3373 9.95942ZM43.7206 12.8806V18.6334H41.4067V5.54251H43.6695V10.4836H43.7845C44.0146 9.92959 44.3705 9.4928 44.852 9.1732C45.3378 8.84933 45.9557 8.6874 46.7057 8.6874C47.3875 8.6874 47.982 8.83016 48.4891 9.11567C48.9962 9.40118 49.3882 9.81879 49.6652 10.3685C49.9465 10.9182 50.0871 11.5894 50.0871 12.382V18.6334H47.7732V12.74C47.7732 12.0794 47.6027 11.566 47.2618 11.1995C46.9252 10.8287 46.4521 10.6434 45.8428 10.6434C45.4337 10.6434 45.0672 10.7329 44.7433 10.9118C44.4237 11.0865 44.1723 11.3401 43.9891 11.6725C43.8101 12.0049 43.7206 12.4076 43.7206 12.8806ZM56.7284 18.8252C55.7696 18.8252 54.9387 18.6142 54.2355 18.1924C53.5324 17.7705 52.9869 17.1803 52.5992 16.4218C52.2156 15.6633 52.0239 14.7769 52.0239 13.7627C52.0239 12.7485 52.2156 11.86 52.5992 11.0972C52.9869 10.3344 53.5324 9.74209 54.2355 9.32021C54.9387 8.89834 55.7696 8.6874 56.7284 8.6874C57.6872 8.6874 58.5182 8.89834 59.2213 9.32021C59.9244 9.74209 60.4678 10.3344 60.8513 11.0972C61.2391 11.86 61.433 12.7485 61.433 13.7627C61.433 14.7769 61.2391 15.6633 60.8513 16.4218C60.4678 17.1803 59.9244 17.7705 59.2213 18.1924C58.5182 18.6142 57.6872 18.8252 56.7284 18.8252ZM56.7412 16.9715C57.2611 16.9715 57.6958 16.8287 58.0452 16.5432C58.3946 16.2535 58.6546 15.8657 58.825 15.3799C58.9997 14.8941 59.0871 14.3529 59.0871 13.7563C59.0871 13.1554 58.9997 12.6121 58.825 12.1263C58.6546 11.6363 58.3946 11.2463 58.0452 10.9566C57.6958 10.6668 57.2611 10.5219 56.7412 10.5219C56.2085 10.5219 55.7654 10.6668 55.4117 10.9566C55.0622 11.2463 54.8002 11.6363 54.6254 12.1263C54.455 12.6121 54.3698 13.1554 54.3698 13.7563C54.3698 14.3529 54.455 14.8941 54.6254 15.3799C54.8002 15.8657 55.0622 16.2535 55.4117 16.5432C55.7654 16.8287 56.2085 16.9715 56.7412 16.9715ZM63.3969 18.6334V8.81524H65.7108V18.6334H63.3969ZM64.5603 7.42178C64.1938 7.42178 63.8785 7.30033 63.6143 7.05743C63.3501 6.81027 63.218 6.5141 63.218 6.16893C63.218 5.8195 63.3501 5.52334 63.6143 5.28044C63.8785 5.03328 64.1938 4.9097 64.5603 4.9097C64.931 4.9097 65.2464 5.03328 65.5063 5.28044C65.7705 5.52334 65.9026 5.8195 65.9026 6.16893C65.9026 6.5141 65.7705 6.81027 65.5063 7.05743C65.2464 7.30033 64.931 7.42178 64.5603 7.42178ZM75.8502 11.4104L73.7409 11.6405C73.6812 11.4275 73.5768 11.2272 73.4276 11.0397C73.2828 10.8522 73.0867 10.7009 72.8396 10.5858C72.5924 10.4708 72.2899 10.4133 71.9319 10.4133C71.4504 10.4133 71.0455 10.5177 70.7174 10.7265C70.3936 10.9353 70.2338 11.2059 70.238 11.5383C70.2338 11.8238 70.3382 12.056 70.5512 12.235C70.7686 12.414 71.1265 12.561 71.6251 12.676L73.2998 13.034C74.2288 13.2343 74.9191 13.5517 75.3708 13.9864C75.8268 14.4211 76.0569 14.99 76.0612 15.6931C76.0569 16.311 75.8758 16.8564 75.5178 17.3294C75.1642 17.7982 74.672 18.1647 74.0413 18.4289C73.4106 18.6931 72.6862 18.8252 71.868 18.8252C70.6663 18.8252 69.699 18.5738 68.966 18.0709C68.233 17.5638 67.7963 16.8586 67.6556 15.9552L69.912 15.7378C70.0143 16.181 70.2316 16.5155 70.564 16.7414C70.8964 16.9672 71.3289 17.0802 71.8616 17.0802C72.4113 17.0802 72.8524 16.9672 73.1847 16.7414C73.5214 16.5155 73.6897 16.2364 73.6897 15.904C73.6897 15.6228 73.5811 15.3905 73.3637 15.2073C73.1507 15.024 72.8183 14.8834 72.3666 14.7854L70.6919 14.4338C69.7501 14.2378 69.0534 13.9076 68.6017 13.4431C68.1499 12.9743 67.9262 12.382 67.9305 11.6661C67.9262 11.061 68.0903 10.5368 68.4227 10.0936C68.7593 9.64621 69.2259 9.30104 69.8225 9.05814C70.4234 8.81098 71.1159 8.6874 71.8999 8.6874C73.0505 8.6874 73.9561 8.93243 74.6166 9.42249C75.2813 9.91254 75.6926 10.5752 75.8502 11.4104ZM77.9692 18.6334V8.81524H80.2831V18.6334H77.9692ZM79.1325 7.42178C78.7661 7.42178 78.4507 7.30033 78.1865 7.05743C77.9223 6.81027 77.7902 6.5141 77.7902 6.16893C77.7902 5.8195 77.9223 5.52334 78.1865 5.28044C78.4507 5.03328 78.7661 4.9097 79.1325 4.9097C79.5033 4.9097 79.8186 5.03328 80.0786 5.28044C80.3428 5.52334 80.4749 5.8195 80.4749 6.16893C80.4749 6.5141 80.3428 6.81027 80.0786 7.05743C79.8186 7.30033 79.5033 7.42178 79.1325 7.42178ZM82.6626 18.6334V8.81524H84.9062V10.4516H85.0084C85.1874 9.88484 85.4942 9.44805 85.9289 9.14124C86.3678 8.83016 86.8685 8.67462 87.431 8.67462C87.5589 8.67462 87.7016 8.68101 87.8593 8.69379C88.0212 8.70231 88.1555 8.71723 88.262 8.73854V10.8671C88.164 10.833 88.0084 10.8032 87.7954 10.7776C87.5866 10.7478 87.3841 10.7329 87.1881 10.7329C86.7662 10.7329 86.387 10.8245 86.0503 11.0077C85.718 11.1867 85.4559 11.436 85.2641 11.7556C85.0724 12.0752 84.9765 12.4438 84.9765 12.8614V18.6334H82.6626ZM100.522 14.5042V8.81524H102.836V18.6334H100.592V16.8884H100.49C100.268 17.4381 99.904 17.8877 99.3969 18.2371C98.8941 18.5865 98.2741 18.7613 97.5368 18.7613C96.8934 18.7613 96.3245 18.6185 95.8302 18.333C95.3401 18.0432 94.9566 17.6235 94.6796 17.0738C94.4026 16.5198 94.2641 15.8508 94.2641 15.0667V8.81524H96.578V14.7087C96.578 15.3309 96.7485 15.8252 97.0894 16.1917C97.4303 16.5581 97.8778 16.7414 98.4317 16.7414C98.7726 16.7414 99.1029 16.6583 99.4225 16.4921C99.7421 16.3259 100.004 16.0787 100.209 15.7506C100.418 15.4182 100.522 15.0027 100.522 14.5042ZM107.529 12.8806V18.6334H105.215V8.81524H107.427V10.4836H107.542C107.768 9.93385 108.128 9.49706 108.622 9.1732C109.121 8.84933 109.737 8.6874 110.47 8.6874C111.147 8.6874 111.737 8.83229 112.24 9.12206C112.747 9.41183 113.139 9.83158 113.416 10.3813C113.698 10.931 113.836 11.5979 113.832 12.382V18.6334H111.518V12.74C111.518 12.0837 111.347 11.5702 111.006 11.1995C110.67 10.8287 110.203 10.6434 109.607 10.6434C109.202 10.6434 108.842 10.7329 108.526 10.9118C108.215 11.0865 107.97 11.3401 107.791 11.6725C107.617 12.0049 107.529 12.4076 107.529 12.8806ZM120.649 18.6334V8.81524H122.861V10.4836H122.976C123.18 9.92106 123.519 9.48214 123.992 9.1668C124.465 8.8472 125.03 8.6874 125.686 8.6874C126.351 8.6874 126.911 8.84933 127.367 9.1732C127.827 9.4928 128.151 9.92959 128.339 10.4836H128.441C128.658 9.93811 129.025 9.50345 129.54 9.17959C130.06 8.85146 130.676 8.6874 131.388 8.6874C132.291 8.6874 133.028 8.97291 133.599 9.54393C134.17 10.115 134.456 10.9481 134.456 12.0432V18.6334H132.135V12.4012C132.135 11.7918 131.973 11.3465 131.65 11.0652C131.326 10.7797 130.929 10.637 130.461 10.637C129.902 10.637 129.466 10.8117 129.15 11.1611C128.839 11.5063 128.684 11.9559 128.684 12.5098V18.6334H126.415V12.3053C126.415 11.7982 126.261 11.3934 125.954 11.0908C125.652 10.7883 125.255 10.637 124.765 10.637C124.433 10.637 124.13 10.7222 123.858 10.8927C123.585 11.0588 123.368 11.2954 123.206 11.6022C123.044 11.9047 122.963 12.2584 122.963 12.6633V18.6334H120.649ZM141.086 18.8252C140.127 18.8252 139.296 18.6142 138.593 18.1924C137.89 17.7705 137.344 17.1803 136.957 16.4218C136.573 15.6633 136.381 14.7769 136.381 13.7627C136.381 12.7485 136.573 11.86 136.957 11.0972C137.344 10.3344 137.89 9.74209 138.593 9.32021C139.296 8.89834 140.127 8.6874 141.086 8.6874C142.045 8.6874 142.876 8.89834 143.579 9.32021C144.282 9.74209 144.825 10.3344 145.209 11.0972C145.597 11.86 145.79 12.7485 145.79 13.7627C145.79 14.7769 145.597 15.6633 145.209 16.4218C144.825 17.1803 144.282 17.7705 143.579 18.1924C142.876 18.6142 142.045 18.8252 141.086 18.8252ZM141.099 16.9715C141.619 16.9715 142.053 16.8287 142.403 16.5432C142.752 16.2535 143.012 15.8657 143.182 15.3799C143.357 14.8941 143.445 14.3529 143.445 13.7563C143.445 13.1554 143.357 12.6121 143.182 12.1263C143.012 11.6363 142.752 11.2463 142.403 10.9566C142.053 10.6668 141.619 10.5219 141.099 10.5219C140.566 10.5219 140.123 10.6668 139.769 10.9566C139.42 11.2463 139.158 11.6363 138.983 12.1263C138.812 12.6121 138.727 13.1554 138.727 13.7563C138.727 14.3529 138.812 14.8941 138.983 15.3799C139.158 15.8657 139.42 16.2535 139.769 16.5432C140.123 16.8287 140.566 16.9715 141.099 16.9715ZM151.398 18.806C150.627 18.806 149.936 18.6079 149.327 18.2115C148.717 17.8152 148.236 17.24 147.882 16.4857C147.528 15.7314 147.352 14.8152 147.352 13.7371C147.352 12.6462 147.531 11.7258 147.889 10.9758C148.251 10.2215 148.739 9.6526 149.352 9.26908C149.966 8.88129 150.65 8.6874 151.404 8.6874C151.979 8.6874 152.453 8.78541 152.823 8.98143C153.194 9.1732 153.488 9.40544 153.705 9.67817C153.923 9.94663 154.091 10.2002 154.21 10.4388H154.306V5.54251H156.627V18.6334H154.351V17.0865H154.21C154.091 17.3252 153.918 17.5787 153.693 17.8472C153.467 18.1114 153.168 18.3373 152.798 18.5248C152.427 18.7123 151.96 18.806 151.398 18.806ZM152.043 16.9076C152.533 16.9076 152.951 16.7755 153.296 16.5113C153.641 16.2428 153.903 15.8699 154.082 15.3927C154.261 14.9154 154.351 14.3593 154.351 13.7243C154.351 13.0894 154.261 12.5375 154.082 12.0688C153.908 11.6 153.648 11.2357 153.303 10.9758C152.962 10.7158 152.542 10.5858 152.043 10.5858C151.528 10.5858 151.097 10.7201 150.752 10.9885C150.407 11.257 150.147 11.6277 149.972 12.1008C149.798 12.5738 149.71 13.115 149.71 13.7243C149.71 14.338 149.798 14.8856 149.972 15.3671C150.151 15.8444 150.413 16.2215 150.759 16.4985C151.108 16.7712 151.536 16.9076 152.043 16.9076ZM163.439 18.8252C162.454 18.8252 161.604 18.6206 160.888 18.2115C160.177 17.7982 159.629 17.2144 159.246 16.4601C158.862 15.7016 158.67 14.8088 158.67 13.7819C158.67 12.7719 158.862 11.8856 159.246 11.1228C159.633 10.3557 160.175 9.75913 160.869 9.333C161.564 8.9026 162.38 8.6874 163.317 8.6874C163.922 8.6874 164.494 8.78541 165.03 8.98143C165.572 9.1732 166.049 9.47149 166.462 9.87632C166.88 10.2811 167.208 10.7968 167.447 11.4232C167.685 12.0454 167.805 12.7868 167.805 13.6476V14.3571H159.757V12.7975H165.587C165.582 12.3543 165.486 11.9601 165.299 11.615C165.111 11.2655 164.849 10.9907 164.513 10.7904C164.18 10.5901 163.793 10.49 163.349 10.49C162.876 10.49 162.461 10.605 162.103 10.8351C161.745 11.061 161.466 11.3593 161.266 11.73C161.07 12.0965 160.969 12.4992 160.965 12.9381V14.2996C160.965 14.8706 161.07 15.3607 161.278 15.7698C161.487 16.1746 161.779 16.4857 162.154 16.703C162.529 16.9161 162.968 17.0226 163.471 17.0226C163.807 17.0226 164.112 16.9758 164.385 16.882C164.658 16.784 164.894 16.6412 165.094 16.4537C165.295 16.2662 165.446 16.034 165.548 15.757L167.709 15.9999C167.572 16.5709 167.312 17.0695 166.929 17.4956C166.55 17.9175 166.064 18.2456 165.472 18.48C164.879 18.7101 164.202 18.8252 163.439 18.8252ZM162.403 7.52405L160.441 4.60288H162.71L164.136 7.52405H162.403ZM172.076 5.54251V18.6334H169.762V5.54251H172.076ZM178.802 18.8252C177.818 18.8252 176.968 18.6206 176.252 18.2115C175.54 17.7982 174.992 17.2144 174.609 16.4601C174.225 15.7016 174.034 14.8088 174.034 13.7819C174.034 12.7719 174.225 11.8856 174.609 11.1228C174.997 10.3557 175.538 9.75913 176.233 9.333C176.927 8.9026 177.743 8.6874 178.681 8.6874C179.286 8.6874 179.857 8.78541 180.394 8.98143C180.935 9.1732 181.412 9.47149 181.826 9.87632C182.243 10.2811 182.571 10.7968 182.81 11.4232C183.049 12.0454 183.168 12.7868 183.168 13.6476V14.3571H175.12V12.7975H180.95C180.946 12.3543 180.85 11.9601 180.662 11.615C180.475 11.2655 180.213 10.9907 179.876 10.7904C179.544 10.5901 179.156 10.49 178.713 10.49C178.24 10.49 177.824 10.605 177.466 10.8351C177.108 11.061 176.829 11.3593 176.629 11.73C176.433 12.0965 176.333 12.4992 176.328 12.9381V14.2996C176.328 14.8706 176.433 15.3607 176.642 15.7698C176.85 16.1746 177.142 16.4857 177.517 16.703C177.892 16.9161 178.331 17.0226 178.834 17.0226C179.171 17.0226 179.475 16.9758 179.748 16.882C180.021 16.784 180.257 16.6412 180.458 16.4537C180.658 16.2662 180.809 16.034 180.911 15.757L183.072 15.9999C182.936 16.5709 182.676 17.0695 182.292 17.4956C181.913 17.9175 181.427 18.2456 180.835 18.48C180.242 18.7101 179.565 18.8252 178.802 18.8252Z" fill="#FF744B"/>
<path d="M18.087 4.16201L13.1497 10.9576C12.6464 11.6504 11.5807 11.5549 11.2033 10.786C10.8014 9.96715 10.3157 9.15231 9.79329 8.33609C9.19211 7.39682 8.06175 7.49339 7.56725 8.174C7.31619 8.51957 7.22784 9.01468 7.45569 9.60121C8.13258 11.3431 9.41878 12.9617 9.37343 14.3425C9.34526 15.1962 8.96075 17.4389 8.81064 18.3098C8.77295 18.529 8.84972 18.7679 9.02961 18.8986L14.0262 22.5289C14.2631 22.7009 14.6038 22.653 14.8056 22.4409L16.5156 20.6412C16.5763 20.5775 16.6541 20.5238 16.7364 20.4927C19.1267 19.5882 20.4875 18.6978 21.3232 17.5476C21.5021 17.3012 21.6578 17.042 21.7938 16.7688C22.6073 15.1349 21.743 14.1586 21.2839 13.7859C21.1422 13.6709 21.0595 13.496 21.069 13.3138C21.128 12.1721 20.3355 11.6737 19.8272 11.4726C19.6043 11.3844 19.4526 11.1729 19.4521 10.9333C19.4502 10.0351 18.9072 9.56006 18.4364 9.31309C18.1193 9.14671 18.0284 8.74632 18.2389 8.4565L20.2286 5.71796C21.2658 4.29024 19.1243 2.73434 18.087 4.16201Z" fill="#FF744B"/>
</svg>
