<svg width="187" height="27" viewBox="0 0 187 27" fill="none" xmlns="http://www.w3.org/2000/svg">
<path d="M38.9838 9.95942H36.5931C36.5249 9.56737 36.3992 9.22007 36.216 8.91751C36.0328 8.6107 35.8048 8.35075 35.532 8.13768C35.2593 7.92462 34.9482 7.76481 34.5988 7.65828C34.2536 7.54749 33.8808 7.49209 33.4802 7.49209C32.7686 7.49209 32.1379 7.67106 31.5882 8.02902C31.0384 8.38271 30.608 8.9026 30.297 9.58868C29.9859 10.2705 29.8303 11.1036 29.8303 12.088C29.8303 13.0894 29.9859 13.9331 30.297 14.6192C30.6123 15.301 31.0427 15.8167 31.5882 16.1661C32.1379 16.5113 32.7664 16.6838 33.4738 16.6838C33.8659 16.6838 34.2323 16.6327 34.5732 16.5304C34.9184 16.4239 35.2274 16.2684 35.5001 16.0638C35.7771 15.8593 36.0093 15.6079 36.1968 15.3096C36.3886 15.0113 36.5207 14.6704 36.5931 14.2868L38.9838 14.2996C38.8943 14.9218 38.7004 15.5056 38.4021 16.051C38.108 16.5965 37.7224 17.078 37.2451 17.4956C36.7678 17.909 36.2096 18.2329 35.5704 18.4672C34.9312 18.6973 34.2217 18.8124 33.4419 18.8124C32.2913 18.8124 31.2643 18.5461 30.3609 18.0134C29.4575 17.4807 28.7458 16.7115 28.2259 15.7059C27.7061 14.7002 27.4461 13.4942 27.4461 12.088C27.4461 10.6775 27.7082 9.47149 28.2323 8.47007C28.7565 7.46439 29.4703 6.69521 30.3737 6.16254C31.2771 5.62987 32.2998 5.36354 33.4419 5.36354C34.1705 5.36354 34.8481 5.46581 35.4745 5.67035C36.1009 5.8749 36.6592 6.17533 37.1492 6.57163C37.6393 6.96368 38.042 7.44521 38.3573 8.01624C38.6769 8.583 38.8857 9.23072 38.9838 9.95942ZM43.3671 12.8806V18.6334H41.0532V5.54251H43.316V10.4836H43.431C43.6611 9.92959 44.017 9.4928 44.4985 9.1732C44.9843 8.84933 45.6022 8.6874 46.3522 8.6874C47.034 8.6874 47.6285 8.83016 48.1356 9.11567C48.6427 9.40118 49.0347 9.81879 49.3117 10.3685C49.593 10.9182 49.7336 11.5894 49.7336 12.382V18.6334H47.4197V12.74C47.4197 12.0794 47.2492 11.566 46.9083 11.1995C46.5716 10.8287 46.0986 10.6434 45.4893 10.6434C45.0802 10.6434 44.7137 10.7329 44.3898 10.9118C44.0702 11.0865 43.8188 11.3401 43.6356 11.6725C43.4566 12.0049 43.3671 12.4076 43.3671 12.8806ZM56.3749 18.8252C55.4161 18.8252 54.5851 18.6142 53.882 18.1924C53.1789 17.7705 52.6334 17.1803 52.2456 16.4218C51.8621 15.6633 51.6704 14.7769 51.6704 13.7627C51.6704 12.7485 51.8621 11.86 52.2456 11.0972C52.6334 10.3344 53.1789 9.74209 53.882 9.32021C54.5851 8.89834 55.4161 8.6874 56.3749 8.6874C57.3337 8.6874 58.1647 8.89834 58.8678 9.32021C59.5709 9.74209 60.1143 10.3344 60.4978 11.0972C60.8856 11.86 61.0795 12.7485 61.0795 13.7627C61.0795 14.7769 60.8856 15.6633 60.4978 16.4218C60.1143 17.1803 59.5709 17.7705 58.8678 18.1924C58.1647 18.6142 57.3337 18.8252 56.3749 18.8252ZM56.3877 16.9715C56.9076 16.9715 57.3422 16.8287 57.6917 16.5432C58.0411 16.2535 58.301 15.8657 58.4715 15.3799C58.6462 14.8941 58.7336 14.3529 58.7336 13.7563C58.7336 13.1554 58.6462 12.6121 58.4715 12.1263C58.301 11.6363 58.0411 11.2463 57.6917 10.9566C57.3422 10.6668 56.9076 10.5219 56.3877 10.5219C55.855 10.5219 55.4118 10.6668 55.0582 10.9566C54.7087 11.2463 54.4466 11.6363 54.2719 12.1263C54.1015 12.6121 54.0162 13.1554 54.0162 13.7563C54.0162 14.3529 54.1015 14.8941 54.2719 15.3799C54.4466 15.8657 54.7087 16.2535 55.0582 16.5432C55.4118 16.8287 55.855 16.9715 56.3877 16.9715ZM63.0434 18.6334V8.81524H65.3573V18.6334H63.0434ZM64.2068 7.42178C63.8403 7.42178 63.5249 7.30033 63.2607 7.05743C62.9965 6.81027 62.8644 6.5141 62.8644 6.16893C62.8644 5.8195 62.9965 5.52334 63.2607 5.28044C63.5249 5.03328 63.8403 4.9097 64.2068 4.9097C64.5775 4.9097 64.8928 5.03328 65.1528 5.28044C65.417 5.52334 65.5491 5.8195 65.5491 6.16893C65.5491 6.5141 65.417 6.81027 65.1528 7.05743C64.8928 7.30033 64.5775 7.42178 64.2068 7.42178ZM75.4967 11.4104L73.3873 11.6405C73.3277 11.4275 73.2233 11.2272 73.0741 11.0397C72.9292 10.8522 72.7332 10.7009 72.4861 10.5858C72.2389 10.4708 71.9363 10.4133 71.5784 10.4133C71.0969 10.4133 70.692 10.5177 70.3639 10.7265C70.04 10.9353 69.8802 11.2059 69.8845 11.5383C69.8802 11.8238 69.9846 12.056 70.1977 12.235C70.415 12.414 70.773 12.561 71.2716 12.676L72.9463 13.034C73.8753 13.2343 74.5656 13.5517 75.0173 13.9864C75.4733 14.4211 75.7034 14.99 75.7077 15.6931C75.7034 16.311 75.5223 16.8564 75.1643 17.3294C74.8106 17.7982 74.3184 18.1647 73.6878 18.4289C73.0571 18.6931 72.3327 18.8252 71.5145 18.8252C70.3128 18.8252 69.3454 18.5738 68.6125 18.0709C67.8795 17.5638 67.4427 16.8586 67.3021 15.9552L69.5585 15.7378C69.6608 16.181 69.8781 16.5155 70.2105 16.7414C70.5429 16.9672 70.9754 17.0802 71.5081 17.0802C72.0578 17.0802 72.4988 16.9672 72.8312 16.7414C73.1679 16.5155 73.3362 16.2364 73.3362 15.904C73.3362 15.6228 73.2275 15.3905 73.0102 15.2073C72.7971 15.024 72.4648 14.8834 72.0131 14.7854L70.3383 14.4338C69.3966 14.2378 68.6998 13.9076 68.2481 13.4431C67.7964 12.9743 67.5727 12.382 67.577 11.6661C67.5727 11.061 67.7368 10.5368 68.0692 10.0936C68.4058 9.64621 68.8724 9.30104 69.469 9.05814C70.0699 8.81098 70.7623 8.6874 71.5464 8.6874C72.697 8.6874 73.6025 8.93243 74.2631 9.42249C74.9278 9.91254 75.339 10.5752 75.4967 11.4104ZM77.6157 18.6334V8.81524H79.9296V18.6334H77.6157ZM78.779 7.42178C78.4126 7.42178 78.0972 7.30033 77.833 7.05743C77.5688 6.81027 77.4367 6.5141 77.4367 6.16893C77.4367 5.8195 77.5688 5.52334 77.833 5.28044C78.0972 5.03328 78.4126 4.9097 78.779 4.9097C79.1498 4.9097 79.4651 5.03328 79.7251 5.28044C79.9893 5.52334 80.1214 5.8195 80.1214 6.16893C80.1214 6.5141 79.9893 6.81027 79.7251 7.05743C79.4651 7.30033 79.1498 7.42178 78.779 7.42178ZM82.309 18.6334V8.81524H84.5526V10.4516H84.6549C84.8339 9.88484 85.1407 9.44805 85.5754 9.14124C86.0143 8.83016 86.515 8.67462 87.0775 8.67462C87.2053 8.67462 87.3481 8.68101 87.5058 8.69379C87.6677 8.70231 87.8019 8.71723 87.9085 8.73854V10.8671C87.8105 10.833 87.6549 10.8032 87.4419 10.7776C87.233 10.7478 87.0306 10.7329 86.8346 10.7329C86.4127 10.7329 86.0335 10.8245 85.6968 11.0077C85.3644 11.1867 85.1024 11.436 84.9106 11.7556C84.7188 12.0752 84.623 12.4438 84.623 12.8614V18.6334H82.309ZM100.168 14.5042V8.81524H102.482V18.6334H100.239V16.8884H100.136C99.9149 17.4381 99.5505 17.8877 99.0434 18.2371C98.5406 18.5865 97.9205 18.7613 97.1833 18.7613C96.5399 18.7613 95.971 18.6185 95.4767 18.333C94.9866 18.0432 94.6031 17.6235 94.3261 17.0738C94.0491 16.5198 93.9106 15.8508 93.9106 15.0667V8.81524H96.2245V14.7087C96.2245 15.3309 96.395 15.8252 96.7359 16.1917C97.0768 16.5581 97.5242 16.7414 98.0782 16.7414C98.4191 16.7414 98.7494 16.6583 99.069 16.4921C99.3886 16.3259 99.6507 16.0787 99.8552 15.7506C100.064 15.4182 100.168 15.0027 100.168 14.5042ZM107.176 12.8806V18.6334H104.862V8.81524H107.073V10.4836H107.188C107.414 9.93385 107.774 9.49706 108.269 9.1732C108.767 8.84933 109.383 8.6874 110.116 8.6874C110.794 8.6874 111.384 8.83229 111.887 9.12206C112.394 9.41183 112.786 9.83158 113.063 10.3813C113.344 10.931 113.483 11.5979 113.478 12.382V18.6334H111.164V12.74C111.164 12.0837 110.994 11.5702 110.653 11.1995C110.316 10.8287 109.85 10.6434 109.253 10.6434C108.848 10.6434 108.488 10.7329 108.173 10.9118C107.862 11.0865 107.617 11.3401 107.438 11.6725C107.263 12.0049 107.176 12.4076 107.176 12.8806ZM120.295 18.6334V8.81524H122.507V10.4836H122.622C122.827 9.92106 123.165 9.48214 123.638 9.1668C124.111 8.8472 124.676 8.6874 125.332 8.6874C125.997 8.6874 126.557 8.84933 127.013 9.1732C127.474 9.4928 127.797 9.92959 127.985 10.4836H128.087C128.305 9.93811 128.671 9.50345 129.187 9.17959C129.707 8.85146 130.322 8.6874 131.034 8.6874C131.937 8.6874 132.675 8.97291 133.246 9.54393C133.817 10.115 134.102 10.9481 134.102 12.0432V18.6334H131.782V12.4012C131.782 11.7918 131.62 11.3465 131.296 11.0652C130.972 10.7797 130.576 10.637 130.107 10.637C129.549 10.637 129.112 10.8117 128.797 11.1611C128.486 11.5063 128.33 11.9559 128.33 12.5098V18.6334H126.061V12.3053C126.061 11.7982 125.908 11.3934 125.601 11.0908C125.298 10.7883 124.902 10.637 124.412 10.637C124.079 10.637 123.777 10.7222 123.504 10.8927C123.231 11.0588 123.014 11.2954 122.852 11.6022C122.69 11.9047 122.609 12.2584 122.609 12.6633V18.6334H120.295ZM140.732 18.8252C139.774 18.8252 138.943 18.6142 138.239 18.1924C137.536 17.7705 136.991 17.1803 136.603 16.4218C136.22 15.6633 136.028 14.7769 136.028 13.7627C136.028 12.7485 136.22 11.86 136.603 11.0972C136.991 10.3344 137.536 9.74209 138.239 9.32021C138.943 8.89834 139.774 8.6874 140.732 8.6874C141.691 8.6874 142.522 8.89834 143.225 9.32021C143.928 9.74209 144.472 10.3344 144.855 11.0972C145.243 11.86 145.437 12.7485 145.437 13.7627C145.437 14.7769 145.243 15.6633 144.855 16.4218C144.472 17.1803 143.928 17.7705 143.225 18.1924C142.522 18.6142 141.691 18.8252 140.732 18.8252ZM140.745 16.9715C141.265 16.9715 141.7 16.8287 142.049 16.5432C142.399 16.2535 142.658 15.8657 142.829 15.3799C143.004 14.8941 143.091 14.3529 143.091 13.7563C143.091 13.1554 143.004 12.6121 142.829 12.1263C142.658 11.6363 142.399 11.2463 142.049 10.9566C141.7 10.6668 141.265 10.5219 140.745 10.5219C140.212 10.5219 139.769 10.6668 139.416 10.9566C139.066 11.2463 138.804 11.6363 138.629 12.1263C138.459 12.6121 138.374 13.1554 138.374 13.7563C138.374 14.3529 138.459 14.8941 138.629 15.3799C138.804 15.8657 139.066 16.2535 139.416 16.5432C139.769 16.8287 140.212 16.9715 140.745 16.9715ZM151.044 18.806C150.273 18.806 149.583 18.6079 148.973 18.2115C148.364 17.8152 147.882 17.24 147.529 16.4857C147.175 15.7314 146.998 14.8152 146.998 13.7371C146.998 12.6462 147.177 11.7258 147.535 10.9758C147.897 10.2215 148.385 9.6526 148.999 9.26908C149.612 8.88129 150.296 8.6874 151.051 8.6874C151.626 8.6874 152.099 8.78541 152.47 8.98143C152.84 9.1732 153.134 9.40544 153.352 9.67817C153.569 9.94663 153.737 10.2002 153.857 10.4388H153.953V5.54251H156.273V18.6334H153.997V17.0865H153.857C153.737 17.3252 153.565 17.5787 153.339 17.8472C153.113 18.1114 152.815 18.3373 152.444 18.5248C152.073 18.7123 151.607 18.806 151.044 18.806ZM151.69 16.9076C152.18 16.9076 152.598 16.7755 152.943 16.5113C153.288 16.2428 153.55 15.8699 153.729 15.3927C153.908 14.9154 153.997 14.3593 153.997 13.7243C153.997 13.0894 153.908 12.5375 153.729 12.0688C153.554 11.6 153.294 11.2357 152.949 10.9758C152.608 10.7158 152.188 10.5858 151.69 10.5858C151.174 10.5858 150.744 10.7201 150.399 10.9885C150.054 11.257 149.794 11.6277 149.619 12.1008C149.444 12.5738 149.357 13.115 149.357 13.7243C149.357 14.338 149.444 14.8856 149.619 15.3671C149.798 15.8444 150.06 16.2215 150.405 16.4985C150.755 16.7712 151.183 16.9076 151.69 16.9076ZM163.085 18.8252C162.101 18.8252 161.251 18.6206 160.535 18.2115C159.823 17.7982 159.276 17.2144 158.892 16.4601C158.509 15.7016 158.317 14.8088 158.317 13.7819C158.317 12.7719 158.509 11.8856 158.892 11.1228C159.28 10.3557 159.821 9.75913 160.516 9.333C161.21 8.9026 162.026 8.6874 162.964 8.6874C163.569 8.6874 164.14 8.78541 164.677 8.98143C165.218 9.1732 165.695 9.47149 166.109 9.87632C166.526 10.2811 166.854 10.7968 167.093 11.4232C167.332 12.0454 167.451 12.7868 167.451 13.6476V14.3571H159.403V12.7975H165.233C165.229 12.3543 165.133 11.9601 164.945 11.615C164.758 11.2655 164.496 10.9907 164.159 10.7904C163.827 10.5901 163.439 10.49 162.996 10.49C162.523 10.49 162.107 10.605 161.749 10.8351C161.391 11.061 161.112 11.3593 160.912 11.73C160.716 12.0965 160.616 12.4992 160.612 12.9381V14.2996C160.612 14.8706 160.716 15.3607 160.925 15.7698C161.134 16.1746 161.426 16.4857 161.801 16.703C162.176 16.9161 162.614 17.0226 163.117 17.0226C163.454 17.0226 163.759 16.9758 164.031 16.882C164.304 16.784 164.541 16.6412 164.741 16.4537C164.941 16.2662 165.092 16.034 165.195 15.757L167.355 15.9999C167.219 16.5709 166.959 17.0695 166.575 17.4956C166.196 17.9175 165.71 18.2456 165.118 18.48C164.526 18.7101 163.848 18.8252 163.085 18.8252ZM162.05 7.52405L160.087 4.60288H162.357L163.782 7.52405H162.05ZM171.723 5.54251V18.6334H169.409V5.54251H171.723ZM178.449 18.8252C177.464 18.8252 176.614 18.6206 175.898 18.2115C175.187 17.7982 174.639 17.2144 174.255 16.4601C173.872 15.7016 173.68 14.8088 173.68 13.7819C173.68 12.7719 173.872 11.8856 174.255 11.1228C174.643 10.3557 175.184 9.75913 175.879 9.333C176.574 8.9026 177.39 8.6874 178.327 8.6874C178.932 8.6874 179.503 8.78541 180.04 8.98143C180.581 9.1732 181.059 9.47149 181.472 9.87632C181.89 10.2811 182.218 10.7968 182.456 11.4232C182.695 12.0454 182.814 12.7868 182.814 13.6476V14.3571H174.767V12.7975H180.596C180.592 12.3543 180.496 11.9601 180.309 11.615C180.121 11.2655 179.859 10.9907 179.522 10.7904C179.19 10.5901 178.802 10.49 178.359 10.49C177.886 10.49 177.471 10.605 177.113 10.8351C176.755 11.061 176.476 11.3593 176.275 11.73C176.079 12.0965 175.979 12.4992 175.975 12.9381V14.2996C175.975 14.8706 176.079 15.3607 176.288 15.7698C176.497 16.1746 176.789 16.4857 177.164 16.703C177.539 16.9161 177.978 17.0226 178.481 17.0226C178.817 17.0226 179.122 16.9758 179.395 16.882C179.667 16.784 179.904 16.6412 180.104 16.4537C180.304 16.2662 180.456 16.034 180.558 15.757L182.718 15.9999C182.582 16.5709 182.322 17.0695 181.939 17.4956C181.559 17.9175 181.074 18.2456 180.481 18.48C179.889 18.7101 179.211 18.8252 178.449 18.8252Z" fill="#FF744B"/>
<path d="M16.8118 1.31702L10.8467 9.52719C10.2386 10.3642 8.95113 10.2488 8.49519 9.31989C8.00963 8.33056 7.42279 7.34609 6.79162 6.35998C6.06531 5.22519 4.69964 5.34186 4.10222 6.16415C3.79889 6.58164 3.69215 7.17982 3.96743 7.88844C4.78523 9.9929 6.33916 11.9484 6.28437 13.6167C6.25033 14.648 5.78579 17.3576 5.60443 18.4098C5.55889 18.6746 5.65164 18.9633 5.86897 19.1212L11.9057 23.5071C12.1918 23.715 12.6035 23.6571 12.8473 23.4008L14.9132 21.2265C14.9865 21.1495 15.0806 21.0847 15.18 21.0471C18.0679 19.9543 19.7119 18.8786 20.7216 17.4889C20.9378 17.1913 21.1258 16.8781 21.2901 16.5481C22.273 14.5741 21.2288 13.3945 20.6741 12.9442C20.5029 12.8053 20.403 12.594 20.4144 12.3738C20.4857 10.9944 19.5283 10.3924 18.9142 10.1494C18.6448 10.0428 18.4616 9.78734 18.461 9.49776C18.4587 8.4126 17.8027 7.83872 17.2339 7.54034C16.8508 7.33933 16.7409 6.85559 16.9953 6.50545L19.3991 3.19685C20.6522 1.47194 18.0649 -0.407836 16.8118 1.31702Z" fill="#FF744B"/>
</svg>
