<svg width="190" height="25" viewBox="0 0 190 25" fill="none" xmlns="http://www.w3.org/2000/svg">
<rect x="0.00683594" y="0.633423" width="189.17" height="24.0516" rx="5" fill="#FF744B"/>
<path d="M38.4535 9.95942H36.0629C35.9947 9.56737 35.869 9.22007 35.6857 8.91751C35.5025 8.6107 35.2745 8.35075 35.0018 8.13768C34.729 7.92462 34.418 7.76481 34.0685 7.65828C33.7234 7.54749 33.3505 7.49209 32.9499 7.49209C32.2383 7.49209 31.6076 7.67106 31.0579 8.02902C30.5082 8.38271 30.0778 8.9026 29.7667 9.58868C29.4556 10.2705 29.3001 11.1036 29.3001 12.088C29.3001 13.0894 29.4556 13.9331 29.7667 14.6192C30.082 15.301 30.5124 15.8167 31.0579 16.1661C31.6076 16.5113 32.2362 16.6838 32.9435 16.6838C33.3356 16.6838 33.7021 16.6327 34.043 16.5304C34.3881 16.4239 34.6971 16.2684 34.9698 16.0638C35.2468 15.8593 35.479 15.6079 35.6665 15.3096C35.8583 15.0113 35.9904 14.6704 36.0629 14.2868L38.4535 14.2996C38.364 14.9218 38.1701 15.5056 37.8718 16.051C37.5778 16.5965 37.1921 17.078 36.7148 17.4956C36.2376 17.909 35.6793 18.2329 35.0401 18.4672C34.4009 18.6973 33.6914 18.8124 32.9116 18.8124C31.761 18.8124 30.734 18.5461 29.8306 18.0134C28.9272 17.4807 28.2156 16.7115 27.6957 15.7059C27.1758 14.7002 26.9158 13.4942 26.9158 12.088C26.9158 10.6775 27.1779 9.47149 27.7021 8.47007C28.2262 7.46439 28.94 6.69521 29.8434 6.16254C30.7468 5.62987 31.7695 5.36354 32.9116 5.36354C33.6403 5.36354 34.3178 5.46581 34.9442 5.67035C35.5707 5.8749 36.1289 6.17533 36.619 6.57163C37.109 6.96368 37.5117 7.44521 37.8271 8.01624C38.1467 8.583 38.3555 9.23072 38.4535 9.95942ZM42.8368 12.8806V18.6334H40.5229V5.54251H42.7857V10.4836H42.9007C43.1309 9.92959 43.4867 9.4928 43.9682 9.1732C44.454 8.84933 45.0719 8.6874 45.8219 8.6874C46.5037 8.6874 47.0982 8.83016 47.6053 9.11567C48.1124 9.40118 48.5044 9.81879 48.7814 10.3685C49.0627 10.9182 49.2033 11.5894 49.2033 12.382V18.6334H46.8894V12.74C46.8894 12.0794 46.7189 11.566 46.378 11.1995C46.0414 10.8287 45.5684 10.6434 44.959 10.6434C44.5499 10.6434 44.1834 10.7329 43.8596 10.9118C43.54 11.0865 43.2885 11.3401 43.1053 11.6725C42.9263 12.0049 42.8368 12.4076 42.8368 12.8806ZM55.8446 18.8252C54.8858 18.8252 54.0549 18.6142 53.3517 18.1924C52.6486 17.7705 52.1032 17.1803 51.7154 16.4218C51.3319 15.6633 51.1401 14.7769 51.1401 13.7627C51.1401 12.7485 51.3319 11.86 51.7154 11.0972C52.1032 10.3344 52.6486 9.74209 53.3517 9.32021C54.0549 8.89834 54.8858 8.6874 55.8446 8.6874C56.8034 8.6874 57.6344 8.89834 58.3375 9.32021C59.0407 9.74209 59.584 10.3344 59.9675 11.0972C60.3553 11.86 60.5492 12.7485 60.5492 13.7627C60.5492 14.7769 60.3553 15.6633 59.9675 16.4218C59.584 17.1803 59.0407 17.7705 58.3375 18.1924C57.6344 18.6142 56.8034 18.8252 55.8446 18.8252ZM55.8574 16.9715C56.3773 16.9715 56.812 16.8287 57.1614 16.5432C57.5108 16.2535 57.7708 15.8657 57.9412 15.3799C58.1159 14.8941 58.2033 14.3529 58.2033 13.7563C58.2033 13.1554 58.1159 12.6121 57.9412 12.1263C57.7708 11.6363 57.5108 11.2463 57.1614 10.9566C56.812 10.6668 56.3773 10.5219 55.8574 10.5219C55.3248 10.5219 54.8816 10.6668 54.5279 10.9566C54.1784 11.2463 53.9164 11.6363 53.7417 12.1263C53.5712 12.6121 53.486 13.1554 53.486 13.7563C53.486 14.3529 53.5712 14.8941 53.7417 15.3799C53.9164 15.8657 54.1784 16.2535 54.5279 16.5432C54.8816 16.8287 55.3248 16.9715 55.8574 16.9715ZM62.5131 18.6334V8.81524H64.8271V18.6334H62.5131ZM63.6765 7.42178C63.31 7.42178 62.9947 7.30033 62.7305 7.05743C62.4663 6.81027 62.3342 6.5141 62.3342 6.16893C62.3342 5.8195 62.4663 5.52334 62.7305 5.28044C62.9947 5.03328 63.31 4.9097 63.6765 4.9097C64.0472 4.9097 64.3626 5.03328 64.6225 5.28044C64.8867 5.52334 65.0188 5.8195 65.0188 6.16893C65.0188 6.5141 64.8867 6.81027 64.6225 7.05743C64.3626 7.30033 64.0472 7.42178 63.6765 7.42178ZM74.9664 11.4104L72.8571 11.6405C72.7974 11.4275 72.693 11.2272 72.5439 11.0397C72.399 10.8522 72.2029 10.7009 71.9558 10.5858C71.7086 10.4708 71.4061 10.4133 71.0481 10.4133C70.5666 10.4133 70.1618 10.5177 69.8336 10.7265C69.5098 10.9353 69.35 11.2059 69.3542 11.5383C69.35 11.8238 69.4544 12.056 69.6674 12.235C69.8848 12.414 70.2427 12.561 70.7413 12.676L72.416 13.034C73.345 13.2343 74.0353 13.5517 74.487 13.9864C74.943 14.4211 75.1731 14.99 75.1774 15.6931C75.1731 16.311 74.992 16.8564 74.6341 17.3294C74.2804 17.7982 73.7882 18.1647 73.1575 18.4289C72.5268 18.6931 71.8024 18.8252 70.9842 18.8252C69.7825 18.8252 68.8152 18.5738 68.0822 18.0709C67.3493 17.5638 66.9125 16.8586 66.7718 15.9552L69.0282 15.7378C69.1305 16.181 69.3478 16.5155 69.6802 16.7414C70.0126 16.9672 70.4451 17.0802 70.9778 17.0802C71.5275 17.0802 71.9686 16.9672 72.301 16.7414C72.6376 16.5155 72.8059 16.2364 72.8059 15.904C72.8059 15.6228 72.6973 15.3905 72.4799 15.2073C72.2669 15.024 71.9345 14.8834 71.4828 14.7854L69.8081 14.4338C68.8663 14.2378 68.1696 13.9076 67.7179 13.4431C67.2662 12.9743 67.0424 12.382 67.0467 11.6661C67.0424 11.061 67.2065 10.5368 67.5389 10.0936C67.8755 9.64621 68.3422 9.30104 68.9387 9.05814C69.5396 8.81098 70.2321 8.6874 71.0162 8.6874C72.1667 8.6874 73.0723 8.93243 73.7328 9.42249C74.3976 9.91254 74.8088 10.5752 74.9664 11.4104ZM77.0854 18.6334V8.81524H79.3993V18.6334H77.0854ZM78.2488 7.42178C77.8823 7.42178 77.5669 7.30033 77.3027 7.05743C77.0385 6.81027 76.9064 6.5141 76.9064 6.16893C76.9064 5.8195 77.0385 5.52334 77.3027 5.28044C77.5669 5.03328 77.8823 4.9097 78.2488 4.9097C78.6195 4.9097 78.9348 5.03328 79.1948 5.28044C79.459 5.52334 79.5911 5.8195 79.5911 6.16893C79.5911 6.5141 79.459 6.81027 79.1948 7.05743C78.9348 7.30033 78.6195 7.42178 78.2488 7.42178ZM81.7788 18.6334V8.81524H84.0224V10.4516H84.1246C84.3036 9.88484 84.6104 9.44805 85.0451 9.14124C85.484 8.83016 85.9847 8.67462 86.5472 8.67462C86.6751 8.67462 86.8178 8.68101 86.9755 8.69379C87.1374 8.70231 87.2717 8.71723 87.3782 8.73854V10.8671C87.2802 10.833 87.1246 10.8032 86.9116 10.7776C86.7028 10.7478 86.5004 10.7329 86.3043 10.7329C85.8825 10.7329 85.5032 10.8245 85.1665 11.0077C84.8342 11.1867 84.5721 11.436 84.3803 11.7556C84.1886 12.0752 84.0927 12.4438 84.0927 12.8614V18.6334H81.7788ZM99.6381 14.5042V8.81524H101.952V18.6334H99.7085V16.8884H99.6062C99.3846 17.4381 99.0202 17.8877 98.5131 18.2371C98.0103 18.5865 97.3903 18.7613 96.6531 18.7613C96.0096 18.7613 95.4407 18.6185 94.9464 18.333C94.4563 18.0432 94.0728 17.6235 93.7958 17.0738C93.5188 16.5198 93.3803 15.8508 93.3803 15.0667V8.81524H95.6942V14.7087C95.6942 15.3309 95.8647 15.8252 96.2056 16.1917C96.5465 16.5581 96.994 16.7414 97.5479 16.7414C97.8888 16.7414 98.2191 16.6583 98.5387 16.4921C98.8583 16.3259 99.1204 16.0787 99.3249 15.7506C99.5337 15.4182 99.6381 15.0027 99.6381 14.5042ZM106.645 12.8806V18.6334H104.331V8.81524H106.543V10.4836H106.658C106.884 9.93385 107.244 9.49706 107.738 9.1732C108.237 8.84933 108.853 8.6874 109.586 8.6874C110.263 8.6874 110.854 8.83229 111.356 9.12206C111.863 9.41183 112.256 9.83158 112.532 10.3813C112.814 10.931 112.952 11.5979 112.948 12.382V18.6334H110.634V12.74C110.634 12.0837 110.464 11.5702 110.123 11.1995C109.786 10.8287 109.319 10.6434 108.723 10.6434C108.318 10.6434 107.958 10.7329 107.643 10.9118C107.331 11.0865 107.086 11.3401 106.907 11.6725C106.733 12.0049 106.645 12.4076 106.645 12.8806ZM119.765 18.6334V8.81524H121.977V10.4836H122.092C122.296 9.92106 122.635 9.48214 123.108 9.1668C123.581 8.8472 124.146 8.6874 124.802 8.6874C125.467 8.6874 126.027 8.84933 126.483 9.1732C126.943 9.4928 127.267 9.92959 127.455 10.4836H127.557C127.774 9.93811 128.141 9.50345 128.656 9.17959C129.176 8.85146 129.792 8.6874 130.504 8.6874C131.407 8.6874 132.144 8.97291 132.715 9.54393C133.286 10.115 133.572 10.9481 133.572 12.0432V18.6334H131.252V12.4012C131.252 11.7918 131.09 11.3465 130.766 11.0652C130.442 10.7797 130.046 10.637 129.577 10.637C129.019 10.637 128.582 10.8117 128.267 11.1611C127.955 11.5063 127.8 11.9559 127.8 12.5098V18.6334H125.531V12.3053C125.531 11.7982 125.377 11.3934 125.07 11.0908C124.768 10.7883 124.372 10.637 123.882 10.637C123.549 10.637 123.247 10.7222 122.974 10.8927C122.701 11.0588 122.484 11.2954 122.322 11.6022C122.16 11.9047 122.079 12.2584 122.079 12.6633V18.6334H119.765ZM140.202 18.8252C139.243 18.8252 138.412 18.6142 137.709 18.1924C137.006 17.7705 136.461 17.1803 136.073 16.4218C135.689 15.6633 135.498 14.7769 135.498 13.7627C135.498 12.7485 135.689 11.86 136.073 11.0972C136.461 10.3344 137.006 9.74209 137.709 9.32021C138.412 8.89834 139.243 8.6874 140.202 8.6874C141.161 8.6874 141.992 8.89834 142.695 9.32021C143.398 9.74209 143.941 10.3344 144.325 11.0972C144.713 11.86 144.907 12.7485 144.907 13.7627C144.907 14.7769 144.713 15.6633 144.325 16.4218C143.941 17.1803 143.398 17.7705 142.695 18.1924C141.992 18.6142 141.161 18.8252 140.202 18.8252ZM140.215 16.9715C140.735 16.9715 141.169 16.8287 141.519 16.5432C141.868 16.2535 142.128 15.8657 142.299 15.3799C142.473 14.8941 142.561 14.3529 142.561 13.7563C142.561 13.1554 142.473 12.6121 142.299 12.1263C142.128 11.6363 141.868 11.2463 141.519 10.9566C141.169 10.6668 140.735 10.5219 140.215 10.5219C139.682 10.5219 139.239 10.6668 138.885 10.9566C138.536 11.2463 138.274 11.6363 138.099 12.1263C137.929 12.6121 137.843 13.1554 137.843 13.7563C137.843 14.3529 137.929 14.8941 138.099 15.3799C138.274 15.8657 138.536 16.2535 138.885 16.5432C139.239 16.8287 139.682 16.9715 140.215 16.9715ZM150.514 18.806C149.743 18.806 149.052 18.6079 148.443 18.2115C147.834 17.8152 147.352 17.24 146.998 16.4857C146.645 15.7314 146.468 14.8152 146.468 13.7371C146.468 12.6462 146.647 11.7258 147.005 10.9758C147.367 10.2215 147.855 9.6526 148.469 9.26908C149.082 8.88129 149.766 8.6874 150.52 8.6874C151.096 8.6874 151.569 8.78541 151.939 8.98143C152.31 9.1732 152.604 9.40544 152.822 9.67817C153.039 9.94663 153.207 10.2002 153.327 10.4388H153.422V5.54251H155.743V18.6334H153.467V17.0865H153.327C153.207 17.3252 153.035 17.5787 152.809 17.8472C152.583 18.1114 152.285 18.3373 151.914 18.5248C151.543 18.7123 151.077 18.806 150.514 18.806ZM151.16 16.9076C151.65 16.9076 152.067 16.7755 152.412 16.5113C152.758 16.2428 153.02 15.8699 153.199 15.3927C153.378 14.9154 153.467 14.3593 153.467 13.7243C153.467 13.0894 153.378 12.5375 153.199 12.0688C153.024 11.6 152.764 11.2357 152.419 10.9758C152.078 10.7158 151.658 10.5858 151.16 10.5858C150.644 10.5858 150.214 10.7201 149.868 10.9885C149.523 11.257 149.263 11.6277 149.089 12.1008C148.914 12.5738 148.827 13.115 148.827 13.7243C148.827 14.338 148.914 14.8856 149.089 15.3671C149.268 15.8444 149.53 16.2215 149.875 16.4985C150.224 16.7712 150.653 16.9076 151.16 16.9076ZM162.555 18.8252C161.571 18.8252 160.721 18.6206 160.005 18.2115C159.293 17.7982 158.745 17.2144 158.362 16.4601C157.978 15.7016 157.787 14.8088 157.787 13.7819C157.787 12.7719 157.978 11.8856 158.362 11.1228C158.75 10.3557 159.291 9.75913 159.985 9.333C160.68 8.9026 161.496 8.6874 162.434 8.6874C163.039 8.6874 163.61 8.78541 164.147 8.98143C164.688 9.1732 165.165 9.47149 165.578 9.87632C165.996 10.2811 166.324 10.7968 166.563 11.4232C166.801 12.0454 166.921 12.7868 166.921 13.6476V14.3571H158.873V12.7975H164.703C164.699 12.3543 164.603 11.9601 164.415 11.615C164.228 11.2655 163.966 10.9907 163.629 10.7904C163.297 10.5901 162.909 10.49 162.466 10.49C161.993 10.49 161.577 10.605 161.219 10.8351C160.861 11.061 160.582 11.3593 160.382 11.73C160.186 12.0965 160.086 12.4992 160.081 12.9381V14.2996C160.081 14.8706 160.186 15.3607 160.395 15.7698C160.603 16.1746 160.895 16.4857 161.27 16.703C161.645 16.9161 162.084 17.0226 162.587 17.0226C162.924 17.0226 163.228 16.9758 163.501 16.882C163.774 16.784 164.01 16.6412 164.211 16.4537C164.411 16.2662 164.562 16.034 164.664 15.757L166.825 15.9999C166.689 16.5709 166.429 17.0695 166.045 17.4956C165.666 17.9175 165.18 18.2456 164.588 18.48C163.995 18.7101 163.318 18.8252 162.555 18.8252ZM161.52 7.52405L159.557 4.60288H161.826L163.252 7.52405H161.52ZM171.192 5.54251V18.6334H168.878V5.54251H171.192ZM177.918 18.8252C176.934 18.8252 176.084 18.6206 175.368 18.2115C174.656 17.7982 174.109 17.2144 173.725 16.4601C173.342 15.7016 173.15 14.8088 173.15 13.7819C173.15 12.7719 173.342 11.8856 173.725 11.1228C174.113 10.3557 174.654 9.75913 175.349 9.333C176.043 8.9026 176.859 8.6874 177.797 8.6874C178.402 8.6874 178.973 8.78541 179.51 8.98143C180.051 9.1732 180.528 9.47149 180.942 9.87632C181.359 10.2811 181.688 10.7968 181.926 11.4232C182.165 12.0454 182.284 12.7868 182.284 13.6476V14.3571H174.237V12.7975H180.066C180.062 12.3543 179.966 11.9601 179.778 11.615C179.591 11.2655 179.329 10.9907 178.992 10.7904C178.66 10.5901 178.272 10.49 177.829 10.49C177.356 10.49 176.94 10.605 176.582 10.8351C176.224 11.061 175.945 11.3593 175.745 11.73C175.549 12.0965 175.449 12.4992 175.445 12.9381V14.2996C175.445 14.8706 175.549 15.3607 175.758 15.7698C175.967 16.1746 176.259 16.4857 176.634 16.703C177.009 16.9161 177.447 17.0226 177.95 17.0226C178.287 17.0226 178.592 16.9758 178.864 16.882C179.137 16.784 179.374 16.6412 179.574 16.4537C179.774 16.2662 179.925 16.034 180.028 15.757L182.188 15.9999C182.052 16.5709 181.792 17.0695 181.408 17.4956C181.029 17.9175 180.543 18.2456 179.951 18.48C179.359 18.7101 178.681 18.8252 177.918 18.8252Z" fill="#061F31"/>
<path d="M17.2032 4.16201L12.2659 10.9576C11.7626 11.6504 10.6969 11.5549 10.3196 10.786C9.91765 9.96715 9.43192 9.15231 8.9095 8.33609C8.30833 7.39682 7.17796 7.49339 6.68346 8.174C6.4324 8.51957 6.34405 9.01468 6.5719 9.60121C7.24879 11.3431 8.53499 12.9617 8.48965 14.3425C8.46147 15.1962 8.07696 17.4389 7.92685 18.3098C7.88916 18.529 7.96593 18.7679 8.14582 18.8986L13.1424 22.5289C13.3793 22.7009 13.72 22.653 13.9218 22.4409L15.6318 20.6412C15.6925 20.5775 15.7703 20.5238 15.8526 20.4927C18.2429 19.5882 19.6037 18.6978 20.4394 17.5476C20.6184 17.3012 20.774 17.042 20.91 16.7688C21.7235 15.1349 20.8592 14.1586 20.4001 13.7859C20.2584 13.6709 20.1757 13.496 20.1852 13.3138C20.2442 12.1721 19.4517 11.6737 18.9434 11.4726C18.7205 11.3844 18.5688 11.1729 18.5683 10.9333C18.5664 10.0351 18.0235 9.56006 17.5527 9.31309C17.2355 9.14671 17.1446 8.74632 17.3551 8.4565L19.3448 5.71796C20.382 4.29024 18.2405 2.73434 17.2032 4.16201Z" fill="#061F31"/>
</svg>
