<svg width="111" height="25" viewBox="0 0 111 25" fill="none" xmlns="http://www.w3.org/2000/svg">
<rect x="0.890625" y="0.488281" width="110.101" height="24.0516" rx="5" fill="#061F31"/>
<path d="M30.132 18.4883V5.39737H35.0411C36.0468 5.39737 36.8905 5.58487 37.5724 5.95987C38.2584 6.33487 38.7762 6.8505 39.1256 7.50675C39.4793 8.15874 39.6562 8.90021 39.6562 9.73118C39.6562 10.5707 39.4793 11.3164 39.1256 11.9684C38.7719 12.6204 38.2499 13.1339 37.5596 13.5089C36.8692 13.8796 36.0191 14.065 35.0091 14.065H31.7556V12.1154H34.6895C35.2776 12.1154 35.7591 12.0131 36.1341 11.8086C36.5091 11.604 36.7861 11.3228 36.9651 10.9648C37.1483 10.6069 37.24 10.1957 37.24 9.73118C37.24 9.26669 37.1483 8.8576 36.9651 8.50391C36.7861 8.15021 36.507 7.87535 36.1278 7.67933C35.7528 7.47905 35.2691 7.37891 34.6768 7.37891H32.5035V18.4883H30.132ZM41.6137 18.4883V8.6701H43.8573V10.3065H43.9596C44.1386 9.7397 44.4454 9.30291 44.8801 8.99609C45.319 8.68501 45.8197 8.52947 46.3822 8.52947C46.51 8.52947 46.6528 8.53587 46.8105 8.54865C46.9724 8.55717 47.1066 8.57209 47.2132 8.59339V10.7219C47.1151 10.6879 46.9596 10.658 46.7465 10.6325C46.5377 10.6026 46.3353 10.5877 46.1393 10.5877C45.7174 10.5877 45.3382 10.6793 45.0015 10.8626C44.6691 11.0415 44.407 11.2908 44.2153 11.6104C44.0235 11.93 43.9276 12.2987 43.9276 12.7163V18.4883H41.6137ZM52.6288 18.68C51.67 18.68 50.839 18.4691 50.1359 18.0472C49.4328 17.6254 48.8873 17.0352 48.4996 16.2766C48.116 15.5181 47.9243 14.6317 47.9243 13.6175C47.9243 12.6033 48.116 11.7148 48.4996 10.9521C48.8873 10.1893 49.4328 9.59695 50.1359 9.17507C50.839 8.7532 51.67 8.54226 52.6288 8.54226C53.5876 8.54226 54.4186 8.7532 55.1217 9.17507C55.8248 9.59695 56.3682 10.1893 56.7517 10.9521C57.1395 11.7148 57.3334 12.6033 57.3334 13.6175C57.3334 14.6317 57.1395 15.5181 56.7517 16.2766C56.3682 17.0352 55.8248 17.6254 55.1217 18.0472C54.4186 18.4691 53.5876 18.68 52.6288 18.68ZM52.6416 16.8263C53.1615 16.8263 53.5961 16.6836 53.9456 16.3981C54.295 16.1083 54.555 15.7205 54.7254 15.2347C54.9001 14.7489 54.9875 14.2077 54.9875 13.6112C54.9875 13.0103 54.9001 12.467 54.7254 11.9812C54.555 11.4911 54.295 11.1012 53.9456 10.8114C53.5961 10.5217 53.1615 10.3768 52.6416 10.3768C52.1089 10.3768 51.6657 10.5217 51.3121 10.8114C50.9626 11.1012 50.7006 11.4911 50.5258 11.9812C50.3554 12.467 50.2702 13.0103 50.2702 13.6112C50.2702 14.2077 50.3554 14.7489 50.5258 15.2347C50.7006 15.7205 50.9626 16.1083 51.3121 16.3981C51.6657 16.6836 52.1089 16.8263 52.6416 16.8263ZM64.2 8.6701V10.4599H58.5558V8.6701H64.2ZM59.9493 6.31783H62.2632V15.5352C62.2632 15.8462 62.3101 16.0849 62.4039 16.2511C62.5019 16.413 62.6297 16.5238 62.7874 16.5835C62.945 16.6431 63.1198 16.6729 63.3115 16.6729C63.4564 16.6729 63.5885 16.6623 63.7078 16.641C63.8314 16.6197 63.9252 16.6005 63.9891 16.5835L64.379 18.3924C64.2554 18.435 64.0786 18.4819 63.8485 18.533C63.6226 18.5842 63.3456 18.614 63.0175 18.6225C62.4379 18.6396 61.9159 18.5522 61.4514 18.3604C60.9869 18.1644 60.6183 17.8619 60.3456 17.4528C60.0771 17.0437 59.945 16.5323 59.9493 15.9187V6.31783ZM70.3763 18.68C69.392 18.68 68.5418 18.4755 67.8259 18.0664C67.1143 17.6531 66.5667 17.0692 66.1831 16.315C65.7996 15.5565 65.6079 14.6637 65.6079 13.6367C65.6079 12.6268 65.7996 11.7404 66.1831 10.9776C66.5709 10.2106 67.1121 9.61399 67.8067 9.18785C68.5013 8.75746 69.3174 8.54226 70.2549 8.54226C70.86 8.54226 71.431 8.64027 71.968 8.83629C72.5091 9.02805 72.9864 9.32635 73.3998 9.73118C73.8174 10.136 74.1455 10.6516 74.3841 11.2781C74.6228 11.9002 74.7421 12.6417 74.7421 13.5025V14.212H66.6945V12.6523H72.5241C72.5198 12.2092 72.4239 11.815 72.2364 11.4698C72.0489 11.1204 71.7868 10.8455 71.4502 10.6452C71.1178 10.445 70.73 10.3448 70.2868 10.3448C69.8138 10.3448 69.3983 10.4599 69.0404 10.69C68.6824 10.9158 68.4033 11.2141 68.203 11.5849C68.007 11.9513 67.9069 12.354 67.9026 12.793V14.1545C67.9026 14.7255 68.007 15.2156 68.2158 15.6246C68.4246 16.0295 68.7165 16.3406 69.0915 16.5579C69.4665 16.771 69.9055 16.8775 70.4083 16.8775C70.7449 16.8775 71.0496 16.8306 71.3224 16.7369C71.5951 16.6388 71.8316 16.4961 72.0319 16.3086C72.2322 16.1211 72.3834 15.8888 72.4857 15.6119L74.6462 15.8548C74.5099 16.4258 74.2499 16.9244 73.8664 17.3505C73.4871 17.7724 73.0013 18.1005 72.409 18.3349C71.8167 18.565 71.1391 18.68 70.3763 18.68ZM69.3025 7.37891L70.7343 4.45774H72.9971L71.0347 7.37891H69.3025ZM80.9695 22.3746C80.1386 22.3746 79.4248 22.2617 78.8282 22.0359C78.2316 21.8143 77.7522 21.516 77.39 21.141C77.0278 20.766 76.7764 20.3505 76.6357 19.8945L78.7195 19.3896C78.8133 19.5813 78.9497 19.771 79.1286 19.9585C79.3076 20.1502 79.5484 20.3079 79.8509 20.4315C80.1578 20.5593 80.5434 20.6232 81.0079 20.6232C81.6642 20.6232 82.2075 20.4634 82.6379 20.1438C83.0683 19.8285 83.2835 19.3086 83.2835 18.5842V16.7241H83.1684C83.0491 16.9627 82.8744 17.2077 82.6443 17.4592C82.4184 17.7106 82.118 17.9215 81.743 18.092C81.3722 18.2624 80.9056 18.3477 80.3431 18.3477C79.5889 18.3477 78.9049 18.1708 78.2913 17.8171C77.6819 17.4592 77.1961 16.9265 76.8339 16.2191C76.4759 15.5075 76.297 14.6168 76.297 13.5472C76.297 12.4691 76.4759 11.5593 76.8339 10.8178C77.1961 10.0721 77.684 9.50746 78.2977 9.12393C78.9113 8.73615 79.5953 8.54226 80.3495 8.54226C80.9248 8.54226 81.3978 8.64027 81.7686 8.83629C82.1436 9.02805 82.4419 9.2603 82.6634 9.53303C82.885 9.80149 83.0534 10.055 83.1684 10.2937H83.2963V8.6701H85.5782V18.6481C85.5782 19.4876 85.3779 20.1822 84.9774 20.7319C84.5768 21.2816 84.0292 21.6928 83.3346 21.9656C82.64 22.2383 81.8517 22.3746 80.9695 22.3746ZM80.9887 16.5323C81.4788 16.5323 81.8964 16.413 82.2416 16.1744C82.5867 15.9357 82.8488 15.5927 83.0278 15.1452C83.2068 14.6978 83.2963 14.1609 83.2963 13.5344C83.2963 12.9165 83.2068 12.3754 83.0278 11.9109C82.8531 11.4464 82.5931 11.0863 82.248 10.8306C81.907 10.5707 81.4873 10.4407 80.9887 10.4407C80.4731 10.4407 80.0427 10.5749 79.6975 10.8434C79.3524 11.1119 79.0924 11.4805 78.9177 11.9492C78.743 12.4137 78.6556 12.9421 78.6556 13.5344C78.6556 14.1353 78.743 14.6616 78.9177 15.1133C79.0967 15.5607 79.3588 15.9102 79.7039 16.1616C80.0534 16.4087 80.4816 16.5323 80.9887 16.5323ZM92.2963 18.68C91.3119 18.68 90.4617 18.4755 89.7458 18.0664C89.0342 17.6531 88.4866 17.0692 88.1031 16.315C87.7195 15.5565 87.5278 14.6637 87.5278 13.6367C87.5278 12.6268 87.7195 11.7404 88.1031 10.9776C88.4909 10.2106 89.032 9.61399 89.7267 9.18785C90.4213 8.75746 91.2373 8.54226 92.1748 8.54226C92.7799 8.54226 93.3509 8.64027 93.8879 8.83629C94.4291 9.02805 94.9063 9.32635 95.3197 9.73118C95.7373 10.136 96.0654 10.6516 96.3041 11.2781C96.5427 11.9002 96.662 12.6417 96.662 13.5025V14.212H88.6144V12.6523H94.444C94.4397 12.2092 94.3438 11.815 94.1563 11.4698C93.9688 11.1204 93.7068 10.8455 93.3701 10.6452C93.0377 10.445 92.6499 10.3448 92.2068 10.3448C91.7338 10.3448 91.3183 10.4599 90.9603 10.69C90.6024 10.9158 90.3232 11.2141 90.123 11.5849C89.9269 11.9513 89.8268 12.354 89.8225 12.793V14.1545C89.8225 14.7255 89.9269 15.2156 90.1357 15.6246C90.3445 16.0295 90.6365 16.3406 91.0115 16.5579C91.3865 16.771 91.8254 16.8775 92.3282 16.8775C92.6649 16.8775 92.9695 16.8306 93.2423 16.7369C93.515 16.6388 93.7515 16.4961 93.9518 16.3086C94.1521 16.1211 94.3034 15.8888 94.4056 15.6119L96.5661 15.8548C96.4298 16.4258 96.1698 16.9244 95.7863 17.3505C95.407 17.7724 94.9213 18.1005 94.3289 18.3349C93.7366 18.565 93.059 18.68 92.2963 18.68ZM98.6196 18.4883V8.6701H100.863V10.3065H100.965C101.144 9.7397 101.451 9.30291 101.886 8.99609C102.325 8.68501 102.826 8.52947 103.388 8.52947C103.516 8.52947 103.659 8.53587 103.816 8.54865C103.978 8.55717 104.112 8.57209 104.219 8.59339V10.7219C104.121 10.6879 103.965 10.658 103.752 10.6325C103.544 10.6026 103.341 10.5877 103.145 10.5877C102.723 10.5877 102.344 10.6793 102.007 10.8626C101.675 11.0415 101.413 11.2908 101.221 11.6104C101.029 11.93 100.934 12.2987 100.934 12.7163V18.4883H98.6196Z" fill="#5A98DF"/>
<path d="M15.5124 3.66035C15.5124 3.66035 15.5129 3.66075 15.5143 3.66213L15.5134 3.66125L15.5237 3.67044C15.538 3.68305 15.5663 3.7072 15.6101 3.74131C15.6977 3.8095 15.8481 3.91776 16.074 4.05334C16.5258 4.32441 17.2818 4.70576 18.4461 5.09387C19.6372 5.49091 20.4148 5.68383 20.8816 5.77721C21.1147 5.82383 21.2687 5.8453 21.3567 5.85507C21.4006 5.85995 21.4278 5.86189 21.4399 5.86259L21.4453 5.86289C21.8868 5.87009 22.2424 6.23016 22.2424 6.67328V12.3468C22.2424 15.1401 20.393 17.3721 18.7236 18.8329C17.8718 19.5782 17.0239 20.1607 16.3905 20.5565C16.073 20.755 15.8072 20.9079 15.619 21.0121C15.4587 21.1009 15.3058 21.16 15.1402 21.2096C15.0147 21.2472 14.8806 21.2485 14.7551 21.2112C14.5893 21.1619 14.4368 21.1008 14.2767 21.0121C14.0885 20.9079 13.8227 20.755 13.5051 20.5565C12.8718 20.1607 12.0239 19.5782 11.1721 18.8329C9.50268 17.3721 7.65332 15.1401 7.65332 12.3468V6.67328C7.65332 6.23016 8.00893 5.8701 8.45033 5.86289L8.45581 5.86259C8.46787 5.86189 8.49503 5.85995 8.53895 5.85507C8.62694 5.8453 8.78095 5.82383 9.01406 5.77721C9.48095 5.68383 10.2584 5.49091 11.4495 5.09387C12.6139 4.70576 13.3699 4.32441 13.8216 4.05334C14.0476 3.91776 14.198 3.8095 14.2856 3.74131C14.3294 3.7072 14.3577 3.68305 14.3721 3.67044L14.3823 3.66125C14.6968 3.35462 15.1988 3.35462 15.5134 3.66125L15.5124 3.66035Z" fill="#5A98DF"/>
</svg>
