<svg width="104" height="27" viewBox="0 0 104 27" fill="none" xmlns="http://www.w3.org/2000/svg">
<path d="M27.7775 18.4883V5.39737H32.6866C33.6923 5.39737 34.536 5.58487 35.2179 5.95987C35.9039 6.33487 36.4217 6.8505 36.7711 7.50675C37.1248 8.15874 37.3017 8.90021 37.3017 9.73118C37.3017 10.5707 37.1248 11.3164 36.7711 11.9684C36.4174 12.6204 35.8954 13.1339 35.2051 13.5089C34.5147 13.8796 33.6646 14.065 32.6547 14.065H29.4011V12.1154H32.3351C32.9231 12.1154 33.4047 12.0131 33.7797 11.8086C34.1547 11.604 34.4316 11.3228 34.6106 10.9648C34.7939 10.6069 34.8855 10.1957 34.8855 9.73118C34.8855 9.26669 34.7939 8.8576 34.6106 8.50391C34.4316 8.15021 34.1525 7.87535 33.7733 7.67933C33.3983 7.47905 32.9146 7.37891 32.3223 7.37891H30.149V18.4883H27.7775ZM39.2592 18.4883V8.6701H41.5028V10.3065H41.6051C41.7841 9.7397 42.0909 9.30291 42.5256 8.99609C42.9645 8.68501 43.4652 8.52947 44.0277 8.52947C44.1555 8.52947 44.2983 8.53587 44.456 8.54865C44.6179 8.55717 44.7521 8.57209 44.8587 8.59339V10.7219C44.7607 10.6879 44.6051 10.658 44.392 10.6325C44.1832 10.6026 43.9808 10.5877 43.7848 10.5877C43.3629 10.5877 42.9837 10.6793 42.647 10.8626C42.3146 11.0415 42.0526 11.2908 41.8608 11.6104C41.669 11.93 41.5732 12.2987 41.5732 12.7163V18.4883H39.2592ZM50.2743 18.68C49.3155 18.68 48.4846 18.4691 47.7814 18.0472C47.0783 17.6254 46.5328 17.0352 46.1451 16.2766C45.7615 15.5181 45.5698 14.6317 45.5698 13.6175C45.5698 12.6033 45.7615 11.7148 46.1451 10.9521C46.5328 10.1893 47.0783 9.59695 47.7814 9.17507C48.4846 8.7532 49.3155 8.54226 50.2743 8.54226C51.2331 8.54226 52.0641 8.7532 52.7672 9.17507C53.4703 9.59695 54.0137 10.1893 54.3972 10.9521C54.785 11.7148 54.9789 12.6033 54.9789 13.6175C54.9789 14.6317 54.785 15.5181 54.3972 16.2766C54.0137 17.0352 53.4703 17.6254 52.7672 18.0472C52.0641 18.4691 51.2331 18.68 50.2743 18.68ZM50.2871 16.8263C50.807 16.8263 51.2417 16.6836 51.5911 16.3981C51.9405 16.1083 52.2005 15.7205 52.3709 15.2347C52.5456 14.7489 52.633 14.2077 52.633 13.6112C52.633 13.0103 52.5456 12.467 52.3709 11.9812C52.2005 11.4911 51.9405 11.1012 51.5911 10.8114C51.2417 10.5217 50.807 10.3768 50.2871 10.3768C49.7544 10.3768 49.3113 10.5217 48.9576 10.8114C48.6081 11.1012 48.3461 11.4911 48.1713 11.9812C48.0009 12.467 47.9157 13.0103 47.9157 13.6112C47.9157 14.2077 48.0009 14.7489 48.1713 15.2347C48.3461 15.7205 48.6081 16.1083 48.9576 16.3981C49.3113 16.6836 49.7544 16.8263 50.2871 16.8263ZM61.8455 8.6701V10.4599H56.2013V8.6701H61.8455ZM57.5948 6.31783H59.9087V15.5352C59.9087 15.8462 59.9556 16.0849 60.0494 16.2511C60.1474 16.413 60.2752 16.5238 60.4329 16.5835C60.5906 16.6431 60.7653 16.6729 60.957 16.6729C61.1019 16.6729 61.234 16.6623 61.3533 16.641C61.4769 16.6197 61.5707 16.6005 61.6346 16.5835L62.0245 18.3924C61.9009 18.435 61.7241 18.4819 61.494 18.533C61.2681 18.5842 60.9911 18.614 60.663 18.6225C60.0835 18.6396 59.5614 18.5522 59.0969 18.3604C58.6325 18.1644 58.2638 17.8619 57.9911 17.4528C57.7227 17.0437 57.5906 16.5323 57.5948 15.9187V6.31783ZM68.0218 18.68C67.0375 18.68 66.1873 18.4755 65.4714 18.0664C64.7598 17.6531 64.2122 17.0692 63.8287 16.315C63.4451 15.5565 63.2534 14.6637 63.2534 13.6367C63.2534 12.6268 63.4451 11.7404 63.8287 10.9776C64.2164 10.2106 64.7576 9.61399 65.4522 9.18785C66.1468 8.75746 66.9629 8.54226 67.9004 8.54226C68.5055 8.54226 69.0765 8.64027 69.6135 8.83629C70.1547 9.02805 70.6319 9.32635 71.0453 9.73118C71.4629 10.136 71.791 10.6516 72.0297 11.2781C72.2683 11.9002 72.3876 12.6417 72.3876 13.5025V14.212H64.34V12.6523H70.1696C70.1653 12.2092 70.0694 11.815 69.8819 11.4698C69.6944 11.1204 69.4324 10.8455 69.0957 10.6452C68.7633 10.445 68.3755 10.3448 67.9324 10.3448C67.4593 10.3448 67.0439 10.4599 66.6859 10.69C66.3279 10.9158 66.0488 11.2141 65.8485 11.5849C65.6525 11.9513 65.5524 12.354 65.5481 12.793V14.1545C65.5481 14.7255 65.6525 15.2156 65.8613 15.6246C66.0701 16.0295 66.362 16.3406 66.737 16.5579C67.112 16.771 67.551 16.8775 68.0538 16.8775C68.3904 16.8775 68.6951 16.8306 68.9679 16.7369C69.2406 16.6388 69.4771 16.4961 69.6774 16.3086C69.8777 16.1211 70.0289 15.8888 70.1312 15.6119L72.2917 15.8548C72.1554 16.4258 71.8954 16.9244 71.5119 17.3505C71.1326 17.7724 70.6468 18.1005 70.0545 18.3349C69.4622 18.565 68.7846 18.68 68.0218 18.68ZM66.948 7.37891L68.3798 4.45774H70.6426L68.6802 7.37891H66.948ZM78.6151 22.3746C77.7841 22.3746 77.0703 22.2617 76.4737 22.0359C75.8771 21.8143 75.3977 21.516 75.0355 21.141C74.6733 20.766 74.4219 20.3505 74.2812 19.8945L76.3651 19.3896C76.4588 19.5813 76.5952 19.771 76.7741 19.9585C76.9531 20.1502 77.1939 20.3079 77.4964 20.4315C77.8033 20.5593 78.1889 20.6232 78.6534 20.6232C79.3097 20.6232 79.853 20.4634 80.2834 20.1438C80.7138 19.8285 80.929 19.3086 80.929 18.5842V16.7241H80.8139C80.6946 16.9627 80.5199 17.2077 80.2898 17.4592C80.0639 17.7106 79.7635 17.9215 79.3885 18.092C79.0178 18.2624 78.5511 18.3477 77.9886 18.3477C77.2344 18.3477 76.5504 18.1708 75.9368 17.8171C75.3274 17.4592 74.8416 16.9265 74.4794 16.2191C74.1214 15.5075 73.9425 14.6168 73.9425 13.5472C73.9425 12.4691 74.1214 11.5593 74.4794 10.8178C74.8416 10.0721 75.3295 9.50746 75.9432 9.12393C76.5568 8.73615 77.2408 8.54226 77.995 8.54226C78.5703 8.54226 79.0433 8.64027 79.4141 8.83629C79.7891 9.02805 80.0874 9.2603 80.3089 9.53303C80.5305 9.80149 80.6989 10.055 80.8139 10.2937H80.9418V8.6701H83.2237V18.6481C83.2237 19.4876 83.0234 20.1822 82.6229 20.7319C82.2223 21.2816 81.6747 21.6928 80.9801 21.9656C80.2855 22.2383 79.4972 22.3746 78.6151 22.3746ZM78.6342 16.5323C79.1243 16.5323 79.5419 16.413 79.8871 16.1744C80.2322 15.9357 80.4943 15.5927 80.6733 15.1452C80.8523 14.6978 80.9418 14.1609 80.9418 13.5344C80.9418 12.9165 80.8523 12.3754 80.6733 11.9109C80.4986 11.4464 80.2386 11.0863 79.8935 10.8306C79.5526 10.5707 79.1328 10.4407 78.6342 10.4407C78.1186 10.4407 77.6882 10.5749 77.343 10.8434C76.9979 11.1119 76.7379 11.4805 76.5632 11.9492C76.3885 12.4137 76.3011 12.9421 76.3011 13.5344C76.3011 14.1353 76.3885 14.6616 76.5632 15.1133C76.7422 15.5607 77.0043 15.9102 77.3494 16.1616C77.6989 16.4087 78.1271 16.5323 78.6342 16.5323ZM89.9418 18.68C88.9574 18.68 88.1072 18.4755 87.3913 18.0664C86.6797 17.6531 86.1321 17.0692 85.7486 16.315C85.3651 15.5565 85.1733 14.6637 85.1733 13.6367C85.1733 12.6268 85.3651 11.7404 85.7486 10.9776C86.1364 10.2106 86.6776 9.61399 87.3722 9.18785C88.0668 8.75746 88.8828 8.54226 89.8203 8.54226C90.4254 8.54226 90.9964 8.64027 91.5334 8.83629C92.0746 9.02805 92.5518 9.32635 92.9652 9.73118C93.3828 10.136 93.7109 10.6516 93.9496 11.2781C94.1882 11.9002 94.3075 12.6417 94.3075 13.5025V14.212H86.2599V12.6523H92.0895C92.0852 12.2092 91.9893 11.815 91.8018 11.4698C91.6143 11.1204 91.3523 10.8455 91.0156 10.6452C90.6832 10.445 90.2955 10.3448 89.8523 10.3448C89.3793 10.3448 88.9638 10.4599 88.6058 10.69C88.2479 10.9158 87.9688 11.2141 87.7685 11.5849C87.5724 11.9513 87.4723 12.354 87.468 12.793V14.1545C87.468 14.7255 87.5724 15.2156 87.7812 15.6246C87.9901 16.0295 88.282 16.3406 88.657 16.5579C89.032 16.771 89.4709 16.8775 89.9737 16.8775C90.3104 16.8775 90.6151 16.8306 90.8878 16.7369C91.1605 16.6388 91.397 16.4961 91.5973 16.3086C91.7976 16.1211 91.9489 15.8888 92.0511 15.6119L94.2116 15.8548C94.0753 16.4258 93.8153 16.9244 93.4318 17.3505C93.0526 17.7724 92.5668 18.1005 91.9744 18.3349C91.3821 18.565 90.7045 18.68 89.9418 18.68ZM96.2651 18.4883V8.6701H98.5087V10.3065H98.611C98.79 9.7397 99.0968 9.30291 99.5314 8.99609C99.9703 8.68501 100.471 8.52947 101.034 8.52947C101.161 8.52947 101.304 8.53587 101.462 8.54865C101.624 8.55717 101.758 8.57209 101.865 8.59339V10.7219C101.767 10.6879 101.611 10.658 101.398 10.6325C101.189 10.6026 100.987 10.5877 100.791 10.5877C100.369 10.5877 99.9895 10.6793 99.6529 10.8626C99.3205 11.0415 99.0584 11.2908 98.8667 11.6104C98.6749 11.93 98.579 12.2987 98.579 12.7163V18.4883H96.2651Z" fill="#5A98DF"/>
<path d="M13.7374 1.07993C13.7374 1.07993 13.738 1.08041 13.7397 1.08206L13.7386 1.081L13.7509 1.09198C13.7679 1.10706 13.8017 1.13592 13.8541 1.17668C13.9589 1.25818 14.1385 1.38757 14.4086 1.54961C14.9485 1.87357 15.8521 2.32933 17.2436 2.79318C18.6671 3.26769 19.5964 3.49826 20.1543 3.60986C20.4329 3.66558 20.6169 3.69124 20.7221 3.70292C20.7746 3.70875 20.8071 3.71106 20.8215 3.71191L20.828 3.71227C21.3556 3.72087 21.7806 4.15119 21.7806 4.68079V11.4614C21.7806 14.7998 19.5704 17.4674 17.5752 19.2132C16.5572 20.1039 15.5439 20.8 14.7869 21.2731C14.4074 21.5104 14.0897 21.6931 13.8648 21.8176C13.6732 21.9237 13.4905 21.9944 13.2925 22.0537C13.1426 22.0986 12.9824 22.1002 12.8323 22.0555C12.6341 21.9966 12.4519 21.9236 12.2605 21.8176C12.0356 21.6931 11.718 21.5104 11.3384 21.2731C10.5815 20.8 9.5681 20.1039 8.55016 19.2132C6.55496 17.4674 4.34473 14.7998 4.34473 11.4614V4.68079C4.34473 4.1512 4.76973 3.72088 5.29726 3.71227L5.30381 3.71191C5.31822 3.71106 5.35068 3.70875 5.40317 3.70292C5.50834 3.69124 5.69239 3.66558 5.97099 3.60986C6.52899 3.49826 7.45818 3.26769 8.8817 2.79318C10.2733 2.32933 11.1768 1.87357 11.7167 1.54961C11.9868 1.38757 12.1665 1.25818 12.2712 1.17668C12.3236 1.13592 12.3574 1.10706 12.3745 1.09198L12.3867 1.081C12.7627 0.714536 13.3627 0.714536 13.7386 1.081L13.7374 1.07993Z" fill="#5A98DF"/>
</svg>
