<svg width="111" height="25" viewBox="0 0 111 25" fill="none" xmlns="http://www.w3.org/2000/svg">
<rect x="0.638672" y="0.488281" width="110.101" height="24.0516" rx="5" fill="#5A98DF"/>
<path d="M29.8801 18.4883V5.39737H34.7892C35.7948 5.39737 36.6386 5.58487 37.3204 5.95987C38.0065 6.33487 38.5242 6.8505 38.8737 7.50675C39.2274 8.15874 39.4042 8.90021 39.4042 9.73118C39.4042 10.5707 39.2274 11.3164 38.8737 11.9684C38.52 12.6204 37.998 13.1339 37.3076 13.5089C36.6173 13.8796 35.7671 14.065 34.7572 14.065H31.5036V12.1154H34.4376C35.0257 12.1154 35.5072 12.0131 35.8822 11.8086C36.2572 11.604 36.5342 11.3228 36.7132 10.9648C36.8964 10.6069 36.988 10.1957 36.988 9.73118C36.988 9.26669 36.8964 8.8576 36.7132 8.50391C36.5342 8.15021 36.2551 7.87535 35.8758 7.67933C35.5008 7.47905 35.0171 7.37891 34.4248 7.37891H32.2515V18.4883H29.8801ZM41.3618 18.4883V8.6701H43.6054V10.3065H43.7077C43.8866 9.7397 44.1934 9.30291 44.6281 8.99609C45.067 8.68501 45.5677 8.52947 46.1302 8.52947C46.2581 8.52947 46.4008 8.53587 46.5585 8.54865C46.7204 8.55717 46.8547 8.57209 46.9612 8.59339V10.7219C46.8632 10.6879 46.7077 10.658 46.4946 10.6325C46.2858 10.6026 46.0834 10.5877 45.8873 10.5877C45.4655 10.5877 45.0862 10.6793 44.7496 10.8626C44.4172 11.0415 44.1551 11.2908 43.9633 11.6104C43.7716 11.93 43.6757 12.2987 43.6757 12.7163V18.4883H41.3618ZM52.3769 18.68C51.4181 18.68 50.5871 18.4691 49.884 18.0472C49.1808 17.6254 48.6354 17.0352 48.2476 16.2766C47.8641 15.5181 47.6723 14.6317 47.6723 13.6175C47.6723 12.6033 47.8641 11.7148 48.2476 10.9521C48.6354 10.1893 49.1808 9.59695 49.884 9.17507C50.5871 8.7532 51.4181 8.54226 52.3769 8.54226C53.3357 8.54226 54.1666 8.7532 54.8698 9.17507C55.5729 9.59695 56.1162 10.1893 56.4997 10.9521C56.8875 11.7148 57.0814 12.6033 57.0814 13.6175C57.0814 14.6317 56.8875 15.5181 56.4997 16.2766C56.1162 17.0352 55.5729 17.6254 54.8698 18.0472C54.1666 18.4691 53.3357 18.68 52.3769 18.68ZM52.3896 16.8263C52.9095 16.8263 53.3442 16.6836 53.6936 16.3981C54.0431 16.1083 54.303 15.7205 54.4735 15.2347C54.6482 14.7489 54.7355 14.2077 54.7355 13.6112C54.7355 13.0103 54.6482 12.467 54.4735 11.9812C54.303 11.4911 54.0431 11.1012 53.6936 10.8114C53.3442 10.5217 52.9095 10.3768 52.3896 10.3768C51.857 10.3768 51.4138 10.5217 51.0601 10.8114C50.7107 11.1012 50.4486 11.4911 50.2739 11.9812C50.1034 12.467 50.0182 13.0103 50.0182 13.6112C50.0182 14.2077 50.1034 14.7489 50.2739 15.2347C50.4486 15.7205 50.7107 16.1083 51.0601 16.3981C51.4138 16.6836 51.857 16.8263 52.3896 16.8263ZM63.9481 8.6701V10.4599H58.3039V8.6701H63.9481ZM59.6974 6.31783H62.0113V15.5352C62.0113 15.8462 62.0582 16.0849 62.1519 16.2511C62.2499 16.413 62.3778 16.5238 62.5354 16.5835C62.6931 16.6431 62.8678 16.6729 63.0596 16.6729C63.2045 16.6729 63.3366 16.6623 63.4559 16.641C63.5795 16.6197 63.6732 16.6005 63.7371 16.5835L64.127 18.3924C64.0035 18.435 63.8266 18.4819 63.5965 18.533C63.3707 18.5842 63.0937 18.614 62.7655 18.6225C62.186 18.6396 61.664 18.5522 61.1995 18.3604C60.735 18.1644 60.3664 17.8619 60.0937 17.4528C59.8252 17.0437 59.6931 16.5323 59.6974 15.9187V6.31783ZM70.1244 18.68C69.14 18.68 68.2899 18.4755 67.574 18.0664C66.8623 17.6531 66.3147 17.0692 65.9312 16.315C65.5477 15.5565 65.3559 14.6637 65.3559 13.6367C65.3559 12.6268 65.5477 11.7404 65.9312 10.9776C66.319 10.2106 66.8602 9.61399 67.5548 9.18785C68.2494 8.75746 69.0654 8.54226 70.0029 8.54226C70.608 8.54226 71.1791 8.64027 71.716 8.83629C72.2572 9.02805 72.7345 9.32635 73.1478 9.73118C73.5654 10.136 73.8936 10.6516 74.1322 11.2781C74.3708 11.9002 74.4901 12.6417 74.4901 13.5025V14.212H66.4426V12.6523H72.2721C72.2678 12.2092 72.172 11.815 71.9845 11.4698C71.797 11.1204 71.5349 10.8455 71.1982 10.6452C70.8659 10.445 70.4781 10.3448 70.0349 10.3448C69.5619 10.3448 69.1464 10.4599 68.7884 10.69C68.4305 10.9158 68.1514 11.2141 67.9511 11.5849C67.7551 11.9513 67.6549 12.354 67.6507 12.793V14.1545C67.6507 14.7255 67.7551 15.2156 67.9639 15.6246C68.1727 16.0295 68.4646 16.3406 68.8396 16.5579C69.2146 16.771 69.6535 16.8775 70.1563 16.8775C70.493 16.8775 70.7977 16.8306 71.0704 16.7369C71.3431 16.6388 71.5796 16.4961 71.7799 16.3086C71.9802 16.1211 72.1315 15.8888 72.2338 15.6119L74.3943 15.8548C74.2579 16.4258 73.998 16.9244 73.6144 17.3505C73.2352 17.7724 72.7494 18.1005 72.157 18.3349C71.5647 18.565 70.8872 18.68 70.1244 18.68ZM69.0505 7.37891L70.4823 4.45774H72.7451L70.7828 7.37891H69.0505ZM80.7176 22.3746C79.8866 22.3746 79.1729 22.2617 78.5763 22.0359C77.9797 21.8143 77.5003 21.516 77.1381 21.141C76.7758 20.766 76.5244 20.3505 76.3838 19.8945L78.4676 19.3896C78.5613 19.5813 78.6977 19.771 78.8767 19.9585C79.0557 20.1502 79.2964 20.3079 79.599 20.4315C79.9058 20.5593 80.2915 20.6232 80.7559 20.6232C81.4122 20.6232 81.9555 20.4634 82.3859 20.1438C82.8163 19.8285 83.0315 19.3086 83.0315 18.5842V16.7241H82.9165C82.7971 16.9627 82.6224 17.2077 82.3923 17.4592C82.1665 17.7106 81.866 17.9215 81.491 18.092C81.1203 18.2624 80.6537 18.3477 80.0912 18.3477C79.3369 18.3477 78.653 18.1708 78.0393 17.8171C77.43 17.4592 76.9442 16.9265 76.5819 16.2191C76.224 15.5075 76.045 14.6168 76.045 13.5472C76.045 12.4691 76.224 11.5593 76.5819 10.8178C76.9442 10.0721 77.4321 9.50746 78.0457 9.12393C78.6594 8.73615 79.3433 8.54226 80.0976 8.54226C80.6729 8.54226 81.1459 8.64027 81.5166 8.83629C81.8916 9.02805 82.1899 9.2603 82.4115 9.53303C82.6331 9.80149 82.8014 10.055 82.9165 10.2937H83.0443V8.6701H85.3263V18.6481C85.3263 19.4876 85.126 20.1822 84.7254 20.7319C84.3248 21.2816 83.7773 21.6928 83.0827 21.9656C82.3881 22.2383 81.5997 22.3746 80.7176 22.3746ZM80.7368 16.5323C81.2268 16.5323 81.6444 16.413 81.9896 16.1744C82.3348 15.9357 82.5969 15.5927 82.7758 15.1452C82.9548 14.6978 83.0443 14.1609 83.0443 13.5344C83.0443 12.9165 82.9548 12.3754 82.7758 11.9109C82.6011 11.4464 82.3412 11.0863 81.996 10.8306C81.6551 10.5707 81.2354 10.4407 80.7368 10.4407C80.2211 10.4407 79.7907 10.5749 79.4456 10.8434C79.1004 11.1119 78.8405 11.4805 78.6657 11.9492C78.491 12.4137 78.4037 12.9421 78.4037 13.5344C78.4037 14.1353 78.491 14.6616 78.6657 15.1133C78.8447 15.5607 79.1068 15.9102 79.452 16.1616C79.8014 16.4087 80.2297 16.5323 80.7368 16.5323ZM92.0443 18.68C91.0599 18.68 90.2098 18.4755 89.4939 18.0664C88.7822 17.6531 88.2346 17.0692 87.8511 16.315C87.4676 15.5565 87.2758 14.6637 87.2758 13.6367C87.2758 12.6268 87.4676 11.7404 87.8511 10.9776C88.2389 10.2106 88.7801 9.61399 89.4747 9.18785C90.1693 8.75746 90.9854 8.54226 91.9229 8.54226C92.528 8.54226 93.099 8.64027 93.6359 8.83629C94.1771 9.02805 94.6544 9.32635 95.0677 9.73118C95.4854 10.136 95.8135 10.6516 96.0521 11.2781C96.2907 11.9002 96.4101 12.6417 96.4101 13.5025V14.212H88.3625V12.6523H94.192C94.1878 12.2092 94.0919 11.815 93.9044 11.4698C93.7169 11.1204 93.4548 10.8455 93.1182 10.6452C92.7858 10.445 92.398 10.3448 91.9548 10.3448C91.4818 10.3448 91.0663 10.4599 90.7084 10.69C90.3504 10.9158 90.0713 11.2141 89.871 11.5849C89.675 11.9513 89.5748 12.354 89.5706 12.793V14.1545C89.5706 14.7255 89.675 15.2156 89.8838 15.6246C90.0926 16.0295 90.3845 16.3406 90.7595 16.5579C91.1345 16.771 91.5734 16.8775 92.0763 16.8775C92.4129 16.8775 92.7176 16.8306 92.9903 16.7369C93.2631 16.6388 93.4996 16.4961 93.6998 16.3086C93.9001 16.1211 94.0514 15.8888 94.1537 15.6119L96.3142 15.8548C96.1778 16.4258 95.9179 16.9244 95.5344 17.3505C95.1551 17.7724 94.6693 18.1005 94.077 18.3349C93.4846 18.565 92.8071 18.68 92.0443 18.68ZM98.3676 18.4883V8.6701H100.611V10.3065H100.714C100.892 9.7397 101.199 9.30291 101.634 8.99609C102.073 8.68501 102.574 8.52947 103.136 8.52947C103.264 8.52947 103.407 8.53587 103.564 8.54865C103.726 8.55717 103.861 8.57209 103.967 8.59339V10.7219C103.869 10.6879 103.714 10.658 103.5 10.6325C103.292 10.6026 103.089 10.5877 102.893 10.5877C102.471 10.5877 102.092 10.6793 101.755 10.8626C101.423 11.0415 101.161 11.2908 100.969 11.6104C100.777 11.93 100.682 12.2987 100.682 12.7163V18.4883H98.3676Z" fill="#061F31"/>
<path d="M15.2605 3.66035C15.2605 3.66035 15.261 3.66075 15.2623 3.66213L15.2615 3.66125L15.2717 3.67044C15.286 3.68305 15.3143 3.7072 15.3581 3.74131C15.4458 3.8095 15.5961 3.91776 15.8221 4.05334C16.2739 4.32441 17.0299 4.70576 18.1942 5.09387C19.3853 5.49091 20.1628 5.68383 20.6297 5.77721C20.8628 5.82383 21.0167 5.8453 21.1048 5.85507C21.1487 5.85995 21.1758 5.86189 21.1879 5.86259L21.1934 5.86289C21.6348 5.87009 21.9904 6.23016 21.9904 6.67328V12.3468C21.9904 15.1401 20.1411 17.3721 18.4716 18.8329C17.6199 19.5782 16.772 20.1607 16.1386 20.5565C15.821 20.755 15.5553 20.9079 15.3671 21.0121C15.2067 21.1009 15.0539 21.16 14.8882 21.2096C14.7628 21.2472 14.6287 21.2485 14.5031 21.2112C14.3373 21.1619 14.1849 21.1008 14.0247 21.0121C13.8365 20.9079 13.5707 20.755 13.2532 20.5565C12.6198 20.1607 11.7719 19.5782 10.9202 18.8329C9.25073 17.3721 7.40137 15.1401 7.40137 12.3468V6.67328C7.40137 6.23016 7.75697 5.8701 8.19837 5.86289L8.20385 5.86259C8.21591 5.86189 8.24307 5.85995 8.28699 5.85507C8.37499 5.8453 8.52899 5.82383 8.7621 5.77721C9.229 5.68383 10.0065 5.49091 11.1976 5.09387C12.3619 4.70576 13.1179 4.32441 13.5697 4.05334C13.7957 3.91776 13.946 3.8095 14.0336 3.74131C14.0775 3.7072 14.1058 3.68305 14.1201 3.67044L14.1303 3.66125C14.4449 3.35462 14.9469 3.35462 15.2615 3.66125L15.2605 3.66035Z" fill="#061F31"/>
</svg>
