<svg width="218" height="25" viewBox="0 0 218 25" fill="none" xmlns="http://www.w3.org/2000/svg">
<rect x="0.890625" y="0.889648" width="216.781" height="24.0516" rx="5" fill="#061F31"/>
<path d="M23.6468 11.517C23.4354 10.4836 23.0222 9.50204 22.431 8.62851C21.85 7.76913 21.1098 7.02896 20.2505 6.44801C19.3768 5.85697 18.3953 5.44381 17.362 5.23214C16.8192 5.12206 16.2665 5.06794 15.7127 5.07062V3.27417L12.1458 5.96615L15.7127 8.65813V6.86527C16.147 6.86347 16.5813 6.90475 17.0003 6.99089C17.8035 7.15547 18.5663 7.47654 19.2455 7.93578C19.9152 8.38735 20.4916 8.96378 20.9432 9.63352C21.6443 10.6701 22.0182 11.8933 22.0164 13.1448C22.0162 13.9845 21.8485 14.8159 21.5229 15.59C21.3645 15.9629 21.171 16.3198 20.945 16.656C20.7181 16.9902 20.4603 17.3023 20.1751 17.5883C19.3065 18.4553 18.2038 19.05 17.0021 19.2995C16.1665 19.4682 15.3055 19.4682 14.4699 19.2995C13.6664 19.1348 12.9032 18.8134 12.2239 18.3537C11.5549 17.9026 10.9791 17.3268 10.5279 16.6578C9.82762 15.6201 9.45357 14.3967 9.45383 13.1448H7.65918C7.66013 14.7543 8.14094 16.327 9.04016 17.6619C9.6215 18.5199 10.3609 19.2593 11.2189 19.8406C12.552 20.7428 14.1254 21.2237 15.7351 21.2207C16.2818 21.2206 16.8272 21.1656 17.3629 21.0565C18.3954 20.8433 19.3764 20.4302 20.2505 19.8406C20.6796 19.5514 21.0796 19.2211 21.4448 18.8544C21.8105 18.4878 22.1409 18.0876 22.4319 17.6592C23.3333 16.3265 23.8138 14.7537 23.811 13.1448C23.811 12.598 23.756 12.0527 23.6468 11.517Z" fill="#E85660"/>
<path d="M12.5463 11.2474L13.8376 9.95604L15.7351 11.8536L17.6326 9.95604L18.924 11.2474L17.0264 13.1449L18.9236 15.042L17.6322 16.3333L15.7351 14.4362L13.838 16.3333L12.5467 15.042L14.4438 13.1449L12.5463 11.2474Z" fill="#E85660"/>
<path d="M30.132 18.8896V5.79874H35.0411C36.0468 5.79874 36.8905 5.97345 37.5724 6.32289C38.2584 6.67232 38.7762 7.16238 39.1256 7.79306C39.4793 8.41948 39.6562 9.1503 39.6562 9.98553C39.6562 10.825 39.4772 11.5537 39.1192 12.1716C38.7655 12.7852 38.2435 13.2604 37.5532 13.597C36.8628 13.9294 36.0148 14.0956 35.0091 14.0956H31.5127V12.1269H34.6895C35.2776 12.1269 35.7591 12.0459 36.1341 11.884C36.5091 11.7178 36.7861 11.477 36.9651 11.1617C37.1483 10.8421 37.24 10.45 37.24 9.98553C37.24 9.52104 37.1483 9.12473 36.9651 8.79661C36.7819 8.46422 36.5028 8.2128 36.1278 8.04235C35.7528 7.86763 35.2691 7.78027 34.6768 7.78027H32.5035V18.8896H30.132ZM36.8948 12.9578L40.1356 18.8896H37.4893L34.306 12.9578H36.8948ZM45.9427 19.0814C44.9584 19.0814 44.1082 18.8769 43.3923 18.4678C42.6807 18.0544 42.1331 17.4706 41.7496 16.7164C41.366 15.9578 41.1743 15.0651 41.1743 14.0381C41.1743 13.0281 41.366 12.1418 41.7496 11.379C42.1373 10.6119 42.6785 10.0154 43.3731 9.58922C44.0677 9.15882 44.8838 8.94363 45.8213 8.94363C46.4264 8.94363 46.9974 9.04164 47.5344 9.23766C48.0756 9.42942 48.5528 9.72772 48.9662 10.1325C49.3838 10.5374 49.7119 11.053 49.9506 11.6794C50.1892 12.3016 50.3085 13.0431 50.3085 13.9039V14.6134H42.2609V13.0537H48.0905C48.0862 12.6105 47.9903 12.2164 47.8028 11.8712C47.6153 11.5218 47.3532 11.2469 47.0166 11.0466C46.6842 10.8463 46.2964 10.7462 45.8532 10.7462C45.3802 10.7462 44.9648 10.8612 44.6068 11.0914C44.2488 11.3172 43.9697 11.6155 43.7694 11.9862C43.5734 12.3527 43.4733 12.7554 43.469 13.1943V14.5558C43.469 15.1269 43.5734 15.6169 43.7822 16.026C43.991 16.4308 44.2829 16.7419 44.6579 16.9593C45.0329 17.1723 45.4719 17.2789 45.9747 17.2789C46.3113 17.2789 46.616 17.232 46.8888 17.1382C47.1615 17.0402 47.398 16.8975 47.5983 16.71C47.7986 16.5225 47.9498 16.2902 48.0521 16.0132L50.2126 16.2561C50.0763 16.8271 49.8163 17.3257 49.4328 17.7519C49.0535 18.1737 48.5677 18.5019 47.9754 18.7362C47.3831 18.9664 46.7055 19.0814 45.9427 19.0814ZM44.8689 7.78027L46.3007 4.85911H48.5635L46.6011 7.78027H44.8689ZM52.2661 18.8896V9.07147H54.58V18.8896H52.2661ZM53.4294 7.678C53.0629 7.678 52.7476 7.55655 52.4834 7.31365C52.2192 7.06649 52.0871 6.77033 52.0871 6.42516C52.0871 6.07573 52.2192 5.77956 52.4834 5.53666C52.7476 5.28951 53.0629 5.16593 53.4294 5.16593C53.8002 5.16593 54.1155 5.28951 54.3754 5.53666C54.6396 5.77956 54.7718 6.07573 54.7718 6.42516C54.7718 6.77033 54.6396 7.06649 54.3754 7.31365C54.1155 7.55655 53.8002 7.678 53.4294 7.678ZM59.2733 13.1368V18.8896H56.9594V9.07147H59.1711V10.7398H59.2861C59.512 10.1901 59.8721 9.75328 60.3664 9.42942C60.865 9.10556 61.4807 8.94363 62.2137 8.94363C62.8912 8.94363 63.4814 9.08851 63.9843 9.37828C64.4914 9.66806 64.8834 10.0878 65.1604 10.6375C65.4417 11.1872 65.5802 11.8541 65.5759 12.6382V18.8896H63.262V12.9962C63.262 12.3399 63.0915 11.8264 62.7506 11.4557C62.414 11.085 61.9474 10.8996 61.3508 10.8996C60.9459 10.8996 60.5858 10.9891 60.2705 11.1681C59.9594 11.3428 59.7144 11.5963 59.5354 11.9287C59.3607 12.2611 59.2733 12.6638 59.2733 13.1368ZM67.9282 18.8896V9.07147H70.2421V18.8896H67.9282ZM69.0915 7.678C68.7251 7.678 68.4097 7.55655 68.1455 7.31365C67.8813 7.06649 67.7492 6.77033 67.7492 6.42516C67.7492 6.07573 67.8813 5.77956 68.1455 5.53666C68.4097 5.28951 68.7251 5.16593 69.0915 5.16593C69.4623 5.16593 69.7776 5.28951 70.0376 5.53666C70.3018 5.77956 70.4339 6.07573 70.4339 6.42516C70.4339 6.77033 70.3018 7.06649 70.0376 7.31365C69.7776 7.55655 69.4623 7.678 69.0915 7.678ZM77.5242 9.07147V10.8612H71.8801V9.07147H77.5242ZM73.2735 6.71919H75.5874V15.9365C75.5874 16.2476 75.6343 16.4862 75.7281 16.6524C75.8261 16.8144 75.9539 16.9252 76.1116 16.9848C76.2693 17.0445 76.444 17.0743 76.6357 17.0743C76.7806 17.0743 76.9127 17.0637 77.032 17.0423C77.1556 17.021 77.2494 17.0019 77.3133 16.9848L77.7032 18.7938C77.5796 18.8364 77.4028 18.8833 77.1727 18.9344C76.9468 18.9855 76.6698 19.0154 76.3417 19.0239C75.7622 19.0409 75.2401 18.9536 74.7757 18.7618C74.3112 18.5658 73.9426 18.2632 73.6698 17.8541C73.4014 17.445 73.2693 16.9337 73.2735 16.32V6.71919ZM79.4594 18.8896V9.07147H81.7733V18.8896H79.4594ZM80.6228 7.678C80.2563 7.678 79.941 7.55655 79.6768 7.31365C79.4126 7.06649 79.2805 6.77033 79.2805 6.42516C79.2805 6.07573 79.4126 5.77956 79.6768 5.53666C79.941 5.28951 80.2563 5.16593 80.6228 5.16593C80.9935 5.16593 81.3089 5.28951 81.5688 5.53666C81.833 5.77956 81.9651 6.07573 81.9651 6.42516C81.9651 6.77033 81.833 7.06649 81.5688 7.31365C81.3089 7.55655 80.9935 7.678 80.6228 7.678ZM86.9781 19.0878C86.3559 19.0878 85.7955 18.977 85.297 18.7554C84.8026 18.5296 84.4106 18.1972 84.1208 17.7583C83.8353 17.3193 83.6926 16.7781 83.6926 16.1347C83.6926 15.5807 83.7948 15.1226 83.9994 14.7604C84.2039 14.3982 84.483 14.1084 84.8367 13.8911C85.1904 13.6737 85.5889 13.5097 86.032 13.3989C86.4795 13.2838 86.9419 13.2007 87.4191 13.1496C87.9944 13.0899 88.461 13.0367 88.819 12.9898C89.1769 12.9387 89.4369 12.8619 89.5988 12.7597C89.765 12.6531 89.8481 12.4891 89.8481 12.2675V12.2291C89.8481 11.7476 89.7053 11.3747 89.4198 11.1105C89.1343 10.8463 88.7231 10.7142 88.1862 10.7142C87.6194 10.7142 87.1698 10.8378 86.8374 11.085C86.5093 11.3321 86.2877 11.624 86.1727 11.9607L84.0122 11.6539C84.1826 11.0573 84.4639 10.5587 84.8559 10.1581C85.248 9.75328 85.7274 9.45073 86.2941 9.25044C86.8609 9.0459 87.4873 8.94363 88.1734 8.94363C88.6464 8.94363 89.1173 8.99902 89.586 9.10982C90.0548 9.22061 90.483 9.40385 90.8708 9.65953C91.2586 9.91095 91.5697 10.254 91.8041 10.6887C92.0427 11.1233 92.162 11.6666 92.162 12.3186V18.8896H89.9376V17.5409H89.8609C89.7203 17.8137 89.5221 18.0693 89.2664 18.308C89.015 18.5423 88.6975 18.732 88.314 18.8769C87.9347 19.0175 87.4894 19.0878 86.9781 19.0878ZM87.5789 17.3875C88.0434 17.3875 88.4461 17.2959 88.787 17.1127C89.1279 16.9252 89.39 16.678 89.5732 16.3712C89.7607 16.0644 89.8545 15.7298 89.8545 15.3676V14.2107C89.782 14.2703 89.6585 14.3257 89.4838 14.3769C89.3133 14.428 89.1215 14.4727 88.9085 14.5111C88.6954 14.5494 88.4845 14.5835 88.2757 14.6134C88.0669 14.6432 87.8857 14.6688 87.7323 14.6901C87.3872 14.7369 87.0782 14.8137 86.8055 14.9202C86.5328 15.0267 86.3176 15.1759 86.1599 15.3676C86.0022 15.5551 85.9234 15.798 85.9234 16.0963C85.9234 16.5225 86.0789 16.8442 86.39 17.0615C86.7011 17.2789 87.0974 17.3875 87.5789 17.3875ZM96.8026 5.79874V18.8896H94.4887V5.79874H96.8026ZM99.1821 18.8896V9.07147H101.496V18.8896H99.1821ZM100.345 7.678C99.979 7.678 99.6636 7.55655 99.3994 7.31365C99.1352 7.06649 99.0031 6.77033 99.0031 6.42516C99.0031 6.07573 99.1352 5.77956 99.3994 5.53666C99.6636 5.28951 99.979 5.16593 100.345 5.16593C100.716 5.16593 101.032 5.28951 101.291 5.53666C101.556 5.77956 101.688 6.07573 101.688 6.42516C101.688 6.77033 101.556 7.06649 101.291 7.31365C101.032 7.55655 100.716 7.678 100.345 7.678ZM111.635 11.6666L109.526 11.8968C109.466 11.6837 109.362 11.4834 109.213 11.2959C109.068 11.1084 108.872 10.9571 108.625 10.8421C108.378 10.727 108.075 10.6695 107.717 10.6695C107.236 10.6695 106.831 10.7739 106.503 10.9827C106.179 11.1915 106.019 11.4621 106.023 11.7945C106.019 12.08 106.123 12.3122 106.336 12.4912C106.554 12.6702 106.912 12.8172 107.41 12.9323L109.085 13.2902C110.014 13.4905 110.704 13.808 111.156 14.2426C111.612 14.6773 111.842 15.2462 111.846 15.9493C111.842 16.5672 111.661 17.1127 111.303 17.5857C110.949 18.0544 110.457 18.4209 109.826 18.6851C109.196 18.9493 108.471 19.0814 107.653 19.0814C106.451 19.0814 105.484 18.83 104.751 18.3271C104.018 17.82 103.581 17.1148 103.441 16.2114L105.697 15.9941C105.799 16.4372 106.017 16.7718 106.349 16.9976C106.682 17.2235 107.114 17.3364 107.647 17.3364C108.196 17.3364 108.638 17.2235 108.97 16.9976C109.307 16.7718 109.475 16.4926 109.475 16.1602C109.475 15.879 109.366 15.6468 109.149 15.4635C108.936 15.2803 108.603 15.1396 108.152 15.0416L106.477 14.6901C105.535 14.4941 104.839 14.1638 104.387 13.6993C103.935 13.2306 103.711 12.6382 103.716 11.9223C103.711 11.3172 103.875 10.7931 104.208 10.3499C104.544 9.90243 105.011 9.55726 105.608 9.31436C106.209 9.06721 106.901 8.94363 107.685 8.94363C108.836 8.94363 109.741 9.18865 110.402 9.67871C111.066 10.1688 111.478 10.8314 111.635 11.6666ZM118.101 19.0814C117.117 19.0814 116.266 18.8769 115.551 18.4678C114.839 18.0544 114.291 17.4706 113.908 16.7164C113.524 15.9578 113.332 15.0651 113.332 14.0381C113.332 13.0281 113.524 12.1418 113.908 11.379C114.296 10.6119 114.837 10.0154 115.531 9.58922C116.226 9.15882 117.042 8.94363 117.979 8.94363C118.585 8.94363 119.156 9.04164 119.693 9.23766C120.234 9.42942 120.711 9.72772 121.124 10.1325C121.542 10.5374 121.87 11.053 122.109 11.6794C122.347 12.3016 122.467 13.0431 122.467 13.9039V14.6134H114.419V13.0537H120.249C120.244 12.6105 120.149 12.2164 119.961 11.8712C119.774 11.5218 119.511 11.2469 119.175 11.0466C118.842 10.8463 118.455 10.7462 118.011 10.7462C117.538 10.7462 117.123 10.8612 116.765 11.0914C116.407 11.3172 116.128 11.6155 115.928 11.9862C115.732 12.3527 115.631 12.7554 115.627 13.1943V14.5558C115.627 15.1269 115.732 15.6169 115.94 16.026C116.149 16.4308 116.441 16.7419 116.816 16.9593C117.191 17.1723 117.63 17.2789 118.133 17.2789C118.47 17.2789 118.774 17.232 119.047 17.1382C119.32 17.0402 119.556 16.8975 119.756 16.71C119.957 16.5225 120.108 16.2902 120.21 16.0132L122.371 16.2561C122.234 16.8271 121.975 17.3257 121.591 17.7519C121.212 18.1737 120.726 18.5019 120.134 18.7362C119.541 18.9664 118.864 19.0814 118.101 19.0814ZM124.424 18.8896V9.07147H126.668V10.7078H126.77C126.949 10.1411 127.256 9.70428 127.691 9.39746C128.13 9.08638 128.63 8.93084 129.193 8.93084C129.321 8.93084 129.463 8.93723 129.621 8.95002C129.783 8.95854 129.917 8.97345 130.024 8.99476V11.1233C129.926 11.0892 129.77 11.0594 129.557 11.0338C129.348 11.004 129.146 10.9891 128.95 10.9891C128.528 10.9891 128.149 11.0807 127.812 11.2639C127.48 11.4429 127.218 11.6922 127.026 12.0118C126.834 12.3314 126.738 12.7 126.738 13.1176V18.8896H124.424ZM138.34 5.79874V18.8896H136.026V5.79874H138.34ZM145.066 19.0814C144.081 19.0814 143.231 18.8769 142.515 18.4678C141.804 18.0544 141.256 17.4706 140.873 16.7164C140.489 15.9578 140.297 15.0651 140.297 14.0381C140.297 13.0281 140.489 12.1418 140.873 11.379C141.26 10.6119 141.802 10.0154 142.496 9.58922C143.191 9.15882 144.007 8.94363 144.944 8.94363C145.549 8.94363 146.12 9.04164 146.657 9.23766C147.199 9.42942 147.676 9.72772 148.089 10.1325C148.507 10.5374 148.835 11.053 149.074 11.6794C149.312 12.3016 149.432 13.0431 149.432 13.9039V14.6134H141.384V13.0537H147.214C147.209 12.6105 147.113 12.2164 146.926 11.8712C146.738 11.5218 146.476 11.2469 146.14 11.0466C145.807 10.8463 145.419 10.7462 144.976 10.7462C144.503 10.7462 144.088 10.8612 143.73 11.0914C143.372 11.3172 143.093 11.6155 142.892 11.9862C142.696 12.3527 142.596 12.7554 142.592 13.1943V14.5558C142.592 15.1269 142.696 15.6169 142.905 16.026C143.114 16.4308 143.406 16.7419 143.781 16.9593C144.156 17.1723 144.595 17.2789 145.098 17.2789C145.434 17.2789 145.739 17.232 146.012 17.1382C146.285 17.0402 146.521 16.8975 146.721 16.71C146.922 16.5225 147.073 16.2902 147.175 16.0132L149.336 16.2561C149.199 16.8271 148.939 17.3257 148.556 17.7519C148.177 18.1737 147.691 18.5019 147.098 18.7362C146.506 18.9664 145.829 19.0814 145.066 19.0814ZM159.149 11.6666L157.04 11.8968C156.98 11.6837 156.876 11.4834 156.726 11.2959C156.582 11.1084 156.386 10.9571 156.138 10.8421C155.891 10.727 155.589 10.6695 155.231 10.6695C154.749 10.6695 154.344 10.7739 154.016 10.9827C153.692 11.1915 153.533 11.4621 153.537 11.7945C153.533 12.08 153.637 12.3122 153.85 12.4912C154.067 12.6702 154.425 12.8172 154.924 12.9323L156.599 13.2902C157.528 13.4905 158.218 13.808 158.67 14.2426C159.126 14.6773 159.356 15.2462 159.36 15.9493C159.356 16.5672 159.175 17.1127 158.817 17.5857C158.463 18.0544 157.971 18.4209 157.34 18.6851C156.709 18.9493 155.985 19.0814 155.167 19.0814C153.965 19.0814 152.998 18.83 152.265 18.3271C151.532 17.82 151.095 17.1148 150.954 16.2114L153.211 15.9941C153.313 16.4372 153.53 16.7718 153.863 16.9976C154.195 17.2235 154.628 17.3364 155.16 17.3364C155.71 17.3364 156.151 17.2235 156.484 16.9976C156.82 16.7718 156.989 16.4926 156.989 16.1602C156.989 15.879 156.88 15.6468 156.663 15.4635C156.449 15.2803 156.117 15.1396 155.665 15.0416L153.991 14.6901C153.049 14.4941 152.352 14.1638 151.9 13.6993C151.449 13.2306 151.225 12.6382 151.229 11.9223C151.225 11.3172 151.389 10.7931 151.722 10.3499C152.058 9.90243 152.525 9.55726 153.121 9.31436C153.722 9.06721 154.415 8.94363 155.199 8.94363C156.349 8.94363 157.255 9.18865 157.915 9.67871C158.58 10.1688 158.991 10.8314 159.149 11.6666ZM174.503 9.07147L171.006 18.8896H168.449L164.953 9.07147H167.42L169.677 16.3648H169.779L172.042 9.07147H174.503ZM180.053 19.0814C179.094 19.0814 178.263 18.8705 177.56 18.4486C176.857 18.0267 176.311 17.4365 175.923 16.678C175.54 15.9195 175.348 15.0331 175.348 14.0189C175.348 13.0047 175.54 12.1162 175.923 11.3534C176.311 10.5906 176.857 9.99831 177.56 9.57644C178.263 9.15456 179.094 8.94363 180.053 8.94363C181.011 8.94363 181.842 9.15456 182.546 9.57644C183.249 9.99831 183.792 10.5906 184.176 11.3534C184.563 12.1162 184.757 13.0047 184.757 14.0189C184.757 15.0331 184.563 15.9195 184.176 16.678C183.792 17.4365 183.249 18.0267 182.546 18.4486C181.842 18.8705 181.011 19.0814 180.053 19.0814ZM180.065 17.2277C180.585 17.2277 181.02 17.085 181.369 16.7994C181.719 16.5097 181.979 16.1219 182.149 15.6361C182.324 15.1503 182.411 14.6091 182.411 14.0125C182.411 13.4117 182.324 12.8683 182.149 12.3825C181.979 11.8925 181.719 11.5026 181.369 11.2128C181.02 10.923 180.585 10.7781 180.065 10.7781C179.533 10.7781 179.09 10.923 178.736 11.2128C178.386 11.5026 178.124 11.8925 177.95 12.3825C177.779 12.8683 177.694 13.4117 177.694 14.0125C177.694 14.6091 177.779 15.1503 177.95 15.6361C178.124 16.1219 178.386 16.5097 178.736 16.7994C179.09 17.085 179.533 17.2277 180.065 17.2277ZM191.624 9.07147V10.8612H185.98V9.07147H191.624ZM187.373 6.71919H189.687V15.9365C189.687 16.2476 189.734 16.4862 189.828 16.6524C189.926 16.8144 190.054 16.9252 190.211 16.9848C190.369 17.0445 190.544 17.0743 190.735 17.0743C190.88 17.0743 191.012 17.0637 191.132 17.0423C191.255 17.021 191.349 17.0019 191.413 16.9848L191.803 18.7938C191.679 18.8364 191.502 18.8833 191.272 18.9344C191.046 18.9855 190.769 19.0154 190.441 19.0239C189.862 19.0409 189.34 18.9536 188.875 18.7618C188.411 18.5658 188.042 18.2632 187.769 17.8541C187.501 17.445 187.369 16.9337 187.373 16.32V6.71919ZM197.8 19.0814C196.816 19.0814 195.966 18.8769 195.25 18.4678C194.538 18.0544 193.991 17.4706 193.607 16.7164C193.223 15.9578 193.032 15.0651 193.032 14.0381C193.032 13.0281 193.223 12.1418 193.607 11.379C193.995 10.6119 194.536 10.0154 195.231 9.58922C195.925 9.15882 196.741 8.94363 197.679 8.94363C198.284 8.94363 198.855 9.04164 199.392 9.23766C199.933 9.42942 200.41 9.72772 200.824 10.1325C201.241 10.5374 201.569 11.053 201.808 11.6794C202.047 12.3016 202.166 13.0431 202.166 13.9039V14.6134H194.118V13.0537H199.948C199.944 12.6105 199.848 12.2164 199.66 11.8712C199.473 11.5218 199.211 11.2469 198.874 11.0466C198.542 10.8463 198.154 10.7462 197.711 10.7462C197.238 10.7462 196.822 10.8612 196.464 11.0914C196.106 11.3172 195.827 11.6155 195.627 11.9862C195.431 12.3527 195.331 12.7554 195.326 13.1943V14.5558C195.326 15.1269 195.431 15.6169 195.64 16.026C195.848 16.4308 196.14 16.7419 196.515 16.9593C196.89 17.1723 197.329 17.2789 197.832 17.2789C198.169 17.2789 198.473 17.232 198.746 17.1382C199.019 17.0402 199.255 16.8975 199.456 16.71C199.656 16.5225 199.807 16.2902 199.91 16.0132L202.07 16.2561C201.934 16.8271 201.674 17.3257 201.29 17.7519C200.911 18.1737 200.425 18.5019 199.833 18.7362C199.241 18.9664 198.563 19.0814 197.8 19.0814ZM211.883 11.6666L209.774 11.8968C209.714 11.6837 209.61 11.4834 209.461 11.2959C209.316 11.1084 209.12 10.9571 208.873 10.8421C208.626 10.727 208.323 10.6695 207.965 10.6695C207.484 10.6695 207.079 10.7739 206.751 10.9827C206.427 11.1915 206.267 11.4621 206.271 11.7945C206.267 12.08 206.371 12.3122 206.584 12.4912C206.802 12.6702 207.16 12.8172 207.658 12.9323L209.333 13.2902C210.262 13.4905 210.952 13.808 211.404 14.2426C211.86 14.6773 212.09 15.2462 212.094 15.9493C212.09 16.5672 211.909 17.1127 211.551 17.5857C211.197 18.0544 210.705 18.4209 210.074 18.6851C209.444 18.9493 208.719 19.0814 207.901 19.0814C206.699 19.0814 205.732 18.83 204.999 18.3271C204.266 17.82 203.829 17.1148 203.689 16.2114L205.945 15.9941C206.047 16.4372 206.265 16.7718 206.597 16.9976C206.93 17.2235 207.362 17.3364 207.895 17.3364C208.445 17.3364 208.886 17.2235 209.218 16.9976C209.555 16.7718 209.723 16.4926 209.723 16.1602C209.723 15.879 209.614 15.6468 209.397 15.4635C209.184 15.2803 208.851 15.1396 208.4 15.0416L206.725 14.6901C205.783 14.4941 205.087 14.1638 204.635 13.6993C204.183 13.2306 203.959 12.6382 203.964 11.9223C203.959 11.3172 204.123 10.7931 204.456 10.3499C204.793 9.90243 205.259 9.55726 205.856 9.31436C206.457 9.06721 207.149 8.94363 207.933 8.94363C209.084 8.94363 209.989 9.18865 210.65 9.67871C211.315 10.1688 211.726 10.8314 211.883 11.6666Z" fill="#E85660"/>
</svg>
