<svg width="95" height="25" viewBox="0 0 95 25" fill="none" xmlns="http://www.w3.org/2000/svg">
<rect x="0.654297" y="0.859375" width="94.1162" height="24.0516" rx="5" fill="#9BE379"/>
<path d="M37.01 9.36719C36.9504 8.80895 36.699 8.37429 36.2558 8.06321C35.8169 7.75213 35.2458 7.59659 34.5427 7.59659C34.0484 7.59659 33.6244 7.67116 33.2707 7.82031C32.917 7.96946 32.6464 8.17187 32.4589 8.42756C32.2714 8.68324 32.1755 8.97514 32.1713 9.30327C32.1713 9.57599 32.233 9.8125 32.3566 10.0128C32.4845 10.2131 32.657 10.3835 32.8744 10.5241C33.0917 10.6605 33.3325 10.7756 33.5967 10.8693C33.8609 10.9631 34.1272 11.0419 34.3957 11.1058L35.623 11.4126C36.1173 11.5277 36.5924 11.6832 37.0484 11.8793C37.5086 12.0753 37.9198 12.3224 38.282 12.6207C38.6485 12.919 38.9383 13.2791 39.1514 13.701C39.3644 14.1229 39.471 14.6172 39.471 15.1839C39.471 15.951 39.2749 16.6264 38.8829 17.2102C38.4909 17.7898 37.9241 18.2436 37.1826 18.5717C36.4454 18.8956 35.5526 19.0575 34.5044 19.0575C33.4859 19.0575 32.6017 18.8999 31.8517 18.5845C31.1059 18.2692 30.5221 17.8089 30.1002 17.2038C29.6826 16.5987 29.4568 15.8615 29.4227 14.9922H31.7558C31.7899 15.4482 31.9305 15.8274 32.1776 16.13C32.4248 16.4325 32.7465 16.6584 33.1428 16.8075C33.5434 16.9567 33.9909 17.0312 34.4852 17.0312C35.0008 17.0312 35.4525 16.9545 35.8403 16.8011C36.2323 16.6435 36.5392 16.4261 36.7607 16.1491C36.9823 15.8679 37.0953 15.5398 37.0995 15.1648C37.0953 14.8239 36.9951 14.5426 36.7991 14.321C36.6031 14.0952 36.3282 13.9077 35.9745 13.7585C35.6251 13.6051 35.216 13.4687 34.7472 13.3494L33.2579 12.9659C32.1798 12.6889 31.3275 12.2692 30.7011 11.7067C30.0789 11.1399 29.7678 10.3878 29.7678 9.45028C29.7678 8.67898 29.9767 8.00355 30.3943 7.42401C30.8161 6.84446 31.3893 6.39489 32.1137 6.07528C32.8382 5.75142 33.6585 5.58949 34.5747 5.58949C35.5036 5.58949 36.3176 5.75142 37.0164 6.07528C37.7195 6.39489 38.2714 6.8402 38.672 7.41122C39.0725 7.97798 39.2792 8.62997 39.292 9.36719H37.01ZM44.3082 19.0575C43.686 19.0575 43.1256 18.9467 42.627 18.7251C42.1327 18.4993 41.7407 18.1669 41.4509 17.728C41.1654 17.2891 41.0226 16.7479 41.0226 16.1044C41.0226 15.5504 41.1249 15.0923 41.3295 14.7301C41.534 14.3679 41.8131 14.0781 42.1668 13.8608C42.5205 13.6435 42.9189 13.4794 43.3621 13.3686C43.8096 13.2536 44.2719 13.1705 44.7492 13.1193C45.3245 13.0597 45.7911 13.0064 46.1491 12.9595C46.507 12.9084 46.767 12.8317 46.9289 12.7294C47.0951 12.6229 47.1782 12.4588 47.1782 12.2372V12.1989C47.1782 11.7173 47.0354 11.3445 46.7499 11.0803C46.4644 10.8161 46.0532 10.6839 45.5162 10.6839C44.9495 10.6839 44.4999 10.8075 44.1675 11.0547C43.8394 11.3018 43.6178 11.5937 43.5028 11.9304L41.3422 11.6236C41.5127 11.027 41.7939 10.5284 42.186 10.1278C42.578 9.72301 43.0574 9.42045 43.6242 9.22017C44.191 9.01562 44.8174 8.91335 45.5035 8.91335C45.9765 8.91335 46.4474 8.96875 46.9161 9.07955C47.3849 9.19034 47.8131 9.37358 48.2009 9.62926C48.5887 9.88068 48.8998 10.2237 49.1341 10.6584C49.3728 11.093 49.4921 11.6364 49.4921 12.2884V18.8594H47.2677V17.5107H47.191C47.0503 17.7834 46.8522 18.0391 46.5965 18.2777C46.3451 18.5121 46.0276 18.7017 45.6441 18.8466C45.2648 18.9872 44.8195 19.0575 44.3082 19.0575ZM44.909 17.3572C45.3735 17.3572 45.7762 17.2656 46.1171 17.0824C46.458 16.8949 46.7201 16.6477 46.9033 16.3409C47.0908 16.0341 47.1846 15.6996 47.1846 15.3374V14.1804C47.1121 14.2401 46.9885 14.2955 46.8138 14.3466C46.6434 14.3977 46.4516 14.4425 46.2385 14.4808C46.0255 14.5192 45.8145 14.5533 45.6057 14.5831C45.3969 14.6129 45.2158 14.6385 45.0624 14.6598C44.7172 14.7067 44.4083 14.7834 44.1356 14.8899C43.8628 14.9964 43.6476 15.1456 43.49 15.3374C43.3323 15.5249 43.2535 15.7678 43.2535 16.0661C43.2535 16.4922 43.409 16.8139 43.7201 17.0312C44.0312 17.2486 44.4275 17.3572 44.909 17.3572ZM58.0766 14.7301V9.04119H60.3905V18.8594H58.1469V17.1143H58.0447C57.8231 17.6641 57.4587 18.1136 56.9516 18.4631C56.4488 18.8125 55.8287 18.9872 55.0915 18.9872C54.4481 18.9872 53.8792 18.8445 53.3849 18.5589C52.8948 18.2692 52.5113 17.8494 52.2343 17.2997C51.9573 16.7457 51.8188 16.0767 51.8188 15.2926V9.04119H54.1327V14.9347C54.1327 15.5568 54.3032 16.0511 54.6441 16.4176C54.985 16.7841 55.4324 16.9673 55.9864 16.9673C56.3273 16.9673 56.6576 16.8842 56.9772 16.718C57.2968 16.5518 57.5589 16.3047 57.7634 15.9766C57.9722 15.6442 58.0766 15.2287 58.0766 14.7301ZM71.5399 9.04119L68.0434 18.8594H65.4866L61.9901 9.04119H64.4575L66.7139 16.3345H66.8161L69.0789 9.04119H71.5399ZM77.1537 19.0511C76.1693 19.0511 75.3192 18.8466 74.6032 18.4375C73.8916 18.0241 73.344 17.4403 72.9605 16.6861C72.577 15.9276 72.3852 15.0348 72.3852 14.0078C72.3852 12.9979 72.577 12.1115 72.9605 11.3487C73.3483 10.5817 73.8895 9.98508 74.5841 9.55895C75.2787 9.12855 76.0947 8.91335 77.0322 8.91335C77.6373 8.91335 78.2084 9.01136 78.7453 9.20739C79.2865 9.39915 79.7638 9.69744 80.1771 10.1023C80.5947 10.5071 80.9229 11.0227 81.1615 11.6491C81.4001 12.2713 81.5194 13.0128 81.5194 13.8736V14.5831H73.4719V13.0234H79.3014C79.2971 12.5803 79.2013 12.1861 79.0138 11.8409C78.8263 11.4915 78.5642 11.2166 78.2275 11.0163C77.8952 10.8161 77.5074 10.7159 77.0642 10.7159C76.5912 10.7159 76.1757 10.831 75.8177 11.0611C75.4598 11.2869 75.1807 11.5852 74.9804 11.956C74.7844 12.3224 74.6842 12.7251 74.68 13.1641V14.5256C74.68 15.0966 74.7844 15.5866 74.9932 15.9957C75.202 16.4006 75.4939 16.7116 75.8689 16.929C76.2439 17.142 76.6828 17.2486 77.1856 17.2486C77.5223 17.2486 77.827 17.2017 78.0997 17.108C78.3724 17.0099 78.6089 16.8672 78.8092 16.6797C79.0095 16.4922 79.1608 16.2599 79.2631 15.983L81.4236 16.2259C81.2872 16.7969 81.0273 17.2955 80.6437 17.7216C80.2645 18.1435 79.7787 18.4716 79.1863 18.706C78.594 18.9361 77.9165 19.0511 77.1537 19.0511ZM83.477 18.8594V9.04119H85.7206V10.6776H85.8229C86.0019 10.1108 86.3087 9.67401 86.7433 9.36719C87.1823 9.05611 87.683 8.90057 88.2455 8.90057C88.3733 8.90057 88.5161 8.90696 88.6737 8.91974C88.8357 8.92827 88.9699 8.94318 89.0764 8.96449V11.093C88.9784 11.0589 88.8229 11.0291 88.6098 11.0036C88.401 10.9737 88.1986 10.9588 88.0026 10.9588C87.5807 10.9588 87.2014 11.0504 86.8648 11.2337C86.5324 11.4126 86.2703 11.6619 86.0786 11.9815C85.8868 12.3011 85.7909 12.6697 85.7909 13.0874V18.8594H83.477Z" fill="#061F31"/>
<path fill-rule="evenodd" clip-rule="evenodd" d="M20.8447 10.789H16.8999V6.84431C16.8999 5.75458 16.0168 4.87195 14.9276 4.87195C13.8383 4.87195 12.9552 5.75458 12.9552 6.84431V10.789H9.01045C7.92121 10.789 7.03809 11.6717 7.03809 12.7614C7.03809 13.8511 7.92121 14.7338 9.01045 14.7338H12.9552V18.6785C12.9552 19.7682 13.8383 20.6509 14.9276 20.6509C16.0168 20.6509 16.8999 19.7682 16.8999 18.6785V14.7338H20.8447C21.9339 14.7338 22.817 13.8511 22.817 12.7614C22.817 11.6717 21.9339 10.789 20.8447 10.789Z" fill="#061F31"/>
</svg>
