<svg width="95" height="25" viewBox="0 0 95 25" fill="none" xmlns="http://www.w3.org/2000/svg">
<rect x="0.890625" y="0.859375" width="94.1162" height="24.0516" rx="5" fill="#061F31"/>
<path d="M37.2464 9.36719C37.1867 8.80895 36.9353 8.37429 36.4921 8.06321C36.0532 7.75213 35.4822 7.59659 34.779 7.59659C34.2847 7.59659 33.8607 7.67116 33.507 7.82031C33.1533 7.96946 32.8827 8.17187 32.6952 8.42756C32.5077 8.68324 32.4118 8.97514 32.4076 9.30327C32.4076 9.57599 32.4694 9.8125 32.593 10.0128C32.7208 10.2131 32.8934 10.3835 33.1107 10.5241C33.328 10.6605 33.5688 10.7756 33.833 10.8693C34.0972 10.9631 34.3635 11.0419 34.632 11.1058L35.8593 11.4126C36.3536 11.5277 36.8287 11.6832 37.2847 11.8793C37.7449 12.0753 38.1562 12.3224 38.5184 12.6207C38.8849 12.919 39.1746 13.2791 39.3877 13.701C39.6008 14.1229 39.7073 14.6172 39.7073 15.1839C39.7073 15.951 39.5113 16.6264 39.1192 17.2102C38.7272 17.7898 38.1604 18.2436 37.4189 18.5717C36.6817 18.8956 35.789 19.0575 34.7407 19.0575C33.7222 19.0575 32.838 18.8999 32.088 18.5845C31.3422 18.2692 30.7584 17.8089 30.3366 17.2038C29.9189 16.5987 29.6931 15.8615 29.659 14.9922H31.9921C32.0262 15.4482 32.1668 15.8274 32.414 16.13C32.6611 16.4325 32.9829 16.6584 33.3792 16.8075C33.7797 16.9567 34.2272 17.0312 34.7215 17.0312C35.2371 17.0312 35.6888 16.9545 36.0766 16.8011C36.4687 16.6435 36.7755 16.4261 36.9971 16.1491C37.2187 15.8679 37.3316 15.5398 37.3358 15.1648C37.3316 14.8239 37.2314 14.5426 37.0354 14.321C36.8394 14.0952 36.5645 13.9077 36.2108 13.7585C35.8614 13.6051 35.4523 13.4687 34.9836 13.3494L33.4942 12.9659C32.4161 12.6889 31.5638 12.2692 30.9374 11.7067C30.3153 11.1399 30.0042 10.3878 30.0042 9.45028C30.0042 8.67898 30.213 8.00355 30.6306 7.42401C31.0525 6.84446 31.6256 6.39489 32.3501 6.07528C33.0745 5.75142 33.8948 5.58949 34.811 5.58949C35.74 5.58949 36.5539 5.75142 37.2528 6.07528C37.9559 6.39489 38.5077 6.8402 38.9083 7.41122C39.3089 7.97798 39.5155 8.62997 39.5283 9.36719H37.2464ZM44.5445 19.0575C43.9223 19.0575 43.3619 18.9467 42.8634 18.7251C42.3691 18.4993 41.977 18.1669 41.6872 17.728C41.4017 17.2891 41.259 16.7479 41.259 16.1044C41.259 15.5504 41.3612 15.0923 41.5658 14.7301C41.7703 14.3679 42.0494 14.0781 42.4031 13.8608C42.7568 13.6435 43.1553 13.4794 43.5985 13.3686C44.0459 13.2536 44.5083 13.1705 44.9855 13.1193C45.5608 13.0597 46.0274 13.0064 46.3854 12.9595C46.7433 12.9084 47.0033 12.8317 47.1652 12.7294C47.3314 12.6229 47.4145 12.4588 47.4145 12.2372V12.1989C47.4145 11.7173 47.2718 11.3445 46.9862 11.0803C46.7007 10.8161 46.2895 10.6839 45.7526 10.6839C45.1858 10.6839 44.7362 10.8075 44.4039 11.0547C44.0757 11.3018 43.8541 11.5937 43.7391 11.9304L41.5786 11.6236C41.749 11.027 42.0303 10.5284 42.4223 10.1278C42.8144 9.72301 43.2938 9.42045 43.8605 9.22017C44.4273 9.01562 45.0537 8.91335 45.7398 8.91335C46.2128 8.91335 46.6837 8.96875 47.1524 9.07955C47.6212 9.19034 48.0494 9.37358 48.4372 9.62926C48.825 9.88068 49.1361 10.2237 49.3705 10.6584C49.6091 11.093 49.7284 11.6364 49.7284 12.2884V18.8594H47.504V17.5107H47.4273C47.2867 17.7834 47.0885 18.0391 46.8328 18.2777C46.5814 18.5121 46.2639 18.7017 45.8804 18.8466C45.5012 18.9872 45.0558 19.0575 44.5445 19.0575ZM45.1453 17.3572C45.6098 17.3572 46.0125 17.2656 46.3534 17.0824C46.6943 16.8949 46.9564 16.6477 47.1396 16.3409C47.3271 16.0341 47.4209 15.6996 47.4209 15.3374V14.1804C47.3485 14.2401 47.2249 14.2955 47.0502 14.3466C46.8797 14.3977 46.6879 14.4425 46.4749 14.4808C46.2618 14.5192 46.0509 14.5533 45.8421 14.5831C45.6333 14.6129 45.4521 14.6385 45.2987 14.6598C44.9536 14.7067 44.6446 14.7834 44.3719 14.8899C44.0992 14.9964 43.884 15.1456 43.7263 15.3374C43.5686 15.5249 43.4898 15.7678 43.4898 16.0661C43.4898 16.4922 43.6453 16.8139 43.9564 17.0312C44.2675 17.2486 44.6638 17.3572 45.1453 17.3572ZM58.3129 14.7301V9.04119H60.6269V18.8594H58.3833V17.1143H58.281C58.0594 17.6641 57.695 18.1136 57.1879 18.4631C56.6851 18.8125 56.0651 18.9872 55.3279 18.9872C54.6844 18.9872 54.1155 18.8445 53.6212 18.5589C53.1311 18.2692 52.7476 17.8494 52.4706 17.2997C52.1936 16.7457 52.0551 16.0767 52.0551 15.2926V9.04119H54.3691V14.9347C54.3691 15.5568 54.5395 16.0511 54.8804 16.4176C55.2213 16.7841 55.6688 16.9673 56.2227 16.9673C56.5637 16.9673 56.8939 16.8842 57.2135 16.718C57.5331 16.5518 57.7952 16.3047 57.9997 15.9766C58.2085 15.6442 58.3129 15.2287 58.3129 14.7301ZM71.7762 9.04119L68.2797 18.8594H65.7229L62.2265 9.04119H64.6938L66.9502 16.3345H67.0525L69.3153 9.04119H71.7762ZM77.39 19.0511C76.4056 19.0511 75.5555 18.8466 74.8396 18.4375C74.1279 18.0241 73.5803 17.4403 73.1968 16.6861C72.8133 15.9276 72.6215 15.0348 72.6215 14.0078C72.6215 12.9979 72.8133 12.1115 73.1968 11.3487C73.5846 10.5817 74.1258 9.98508 74.8204 9.55895C75.515 9.12855 76.3311 8.91335 77.2686 8.91335C77.8737 8.91335 78.4447 9.01136 78.9816 9.20739C79.5228 9.39915 80.0001 9.69744 80.4134 10.1023C80.8311 10.5071 81.1592 11.0227 81.3978 11.6491C81.6365 12.2713 81.7558 13.0128 81.7558 13.8736V14.5831H73.7082V13.0234H79.5377C79.5335 12.5803 79.4376 12.1861 79.2501 11.8409C79.0626 11.4915 78.8005 11.2166 78.4639 11.0163C78.1315 10.8161 77.7437 10.7159 77.3005 10.7159C76.8275 10.7159 76.412 10.831 76.0541 11.0611C75.6961 11.2869 75.417 11.5852 75.2167 11.956C75.0207 12.3224 74.9205 12.7251 74.9163 13.1641V14.5256C74.9163 15.0966 75.0207 15.5866 75.2295 15.9957C75.4383 16.4006 75.7302 16.7116 76.1052 16.929C76.4802 17.142 76.9191 17.2486 77.422 17.2486C77.7586 17.2486 78.0633 17.2017 78.336 17.108C78.6088 17.0099 78.8453 16.8672 79.0455 16.6797C79.2458 16.4922 79.3971 16.2599 79.4994 15.983L81.6599 16.2259C81.5235 16.7969 81.2636 17.2955 80.8801 17.7216C80.5008 18.1435 80.015 18.4716 79.4227 18.706C78.8303 18.9361 78.1528 19.0511 77.39 19.0511ZM83.7133 18.8594V9.04119H85.9569V10.6776H86.0592C86.2382 10.1108 86.545 9.67401 86.9797 9.36719C87.4186 9.05611 87.9193 8.90057 88.4818 8.90057C88.6096 8.90057 88.7524 8.90696 88.9101 8.91974C89.072 8.92827 89.2062 8.94318 89.3128 8.96449V11.093C89.2148 11.0589 89.0592 11.0291 88.8461 11.0036C88.6373 10.9737 88.4349 10.9588 88.2389 10.9588C87.817 10.9588 87.4378 11.0504 87.1011 11.2337C86.7687 11.4126 86.5067 11.6619 86.3149 11.9815C86.1231 12.3011 86.0273 12.6697 86.0273 13.0874V18.8594H83.7133Z" fill="#9BE379"/>
<path fill-rule="evenodd" clip-rule="evenodd" d="M21.081 10.789H17.1362V6.84431C17.1362 5.75458 16.2531 4.87195 15.1639 4.87195C14.0746 4.87195 13.1915 5.75458 13.1915 6.84431V10.789H9.24678C8.15754 10.789 7.27441 11.6717 7.27441 12.7614C7.27441 13.8511 8.15754 14.7338 9.24678 14.7338H13.1915V18.6785C13.1915 19.7682 14.0746 20.6509 15.1639 20.6509C16.2531 20.6509 17.1362 19.7682 17.1362 18.6785V14.7338H21.081C22.1702 14.7338 23.0533 13.8511 23.0533 12.7614C23.0533 11.6717 22.1702 10.789 21.081 10.789Z" fill="#9BE379"/>
</svg>
