<svg width="88" height="27" viewBox="0 0 88 27" fill="none" xmlns="http://www.w3.org/2000/svg">
<path d="M32.8919 8.75745C32.8322 8.19921 32.5808 7.76455 32.1376 7.45347C31.6987 7.14239 31.1277 6.98685 30.4245 6.98685C29.9302 6.98685 29.5062 7.06142 29.1525 7.21057C28.7988 7.35972 28.5282 7.56213 28.3407 7.81781C28.1532 8.0735 28.0574 8.3654 28.0531 8.69353C28.0531 8.96625 28.1149 9.20276 28.2385 9.40304C28.3663 9.60333 28.5389 9.77378 28.7562 9.91441C28.9735 10.0508 29.2143 10.1658 29.4785 10.2596C29.7427 10.3533 30.0091 10.4322 30.2775 10.4961L31.5048 10.8029C31.9991 10.918 32.4743 11.0735 32.9302 11.2695C33.3904 11.4655 33.8017 11.7127 34.1639 12.011C34.5304 12.3093 34.8201 12.6694 35.0332 13.0913C35.2463 13.5131 35.3528 14.0074 35.3528 14.5742C35.3528 15.3413 35.1568 16.0167 34.7647 16.6005C34.3727 17.18 33.8059 17.6339 33.0645 17.962C32.3272 18.2859 31.4345 18.4478 30.3862 18.4478C29.3677 18.4478 28.4835 18.2901 27.7335 17.9748C26.9877 17.6594 26.4039 17.1992 25.9821 16.5941C25.5645 15.989 25.3386 15.2518 25.3045 14.3824H27.6376C27.6717 14.8384 27.8123 15.2177 28.0595 15.5202C28.3066 15.8228 28.6284 16.0486 29.0247 16.1978C29.4252 16.3469 29.8727 16.4215 30.367 16.4215C30.8826 16.4215 31.3343 16.3448 31.7221 16.1914C32.1142 16.0337 32.421 15.8164 32.6426 15.5394C32.8642 15.2582 32.9771 14.93 32.9814 14.555C32.9771 14.2141 32.877 13.9329 32.6809 13.7113C32.4849 13.4854 32.21 13.2979 31.8564 13.1488C31.5069 12.9954 31.0978 12.859 30.6291 12.7397L29.1397 12.3562C28.0616 12.0792 27.2093 11.6594 26.5829 11.0969C25.9608 10.5302 25.6497 9.77804 25.6497 8.84054C25.6497 8.06924 25.8585 7.39381 26.2761 6.81426C26.698 6.23472 27.2711 5.78514 27.9956 5.46554C28.72 5.14168 29.5403 4.97975 30.4565 4.97975C31.3855 4.97975 32.1994 5.14168 32.8983 5.46554C33.6014 5.78514 34.1532 6.23046 34.5538 6.80148C34.9544 7.36824 35.161 8.02023 35.1738 8.75745H32.8919ZM40.19 18.4478C39.5678 18.4478 39.0075 18.337 38.5089 18.1154C38.0146 17.8895 37.6225 17.5572 37.3327 17.1182C37.0472 16.6793 36.9045 16.1381 36.9045 15.4947C36.9045 14.9407 37.0067 14.4826 37.2113 14.1204C37.4158 13.7582 37.695 13.4684 38.0487 13.2511C38.4023 13.0337 38.8008 12.8697 39.244 12.7589C39.6914 12.6438 40.1538 12.5607 40.631 12.5096C41.2063 12.4499 41.6729 12.3967 42.0309 12.3498C42.3888 12.2986 42.6488 12.2219 42.8107 12.1197C42.9769 12.0131 43.06 11.8491 43.06 11.6275V11.5891C43.06 11.1076 42.9173 10.7347 42.6317 10.4705C42.3462 10.2063 41.935 10.0742 41.3981 10.0742C40.8313 10.0742 40.3817 10.1978 40.0494 10.4449C39.7212 10.6921 39.4996 10.984 39.3846 11.3207L37.2241 11.0138C37.3945 10.4172 37.6758 9.91867 38.0678 9.5181C38.4599 9.11327 38.9393 8.81071 39.506 8.61043C40.0728 8.40588 40.6992 8.30361 41.3853 8.30361C41.8583 8.30361 42.3292 8.35901 42.7979 8.4698C43.2667 8.5806 43.695 8.76384 44.0827 9.01952C44.4705 9.27094 44.7816 9.61398 45.016 10.0486C45.2546 10.4833 45.3739 11.0266 45.3739 11.6786V18.2496H43.1495V16.9009H43.0728C42.9322 17.1736 42.734 17.4293 42.4783 17.668C42.2269 17.9023 41.9094 18.092 41.5259 18.2368C41.1467 18.3775 40.7013 18.4478 40.19 18.4478ZM40.7908 16.7475C41.2553 16.7475 41.658 16.6559 41.9989 16.4726C42.3398 16.2851 42.6019 16.038 42.7852 15.7312C42.9727 15.4243 43.0664 15.0898 43.0664 14.7276V13.5707C42.994 13.6303 42.8704 13.6857 42.6957 13.7368C42.5252 13.788 42.3335 13.8327 42.1204 13.8711C41.9073 13.9094 41.6964 13.9435 41.4876 13.9734C41.2788 14.0032 41.0977 14.0288 40.9442 14.0501C40.5991 14.0969 40.2901 14.1736 40.0174 14.2802C39.7447 14.3867 39.5295 14.5359 39.3718 14.7276C39.2141 14.9151 39.1353 15.158 39.1353 15.4563C39.1353 15.8824 39.2908 16.2042 39.6019 16.4215C39.913 16.6388 40.3093 16.7475 40.7908 16.7475ZM53.9585 14.1204V8.43145H56.2724V18.2496H54.0288V16.5046H53.9265C53.7049 17.0543 53.3406 17.5039 52.8335 17.8533C52.3306 18.2028 51.7106 18.3775 50.9734 18.3775C50.3299 18.3775 49.761 18.2347 49.2667 17.9492C48.7766 17.6594 48.3931 17.2397 48.1161 16.69C47.8391 16.136 47.7006 15.467 47.7006 14.6829V8.43145H50.0146V14.3249C50.0146 14.9471 50.185 15.4414 50.5259 15.8079C50.8668 16.1743 51.3143 16.3576 51.8683 16.3576C52.2092 16.3576 52.5394 16.2745 52.859 16.1083C53.1786 15.9421 53.4407 15.6949 53.6452 15.3668C53.854 15.0344 53.9585 14.619 53.9585 14.1204ZM67.4217 8.43145L63.9252 18.2496H61.3684L57.872 8.43145H60.3393L62.5957 15.7248H62.698L64.9608 8.43145H67.4217ZM73.0355 18.4414C72.0511 18.4414 71.201 18.2368 70.4851 17.8278C69.7734 17.4144 69.2259 16.8306 68.8423 16.0763C68.4588 15.3178 68.267 14.4251 68.267 13.3981C68.267 12.3881 68.4588 11.5018 68.8423 10.739C69.2301 9.97193 69.7713 9.37534 70.4659 8.94921C71.1605 8.51881 71.9766 8.30361 72.9141 8.30361C73.5192 8.30361 74.0902 8.40162 74.6271 8.59764C75.1683 8.78941 75.6456 9.0877 76.0589 9.49253C76.4766 9.89736 76.8047 10.413 77.0433 11.0394C77.282 11.6616 77.4013 12.403 77.4013 13.2638V13.9734H69.3537V12.4137H75.1832C75.179 11.9705 75.0831 11.5763 74.8956 11.2312C74.7081 10.8817 74.446 10.6069 74.1094 10.4066C73.777 10.2063 73.3892 10.1062 72.946 10.1062C72.473 10.1062 72.0575 10.2212 71.6996 10.4513C71.3416 10.6772 71.0625 10.9755 70.8622 11.3462C70.6662 11.7127 70.5661 12.1154 70.5618 12.5543V13.9158C70.5618 14.4868 70.6662 14.9769 70.875 15.386C71.0838 15.7908 71.3757 16.1019 71.7507 16.3192C72.1257 16.5323 72.5646 16.6388 73.0675 16.6388C73.4041 16.6388 73.7088 16.592 73.9815 16.4982C74.2543 16.4002 74.4908 16.2574 74.6911 16.0699C74.8913 15.8824 75.0426 15.6502 75.1449 15.3732L77.3054 15.6161C77.169 16.1871 76.9091 16.6857 76.5256 17.1118C76.1463 17.5337 75.6605 17.8618 75.0682 18.0962C74.4759 18.3263 73.7983 18.4414 73.0355 18.4414ZM79.3588 18.2496V8.43145H81.6025V10.0678H81.7047C81.8837 9.50105 82.1905 9.06426 82.6252 8.75745C83.0641 8.44637 83.5648 8.29083 84.1273 8.29083C84.2551 8.29083 84.3979 8.29722 84.5556 8.31C84.7175 8.31853 84.8517 8.33344 84.9583 8.35475V10.4833C84.8603 10.4492 84.7047 10.4194 84.4917 10.3938C84.2828 10.364 84.0804 10.3491 83.8844 10.3491C83.4625 10.3491 83.0833 10.4407 82.7466 10.6239C82.4142 10.8029 82.1522 11.0522 81.9604 11.3718C81.7686 11.6914 81.6728 12.06 81.6728 12.4776V18.2496H79.3588Z" fill="#9BE379"/>
<path fill-rule="evenodd" clip-rule="evenodd" d="M19.3888 8.55874H14.439V3.60894C14.439 2.24155 13.3308 1.13403 11.9641 1.13403C10.5973 1.13403 9.48916 2.24155 9.48916 3.60894V8.55874H4.53936C3.17259 8.55874 2.06445 9.66626 2.06445 11.0336C2.06445 12.401 3.17259 13.5086 4.53936 13.5086H9.48916V18.4584C9.48916 19.8257 10.5973 20.9333 11.9641 20.9333C13.3308 20.9333 14.439 19.8257 14.439 18.4584V13.5086H19.3888C20.7555 13.5086 21.8637 12.401 21.8637 11.0336C21.8637 9.66626 20.7555 8.55874 19.3888 8.55874Z" fill="#9BE379"/>
</svg>
