<svg width="95" height="25" viewBox="0 0 95 25" fill="none" xmlns="http://www.w3.org/2000/svg">
<rect x="0.417969" y="0.859375" width="94.1162" height="24.0516" rx="5" fill="#061F31"/>
<path d="M36.7737 9.36719C36.714 8.80895 36.4626 8.37429 36.0194 8.06321C35.5805 7.75213 35.0095 7.59659 34.3064 7.59659C33.8121 7.59659 33.3881 7.67116 33.0344 7.82031C32.6807 7.96946 32.4101 8.17187 32.2226 8.42756C32.0351 8.68324 31.9392 8.97514 31.9349 9.30327C31.9349 9.57599 31.9967 9.8125 32.1203 10.0128C32.2481 10.2131 32.4207 10.3835 32.6381 10.5241C32.8554 10.6605 33.0961 10.7756 33.3604 10.8693C33.6246 10.9631 33.8909 11.0419 34.1594 11.1058L35.3866 11.4126C35.8809 11.5277 36.3561 11.6832 36.8121 11.8793C37.2723 12.0753 37.6835 12.3224 38.0457 12.6207C38.4122 12.919 38.702 13.2791 38.915 13.701C39.1281 14.1229 39.2346 14.6172 39.2346 15.1839C39.2346 15.951 39.0386 16.6264 38.6466 17.2102C38.2545 17.7898 37.6878 18.2436 36.9463 18.5717C36.2091 18.8956 35.3163 19.0575 34.268 19.0575C33.2496 19.0575 32.3653 18.8999 31.6153 18.5845C30.8696 18.2692 30.2858 17.8089 29.8639 17.2038C29.4463 16.5987 29.2204 15.8615 29.1863 14.9922H31.5194C31.5535 15.4482 31.6942 15.8274 31.9413 16.13C32.1885 16.4325 32.5102 16.6584 32.9065 16.8075C33.3071 16.9567 33.7545 17.0312 34.2488 17.0312C34.7645 17.0312 35.2162 16.9545 35.604 16.8011C35.996 16.6435 36.3028 16.4261 36.5244 16.1491C36.746 15.8679 36.8589 15.5398 36.8632 15.1648C36.8589 14.8239 36.7588 14.5426 36.5628 14.321C36.3667 14.0952 36.0919 13.9077 35.7382 13.7585C35.3888 13.6051 34.9797 13.4687 34.5109 13.3494L33.0216 12.9659C31.9434 12.6889 31.0912 12.2692 30.4648 11.7067C29.8426 11.1399 29.5315 10.3878 29.5315 9.45028C29.5315 8.67898 29.7403 8.00355 30.1579 7.42401C30.5798 6.84446 31.153 6.39489 31.8774 6.07528C32.6018 5.75142 33.4221 5.58949 34.3383 5.58949C35.2673 5.58949 36.0812 5.75142 36.7801 6.07528C37.4832 6.39489 38.0351 6.8402 38.4356 7.41122C38.8362 7.97798 39.0429 8.62997 39.0557 9.36719H36.7737ZM44.0718 19.0575C43.4497 19.0575 42.8893 18.9467 42.3907 18.7251C41.8964 18.4993 41.5044 18.1669 41.2146 17.728C40.9291 17.2891 40.7863 16.7479 40.7863 16.1044C40.7863 15.5504 40.8886 15.0923 41.0931 14.7301C41.2977 14.3679 41.5768 14.0781 41.9305 13.8608C42.2842 13.6435 42.6826 13.4794 43.1258 13.3686C43.5732 13.2536 44.0356 13.1705 44.5129 13.1193C45.0882 13.0597 45.5548 13.0064 45.9127 12.9595C46.2707 12.9084 46.5306 12.8317 46.6926 12.7294C46.8588 12.6229 46.9419 12.4588 46.9419 12.2372V12.1989C46.9419 11.7173 46.7991 11.3445 46.5136 11.0803C46.2281 10.8161 45.8169 10.6839 45.2799 10.6839C44.7132 10.6839 44.2636 10.8075 43.9312 11.0547C43.6031 11.3018 43.3815 11.5937 43.2664 11.9304L41.1059 11.6236C41.2764 11.027 41.5576 10.5284 41.9497 10.1278C42.3417 9.72301 42.8211 9.42045 43.3879 9.22017C43.9546 9.01562 44.5811 8.91335 45.2671 8.91335C45.7401 8.91335 46.211 8.96875 46.6798 9.07955C47.1485 9.19034 47.5768 9.37358 47.9646 9.62926C48.3524 9.88068 48.6634 10.2237 48.8978 10.6584C49.1365 11.093 49.2558 11.6364 49.2558 12.2884V18.8594H47.0313V17.5107H46.9546C46.814 17.7834 46.6159 18.0391 46.3602 18.2777C46.1088 18.5121 45.7913 18.7017 45.4078 18.8466C45.0285 18.9872 44.5832 19.0575 44.0718 19.0575ZM44.6727 17.3572C45.1372 17.3572 45.5399 17.2656 45.8808 17.0824C46.2217 16.8949 46.4838 16.6477 46.667 16.3409C46.8545 16.0341 46.9482 15.6996 46.9482 15.3374V14.1804C46.8758 14.2401 46.7522 14.2955 46.5775 14.3466C46.407 14.3977 46.2153 14.4425 46.0022 14.4808C45.7892 14.5192 45.5782 14.5533 45.3694 14.5831C45.1606 14.6129 44.9795 14.6385 44.8261 14.6598C44.4809 14.7067 44.172 14.7834 43.8992 14.8899C43.6265 14.9964 43.4113 15.1456 43.2536 15.3374C43.096 15.5249 43.0171 15.7678 43.0171 16.0661C43.0171 16.4922 43.1727 16.8139 43.4838 17.0312C43.7948 17.2486 44.1911 17.3572 44.6727 17.3572ZM57.8403 14.7301V9.04119H60.1542V18.8594H57.9106V17.1143H57.8083C57.5867 17.6641 57.2224 18.1136 56.7153 18.4631C56.2124 18.8125 55.5924 18.9872 54.8552 18.9872C54.2117 18.9872 53.6428 18.8445 53.1485 18.5589C52.6585 18.2692 52.2749 17.8494 51.998 17.2997C51.721 16.7457 51.5825 16.0767 51.5825 15.2926V9.04119H53.8964V14.9347C53.8964 15.5568 54.0669 16.0511 54.4078 16.4176C54.7487 16.7841 55.1961 16.9673 55.7501 16.9673C56.091 16.9673 56.4213 16.8842 56.7409 16.718C57.0605 16.5518 57.3225 16.3047 57.5271 15.9766C57.7359 15.6442 57.8403 15.2287 57.8403 14.7301ZM71.3035 9.04119L67.8071 18.8594H65.2503L61.7538 9.04119H64.2211L66.4775 16.3345H66.5798L68.8426 9.04119H71.3035ZM76.9173 19.0511C75.933 19.0511 75.0828 18.8466 74.3669 18.4375C73.6553 18.0241 73.1077 17.4403 72.7242 16.6861C72.3406 15.9276 72.1489 15.0348 72.1489 14.0078C72.1489 12.9979 72.3406 12.1115 72.7242 11.3487C73.1119 10.5817 73.6531 9.98508 74.3477 9.55895C75.0423 9.12855 75.8584 8.91335 76.7959 8.91335C77.401 8.91335 77.972 9.01136 78.509 9.20739C79.0502 9.39915 79.5274 9.69744 79.9408 10.1023C80.3584 10.5071 80.6865 11.0227 80.9252 11.6491C81.1638 12.2713 81.2831 13.0128 81.2831 13.8736V14.5831H73.2355V13.0234H79.0651C79.0608 12.5803 78.9649 12.1861 78.7774 11.8409C78.5899 11.4915 78.3279 11.2166 77.9912 11.0163C77.6588 10.8161 77.271 10.7159 76.8279 10.7159C76.3548 10.7159 75.9394 10.831 75.5814 11.0611C75.2235 11.2869 74.9443 11.5852 74.7441 11.956C74.548 12.3224 74.4479 12.7251 74.4436 13.1641V14.5256C74.4436 15.0966 74.548 15.5866 74.7568 15.9957C74.9656 16.4006 75.2575 16.7116 75.6325 16.929C76.0075 17.142 76.4465 17.2486 76.9493 17.2486C77.286 17.2486 77.5906 17.2017 77.8634 17.108C78.1361 17.0099 78.3726 16.8672 78.5729 16.6797C78.7732 16.4922 78.9244 16.2599 79.0267 15.983L81.1872 16.2259C81.0509 16.7969 80.7909 17.2955 80.4074 17.7216C80.0281 18.1435 79.5423 18.4716 78.95 18.706C78.3577 18.9361 77.6801 19.0511 76.9173 19.0511ZM83.2407 18.8594V9.04119H85.4843V10.6776H85.5866C85.7655 10.1108 86.0724 9.67401 86.507 9.36719C86.9459 9.05611 87.4466 8.90057 88.0091 8.90057C88.137 8.90057 88.2797 8.90696 88.4374 8.91974C88.5993 8.92827 88.7336 8.94318 88.8401 8.96449V11.093C88.7421 11.0589 88.5866 11.0291 88.3735 11.0036C88.1647 10.9737 87.9623 10.9588 87.7662 10.9588C87.3444 10.9588 86.9651 11.0504 86.6285 11.2337C86.2961 11.4126 86.034 11.6619 85.8422 11.9815C85.6505 12.3011 85.5546 12.6697 85.5546 13.0874V18.8594H83.2407Z" fill="#61646B"/>
<path fill-rule="evenodd" clip-rule="evenodd" d="M20.6083 10.789H16.6636V6.84431C16.6636 5.75458 15.7805 4.87195 14.6912 4.87195C13.602 4.87195 12.7189 5.75458 12.7189 6.84431V10.789H8.77412C7.68488 10.789 6.80176 11.6717 6.80176 12.7614C6.80176 13.8511 7.68488 14.7338 8.77412 14.7338H12.7189V18.6785C12.7189 19.7682 13.602 20.6509 14.6912 20.6509C15.7805 20.6509 16.6636 19.7682 16.6636 18.6785V14.7338H20.6083C21.6976 14.7338 22.5807 13.8511 22.5807 12.7614C22.5807 11.6717 21.6976 10.789 20.6083 10.789Z" fill="#61646B"/>
</svg>
