<svg width="66" height="27" viewBox="0 0 66 27" fill="none" xmlns="http://www.w3.org/2000/svg">
<path d="M24.6602 8.07072V6.0828H35.1048V8.07072H31.0587V19.1737H28.7064V8.07072H24.6602ZM41.9379 15.0444V9.35552H44.2519V19.1737H42.0083V17.4287H41.906C41.6844 17.9784 41.32 18.428 40.8129 18.7774C40.3101 19.1268 39.6901 19.3015 38.9529 19.3015C38.3094 19.3015 37.7405 19.1588 37.2462 18.8733C36.7561 18.5835 36.3726 18.1638 36.0956 17.614C35.8186 17.0601 35.6801 16.391 35.6801 15.6069V9.35552H37.9941V15.249C37.9941 15.8711 38.1645 16.3655 38.5054 16.7319C38.8463 17.0984 39.2938 17.2817 39.8477 17.2817C40.1887 17.2817 40.5189 17.1986 40.8385 17.0324C41.1581 16.8662 41.4202 16.619 41.6247 16.2909C41.8335 15.9585 41.9379 15.543 41.9379 15.0444ZM50.9779 19.3655C49.9935 19.3655 49.1434 19.1609 48.4275 18.7518C47.7158 18.3385 47.1682 17.7547 46.7847 17.0004C46.4012 16.2419 46.2094 15.3491 46.2094 14.3221C46.2094 13.3122 46.4012 12.4258 46.7847 11.6631C47.1725 10.896 47.7137 10.2994 48.4083 9.87328C49.1029 9.44288 49.9189 9.22768 50.8564 9.22768C51.4616 9.22768 52.0326 9.32569 52.5695 9.52172C53.1107 9.71348 53.588 10.0118 54.0013 10.4166C54.4189 10.8214 54.7471 11.3371 54.9857 11.9635C55.2243 12.5856 55.3437 13.3271 55.3437 14.1879V14.8974H47.2961V13.3378H53.1256C53.1214 12.8946 53.0255 12.5004 52.838 12.1552C52.6505 11.8058 52.3884 11.531 52.0518 11.3307C51.7194 11.1304 51.3316 11.0302 50.8884 11.0302C50.4154 11.0302 49.9999 11.1453 49.642 11.3754C49.284 11.6013 49.0049 11.8996 48.8046 12.2703C48.6086 12.6368 48.5084 13.0395 48.5042 13.4784V14.8399C48.5042 15.4109 48.6086 15.901 48.8174 16.3101C49.0262 16.7149 49.3181 17.026 49.6931 17.2433C50.0681 17.4564 50.507 17.5629 51.0099 17.5629C51.3465 17.5629 51.6512 17.516 51.9239 17.4223C52.1966 17.3243 52.4331 17.1815 52.6334 16.994C52.8337 16.8065 52.985 16.5743 53.0873 16.2973L55.2478 16.5402C55.1114 17.1112 54.8515 17.6098 54.468 18.0359C54.0887 18.4578 53.6029 18.7859 53.0106 19.0203C52.4182 19.2504 51.7407 19.3655 50.9779 19.3655ZM57.3012 19.1737V9.35552H59.5448V10.9919H59.6471C59.8261 10.4251 60.1329 9.98834 60.5676 9.68152C61.0065 9.37044 61.5072 9.2149 62.0697 9.2149C62.1975 9.2149 62.3403 9.22129 62.498 9.23407C62.6599 9.2426 62.7941 9.25751 62.9007 9.27882V11.4074C62.8026 11.3733 62.6471 11.3434 62.434 11.3179C62.2252 11.2881 62.0228 11.2731 61.8268 11.2731C61.4049 11.2731 61.0257 11.3648 60.689 11.548C60.3566 11.727 60.0945 11.9763 59.9028 12.2959C59.711 12.6155 59.6151 12.9841 59.6151 13.4017V19.1737H57.3012Z" fill="#E85660"/>
<path d="M17.7111 3.61746C16.0001 1.9099 13.7487 0.970337 11.3691 0.970337H11.3531C8.95959 0.974595 6.66559 1.92839 4.97465 3.62234C3.28371 5.3163 2.33401 7.61198 2.33401 10.0055V14.3784C2.33131 15.0738 2.53832 15.7539 2.92802 16.3299C3.31771 16.9058 3.87199 17.351 4.51851 17.6071L5.54843 18.0163C5.65598 18.059 5.7511 18.1279 5.82509 18.2169C5.89909 18.3058 5.94958 18.4119 5.97195 18.5254L6.40633 20.703C6.46998 21.0177 6.64033 21.3008 6.88862 21.5045C7.1369 21.7081 7.44788 21.8198 7.76899 21.8206H8.2416C8.33376 21.8206 8.42215 21.784 8.48732 21.7189C8.55249 21.6537 8.5891 21.5653 8.5891 21.4731V19.7552C8.5891 19.3812 8.87666 19.0601 9.25066 19.0415C9.34463 19.0369 9.43855 19.0515 9.52671 19.0844C9.61487 19.1172 9.69545 19.1676 9.76356 19.2325C9.83167 19.2974 9.8859 19.3755 9.92295 19.4619C9.96 19.5484 9.97911 19.6415 9.97912 19.7356V21.4731C9.97912 21.5653 10.0157 21.6537 10.0809 21.7189C10.1461 21.784 10.2345 21.8206 10.3266 21.8206C10.4188 21.8206 10.5072 21.784 10.5723 21.7189C10.6375 21.6537 10.6741 21.5653 10.6741 21.4731V19.7552C10.6741 19.3812 10.9617 19.0601 11.3357 19.0415C11.4297 19.0369 11.5236 19.0515 11.6117 19.0844C11.6999 19.1172 11.7805 19.1676 11.8486 19.2325C11.9167 19.2974 11.9709 19.3755 12.008 19.4619C12.045 19.5484 12.0641 19.6415 12.0641 19.7356V21.4731C12.0641 21.5653 12.1008 21.6537 12.1659 21.7189C12.2311 21.784 12.3195 21.8206 12.4117 21.8206C12.5038 21.8206 12.5922 21.784 12.6574 21.7189C12.7225 21.6537 12.7592 21.5653 12.7592 21.4731V19.7552C12.7592 19.3812 13.0467 19.0601 13.4207 19.0415C13.5147 19.0369 13.6086 19.0515 13.6968 19.0844C13.7849 19.1172 13.8655 19.1676 13.9336 19.2325C14.0017 19.2974 14.056 19.3755 14.093 19.4619C14.1301 19.5484 14.1492 19.6415 14.1492 19.7356V21.4731C14.1492 21.5653 14.1858 21.6537 14.251 21.7189C14.3161 21.784 14.4045 21.8206 14.4967 21.8206H14.9693C15.2904 21.8199 15.6015 21.7084 15.8498 21.5048C16.0982 21.3012 16.2686 21.0181 16.3324 20.7034L16.7668 18.5254C16.7894 18.4121 16.8399 18.3062 16.9138 18.2173C16.9877 18.1284 17.0826 18.0593 17.1898 18.0163L18.2198 17.6071C18.8663 17.351 19.4206 16.9058 19.8103 16.3299C20.2 15.7539 20.407 15.0738 20.4043 14.3784V10.078C20.4043 7.64547 19.4486 5.35151 17.7111 3.61746ZM7.70557 14.8653C7.21196 14.8977 6.72022 14.7787 6.29594 14.5244C5.87165 14.2701 5.53499 13.8924 5.33085 13.4419C5.1267 12.9913 5.06478 12.4892 5.15334 12.0025C5.2419 11.5158 5.47673 11.0677 5.82651 10.7179C6.1763 10.3681 6.62441 10.1333 7.11108 10.0448C7.59776 9.9562 8.09987 10.0181 8.55045 10.2223C9.00103 10.4264 9.37867 10.7631 9.63299 11.1874C9.88731 11.6116 10.0062 12.1034 9.97391 12.597C9.93533 13.1859 9.68396 13.7407 9.26664 14.1581C8.84931 14.5754 8.29449 14.8267 7.70557 14.8653ZM12.4551 17.5311C12.3356 17.6108 12.1948 17.6525 12.0511 17.6506H10.6872C10.5438 17.6523 10.4033 17.6107 10.2841 17.5311C10.1676 17.4522 10.0778 17.3397 10.0266 17.2086C9.97541 17.0776 9.96521 16.934 9.99736 16.797L10.6885 14.7294C10.8044 14.4362 10.9891 14.219 11.2823 14.1812C11.6411 14.1377 11.8904 14.3058 12.0472 14.712L12.7422 16.797C12.7743 16.9341 12.7641 17.0776 12.7128 17.2087C12.6615 17.3398 12.5717 17.4522 12.4551 17.5311ZM15.3515 14.8653C14.8579 14.8977 14.3662 14.7787 13.9419 14.5244C13.5176 14.2701 13.181 13.8924 12.9768 13.4419C12.7727 12.9913 12.7108 12.4892 12.7993 12.0025C12.8879 11.5158 13.1227 11.0677 13.4725 10.7179C13.8223 10.3681 14.2704 10.1333 14.7571 10.0448C15.2437 9.9562 15.7459 10.0181 16.1964 10.2223C16.647 10.4264 17.0246 10.7631 17.279 11.1874C17.5333 11.6116 17.6522 12.1034 17.6199 12.597C17.5813 13.1861 17.3298 13.741 16.9123 14.1583C16.4948 14.5757 15.9406 14.827 15.3515 14.8653Z" fill="#E85660"/>
</svg>
