<svg width="75" height="25" viewBox="0 0 75 25" fill="none" xmlns="http://www.w3.org/2000/svg">
<rect x="0.890625" y="0.173706" width="74.0635" height="24.0516" rx="5" fill="#061F31"/>
<path d="M29.5567 7.07072V5.0828H40.0013V7.07072H35.9552V18.1737H33.6029V7.07072H29.5567ZM46.8344 14.0444V8.35552H49.1483V18.1737H46.9047V16.4287H46.8025C46.5809 16.9784 46.2165 17.428 45.7094 17.7774C45.2066 18.1268 44.5866 18.3015 43.8493 18.3015C43.2059 18.3015 42.637 18.1588 42.1427 17.8733C41.6526 17.5835 41.2691 17.1638 40.9921 16.614C40.7151 16.0601 40.5766 15.391 40.5766 14.6069V8.35552H42.8905V14.249C42.8905 14.8711 43.061 15.3655 43.4019 15.7319C43.7428 16.0984 44.1903 16.2817 44.7442 16.2817C45.0851 16.2817 45.4154 16.1986 45.735 16.0324C46.0546 15.8662 46.3167 15.619 46.5212 15.2909C46.73 14.9585 46.8344 14.543 46.8344 14.0444ZM55.8744 18.3655C54.89 18.3655 54.0399 18.1609 53.324 17.7518C52.6123 17.3385 52.0647 16.7547 51.6812 16.0004C51.2977 15.2419 51.1059 14.3491 51.1059 13.3221C51.1059 12.3122 51.2977 11.4258 51.6812 10.6631C52.069 9.89601 52.6102 9.29942 53.3048 8.87328C53.9994 8.44288 54.8154 8.22768 55.7529 8.22768C56.358 8.22768 56.9291 8.32569 57.466 8.52172C58.0072 8.71348 58.4845 9.01177 58.8978 9.4166C59.3154 9.82143 59.6436 10.3371 59.8822 10.9635C60.1208 11.5856 60.2401 12.3271 60.2401 13.1879V13.8974H52.1926V12.3378H58.0221C58.0178 11.8946 57.922 11.5004 57.7345 11.1552C57.547 10.8058 57.2849 10.531 56.9482 10.3307C56.6159 10.1304 56.2281 10.0302 55.7849 10.0302C55.3119 10.0302 54.8964 10.1453 54.5384 10.3754C54.1805 10.6013 53.9014 10.8996 53.7011 11.2703C53.5051 11.6368 53.4049 12.0395 53.4007 12.4784V13.8399C53.4007 14.4109 53.5051 14.901 53.7139 15.3101C53.9227 15.7149 54.2146 16.026 54.5896 16.2433C54.9646 16.4564 55.4035 16.5629 55.9063 16.5629C56.243 16.5629 56.5477 16.516 56.8204 16.4223C57.0931 16.3243 57.3296 16.1815 57.5299 15.994C57.7302 15.8065 57.8815 15.5743 57.9838 15.2973L60.1443 15.5402C60.0079 16.1112 59.748 16.6098 59.3644 17.0359C58.9852 17.4578 58.4994 17.7859 57.907 18.0203C57.3147 18.2504 56.6372 18.3655 55.8744 18.3655ZM62.1977 18.1737V8.35552H64.4413V9.99189H64.5436C64.7226 9.42513 65.0294 8.98834 65.464 8.68152C65.903 8.37044 66.4037 8.2149 66.9662 8.2149C67.094 8.2149 67.2368 8.22129 67.3944 8.23407C67.5564 8.2426 67.6906 8.25751 67.7971 8.27882V10.4074C67.6991 10.3733 67.5436 10.3434 67.3305 10.3179C67.1217 10.2881 66.9193 10.2731 66.7233 10.2731C66.3014 10.2731 65.9221 10.3648 65.5855 10.548C65.2531 10.727 64.991 10.9763 64.7993 11.2959C64.6075 11.6155 64.5116 11.9841 64.5116 12.4017V18.1737H62.1977Z" fill="#E85660"/>
<path d="M20.3643 5.37748C18.903 3.91914 16.9802 3.1167 14.9479 3.1167H14.9342C12.8901 3.12034 10.9309 3.93492 9.48672 5.38165C8.04256 6.82838 7.23146 8.78901 7.23147 10.8332V14.5679C7.22916 15.1618 7.40596 15.7426 7.73878 16.2345C8.0716 16.7265 8.54498 17.1066 9.09715 17.3254L9.97675 17.6749C10.0686 17.7113 10.1498 17.7702 10.213 17.8462C10.2762 17.9221 10.3194 18.0127 10.3385 18.1097L10.7094 19.9694C10.7638 20.2382 10.9093 20.48 11.1213 20.6539C11.3334 20.8279 11.599 20.9232 11.8732 20.924H12.2769C12.3556 20.924 12.4311 20.8927 12.4867 20.837C12.5424 20.7814 12.5736 20.7059 12.5736 20.6272V19.1599C12.5736 18.8405 12.8192 18.5663 13.1387 18.5504C13.2189 18.5465 13.2991 18.559 13.3744 18.587C13.4497 18.6151 13.5185 18.6581 13.5767 18.7136C13.6349 18.769 13.6812 18.8357 13.7128 18.9095C13.7445 18.9834 13.7608 19.0629 13.7608 19.1432V20.6272C13.7608 20.7059 13.7921 20.7814 13.8477 20.837C13.9034 20.8927 13.9789 20.924 14.0576 20.924C14.1363 20.924 14.2118 20.8927 14.2674 20.837C14.3231 20.7814 14.3544 20.7059 14.3544 20.6272V19.1599C14.3544 18.8405 14.6 18.5663 14.9194 18.5504C14.9996 18.5465 15.0798 18.559 15.1551 18.587C15.2304 18.6151 15.2993 18.6581 15.3574 18.7136C15.4156 18.769 15.4619 18.8357 15.4935 18.9095C15.5252 18.9834 15.5415 19.0629 15.5415 19.1432V20.6272C15.5415 20.7059 15.5728 20.7814 15.6284 20.837C15.6841 20.8927 15.7596 20.924 15.8383 20.924C15.917 20.924 15.9925 20.8927 16.0482 20.837C16.1038 20.7814 16.1351 20.7059 16.1351 20.6272V19.1599C16.1351 18.8405 16.3807 18.5663 16.7001 18.5504C16.7804 18.5465 16.8606 18.559 16.9359 18.587C17.0112 18.6151 17.08 18.6581 17.1381 18.7136C17.1963 18.769 17.2426 18.8357 17.2743 18.9095C17.3059 18.9834 17.3222 19.0629 17.3222 19.1432V20.6272C17.3222 20.7059 17.3535 20.7814 17.4092 20.837C17.4648 20.8927 17.5403 20.924 17.619 20.924H18.0227C18.2969 20.9233 18.5626 20.8281 18.7747 20.6542C18.9868 20.4803 19.1324 20.2386 19.1868 19.9698L19.5578 18.1097C19.5771 18.0129 19.6203 17.9224 19.6834 17.8465C19.7465 17.7706 19.8275 17.7116 19.9191 17.6749L20.7987 17.3254C21.3509 17.1066 21.8243 16.7265 22.1571 16.2345C22.4899 15.7426 22.6667 15.1618 22.6644 14.5679V10.8951C22.6644 8.81762 21.8483 6.85845 20.3643 5.37748ZM11.8191 14.9837C11.3975 15.0114 10.9775 14.9098 10.6152 14.6926C10.2528 14.4754 9.96527 14.1529 9.79092 13.768C9.61657 13.3832 9.56369 12.9544 9.63932 12.5387C9.71496 12.1231 9.91551 11.7404 10.2142 11.4417C10.513 11.1429 10.8957 10.9424 11.3113 10.8667C11.727 10.7911 12.1558 10.844 12.5406 11.0183C12.9255 11.1927 13.248 11.4802 13.4652 11.8426C13.6824 12.2049 13.784 12.6249 13.7563 13.0465C13.7234 13.5494 13.5087 14.0233 13.1523 14.3797C12.7959 14.7361 12.322 14.9508 11.8191 14.9837ZM15.8754 17.2605C15.7733 17.3286 15.6531 17.3641 15.5304 17.3625H14.3655C14.2431 17.364 14.1231 17.3284 14.0212 17.2605C13.9217 17.193 13.8451 17.097 13.8013 16.9851C13.7576 16.8731 13.7489 16.7505 13.7764 16.6335L14.3666 14.8676C14.4657 14.6172 14.6233 14.4317 14.8737 14.3994C15.1802 14.3623 15.3931 14.5059 15.527 14.8528L16.1206 16.6335C16.148 16.7506 16.1393 16.8732 16.0955 16.9851C16.0517 17.0971 15.975 17.1931 15.8754 17.2605ZM18.3491 14.9837C17.9276 15.0114 17.5076 14.9098 17.1452 14.6926C16.7829 14.4754 16.4953 14.1529 16.321 13.768C16.1466 13.3832 16.0938 12.9544 16.1694 12.5387C16.245 12.1231 16.4456 11.7404 16.7443 11.4417C17.043 11.1429 17.4258 10.9424 17.8414 10.8667C18.2571 10.7911 18.6859 10.844 19.0707 11.0183C19.4555 11.1927 19.778 11.4802 19.9952 11.8426C20.2125 12.2049 20.314 12.6249 20.2864 13.0465C20.2534 13.5496 20.0387 14.0235 19.6821 14.3799C19.3255 14.7364 18.8522 14.951 18.3491 14.9837Z" fill="#E85660"/>
</svg>
