<svg width="75" height="25" viewBox="0 0 75 25" fill="none" xmlns="http://www.w3.org/2000/svg">
<rect x="0.601562" y="0.173706" width="74.0635" height="24.0516" rx="5" fill="#E85660"/>
<path d="M29.2677 7.07072V5.0828H39.7123V7.07072H35.6661V18.1737H33.3138V7.07072H29.2677ZM46.5454 14.0444V8.35552H48.8593V18.1737H46.6157V16.4287H46.5134C46.2918 16.9784 45.9275 17.428 45.4204 17.7774C44.9175 18.1268 44.2975 18.3015 43.5603 18.3015C42.9168 18.3015 42.3479 18.1588 41.8536 17.8733C41.3635 17.5835 40.98 17.1638 40.703 16.614C40.426 16.0601 40.2876 15.391 40.2876 14.6069V8.35552H42.6015V14.249C42.6015 14.8711 42.7719 15.3655 43.1128 15.7319C43.4537 16.0984 43.9012 16.2817 44.4552 16.2817C44.7961 16.2817 45.1263 16.1986 45.4459 16.0324C45.7655 15.8662 46.0276 15.619 46.2322 15.2909C46.441 14.9585 46.5454 14.543 46.5454 14.0444ZM55.5853 18.3655C54.6009 18.3655 53.7508 18.1609 53.0349 17.7518C52.3232 17.3385 51.7757 16.7547 51.3921 16.0004C51.0086 15.2419 50.8169 14.3491 50.8169 13.3221C50.8169 12.3122 51.0086 11.4258 51.3921 10.6631C51.7799 9.89601 52.3211 9.29942 53.0157 8.87328C53.7103 8.44288 54.5264 8.22768 55.4639 8.22768C56.069 8.22768 56.64 8.32569 57.1769 8.52172C57.7181 8.71348 58.1954 9.01177 58.6088 9.4166C59.0264 9.82143 59.3545 10.3371 59.5931 10.9635C59.8318 11.5856 59.9511 12.3271 59.9511 13.1879V13.8974H51.9035V12.3378H57.733C57.7288 11.8946 57.6329 11.5004 57.4454 11.1552C57.2579 10.8058 56.9958 10.531 56.6592 10.3307C56.3268 10.1304 55.939 10.0302 55.4958 10.0302C55.0228 10.0302 54.6073 10.1453 54.2494 10.3754C53.8914 10.6013 53.6123 10.8996 53.412 11.2703C53.216 11.6368 53.1159 12.0395 53.1116 12.4784V13.8399C53.1116 14.4109 53.216 14.901 53.4248 15.3101C53.6336 15.7149 53.9255 16.026 54.3005 16.2433C54.6755 16.4564 55.1144 16.5629 55.6173 16.5629C55.9539 16.5629 56.2586 16.516 56.5313 16.4223C56.8041 16.3243 57.0406 16.1815 57.2409 15.994C57.4411 15.8065 57.5924 15.5743 57.6947 15.2973L59.8552 15.5402C59.7188 16.1112 59.4589 16.6098 59.0754 17.0359C58.6961 17.4578 58.2103 17.7859 57.618 18.0203C57.0257 18.2504 56.3481 18.3655 55.5853 18.3655ZM61.9086 18.1737V8.35552H64.1523V9.99189H64.2545C64.4335 9.42513 64.7403 8.98834 65.175 8.68152C65.6139 8.37044 66.1146 8.2149 66.6771 8.2149C66.805 8.2149 66.9477 8.22129 67.1054 8.23407C67.2673 8.2426 67.4015 8.25751 67.5081 8.27882V10.4074C67.4101 10.3733 67.2545 10.3434 67.0415 10.3179C66.8327 10.2881 66.6302 10.2731 66.4342 10.2731C66.0123 10.2731 65.6331 10.3648 65.2964 10.548C64.964 10.727 64.702 10.9763 64.5102 11.2959C64.3184 11.6155 64.2226 11.9841 64.2226 12.4017V18.1737H61.9086Z" fill="#061F31"/>
<path d="M20.0753 5.37748C18.6139 3.91914 16.6911 3.1167 14.6589 3.1167H14.6452C12.601 3.12034 10.6418 3.93492 9.19765 5.38165C7.7535 6.82838 6.9424 8.78901 6.94241 10.8332V14.5679C6.9401 15.1618 7.1169 15.7426 7.44972 16.2345C7.78254 16.7265 8.25592 17.1066 8.80809 17.3254L9.68769 17.6749C9.77954 17.7113 9.86078 17.7702 9.92397 17.8462C9.98717 17.9221 10.0303 18.0127 10.0494 18.1097L10.4204 19.9694C10.4747 20.2382 10.6202 20.48 10.8323 20.6539C11.0443 20.8279 11.3099 20.9232 11.5842 20.924H11.9878C12.0665 20.924 12.142 20.8927 12.1977 20.837C12.2533 20.7814 12.2846 20.7059 12.2846 20.6272V19.1599C12.2846 18.8405 12.5302 18.5663 12.8496 18.5504C12.9298 18.5465 13.0101 18.559 13.0853 18.587C13.1606 18.6151 13.2295 18.6581 13.2876 18.7136C13.3458 18.769 13.3921 18.8357 13.4238 18.9095C13.4554 18.9834 13.4717 19.0629 13.4717 19.1432V20.6272C13.4717 20.7059 13.503 20.7814 13.5587 20.837C13.6143 20.8927 13.6898 20.924 13.7685 20.924C13.8472 20.924 13.9227 20.8927 13.9784 20.837C14.034 20.7814 14.0653 20.7059 14.0653 20.6272V19.1599C14.0653 18.8405 14.3109 18.5663 14.6303 18.5504C14.7106 18.5465 14.7908 18.559 14.8661 18.587C14.9414 18.6151 15.0102 18.6581 15.0684 18.7136C15.1265 18.769 15.1728 18.8357 15.2045 18.9095C15.2361 18.9834 15.2524 19.0629 15.2525 19.1432V20.6272C15.2525 20.7059 15.2837 20.7814 15.3394 20.837C15.395 20.8927 15.4705 20.924 15.5492 20.924C15.628 20.924 15.7034 20.8927 15.7591 20.837C15.8148 20.7814 15.846 20.7059 15.846 20.6272V19.1599C15.846 18.8405 16.0916 18.5663 16.411 18.5504C16.4913 18.5465 16.5715 18.559 16.6468 18.587C16.7221 18.6151 16.7909 18.6581 16.8491 18.7136C16.9073 18.769 16.9536 18.8357 16.9852 18.9095C17.0169 18.9834 17.0332 19.0629 17.0332 19.1432V20.6272C17.0332 20.7059 17.0644 20.7814 17.1201 20.837C17.1758 20.8927 17.2513 20.924 17.33 20.924H17.7336C18.0079 20.9233 18.2735 20.8281 18.4856 20.6542C18.6977 20.4803 18.8433 20.2386 18.8977 19.9698L19.2687 18.1097C19.2881 18.0129 19.3312 17.9224 19.3943 17.8465C19.4574 17.7706 19.5384 17.7116 19.6301 17.6749L20.5097 17.3254C21.0618 17.1066 21.5352 16.7265 21.868 16.2345C22.2009 15.7426 22.3777 15.1618 22.3754 14.5679V10.8951C22.3754 8.81762 21.5592 6.85845 20.0753 5.37748ZM11.53 14.9837C11.1084 15.0114 10.6885 14.9098 10.3261 14.6926C9.96374 14.4754 9.67621 14.1529 9.50186 13.768C9.32751 13.3832 9.27463 12.9544 9.35026 12.5387C9.42589 12.1231 9.62645 11.7404 9.92519 11.4417C10.2239 11.1429 10.6066 10.9424 11.0223 10.8667C11.4379 10.7911 11.8668 10.844 12.2516 11.0183C12.6364 11.1927 12.9589 11.4802 13.1761 11.8426C13.3933 12.2049 13.4949 12.6249 13.4673 13.0465C13.4343 13.5494 13.2196 14.0233 12.8632 14.3797C12.5068 14.7361 12.033 14.9508 11.53 14.9837ZM15.5863 17.2605C15.4843 17.3286 15.364 17.3641 15.2413 17.3625H14.0764C13.954 17.364 13.834 17.3284 13.7322 17.2605C13.6327 17.193 13.556 17.097 13.5123 16.9851C13.4686 16.8731 13.4599 16.7505 13.4873 16.6335L14.0775 14.8676C14.1766 14.6172 14.3343 14.4317 14.5847 14.3994C14.8911 14.3623 15.1041 14.5059 15.238 14.8528L15.8316 16.6335C15.859 16.7506 15.8502 16.8732 15.8064 16.9851C15.7626 17.0971 15.6859 17.1931 15.5863 17.2605ZM18.0601 14.9837C17.6385 15.0114 17.2185 14.9098 16.8562 14.6926C16.4938 14.4754 16.2063 14.1529 16.0319 13.768C15.8576 13.3832 15.8047 12.9544 15.8803 12.5387C15.956 12.1231 16.1565 11.7404 16.4553 11.4417C16.754 11.1429 17.1367 10.9424 17.5523 10.8667C17.968 10.7911 18.3968 10.844 18.7816 11.0183C19.1665 11.1927 19.489 11.4802 19.7062 11.8426C19.9234 12.2049 20.025 12.6249 19.9973 13.0465C19.9644 13.5496 19.7496 14.0235 19.393 14.3799C19.0364 14.7364 18.5632 14.951 18.0601 14.9837Z" fill="#061F31"/>
</svg>
