<svg width="75" height="25" viewBox="0 0 75 25" fill="none" xmlns="http://www.w3.org/2000/svg">
<rect x="0.3125" y="0.173706" width="74.0635" height="24.0516" rx="5" fill="#061F31"/>
<path d="M28.9786 7.07072V5.0828H39.4232V7.07072H35.377V18.1737H33.0248V7.07072H28.9786ZM46.2563 14.0444V8.35552H48.5702V18.1737H46.3266V16.4287H46.2243C46.0028 16.9784 45.6384 17.428 45.1313 17.7774C44.6285 18.1268 44.0084 18.3015 43.2712 18.3015C42.6278 18.3015 42.0589 18.1588 41.5645 17.8733C41.0745 17.5835 40.691 17.1638 40.414 16.614C40.137 16.0601 39.9985 15.391 39.9985 14.6069V8.35552H42.3124V14.249C42.3124 14.8711 42.4829 15.3655 42.8238 15.7319C43.1647 16.0984 43.6121 16.2817 44.1661 16.2817C44.507 16.2817 44.8373 16.1986 45.1569 16.0324C45.4765 15.8662 45.7385 15.619 45.9431 15.2909C46.1519 14.9585 46.2563 14.543 46.2563 14.0444ZM55.2963 18.3655C54.3119 18.3655 53.4617 18.1609 52.7458 17.7518C52.0342 17.3385 51.4866 16.7547 51.1031 16.0004C50.7195 15.2419 50.5278 14.3491 50.5278 13.3221C50.5278 12.3122 50.7195 11.4258 51.1031 10.6631C51.4909 9.89601 52.032 9.29942 52.7267 8.87328C53.4213 8.44288 54.2373 8.22768 55.1748 8.22768C55.7799 8.22768 56.3509 8.32569 56.8879 8.52172C57.4291 8.71348 57.9063 9.01177 58.3197 9.4166C58.7373 9.82143 59.0654 10.3371 59.3041 10.9635C59.5427 11.5856 59.662 12.3271 59.662 13.1879V13.8974H51.6144V12.3378H57.444C57.4397 11.8946 57.3438 11.5004 57.1563 11.1552C56.9688 10.8058 56.7068 10.531 56.3701 10.3307C56.0377 10.1304 55.6499 10.0302 55.2068 10.0302C54.7338 10.0302 54.3183 10.1453 53.9603 10.3754C53.6024 10.6013 53.3232 10.8996 53.123 11.2703C52.9269 11.6368 52.8268 12.0395 52.8225 12.4784V13.8399C52.8225 14.4109 52.9269 14.901 53.1357 15.3101C53.3445 15.7149 53.6365 16.026 54.0115 16.2433C54.3865 16.4564 54.8254 16.5629 55.3282 16.5629C55.6649 16.5629 55.9695 16.516 56.2423 16.4223C56.515 16.3243 56.7515 16.1815 56.9518 15.994C57.1521 15.8065 57.3034 15.5743 57.4056 15.2973L59.5661 15.5402C59.4298 16.1112 59.1698 16.6098 58.7863 17.0359C58.407 17.4578 57.9213 17.7859 57.3289 18.0203C56.7366 18.2504 56.059 18.3655 55.2963 18.3655ZM61.6196 18.1737V8.35552H63.8632V9.99189H63.9655C64.1444 9.42513 64.4513 8.98834 64.8859 8.68152C65.3248 8.37044 65.8256 8.2149 66.3881 8.2149C66.5159 8.2149 66.6586 8.22129 66.8163 8.23407C66.9782 8.2426 67.1125 8.25751 67.219 8.27882V10.4074C67.121 10.3733 66.9655 10.3434 66.7524 10.3179C66.5436 10.2881 66.3412 10.2731 66.1452 10.2731C65.7233 10.2731 65.344 10.3648 65.0074 10.548C64.675 10.727 64.4129 10.9763 64.2211 11.2959C64.0294 11.6155 63.9335 11.9841 63.9335 12.4017V18.1737H61.6196Z" fill="#61646B"/>
<path d="M19.7862 5.37748C18.3249 3.91914 16.4021 3.1167 14.3698 3.1167H14.3561C12.3119 3.12034 10.3527 3.93492 8.90859 5.38165C7.46444 6.82838 6.65334 8.78901 6.65334 10.8332V14.5679C6.65104 15.1618 6.82783 15.7426 7.16065 16.2345C7.49347 16.7265 7.96686 17.1066 8.51902 17.3254L9.39863 17.6749C9.49048 17.7113 9.57172 17.7702 9.63491 17.8462C9.6981 17.9221 9.74123 18.0127 9.76034 18.1097L10.1313 19.9694C10.1857 20.2382 10.3312 20.48 10.5432 20.6539C10.7553 20.8279 11.0209 20.9232 11.2951 20.924H11.6987C11.7774 20.924 11.8529 20.8927 11.9086 20.837C11.9642 20.7814 11.9955 20.7059 11.9955 20.6272V19.1599C11.9955 18.8405 12.2411 18.5663 12.5605 18.5504C12.6408 18.5465 12.721 18.559 12.7963 18.587C12.8716 18.6151 12.9404 18.6581 12.9986 18.7136C13.0567 18.769 13.103 18.8357 13.1347 18.9095C13.1663 18.9834 13.1827 19.0629 13.1827 19.1432V20.6272C13.1827 20.7059 13.2139 20.7814 13.2696 20.837C13.3253 20.8927 13.4007 20.924 13.4795 20.924C13.5582 20.924 13.6337 20.8927 13.6893 20.837C13.745 20.7814 13.7762 20.7059 13.7762 20.6272V19.1599C13.7762 18.8405 14.0218 18.5663 14.3413 18.5504C14.4215 18.5465 14.5017 18.559 14.577 18.587C14.6523 18.6151 14.7211 18.6581 14.7793 18.7136C14.8375 18.769 14.8838 18.8357 14.9154 18.9095C14.9471 18.9834 14.9634 19.0629 14.9634 19.1432V20.6272C14.9634 20.7059 14.9947 20.7814 15.0503 20.837C15.106 20.8927 15.1815 20.924 15.2602 20.924C15.3389 20.924 15.4144 20.8927 15.47 20.837C15.5257 20.7814 15.557 20.7059 15.557 20.6272V19.1599C15.557 18.8405 15.8026 18.5663 16.122 18.5504C16.2022 18.5465 16.2824 18.559 16.3577 18.587C16.433 18.6151 16.5019 18.6581 16.56 18.7136C16.6182 18.769 16.6645 18.8357 16.6961 18.9095C16.7278 18.9834 16.7441 19.0629 16.7441 19.1432V20.6272C16.7441 20.7059 16.7754 20.7814 16.831 20.837C16.8867 20.8927 16.9622 20.924 17.0409 20.924H17.4445C17.7188 20.9233 17.9844 20.8281 18.1965 20.6542C18.4087 20.4803 18.5542 20.2386 18.6087 19.9698L18.9797 18.1097C18.999 18.0129 19.0422 17.9224 19.1053 17.8465C19.1683 17.7706 19.2494 17.7116 19.341 17.6749L20.2206 17.3254C20.7728 17.1066 21.2462 16.7265 21.579 16.2345C21.9118 15.7426 22.0886 15.1618 22.0863 14.5679V10.8951C22.0863 8.81762 21.2701 6.85845 19.7862 5.37748ZM11.2409 14.9837C10.8194 15.0114 10.3994 14.9098 10.037 14.6926C9.67467 14.4754 9.38715 14.1529 9.2128 13.768C9.03845 13.3832 8.98556 12.9544 9.0612 12.5387C9.13683 12.1231 9.33739 11.7404 9.63612 11.4417C9.93486 11.1429 10.3176 10.9424 10.7332 10.8667C11.1489 10.7911 11.5777 10.844 11.9625 11.0183C12.3473 11.1927 12.6698 11.4802 12.8871 11.8426C13.1043 12.2049 13.2058 12.6249 13.1782 13.0465C13.1453 13.5494 12.9306 14.0233 12.5742 14.3797C12.2178 14.7361 11.7439 14.9508 11.2409 14.9837ZM15.2973 17.2605C15.1952 17.3286 15.0749 17.3641 14.9523 17.3625H13.7874C13.665 17.364 13.545 17.3284 13.4431 17.2605C13.3436 17.193 13.2669 17.097 13.2232 16.9851C13.1795 16.8731 13.1708 16.7505 13.1982 16.6335L13.7885 14.8676C13.8875 14.6172 14.0452 14.4317 14.2956 14.3994C14.6021 14.3623 14.815 14.5059 14.9489 14.8528L15.5425 16.6335C15.5699 16.7506 15.5612 16.8732 15.5174 16.9851C15.4736 17.0971 15.3968 17.1931 15.2973 17.2605ZM17.771 14.9837C17.3494 15.0114 16.9295 14.9098 16.5671 14.6926C16.2047 14.4754 15.9172 14.1529 15.7429 13.768C15.5685 13.3832 15.5156 12.9544 15.5913 12.5387C15.6669 12.1231 15.8675 11.7404 16.1662 11.4417C16.4649 11.1429 16.8476 10.9424 17.2633 10.8667C17.6789 10.7911 18.1078 10.844 18.4926 11.0183C18.8774 11.1927 19.1999 11.4802 19.4171 11.8426C19.6343 12.2049 19.7359 12.6249 19.7083 13.0465C19.6753 13.5496 19.4605 14.0235 19.104 14.3799C18.7474 14.7364 18.2741 14.951 17.771 14.9837Z" fill="#61646B"/>
</svg>
