<svg width="81" height="25" viewBox="0 0 81 25" fill="none" xmlns="http://www.w3.org/2000/svg">
<rect x="0.268555" y="0.325684" width="80.7305" height="24.0516" rx="5" fill="#6CD2B2"/>
<path d="M31.2614 5.23477L34.6683 15.5388H34.8026L38.2031 5.23477H40.8111L36.196 18.3257H33.2685L28.6598 5.23477H31.2614ZM45.661 18.5174C44.7022 18.5174 43.8713 18.3065 43.1681 17.8846C42.465 17.4628 41.9196 16.8726 41.5318 16.114C41.1483 15.3555 40.9565 14.4691 40.9565 13.4549C40.9565 12.4407 41.1483 11.5522 41.5318 10.7895C41.9196 10.0267 42.465 9.43435 43.1681 9.01247C43.8713 8.5906 44.7022 8.37966 45.661 8.37966C46.6199 8.37966 47.4508 8.5906 48.1539 9.01247C48.8571 9.43435 49.4004 10.0267 49.7839 10.7895C50.1717 11.5522 50.3656 12.4407 50.3656 13.4549C50.3656 14.4691 50.1717 15.3555 49.7839 16.114C49.4004 16.8726 48.8571 17.4628 48.1539 17.8846C47.4508 18.3065 46.6199 18.5174 45.661 18.5174ZM45.6738 16.6638C46.1937 16.6638 46.6284 16.521 46.9778 16.2355C47.3272 15.9457 47.5872 15.5579 47.7576 15.0721C47.9324 14.5863 48.0197 14.0451 48.0197 13.4486C48.0197 12.8477 47.9324 12.3044 47.7576 11.8186C47.5872 11.3285 47.3272 10.9386 46.9778 10.6488C46.6284 10.3591 46.1937 10.2142 45.6738 10.2142C45.1412 10.2142 44.698 10.3591 44.3443 10.6488C43.9949 10.9386 43.7328 11.3285 43.5581 11.8186C43.3876 12.3044 43.3024 12.8477 43.3024 13.4486C43.3024 14.0451 43.3876 14.5863 43.5581 15.0721C43.7328 15.5579 43.9949 15.9457 44.3443 16.2355C44.698 16.521 45.1412 16.6638 45.6738 16.6638ZM54.6435 5.23477V18.3257H52.3295V5.23477H54.6435ZM61.3695 18.5174C60.3851 18.5174 59.535 18.3129 58.8191 17.9038C58.1074 17.4905 57.5598 16.9066 57.1763 16.1524C56.7928 15.3939 56.601 14.5011 56.601 13.4741C56.601 12.4642 56.7928 11.5778 57.1763 10.815C57.5641 10.048 58.1053 9.45139 58.7999 9.02526C59.4945 8.59486 60.3105 8.37966 61.248 8.37966C61.8532 8.37966 62.4242 8.47767 62.9611 8.67369C63.5023 8.86546 63.9796 9.16375 64.3929 9.56858C64.8105 9.97341 65.1387 10.489 65.3773 11.1155C65.6159 11.7376 65.7353 12.4791 65.7353 13.3399V14.0494H57.6877V12.4897H63.5172C63.513 12.0466 63.4171 11.6524 63.2296 11.3072C63.0421 10.9578 62.78 10.6829 62.4434 10.4826C62.111 10.2824 61.7232 10.1822 61.28 10.1822C60.807 10.1822 60.3915 10.2973 60.0336 10.5274C59.6756 10.7532 59.3965 11.0515 59.1962 11.4223C59.0002 11.7888 58.9 12.1915 58.8958 12.6304V13.9919C58.8958 14.5629 59.0002 15.053 59.209 15.462C59.4178 15.8669 59.7097 16.178 60.0847 16.3953C60.4597 16.6084 60.8986 16.7149 61.4015 16.7149C61.7381 16.7149 62.0428 16.668 62.3155 16.5743C62.5882 16.4763 62.8248 16.3335 63.025 16.146C63.2253 15.9585 63.3766 15.7263 63.4789 15.4493L65.6394 15.6922C65.503 16.2632 65.2431 16.7618 64.8596 17.1879C64.4803 17.6098 63.9945 17.9379 63.4022 18.1723C62.8098 18.4024 62.1323 18.5174 61.3695 18.5174ZM67.6928 18.3257V8.5075H69.9364V10.1439H70.0387C70.2177 9.5771 70.5245 9.14031 70.9592 8.8335C71.3981 8.52242 71.8988 8.36688 72.4613 8.36688C72.5891 8.36688 72.7319 8.37327 72.8896 8.38605C73.0515 8.39458 73.1857 8.40949 73.2923 8.4308V10.5593C73.1942 10.5253 73.0387 10.4954 72.8256 10.4699C72.6168 10.44 72.4144 10.4251 72.2184 10.4251C71.7965 10.4251 71.4173 10.5167 71.0806 10.7C70.7482 10.879 70.4862 11.1282 70.2944 11.4478C70.1026 11.7674 70.0067 12.1361 70.0067 12.5537V18.3257H67.6928Z" fill="#061F31"/>
<path d="M9.71006 4.43312C9.71006 4.43312 9.73208 7.75362 9.43251 9.30784C9.04059 11.341 7.87605 12.4726 7.7168 14.5473C7.89871 17.1522 7.82 17.5233 12.0085 19.4708C13.5433 20.1846 18.482 21.0637 18.482 21.0637C19.1602 21.1906 20.2315 21.8019 20.5472 21.1248C20.8629 20.4477 20.3007 19.5848 19.5971 19.2542L16.7104 18.2048C16.0561 17.8482 15.5348 17.1252 15.9244 16.2337C16.5438 14.9348 17.1397 13.9936 18.2955 13.2427L22.7365 10.4305C23.0388 10.1829 23.3294 9.65549 22.9982 9.20498C22.6671 8.75447 21.9937 8.88058 21.6747 9.1148L16.9827 11.6815C16.5428 11.8234 15.9721 11.6243 16.3017 11.0387L20.2802 5.81721C20.5518 5.44108 20.5755 4.84321 20.0973 4.62021C19.4696 4.32754 18.9725 4.38744 18.808 4.77196L14.7397 9.85721C14.5006 10.0852 14.1312 9.8683 14.1475 9.56181L16.351 3.79942C16.4136 3.61197 16.3262 3.19381 15.8506 3.05026C15.3751 2.90672 14.8959 3.26485 14.8569 3.47078L12.4161 9.04184C12.0981 9.4882 11.6809 9.38055 11.5089 8.96823L11.1846 4.56951C11.2028 4.2217 10.7666 3.94445 10.4439 3.93489C10.1175 3.98131 9.85311 4.12368 9.70975 4.43112L9.71006 4.43312Z" fill="#061F31"/>
</svg>
