<svg width="70" height="27" viewBox="0 0 70 27" fill="none" xmlns="http://www.w3.org/2000/svg">
<path d="M26.528 5.23477L29.9349 15.5388H30.0692L33.4697 5.23477H36.0777L31.4626 18.3257H28.5351L23.9264 5.23477H26.528ZM40.9276 18.5174C39.9688 18.5174 39.1379 18.3065 38.4347 17.8846C37.7316 17.4628 37.1862 16.8726 36.7984 16.114C36.4149 15.3555 36.2231 14.4691 36.2231 13.4549C36.2231 12.4407 36.4149 11.5522 36.7984 10.7895C37.1862 10.0267 37.7316 9.43435 38.4347 9.01247C39.1379 8.5906 39.9688 8.37966 40.9276 8.37966C41.8865 8.37966 42.7174 8.5906 43.4205 9.01247C44.1237 9.43435 44.667 10.0267 45.0505 10.7895C45.4383 11.5522 45.6322 12.4407 45.6322 13.4549C45.6322 14.4691 45.4383 15.3555 45.0505 16.114C44.667 16.8726 44.1237 17.4628 43.4205 17.8846C42.7174 18.3065 41.8865 18.5174 40.9276 18.5174ZM40.9404 16.6638C41.4603 16.6638 41.895 16.521 42.2444 16.2355C42.5938 15.9457 42.8538 15.5579 43.0242 15.0721C43.199 14.5863 43.2863 14.0451 43.2863 13.4486C43.2863 12.8477 43.199 12.3044 43.0242 11.8186C42.8538 11.3285 42.5938 10.9386 42.2444 10.6488C41.895 10.3591 41.4603 10.2142 40.9404 10.2142C40.4078 10.2142 39.9646 10.3591 39.6109 10.6488C39.2615 10.9386 38.9994 11.3285 38.8247 11.8186C38.6542 12.3044 38.569 12.8477 38.569 13.4486C38.569 14.0451 38.6542 14.5863 38.8247 15.0721C38.9994 15.5579 39.2615 15.9457 39.6109 16.2355C39.9646 16.521 40.4078 16.6638 40.9404 16.6638ZM49.9101 5.23477V18.3257H47.5961V5.23477H49.9101ZM56.6361 18.5174C55.6517 18.5174 54.8016 18.3129 54.0857 17.9038C53.374 17.4905 52.8264 16.9066 52.4429 16.1524C52.0594 15.3939 51.8676 14.5011 51.8676 13.4741C51.8676 12.4642 52.0594 11.5778 52.4429 10.815C52.8307 10.048 53.3719 9.45139 54.0665 9.02526C54.7611 8.59486 55.5771 8.37966 56.5146 8.37966C57.1198 8.37966 57.6908 8.47767 58.2277 8.67369C58.7689 8.86546 59.2462 9.16375 59.6595 9.56858C60.0771 9.97341 60.4053 10.489 60.6439 11.1155C60.8825 11.7376 61.0019 12.4791 61.0019 13.3399V14.0494H52.9543V12.4897H58.7838C58.7796 12.0466 58.6837 11.6524 58.4962 11.3072C58.3087 10.9578 58.0466 10.6829 57.71 10.4826C57.3776 10.2824 56.9898 10.1822 56.5466 10.1822C56.0736 10.1822 55.6581 10.2973 55.3002 10.5274C54.9422 10.7532 54.6631 11.0515 54.4628 11.4223C54.2668 11.7888 54.1666 12.1915 54.1624 12.6304V13.9919C54.1624 14.5629 54.2668 15.053 54.4756 15.462C54.6844 15.8669 54.9763 16.178 55.3513 16.3953C55.7263 16.6084 56.1652 16.7149 56.6681 16.7149C57.0047 16.7149 57.3094 16.668 57.5821 16.5743C57.8548 16.4763 58.0914 16.3335 58.2916 16.146C58.4919 15.9585 58.6432 15.7263 58.7455 15.4493L60.906 15.6922C60.7696 16.2632 60.5097 16.7618 60.1262 17.1879C59.7469 17.6098 59.2611 17.9379 58.6688 18.1723C58.0764 18.4024 57.3989 18.5174 56.6361 18.5174ZM62.9594 18.3257V8.5075H65.203V10.1439H65.3053C65.4843 9.5771 65.7911 9.14031 66.2258 8.8335C66.6647 8.52242 67.1654 8.36688 67.7279 8.36688C67.8557 8.36688 67.9985 8.37327 68.1562 8.38605C68.3181 8.39458 68.4523 8.40949 68.5589 8.4308V10.5593C68.4608 10.5253 68.3053 10.4954 68.0922 10.4699C67.8834 10.44 67.681 10.4251 67.485 10.4251C67.0631 10.4251 66.6839 10.5167 66.3472 10.7C66.0148 10.879 65.7528 11.1282 65.561 11.4478C65.3692 11.7674 65.2733 12.1361 65.2733 12.5537V18.3257H62.9594Z" fill="#6CD2B2"/>
<path d="M5.44644 4.02351C5.44644 4.02351 5.46923 7.46122 5.15909 9.07031C4.75333 11.1752 3.54769 12.3468 3.38281 14.4947C3.57114 17.1915 3.48966 17.5757 7.82599 19.592C9.41501 20.3311 14.5281 21.2412 14.5281 21.2412C15.2302 21.3726 16.3392 22.0054 16.6661 21.3044C16.993 20.6035 16.411 19.71 15.6825 19.3677L12.6939 18.2813C12.0165 17.9121 11.4768 17.1637 11.8802 16.2407C12.5214 14.8959 13.1384 13.9215 14.335 13.1441L18.9327 10.2326C19.2457 9.97624 19.5466 9.43023 19.2037 8.96381C18.8608 8.4974 18.1637 8.62797 17.8335 8.87045L12.9758 11.5277C12.5204 11.6746 11.9296 11.4685 12.2708 10.8622L16.3897 5.45645C16.6709 5.06705 16.6954 4.44807 16.2003 4.2172C15.5505 3.9142 15.0358 3.97621 14.8656 4.3743L10.6537 9.63907C10.4061 9.87512 10.0237 9.65055 10.0406 9.33325L12.3219 3.36743C12.3866 3.17337 12.2961 2.74045 11.8038 2.59184C11.3114 2.44322 10.8153 2.814 10.775 3.0272L8.24805 8.79492C7.91882 9.25703 7.4869 9.14558 7.30874 8.71871L6.973 4.16471C6.99182 3.80463 6.54025 3.51758 6.2062 3.50769C5.86827 3.55575 5.59454 3.70314 5.44612 4.02143L5.44644 4.02351Z" fill="#6CD2B2"/>
</svg>
