<svg width="82" height="25" viewBox="0 0 82 25" fill="none" xmlns="http://www.w3.org/2000/svg">
<rect x="0.890625" y="0.325684" width="80.7305" height="24.0516" rx="5" fill="#061F31"/>
<path d="M31.8834 5.23477L35.2904 15.5388H35.4246L38.8252 5.23477H41.4332L36.8181 18.3257H33.8905L29.2819 5.23477H31.8834ZM46.2831 18.5174C45.3243 18.5174 44.4933 18.3065 43.7902 17.8846C43.0871 17.4628 42.5416 16.8726 42.1539 16.114C41.7703 15.3555 41.5786 14.4691 41.5786 13.4549C41.5786 12.4407 41.7703 11.5522 42.1539 10.7895C42.5416 10.0267 43.0871 9.43435 43.7902 9.01247C44.4933 8.5906 45.3243 8.37966 46.2831 8.37966C47.2419 8.37966 48.0729 8.5906 48.776 9.01247C49.4791 9.43435 50.0225 10.0267 50.406 10.7895C50.7938 11.5522 50.9877 12.4407 50.9877 13.4549C50.9877 14.4691 50.7938 15.3555 50.406 16.114C50.0225 16.8726 49.4791 17.4628 48.776 17.8846C48.0729 18.3065 47.2419 18.5174 46.2831 18.5174ZM46.2959 16.6638C46.8158 16.6638 47.2504 16.521 47.5999 16.2355C47.9493 15.9457 48.2093 15.5579 48.3797 15.0721C48.5544 14.5863 48.6418 14.0451 48.6418 13.4486C48.6418 12.8477 48.5544 12.3044 48.3797 11.8186C48.2093 11.3285 47.9493 10.9386 47.5999 10.6488C47.2504 10.3591 46.8158 10.2142 46.2959 10.2142C45.7632 10.2142 45.32 10.3591 44.9664 10.6488C44.6169 10.9386 44.3548 11.3285 44.1801 11.8186C44.0097 12.3044 43.9244 12.8477 43.9244 13.4486C43.9244 14.0451 44.0097 14.5863 44.1801 15.0721C44.3548 15.5579 44.6169 15.9457 44.9664 16.2355C45.32 16.521 45.7632 16.6638 46.2959 16.6638ZM55.2655 5.23477V18.3257H52.9516V5.23477H55.2655ZM61.9916 18.5174C61.0072 18.5174 60.157 18.3129 59.4411 17.9038C58.7295 17.4905 58.1819 16.9066 57.7984 16.1524C57.4149 15.3939 57.2231 14.5011 57.2231 13.4741C57.2231 12.4642 57.4149 11.5778 57.7984 10.815C58.1862 10.048 58.7274 9.45139 59.422 9.02526C60.1166 8.59486 60.9326 8.37966 61.8701 8.37966C62.4752 8.37966 63.0463 8.47767 63.5832 8.67369C64.1244 8.86546 64.6017 9.16375 65.015 9.56858C65.4326 9.97341 65.7607 10.489 65.9994 11.1155C66.238 11.7376 66.3573 12.4791 66.3573 13.3399V14.0494H58.3097V12.4897H64.1393C64.135 12.0466 64.0392 11.6524 63.8517 11.3072C63.6642 10.9578 63.4021 10.6829 63.0654 10.4826C62.733 10.2824 62.3453 10.1822 61.9021 10.1822C61.4291 10.1822 61.0136 10.2973 60.6556 10.5274C60.2977 10.7532 60.0186 11.0515 59.8183 11.4223C59.6222 11.7888 59.5221 12.1915 59.5178 12.6304V13.9919C59.5178 14.5629 59.6222 15.053 59.8311 15.462C60.0399 15.8669 60.3318 16.178 60.7068 16.3953C61.0818 16.6084 61.5207 16.7149 62.0235 16.7149C62.3602 16.7149 62.6649 16.668 62.9376 16.5743C63.2103 16.4763 63.4468 16.3335 63.6471 16.146C63.8474 15.9585 63.9987 15.7263 64.1009 15.4493L66.2615 15.6922C66.1251 16.2632 65.8651 16.7618 65.4816 17.1879C65.1024 17.6098 64.6166 17.9379 64.0242 18.1723C63.4319 18.4024 62.7544 18.5174 61.9916 18.5174ZM68.3149 18.3257V8.5075H70.5585V10.1439H70.6608C70.8398 9.5771 71.1466 9.14031 71.5812 8.8335C72.0202 8.52242 72.5209 8.36688 73.0834 8.36688C73.2112 8.36688 73.354 8.37327 73.5116 8.38605C73.6736 8.39458 73.8078 8.40949 73.9143 8.4308V10.5593C73.8163 10.5253 73.6608 10.4954 73.4477 10.4699C73.2389 10.44 73.0365 10.4251 72.8405 10.4251C72.4186 10.4251 72.0393 10.5167 71.7027 10.7C71.3703 10.879 71.1082 11.1282 70.9165 11.4478C70.7247 11.7674 70.6288 12.1361 70.6288 12.5537V18.3257H68.3149Z" fill="#6CD2B2"/>
<path d="M10.3321 4.43312C10.3321 4.43312 10.3541 7.75362 10.0546 9.30784C9.66266 11.341 8.49812 12.4726 8.33887 14.5473C8.52078 17.1522 8.44207 17.5233 12.6306 19.4708C14.1654 20.1846 19.1041 21.0637 19.1041 21.0637C19.7823 21.1906 20.8535 21.8019 21.1693 21.1248C21.485 20.4477 20.9228 19.5848 20.2192 19.2542L17.3325 18.2048C16.6782 17.8482 16.1569 17.1252 16.5465 16.2337C17.1659 14.9348 17.7618 13.9936 18.9176 13.2427L23.3586 10.4305C23.6609 10.1829 23.9515 9.65549 23.6203 9.20498C23.2891 8.75447 22.6158 8.88058 22.2968 9.1148L17.6047 11.6815C17.1649 11.8234 16.5942 11.6243 16.9238 11.0387L20.9023 5.81721C21.1739 5.44108 21.1976 4.84321 20.7193 4.62021C20.0917 4.32754 19.5945 4.38744 19.4301 4.77196L15.3618 9.85721C15.1227 10.0852 14.7533 9.8683 14.7696 9.56181L16.9731 3.79942C17.0357 3.61197 16.9483 3.19381 16.4727 3.05026C15.9971 2.90672 15.5179 3.26485 15.479 3.47078L13.0382 9.04184C12.7202 9.4882 12.303 9.38055 12.1309 8.96823L11.8066 4.56951C11.8248 4.2217 11.3886 3.94445 11.066 3.93489C10.7396 3.98131 10.4752 4.12368 10.3318 4.43112L10.3321 4.43312Z" fill="#6CD2B2"/>
</svg>
