<svg width="82" height="25" viewBox="0 0 82 25" fill="none" xmlns="http://www.w3.org/2000/svg">
<rect x="0.617188" y="0.952881" width="80.7158" height="24.0516" rx="5" fill="#061F31"/>
<path d="M31.61 5.86197L35.017 16.1659H35.1512L38.5518 5.86197H41.1597L36.5447 18.9529H33.6171L29.0084 5.86197H31.61ZM46.0097 19.1446C45.0509 19.1446 44.2199 18.9337 43.5168 18.5118C42.8137 18.09 42.2682 17.4998 41.8804 16.7412C41.4969 15.9827 41.3051 15.0963 41.3051 14.0821C41.3051 13.0679 41.4969 12.1794 41.8804 11.4167C42.2682 10.6539 42.8137 10.0615 43.5168 9.63967C44.2199 9.2178 45.0509 9.00686 46.0097 9.00686C46.9685 9.00686 47.7994 9.2178 48.5026 9.63967C49.2057 10.0615 49.749 10.6539 50.1325 11.4167C50.5203 12.1794 50.7142 13.0679 50.7142 14.0821C50.7142 15.0963 50.5203 15.9827 50.1325 16.7412C49.749 17.4998 49.2057 18.09 48.5026 18.5118C47.7994 18.9337 46.9685 19.1446 46.0097 19.1446ZM46.0225 17.2909C46.5423 17.2909 46.977 17.1482 47.3264 16.8627C47.6759 16.5729 47.9358 16.1851 48.1063 15.6993C48.281 15.2135 48.3683 14.6723 48.3683 14.0757C48.3683 13.4749 48.281 12.9316 48.1063 12.4458C47.9358 11.9557 47.6759 11.5658 47.3264 11.276C46.977 10.9863 46.5423 10.8414 46.0225 10.8414C45.4898 10.8414 45.0466 10.9863 44.6929 11.276C44.3435 11.5658 44.0814 11.9557 43.9067 12.4458C43.7362 12.9316 43.651 13.4749 43.651 14.0757C43.651 14.6723 43.7362 15.2135 43.9067 15.6993C44.0814 16.1851 44.3435 16.5729 44.6929 16.8627C45.0466 17.1482 45.4898 17.2909 46.0225 17.2909ZM57.5809 9.1347V10.9245H51.9367V9.1347H57.5809ZM53.3302 6.78243H55.6441V15.9998C55.6441 16.3108 55.691 16.5495 55.7847 16.7157C55.8827 16.8776 56.0106 16.9884 56.1682 17.0481C56.3259 17.1077 56.5006 17.1375 56.6924 17.1375C56.8373 17.1375 56.9694 17.1269 57.0887 17.1056C57.2123 17.0843 57.306 17.0651 57.3699 17.0481L57.7599 18.857C57.6363 18.8996 57.4594 18.9465 57.2293 18.9976C57.0035 19.0488 56.7265 19.0786 56.3983 19.0871C55.8188 19.1042 55.2968 19.0168 54.8323 18.825C54.3678 18.629 53.9992 18.3265 53.7265 17.9174C53.458 17.5083 53.3259 16.9969 53.3302 16.3833V6.78243ZM63.7572 19.1446C62.7728 19.1446 61.9227 18.9401 61.2068 18.531C60.4951 18.1177 59.9475 17.5338 59.564 16.7796C59.1805 16.0211 58.9887 15.1283 58.9887 14.1013C58.9887 13.0914 59.1805 12.205 59.564 11.4422C59.9518 10.6752 60.493 10.0786 61.1876 9.65245C61.8822 9.22206 62.6982 9.00686 63.6357 9.00686C64.2409 9.00686 64.8119 9.10487 65.3488 9.30089C65.89 9.49265 66.3673 9.79095 66.7806 10.1958C67.1982 10.6006 67.5264 11.1162 67.765 11.7427C68.0036 12.3648 68.123 13.1063 68.123 13.9671V14.6766H60.0754V13.1169H65.9049C65.9007 12.6738 65.8048 12.2796 65.6173 11.9344C65.4298 11.585 65.1677 11.3101 64.8311 11.1098C64.4987 10.9096 64.1109 10.8094 63.6677 10.8094C63.1947 10.8094 62.7792 10.9245 62.4213 11.1546C62.0633 11.3804 61.7842 11.6787 61.5839 12.0495C61.3879 12.4159 61.2877 12.8186 61.2835 13.2576V14.6191C61.2835 15.1901 61.3879 15.6802 61.5967 16.0892C61.8055 16.4941 62.0974 16.8052 62.4724 17.0225C62.8474 17.2356 63.2863 17.3421 63.7892 17.3421C64.1258 17.3421 64.4305 17.2952 64.7032 17.2015C64.9759 17.1034 65.2124 16.9607 65.4127 16.7732C65.613 16.5857 65.7643 16.3534 65.8666 16.0765L68.0271 16.3194C67.8907 16.8904 67.6308 17.389 67.2472 17.8151C66.868 18.237 66.3822 18.5651 65.7899 18.7995C65.1975 19.0296 64.52 19.1446 63.7572 19.1446ZM70.0805 18.9529V9.1347H72.3241V10.7711H72.4264C72.6054 10.2043 72.9122 9.76751 73.3469 9.46069C73.7858 9.14961 74.2865 8.99407 74.849 8.99407C74.9768 8.99407 75.1196 9.00047 75.2773 9.01325C75.4392 9.02177 75.5734 9.03669 75.68 9.05799V11.1865C75.5819 11.1525 75.4264 11.1226 75.2133 11.0971C75.0045 11.0672 74.8021 11.0523 74.6061 11.0523C74.1842 11.0523 73.805 11.1439 73.4683 11.3272C73.1359 11.5061 72.8738 11.7554 72.6821 12.075C72.4903 12.3946 72.3944 12.7633 72.3944 13.1809V18.9529H70.0805Z" fill="#61646B"/>
<path d="M24.8304 9.76387C24.7547 9.58104 24.6095 9.43582 24.4267 9.36012L11.6721 4.07716C11.2918 3.9197 10.8551 4.10024 10.6974 4.48091L5.41427 17.2356C5.33847 17.4184 5.33847 17.6237 5.41427 17.8065C5.48997 17.9894 5.63519 18.1346 5.81802 18.2103L14.3828 21.7579C14.4742 21.7957 14.5713 21.8147 14.6683 21.8147C14.7654 21.8147 14.8623 21.7958 14.9538 21.7579L20.8788 19.3034C21.0616 19.2277 21.2068 19.0824 21.2825 18.8996L24.8303 10.3347C24.9061 10.1521 24.9061 9.94669 24.8304 9.76387ZM16.0469 19.6901L16.8076 17.8536L18.644 18.6142L16.0469 19.6901ZM20.1897 17.6393L16.6893 16.1895C16.309 16.0321 15.8723 16.2126 15.7146 16.5933L14.2646 20.0939L7.07811 17.1173L11.7904 5.7411L23.1665 10.4531L20.1897 17.6393Z" fill="#61646B"/>
<path d="M18.6242 12.9049L18.053 11.5266L14.2331 13.1093L13.5844 11.5437L12.2061 12.1146L13.4256 15.0589L18.6242 12.9049Z" fill="#61646B"/>
</svg>
