<svg width="82" height="25" viewBox="0 0 82 25" fill="none" xmlns="http://www.w3.org/2000/svg">
<rect x="0.890625" y="0.952881" width="80.7158" height="24.0516" rx="5" fill="#061F31"/>
<path d="M31.8834 5.86197L35.2904 16.1659H35.4246L38.8252 5.86197H41.4332L36.8181 18.9529H33.8905L29.2819 5.86197H31.8834ZM46.2831 19.1446C45.3243 19.1446 44.4933 18.9337 43.7902 18.5118C43.0871 18.09 42.5416 17.4998 42.1539 16.7412C41.7703 15.9827 41.5786 15.0963 41.5786 14.0821C41.5786 13.0679 41.7703 12.1794 42.1539 11.4167C42.5416 10.6539 43.0871 10.0615 43.7902 9.63967C44.4933 9.2178 45.3243 9.00686 46.2831 9.00686C47.2419 9.00686 48.0729 9.2178 48.776 9.63967C49.4791 10.0615 50.0225 10.6539 50.406 11.4167C50.7938 12.1794 50.9877 13.0679 50.9877 14.0821C50.9877 15.0963 50.7938 15.9827 50.406 16.7412C50.0225 17.4998 49.4791 18.09 48.776 18.5118C48.0729 18.9337 47.2419 19.1446 46.2831 19.1446ZM46.2959 17.2909C46.8158 17.2909 47.2504 17.1482 47.5999 16.8627C47.9493 16.5729 48.2093 16.1851 48.3797 15.6993C48.5544 15.2135 48.6418 14.6723 48.6418 14.0757C48.6418 13.4749 48.5544 12.9316 48.3797 12.4458C48.2093 11.9557 47.9493 11.5658 47.5999 11.276C47.2504 10.9863 46.8158 10.8414 46.2959 10.8414C45.7632 10.8414 45.32 10.9863 44.9664 11.276C44.6169 11.5658 44.3548 11.9557 44.1801 12.4458C44.0097 12.9316 43.9244 13.4749 43.9244 14.0757C43.9244 14.6723 44.0097 15.2135 44.1801 15.6993C44.3548 16.1851 44.6169 16.5729 44.9664 16.8627C45.32 17.1482 45.7632 17.2909 46.2959 17.2909ZM57.8543 9.1347V10.9245H52.2101V9.1347H57.8543ZM53.6036 6.78243H55.9175V15.9998C55.9175 16.3108 55.9644 16.5495 56.0582 16.7157C56.1562 16.8776 56.284 16.9884 56.4417 17.0481C56.5993 17.1077 56.7741 17.1375 56.9658 17.1375C57.1107 17.1375 57.2428 17.1269 57.3621 17.1056C57.4857 17.0843 57.5795 17.0651 57.6434 17.0481L58.0333 18.857C57.9097 18.8996 57.7329 18.9465 57.5028 18.9976C57.2769 19.0488 56.9999 19.0786 56.6718 19.0871C56.0922 19.1042 55.5702 19.0168 55.1057 18.825C54.6412 18.629 54.2726 18.3265 53.9999 17.9174C53.7314 17.5083 53.5993 16.9969 53.6036 16.3833V6.78243ZM64.0306 19.1446C63.0463 19.1446 62.1961 18.9401 61.4802 18.531C60.7686 18.1177 60.221 17.5338 59.8374 16.7796C59.4539 16.0211 59.2622 15.1283 59.2622 14.1013C59.2622 13.0914 59.4539 12.205 59.8374 11.4422C60.2252 10.6752 60.7664 10.0786 61.461 9.65245C62.1556 9.22206 62.9717 9.00686 63.9092 9.00686C64.5143 9.00686 65.0853 9.10487 65.6222 9.30089C66.1634 9.49265 66.6407 9.79095 67.0541 10.1958C67.4717 10.6006 67.7998 11.1162 68.0384 11.7427C68.2771 12.3648 68.3964 13.1063 68.3964 13.9671V14.6766H60.3488V13.1169H66.1784C66.1741 12.6738 66.0782 12.2796 65.8907 11.9344C65.7032 11.585 65.4411 11.3101 65.1045 11.1098C64.7721 10.9096 64.3843 10.8094 63.9411 10.8094C63.4681 10.8094 63.0526 10.9245 62.6947 11.1546C62.3367 11.3804 62.0576 11.6787 61.8573 12.0495C61.6613 12.4159 61.5612 12.8186 61.5569 13.2576V14.6191C61.5569 15.1901 61.6613 15.6802 61.8701 16.0892C62.0789 16.4941 62.3708 16.8052 62.7458 17.0225C63.1208 17.2356 63.5597 17.3421 64.0626 17.3421C64.3992 17.3421 64.7039 17.2952 64.9767 17.2015C65.2494 17.1034 65.4859 16.9607 65.6862 16.7732C65.8865 16.5857 66.0377 16.3534 66.14 16.0765L68.3005 16.3194C68.1642 16.8904 67.9042 17.389 67.5207 17.8151C67.1414 18.237 66.6556 18.5651 66.0633 18.7995C65.471 19.0296 64.7934 19.1446 64.0306 19.1446ZM70.354 18.9529V9.1347H72.5976V10.7711H72.6998C72.8788 10.2043 73.1856 9.76751 73.6203 9.46069C74.0592 9.14961 74.5599 8.99407 75.1224 8.99407C75.2503 8.99407 75.393 9.00047 75.5507 9.01325C75.7126 9.02177 75.8469 9.03669 75.9534 9.05799V11.1865C75.8554 11.1525 75.6998 11.1226 75.4868 11.0971C75.278 11.0672 75.0756 11.0523 74.8795 11.0523C74.4577 11.0523 74.0784 11.1439 73.7417 11.3272C73.4094 11.5061 73.1473 11.7554 72.9555 12.075C72.7638 12.3946 72.6679 12.7633 72.6679 13.1809V18.9529H70.354Z" fill="#9BE379"/>
<path d="M25.1039 9.76387C25.0282 9.58104 24.883 9.43582 24.7001 9.36012L11.9456 4.07716C11.5652 3.9197 11.1285 4.10024 10.9709 4.48091L5.68771 17.2356C5.61191 17.4184 5.61191 17.6237 5.68771 17.8065C5.7634 17.9894 5.90863 18.1346 6.09146 18.2103L14.6562 21.7579C14.7476 21.7957 14.8447 21.8147 14.9417 21.8147C15.0388 21.8147 15.1358 21.7958 15.2272 21.7579L21.1522 19.3034C21.3351 19.2277 21.4803 19.0824 21.556 18.8996L25.1038 10.3347C25.1796 10.1521 25.1796 9.94669 25.1039 9.76387ZM16.3204 19.6901L17.081 17.8536L18.9174 18.6142L16.3204 19.6901ZM20.4631 17.6393L16.9627 16.1895C16.5825 16.0321 16.1457 16.2126 15.988 16.5933L14.5381 20.0939L7.35154 17.1173L12.0638 5.7411L23.4399 10.4531L20.4631 17.6393Z" fill="#9BE379"/>
<path d="M18.8976 12.9049L18.3265 11.5266L14.5065 13.1093L13.8579 11.5437L12.4795 12.1146L13.699 15.0589L18.8976 12.9049Z" fill="#9BE379"/>
</svg>
