<svg width="81" height="25" viewBox="0 0 81 25" fill="none" xmlns="http://www.w3.org/2000/svg">
<rect x="0.253906" y="0.952881" width="80.7158" height="24.0516" rx="5" fill="#9BE379"/>
<path d="M31.2467 5.86197L34.6537 16.1659H34.7879L38.1885 5.86197H40.7964L36.1814 18.9529H33.2538L28.6452 5.86197H31.2467ZM45.6464 19.1446C44.6876 19.1446 43.8566 18.9337 43.1535 18.5118C42.4504 18.09 41.9049 17.4998 41.5171 16.7412C41.1336 15.9827 40.9419 15.0963 40.9419 14.0821C40.9419 13.0679 41.1336 12.1794 41.5171 11.4167C41.9049 10.6539 42.4504 10.0615 43.1535 9.63967C43.8566 9.2178 44.6876 9.00686 45.6464 9.00686C46.6052 9.00686 47.4362 9.2178 48.1393 9.63967C48.8424 10.0615 49.3857 10.6539 49.7693 11.4167C50.157 12.1794 50.3509 13.0679 50.3509 14.0821C50.3509 15.0963 50.157 15.9827 49.7693 16.7412C49.3857 17.4998 48.8424 18.09 48.1393 18.5118C47.4362 18.9337 46.6052 19.1446 45.6464 19.1446ZM45.6592 17.2909C46.1791 17.2909 46.6137 17.1482 46.9632 16.8627C47.3126 16.5729 47.5725 16.1851 47.743 15.6993C47.9177 15.2135 48.0051 14.6723 48.0051 14.0757C48.0051 13.4749 47.9177 12.9316 47.743 12.4458C47.5725 11.9557 47.3126 11.5658 46.9632 11.276C46.6137 10.9863 46.1791 10.8414 45.6592 10.8414C45.1265 10.8414 44.6833 10.9863 44.3296 11.276C43.9802 11.5658 43.7181 11.9557 43.5434 12.4458C43.373 12.9316 43.2877 13.4749 43.2877 14.0757C43.2877 14.6723 43.373 15.2135 43.5434 15.6993C43.7181 16.1851 43.9802 16.5729 44.3296 16.8627C44.6833 17.1482 45.1265 17.2909 45.6592 17.2909ZM57.2176 9.1347V10.9245H51.5734V9.1347H57.2176ZM52.9669 6.78243H55.2808V15.9998C55.2808 16.3108 55.3277 16.5495 55.4214 16.7157C55.5194 16.8776 55.6473 16.9884 55.805 17.0481C55.9626 17.1077 56.1373 17.1375 56.3291 17.1375C56.474 17.1375 56.6061 17.1269 56.7254 17.1056C56.849 17.0843 56.9427 17.0651 57.0067 17.0481L57.3966 18.857C57.273 18.8996 57.0961 18.9465 56.866 18.9976C56.6402 19.0488 56.3632 19.0786 56.0351 19.0871C55.4555 19.1042 54.9335 19.0168 54.469 18.825C54.0045 18.629 53.6359 18.3265 53.3632 17.9174C53.0947 17.5083 52.9626 16.9969 52.9669 16.3833V6.78243ZM63.3939 19.1446C62.4095 19.1446 61.5594 18.9401 60.8435 18.531C60.1318 18.1177 59.5843 17.5338 59.2007 16.7796C58.8172 16.0211 58.6254 15.1283 58.6254 14.1013C58.6254 13.0914 58.8172 12.205 59.2007 11.4422C59.5885 10.6752 60.1297 10.0786 60.8243 9.65245C61.5189 9.22206 62.335 9.00686 63.2725 9.00686C63.8776 9.00686 64.4486 9.10487 64.9855 9.30089C65.5267 9.49265 66.004 9.79095 66.4173 10.1958C66.835 10.6006 67.1631 11.1162 67.4017 11.7427C67.6404 12.3648 67.7597 13.1063 67.7597 13.9671V14.6766H59.7121V13.1169H65.5416C65.5374 12.6738 65.4415 12.2796 65.254 11.9344C65.0665 11.585 64.8044 11.3101 64.4678 11.1098C64.1354 10.9096 63.7476 10.8094 63.3044 10.8094C62.8314 10.8094 62.4159 10.9245 62.058 11.1546C61.7 11.3804 61.4209 11.6787 61.2206 12.0495C61.0246 12.4159 60.9244 12.8186 60.9202 13.2576V14.6191C60.9202 15.1901 61.0246 15.6802 61.2334 16.0892C61.4422 16.4941 61.7341 16.8052 62.1091 17.0225C62.4841 17.2356 62.923 17.3421 63.4259 17.3421C63.7625 17.3421 64.0672 17.2952 64.3399 17.2015C64.6127 17.1034 64.8492 16.9607 65.0494 16.7732C65.2497 16.5857 65.401 16.3534 65.5033 16.0765L67.6638 16.3194C67.5274 16.8904 67.2675 17.389 66.884 17.8151C66.5047 18.237 66.0189 18.5651 65.4266 18.7995C64.8343 19.0296 64.1567 19.1446 63.3939 19.1446ZM69.7172 18.9529V9.1347H71.9608V10.7711H72.0631C72.2421 10.2043 72.5489 9.76751 72.9836 9.46069C73.4225 9.14961 73.9232 8.99407 74.4857 8.99407C74.6135 8.99407 74.7563 9.00047 74.914 9.01325C75.0759 9.02177 75.2101 9.03669 75.3167 9.05799V11.1865C75.2187 11.1525 75.0631 11.1226 74.8501 11.0971C74.6412 11.0672 74.4388 11.0523 74.2428 11.0523C73.8209 11.0523 73.4417 11.1439 73.105 11.3272C72.7726 11.5061 72.5106 11.7554 72.3188 12.075C72.127 12.3946 72.0312 12.7633 72.0312 13.1809V18.9529H69.7172Z" fill="#061F31"/>
<path d="M24.4672 9.76387C24.3915 9.58104 24.2462 9.43582 24.0634 9.36012L11.3089 4.07716C10.9285 3.9197 10.4918 4.10024 10.3341 4.48091L5.05099 17.2356C4.97519 17.4184 4.97519 17.6237 5.05099 17.8065C5.12668 17.9894 5.27191 18.1346 5.45474 18.2103L14.0195 21.7579C14.1109 21.7957 14.208 21.8147 14.305 21.8147C14.4021 21.8147 14.4991 21.7958 14.5905 21.7579L20.5155 19.3034C20.6983 19.2277 20.8436 19.0824 20.9193 18.8996L24.4671 10.3347C24.5429 10.1521 24.5429 9.94669 24.4672 9.76387ZM15.6837 19.6901L16.4443 17.8536L18.2807 18.6142L15.6837 19.6901ZM19.8264 17.6393L16.326 16.1895C15.9458 16.0321 15.509 16.2126 15.3513 16.5933L13.9013 20.0939L6.71483 17.1173L11.4271 5.7411L22.8032 10.4531L19.8264 17.6393Z" fill="#061F31"/>
<path d="M18.2609 12.9049L17.6898 11.5266L13.8698 13.1093L13.2212 11.5437L11.8428 12.1146L13.0623 15.0589L18.2609 12.9049Z" fill="#061F31"/>
</svg>
