<svg width="18" height="18" viewBox="0 0 18 18" fill="none" xmlns="http://www.w3.org/2000/svg">
<path fill-rule="evenodd" clip-rule="evenodd" d="M12.5498 5.04778L9.49988 8.09767L6.45 5.04778C6.06263 4.66042 5.43497 4.6606 5.04778 5.04778C4.66059 5.43497 4.66042 6.06264 5.04778 6.45L8.09766 9.49988L5.04778 12.5498C4.66059 12.937 4.66042 13.5646 5.04778 13.952C5.43514 14.3393 6.06281 14.3392 6.45 13.952L9.49988 10.9021L12.5498 13.952C12.9371 14.3393 13.5648 14.3392 13.952 13.952C14.3392 13.5648 14.3393 12.9371 13.952 12.5498L10.9021 9.49988L13.952 6.45C14.3392 6.06281 14.3393 5.43514 13.952 5.04778C13.5646 4.66042 12.937 4.66059 12.5498 5.04778Z" fill="#BDABE9"/>
</svg>
