<svg width="19" height="22" viewBox="0 0 19 22" fill="none" xmlns="http://www.w3.org/2000/svg">
<path fill-rule="evenodd" clip-rule="evenodd" d="M3.45745 2.19415C2.95199 2.19415 2.54224 2.60391 2.54224 3.10936V14.6006C2.54224 15.1529 2.09452 15.6006 1.54224 15.6006C0.989952 15.6006 0.542236 15.1529 0.542236 14.6006V3.10936C0.542236 1.49934 1.84742 0.194153 3.45745 0.194153H13.0335C13.5858 0.194153 14.0335 0.641868 14.0335 1.19415C14.0335 1.74644 13.5858 2.19415 13.0335 2.19415H3.45745ZM4.37266 6.93979C4.37266 5.32976 5.67784 4.02458 7.28787 4.02458H15.9063C17.5164 4.02458 18.8215 5.32977 18.8215 6.93979V18.4311C18.8215 20.0411 17.5164 21.3463 15.9063 21.3463H7.28787C5.67785 21.3463 4.37266 20.0411 4.37266 18.4311V6.93979ZM7.28787 6.02458C6.78241 6.02458 6.37266 6.43433 6.37266 6.93979V18.4311C6.37266 18.9365 6.7824 19.3463 7.28787 19.3463H15.9063C16.4118 19.3463 16.8215 18.9365 16.8215 18.4311V6.93979C16.8215 6.43432 16.4118 6.02458 15.9063 6.02458H7.28787Z" fill="#CAB8FF"/>
</svg>
