<svg width="431" height="130" viewBox="0 0 431 130" fill="none" xmlns="http://www.w3.org/2000/svg">
<g clip-path="url(#clip0_156_3)">
<rect x="0.673828" width="430" height="130" fill="url(#paint0_linear_156_3)"/>
<path d="M15.3875 122.383L-8.13842 113.859L-19.0488 141.476L567.496 140.29L405.068 103.567L342.568 117.691L295.958 103.92L258.529 115.925L192.002 88.9691L153.815 111.472L124.834 102.948L73.0087 126.474L42.6638 116.245L15.3875 122.383Z" fill="#055078"/>
<path d="M412.301 113.109L405.583 121.223L398.552 106.875L404.959 108.87L398.651 89.7415L403.968 92.6002L397.364 70.938L403.372 77.0273L396.811 52.173L384.713 76.7251L391.149 71.7642L379.156 96.0189L385.092 94.1131L374.164 109.243L379.348 108.507L370.826 117.257L363.816 106.868L371.952 109.196L362.576 95.9927L369.951 98.6989L361.149 85.1543L367.199 87.9007L358.2 61.2862L345.628 87.2112L351.399 85.2928L340.251 96.1681L345.898 95.5362L341.353 100.819L336.76 101.667L334.599 85.3867L330.387 103.011L327.491 97.0768L329.25 98.0505L327.321 87.0466L321.413 96.2016L323.522 96.6832L315.742 105.249L312.867 93.1087L308.458 106.152L304.483 100.291L304.674 108.094L301.559 110.598L299.492 99.1303L298.747 108.036L296.371 105.561L295.57 109.416L292.697 96.4192L293.129 111.043L290.898 102.962L291.059 110.507L289.04 106.547L289.037 113.141L286.357 105.464L284.856 116.785L280.608 103.539L278.792 113.792L276.792 106.478L275.502 112.225L274.513 98.9169L271.099 114.145L269.244 104.048L267.834 114.323L266.947 106.834L263.99 118.889L262.299 115.661L261.561 120.855L259.614 116.973L258.385 121.56L255.406 117.392L256.867 117.236L254.906 109.168L251.357 122.529L249.76 118.608L248.269 123.763L245.497 115.652L243.57 124.679L241.59 126.959L239.142 121.157L241.488 122.35L238.58 106.342L235.251 121.354L231.935 114.423L230.94 124.473L225.344 131.673L224.269 126.666L222.412 131.452L220.381 122.983L216.742 132.426L213.61 122.52L210.777 133.383L440.983 141.482L449.508 101.906L439.52 76.2061L432.902 56.8646L438.336 58.93L428.405 24.1367L413.802 58.268L420.905 55.8943L407.603 78.309L418.982 72.9558L402.953 97.1727L415.264 98.0468L406.276 105.814L412.384 107.163L403.552 114.138L412.301 113.109Z" fill="#061F31"/>
<path d="M66.0206 41.9162C64.8322 40.2887 64.1574 38.6573 64.1603 36.7813C64.1574 34.9044 64.8322 33.2759 66.0206 31.6475C67.2119 30.0395 68.904 28.4462 71.0068 27.1669C68.5528 27.3655 66.2475 27.0702 64.3384 26.4686C62.4202 25.8515 60.918 24.9261 59.8187 23.413C58.7174 21.9009 58.2967 20.1844 58.3006 18.1687C58.3164 16.1675 58.7506 13.8837 59.7013 11.6127C57.8332 13.2157 55.7948 14.3297 53.8944 14.9616C51.9764 15.5856 50.2169 15.7187 48.4446 15.1406C46.6684 14.5665 45.3246 13.4251 44.1382 11.7946C42.9724 10.1681 41.9766 8.0671 41.4113 5.67188C40.846 8.0671 39.8512 10.1681 38.6845 11.7946C37.499 13.4249 36.1533 14.5665 34.378 15.1406C32.6048 15.7187 30.8462 15.5856 28.9292 14.9616C27.0288 14.3297 24.9905 13.2168 23.1223 11.6127C24.073 13.8837 24.5063 16.1675 24.522 18.1687C24.5249 20.1845 24.1054 21.9009 23.0041 23.413C21.9037 24.9261 20.4024 25.8514 18.4834 26.4686C16.5762 27.0702 14.2708 27.3655 11.8169 27.1669C13.9197 28.4463 15.6118 30.0395 16.8023 31.6475C17.9916 33.2759 18.6655 34.9044 18.6635 36.7813C18.6655 38.6573 17.9916 40.2887 16.8023 41.9162C15.6119 43.5242 13.9197 45.1164 11.8169 46.3967C14.2709 46.1982 16.5762 46.4926 18.4834 47.0942C20.4024 47.7122 21.9037 48.6375 23.0041 50.1507C24.1054 51.6618 24.5249 53.3793 24.522 55.3961C24.5063 57.3982 24.073 59.6801 23.1223 61.9511C24.9905 60.347 27.0287 59.234 28.9292 58.6022C30.8461 57.9783 32.6048 57.8452 34.378 58.4232C36.1533 58.9974 37.499 60.1387 38.6845 61.7692C39.8513 63.3966 40.846 65.4965 41.4113 67.8918C41.9766 65.4965 42.9724 63.3966 44.1382 61.7692C45.3246 60.1387 46.6685 58.9972 48.4446 58.4232C50.2179 57.8452 51.9764 57.9781 53.8944 58.6022C55.7948 59.2341 57.8332 60.347 59.7013 61.9511C58.7506 59.68 58.3164 57.3981 58.3006 55.395C58.2967 53.3792 58.7173 51.6618 59.8187 50.1507C60.9189 48.6375 62.4202 47.7123 64.3384 47.0942C66.2475 46.4926 68.5528 46.1983 71.0068 46.3967C68.9039 45.1165 67.2118 43.5242 66.0206 41.9162ZM41.4113 53.881C31.969 53.881 24.3128 46.2247 24.3128 36.7813C24.3128 27.338 31.9691 19.6828 41.4113 19.6828C50.8556 19.6828 58.5099 27.338 58.5099 36.7813C58.51 46.2247 50.8556 53.881 41.4113 53.881Z" fill="#FFEF72"/>
<circle cx="41.412" cy="36.7822" r="19.5375" fill="#FFEF72"/>
<path d="M41.4125 19.8188C32.0441 19.8188 24.4497 27.4133 24.4497 36.7816C24.4497 46.151 32.0443 53.7455 41.4125 53.7455C50.7807 53.7455 58.3763 46.151 58.3763 36.7816C58.3763 27.4133 50.7809 19.8188 41.4125 19.8188Z" fill="#EFB769"/>
<path d="M41.4118 25.5789C35.2246 25.5789 30.209 30.5945 30.209 36.7817C30.209 42.9696 35.2247 47.9852 41.4118 47.9852C47.599 47.9852 52.6154 42.9696 52.6154 36.7817C52.6154 30.5945 47.599 25.5789 41.4118 25.5789Z" fill="#FFEF72"/>
</g>
<defs>
<linearGradient id="paint0_linear_156_3" x1="215.674" y1="0" x2="215.674" y2="130" gradientUnits="userSpaceOnUse">
<stop stop-color="#005EA0"/>
<stop offset="0.34" stop-color="#1A77A3"/>
<stop offset="0.58" stop-color="#328FA5"/>
<stop offset="0.79" stop-color="#49A5A7"/>
<stop offset="0.925" stop-color="#5FBBA9"/>
</linearGradient>
<clipPath id="clip0_156_3">
<rect width="430" height="130" fill="white" transform="translate(0.673828)"/>
</clipPath>
</defs>
</svg>
