<svg width="21" height="25" viewBox="0 0 21 25" fill="none" xmlns="http://www.w3.org/2000/svg">
<path d="M17.1012 3.92004C15.2138 2.03644 12.7302 1 10.1054 1H10.0876C7.44739 1.0047 4.91688 2.05683 3.0516 3.92543C1.18632 5.79403 0.138696 8.32641 0.138701 10.9667V15.7904C0.135725 16.5576 0.364075 17.3078 0.793949 17.9431C1.22382 18.5785 1.83525 19.0695 2.54843 19.3521L3.68453 19.8035C3.80317 19.8505 3.9081 19.9266 3.98972 20.0247C4.07134 20.1228 4.12704 20.2398 4.15172 20.365L4.63089 22.7671C4.70109 23.1143 4.88901 23.4266 5.16289 23.6513C5.43677 23.8759 5.77981 23.9991 6.13403 24H6.65537C6.75703 24 6.85454 23.9596 6.92642 23.8877C6.99831 23.8158 7.0387 23.7183 7.0387 23.6167V21.7216C7.0387 21.309 7.35591 20.9549 7.76847 20.9343C7.87213 20.9293 7.97573 20.9454 8.07298 20.9816C8.17023 21.0179 8.25912 21.0734 8.33425 21.145C8.40938 21.2166 8.4692 21.3027 8.51007 21.3981C8.55094 21.4935 8.57202 21.5962 8.57203 21.7V23.6167C8.57203 23.7183 8.61242 23.8158 8.68431 23.8877C8.7562 23.9596 8.8537 24 8.95537 24C9.05703 24 9.15454 23.9596 9.22642 23.8877C9.29831 23.8158 9.3387 23.7183 9.3387 23.6167V21.7216C9.3387 21.309 9.65591 20.9549 10.0685 20.9343C10.1721 20.9293 10.2757 20.9454 10.373 20.9816C10.4702 21.0179 10.5591 21.0734 10.6343 21.145C10.7094 21.2166 10.7692 21.3027 10.8101 21.3981C10.8509 21.4935 10.872 21.5962 10.872 21.7V23.6167C10.872 23.7183 10.9124 23.8158 10.9843 23.8877C11.0562 23.9596 11.1537 24 11.2554 24C11.357 24 11.4545 23.9596 11.5264 23.8877C11.5983 23.8158 11.6387 23.7183 11.6387 23.6167V21.7216C11.6387 21.309 11.9559 20.9549 12.3685 20.9343C12.4721 20.9293 12.5757 20.9454 12.673 20.9816C12.7702 21.0179 12.8591 21.0734 12.9343 21.145C13.0094 21.2166 13.0692 21.3027 13.1101 21.3981C13.1509 21.4935 13.172 21.5962 13.172 21.7V23.6167C13.172 23.7183 13.2124 23.8158 13.2843 23.8877C13.3562 23.9596 13.4537 24 13.5554 24H14.0767C14.4309 23.9992 14.774 23.8761 15.048 23.6516C15.322 23.427 15.51 23.1148 15.5803 22.7676L16.0595 20.365C16.0845 20.24 16.1402 20.1232 16.2217 20.0251C16.3032 19.9271 16.4078 19.8509 16.5262 19.8035L17.6623 19.3521C18.3755 19.0695 18.9869 18.5785 19.4168 17.9431C19.8467 17.3078 20.075 16.5576 20.072 15.7904V11.0467C20.072 8.36335 19.0179 5.83288 17.1012 3.92004ZM6.06408 16.3276C5.51957 16.3633 4.97714 16.2321 4.50911 15.9515C4.04108 15.671 3.66971 15.2544 3.44451 14.7574C3.21932 14.2603 3.15102 13.7065 3.24871 13.1696C3.3464 12.6327 3.60544 12.1384 3.99129 11.7526C4.37713 11.3667 4.87144 11.1077 5.4083 11.01C5.94515 10.9123 6.49903 10.9806 6.99607 11.2058C7.4931 11.431 7.90967 11.8024 8.19022 12.2704C8.47076 12.7384 8.60195 13.2809 8.56628 13.8254C8.52373 14.475 8.24644 15.087 7.78609 15.5474C7.32574 16.0077 6.71372 16.285 6.06408 16.3276ZM11.3033 19.2682C11.1715 19.3562 11.0161 19.4021 10.8577 19.4H9.35307C9.19496 19.4019 9.03996 19.356 8.90841 19.2682C8.77991 19.1811 8.68088 19.0571 8.62441 18.9125C8.56794 18.7679 8.55669 18.6096 8.59216 18.4584L9.35451 16.1776C9.48245 15.8542 9.6861 15.6146 10.0095 15.5729C10.4053 15.525 10.6804 15.7104 10.8533 16.1584L11.62 18.4584C11.6554 18.6096 11.6441 18.768 11.5876 18.9126C11.531 19.0572 11.4319 19.1812 11.3033 19.2682ZM14.4984 16.3276C13.9539 16.3633 13.4114 16.2321 12.9434 15.9515C12.4754 15.671 12.104 15.2544 11.8788 14.7574C11.6536 14.2603 11.5853 13.7065 11.683 13.1696C11.7807 12.6327 12.0397 12.1384 12.4256 11.7526C12.8114 11.3667 13.3057 11.1077 13.8426 11.01C14.3794 10.9123 14.9333 10.9806 15.4304 11.2058C15.9274 11.431 16.344 11.8024 16.6245 12.2704C16.9051 12.7384 17.0362 13.2809 17.0006 13.8254C16.958 14.4752 16.6806 15.0873 16.22 15.5477C15.7595 16.0081 15.1482 16.2853 14.4984 16.3276Z" fill="#61646B"/>
</svg>
