<svg width="21" height="23" viewBox="0 0 21 23" fill="none" xmlns="http://www.w3.org/2000/svg">
<path d="M17.3067 2.97741C15.4603 1.13476 13.0307 0.12085 10.4629 0.12085H10.4456C7.86272 0.125444 5.38722 1.1547 3.56249 2.98268C1.73776 4.81067 0.712915 7.28799 0.712919 9.87085V14.5898C0.710008 15.3402 0.933394 16.0741 1.35392 16.6956C1.77445 17.3172 2.37259 17.7975 3.07026 18.074L4.18167 18.5155C4.29772 18.5616 4.40038 18.636 4.48022 18.732C4.56007 18.8279 4.61456 18.9424 4.6387 19.0649L5.10745 21.4148C5.17613 21.7544 5.35996 22.0599 5.62789 22.2797C5.89582 22.4994 6.2314 22.6199 6.57792 22.6208H7.08792C7.18738 22.6208 7.28276 22.5813 7.35308 22.511C7.42341 22.4407 7.46292 22.3453 7.46292 22.2458V20.3919C7.46292 19.9884 7.77323 19.6419 8.17682 19.6218C8.27823 19.6169 8.37958 19.6327 8.47471 19.6681C8.56985 19.7035 8.65681 19.7579 8.73031 19.828C8.8038 19.898 8.86232 19.9822 8.9023 20.0755C8.94229 20.1689 8.96291 20.2693 8.96292 20.3708V22.2458C8.96292 22.3453 9.00243 22.4407 9.07275 22.511C9.14308 22.5813 9.23846 22.6208 9.33792 22.6208C9.43737 22.6208 9.53276 22.5813 9.60308 22.511C9.67341 22.4407 9.71292 22.3453 9.71292 22.2458V20.3919C9.71292 19.9884 10.0232 19.6419 10.4268 19.6218C10.5282 19.6169 10.6296 19.6327 10.7247 19.6681C10.8199 19.7035 10.9068 19.7579 10.9803 19.828C11.0538 19.898 11.1123 19.9822 11.1523 20.0755C11.1923 20.1689 11.2129 20.2693 11.2129 20.3708V22.2458C11.2129 22.3453 11.2524 22.4407 11.3228 22.511C11.3931 22.5813 11.4885 22.6208 11.5879 22.6208C11.6874 22.6208 11.7828 22.5813 11.8531 22.511C11.9234 22.4407 11.9629 22.3453 11.9629 22.2458V20.3919C11.9629 19.9884 12.2732 19.6419 12.6768 19.6218C12.7782 19.6169 12.8796 19.6327 12.9747 19.6681C13.0699 19.7035 13.1568 19.7579 13.2303 19.828C13.3038 19.898 13.3623 19.9822 13.4023 20.0755C13.4423 20.1689 13.4629 20.2693 13.4629 20.3708V22.2458C13.4629 22.3453 13.5024 22.4407 13.5728 22.511C13.6431 22.5813 13.7385 22.6208 13.8379 22.6208H14.3479C14.6945 22.6201 15.0301 22.4997 15.2981 22.28C15.5661 22.0603 15.7501 21.7549 15.8189 21.4152L16.2876 19.0649C16.312 18.9426 16.3666 18.8283 16.4463 18.7324C16.526 18.6365 16.6284 18.5619 16.7442 18.5155L17.8556 18.074C18.5533 17.7975 19.1514 17.3172 19.5719 16.6956C19.9924 16.0741 20.2158 15.3402 20.2129 14.5898V9.94913C20.2129 7.32413 19.1817 4.84866 17.3067 2.97741ZM6.50948 15.1152C5.97682 15.1501 5.44617 15.0218 4.98832 14.7473C4.53046 14.4729 4.16716 14.0654 3.94687 13.5791C3.72657 13.0929 3.65975 12.5511 3.75532 12.0259C3.85088 11.5007 4.10429 11.0171 4.48175 10.6397C4.85921 10.2622 5.34278 10.0088 5.86796 9.91325C6.39314 9.81768 6.93498 9.8845 7.42121 10.1048C7.90744 10.3251 8.31496 10.6884 8.5894 11.1462C8.86385 11.6041 8.99218 12.1347 8.95729 12.6674C8.91567 13.3029 8.64441 13.9016 8.19406 14.352C7.74372 14.8023 7.145 15.0736 6.50948 15.1152ZM11.6348 17.9919C11.5058 18.078 11.3539 18.1229 11.1989 18.1208H9.72698C9.5723 18.1227 9.42067 18.0778 9.29198 17.9919C9.16628 17.9067 9.0694 17.7854 9.01415 17.6439C8.95891 17.5025 8.94791 17.3476 8.98261 17.1998L9.72839 14.9685C9.85354 14.6521 10.0528 14.4177 10.3692 14.3769C10.7564 14.3301 11.0254 14.5115 11.1946 14.9498L11.9446 17.1998C11.9793 17.3476 11.9682 17.5026 11.9129 17.644C11.8576 17.7855 11.7606 17.9068 11.6348 17.9919ZM14.7604 15.1152C14.2278 15.1501 13.6971 15.0218 13.2393 14.7473C12.7814 14.4729 12.4181 14.0654 12.1978 13.5791C11.9775 13.0929 11.9107 12.5511 12.0063 12.0259C12.1018 11.5007 12.3552 11.0171 12.7327 10.6397C13.1102 10.2622 13.5937 10.0088 14.1189 9.91325C14.6441 9.81768 15.1859 9.8845 15.6722 10.1048C16.1584 10.3251 16.5659 10.6884 16.8403 11.1462C17.1148 11.6041 17.2431 12.1347 17.2082 12.6674C17.1666 13.3031 16.8952 13.9019 16.4446 14.3523C15.9941 14.8027 15.3961 15.0738 14.7604 15.1152Z" fill="#61646B"/>
</svg>
