<svg width="18" height="18" viewBox="0 0 18 18" fill="none" xmlns="http://www.w3.org/2000/svg">
<path fill-rule="evenodd" clip-rule="evenodd" d="M5.26298 0.599854C2.67507 0.599854 0.577148 2.69777 0.577148 5.28568V12.8769C0.577148 15.4648 2.67507 17.5627 5.26298 17.5627H12.8542C15.4421 17.5627 17.54 15.4648 17.54 12.8769V5.28568C17.54 2.69777 15.4421 0.599854 12.8542 0.599854H5.26298ZM4.83674 6.34642C4.42612 5.93581 4.42612 5.27006 4.83674 4.85944C5.24735 4.44882 5.9131 4.44882 6.32372 4.85944L9.05869 7.59442L11.7937 4.85944C12.2043 4.44882 12.87 4.44882 13.2807 4.85944C13.6913 5.27006 13.6913 5.93581 13.2807 6.34642L10.5457 9.0814L13.2806 11.8164C13.6913 12.227 13.6913 12.8927 13.2806 13.3033C12.87 13.714 12.2043 13.714 11.7937 13.3033L9.05869 10.5684L6.32373 13.3033C5.91311 13.714 5.24737 13.714 4.83675 13.3033C4.42613 12.8927 4.42613 12.227 4.83675 11.8164L7.57171 9.0814L4.83674 6.34642Z" fill="#E85660"/>
</svg>
