<svg width="21" height="24" viewBox="0 0 21 24" fill="none" xmlns="http://www.w3.org/2000/svg">
<path d="M17.3067 3.60473C15.4603 1.76208 13.0307 0.748169 10.4629 0.748169H10.4456C7.86272 0.752763 5.38722 1.78202 3.56249 3.61C1.73776 5.43798 0.712915 7.91531 0.712919 10.4982V15.2171C0.710008 15.9675 0.933394 16.7014 1.35392 17.323C1.77445 17.9445 2.37259 18.4249 3.07026 18.7013L4.18167 19.1429C4.29772 19.1889 4.40038 19.2633 4.48022 19.3593C4.56007 19.4553 4.61456 19.5697 4.6387 19.6922L5.10745 22.0421C5.17613 22.3817 5.35996 22.6872 5.62789 22.907C5.89582 23.1268 6.2314 23.2473 6.57792 23.2482H7.08792C7.18738 23.2482 7.28276 23.2087 7.35308 23.1383C7.42341 23.068 7.46292 22.9726 7.46292 22.8732V21.0193C7.46292 20.6157 7.77323 20.2693 8.17682 20.2491C8.27823 20.2442 8.37958 20.26 8.47471 20.2954C8.56985 20.3309 8.65681 20.3852 8.73031 20.4553C8.8038 20.5253 8.86232 20.6095 8.9023 20.7029C8.94229 20.7962 8.96291 20.8966 8.96292 20.9982V22.8732C8.96292 22.9726 9.00243 23.068 9.07275 23.1383C9.14308 23.2087 9.23846 23.2482 9.33792 23.2482C9.43737 23.2482 9.53276 23.2087 9.60308 23.1383C9.67341 23.068 9.71292 22.9726 9.71292 22.8732V21.0193C9.71292 20.6157 10.0232 20.2693 10.4268 20.2491C10.5282 20.2442 10.6296 20.26 10.7247 20.2954C10.8199 20.3309 10.9068 20.3852 10.9803 20.4553C11.0538 20.5253 11.1123 20.6095 11.1523 20.7029C11.1923 20.7962 11.2129 20.8966 11.2129 20.9982V22.8732C11.2129 22.9726 11.2524 23.068 11.3228 23.1383C11.3931 23.2087 11.4885 23.2482 11.5879 23.2482C11.6874 23.2482 11.7828 23.2087 11.8531 23.1383C11.9234 23.068 11.9629 22.9726 11.9629 22.8732V21.0193C11.9629 20.6157 12.2732 20.2693 12.6768 20.2491C12.7782 20.2442 12.8796 20.26 12.9747 20.2954C13.0699 20.3309 13.1568 20.3852 13.2303 20.4553C13.3038 20.5253 13.3623 20.6095 13.4023 20.7029C13.4423 20.7962 13.4629 20.8966 13.4629 20.9982V22.8732C13.4629 22.9726 13.5024 23.068 13.5728 23.1383C13.6431 23.2087 13.7385 23.2482 13.8379 23.2482H14.3479C14.6945 23.2474 15.0301 23.127 15.2981 22.9073C15.5661 22.6877 15.7501 22.3822 15.8189 22.0425L16.2876 19.6922C16.312 19.5699 16.3666 19.4556 16.4463 19.3597C16.526 19.2638 16.6284 19.1892 16.7442 19.1429L17.8556 18.7013C18.5533 18.4249 19.1514 17.9445 19.5719 17.323C19.9924 16.7014 20.2158 15.9675 20.2129 15.2171V10.5765C20.2129 7.95145 19.1817 5.47598 17.3067 3.60473ZM6.50948 15.7425C5.97682 15.7774 5.44617 15.6491 4.98832 15.3747C4.53046 15.1002 4.16716 14.6927 3.94687 14.2065C3.72657 13.7202 3.65975 13.1784 3.75532 12.6532C3.85088 12.128 4.10429 11.6445 4.48175 11.267C4.85921 10.8895 5.34278 10.6361 5.86796 10.5406C6.39314 10.445 6.93498 10.5118 7.42121 10.7321C7.90744 10.9524 8.31496 11.3157 8.5894 11.7736C8.86385 12.2314 8.99218 12.7621 8.95729 13.2947C8.91567 13.9303 8.64441 14.529 8.19406 14.9793C7.74372 15.4297 7.145 15.7009 6.50948 15.7425ZM11.6348 18.6193C11.5058 18.7053 11.3539 18.7502 11.1989 18.7482H9.72698C9.5723 18.75 9.42067 18.7051 9.29198 18.6193C9.16628 18.5341 9.0694 18.4127 9.01415 18.2713C8.95891 18.1298 8.94791 17.9749 8.98261 17.8271L9.72839 15.5958C9.85354 15.2794 10.0528 15.045 10.3692 15.0043C10.7564 14.9574 11.0254 15.1388 11.1946 15.5771L11.9446 17.8271C11.9793 17.975 11.9682 18.1299 11.9129 18.2713C11.8576 18.4128 11.7606 18.5341 11.6348 18.6193ZM14.7604 15.7425C14.2278 15.7774 13.6971 15.6491 13.2393 15.3747C12.7814 15.1002 12.4181 14.6927 12.1978 14.2065C11.9775 13.7202 11.9107 13.1784 12.0063 12.6532C12.1018 12.128 12.3552 11.6445 12.7327 11.267C13.1102 10.8895 13.5937 10.6361 14.1189 10.5406C14.6441 10.445 15.1859 10.5118 15.6722 10.7321C16.1584 10.9524 16.5659 11.3157 16.8403 11.7736C17.1148 12.2314 17.2431 12.7621 17.2082 13.2947C17.1666 13.9304 16.8952 14.5292 16.4446 14.9796C15.9941 15.43 15.3961 15.7011 14.7604 15.7425Z" fill="#E85660"/>
</svg>
