<svg width="25" height="25" viewBox="0 0 25 25" fill="none" xmlns="http://www.w3.org/2000/svg">
<path fill-rule="evenodd" clip-rule="evenodd" d="M12.3473 2.796C6.89515 2.796 2.47532 7.21583 2.47532 12.668C2.47532 18.1202 6.89515 22.5399 12.3473 22.5399C17.7995 22.5399 22.2193 18.1202 22.2193 12.668C22.2193 7.21583 17.7995 2.796 12.3473 2.796ZM0.00732422 12.668C0.00732422 5.8528 5.53212 0.328003 12.3473 0.328003C19.1625 0.328003 24.6873 5.8528 24.6873 12.668C24.6873 19.4832 19.1625 25.0079 12.3473 25.0079C5.53212 25.0079 0.00732422 19.4832 0.00732422 12.668ZM12.3473 10.2C13.0288 10.2 13.5813 10.7525 13.5813 11.434V17.604C13.5813 18.2855 13.0288 18.838 12.3473 18.838C11.6658 18.838 11.1133 18.2855 11.1133 17.604V11.434C11.1133 10.7525 11.6658 10.2 12.3473 10.2Z" fill="#CAB8FF"/>
<path d="M12.3473 8.34898C13.0288 8.34898 13.5813 7.7965 13.5813 7.11498C13.5813 6.43347 13.0288 5.88099 12.3473 5.88099C11.6658 5.88099 11.1133 6.43347 11.1133 7.11498C11.1133 7.7965 11.6658 8.34898 12.3473 8.34898Z" fill="#CAB8FF"/>
</svg>
