<svg width="30" height="40" viewBox="0 0 30 40" fill="none" xmlns="http://www.w3.org/2000/svg">
<path fill-rule="evenodd" clip-rule="evenodd" d="M29.3691 5.23068C29.3691 2.88072 27.4641 0.975708 25.1142 0.975708H9.87556C7.52561 0.975708 5.62059 2.88072 5.62059 5.23068V6.70855L9.87556 9.96674V5.23068L23.5197 5.23068L18.6723 10.559C18.2572 11.0152 18.028 11.604 18.028 12.214V28.7483H9.87556V24.2583L5.62059 27.5165V28.7483C5.62059 31.0983 7.5256 33.0033 9.87556 33.0033H18.028V37.2494C18.028 39.5429 20.9345 40.6197 22.495 38.9044L28.7249 32.0565C29.1399 31.6002 29.3691 31.0114 29.3691 30.4014V5.23068ZM21.0815 24.3412C21.0815 25.3646 21.7157 26.1941 22.4979 26.1941C23.2802 26.1941 23.9143 25.3646 23.9143 24.3412C23.9143 23.3179 23.2802 22.4883 22.4979 22.4883C21.7157 22.4883 21.0815 23.3179 21.0815 24.3412Z" fill="#CAB8FF"/>
<path d="M13.2368 15.8456C14.0708 16.4843 14.0708 17.7407 13.2368 18.3793L3.17015 26.0877C2.12036 26.8915 0.604456 26.143 0.604456 24.8208V9.40412C0.604456 8.0819 2.12036 7.33339 3.17015 8.13725L13.2368 15.8456Z" fill="#CAB8FF"/>
</svg>
