<svg width="41" height="42" viewBox="0 0 41 42" fill="none" xmlns="http://www.w3.org/2000/svg">
<path fill-rule="evenodd" clip-rule="evenodd" d="M7.87207 6.56141C7.87207 4.18433 9.79908 2.25732 12.1762 2.25732H27.5907C29.9677 2.25732 31.8948 4.18433 31.8948 6.56141V8.05634L27.5907 11.3521V6.56141L13.7891 6.56141L18.6924 11.9512C19.1122 12.4127 19.3441 13.0083 19.3441 13.6253V30.3505H27.5907V25.8087L31.8948 29.1045V30.3505C31.8948 32.7276 29.9678 34.6546 27.5907 34.6546H19.3441V38.9497C19.3441 41.2697 16.4041 42.359 14.8256 40.6239L8.52376 33.6968C8.10393 33.2354 7.87207 32.6397 7.87207 32.0227V6.56141ZM16.2554 25.8926C16.2554 26.9277 15.6139 27.7669 14.8226 27.7669C14.0313 27.7669 13.3898 26.9277 13.3898 25.8926C13.3898 24.8574 14.0313 24.0183 14.8226 24.0183C15.6139 24.0183 16.2554 24.8574 16.2554 25.8926Z" fill="#CAB8FF"/>
<path d="M24.1906 17.2989C23.347 17.9449 23.347 19.2158 24.1906 19.8618L34.3735 27.6592C35.4354 28.4723 36.9688 27.7152 36.9688 26.3777V10.783C36.9688 9.44554 35.4354 8.6884 34.3735 9.50154L24.1906 17.2989Z" fill="#CAB8FF"/>
</svg>
