<svg width="21" height="20" viewBox="0 0 21 20" fill="none" xmlns="http://www.w3.org/2000/svg">
<path d="M2.62221 19.8373C2.60275 19.8044 2.54424 19.7551 2.49218 19.7278C2.41086 19.6852 2.39399 19.6917 2.37243 19.7742C2.34768 19.8688 2.346 19.869 2.25447 19.7861C2.18507 19.7233 2.1427 19.7134 2.08668 19.7467C1.98164 19.8091 1.8701 19.7755 1.84339 19.6734C1.82951 19.6203 1.76801 19.5764 1.68402 19.5596C1.60879 19.5446 1.54724 19.5169 1.54724 19.498C1.54724 19.4791 1.4823 19.4637 1.40294 19.4637C1.32357 19.4637 1.18919 19.4342 1.10433 19.3981L0.950024 19.3324L1.11706 19.3433C1.20893 19.3493 1.2931 19.3397 1.30412 19.3219C1.31514 19.304 1.40918 19.3058 1.51311 19.3258C1.68276 19.3585 1.71129 19.3511 1.79221 19.2537C1.84179 19.194 1.92639 19.1452 1.98022 19.1452C2.03405 19.1452 2.0781 19.1246 2.0781 19.0994C2.0781 19.0696 2.10507 19.068 2.15551 19.0949C2.30041 19.1721 2.87778 19.1223 3.19417 19.0053C3.52444 18.8831 3.67067 18.7747 3.67067 18.6517C3.67067 18.5733 3.57461 18.542 3.40524 18.5653C3.36874 18.5703 3.23935 18.5797 3.11769 18.5861C2.98289 18.5931 2.90044 18.6171 2.90658 18.6473C2.91323 18.6801 2.86452 18.6885 2.76318 18.6721C2.67621 18.6579 2.58353 18.6689 2.5493 18.6973C2.51446 18.7262 2.43012 18.7356 2.34997 18.7196C2.26441 18.7025 2.18517 18.7133 2.14373 18.7477C2.08882 18.7933 2.06171 18.7902 1.99637 18.7311C1.8946 18.639 1.82792 18.6392 1.77607 18.7319C1.73878 18.7985 1.72299 18.7965 1.60115 18.7098C1.45585 18.6063 1.37028 18.5879 1.37028 18.6602C1.37028 18.7268 1.19369 18.6251 1.19194 18.5576C1.18967 18.4697 1.00831 18.3641 0.772628 18.3134C0.651217 18.2872 0.482206 18.2338 0.397048 18.1946C0.244214 18.1242 0.247231 18.1236 0.63055 18.148C0.955359 18.1687 1.02318 18.1615 1.04512 18.1044C1.09361 17.978 1.32714 17.9161 1.59215 17.9595C2.26674 18.0697 2.36265 18.072 2.88018 17.99C3.16317 17.9451 3.44685 17.8886 3.51057 17.8644C3.65938 17.8078 3.66434 17.648 3.52144 17.5137C3.42553 17.4236 3.41037 17.4212 3.3462 17.4853C3.28843 17.5431 3.26037 17.5459 3.18823 17.5008C3.1156 17.4554 3.08612 17.4591 3.01677 17.5218C2.9569 17.576 2.89315 17.5896 2.79311 17.5696C2.68196 17.5474 2.65319 17.5564 2.65319 17.6135C2.65319 17.6921 2.57743 17.7061 2.48137 17.6453C2.44701 17.6235 2.36254 17.623 2.28882 17.6441C2.20189 17.669 2.09918 17.6617 1.98507 17.6224C1.83916 17.5721 1.81267 17.5724 1.81267 17.6242C1.81267 17.7051 1.74875 17.7019 1.6786 17.6174C1.64756 17.58 1.59038 17.5532 1.55152 17.5579C1.51267 17.5626 1.42371 17.543 1.35384 17.5144C1.26455 17.4777 1.21016 17.4761 1.17078 17.5088C1.08983 17.5759 0.920919 17.4877 0.831185 17.3314C0.782924 17.2473 0.63847 17.1428 0.411432 17.0279C0.015867 16.8276 0.0426708 16.7443 0.456845 16.8868C0.707309 16.973 0.715174 16.9731 0.801938 16.8923C0.963749 16.7415 1.24314 16.7537 1.70034 16.9315C1.77239 16.9595 1.87568 16.9713 1.92988 16.9577C1.98409 16.9441 2.04208 16.9551 2.05877 16.9821C2.07937 17.0154 2.19736 17.0217 2.42644 17.0016C2.61198 16.9853 2.87133 16.9625 3.00278 16.9509C3.22368 16.9313 3.49371 16.8021 3.49371 16.716C3.49371 16.6652 3.34007 16.5352 3.2801 16.5352C3.2516 16.5352 3.22828 16.5551 3.22828 16.5794C3.22828 16.637 3.06475 16.6369 3.02914 16.5793C3.01081 16.5496 2.97425 16.5496 2.91884 16.5793C2.80466 16.6404 2.66464 16.6349 2.64054 16.5683C2.62477 16.5248 2.60123 16.5244 2.53003 16.5663C2.45723 16.6092 2.42925 16.6073 2.38689 16.5562C2.34723 16.5084 2.31281 16.5042 2.24743 16.5392C2.18251 16.574 2.13493 16.5688 2.05864 16.5188C2.00254 16.4821 1.91419 16.4631 1.8623 16.4767C1.81041 16.4903 1.73815 16.4766 1.70173 16.4464C1.66222 16.4136 1.58141 16.4022 1.50148 16.4182C1.38624 16.4413 1.36136 16.429 1.32385 16.3303C1.29097 16.2438 1.25783 16.2214 1.18923 16.2394C1.09475 16.2641 0.927903 16.1551 0.927903 16.0687C0.927903 16.0045 0.595662 15.842 0.385987 15.8036C0.294747 15.7869 0.220094 15.7556 0.220094 15.734C0.220094 15.6867 0.693329 15.6869 0.814008 15.7343C0.871185 15.7567 0.92494 15.7419 0.977539 15.6893C1.07496 15.5919 1.44559 15.6108 1.61507 15.7219C1.6766 15.7622 1.7389 15.7832 1.75351 15.7686C1.76812 15.754 1.82224 15.7655 1.87378 15.7941C1.92533 15.8228 2.01936 15.849 2.08274 15.8524C2.14612 15.8557 2.22268 15.8738 2.25289 15.8924C2.32372 15.9362 3.33696 15.9669 3.5326 15.9312C3.62647 15.914 3.69011 15.8732 3.70365 15.8214C3.71552 15.7761 3.7509 15.7389 3.78228 15.7389C3.87363 15.7389 3.80847 15.5824 3.67651 15.4848C3.6108 15.4362 3.45818 15.3841 3.33736 15.369C3.21654 15.3539 3.0744 15.3328 3.02148 15.3222C2.89846 15.2975 2.56471 14.9755 2.56471 14.8815C2.56471 14.8421 2.54633 14.8099 2.52387 14.8099C2.50141 14.8099 2.42675 14.7647 2.35798 14.7094C2.2892 14.654 2.17321 14.6023 2.10021 14.5945C2.02722 14.5866 1.95755 14.5697 1.94538 14.5569C1.91041 14.5201 2.52587 14.593 2.65055 14.6404C2.71232 14.6639 2.82777 14.6709 2.9071 14.656C2.99519 14.6395 3.05133 14.647 3.05133 14.6752C3.05133 14.7327 3.2303 14.7353 3.37581 14.68C3.4662 14.6456 3.48868 14.6532 3.50726 14.7243C3.52132 14.778 3.56831 14.8102 3.63335 14.8106C3.80428 14.8116 3.93609 14.8608 3.93609 14.9236C3.93609 14.9775 4.18564 15.0745 4.32579 15.0751C4.35764 15.0753 4.37086 15.0962 4.35516 15.1216C4.29884 15.2127 4.42935 15.3021 4.57267 15.2707C4.68995 15.2449 4.70101 15.2499 4.65355 15.3071C4.57117 15.4063 4.69168 15.4895 4.86328 15.4518C4.98603 15.4248 4.99781 15.4322 4.99781 15.5364C4.99781 15.6609 5.05426 15.6773 5.24009 15.6066C5.3384 15.5692 5.35351 15.5741 5.3425 15.6398C5.33391 15.6911 5.36291 15.7216 5.42913 15.731C5.48388 15.7387 5.52867 15.761 5.52867 15.7804C5.52867 15.7999 5.64195 15.8184 5.78042 15.8216C5.91888 15.8248 6.0433 15.8451 6.0569 15.8666C6.07051 15.8882 6.15629 15.9012 6.24754 15.8956C6.33878 15.8899 6.41343 15.8976 6.41343 15.9127C6.41343 15.9277 6.54282 15.9459 6.70098 15.953C6.93788 15.9636 6.98852 15.9536 6.98852 15.8967C6.98852 15.8586 6.96598 15.8274 6.93842 15.8274C6.91086 15.8274 6.8559 15.7926 6.81629 15.75C6.77668 15.7074 6.69562 15.645 6.63616 15.6113C6.54885 15.5617 6.52437 15.561 6.50895 15.6072C6.4973 15.6422 6.41529 15.5798 6.29851 15.4473C6.13067 15.2569 6.10695 15.2428 6.10546 15.3323C6.10317 15.4697 6.02923 15.4165 5.99297 15.2514C5.95977 15.1003 5.8339 15.009 5.76022 15.0827C5.72647 15.1165 5.68641 15.0784 5.62136 14.9509C5.50662 14.726 5.45074 14.6909 5.3723 14.7944C5.31414 14.8712 5.3102 14.8689 5.30888 14.7578C5.30662 14.5683 5.08429 14.4079 5.02855 14.5556C5.01708 14.586 4.97449 14.5342 4.93391 14.4405C4.87763 14.3105 4.84038 14.2752 4.77682 14.2918C4.71077 14.3091 4.68149 14.2758 4.63553 14.1308C4.57564 13.942 4.44416 13.8631 4.37526 13.9746C4.33832 14.0344 4.27718 13.9225 4.23943 13.7261C4.22923 13.673 4.18727 13.6376 4.13456 13.6376C4.02953 13.6376 3.98193 13.5817 3.98101 13.4573C3.98017 13.354 3.7922 13.1548 3.74239 13.2046C3.69399 13.253 3.62488 13.1182 3.65254 13.0294C3.71574 12.8262 3.48334 12.6274 3.34474 12.766C3.27794 12.8328 3.27196 12.8317 3.26496 12.7513C3.25006 12.5802 3.23893 12.5296 3.18424 12.3845C3.13747 12.2604 3.1123 12.2414 3.0237 12.2637C2.91343 12.2914 2.91502 12.2951 2.9013 11.9787C2.8973 11.8865 2.87624 11.8695 2.77484 11.8764C2.66131 11.8842 2.65319 11.8731 2.65319 11.7105C2.65319 11.585 2.63461 11.5363 2.58666 11.5363C2.5388 11.5363 2.52329 11.496 2.53137 11.3926C2.5407 11.2731 2.52582 11.2464 2.44306 11.2347C2.35262 11.2218 2.34352 11.1965 2.34352 10.9581C2.34352 10.6882 2.29635 10.632 2.16972 10.7511C2.12115 10.7968 2.11469 10.7679 2.13258 10.5852C2.1611 10.2938 2.11932 10.1431 2.00963 10.1417C1.91987 10.1405 1.9197 10.1393 1.9639 9.79534C1.98255 9.6502 1.97216 9.62123 1.89412 9.60083C1.81353 9.57975 1.80562 9.55352 1.82882 9.38427C1.84448 9.26995 1.83758 9.1917 1.81182 9.1917C1.78796 9.1917 1.76843 9.14945 1.76843 9.09781C1.76843 9.01546 1.75942 9.01138 1.69513 9.06463C1.62826 9.12002 1.62472 9.10983 1.65478 8.94839C1.69326 8.74172 1.69191 8.75616 1.68519 8.62468C1.68103 8.54315 1.66184 8.52792 1.59147 8.55025C1.4857 8.58382 1.47646 8.51368 1.56444 8.34506C1.62017 8.23825 1.61476 7.99727 1.55662 7.99727C1.54312 7.99727 1.49418 8.03157 1.44786 8.07349C1.36653 8.14709 1.36464 8.14519 1.39267 8.01819C1.40864 7.94586 1.44226 7.83229 1.46739 7.76582C1.52796 7.60556 1.48299 7.494 1.36974 7.52361C1.26384 7.55131 1.2628 7.54301 1.35081 7.37281C1.44858 7.18374 1.41978 7.00579 1.2884 6.9872C1.19926 6.97457 1.18886 6.95562 1.2156 6.85448C1.23275 6.78958 1.24968 6.65686 1.25323 6.55953C1.25878 6.40736 1.24574 6.3806 1.16015 6.36844C1.04445 6.35201 1.03345 6.30537 1.12697 6.22775C1.21345 6.15598 1.211 6.07479 1.11959 5.98339C1.05716 5.92096 1.0539 5.88748 1.09828 5.76475C1.15832 5.5987 1.12684 5.47003 1.03482 5.50535C0.952595 5.5369 0.954956 5.47952 1.03974 5.38584C1.13752 5.27779 1.05366 5.05975 0.929506 5.09916C0.845768 5.12574 0.844932 5.11924 0.90573 4.91412C0.955877 4.74494 0.968905 4.51018 0.932929 4.42403C0.930153 4.41739 0.877778 4.44478 0.816537 4.48491C0.710646 4.55429 0.706612 4.5538 0.734242 4.47487C0.750226 4.42922 0.791343 4.36906 0.825624 4.34119C0.878669 4.29805 0.87553 4.27007 0.804537 4.15333C0.758659 4.07789 0.707922 4.02937 0.691789 4.0455C0.675655 4.06164 0.662456 4.05558 0.662456 4.03208C0.662456 4.00856 0.684049 3.96772 0.71044 3.94133C0.786599 3.86517 0.742277 3.68181 0.651398 3.69707C0.568482 3.711 0.542753 3.598 0.618219 3.55136C0.692776 3.50528 0.667739 3.39778 0.556554 3.2866C0.498306 3.22835 0.462573 3.16877 0.477144 3.1542C0.491724 3.13964 0.505633 3.0482 0.508071 2.95102C0.511298 2.82263 0.496718 2.78039 0.454766 2.79649C0.384616 2.82341 0.382389 2.79872 0.4445 2.68267C0.478333 2.61945 0.478263 2.55464 0.444333 2.45708C0.405528 2.34577 0.410057 2.30534 0.468582 2.24067C0.543785 2.15757 0.524889 2.02514 0.437829 2.02514C0.410039 2.02514 0.431977 1.98897 0.486567 1.94476C0.56999 1.87721 0.577813 1.84939 0.535587 1.77049C0.5026 1.70886 0.500577 1.66719 0.529702 1.64919C0.554099 1.63411 0.57406 1.59045 0.57406 1.55216C0.57406 1.51387 0.61 1.45035 0.653929 1.411C0.732952 1.34021 0.927335 0.811569 0.928642 0.66389C0.929311 0.598035 0.935547 0.596626 0.97415 0.653758C1.00066 0.692991 1.00774 0.84064 0.99148 1.01496C0.966228 1.28569 0.971728 1.31396 1.05869 1.3605C1.12607 1.39656 1.14535 1.43657 1.12551 1.4991C1.11016 1.54745 1.12083 1.61499 1.14922 1.6492C1.18748 1.69529 1.189 1.78922 1.15511 2.01204C1.10384 2.34911 1.1864 3.13614 1.27618 3.16606C1.30364 3.17522 1.32611 3.21857 1.32611 3.2624C1.32611 3.34645 1.50074 3.485 1.60668 3.485C1.64105 3.485 1.69375 3.4554 1.72377 3.41921C1.79275 3.3361 1.74528 3.13109 1.65705 3.13109C1.57979 3.13109 1.57635 3.10942 1.63593 2.99809C1.67026 2.93395 1.66154 2.90198 1.59749 2.85711C1.51093 2.79649 1.50448 2.75175 1.50303 2.20209C1.50153 1.6471 1.50914 1.57765 1.57371 1.55287C1.67149 1.51535 1.64607 1.40581 1.53959 1.40581H1.4434L1.53959 1.30342C1.64508 1.19112 1.66765 1.05212 1.58048 1.05152C1.55006 1.05135 1.59902 0.981142 1.68927 0.895597C1.80034 0.790316 1.86187 0.686806 1.8797 0.575254C1.89418 0.484611 1.92486 0.375881 1.94786 0.333631C1.97086 0.291382 1.98968 0.216731 1.98968 0.167738C1.98968 0.118747 2.00461 0.0786631 2.02286 0.0786664C2.0411 0.0786681 2.0584 0.222994 2.06128 0.399391C2.06531 0.64606 2.08943 0.758633 2.16573 0.886935C2.22384 0.984643 2.25494 1.09199 2.24081 1.14605C2.22753 1.19682 2.23418 1.28444 2.2556 1.34077C2.2837 1.41467 2.27623 1.45839 2.22877 1.49778C2.18658 1.53279 2.16457 1.62523 2.16738 1.75557C2.16979 1.86734 2.15807 2.06391 2.14132 2.19239C2.10486 2.47212 2.25827 3.09215 2.40413 3.25459C2.53508 3.40041 2.67174 3.36772 2.68922 3.18639C2.69715 3.1042 2.68257 3.04262 2.6552 3.04262C2.62637 3.04262 2.61823 2.99914 2.63475 2.93333C2.65289 2.86106 2.63732 2.79919 2.58881 2.75067C2.54589 2.70775 2.52776 2.64754 2.54512 2.60559C2.62282 2.41786 2.61967 2.37355 2.52687 2.34928C2.47527 2.33579 2.44391 2.30718 2.45718 2.2857C2.49051 2.23176 2.52953 2.06899 2.54084 1.93666C2.54604 1.87583 2.56576 1.7909 2.58466 1.74791C2.60357 1.70493 2.60871 1.61576 2.5961 1.54977C2.58123 1.47203 2.60332 1.38743 2.65885 1.30945C2.71579 1.22948 2.7353 1.15234 2.71701 1.07947C2.68358 0.946246 2.72845 0.787014 2.8 0.785001C2.94408 0.780955 3.1841 0.387023 3.1841 0.154599C3.1841 0.112833 3.20689 0.0786626 3.23473 0.0786626C3.27036 0.0786626 3.27734 0.164663 3.25827 0.368858C3.23823 0.583506 3.24966 0.705248 3.30217 0.8365C3.37932 1.02931 3.35943 1.55318 3.26851 1.72306C3.21108 1.83038 3.19358 2.63283 3.24239 2.92096C3.28263 3.15846 3.36248 3.19332 3.47454 3.02229C3.52182 2.95013 3.53619 2.86963 3.5172 2.7832C3.50005 2.70511 3.50831 2.6407 3.53782 2.62247C3.57231 2.60115 3.56556 2.55924 3.51523 2.48244C3.44891 2.38121 3.44898 2.36435 3.51624 2.26177C3.55626 2.20068 3.57747 2.12065 3.56338 2.08391C3.54928 2.04717 3.58045 1.95713 3.63264 1.88384C3.71075 1.77414 3.71665 1.74377 3.66597 1.71215C3.61656 1.68131 3.62405 1.65989 3.70394 1.60362C3.80859 1.5299 3.84104 1.36157 3.75059 1.36157C3.72151 1.36157 3.77625 1.28807 3.87225 1.19823C4.01339 1.06615 4.03197 1.03167 3.96937 1.01804C3.87655 0.99782 3.86536 0.919187 3.95529 0.919187C3.99013 0.919187 4.06116 0.859465 4.11314 0.786473C4.16511 0.71348 4.23278 0.653758 4.26351 0.653758C4.32153 0.653758 4.35552 0.597324 4.50997 0.244556C4.56057 0.128984 4.61799 0.0344238 4.63757 0.0344238C4.65715 0.0344238 4.64648 0.164191 4.61386 0.322796C4.5585 0.592019 4.56059 0.622978 4.64532 0.789069C4.70595 0.907909 4.72977 1.02191 4.71707 1.13246C4.69684 1.30854 4.41987 1.89155 4.31518 1.97844C4.28068 2.00706 4.2612 2.07748 4.27172 2.1355C4.28221 2.19335 4.27239 2.25208 4.24978 2.26602C4.16611 2.31773 4.17594 3.52967 4.26046 3.58344C4.36034 3.64698 4.50173 3.61674 4.5656 3.51817C4.60107 3.46343 4.64325 3.29062 4.65932 3.13414C4.69496 2.78722 4.76054 2.68082 5.04763 2.50417C5.21986 2.3982 5.29536 2.31379 5.38244 2.12988C5.44428 1.99928 5.51499 1.89242 5.53958 1.89242C5.59345 1.89242 5.54393 2.25384 5.48508 2.29022C5.43714 2.31985 5.41786 2.72668 5.45965 2.82678C5.47846 2.8718 5.46397 2.90832 5.4207 2.92492C5.37269 2.94335 5.3518 3.01071 5.3518 3.14709C5.3518 3.28026 5.33059 3.35095 5.28544 3.36828C5.24379 3.38426 5.21908 3.45191 5.21908 3.54996C5.21908 3.65348 5.19844 3.70619 5.15789 3.70619C5.09533 3.70619 5.04382 3.83507 5.04274 3.99431C5.0424 4.04383 4.99796 4.10273 4.9426 4.12702C4.88785 4.15103 4.83666 4.21577 4.82884 4.27088C4.82101 4.32598 4.79879 4.36129 4.77945 4.34934C4.71052 4.30674 4.59108 4.49956 4.58651 4.66082C4.58395 4.75102 4.57427 4.80205 4.565 4.77424C4.51624 4.62797 4.33432 4.79402 4.33432 4.9848C4.33432 5.04123 4.31251 5.06642 4.27585 5.05235C4.20749 5.02612 4.09288 5.23703 4.10927 5.35889C4.11549 5.40514 4.10073 5.42903 4.07555 5.41347C3.98467 5.3573 3.93775 5.58778 3.99985 5.78538C4.02828 5.87585 4.02404 5.88591 3.97654 5.84068C3.87406 5.74307 3.85199 5.78017 3.86619 6.02623C3.87591 6.19459 3.86263 6.27378 3.82207 6.28934C3.78189 6.30476 3.77158 6.36337 3.78853 6.47982C3.81603 6.66864 3.96951 7.02405 4.02356 7.02405C4.08259 7.02405 4.20373 6.72715 4.17512 6.6526C4.15688 6.60505 4.19205 6.55785 4.28528 6.50479C4.4132 6.43197 4.47731 6.272 4.37856 6.272C4.28157 6.272 4.34291 6.18359 4.48753 6.11497C4.64883 6.03843 4.70886 5.93487 4.66229 5.81349C4.64162 5.75963 4.67556 5.72344 4.79258 5.67454C4.87961 5.63818 4.99127 5.60843 5.04071 5.60843C5.14867 5.60843 5.15319 5.57188 5.06143 5.44087C4.9954 5.34659 4.99872 5.33862 5.13472 5.26514C5.21307 5.2228 5.31623 5.15098 5.36395 5.10552C5.43451 5.03832 5.43941 5.0156 5.3902 4.98387C5.30688 4.93015 5.4071 4.86556 5.63208 4.82797C5.79647 4.8005 5.90811 4.68054 5.80214 4.64521C5.69845 4.61065 5.75383 4.55712 5.95015 4.50215C6.17095 4.44033 6.22767 4.38741 6.15308 4.31282C6.06859 4.22833 6.09672 4.20323 6.3361 4.14954C6.69937 4.06806 6.69551 4.07034 6.6115 3.98633C6.5423 3.91713 6.54528 3.90823 6.65722 3.84958C6.72308 3.81507 6.81242 3.79611 6.85577 3.80745C6.94278 3.8302 6.9812 3.81019 7.07144 3.69513C7.11825 3.63545 7.12029 3.60341 7.08035 3.55529C7.02288 3.48604 7.04377 3.46623 7.21815 3.42459C7.28357 3.40898 7.34947 3.41623 7.36461 3.44071C7.40999 3.51414 7.57525 3.40193 7.54352 3.31924C7.50795 3.22654 7.59703 3.17536 7.7431 3.20457C7.83458 3.22287 7.88172 3.20079 7.95787 3.10398C8.03195 3.0098 8.08806 2.98243 8.19096 2.99027C8.33517 3.00126 8.44453 2.90554 8.44706 2.76612C8.44823 2.70487 8.48771 2.68857 8.63648 2.68803C8.85617 2.68719 8.95817 2.63573 8.92277 2.54346C8.89067 2.45981 9.20773 2.40035 9.33181 2.46675C9.48403 2.54822 9.59866 2.52238 9.59866 2.40658C9.59866 2.2595 9.68831 2.19391 9.78885 2.26742C9.8963 2.34599 10.0392 2.30128 10.0876 2.17392C10.1318 2.05769 10.203 2.0443 10.3707 2.12071C10.5077 2.1831 10.7046 2.11118 10.7046 1.99881C10.7046 1.94205 10.731 1.93278 10.8263 1.95606C11.0436 2.00913 11.1254 2.00566 11.1125 1.94393C11.1033 1.89971 11.135 1.89249 11.2386 1.91524C11.3663 1.94328 11.3746 1.93812 11.3461 1.84831C11.3185 1.76139 11.3263 1.75483 11.4191 1.78695C11.4763 1.80673 11.5927 1.82362 11.6778 1.82449C11.8141 1.82583 11.8313 1.81367 11.8215 1.723C11.8112 1.62806 11.8217 1.62259 11.9542 1.65368C12.1988 1.71108 12.3054 1.6982 12.3579 1.60488C12.3853 1.55622 12.4144 1.50648 12.4225 1.49435C12.4305 1.48223 12.4637 1.5086 12.4961 1.55295C12.5779 1.66482 12.7923 1.63595 12.8496 1.50535C12.9 1.39039 13.0312 1.37583 13.1389 1.47323C13.2364 1.56151 13.3589 1.51167 13.3589 1.38369C13.3589 1.25003 13.4715 1.21234 13.6318 1.29233C13.7894 1.37092 13.8614 1.34828 13.9295 1.19884C13.9767 1.09525 13.988 1.09121 14.0572 1.15305C14.1812 1.2639 14.3039 1.26298 14.3535 1.15084C14.3822 1.08599 14.4214 1.0604 14.4645 1.07822C14.6305 1.14673 14.8322 1.18894 14.8891 1.16708C14.9234 1.15392 14.9515 1.10059 14.9515 1.04856C14.9515 0.975567 14.9691 0.961398 15.0289 0.986508C15.199 1.058 15.2889 1.05444 15.3834 0.972463C15.4378 0.92529 15.4823 0.864571 15.4823 0.837531C15.4823 0.801946 15.5132 0.802437 15.5941 0.839304C15.6789 0.877931 15.7185 0.877701 15.7578 0.8383C15.7863 0.809765 15.8538 0.786416 15.9077 0.786416C15.9617 0.786416 16.0134 0.763655 16.0227 0.735834C16.0352 0.698375 16.0655 0.699139 16.1395 0.738777C16.2682 0.807625 16.4998 0.759526 16.4998 0.663962C16.4998 0.606923 16.5177 0.612017 16.59 0.689595C16.6925 0.799599 16.7886 0.814025 16.8404 0.727193C16.9072 0.615528 17.0387 0.572634 17.172 0.619099C17.2625 0.650634 17.3162 0.64784 17.3628 0.609168C17.3997 0.578534 17.4755 0.567362 17.5388 0.583242C17.6138 0.602054 17.6501 0.592855 17.6502 0.555001C17.6503 0.521269 17.7162 0.495419 17.8153 0.490234C17.906 0.485485 17.9872 0.460603 17.9957 0.434937C18.0183 0.367234 18.117 0.377737 18.1808 0.454623C18.2423 0.528698 18.4463 0.545694 18.4463 0.476743C18.4463 0.410283 18.5321 0.4235 18.6106 0.502061C18.6582 0.549621 18.7166 0.561905 18.7955 0.540903C19.0844 0.463931 19.1658 0.474043 19.2829 0.601432C19.3983 0.727057 19.5696 0.812764 19.7734 0.846813C19.8342 0.856978 19.9537 0.895688 20.0388 0.932838L20.1937 1.00038L20.061 1.00923C19.988 1.01409 19.9083 1.01374 19.884 1.00839C19.8597 1.00309 19.7502 0.995769 19.6407 0.99209C19.4837 0.986823 19.4249 1.0061 19.3623 1.08331C19.2529 1.21834 19.0221 1.25101 18.6505 1.18411C18.2085 1.10452 17.9621 1.09994 17.83 1.16886C17.7675 1.20149 17.6809 1.22831 17.6375 1.22846C17.5942 1.22861 17.5473 1.25859 17.5333 1.29509C17.5193 1.33159 17.4801 1.36144 17.4462 1.36144C17.3615 1.36144 17.3681 1.52263 17.4541 1.55563C17.4924 1.57031 17.5646 1.56042 17.6146 1.53367C17.6708 1.50361 17.716 1.50107 17.733 1.52702C17.7839 1.60447 17.9794 1.62346 18.0657 1.55933C18.1119 1.52504 18.1687 1.5088 18.1921 1.52322C18.2166 1.53834 18.2091 1.56557 18.1745 1.58749C18.1391 1.60992 18.135 1.6258 18.1644 1.62619C18.1918 1.62653 18.239 1.59701 18.2693 1.56052C18.347 1.46699 18.3911 1.47696 18.514 1.61581C18.6045 1.71805 18.6285 1.72694 18.6648 1.6715C18.722 1.58422 18.8456 1.58597 18.955 1.67561C19.0109 1.72141 19.1228 1.74749 19.2588 1.74647C19.415 1.7453 19.4854 1.76509 19.5154 1.81857C19.5381 1.85912 19.596 1.8923 19.644 1.8923C19.6956 1.8923 19.748 1.93588 19.7718 1.9986C19.8214 2.12914 19.8368 2.13882 20.1939 2.26368C20.3519 2.31895 20.4669 2.37849 20.4494 2.396C20.4319 2.41351 20.4497 2.41547 20.4892 2.40036C20.5285 2.38525 20.5739 2.39416 20.59 2.42014C20.6275 2.48086 20.5024 2.48083 20.304 2.42007C19.9951 2.32548 19.8764 2.33192 19.7892 2.44797C19.6966 2.57132 19.4794 2.59385 19.3184 2.4968C19.2645 2.46431 19.1416 2.43256 19.0451 2.42624C18.9487 2.41992 18.7885 2.37653 18.6891 2.3298C18.5897 2.28308 18.4297 2.24613 18.3336 2.2477C18.2374 2.24921 18.111 2.24959 18.0526 2.24837C17.9942 2.2472 17.9246 2.26238 17.8978 2.28209C17.871 2.3018 17.7823 2.31671 17.7007 2.31522C17.5827 2.31306 17.5397 2.33704 17.4903 2.43246C17.4348 2.53976 17.4365 2.55663 17.506 2.59224C17.6376 2.65968 17.827 2.69265 17.827 2.64811C17.827 2.55311 18.0157 2.54791 18.1396 2.63949C18.2543 2.72431 18.2687 2.72597 18.3064 2.65872C18.3447 2.59031 18.3591 2.59058 18.511 2.66265C18.6635 2.73504 18.678 2.73527 18.7286 2.66613C18.7792 2.59692 18.7868 2.59698 18.8449 2.66696C18.9392 2.78048 19.1167 2.83685 19.1618 2.7676C19.19 2.72439 19.2189 2.73622 19.281 2.81645C19.3446 2.8984 19.3888 2.91585 19.4771 2.8937C19.5406 2.87777 19.6037 2.88556 19.6196 2.9113C19.6353 2.93671 19.6842 2.94606 19.7283 2.93208C19.7723 2.9181 19.8353 2.93325 19.8683 2.96593C19.9013 2.99853 19.965 3.03912 20.0099 3.05613C20.0548 3.07314 20.1017 3.12592 20.1141 3.17342C20.1265 3.221 20.2008 3.28093 20.2794 3.30689C20.4769 3.37208 20.7475 3.51337 20.7226 3.5383C20.7113 3.54964 20.5816 3.5407 20.4344 3.51841C20.2436 3.48954 20.1491 3.49255 20.1053 3.52891C20.0715 3.55696 19.9402 3.60727 19.8134 3.6407C19.6023 3.69641 19.5681 3.69428 19.4045 3.61524C19.3063 3.5678 19.2079 3.52899 19.1858 3.52899C19.1637 3.52899 19.0828 3.4842 19.0061 3.42945C18.9293 3.37471 18.8168 3.32732 18.756 3.32415C18.6951 3.32097 18.4736 3.30329 18.2636 3.28485C18.0536 3.26641 17.8318 3.26386 17.7708 3.27918C17.6432 3.3112 17.5828 3.42592 17.6506 3.50758C17.7134 3.58324 17.9303 3.6207 17.9665 3.56213C17.9869 3.52917 18.0363 3.53168 18.1299 3.57044C18.2036 3.601 18.2855 3.61273 18.3117 3.59651C18.338 3.58029 18.4261 3.60823 18.5076 3.6586C18.5891 3.70898 18.7051 3.75019 18.7654 3.75019C18.8257 3.75019 18.9092 3.78806 18.9511 3.83434C19.0029 3.89152 19.0671 3.91221 19.1516 3.8989C19.2498 3.88342 19.3005 3.90853 19.3932 4.01866C19.473 4.11346 19.5376 4.15092 19.5952 4.13584C19.6601 4.11887 19.6864 4.14264 19.7072 4.23719C19.7284 4.33404 19.7958 4.39228 20.0193 4.50689C20.176 4.58729 20.3043 4.66772 20.3043 4.68564C20.3043 4.75795 20.2169 4.76362 20.0671 4.70102C19.8632 4.61583 19.6575 4.61597 19.6247 4.70135C19.6107 4.73785 19.5492 4.76771 19.4879 4.76771C19.3438 4.7677 18.9771 4.6697 18.9771 4.63117C18.9771 4.61484 18.9125 4.5749 18.8334 4.54242C18.7543 4.50993 18.6248 4.43963 18.5455 4.38618C18.4662 4.33273 18.3667 4.29435 18.3243 4.30089C18.2819 4.30743 18.2344 4.29295 18.2187 4.2687C18.1936 4.22983 18.0998 4.22104 17.8712 4.2361C17.8347 4.23851 17.7198 4.22234 17.6159 4.20018C17.5064 4.17684 17.4167 4.17638 17.4027 4.19901C17.3894 4.22057 17.358 4.22558 17.3331 4.21015C17.2525 4.16035 17.0749 4.28951 17.0749 4.39794C17.0749 4.50738 17.263 4.63491 17.4244 4.63491C17.7882 4.63491 18.2373 4.87772 18.2763 5.09547C18.2878 5.15927 18.3728 5.20246 18.6232 5.27158L18.955 5.36316L18.6454 5.39283C18.3253 5.4235 18.1539 5.40574 18.0604 5.33223C18.0238 5.30339 17.981 5.31502 17.9277 5.36834C17.8562 5.43992 17.8478 5.44043 17.835 5.37395C17.821 5.3013 17.6357 5.29168 17.5283 5.35803C17.503 5.37365 17.4719 5.3592 17.4591 5.3258C17.4444 5.28769 17.394 5.27315 17.3234 5.28666C17.2546 5.2998 17.1833 5.28049 17.1397 5.23691C17.0937 5.19086 17.0305 5.17521 16.9611 5.19263C16.8961 5.20895 16.8537 5.20036 16.8537 5.17086C16.8537 5.14406 16.6596 5.02895 16.4224 4.91505C16.1852 4.80115 15.9752 4.68157 15.9557 4.64931C15.9362 4.61705 15.8915 4.59066 15.8562 4.59066C15.8209 4.59066 15.792 4.57075 15.792 4.54642C15.792 4.52209 15.7522 4.50218 15.7035 4.50218C15.6448 4.50218 15.6151 4.47269 15.6151 4.41455C15.6151 4.32223 15.447 4.25113 15.3326 4.29503C15.2902 4.3113 15.2777 4.29353 15.2923 4.23771C15.3169 4.14386 15.1861 4.08468 15.0606 4.13283C14.9991 4.15645 14.9867 4.14713 15.0075 4.09284C15.0355 4.01996 14.9424 3.90664 14.8942 3.95486C14.8794 3.9697 14.8334 3.94808 14.7922 3.9068C14.7509 3.86552 14.6809 3.8412 14.6367 3.85276C14.591 3.86471 14.5605 3.85192 14.5659 3.82301C14.5717 3.79212 14.5149 3.77375 14.4206 3.77607C14.3355 3.77818 14.2547 3.76333 14.2412 3.74311C14.2277 3.72288 14.1679 3.70642 14.1085 3.70654C13.7757 3.70721 13.5638 3.7337 13.5494 3.7765C13.5404 3.80316 13.6173 3.88075 13.7203 3.9489C13.8379 4.02674 13.9138 4.05395 13.9245 4.02207C13.9513 3.94172 14.01 3.96292 14.036 4.06233C14.0491 4.11238 14.121 4.17647 14.196 4.20474C14.2788 4.23601 14.3321 4.28745 14.3321 4.33602C14.3321 4.41509 14.5051 4.51123 14.6102 4.49061C14.6397 4.48481 14.6703 4.53559 14.6781 4.60345C14.6892 4.69978 14.7208 4.73252 14.8222 4.75281C14.9133 4.77103 14.9809 4.83 15.0484 4.95016C15.1405 5.11397 15.2169 5.17163 15.2169 5.07728C15.2169 5.05295 15.234 5.03304 15.2549 5.03304C15.2757 5.03304 15.3106 5.11557 15.3323 5.21645C15.3774 5.42625 15.5026 5.53838 15.5721 5.43118C15.6103 5.3722 15.6199 5.3722 15.6586 5.43118C15.6826 5.46768 15.7025 5.52969 15.7029 5.56899C15.7039 5.67704 15.8752 5.87281 15.9452 5.84594C15.9899 5.82881 16.0149 5.87708 16.0367 6.02193C16.0651 6.21141 16.1569 6.31711 16.2135 6.22554C16.2684 6.13663 16.3229 6.18923 16.3229 6.33121C16.3229 6.48827 16.466 6.67187 16.5202 6.58425C16.5923 6.46748 16.6413 6.54585 16.6132 6.73321C16.5857 6.91623 16.5929 6.93604 16.721 7.03077C16.8261 7.10841 16.8524 7.15574 16.8332 7.2323C16.8054 7.34285 16.8893 7.51037 16.9723 7.51037C17.0517 7.51037 17.0928 7.60115 17.0826 7.75359C17.0706 7.93083 17.178 8.08674 17.2577 8.00805C17.362 7.90526 17.3833 7.95184 17.3552 8.22061C17.3292 8.46945 17.334 8.49024 17.4227 8.51344C17.5383 8.54367 17.5902 8.71734 17.5258 8.85865C17.4875 8.9428 17.4947 8.97614 17.5655 9.04014C17.6319 9.10025 17.6642 9.10641 17.7041 9.06651C17.7973 8.97331 17.8184 9.01118 17.7729 9.19026C17.7484 9.28695 17.7414 9.4181 17.7573 9.48171C17.7815 9.57794 17.7974 9.58823 17.852 9.54293C17.9493 9.46214 17.9718 9.51639 17.9195 9.70574C17.8891 9.81593 17.888 9.88949 17.9163 9.91781C17.9402 9.94165 17.9597 9.99834 17.9597 10.0438C17.9597 10.1053 17.9815 10.1195 18.0452 10.0993C18.1239 10.0743 18.1272 10.0847 18.0865 10.232C18.0555 10.3442 18.057 10.4095 18.0914 10.451C18.1195 10.4849 18.1278 10.5638 18.1107 10.636C18.0862 10.7396 18.0914 10.7521 18.1398 10.7066C18.2356 10.6164 18.2656 10.6428 18.2257 10.7821C18.205 10.854 18.1949 10.9486 18.2032 10.9922C18.2116 11.0358 18.2199 11.0865 18.2217 11.1047C18.2236 11.123 18.2649 11.1379 18.3136 11.1379C18.4147 11.1379 18.4226 11.1772 18.3523 11.3315C18.3234 11.3948 18.3152 11.5087 18.3328 11.6023C18.3582 11.7377 18.3735 11.7551 18.4279 11.7099C18.5253 11.6291 18.5369 11.674 18.4739 11.8875C18.4061 12.1171 18.4626 12.3038 18.5901 12.2716C18.6845 12.2478 18.6884 12.2878 18.6026 12.4013C18.5108 12.5226 18.5196 12.6463 18.6219 12.6731C18.7039 12.6945 18.705 12.7036 18.6407 12.8281C18.5423 13.0182 18.5321 13.1156 18.6042 13.1754C18.6532 13.2161 18.6825 13.2155 18.7339 13.1728C18.7883 13.1277 18.8002 13.1309 18.8002 13.1911C18.8002 13.2314 18.771 13.309 18.7354 13.3634C18.6489 13.4953 18.694 13.6744 18.8063 13.645C18.8694 13.6286 18.8887 13.6478 18.8887 13.7273C18.8887 13.7845 18.8688 13.8435 18.8445 13.8585C18.7782 13.8995 18.7912 14.0835 18.8646 14.1445C18.9001 14.1739 18.949 14.1856 18.9735 14.1705C19.002 14.1529 19.001 14.1914 18.9708 14.2781C18.9105 14.451 18.9533 14.6391 19.0448 14.604C19.1009 14.5825 19.104 14.5981 19.0646 14.7017C19.0085 14.8495 19.0491 15.0751 19.1318 15.0751C19.1644 15.0751 19.1993 15.0601 19.2095 15.0419C19.2197 15.0237 19.22 15.0386 19.2102 15.0751C19.1415 15.3287 19.1436 15.4003 19.2211 15.457C19.2827 15.502 19.3164 15.5038 19.3635 15.4647C19.4148 15.4222 19.42 15.4354 19.3944 15.5429C19.3774 15.6141 19.3332 15.7071 19.2962 15.7497C19.236 15.8191 19.2361 15.8271 19.2974 15.8271C19.3351 15.8271 19.3779 15.8584 19.3925 15.8965C19.4098 15.9414 19.4492 15.9564 19.5042 15.939C19.5733 15.917 19.5848 15.929 19.5654 16.003C19.5523 16.053 19.5241 16.1048 19.5027 16.118C19.4813 16.1312 19.4638 16.179 19.4638 16.2242C19.4638 16.2694 19.4389 16.3164 19.4085 16.3287C19.3781 16.341 19.4179 16.3526 19.497 16.3545C19.5761 16.3564 19.6408 16.367 19.6408 16.378C19.6408 16.4258 19.5283 16.6481 19.4907 16.6747C19.4675 16.6911 19.4821 16.7365 19.5242 16.7786C19.5842 16.8386 19.6119 16.8427 19.6641 16.7993C19.7179 16.7547 19.7293 16.7613 19.7293 16.8376C19.7293 16.8884 19.6912 16.9503 19.6448 16.9752C19.5489 17.0265 19.5668 17.1985 19.6681 17.1985C19.7415 17.1985 19.7497 17.3134 19.6793 17.3569C19.6448 17.3782 19.6504 17.3994 19.6974 17.4257C19.7529 17.4568 19.7559 17.4839 19.7141 17.5741C19.6859 17.6348 19.648 17.6846 19.6297 17.6848C19.6115 17.685 19.5966 17.7133 19.5966 17.7478C19.5966 17.7823 19.5717 17.8188 19.5413 17.8289C19.4914 17.8455 19.4795 17.9413 19.4666 18.4315C19.4612 18.6371 19.3443 18.446 19.3143 18.1824C19.2901 17.9704 19.2626 17.9096 19.1479 17.8145C19.0311 17.7177 19.008 17.6647 18.9935 17.4606C18.9842 17.3286 18.9676 17.1964 18.9567 17.1667C18.9458 17.1371 18.9568 17.1005 18.9813 17.0854C19.0108 17.0671 19.0102 17.0392 18.9795 17.0022C18.954 16.9715 18.9136 16.8428 18.8895 16.7161C18.8412 16.4611 18.6301 15.9523 18.5188 15.8222C18.4794 15.7763 18.4072 15.7387 18.3583 15.7387C18.2811 15.7387 18.2694 15.7678 18.2694 15.9598C18.2694 16.1253 18.2858 16.181 18.3347 16.181C18.3836 16.181 18.3933 16.2143 18.3734 16.3137C18.3556 16.4024 18.3645 16.4465 18.4001 16.4465C18.4365 16.4465 18.444 16.4892 18.4238 16.581C18.3917 16.7275 18.4664 16.8642 18.5509 16.8135C18.5786 16.7969 18.5737 16.8173 18.54 16.8588C18.4523 16.9669 18.4319 17.1985 18.51 17.1985C18.5616 17.1985 18.5602 17.2285 18.5011 17.3789C18.4478 17.5145 18.4432 17.5674 18.4825 17.5917C18.5216 17.6158 18.5185 17.6456 18.4699 17.7099C18.3866 17.8199 18.3851 17.9256 18.4659 17.9927C18.5199 18.0375 18.5053 18.0716 18.3708 18.2144C18.2713 18.32 18.2051 18.4389 18.1938 18.5318C18.184 18.6136 18.1684 18.7303 18.1593 18.7911C18.1502 18.8519 18.1414 18.9206 18.1397 18.9437C18.1378 18.9702 18.1213 18.9702 18.0948 18.9437C18.0718 18.9206 18.0469 18.7922 18.0395 18.6584C18.029 18.468 18.0068 18.4051 17.9376 18.3695C17.7517 18.2738 17.6818 17.9449 17.7593 17.5303C17.7775 17.433 17.8094 17.321 17.8303 17.2816C17.8512 17.2421 17.8616 17.1724 17.8533 17.1267C17.845 17.081 17.8238 16.9242 17.8062 16.7783C17.7886 16.6323 17.7538 16.4879 17.7289 16.4575C17.7039 16.4271 17.6964 16.4022 17.7122 16.4022C17.7279 16.4022 17.7099 16.3425 17.6722 16.2695C17.5925 16.1153 17.558 16.107 17.4579 16.2177C17.3765 16.3076 17.3605 16.4706 17.429 16.5129C17.4583 16.531 17.4571 16.5706 17.4255 16.6297C17.3874 16.701 17.3936 16.7308 17.4561 16.7765C17.5302 16.8307 17.5304 16.8403 17.4596 16.9483C17.3719 17.0821 17.3632 17.184 17.4372 17.2087C17.4745 17.2211 17.468 17.2572 17.4151 17.3328C17.3214 17.4666 17.3204 17.5502 17.4119 17.6171C17.4762 17.664 17.4716 17.6822 17.3677 17.7943C17.2766 17.8926 17.2628 17.9325 17.3031 17.981C17.3419 18.0278 17.3419 18.0552 17.3031 18.094C17.275 18.1222 17.2519 18.1981 17.2519 18.2628C17.2519 18.3373 17.1863 18.455 17.0733 18.5834C16.9688 18.7021 16.8671 18.8792 16.8283 19.0099C16.7918 19.1329 16.7406 19.2335 16.7146 19.2335C16.6886 19.2335 16.6778 19.2061 16.6907 19.1728C16.7035 19.1394 16.728 19.0183 16.7452 18.9036C16.7713 18.7296 16.7609 18.6742 16.6824 18.568C16.6226 18.4871 16.5884 18.375 16.5884 18.26C16.5884 18.0592 16.7111 17.5154 16.775 17.4334C16.8171 17.3793 16.839 16.5755 16.8022 16.4335C16.7779 16.3397 16.649 16.181 16.5971 16.181C16.5426 16.181 16.3672 16.4328 16.3672 16.511C16.3672 16.5485 16.3871 16.5792 16.4114 16.5792C16.4801 16.5792 16.4637 16.6739 16.3788 16.7677C16.3058 16.8484 16.306 16.8555 16.3839 16.9125C16.4633 16.9705 16.4629 16.9772 16.3723 17.1239C16.2584 17.3081 16.2541 17.375 16.3561 17.3771C16.4173 17.3784 16.4081 17.3995 16.3119 17.4783C16.1746 17.5906 16.1532 17.6851 16.265 17.6851C16.3209 17.6851 16.304 17.72 16.198 17.8237C16.0963 17.9231 16.069 17.9774 16.1012 18.0162C16.1541 18.08 15.9691 18.3045 15.8635 18.3045C15.8275 18.3045 15.7854 18.3443 15.77 18.3929C15.7545 18.4416 15.7242 18.4814 15.7026 18.4814C15.681 18.4814 15.6503 18.5511 15.6343 18.6362C15.5859 18.8945 15.52 18.8112 15.5336 18.5088C15.5406 18.3536 15.5249 18.1993 15.4989 18.166C15.4404 18.0912 15.4521 17.7944 15.5202 17.627C15.5481 17.5585 15.5709 17.4844 15.5709 17.4624C15.5709 17.4404 15.6128 17.3421 15.664 17.2438C15.7152 17.1456 15.7464 17.0373 15.7333 17.0032C15.7202 16.9691 15.7371 16.8364 15.7709 16.7084C15.8046 16.5804 15.8214 16.4582 15.8082 16.4367C15.7949 16.4153 15.8171 16.3282 15.8575 16.2431C15.9047 16.1435 15.9206 16.0414 15.902 15.9566C15.886 15.8842 15.8675 15.7553 15.8608 15.6703C15.836 15.3578 15.521 15.2294 15.3578 15.4651C15.2389 15.6368 15.2091 15.7422 15.2614 15.8052C15.2951 15.8459 15.2836 15.8668 15.2177 15.884C15.1439 15.9033 15.1315 15.9348 15.1478 16.062C15.1749 16.2741 14.9464 16.5497 14.7433 16.5497C14.6332 16.5497 14.5939 16.5772 14.5388 16.6927C14.5013 16.7713 14.4571 16.9076 14.4406 16.9955C14.3955 17.2363 14.3426 17.226 14.3254 16.9731C14.317 16.8491 14.3239 16.7391 14.3407 16.7287C14.3576 16.7183 14.385 16.6157 14.4017 16.5007C14.4183 16.3857 14.4439 16.2717 14.4585 16.2474C14.5091 16.163 14.639 15.7604 14.6404 15.6834C14.6413 15.6408 14.6717 15.6059 14.7082 15.6059C14.7776 15.6059 14.7874 15.5753 14.7832 15.373C14.7819 15.3056 14.7994 15.2621 14.8222 15.2762C14.845 15.2903 14.8765 15.2658 14.892 15.2217C14.9076 15.1775 14.9721 15.0718 15.0354 14.9866C15.152 14.8295 15.1574 14.8177 15.1672 14.698C15.1703 14.6609 15.2225 14.6116 15.2833 14.5885C15.374 14.554 15.3939 14.5167 15.3939 14.3816C15.3939 14.2562 15.4062 14.2292 15.4455 14.2684C15.5288 14.3517 15.607 14.1995 15.5866 13.9937C15.572 13.8465 15.5767 13.8321 15.6127 13.9138C15.6623 14.0264 15.7478 14.0475 15.7478 13.947C15.7478 13.9105 15.7677 13.8807 15.7921 13.8807C15.8164 13.8807 15.8363 13.811 15.8363 13.7258C15.8363 13.6157 15.856 13.571 15.9046 13.571C15.9422 13.571 15.9697 13.5461 15.9657 13.5157C15.9441 13.3489 15.9731 13.2214 16.028 13.2425C16.0716 13.2592 16.0818 13.2298 16.0671 13.13C16.0562 13.0556 16.0297 12.9839 16.0082 12.9706C15.9377 12.9271 15.9671 12.8632 16.0575 12.8632C16.1343 12.8632 16.146 12.8337 16.146 12.6401C16.146 12.4752 16.1221 12.3917 16.0541 12.3194L15.9622 12.2217L15.854 12.3544C15.7832 12.4413 15.754 12.5209 15.7694 12.5849C15.7864 12.6559 15.7654 12.6971 15.6929 12.7353C15.564 12.8032 15.5231 12.8675 15.5513 12.9582C15.5665 13.0071 15.5241 13.0619 15.422 13.1249C15.2472 13.233 15.1936 13.3347 15.2659 13.4218C15.3062 13.4703 15.2838 13.4961 15.1545 13.5501C15.0005 13.6144 14.877 13.7959 14.9295 13.8808C14.9421 13.9011 14.8912 13.9311 14.8166 13.9475C14.6771 13.9781 14.5712 14.146 14.6166 14.2643C14.6305 14.3007 14.579 14.3481 14.4808 14.3892C14.3464 14.4453 14.3265 14.4713 14.349 14.5609C14.3709 14.6483 14.3523 14.6762 14.2415 14.7221C14.1677 14.7527 14.0577 14.8167 13.997 14.8645C13.9067 14.9355 13.8964 14.9633 13.9406 15.0166C13.9838 15.0686 13.9819 15.09 13.9312 15.122C13.8963 15.1441 13.8402 15.1625 13.8066 15.1629C13.7267 15.1637 13.4475 15.3368 13.4475 15.3854C13.4475 15.4061 13.4899 15.4365 13.5418 15.453C13.6159 15.4765 13.623 15.4912 13.575 15.5216C13.5413 15.5429 13.4721 15.5607 13.4211 15.561C13.3132 15.5619 13.1605 15.7123 13.2011 15.7779C13.2167 15.8033 13.1464 15.8463 13.0395 15.8768C12.8335 15.9356 12.6906 16.0347 12.7021 16.1107C12.7167 16.2073 12.6396 16.3137 12.5551 16.3137C12.4018 16.3137 12.3074 16.3913 12.3282 16.5002C12.3459 16.593 12.3299 16.6023 12.1344 16.6135C11.9116 16.6263 11.7482 16.7458 11.7932 16.8631C11.8166 16.924 11.6892 16.9756 11.5129 16.9767C11.4448 16.9771 11.4056 17.0116 11.3864 17.0879C11.3641 17.177 11.3312 17.1985 11.2175 17.1985C11.0571 17.1985 10.9701 17.2656 10.9701 17.3895C10.9701 17.458 10.9469 17.4698 10.8493 17.4512C10.7092 17.4244 10.4835 17.5263 10.4835 17.6162C10.4835 17.6596 10.4252 17.6778 10.2862 17.6778C10.0524 17.6778 9.99688 17.7052 9.99688 17.8205C9.99688 17.883 9.96625 17.9063 9.88409 17.9063C9.74782 17.9063 9.51026 18.0226 9.51026 18.0893C9.51026 18.1204 9.45482 18.127 9.3535 18.108C9.13335 18.0667 9.01269 18.1118 9.04776 18.2223C9.073 18.3018 9.06092 18.3072 8.91719 18.2802C8.71764 18.2428 8.53703 18.2862 8.53703 18.3717C8.53703 18.4462 8.43591 18.4572 8.32008 18.3952C8.20199 18.332 8.04263 18.3872 8.0724 18.481C8.09453 18.5508 8.07815 18.5538 7.90113 18.5133C7.66719 18.4598 7.55329 18.4911 7.59417 18.5976C7.6154 18.6529 7.60736 18.6632 7.56385 18.6363C7.45085 18.5665 7.08996 18.5612 7.06393 18.629C7.04107 18.6886 6.81608 18.6936 6.72377 18.6366C6.65701 18.5953 6.54631 18.6664 6.54631 18.7505C6.54631 18.8175 6.52755 18.8262 6.44678 18.7965C6.28523 18.737 6.02674 18.7874 6.0017 18.8831C5.98239 18.957 5.96344 18.9607 5.83545 18.9161C5.70251 18.8698 5.6826 18.8755 5.5859 18.9879C5.51297 19.0727 5.45306 19.1028 5.39012 19.0864C5.34023 19.0733 5.23099 19.1011 5.14735 19.148C5.06372 19.195 4.9378 19.2335 4.86754 19.2335C4.69131 19.2335 4.59984 19.2748 4.59984 19.3546C4.59984 19.4068 4.56526 19.4164 4.44668 19.3971C4.33171 19.3785 4.25657 19.3973 4.14535 19.4728C4.03329 19.5489 3.97204 19.5641 3.89396 19.5352C3.75385 19.4834 3.6266 19.5307 3.6266 19.6346C3.6266 19.7325 3.62367 19.7335 3.4857 19.6815C3.35048 19.6305 3.16643 19.6984 3.20032 19.7867C3.23171 19.8685 3.22449 19.8685 3.06762 19.7867C2.8989 19.6987 2.84173 19.703 2.77581 19.8086C2.71105 19.9122 2.67113 19.9197 2.62238 19.8371L2.62221 19.8373ZM17.9006 17.442C17.9006 17.4055 17.884 17.3757 17.8637 17.3757C17.8434 17.3757 17.8269 17.4055 17.8269 17.442C17.8269 17.4785 17.8434 17.5084 17.8637 17.5084C17.884 17.5084 17.9006 17.4785 17.9006 17.442ZM8.05024 12.9025C8.05024 12.8739 8.09595 12.8618 8.15862 12.8738C8.26828 12.8948 8.35194 12.8026 8.2695 12.7516C8.20324 12.7107 8.21992 12.6422 8.29616 12.6422C8.33409 12.6422 8.35412 12.66 8.34065 12.6818C8.2956 12.7547 8.46603 12.7827 8.51845 12.711C8.5461 12.6731 8.60138 12.6422 8.64127 12.6422C8.68117 12.6422 8.71381 12.6125 8.71381 12.5761C8.71381 12.5268 8.75164 12.5149 8.86328 12.5292C8.98308 12.5445 9.01161 12.5335 9.00705 12.4736C9.00354 12.4276 9.03955 12.3935 9.10089 12.3848C9.15564 12.377 9.20043 12.3499 9.20043 12.3247C9.20043 12.298 9.24582 12.2901 9.30831 12.3058C9.36765 12.3207 9.42855 12.3129 9.44364 12.2885C9.45874 12.264 9.44999 12.2441 9.42423 12.2441C9.39847 12.2441 9.37738 12.2154 9.37738 12.1803C9.37738 12.1252 9.39363 12.125 9.49702 12.1787C9.64067 12.2532 9.68047 12.2312 9.58131 12.132C9.5417 12.0924 9.52069 12.0415 9.53463 12.019C9.54857 11.9964 9.59088 12.0088 9.62865 12.0466C9.70354 12.1215 9.79764 12.1124 9.79764 12.0302C9.79764 12.0018 9.81755 11.9836 9.84188 11.9897C9.86621 11.9958 9.88336 12.0256 9.87998 12.056C9.8766 12.0864 9.89153 12.1113 9.91316 12.1113C9.93478 12.1113 9.95248 12.0821 9.95248 12.0464C9.95248 12.0066 9.9784 11.9913 10.0192 12.007C10.065 12.0246 10.0836 12.0069 10.0785 11.9503C10.0646 11.7944 10.0854 11.7226 10.1517 11.6971C10.2079 11.6756 10.207 11.6887 10.1457 11.7823C10.1058 11.8431 10.0854 11.9051 10.1003 11.92C10.1152 11.9349 10.1399 11.9143 10.1552 11.8744C10.1746 11.8239 10.2392 11.8007 10.3664 11.7986C10.5094 11.7961 10.5302 11.7871 10.4612 11.7574C10.3771 11.7213 10.3777 11.7193 10.4732 11.7163C10.5356 11.7144 10.5928 11.6713 10.6241 11.6026C10.6518 11.5418 10.7061 11.4923 10.7448 11.4927C10.8053 11.4933 10.8061 11.4991 10.75 11.5345C10.6558 11.5941 10.7063 11.6208 10.8581 11.5917C10.9733 11.5695 10.9788 11.5622 10.9024 11.5323C10.8337 11.5055 10.8471 11.4976 10.9648 11.4951C11.0972 11.4924 11.2794 11.3651 11.2797 11.2751C11.2798 11.2606 11.34 11.2465 11.4135 11.2439C11.5758 11.2381 11.6317 11.192 11.5438 11.1364C11.4975 11.1071 11.4951 11.095 11.5354 11.0945C11.5666 11.0942 11.6047 11.1269 11.6202 11.1673C11.6444 11.2302 11.6535 11.227 11.6838 11.1452C11.7149 11.0611 11.8234 11.0218 11.9584 11.0458C11.9789 11.0494 11.9864 11.0269 11.975 10.9957C11.9636 10.9645 11.9269 10.9454 11.8934 10.9532C11.8477 10.9639 11.8451 10.9547 11.8831 10.916C11.9216 10.8768 11.9574 10.8771 12.0325 10.9173C12.111 10.9593 12.1388 10.9582 12.1675 10.9118C12.1877 10.8791 12.1824 10.828 12.1555 10.7956C12.1291 10.7638 12.1214 10.7239 12.1384 10.7069C12.1553 10.69 12.1836 10.6993 12.2011 10.7278C12.2221 10.7617 12.2555 10.7653 12.2983 10.7382C12.3848 10.6835 12.4863 10.6843 12.4522 10.7394C12.4366 10.7647 12.4549 10.7717 12.4958 10.756C12.5346 10.7411 12.5562 10.7188 12.5439 10.7065C12.5315 10.6941 12.5415 10.6465 12.566 10.6007C12.5999 10.5374 12.5942 10.5111 12.5423 10.4912C12.4175 10.4433 12.4654 10.3523 12.6068 10.3688C12.7452 10.3849 12.7739 10.3496 12.6902 10.266C12.6331 10.2088 12.6776 10.1131 12.7539 10.1291C12.8321 10.1455 13.0524 9.98466 13.0211 9.93404C13.0044 9.90697 12.9776 9.91311 12.9518 9.94994C12.9177 9.9985 12.9132 9.99729 12.928 9.94361C12.9393 9.90258 12.9876 9.8822 13.0545 9.89022C13.1366 9.90005 13.1644 9.88136 13.1695 9.8128C13.1733 9.76309 13.1577 9.72241 13.1349 9.72241C13.0555 9.72241 13.0939 9.59988 13.1803 9.57728C13.2401 9.56165 13.2758 9.58152 13.2947 9.64092C13.3243 9.7343 13.4252 9.72978 13.4252 9.63508C13.4252 9.57784 13.3972 9.55772 13.1819 9.46014C13.121 9.43257 13.1044 9.41933 13.145 9.43071C13.2116 9.44939 13.2782 9.37133 13.2886 9.26238C13.2907 9.2405 13.3323 9.20706 13.3809 9.18807C13.4521 9.16032 13.4547 9.15294 13.3946 9.15044C13.3108 9.14696 13.246 9.0684 13.2904 9.02401C13.3063 9.00809 13.3371 9.02384 13.3588 9.0589C13.3915 9.11176 13.4039 9.10819 13.4307 9.03815C13.4512 8.98488 13.4427 8.94674 13.4079 8.93513C13.3712 8.92289 13.3834 8.89513 13.4442 8.85255C13.4946 8.81727 13.5358 8.75677 13.5358 8.7181C13.5358 8.66648 13.507 8.6788 13.4277 8.76442C13.2815 8.9221 13.1752 8.88256 13.2301 8.69098C13.2522 8.61383 13.2703 8.54559 13.2703 8.53935C13.2703 8.53311 13.3002 8.52799 13.3367 8.52799C13.4436 8.52799 13.4129 8.45158 13.294 8.42174C13.2209 8.40339 13.1933 8.37267 13.2103 8.32847C13.2242 8.29222 13.2183 8.26257 13.1972 8.26257C13.1762 8.26257 13.131 8.21778 13.0969 8.16303C13.0417 8.07439 13.0424 8.06965 13.103 8.11972C13.1601 8.16687 13.175 8.16094 13.1953 8.08305C13.2135 8.01376 13.203 7.99653 13.1542 8.01526C13.1138 8.03077 13.1003 8.02178 13.1189 7.99168C13.1354 7.96491 13.1244 7.92786 13.0945 7.90934C13.0515 7.8828 13.0514 7.85436 13.094 7.77487C13.1407 7.68765 13.1383 7.67775 13.0764 7.70149C12.9864 7.73602 12.9866 7.71231 13.0773 7.57394C13.162 7.44468 13.1345 7.38721 13.0355 7.48629C12.9445 7.57726 12.765 7.57886 12.7997 7.4884C12.815 7.44843 12.7999 7.42204 12.7618 7.42204C12.7091 7.42204 12.5747 7.24823 12.5993 7.21191C12.6267 7.17137 12.5985 7.06814 12.5599 7.06814C12.5342 7.06814 12.5254 7.08804 12.5404 7.11237C12.5554 7.13671 12.5478 7.15661 12.5235 7.15661C12.4596 7.15661 12.4114 7.06326 12.4582 7.03001C12.4801 7.01448 12.5228 6.94206 12.5531 6.86907C12.6037 6.74732 12.6027 6.74345 12.5411 6.82222C12.5042 6.86945 12.4741 6.9242 12.4741 6.94388C12.4741 6.96356 12.4143 6.97966 12.3413 6.97966C12.2529 6.97966 12.2086 6.95754 12.2086 6.9133C12.2086 6.87681 12.2242 6.84695 12.2433 6.84695C12.2818 6.84695 12.2822 6.64039 12.2438 6.6019C12.2303 6.58842 12.2058 6.63097 12.1894 6.69645C12.1663 6.78829 12.1475 6.80351 12.107 6.76303C12.0666 6.72255 12.0696 6.70101 12.1205 6.66883C12.1568 6.64588 12.1666 6.62678 12.1423 6.62638C12.0775 6.62538 11.8547 6.42463 11.8547 6.36731C11.8547 6.29183 11.6957 6.04755 11.6659 6.07731C11.6514 6.09179 11.6497 6.06479 11.6621 6.01729C11.6899 5.91123 11.4879 5.65458 11.439 5.73374C11.4215 5.76206 11.4233 5.78522 11.4429 5.78521C11.4711 5.78519 11.48 6.07875 11.4595 6.32976C11.4579 6.34944 11.4317 6.3515 11.4013 6.33432C11.3571 6.30935 11.3571 6.31502 11.4013 6.36268C11.4676 6.43412 11.4743 6.60958 11.4122 6.64797C11.3878 6.66307 11.38 6.72396 11.3949 6.7833C11.4122 6.85219 11.403 6.89118 11.3695 6.89118C11.3373 6.89118 11.3219 6.94678 11.3296 7.03559C11.3436 7.1989 11.2961 7.3047 11.2276 7.2624C11.198 7.24411 11.2031 7.22052 11.2417 7.19599C11.2905 7.16513 11.2891 7.15784 11.2344 7.15729C11.1974 7.15695 11.1284 7.2284 11.0811 7.31614C11.0339 7.40388 10.9877 7.45301 10.9784 7.42531C10.9692 7.39762 10.9952 7.32371 11.0363 7.26106C11.135 7.11034 11.0555 7.01641 10.953 7.16272C10.9137 7.21885 10.8815 7.24044 10.8815 7.21069C10.8815 7.18095 10.8622 7.15661 10.8386 7.15661C10.8151 7.15661 10.8085 7.18974 10.8241 7.23022C10.843 7.27972 10.8353 7.29336 10.8005 7.27185C10.7721 7.25426 10.7488 7.26095 10.7488 7.28672C10.7488 7.35232 10.6282 7.34542 10.6011 7.27827C10.587 7.24335 10.5775 7.24976 10.5753 7.29566C10.5709 7.38708 10.6775 7.43137 10.7434 7.3655C10.7801 7.32882 10.793 7.33999 10.793 7.40828C10.793 7.45911 10.7681 7.49977 10.7377 7.49864C10.5735 7.49254 10.5196 7.51426 10.5436 7.57688C10.5782 7.667 10.5285 7.66069 10.4565 7.56581C10.3753 7.45893 10.3808 7.41985 10.4723 7.45205C10.5301 7.47238 10.5376 7.46605 10.5018 7.4271C10.4364 7.35584 10.2944 7.41538 10.327 7.50036C10.3462 7.55052 10.3386 7.55557 10.2964 7.52053C10.2407 7.47435 10.2159 7.46628 10.1295 7.46628C10.1051 7.46628 10.0852 7.44519 10.0852 7.41943C10.0852 7.39366 10.1049 7.38474 10.129 7.3996C10.154 7.41509 10.1615 7.3974 10.1464 7.35823C10.132 7.32061 10.1022 7.30093 10.0803 7.3145C10.0583 7.32806 10.0284 7.30805 10.0138 7.27001C9.99922 7.23197 9.96641 7.20085 9.94092 7.20085C9.91542 7.20085 9.93058 7.24066 9.97462 7.28932C10.0187 7.33798 10.039 7.3778 10.0198 7.3778C9.97574 7.3778 9.77568 7.1474 9.77561 7.09658C9.77558 7.07573 9.74569 7.07012 9.70919 7.08412C9.63484 7.11265 9.61547 7.00178 9.68707 6.95753C9.7114 6.9425 9.73068 6.90648 9.72991 6.8775C9.72907 6.84852 9.7006 6.86165 9.66649 6.90666C9.59927 6.9954 9.48965 6.9641 9.52697 6.86683C9.54195 6.82778 9.52694 6.81599 9.48347 6.83268C9.43535 6.85114 9.42496 6.89401 9.44571 6.98847C9.46144 7.06015 9.47358 7.21582 9.47266 7.3344C9.47149 7.49574 9.48575 7.54434 9.52963 7.5275C9.56985 7.51207 9.59408 7.55469 9.60674 7.66318C9.62701 7.8368 9.60979 7.8827 9.51012 7.92064C9.46427 7.9381 9.47305 7.94698 9.53857 7.94939C9.59071 7.95132 9.64492 7.98299 9.65904 8.01979C9.67904 8.07189 9.6612 8.08079 9.57839 8.06001C9.48835 8.03741 9.47561 8.04687 9.4952 8.12179C9.51311 8.19028 9.48244 8.2273 9.3594 8.28569C9.27198 8.32717 9.20046 8.37992 9.20046 8.40292C9.20046 8.42591 9.22344 8.43052 9.25153 8.41317C9.28445 8.39282 9.29054 8.40113 9.26866 8.43653C9.24998 8.46674 9.19714 8.48163 9.15123 8.46963C9.09863 8.45587 9.06774 8.4708 9.06774 8.51001C9.06774 8.54423 9.04286 8.57253 9.01244 8.5729C8.97424 8.57341 8.97217 8.58364 9.00576 8.60608C9.03249 8.62396 9.05406 8.67038 9.05368 8.70925C9.05318 8.76276 9.0145 8.77729 8.89448 8.76907C8.75347 8.75943 8.74696 8.76336 8.8355 8.8047C8.96185 8.8637 8.96191 8.91164 8.83566 8.95171C8.70619 8.9928 8.6363 9.09191 8.64984 9.21523C8.66098 9.31668 8.49063 9.43937 8.36848 9.41788C8.33482 9.41197 8.31633 9.44095 8.32424 9.48725C8.33251 9.53573 8.29859 9.58414 8.23734 9.61125C8.17294 9.63976 8.14118 9.68755 8.14887 9.74437C8.15713 9.8054 8.1369 9.83112 8.08392 9.82695C8.04017 9.8235 8.01945 9.84106 8.03588 9.86764C8.05379 9.89662 8.03722 9.90385 7.99245 9.88665C7.95121 9.87081 7.88764 9.89136 7.84458 9.93443C7.80303 9.97597 7.75766 10.007 7.74376 10.0033C7.72985 9.99968 7.72395 10.0161 7.73063 10.0398C7.73732 10.0635 7.72376 10.0711 7.70051 10.0568C7.67726 10.0424 7.64627 10.05 7.63164 10.0737C7.61701 10.0973 7.5756 10.1054 7.53961 10.0916C7.4917 10.0732 7.48212 10.0872 7.50384 10.1438C7.52491 10.1987 7.51544 10.2148 7.47116 10.1993C7.43687 10.1872 7.41193 10.1426 7.41574 10.1C7.42049 10.047 7.40835 10.037 7.37717 10.0681C7.35215 10.0932 7.29926 10.1014 7.25965 10.0864C7.1976 10.0629 7.19834 10.07 7.26503 10.1373C7.3473 10.2202 7.36866 10.2747 7.30305 10.2341C7.28138 10.2208 7.23074 10.26 7.19051 10.3214C7.15011 10.3831 7.09544 10.4195 7.06838 10.4028C7.03587 10.3827 7.04681 10.3524 7.10089 10.3129C7.1881 10.2491 7.17193 10.2366 7.05852 10.2801C7.02003 10.2949 6.98854 10.3404 6.98854 10.3812C6.98854 10.426 6.9534 10.4555 6.90006 10.4555C6.8514 10.4555 6.81158 10.4399 6.81158 10.4207C6.81158 10.3549 6.74425 10.3862 6.68625 10.4791C6.65427 10.5303 6.6481 10.5598 6.67255 10.5447C6.697 10.5296 6.7295 10.5375 6.74479 10.5622C6.78036 10.6198 6.6972 10.6201 6.59018 10.5629C6.53477 10.5332 6.4982 10.5332 6.47988 10.5629C6.46479 10.5873 6.47354 10.6072 6.49931 10.6072C6.52508 10.6072 6.54616 10.6281 6.54616 10.6537C6.54616 10.6827 6.52035 10.6857 6.47748 10.6617C6.3744 10.604 6.13783 10.6496 6.16555 10.7218C6.19321 10.7939 6.12127 10.8483 6.08211 10.7849C6.03996 10.7167 5.95822 10.7312 5.9854 10.802C6.02424 10.9032 5.96861 10.9173 5.84647 10.8373C5.73886 10.7668 5.73373 10.7668 5.76081 10.8374C5.78145 10.8912 5.77146 10.9054 5.7255 10.8878C5.69025 10.8743 5.6614 10.8836 5.6614 10.9085C5.6614 10.9334 5.68628 10.9629 5.7167 10.9741C5.75905 10.9896 5.75986 11.0072 5.72016 11.0495C5.66517 11.108 5.69062 11.2411 5.74979 11.2045C5.76898 11.1927 5.79742 11.2337 5.81299 11.2958C5.83385 11.3789 5.86216 11.4019 5.92055 11.3834C5.97533 11.366 6.0183 11.3928 6.05972 11.4702C6.10323 11.5515 6.12939 11.5668 6.15527 11.526C6.18114 11.4853 6.19109 11.4911 6.19158 11.5473C6.19192 11.5899 6.22212 11.6247 6.25862 11.6247C6.29511 11.6247 6.32498 11.6008 6.32498 11.5716C6.32498 11.5303 6.33678 11.5303 6.37806 11.5716C6.45859 11.6522 6.52137 11.6351 6.45205 11.5515C6.39563 11.4835 6.40116 11.4834 6.5303 11.5502C6.66842 11.6216 6.66958 11.6213 6.72196 11.4948C6.77039 11.3779 6.78599 11.3708 6.91449 11.4077C7.08949 11.4579 7.07702 11.46 7.07702 11.3795C7.07702 11.3419 7.1019 11.3144 7.13232 11.3184C7.24766 11.3334 7.29821 11.313 7.29821 11.2515C7.29821 11.2151 7.33614 11.1907 7.38669 11.1945C7.43535 11.1982 7.47516 11.2176 7.47516 11.2376C7.47516 11.2834 7.60243 11.2152 7.71847 11.1073C7.76713 11.062 7.84179 11.032 7.88437 11.0406C7.93048 11.0498 7.96178 11.0294 7.96178 10.9901C7.96178 10.9394 8.00762 10.9271 8.15847 10.9373C8.33049 10.9489 8.35685 10.9388 8.3686 10.8563C8.37915 10.7824 8.41774 10.7591 8.54794 10.7484C8.63918 10.7408 8.71383 10.7192 8.71383 10.7004C8.71383 10.6816 8.74369 10.6662 8.78019 10.6662C8.81668 10.6662 8.84655 10.684 8.84655 10.7057C8.84655 10.7274 8.86645 10.7329 8.89078 10.7179C8.91511 10.7028 8.93502 10.7149 8.93502 10.7447C8.93502 10.7746 8.94659 10.7874 8.96072 10.7733C8.97487 10.7591 8.9642 10.706 8.93705 10.6553C8.89895 10.5841 8.90066 10.5623 8.94452 10.5597C9.09588 10.551 9.22464 10.5106 9.29009 10.4514C9.37833 10.3715 9.45105 10.3677 9.48094 10.4414C9.4987 10.4851 9.51145 10.4853 9.54212 10.442C9.57241 10.3993 9.60088 10.4015 9.6728 10.4518C9.77989 10.5268 9.84227 10.7458 9.74602 10.7089C9.70622 10.6936 9.69482 10.7087 9.7121 10.7537C9.73462 10.8124 9.59667 11.0054 9.53224 11.0054C9.48651 11.0054 9.34161 11.1761 9.36634 11.2008C9.3908 11.2252 9.29144 11.2435 9.16432 11.238C9.13229 11.2366 9.11602 11.2454 9.12817 11.2575C9.14032 11.2697 9.08716 11.3413 9.01004 11.4167C8.92536 11.4995 8.90172 11.5415 8.95036 11.5229C9.00485 11.5019 9.02493 11.5098 9.01245 11.5473C9.0023 11.5777 8.9459 11.6026 8.8871 11.6026C8.75466 11.6026 8.67287 11.6703 8.70477 11.7534C8.7185 11.7892 8.70947 11.8042 8.68381 11.7884C8.63627 11.759 8.4484 11.9099 8.4484 11.9774C8.4484 11.9992 8.39366 12.0233 8.32675 12.031C8.25984 12.0387 8.20983 12.0692 8.21562 12.0987C8.22141 12.1282 8.1991 12.142 8.16603 12.1293C8.11132 12.1083 8.03881 12.2078 8.06253 12.2714C8.06795 12.2859 8.00326 12.3305 7.91877 12.3704C7.83429 12.4104 7.74002 12.4929 7.70929 12.5537C7.67856 12.6146 7.65313 12.6401 7.65277 12.6104C7.65243 12.5808 7.62524 12.5668 7.59239 12.5794C7.51666 12.6085 7.52085 12.8454 7.59682 12.8302C7.62723 12.8241 7.65211 12.8348 7.65211 12.854C7.65211 12.8731 7.69193 12.8918 7.74059 12.8955C7.78925 12.8991 7.82906 12.8835 7.82906 12.8606C7.82906 12.8378 7.86826 12.8192 7.91615 12.8192C7.97539 12.8192 7.9951 12.8404 7.97778 12.8855C7.96377 12.922 7.97435 12.9519 8.00129 12.9519C8.02822 12.9519 8.05024 12.9296 8.05024 12.9025ZM8.44838 12.5537C8.44838 12.5294 8.46829 12.5095 8.49262 12.5095C8.51695 12.5095 8.53686 12.5294 8.53686 12.5537C8.53686 12.5781 8.51695 12.598 8.49262 12.598C8.46829 12.598 8.44838 12.5781 8.44838 12.5537ZM8.935 12.2883C8.935 12.264 8.96604 12.2441 9.00397 12.2441C9.0419 12.2441 9.06063 12.264 9.0456 12.2883C9.03056 12.3126 8.99953 12.3325 8.97663 12.3325C8.95373 12.3325 8.935 12.3126 8.935 12.2883ZM10.8598 11.4028C10.8751 11.3781 10.9061 11.3693 10.9288 11.3833C10.9901 11.4212 10.9787 11.4478 10.901 11.4478C10.8631 11.4478 10.8445 11.4275 10.8598 11.4028ZM11.9653 10.7842C11.9503 10.7599 11.9591 10.74 11.9848 10.74C12.0106 10.74 12.0317 10.7599 12.0317 10.7842C12.0317 10.8085 12.0229 10.8284 12.0122 10.8284C12.0014 10.8284 11.9803 10.8085 11.9653 10.7842ZM10.4042 9.21897C10.2349 9.05174 10.2178 8.89034 10.3437 8.64777C10.4101 8.5196 10.4761 8.44433 10.5105 8.45751C10.546 8.47115 10.5581 8.45532 10.5427 8.41521C10.5275 8.37562 10.5453 8.3511 10.5892 8.3511C10.6283 8.3511 10.6603 8.32985 10.6603 8.30388C10.6603 8.2768 10.698 8.26864 10.7488 8.28475C10.8133 8.30524 10.8372 8.29271 10.8372 8.23833C10.8372 8.18561 10.8631 8.1706 10.9257 8.18697C10.9744 8.19969 11.0142 8.19468 11.0142 8.17582C11.0142 8.15696 11.0739 8.14848 11.1469 8.15698C11.2436 8.16823 11.2796 8.15393 11.2796 8.10432C11.2796 8.06061 11.2994 8.04879 11.3349 8.07133C11.3984 8.11164 11.3791 8.10628 11.6186 8.15035C11.8087 8.18532 11.8541 8.2443 11.8755 8.48382C11.8854 8.59525 11.7819 8.83444 11.6999 8.88958C11.6756 8.90594 11.576 8.99053 11.4787 9.07756C11.3814 9.16459 11.2719 9.23734 11.2354 9.23922C11.1989 9.24109 11.1292 9.25134 11.0805 9.26199C10.8515 9.31208 10.7277 9.31621 10.6531 9.27625C10.5985 9.24707 10.5718 9.24783 10.5718 9.27856C10.5718 9.34892 10.5155 9.32889 10.4042 9.21897ZM11.1911 8.97821C11.4179 8.896 11.6034 8.70189 11.6235 8.52577C11.6348 8.42706 11.6154 8.39974 11.5137 8.37123C11.4458 8.35218 11.3744 8.34015 11.3551 8.34451C11.3357 8.34885 11.266 8.35447 11.2002 8.35696C11.036 8.3632 10.6182 8.57511 10.5612 8.68103C10.4314 8.92227 10.5607 9.11159 10.8292 9.07349C10.9188 9.06078 11.0817 9.0179 11.1911 8.97821ZM10.7377 8.89571C10.6213 8.86529 10.643 8.81657 10.8262 8.69673C11.0487 8.55117 11.1461 8.51135 11.2907 8.50678C11.5345 8.49907 11.3566 8.74883 11.0422 8.85556C10.9278 8.89441 10.8299 8.92389 10.8246 8.92107C10.8194 8.91824 10.7803 8.90684 10.7377 8.89571ZM12.8547 7.79414C12.8122 7.68339 12.874 7.62917 12.9414 7.71806C13.0196 7.82119 13.0201 7.86449 12.9433 7.86449C12.9094 7.86449 12.8695 7.83283 12.8547 7.79414ZM11.3902 6.97972C11.3752 6.95539 11.384 6.93548 11.4097 6.93548C11.4355 6.93548 11.4566 6.95539 11.4566 6.97972C11.4566 7.00405 11.4478 7.02396 11.4371 7.02396C11.4263 7.02396 11.4053 7.00405 11.3902 6.97972ZM7.88228 12.2278C7.91719 12.1732 7.62021 12.01 7.55708 12.049C7.53557 12.0623 7.55243 12.1315 7.59455 12.2028C7.65282 12.3015 7.69265 12.3257 7.76115 12.3044C7.81066 12.289 7.86517 12.2545 7.88228 12.2278ZM9.81976 12.2441C9.84581 12.1954 9.85716 12.1556 9.84499 12.1556C9.83282 12.1556 9.80157 12.1954 9.77553 12.2441C9.74948 12.2927 9.73813 12.3325 9.75029 12.3325C9.76247 12.3325 9.79372 12.2927 9.81976 12.2441ZM6.7885 11.9012C6.72798 11.7247 6.6425 11.6785 6.51436 11.7531C6.47101 11.7783 6.46043 11.7996 6.49085 11.8003C6.52126 11.801 6.54614 11.8234 6.54614 11.8499C6.54614 11.9083 6.72548 12.0636 6.7953 12.0656C6.83133 12.0666 6.82943 12.0205 6.7885 11.9012ZM8.33507 11.8932C8.40979 11.8106 8.40634 11.8046 8.23309 11.7162C8.01829 11.6066 8.006 11.6054 8.006 11.6931C8.006 11.7522 8.19189 11.9786 8.24044 11.9786C8.24994 11.9786 8.29252 11.9402 8.33507 11.8932ZM7.29819 11.8017C7.27215 11.753 7.2622 11.7132 7.27607 11.7132C7.28995 11.7132 7.28 11.6734 7.25395 11.6247C7.1958 11.5161 7.03276 11.5058 7.03276 11.6108C7.03276 11.7021 7.20277 11.8902 7.28534 11.8902C7.33183 11.8902 7.33476 11.87 7.29819 11.8017ZM7.87329 11.6268C7.87329 11.5616 7.76935 11.3406 7.72337 11.3081C7.65043 11.2565 7.56362 11.3216 7.56362 11.4279C7.56362 11.4847 7.60786 11.5622 7.66194 11.6001C7.7725 11.6775 7.87329 11.6903 7.87329 11.6268ZM8.72782 11.561C8.82411 11.488 8.82972 11.4481 8.75077 11.3981C8.67569 11.3505 8.44838 11.3478 8.44838 11.3945C8.44838 11.4366 8.59366 11.6239 8.62533 11.6227C8.63751 11.6222 8.68362 11.5945 8.72782 11.561ZM5.97105 11.492C5.97105 11.4677 5.96227 11.4478 5.95154 11.4478C5.94081 11.4478 5.91973 11.4677 5.90469 11.492C5.88966 11.5163 5.89844 11.5363 5.9242 11.5363C5.94997 11.5363 5.97105 11.5163 5.97105 11.492ZM7.51938 11.3866C7.51938 11.3772 7.47954 11.3592 7.43085 11.3465C7.38215 11.3337 7.35346 11.3414 7.3671 11.3634C7.39091 11.402 7.51938 11.4215 7.51938 11.3866ZM8.28317 11.304C8.24628 11.1524 8.13538 11.0416 8.07263 11.0936C8.04367 11.1177 8.00887 11.1262 7.9953 11.1127C7.98172 11.0991 7.9572 11.1097 7.94079 11.1363C7.92437 11.1628 7.92736 11.1794 7.94741 11.1731C7.96747 11.1668 8.03771 11.2161 8.10352 11.2826C8.24885 11.4295 8.31564 11.4375 8.28317 11.304ZM8.75805 11.0581C8.75805 10.9897 8.73081 10.8966 8.69752 10.851C8.63918 10.7713 8.63503 10.7719 8.58313 10.8689C8.53679 10.9555 8.54322 10.9843 8.62926 11.0759C8.75465 11.2094 8.75805 11.2089 8.75805 11.0581ZM9.23987 11.0913C9.29807 11.0428 9.33018 10.9887 9.31123 10.9711C9.29229 10.9535 9.26786 10.9641 9.25694 10.9946C9.24251 11.035 9.20178 11.0251 9.10798 10.9583C8.99909 10.8808 8.97491 10.8767 8.95353 10.9324C8.922 11.0146 9.00788 11.1829 9.08033 11.1809C9.10989 11.18 9.18168 11.1398 9.23987 11.0913ZM9.52775 10.8395C9.50016 10.7207 9.39943 10.6073 9.32161 10.6073C9.24144 10.6073 9.31502 10.8081 9.41056 10.85C9.46531 10.874 9.5101 10.9088 9.5101 10.9274C9.5101 10.946 9.52043 10.9612 9.53306 10.9612C9.54568 10.9612 9.5433 10.9064 9.52775 10.8395ZM13.1155 10.0764C13.1305 10.0521 13.1218 10.0322 13.096 10.0322C13.0702 10.0322 13.0491 10.0521 13.0491 10.0764C13.0491 10.1007 13.0579 10.1206 13.0687 10.1206C13.0794 10.1206 13.1005 10.1007 13.1155 10.0764ZM7.65774 9.9105C7.7139 9.83889 7.71182 9.83795 7.62998 9.89798C7.58132 9.93367 7.53321 9.96851 7.52307 9.97539C7.51294 9.98228 7.52543 9.98792 7.55083 9.98792C7.57624 9.98792 7.62435 9.95308 7.65774 9.9105ZM13.3146 9.81096C13.3146 9.78663 13.2947 9.76673 13.2703 9.76673C13.246 9.76673 13.2261 9.78663 13.2261 9.81096C13.2261 9.83529 13.246 9.8552 13.2703 9.8552C13.2947 9.8552 13.3146 9.83529 13.3146 9.81096ZM8.38202 9.32434C8.39706 9.30001 8.38946 9.2801 8.36513 9.2801C8.3408 9.2801 8.30859 9.30001 8.29355 9.32434C8.27852 9.34867 8.28611 9.36858 8.31045 9.36858C8.33478 9.36858 8.36699 9.34867 8.38202 9.32434ZM13.5217 9.27181C13.5076 9.23652 13.4971 9.247 13.495 9.29854C13.4931 9.34517 13.5035 9.3713 13.5183 9.3566C13.5329 9.3419 13.5345 9.30374 13.5217 9.27181ZM13.58 9.10054C13.58 9.07765 13.5601 9.05891 13.5358 9.05891C13.5114 9.05891 13.4915 9.08995 13.4915 9.12788C13.4915 9.16581 13.5114 9.18455 13.5358 9.16951C13.5601 9.15448 13.58 9.12344 13.58 9.10054ZM13.6242 8.90669C13.6242 8.89596 13.6043 8.87488 13.58 8.85984C13.5557 8.84481 13.5358 8.85359 13.5358 8.87935C13.5358 8.90512 13.5557 8.9262 13.58 8.9262C13.6043 8.9262 13.6242 8.91742 13.6242 8.90669ZM13.3531 8.25751C13.3039 8.22575 13.3033 8.21141 13.3498 8.18131C13.3962 8.15134 13.3951 8.13414 13.344 8.0917C13.2941 8.05032 13.2752 8.0535 13.2548 8.10667C13.2247 8.185 13.2649 8.31489 13.3335 8.36075C13.3596 8.37821 13.3883 8.37093 13.3974 8.34458C13.4064 8.31821 13.3865 8.27903 13.3531 8.25751ZM9.10182 8.22668C9.12836 8.14706 9.03692 8.16379 9.00606 8.2442C8.98953 8.28729 8.99942 8.30751 9.03174 8.29674C9.06065 8.28711 9.09219 8.25558 9.10182 8.22668ZM9.41025 8.07517C9.4161 7.99739 9.40874 7.99028 9.3761 8.04199C9.32496 8.12288 9.32181 8.17415 9.36798 8.17415C9.38713 8.17415 9.40615 8.12961 9.41025 8.07517ZM13.3736 7.75712C13.3869 7.72241 13.3707 7.6715 13.3375 7.644C13.289 7.60369 13.2823 7.61298 13.3029 7.69192C13.3205 7.75937 13.3126 7.77999 13.2773 7.7582C13.2491 7.74079 13.2261 7.74763 13.2261 7.7734C13.2261 7.84321 13.3456 7.83002 13.3736 7.75712ZM11.8186 5.95266C11.7868 5.92092 11.7662 5.91831 11.7662 5.94602C11.7662 6.00507 11.8186 6.05739 11.8481 6.02786C11.8607 6.01529 11.8474 5.98145 11.8186 5.95266ZM11.6591 5.75106C11.583 5.6781 11.582 5.67904 11.638 5.77222C11.6702 5.82586 11.7061 5.86022 11.7177 5.84859C11.7293 5.83695 11.703 5.79306 11.6591 5.75106ZM15.4822 18.8798C15.4822 18.8554 15.5033 18.8355 15.5291 18.8355C15.5549 18.8355 15.5636 18.8554 15.5486 18.8798C15.5336 18.9041 15.5125 18.924 15.5017 18.924C15.491 18.924 15.4822 18.9041 15.4822 18.8798Z" fill="#E85660"/>
</svg>
