<svg width="13" height="19" viewBox="0 0 13 19" fill="none" xmlns="http://www.w3.org/2000/svg">
<path d="M2.74666 13.9931H9.96996L9.96996 0.308594L6.35831 3.40429L2.74666 0.308594V13.9931Z" fill="#696798"/>
<path d="M4.8105 13.9931L4.81051 2.0783L6.35831 3.40429L7.9062 2.0783L7.9062 13.9931H4.8105Z" fill="#E25331"/>
<path d="M0.504888 11.9109C0.504888 12.5767 0.00948365 13.3119 0.189344 13.9114C0.369205 14.511 1.24642 14.8328 1.62507 15.3503C2.00373 15.8678 2.03528 16.764 2.57171 17.1458C3.10813 17.5276 3.94433 17.2783 4.56595 17.4613C5.18757 17.6443 5.69244 18.3795 6.35824 18.3795C7.02404 18.3795 7.56678 17.6727 8.16632 17.4771C8.76585 17.2815 9.64306 17.5213 10.1606 17.1615C10.6781 16.8018 10.7128 15.8994 11.1072 15.3661C11.5016 14.8328 12.322 14.5488 12.524 13.9272C12.7259 13.3056 12.2242 12.5925 12.2242 11.9267C12.2242 11.2609 12.7196 10.5256 12.524 9.9261C12.3284 9.32657 11.4701 8.98894 11.0914 8.47144C10.7128 7.95395 10.6812 7.0578 10.1448 6.67599C9.60835 6.29419 8.77216 6.54347 8.15054 6.36045C7.52891 6.17743 7.02404 5.44222 6.35824 5.44222C5.69244 5.44222 5.14971 6.14904 4.55017 6.34467C3.95064 6.54031 3.07342 6.3005 2.55593 6.66022C2.03844 7.01994 2.00373 7.9224 1.6093 8.45567C1.21486 8.98894 0.394448 9.27293 0.192499 9.89455C-0.00944959 10.5162 0.504888 11.2451 0.504888 11.9109Z" fill="#E89F00"/>
<path d="M6.35832 7.60821C3.98202 7.60821 2.05565 9.53458 2.05565 11.9109C2.05565 14.2872 3.98202 16.2136 6.35832 16.2136C8.73462 16.2136 10.661 14.2872 10.661 11.9109C10.661 9.53458 8.73462 7.60821 6.35832 7.60821Z" fill="#F4CE7B"/>
<path d="M6.78544 9.74053L7.26507 10.5704C7.29988 10.6324 7.34787 10.686 7.40567 10.7275C7.46346 10.7689 7.52964 10.7972 7.59955 10.8102L8.56196 11.0027C8.64804 11.0176 8.72847 11.0555 8.79467 11.1125C8.86088 11.1695 8.91039 11.2434 8.93791 11.3263C8.96544 11.4092 8.96996 11.498 8.95098 11.5833C8.93201 11.6686 8.89025 11.7471 8.83017 11.8105L8.16753 12.511C8.11931 12.5618 8.08298 12.6227 8.06115 12.6893C8.03932 12.7559 8.03255 12.8265 8.04131 12.896L8.15491 13.8426C8.16348 13.9294 8.14898 14.017 8.11285 14.0964C8.07672 14.1759 8.02025 14.2443 7.94916 14.2949C7.87807 14.3455 7.79488 14.3765 7.708 14.3846C7.62112 14.3927 7.53363 14.3777 7.4544 14.3412L6.56772 13.9404C6.50228 13.9108 6.43128 13.8955 6.35946 13.8955C6.28763 13.8955 6.21663 13.9108 6.1512 13.9404L5.26452 14.3412C5.18503 14.3793 5.09682 14.3955 5.00898 14.3881C4.92114 14.3807 4.83686 14.3501 4.76483 14.2993C4.6928 14.2485 4.63563 14.1794 4.59922 14.0991C4.56281 14.0188 4.54848 13.9303 4.5577 13.8426L4.67129 12.896C4.68006 12.8265 4.67328 12.7559 4.65145 12.6893C4.62963 12.6227 4.59329 12.5618 4.54507 12.511L3.88243 11.8105C3.82241 11.7475 3.78054 11.6695 3.76122 11.5846C3.74191 11.4998 3.74588 11.4113 3.77271 11.3286C3.79954 11.2458 3.84824 11.1718 3.91366 11.1145C3.97907 11.0571 4.05877 11.0185 4.14433 11.0027L5.09097 10.8165C5.16087 10.8035 5.22705 10.7752 5.28485 10.7338C5.34264 10.6924 5.39064 10.6387 5.42544 10.5767L5.92085 9.74053C5.96517 9.66529 6.02837 9.60292 6.10418 9.55958C6.18 9.51625 6.26582 9.49345 6.35315 9.49345C6.44047 9.49345 6.52629 9.51625 6.60211 9.55958C6.67793 9.60292 6.74112 9.66529 6.78544 9.74053Z" fill="#E89F00"/>
</svg>
