<svg width="30" height="27" viewBox="0 0 30 27" fill="none" xmlns="http://www.w3.org/2000/svg">
<circle cx="11.2498" cy="10.955" r="10.6282" fill="#061F31"/>
<path d="M12.7573 0.433616C11.7379 0.771916 10.7797 1.3467 9.96839 2.15797C7.1853 4.94106 7.1853 9.45333 9.96838 12.2364C12.7515 15.0195 17.2637 15.0195 20.0468 12.2364C20.8581 11.4252 21.4328 10.467 21.7711 9.44761C22.2267 12.6452 21.2247 16.0105 18.765 18.4702C14.6145 22.6208 7.88507 22.6208 3.7345 18.4702C-0.416059 14.3197 -0.416059 7.59027 3.7345 3.4397C6.19424 0.979967 9.55968 -0.0220632 12.7573 0.433616Z" fill="#DFECF3"/>
<path d="M12.9845 21.8935C12.9146 21.5359 12.878 21.1664 12.878 20.7884C12.878 17.6251 15.4423 15.0608 18.6056 15.0608C21.4665 15.0608 23.8375 17.1583 24.2646 19.8995C24.7199 19.6902 25.2265 19.5735 25.7604 19.5735C27.74 19.5735 29.3447 21.1782 29.3447 23.1578C29.3447 25.1374 27.74 26.7422 25.7604 26.7422H11.3121C10.0252 26.7422 8.98193 25.6989 8.98193 24.412C8.98193 23.6711 9.27627 22.9605 9.80018 22.4366C10.3241 21.9127 11.0347 21.6184 11.7756 21.6184C12.1981 21.6184 12.6107 21.7141 12.9845 21.8935Z" fill="#1B5C89"/>
</svg>
