<svg width="30" height="27" viewBox="0 0 30 27" fill="none" xmlns="http://www.w3.org/2000/svg">
<path d="M12.9317 0.223045C11.9122 0.561345 10.954 1.13613 10.1427 1.9474C7.35962 4.73049 7.35961 9.24276 10.1427 12.0258C12.9258 14.8089 17.4381 14.8089 20.2211 12.0258C21.0324 11.2146 21.6071 10.2565 21.9455 9.23704C22.4011 12.4346 21.399 15.8 18.9393 18.2596C14.7888 22.4102 8.05938 22.4102 3.90882 18.2596C-0.241742 14.1091 -0.241742 7.3797 3.90882 3.22913C6.36856 0.769396 9.734 -0.232634 12.9317 0.223045Z" fill="#DFECF3"/>
<path d="M13.1588 21.6829C13.0889 21.3253 13.0523 20.9558 13.0523 20.5778C13.0523 17.4146 15.6166 14.8502 18.7799 14.8502C21.6408 14.8502 24.0118 16.9478 24.4389 19.6889C24.8942 19.4796 25.4008 19.3629 25.9347 19.3629C27.9143 19.3629 29.519 20.9676 29.519 22.9472C29.519 24.9268 27.9143 26.5316 25.9347 26.5316H11.4864C10.1995 26.5316 9.15625 25.4884 9.15625 24.2015C9.15625 23.4605 9.45058 22.7499 9.9745 22.226C10.4984 21.7021 11.209 21.4078 11.9499 21.4078C12.3724 21.4078 12.785 21.5035 13.1588 21.6829Z" fill="#1B5C89"/>
</svg>
