<svg width="431" height="131" viewBox="0 0 431 131" fill="none" xmlns="http://www.w3.org/2000/svg">
<g clip-path="url(#clip0_441_2)">
<rect x="0.673828" y="0.649902" width="430" height="130" fill="url(#paint0_linear_441_2)"/>
<path d="M38.9022 10.8801C36.7222 11.6035 34.6731 12.8326 32.9383 14.5674C26.987 20.5187 26.987 30.1678 32.9383 36.1191C38.8896 42.0704 48.5387 42.0704 54.49 36.1191C56.2247 34.3844 57.4538 32.3354 58.1772 30.1555C59.1515 36.9932 57.0087 44.1896 51.749 49.4494C42.8734 58.3249 28.4834 58.3249 19.6078 49.4494C10.7323 40.5739 10.7323 26.1838 19.6078 17.3083C24.8677 12.0484 32.0643 9.90564 38.9022 10.8801Z" fill="#DFECF3"/>
<path d="M39.3881 59.2076C39.2387 58.443 39.1604 57.6529 39.1604 56.8445C39.1604 50.0802 44.6439 44.5967 51.4082 44.5967C57.526 44.5967 62.5962 49.0821 63.5095 54.9437C64.483 54.4961 65.5663 54.2465 66.708 54.2465C70.9411 54.2465 74.3727 57.6781 74.3727 61.9113C74.3727 66.1444 70.9411 69.576 66.708 69.576H35.8118C33.0599 69.576 30.8291 67.3452 30.8291 64.5933C30.8291 63.0089 31.4585 61.4894 32.5788 60.3691C33.6992 59.2487 35.2187 58.6193 36.8031 58.6193C37.7065 58.6193 38.5889 58.824 39.3881 59.2076Z" fill="#1B5C89"/>
<path d="M15.3875 123.033L-8.13842 114.509L-19.0488 142.126L567.496 140.94L405.068 104.217L342.568 118.341L295.958 104.57L258.529 116.575L192.002 89.619L153.815 112.122L124.834 103.598L73.0087 127.124L42.6638 116.895L15.3875 123.033Z" fill="#0D2638"/>
<circle cx="138.294" cy="30.7826" r="1.69873" fill="#7FBDE8"/>
<circle cx="165.556" cy="20.4395" r="1.69873" fill="#7FBDE8"/>
<circle cx="183.139" cy="39.5005" r="1.69873" fill="#7FBDE8"/>
<circle cx="236.037" cy="14.8246" r="1.69873" fill="#7FBDE8"/>
<circle cx="269.652" cy="37.4318" r="1.69873" fill="#7FBDE8"/>
<circle cx="276.228" cy="23.6902" r="1.69873" fill="#7FBDE8"/>
<circle cx="320.408" cy="11.9434" r="1.69873" fill="#7FBDE8"/>
<circle cx="309.399" cy="27.0876" r="1.69873" fill="#7FBDE8"/>
<circle cx="278.742" cy="61.0597" r="1.69873" fill="#7FBDE8"/>
<circle cx="296.26" cy="55.1412" r="1.69873" fill="#7FBDE8"/>
<circle cx="340.338" cy="73.5071" r="1.69873" fill="#7FBDE8"/>
<circle cx="259.194" cy="107.568" r="1.69873" fill="#7FBDE8"/>
<circle cx="384.56" cy="56.84" r="1.69873" fill="#7FBDE8"/>
<circle cx="405.87" cy="85.631" r="1.69873" fill="#7FBDE8"/>
<circle cx="373.225" cy="82.2335" r="1.69873" fill="#7FBDE8"/>
<circle cx="402.473" cy="8.5459" r="1.69873" fill="#7FBDE8"/>
<circle cx="422.876" cy="15.3408" r="1.69873" fill="#7FBDE8"/>
<circle cx="98.6445" cy="18.7407" r="1.69873" fill="#7FBDE8"/>
<circle cx="107.404" cy="42.8979" r="1.69873" fill="#7FBDE8"/>
<circle cx="27.7412" cy="85.6294" r="1.69873" fill="#7FBDE8"/>
<circle cx="67.8687" cy="104.924" r="1.69873" fill="#7FBDE8"/>
<circle cx="123.266" cy="78.0723" r="1.69873" fill="#7FBDE8"/>
<circle cx="148.952" cy="102.812" r="1.69873" fill="#7FBDE8"/>
<circle cx="216.304" cy="74.6748" r="1.69873" fill="#7FBDE8"/>
<path d="M412.301 113.759L405.583 121.873L398.552 107.525L404.959 109.519L398.651 90.3914L403.968 93.2501L397.364 71.5879L403.372 77.6772L396.811 52.8229L384.713 77.375L391.149 72.4141L379.156 96.6688L385.092 94.763L374.164 109.893L379.348 109.157L370.826 117.907L363.816 107.518L371.952 109.846L362.576 96.6426L369.951 99.3488L361.149 85.8042L367.199 88.5506L358.2 61.9361L345.628 87.8611L351.399 85.9427L340.251 96.818L345.898 96.1861L341.353 101.469L336.76 102.317L334.599 86.0366L330.387 103.661L327.491 97.7267L329.25 98.7004L327.321 87.6965L321.413 96.8515L323.522 97.3331L315.742 105.899L312.867 93.7586L308.458 106.801L304.483 100.941L304.674 108.744L301.559 111.248L299.492 99.7802L298.747 108.686L296.371 106.211L295.57 110.065L292.697 97.0691L293.129 111.693L290.898 103.612L291.059 111.156L289.04 107.197L289.037 113.791L286.357 106.114L284.856 117.435L280.608 104.189L278.792 114.442L276.792 107.128L275.502 112.875L274.513 99.5668L271.099 114.795L269.244 104.698L267.834 114.973L266.947 107.484L263.99 119.539L262.299 116.31L261.561 121.504L259.614 117.623L258.385 122.21L255.406 118.042L256.867 117.886L254.906 109.818L251.357 123.179L249.76 119.258L248.269 124.412L245.497 116.302L243.57 125.329L241.59 127.609L239.142 121.807L241.488 123L238.58 106.992L235.251 122.004L231.935 115.073L230.94 125.123L225.344 132.323L224.269 127.316L222.412 132.102L220.381 123.633L216.742 133.076L213.61 123.17L210.777 134.033L440.983 142.132L449.508 102.555L439.52 76.856L432.902 57.5145L438.336 59.5799L428.405 24.7866L413.802 58.9179L420.905 56.5442L407.603 78.9589L418.982 73.6057L402.953 97.8226L415.264 98.6967L406.276 106.464L412.384 107.813L403.552 114.788L412.301 113.759Z" fill="#00081E"/>
</g>
<defs>
<linearGradient id="paint0_linear_441_2" x1="215.674" y1="0.649902" x2="215.674" y2="130.65" gradientUnits="userSpaceOnUse">
<stop stop-color="#010F2C"/>
<stop offset="1" stop-color="#154B75"/>
</linearGradient>
<clipPath id="clip0_441_2">
<rect width="430" height="130" fill="white" transform="translate(0.673828 0.649902)"/>
</clipPath>
</defs>
</svg>
