<svg width="430" height="141" viewBox="0 0 430 141" fill="none" xmlns="http://www.w3.org/2000/svg">
<g clip-path="url(#clip0_472_8)">
<rect width="430" height="130" fill="url(#paint0_linear_472_8)"/>
<path d="M38.2284 10.2302C36.0483 10.9536 33.9993 12.1827 32.2645 13.9175C26.3131 19.8688 26.3131 29.5179 32.2645 35.4692C38.2158 41.4205 47.8648 41.4205 53.8162 35.4692C55.5509 33.7345 56.78 31.6855 57.5034 29.5056C58.4776 36.3433 56.3349 43.5397 51.0751 48.7995C42.1996 57.675 27.8095 57.675 18.934 48.7995C10.0585 39.924 10.0585 25.5339 18.934 16.6584C24.1939 11.3985 31.3905 9.25574 38.2284 10.2302Z" fill="#DFECF3"/>
<path d="M38.7143 58.5577C38.5649 57.7931 38.4866 57.003 38.4866 56.1946C38.4866 49.4303 43.9701 43.9468 50.7344 43.9468C56.8522 43.9468 61.9224 48.4322 62.8357 54.2938C63.8091 53.8462 64.8925 53.5966 66.0342 53.5966C70.2673 53.5966 73.6989 57.0282 73.6989 61.2614C73.6989 65.4945 70.2673 68.9261 66.0342 68.9261H35.138C32.3861 68.9261 30.1553 66.6953 30.1553 63.9434C30.1553 62.359 30.7847 60.8395 31.905 59.7192C33.0254 58.5988 34.5449 57.9694 36.1293 57.9694C37.0327 57.9694 37.915 58.1741 38.7143 58.5577Z" fill="#1B5C89"/>
<path d="M14.7136 122.383L-8.81225 113.859L-19.7227 143.476L566.823 144.29L404.394 103.567L341.894 117.691L295.284 103.92L257.855 115.925L191.328 88.9691L153.141 111.472L124.16 102.948L72.3349 126.474L41.99 116.245L14.7136 122.383Z" fill="#061F31"/>
<circle cx="137.62" cy="30.1327" r="1.69873" fill="#7FBDE8"/>
<circle cx="164.882" cy="19.7896" r="1.69873" fill="#7FBDE8"/>
<circle cx="182.465" cy="38.8506" r="1.69873" fill="#7FBDE8"/>
<circle cx="235.363" cy="14.1747" r="1.69873" fill="#7FBDE8"/>
<circle cx="268.979" cy="36.7819" r="1.69873" fill="#7FBDE8"/>
<circle cx="275.554" cy="23.0403" r="1.69873" fill="#7FBDE8"/>
<circle cx="319.734" cy="11.2935" r="1.69873" fill="#7FBDE8"/>
<circle cx="308.726" cy="26.4377" r="1.69873" fill="#7FBDE8"/>
<circle cx="278.068" cy="60.4098" r="1.69873" fill="#7FBDE8"/>
<circle cx="295.586" cy="54.4913" r="1.69873" fill="#7FBDE8"/>
<circle cx="339.665" cy="72.8572" r="1.69873" fill="#7FBDE8"/>
<circle cx="258.521" cy="106.918" r="1.69873" fill="#7FBDE8"/>
<circle cx="383.886" cy="56.1901" r="1.69873" fill="#7FBDE8"/>
<circle cx="405.196" cy="84.9811" r="1.69873" fill="#7FBDE8"/>
<circle cx="372.551" cy="81.5836" r="1.69873" fill="#7FBDE8"/>
<circle cx="401.799" cy="7.896" r="1.69873" fill="#7FBDE8"/>
<circle cx="422.202" cy="14.6909" r="1.69873" fill="#7FBDE8"/>
<circle cx="97.9707" cy="18.0908" r="1.69873" fill="#7FBDE8"/>
<circle cx="106.73" cy="42.248" r="1.69873" fill="#7FBDE8"/>
<circle cx="27.0674" cy="84.9795" r="1.69873" fill="#7FBDE8"/>
<circle cx="67.1948" cy="104.274" r="1.69873" fill="#7FBDE8"/>
<circle cx="122.592" cy="77.4224" r="1.69873" fill="#7FBDE8"/>
<circle cx="148.278" cy="102.162" r="1.69873" fill="#7FBDE8"/>
<circle cx="215.63" cy="74.0249" r="1.69873" fill="#7FBDE8"/>
<path fill-rule="evenodd" clip-rule="evenodd" d="M404.91 121.223L411.628 113.109L402.878 114.138L411.71 107.164L405.602 105.814L414.59 98.0468L402.279 97.1728L418.308 72.9558L406.929 78.3091L420.232 55.8944L413.128 58.2681L427.731 24.1367L437.662 58.93L432.229 56.8647L438.847 76.2061L448.835 101.906L440.309 141.482L429.674 141.108V129.65H226.243L230.266 124.473L231.261 114.423L234.578 121.354L237.907 106.342L240.814 122.35L238.468 121.157L240.916 126.959L242.896 124.679L244.823 115.652L247.596 123.763L249.087 118.608L250.684 122.529L254.233 109.168L256.194 117.236L254.732 117.392L257.711 121.56L258.94 116.973L260.888 120.855L261.625 115.661L263.316 118.889L266.274 106.834L267.16 114.323L268.571 104.048L270.425 114.145L273.84 98.9169L274.828 112.225L276.118 106.478L278.118 113.792L279.935 103.539L284.182 116.785L285.683 105.464L288.364 113.141L288.367 106.547L290.386 110.507L290.224 102.962L292.456 111.043L292.023 96.4192L294.896 109.416L295.698 105.561L298.074 108.036L298.818 99.1303L300.885 110.598L304 108.094L303.81 100.291L307.785 106.152L312.193 93.1087L315.068 105.249L322.848 96.6833L320.74 96.2016L326.647 87.0466L328.576 98.0505L326.818 97.0769L329.713 103.011L333.926 85.3867L336.086 101.667L340.679 100.819L345.225 95.5362L339.578 96.1682L350.726 85.2929L344.955 87.2112L357.526 61.2863L366.526 87.9007L360.476 85.1543L369.277 98.6989L361.903 95.9927L371.279 109.196L363.142 106.868L370.153 117.257L378.675 108.507L373.49 109.243L384.418 94.1131L378.482 96.0189L390.476 71.7642L384.039 76.7251L396.138 52.173L402.698 77.0273L396.69 70.938L403.295 92.6003L397.977 89.7416L404.285 108.87L397.878 106.875L404.91 121.223ZM224.236 129.65L223.595 126.666L222.438 129.65H224.236ZM221.306 129.65L219.707 122.983L217.138 129.65H221.306ZM215.19 129.65L212.936 122.52L211.077 129.65H215.19Z" fill="#000813"/>
</g>
<defs>
<linearGradient id="paint0_linear_472_8" x1="215" y1="0" x2="215" y2="130" gradientUnits="userSpaceOnUse">
<stop stop-color="#010F2C"/>
<stop offset="1" stop-color="#154B75"/>
</linearGradient>
<clipPath id="clip0_472_8">
<rect width="430" height="141" fill="white"/>
</clipPath>
</defs>
</svg>
