<svg width="25" height="21" viewBox="0 0 25 21" fill="none" xmlns="http://www.w3.org/2000/svg">
<path fill-rule="evenodd" clip-rule="evenodd" d="M10.4539 8.1277L13.9168 11.5905C14.3173 11.1542 14.5618 10.5723 14.5618 9.93343C14.5618 8.57987 13.4646 7.48266 12.111 7.48266C11.4721 7.48266 10.8903 7.72713 10.4539 8.1277Z" fill="#CAB8FF"/>
<path fill-rule="evenodd" clip-rule="evenodd" d="M14.7093 17.5825C13.8794 17.7821 13.01 17.8984 12.1105 17.8984C9.34755 17.8984 6.86895 16.8013 4.93963 15.5604C3.00303 14.3148 1.53194 12.868 0.759034 12.0346C0.00196834 11.2182 -0.0688587 9.98943 0.614255 9.09343C1.14844 8.39288 2.06833 7.29446 3.32547 6.19857L5.06309 7.93618C3.97076 8.86845 3.14888 9.82437 2.64912 10.4677C3.36274 11.2258 4.63606 12.4512 6.26537 13.4992C7.97545 14.5991 9.99063 15.4476 12.1105 15.4476C12.2615 15.4476 12.412 15.4434 12.5618 15.4349L14.7093 17.5825ZM16.6019 14.2762L18.4119 16.0862C18.7127 15.9159 19.0027 15.7397 19.2814 15.5604C21.2179 14.3148 22.6891 12.868 23.462 12.0346C24.219 11.2182 24.2899 9.98943 23.6068 9.09343C22.9046 8.17255 21.5361 6.56435 19.6111 5.17796C17.6848 3.79061 15.1378 2.58113 12.1105 2.58113C9.94002 2.58113 8.01662 3.20281 6.39175 4.06599L8.22227 5.89652C9.39684 5.3692 10.6996 5.0319 12.1105 5.0319C14.4657 5.0319 16.5198 5.97182 18.1788 7.16664C19.7653 8.30918 20.9323 9.64436 21.572 10.4677C20.8583 11.2258 19.585 12.4512 17.9556 13.4992C17.5229 13.7774 17.0706 14.0398 16.6019 14.2762Z" fill="#CAB8FF"/>
<path fill-rule="evenodd" clip-rule="evenodd" d="M1.44064 0.489277C1.91919 0.0107357 2.69505 0.0107357 3.1736 0.489277L21.5543 18.87C22.0329 19.3485 22.0329 20.1244 21.5543 20.603C21.0758 21.0815 20.2999 21.0815 19.8214 20.603L1.44064 2.22223C0.962103 1.74369 0.962103 0.967818 1.44064 0.489277Z" fill="#CAB8FF"/>
</svg>
