<svg width="15" height="19" viewBox="0 0 15 19" xmlns="http://www.w3.org/2000/svg">
  <path d="M10.4448 0.556765L5.82081 7.02077C5.34939 7.67978 4.35137 7.58889 3.99794 6.85756C3.62155 6.07864 3.16664 5.30356 2.67737 4.52717C2.11435 3.63373 1.05571 3.72559 0.5926 4.37299C0.357467 4.70169 0.274725 5.17265 0.488116 5.73056C1.12206 7.38744 2.32663 8.92706 2.28416 10.2405C2.25777 11.0525 1.89767 13.1858 1.75709 14.0142C1.72178 14.2227 1.79368 14.45 1.96216 14.5743L6.64167 18.0274C6.86351 18.1911 7.18259 18.1455 7.37158 17.9437L8.97308 16.2318C9.02989 16.1712 9.10281 16.1202 9.17989 16.0906C11.4185 15.2302 12.6929 14.3833 13.4756 13.2892C13.6432 13.0549 13.7889 12.8083 13.9163 12.5484C14.6782 10.9943 13.8688 10.0656 13.4388 9.71102C13.3061 9.6017 13.2286 9.43532 13.2375 9.262C13.2928 8.17596 12.5506 7.70196 12.0745 7.51061C11.8657 7.4267 11.7237 7.22559 11.7233 6.9976C11.7215 6.14323 11.213 5.69141 10.772 5.45649C10.475 5.29823 10.3898 4.91738 10.5871 4.6417L12.4505 2.03679C13.4218 0.678733 11.4162 -0.801246 10.4448 0.556765Z" />
</svg>