<svg width="13" height="12" viewBox="0 0 13 12" fill="none" xmlns="http://www.w3.org/2000/svg">
<path d="M5.77504 0.824825C6.02381 0.283653 6.79284 0.283651 7.04161 0.824824L8.27948 3.51767C8.38099 3.7385 8.5902 3.89051 8.83159 3.91881L11.7752 4.26395C12.3667 4.33332 12.6044 5.06471 12.1666 5.46854L9.98803 7.47795C9.80938 7.64274 9.72946 7.88869 9.77714 8.12701L10.3585 11.0332C10.4753 11.6172 9.85317 12.0692 9.33382 11.7776L6.74955 10.3267C6.53763 10.2077 6.27902 10.2077 6.0671 10.3267L3.48283 11.7776C2.96347 12.0692 2.34131 11.6172 2.45815 11.0332L3.03951 8.12701C3.08718 7.88869 3.00727 7.64274 2.82862 7.47795L0.650089 5.46854C0.212277 5.06471 0.44992 4.33332 1.04148 4.26395L3.98505 3.91881C4.22644 3.89051 4.43566 3.7385 4.53717 3.51767L5.77504 0.824825Z" fill="#5A98DF"/>
</svg>
