<svg width="30" height="32" viewBox="0 0 30 32" fill="none" xmlns="http://www.w3.org/2000/svg">
<path d="M26.9815 18.3723C26.3916 17.5645 26.0567 16.7547 26.0581 15.8235C26.0567 14.8919 26.3916 14.0835 26.9815 13.2752C27.5728 12.477 28.4127 11.6862 29.4565 11.0512C28.2384 11.1497 27.0941 11.0032 26.1465 10.7046C25.1944 10.3983 24.4487 9.93891 23.903 9.18786C23.3564 8.43728 23.1476 7.58525 23.1495 6.5847C23.1573 5.59134 23.3729 4.45772 23.8448 3.33044C22.9175 4.12614 21.9057 4.6791 20.9624 4.99277C20.0103 5.30252 19.1369 5.36857 18.2572 5.08162C17.3756 4.79667 16.7085 4.23007 16.1196 3.42075C15.541 2.61341 15.0467 1.57052 14.7661 0.381592C14.4855 1.57052 13.9917 2.61341 13.4125 3.42075C12.8241 4.23001 12.1561 4.79667 11.2749 5.08162C10.3947 5.36857 9.52184 5.30252 8.57027 4.99277C7.62697 4.6791 6.61521 4.12668 5.6879 3.33044C6.15979 4.45772 6.37489 5.59134 6.38267 6.5847C6.38412 7.58531 6.17589 8.43728 5.6292 9.18786C5.083 9.93891 4.33779 10.3982 3.38526 10.7046C2.43858 11.0032 1.29423 11.1497 0.0761719 11.0512C1.11997 11.6862 1.95988 12.477 2.55078 13.2752C3.14114 14.0835 3.47562 14.8919 3.47466 15.8235C3.47562 16.7547 3.14114 17.5645 2.55078 18.3723C1.95994 19.1705 1.11997 19.9608 0.0761719 20.5964C1.29429 20.4978 2.43858 20.644 3.38526 20.9426C4.33779 21.2493 5.083 21.7086 5.6292 22.4597C6.17589 23.2098 6.38412 24.0624 6.38267 25.0634C6.37489 26.0572 6.15979 27.1899 5.6879 28.3172C6.61521 27.5209 7.62691 26.9684 8.57027 26.6548C9.52178 26.3451 10.3947 26.2791 11.2749 26.566C12.1561 26.851 12.8241 27.4175 13.4125 28.2269C13.9917 29.0347 14.4855 30.077 14.7661 31.2659C15.0467 30.077 15.541 29.0347 16.1196 28.2269C16.7085 27.4175 17.3756 26.8509 18.2572 26.566C19.1374 26.2791 20.0103 26.3451 20.9624 26.6548C21.9057 26.9685 22.9175 27.5209 23.8448 28.3172C23.3729 27.1898 23.1573 26.0572 23.1495 25.0629C23.1476 24.0623 23.3563 23.2098 23.903 22.4597C24.4492 21.7086 25.1944 21.2494 26.1465 20.9426C27.0941 20.644 28.2384 20.4979 29.4565 20.5964C28.4127 19.9609 27.5728 19.1705 26.9815 18.3723ZM14.7661 24.3114C10.0791 24.3114 6.2788 20.511 6.2788 15.8235C6.2788 11.1361 10.0792 7.33624 14.7661 7.33624C19.454 7.33624 23.2534 11.1361 23.2534 15.8235C23.2534 20.511 19.454 24.3114 14.7661 24.3114Z" fill="#FFEF72"/>
<circle cx="14.7661" cy="15.8237" r="9.69775" fill="#FFEF72"/>
<path d="M14.7664 7.40381C10.1163 7.40381 6.34668 11.1734 6.34668 15.8236C6.34668 20.4742 10.1164 24.2438 14.7664 24.2438C19.4165 24.2438 23.1867 20.4742 23.1867 15.8236C23.1867 11.1734 19.4166 7.40381 14.7664 7.40381Z" fill="#EFB769"/>
<path d="M14.7663 10.2629C11.6952 10.2629 9.20557 12.7525 9.20557 15.8237C9.20557 18.8951 11.6952 21.3847 14.7663 21.3847C17.8374 21.3847 20.3273 18.8951 20.3273 15.8237C20.3273 12.7525 17.8374 10.2629 14.7663 10.2629Z" fill="#FFEF72"/>
</svg>
