<svg width="18" height="15" viewBox="0 0 18 15" fill="none" xmlns="http://www.w3.org/2000/svg">
<path d="M7.3279 0.546818C7.2578 0.480103 7.16274 0.442627 7.06364 0.442627C6.96453 0.442627 6.86948 0.480103 6.79937 0.546818L0.192789 6.8388C0.141764 6.88893 0.107263 6.95218 0.0935457 7.02076C0.0798281 7.08933 0.0874935 7.16024 0.115596 7.22472C0.143698 7.28919 0.191008 7.34442 0.251687 7.38359C0.312366 7.42276 0.383758 7.44415 0.457053 7.44512H2.55915V14.239C2.55915 14.3335 2.59854 14.424 2.66865 14.4908C2.73877 14.5576 2.83386 14.5951 2.93302 14.5951H8.18826C8.23736 14.5955 8.28605 14.5866 8.33156 14.5691C8.37708 14.5516 8.41851 14.5256 8.45351 14.4928C8.48851 14.46 8.51638 14.421 8.53553 14.3779C8.55468 14.3349 8.56474 14.2887 8.56514 14.2419V6.47701C8.56519 6.3826 8.60462 6.29207 8.67474 6.22534L10.8174 3.87013L7.3279 0.546818ZM7.06364 11.7351H5.56214V10.3051H7.06364V11.7351ZM7.06364 8.87512H5.56214V7.44512H7.06364V8.87512ZM17.1987 3.15513H16.448C16.3484 3.15513 16.253 3.1928 16.1826 3.25984C16.1122 3.32688 16.0726 3.41782 16.0726 3.51263V6.01513L14.0846 3.40681C14.0145 3.3401 13.9195 3.30262 13.8204 3.30262C13.7213 3.30262 13.6262 3.3401 13.5561 3.40681L10.1507 7.34788C10.0964 7.41074 10.0667 7.48958 10.0666 7.57096V14.2347C10.066 14.2815 10.0751 14.3279 10.0934 14.3713C10.1116 14.4148 10.1386 14.4543 10.1729 14.4878C10.2072 14.5213 10.2481 14.548 10.2933 14.5664C10.3384 14.5848 10.3869 14.5945 10.436 14.5951H12.6882C12.7381 14.5953 12.7876 14.5861 12.8337 14.5681C12.8799 14.5501 12.9219 14.5236 12.9573 14.4902C12.9927 14.4567 13.0209 14.4169 13.0401 14.3731C13.0594 14.3293 13.0694 14.2823 13.0696 14.2347V11.7351H14.5711V14.2333C14.5711 14.3293 14.6111 14.4213 14.6824 14.4891C14.7536 14.557 14.8503 14.5951 14.951 14.5951H17.2032C17.3018 14.594 17.3959 14.556 17.4652 14.4894C17.5346 14.4228 17.5737 14.3329 17.5741 14.239V3.51263C17.5741 3.41782 17.5346 3.32688 17.4642 3.25984C17.3938 3.1928 17.2983 3.15513 17.1987 3.15513ZM13.0696 10.3051H11.5681V8.87512H13.0696V10.3051ZM16.0726 10.3051H14.5711V8.87512H16.0726V10.3051Z" fill="#FFDD99"/>
</svg>
