<svg width="28" height="17" viewBox="0 0 28 17" fill="none" xmlns="http://www.w3.org/2000/svg">
<path d="M14.1106 6.22527C15.399 6.22527 16.4488 7.27616 16.4488 8.56348C16.4488 9.85079 15.3979 10.8681 14.1106 10.8681C12.8233 10.8681 11.806 9.85079 11.806 8.56348C11.806 7.27616 12.8233 6.22527 14.1106 6.22527ZM14.1106 0.463257C21.7705 0.463257 27.2939 7.64815 27.2939 7.64815C27.667 8.12317 27.667 8.97017 27.2939 9.4441C27.2939 9.4441 21.7694 16.629 14.1106 16.629C6.45177 16.629 0.927265 9.4441 0.927265 9.4441C0.554193 8.96909 0.554193 8.12208 0.927265 7.64815C0.927265 7.64815 6.45177 0.463257 14.1106 0.463257ZM14.1106 14.3591C17.2969 14.3591 19.9062 11.7498 19.9062 8.56348C19.9062 5.37718 17.2969 2.76785 14.1106 2.76785C10.9243 2.76785 8.31496 5.37718 8.31496 8.56348C8.31496 11.7498 10.9243 14.3591 14.1106 14.3591Z" fill="#CAB8FF"/>
</svg>
