<svg width="482" height="482" viewBox="0 0 482 482" fill="none" xmlns="http://www.w3.org/2000/svg">
<circle cx="240.995" cy="241.014" r="240.241" fill="#061F31"/>
<path fill-rule="evenodd" clip-rule="evenodd" d="M308.226 60.3846L236.763 47.7837L231.647 76.799L194.55 70.2577L183.347 133.79C137.316 151.288 101.394 191.873 92.2215 243.893C78.3564 322.526 130.861 397.511 209.494 411.376C288.127 425.241 363.112 372.736 376.977 294.103C386.15 242.083 366.275 191.66 329.005 159.474L340.208 95.9412L303.11 89.3998L308.226 60.3846ZM191.875 156.223L204.616 151.38L214.018 98.0606L312.405 115.409L303.003 168.729L313.319 177.638C344.457 204.529 360.987 246.58 353.342 289.936C341.778 355.515 279.241 399.304 213.662 387.741C148.082 376.177 104.293 313.64 115.857 248.061C123.502 204.705 153.417 170.843 191.875 156.223Z" fill="#61646B" stroke="#61646B" stroke-width="10"/>
<path d="M293.735 217.648C282.936 202.26 266.963 192.024 248.739 188.81L248.616 188.788C230.279 185.589 211.422 189.796 196.185 200.486C180.947 211.175 170.573 227.475 167.341 245.805L161.436 279.296C160.476 284.618 161.143 290.106 163.35 295.044C165.556 299.981 169.2 304.139 173.806 306.974L181.141 311.498C181.907 311.97 182.542 312.627 182.989 313.408C183.436 314.189 183.679 315.07 183.697 315.969L184.083 333.233C184.146 335.729 185.068 338.128 186.694 340.023C188.321 341.917 190.552 343.193 193.01 343.633L196.629 344.271C197.335 344.395 198.062 344.234 198.649 343.823C199.236 343.412 199.636 342.785 199.76 342.079L202.08 328.922C202.585 326.057 205.221 323.987 208.111 324.349C208.836 324.441 209.536 324.68 210.167 325.05C210.798 325.421 211.347 325.916 211.781 326.505C212.215 327.094 212.524 327.765 212.691 328.477C212.858 329.19 212.879 329.928 212.752 330.649L210.406 343.956C210.281 344.662 210.442 345.388 210.853 345.975C211.265 346.562 211.892 346.962 212.598 347.087C213.304 347.211 214.03 347.05 214.617 346.639C215.204 346.228 215.604 345.6 215.729 344.894L218.049 331.737C218.554 328.873 221.189 326.803 224.079 327.165C224.805 327.257 225.504 327.496 226.135 327.866C226.766 328.237 227.315 328.731 227.749 329.321C228.183 329.91 228.493 330.581 228.66 331.293C228.827 332.005 228.848 332.744 228.721 333.465L226.374 346.772C226.25 347.477 226.411 348.204 226.822 348.791C227.233 349.378 227.86 349.778 228.566 349.902C229.272 350.027 229.999 349.866 230.586 349.455C231.173 349.044 231.572 348.416 231.697 347.71L234.017 334.553C234.522 331.689 237.158 329.618 240.047 329.98C240.773 330.073 241.473 330.311 242.104 330.682C242.734 331.052 243.284 331.547 243.717 332.136C244.151 332.725 244.461 333.396 244.628 334.109C244.795 334.821 244.816 335.56 244.689 336.28L242.343 349.587C242.218 350.293 242.379 351.019 242.79 351.607C243.201 352.194 243.829 352.593 244.535 352.718L248.154 353.356C250.615 353.784 253.147 353.35 255.324 352.126C257.501 350.903 259.189 348.965 260.102 346.64L266.37 330.547C266.697 329.709 267.227 328.966 267.913 328.385C268.598 327.804 269.418 327.403 270.298 327.219L278.738 325.476C284.036 324.387 288.882 321.727 292.644 317.842C296.407 313.957 298.91 309.028 299.829 303.698L305.636 270.763C308.921 252.134 304.7 233.275 293.735 217.648ZM201.917 290.279C198.093 289.86 194.487 288.285 191.581 285.765C188.675 283.244 186.607 279.897 185.652 276.171C184.697 272.444 184.901 268.515 186.236 264.907C187.572 261.3 189.975 258.185 193.127 255.978C196.278 253.772 200.027 252.578 203.874 252.557C207.721 252.536 211.482 253.689 214.658 255.861C217.833 258.033 220.27 261.121 221.645 264.714C223.02 268.307 223.267 272.233 222.352 275.97C221.262 280.428 218.587 284.338 214.828 286.97C211.068 289.603 206.479 290.779 201.917 290.279ZM234.692 317.109C233.669 317.558 232.534 317.687 231.436 317.479L220.99 315.637C219.89 315.456 218.87 314.948 218.064 314.177C217.279 313.415 216.743 312.433 216.528 311.36C216.313 310.287 216.429 309.174 216.86 308.168L224.945 293.266C226.229 291.177 227.937 289.763 230.233 289.869C233.04 290.021 234.722 291.645 235.375 294.968L237.882 311.875C237.943 312.968 237.67 314.053 237.101 314.988C236.531 315.923 235.691 316.662 234.692 317.109ZM260.474 300.604C256.65 300.185 253.045 298.611 250.139 296.09C247.233 293.569 245.165 290.222 244.21 286.496C243.255 282.769 243.458 278.84 244.794 275.233C246.129 271.625 248.533 268.51 251.684 266.304C254.835 264.097 258.584 262.904 262.431 262.883C266.278 262.862 270.04 264.014 273.215 266.186C276.39 268.358 278.828 271.446 280.203 275.039C281.577 278.632 281.824 282.559 280.91 286.295C279.819 290.755 277.143 294.665 273.382 297.297C269.621 299.93 265.038 301.106 260.474 300.604Z" fill="#61646B"/>
</svg>
