<svg width="482" height="481" viewBox="0 0 482 481" fill="none" xmlns="http://www.w3.org/2000/svg">
<circle cx="240.995" cy="240.313" r="240.241" fill="#061F31"/>
<path fill-rule="evenodd" clip-rule="evenodd" d="M308.226 59.6844L236.763 47.0835L231.647 76.0988L194.55 69.5575L183.347 133.089C137.316 150.588 101.394 191.173 92.2215 243.193C78.3564 321.826 130.861 396.811 209.494 410.676C288.127 424.541 363.112 372.036 376.977 293.403C386.15 241.383 366.275 190.96 329.005 158.773L340.208 95.241L303.11 88.6997L308.226 59.6844ZM191.875 155.523L204.616 150.68L214.018 97.3604L312.405 114.709L303.003 168.029L313.319 176.937C344.457 203.829 360.987 245.88 353.342 289.235C341.778 354.815 279.241 398.604 213.662 387.04C148.082 375.477 104.293 312.94 115.857 247.36C123.502 204.004 153.417 170.143 191.875 155.523Z" fill="#E85660" stroke="#E85660" stroke-width="10"/>
<path d="M293.735 216.948C282.936 201.559 266.963 191.323 248.739 188.11L248.616 188.088C230.279 184.889 211.422 189.096 196.185 199.785C180.947 210.475 170.573 226.775 167.341 245.105L161.436 278.596C160.476 283.918 161.143 289.406 163.35 294.344C165.556 299.281 169.2 303.439 173.806 306.273L181.141 310.798C181.907 311.27 182.542 311.927 182.989 312.708C183.436 313.489 183.679 314.369 183.697 315.269L184.083 332.533C184.146 335.029 185.068 337.427 186.694 339.322C188.321 341.217 190.552 342.493 193.01 342.933L196.629 343.571C197.335 343.695 198.062 343.534 198.649 343.123C199.236 342.712 199.636 342.084 199.76 341.379L202.08 328.221C202.585 325.357 205.221 323.287 208.111 323.649C208.836 323.741 209.536 323.98 210.167 324.35C210.798 324.721 211.347 325.216 211.781 325.805C212.215 326.394 212.524 327.065 212.691 327.777C212.858 328.489 212.879 329.228 212.752 329.949L210.406 343.256C210.281 343.962 210.442 344.688 210.853 345.275C211.265 345.862 211.892 346.262 212.598 346.386C213.304 346.511 214.03 346.35 214.617 345.939C215.204 345.528 215.604 344.9 215.729 344.194L218.049 331.037C218.554 328.173 221.189 326.102 224.079 326.464C224.805 326.557 225.504 326.795 226.135 327.166C226.766 327.536 227.315 328.031 227.749 328.62C228.183 329.209 228.493 329.88 228.66 330.593C228.827 331.305 228.848 332.044 228.721 332.764L226.374 346.071C226.25 346.777 226.411 347.504 226.822 348.091C227.233 348.678 227.86 349.078 228.566 349.202C229.272 349.327 229.999 349.166 230.586 348.754C231.173 348.343 231.572 347.716 231.697 347.01L234.017 333.853C234.522 330.988 237.158 328.918 240.047 329.28C240.773 329.372 241.473 329.611 242.104 329.982C242.734 330.352 243.284 330.847 243.717 331.436C244.151 332.025 244.461 332.696 244.628 333.408C244.795 334.121 244.816 334.86 244.689 335.58L242.343 348.887C242.218 349.593 242.379 350.319 242.79 350.906C243.201 351.494 243.829 351.893 244.535 352.018L248.154 352.656C250.615 353.084 253.147 352.65 255.324 351.426C257.501 350.202 259.189 348.265 260.102 345.94L266.37 329.847C266.697 329.009 267.227 328.266 267.913 327.685C268.598 327.104 269.418 326.703 270.298 326.519L278.738 324.776C284.036 323.687 288.882 321.027 292.644 317.142C296.407 313.257 298.91 308.328 299.829 302.998L305.636 270.063C308.921 251.433 304.7 232.574 293.735 216.948ZM201.917 289.579C198.093 289.16 194.487 287.585 191.581 285.064C188.675 282.544 186.607 279.197 185.652 275.47C184.697 271.744 184.901 267.815 186.236 264.207C187.572 260.599 189.975 257.485 193.127 255.278C196.278 253.072 200.027 251.878 203.874 251.857C207.721 251.836 211.482 252.988 214.658 255.16C217.833 257.332 220.27 260.421 221.645 264.014C223.02 267.606 223.267 271.533 222.352 275.27C221.262 279.728 218.587 283.638 214.828 286.27C211.068 288.903 206.479 290.079 201.917 289.579ZM234.692 316.409C233.669 316.858 232.534 316.987 231.436 316.778L220.99 314.936C219.89 314.756 218.87 314.247 218.064 313.477C217.279 312.715 216.743 311.733 216.528 310.66C216.313 309.587 216.429 308.474 216.86 307.468L224.945 292.566C226.229 290.477 227.937 289.063 230.233 289.169C233.04 289.321 234.722 290.945 235.375 294.268L237.882 311.175C237.943 312.267 237.67 313.353 237.101 314.288C236.531 315.223 235.691 315.962 234.692 316.409ZM260.474 299.904C256.65 299.485 253.045 297.91 250.139 295.39C247.233 292.869 245.165 289.522 244.21 285.796C243.255 282.069 243.458 278.14 244.794 274.532C246.129 270.925 248.533 267.81 251.684 265.603C254.835 263.397 258.584 262.204 262.431 262.182C266.278 262.161 270.04 263.314 273.215 265.486C276.39 267.658 278.828 270.746 280.203 274.339C281.577 277.932 281.824 281.858 280.91 285.595C279.819 290.054 277.143 293.965 273.382 296.597C269.621 299.23 265.038 300.406 260.474 299.904Z" fill="#E85660"/>
</svg>
