<svg width="24" height="25" viewBox="0 0 24 25" fill="none" xmlns="http://www.w3.org/2000/svg">
<path d="M2.85516 23.8109C2.83287 23.7731 2.76584 23.7167 2.7062 23.6854C2.61304 23.6365 2.59372 23.644 2.56901 23.7385C2.54067 23.8469 2.53874 23.8471 2.43389 23.7522C2.35438 23.6802 2.30585 23.6688 2.24167 23.707C2.12134 23.7785 1.99356 23.74 1.96296 23.623C1.94707 23.5623 1.87661 23.512 1.78039 23.4927C1.69421 23.4755 1.6237 23.4437 1.6237 23.4221C1.6237 23.4005 1.54931 23.3828 1.45839 23.3828C1.36747 23.3828 1.21353 23.349 1.11631 23.3076L0.939538 23.2324L1.13089 23.2449C1.23613 23.2518 1.33256 23.2407 1.34518 23.2203C1.3578 23.1999 1.46554 23.202 1.5846 23.2249C1.77894 23.2623 1.81163 23.2539 1.90433 23.1423C1.96112 23.0739 2.05805 23.018 2.11971 23.018C2.18138 23.018 2.23184 22.9944 2.23184 22.9655C2.23184 22.9313 2.26274 22.9295 2.32052 22.9603C2.48652 23.0488 3.14794 22.9917 3.51039 22.8577C3.88875 22.7177 4.05626 22.5935 4.05626 22.4527C4.05626 22.3628 3.94621 22.3269 3.75219 22.3536C3.71038 22.3594 3.56214 22.3701 3.42278 22.3774C3.26835 22.3855 3.1739 22.4129 3.18093 22.4476C3.18856 22.4851 3.13275 22.4948 3.01666 22.4759C2.91702 22.4598 2.81085 22.4723 2.77164 22.5048C2.73173 22.5379 2.63511 22.5488 2.54329 22.5304C2.44528 22.5108 2.3545 22.5232 2.30703 22.5625C2.24412 22.6148 2.21306 22.6113 2.13821 22.5435C2.02163 22.438 1.94524 22.4383 1.88584 22.5445C1.84312 22.6208 1.82504 22.6185 1.68546 22.5191C1.51901 22.4006 1.42098 22.3796 1.42098 22.4623C1.42098 22.5386 1.21868 22.4222 1.21668 22.3448C1.21407 22.2441 1.00631 22.1231 0.736317 22.065C0.59723 22.0351 0.403614 21.9739 0.306059 21.9289C0.130976 21.8483 0.134431 21.8477 0.573554 21.8756C0.94565 21.8993 1.02334 21.8911 1.04848 21.8256C1.10403 21.6808 1.37156 21.61 1.67514 21.6596C2.44795 21.7859 2.55782 21.7885 3.15069 21.6945C3.47488 21.6431 3.79985 21.5784 3.87285 21.5506C4.04333 21.4858 4.049 21.3027 3.8853 21.149C3.77543 21.0457 3.75807 21.0429 3.68455 21.1164C3.61837 21.1826 3.58623 21.1858 3.50359 21.1342C3.42038 21.0822 3.38662 21.0863 3.30717 21.1582C3.23858 21.2203 3.16555 21.2359 3.05094 21.213C2.92362 21.1875 2.89065 21.1979 2.89065 21.2633C2.89065 21.3533 2.80386 21.3694 2.69382 21.2997C2.65445 21.2747 2.55769 21.2742 2.47323 21.2983C2.37365 21.3269 2.25599 21.3185 2.12527 21.2734C1.95812 21.2158 1.92777 21.2161 1.92777 21.2755C1.92777 21.3682 1.85454 21.3645 1.77418 21.2677C1.73862 21.2248 1.67312 21.1942 1.62861 21.1996C1.5841 21.205 1.48219 21.1825 1.40215 21.1497C1.29986 21.1077 1.23755 21.1058 1.19244 21.1433C1.09969 21.2202 0.906196 21.1192 0.803398 20.94C0.748112 20.8437 0.582628 20.7241 0.322537 20.5924C-0.130614 20.3629 -0.0999085 20.2675 0.374561 20.4308C0.661489 20.5295 0.670498 20.5296 0.769894 20.437C0.955261 20.2643 1.27532 20.2783 1.79909 20.482C1.88162 20.5141 1.99995 20.5276 2.06205 20.512C2.12414 20.4964 2.19058 20.509 2.2097 20.5399C2.23329 20.5781 2.36847 20.5853 2.6309 20.5623C2.84345 20.5437 3.14055 20.5175 3.29113 20.5042C3.54419 20.4818 3.85354 20.3338 3.85354 20.2351C3.85354 20.1769 3.67752 20.0279 3.60883 20.0279C3.57618 20.0279 3.54947 20.0507 3.54947 20.0786C3.54947 20.1446 3.36213 20.1445 3.32133 20.0785C3.30034 20.0445 3.25845 20.0445 3.19498 20.0785C3.06417 20.1485 2.90377 20.1422 2.87616 20.0659C2.8581 20.0161 2.83113 20.0156 2.74956 20.0637C2.66616 20.1128 2.63411 20.1105 2.58558 20.0521C2.54015 19.9973 2.50072 19.9925 2.42583 20.0326C2.35146 20.0724 2.29695 20.0665 2.20955 20.0092C2.14528 19.9671 2.04407 19.9454 1.98462 19.9609C1.92518 19.9765 1.8424 19.9609 1.80067 19.9262C1.75542 19.8887 1.66285 19.8757 1.57128 19.894C1.43926 19.9204 1.41076 19.9063 1.36779 19.7932C1.33012 19.6942 1.29215 19.6685 1.21356 19.6891C1.10533 19.7174 0.914197 19.5925 0.914197 19.4935C0.914197 19.42 0.533588 19.2339 0.293389 19.1899C0.188865 19.1708 0.103344 19.1349 0.103344 19.1101C0.103344 19.056 0.645474 19.0562 0.783722 19.1105C0.849223 19.1361 0.910803 19.1192 0.97106 19.0589C1.08266 18.9473 1.50725 18.969 1.7014 19.0962C1.77189 19.1424 1.84326 19.1665 1.85999 19.1498C1.87673 19.133 1.93873 19.1462 1.99778 19.179C2.05683 19.2118 2.16455 19.2419 2.23715 19.2457C2.30976 19.2496 2.39747 19.2703 2.43207 19.2916C2.51321 19.3418 3.67396 19.3769 3.89809 19.336C4.00563 19.3164 4.07853 19.2696 4.09405 19.2103C4.10764 19.1583 4.14817 19.1158 4.18412 19.1158C4.28877 19.1158 4.21412 18.9365 4.06295 18.8247C3.98767 18.769 3.81284 18.7093 3.67443 18.692C3.53602 18.6747 3.37318 18.6506 3.31256 18.6384C3.17162 18.6101 2.7893 18.2412 2.7893 18.1335C2.7893 18.0884 2.76824 18.0516 2.74251 18.0516C2.71677 18.0516 2.63125 17.9997 2.55246 17.9363C2.47367 17.873 2.34079 17.8137 2.25718 17.8047C2.17356 17.7957 2.09374 17.7763 2.0798 17.7617C2.03974 17.7195 2.7448 17.803 2.88763 17.8573C2.9584 17.8842 3.09065 17.8923 3.18153 17.8753C3.28244 17.8563 3.34676 17.8649 3.34676 17.8972C3.34676 17.9631 3.55178 17.9661 3.71847 17.9027C3.82202 17.8633 3.84778 17.872 3.86906 17.9534C3.88517 18.015 3.939 18.0518 4.0135 18.0523C4.20932 18.0534 4.36033 18.1098 4.36033 18.1818C4.36033 18.2435 4.64619 18.3547 4.80675 18.3553C4.84324 18.3555 4.85838 18.3794 4.8404 18.4085C4.77588 18.5129 4.92539 18.6154 5.08957 18.5793C5.22393 18.5498 5.2366 18.5555 5.18223 18.6211C5.08785 18.7348 5.2259 18.83 5.42249 18.7869C5.56311 18.756 5.57661 18.7645 5.57661 18.8837C5.57661 19.0264 5.64128 19.0452 5.85416 18.9642C5.96678 18.9214 5.98409 18.927 5.97148 19.0022C5.96164 19.0609 5.99485 19.0959 6.07072 19.1067C6.13343 19.1156 6.18475 19.1411 6.18475 19.1633C6.18475 19.1856 6.31452 19.2068 6.47314 19.2105C6.63176 19.2141 6.7743 19.2374 6.78988 19.2621C6.80547 19.2868 6.90374 19.3017 7.00827 19.2952C7.11279 19.2888 7.19831 19.2976 7.19831 19.3148C7.19831 19.3321 7.34655 19.3528 7.52772 19.361C7.79911 19.3732 7.85713 19.3617 7.85713 19.2965C7.85713 19.2529 7.8313 19.2172 7.79973 19.2172C7.76816 19.2172 7.7052 19.1773 7.65982 19.1285C7.61444 19.0797 7.52158 19.0082 7.45346 18.9695C7.35345 18.9128 7.3254 18.9119 7.30774 18.9649C7.29439 19.0049 7.20044 18.9335 7.06667 18.7817C6.87439 18.5636 6.84722 18.5474 6.84551 18.65C6.84289 18.8074 6.75818 18.7464 6.71665 18.5573C6.67861 18.3842 6.53442 18.2796 6.45001 18.364C6.41134 18.4027 6.36546 18.3591 6.29093 18.2131C6.15949 17.9554 6.09548 17.9152 6.00561 18.0338C5.93899 18.1217 5.93448 18.1191 5.93296 17.9918C5.93038 17.7747 5.67568 17.5909 5.61182 17.7602C5.59869 17.795 5.54989 17.7357 5.50341 17.6283C5.43893 17.4794 5.39626 17.439 5.32345 17.458C5.24778 17.4778 5.21424 17.4396 5.16158 17.2736C5.09298 17.0573 4.94236 16.9669 4.86342 17.0946C4.82111 17.1631 4.75107 17.0349 4.70782 16.8099C4.69614 16.7491 4.64807 16.7086 4.58768 16.7086C4.46736 16.7086 4.41283 16.6446 4.41178 16.502C4.41082 16.3836 4.19548 16.1555 4.13843 16.2125C4.08298 16.268 4.00381 16.1136 4.03549 16.0117C4.10789 15.7791 3.84166 15.5512 3.68288 15.71C3.60636 15.7865 3.5995 15.7853 3.59148 15.6932C3.57442 15.4972 3.56167 15.4393 3.49901 15.273C3.44544 15.1308 3.4166 15.1091 3.3151 15.1346C3.18877 15.1663 3.1906 15.1706 3.17488 14.8081C3.1703 14.7025 3.14618 14.683 3.03002 14.691C2.89996 14.6999 2.89065 14.6872 2.89065 14.5009C2.89065 14.3571 2.86937 14.3014 2.81444 14.3014C2.75961 14.3014 2.74184 14.2552 2.7511 14.1367C2.76178 13.9998 2.74474 13.9693 2.64993 13.9558C2.54632 13.941 2.53591 13.9121 2.53591 13.639C2.53591 13.3297 2.48187 13.2654 2.3368 13.4018C2.28116 13.4542 2.27376 13.4211 2.29425 13.2118C2.32692 12.878 2.27906 12.7053 2.1534 12.7037C2.05057 12.7024 2.05038 12.701 2.10102 12.3069C2.12238 12.1407 2.11048 12.1075 2.02108 12.0841C1.92875 12.0599 1.91969 12.0299 1.94627 11.836C1.96421 11.705 1.9563 11.6154 1.9268 11.6154C1.89946 11.6154 1.87709 11.567 1.87709 11.5078C1.87709 11.4135 1.86676 11.4088 1.79312 11.4698C1.71651 11.5333 1.71246 11.5216 1.7469 11.3367C1.79098 11.0999 1.78943 11.1165 1.78173 10.9658C1.77696 10.8724 1.75498 10.855 1.67437 10.8806C1.5532 10.919 1.54261 10.8387 1.6434 10.6455C1.70725 10.5231 1.70104 10.2471 1.63444 10.2471C1.61898 10.2471 1.56291 10.2864 1.50985 10.3344C1.41668 10.4187 1.41451 10.4165 1.44663 10.2711C1.46492 10.1882 1.50344 10.0581 1.53222 9.98194C1.60161 9.79835 1.55009 9.67055 1.42036 9.70447C1.29904 9.7362 1.29784 9.7267 1.39867 9.53171C1.51067 9.31513 1.47768 9.11127 1.32718 9.08996C1.22506 9.0755 1.21315 9.0538 1.24377 8.93793C1.26342 8.86358 1.28282 8.71154 1.28689 8.60004C1.29325 8.42572 1.27831 8.39506 1.18025 8.38114C1.04771 8.36231 1.03511 8.30887 1.14224 8.21996C1.24131 8.13774 1.23851 8.04473 1.13379 7.94003C1.06227 7.86851 1.05853 7.83015 1.10937 7.68955C1.17815 7.49933 1.1421 7.35193 1.03668 7.39239C0.942483 7.42853 0.945188 7.3628 1.04231 7.25548C1.15432 7.13171 1.05827 6.88192 0.916034 6.92707C0.820105 6.95752 0.819147 6.95007 0.888797 6.71509C0.946243 6.52128 0.961168 6.25234 0.919955 6.15365C0.916775 6.14604 0.856775 6.17742 0.786618 6.22339C0.665312 6.30287 0.66069 6.30231 0.692342 6.2119C0.710653 6.1596 0.757756 6.09068 0.797028 6.05875C0.857796 6.00933 0.854199 5.97728 0.772871 5.84355C0.720314 5.75712 0.662191 5.70153 0.64371 5.72002C0.625226 5.7385 0.610106 5.73157 0.610106 5.70464C0.610106 5.67769 0.634843 5.63091 0.665076 5.60068C0.752322 5.51343 0.701548 5.30338 0.597438 5.32086C0.502451 5.33681 0.472977 5.20736 0.559428 5.15393C0.64484 5.10114 0.616158 4.978 0.488786 4.85063C0.422059 4.7839 0.381124 4.71565 0.397816 4.69896C0.414519 4.68227 0.430452 4.57752 0.433245 4.4662C0.436942 4.31912 0.42024 4.27073 0.37218 4.28917C0.291818 4.32001 0.289267 4.29172 0.36042 4.15878C0.399178 4.08636 0.399098 4.01211 0.360229 3.90035C0.315774 3.77283 0.320962 3.72652 0.388007 3.65244C0.474158 3.55724 0.452512 3.40553 0.352777 3.40553C0.320941 3.40553 0.346073 3.36409 0.408611 3.31345C0.504178 3.23606 0.51314 3.20419 0.464767 3.11381C0.426978 3.0432 0.424661 2.99547 0.458025 2.97485C0.485974 2.95757 0.508841 2.90755 0.508841 2.86369C0.508841 2.81983 0.550014 2.74705 0.600337 2.70198C0.690865 2.62088 0.913546 2.01528 0.915044 1.8461C0.91581 1.77066 0.922954 1.76905 0.967177 1.8345C0.997542 1.87944 1.00566 2.04859 0.98703 2.24829C0.958102 2.55842 0.964402 2.59082 1.06403 2.64413C1.14121 2.68544 1.1633 2.73127 1.14057 2.8029C1.12299 2.85829 1.13521 2.93567 1.16774 2.97486C1.21156 3.02766 1.21331 3.13527 1.17448 3.39052C1.11575 3.77667 1.21033 4.67826 1.31317 4.71254C1.34463 4.72304 1.37037 4.7727 1.37037 4.82291C1.37037 4.91919 1.57043 5.07791 1.69179 5.07791C1.73117 5.07791 1.79153 5.044 1.82593 5.00255C1.90495 4.90734 1.85056 4.67249 1.74949 4.67249C1.66098 4.67249 1.65704 4.64766 1.7253 4.52012C1.76462 4.44664 1.75464 4.41002 1.68126 4.35862C1.58211 4.28917 1.57472 4.23792 1.57306 3.60824C1.57133 2.97245 1.58005 2.89289 1.65402 2.8645C1.76604 2.82152 1.73692 2.69603 1.61493 2.69603H1.50474L1.61493 2.57874C1.73579 2.45009 1.76163 2.29086 1.66177 2.29016C1.62693 2.28997 1.68301 2.20954 1.7864 2.11154C1.91365 1.99094 1.98414 1.87236 2.00456 1.74457C2.02114 1.64073 2.05629 1.51617 2.08264 1.46777C2.10899 1.41937 2.13055 1.33385 2.13055 1.27772C2.13055 1.2216 2.14765 1.17568 2.16856 1.17568C2.18946 1.17569 2.20927 1.34102 2.21257 1.5431C2.21719 1.82568 2.24483 1.95464 2.33223 2.10162C2.3988 2.21355 2.43443 2.33653 2.41823 2.39846C2.40303 2.45661 2.41065 2.55699 2.43519 2.62152C2.46737 2.70618 2.45881 2.75627 2.40445 2.80139C2.35612 2.8415 2.3309 2.9474 2.33412 3.09671C2.33688 3.22475 2.32345 3.44994 2.30426 3.59713C2.26249 3.91758 2.43824 4.62788 2.60534 4.81396C2.75535 4.98101 2.9119 4.94356 2.93193 4.73583C2.94101 4.64167 2.92431 4.57113 2.89296 4.57113C2.85993 4.57113 2.85061 4.52132 2.86953 4.44593C2.8903 4.36315 2.87248 4.29226 2.8169 4.23668C2.76773 4.18752 2.74696 4.11854 2.76685 4.07048C2.85587 3.85542 2.85225 3.80466 2.74594 3.77686C2.68683 3.7614 2.6509 3.72862 2.6661 3.70403C2.7043 3.64223 2.74899 3.45576 2.76194 3.30417C2.7679 3.23449 2.79049 3.13718 2.81215 3.08794C2.83381 3.0387 2.8397 2.93655 2.82525 2.86096C2.80822 2.77189 2.83352 2.67497 2.89714 2.58565C2.96237 2.49404 2.98472 2.40566 2.96377 2.32218C2.92546 2.16957 2.97687 1.98715 3.05883 1.98485C3.22389 1.98021 3.49885 1.52893 3.49885 1.26267C3.49885 1.21482 3.52496 1.17568 3.55686 1.17568C3.59768 1.17568 3.60567 1.2742 3.58382 1.50812C3.56086 1.75402 3.57396 1.89348 3.63411 2.04384C3.7225 2.26473 3.69971 2.86486 3.59556 3.05947C3.52976 3.18242 3.50971 4.10169 3.56563 4.43176C3.61173 4.70384 3.7032 4.74377 3.83157 4.54785C3.88574 4.46518 3.9022 4.37295 3.88045 4.27394C3.8608 4.18449 3.87026 4.1107 3.90407 4.08982C3.94359 4.06539 3.93584 4.01738 3.87819 3.9294C3.80221 3.81343 3.8023 3.79412 3.87934 3.67661C3.9252 3.60663 3.9495 3.51494 3.93335 3.47285C3.9172 3.43076 3.9529 3.32762 4.01269 3.24365C4.10218 3.11798 4.10893 3.08319 4.05088 3.04697C3.99427 3.01164 4.00286 2.9871 4.09437 2.92264C4.21426 2.83819 4.25143 2.64535 4.14782 2.64535C4.1145 2.64535 4.17721 2.56115 4.28718 2.45824C4.44887 2.30693 4.47016 2.26743 4.39844 2.25181C4.29211 2.22865 4.27929 2.13857 4.38232 2.13857C4.42223 2.13857 4.5036 2.07015 4.56314 1.98653C4.62268 1.90291 4.7002 1.8345 4.7354 1.8345C4.80188 1.8345 4.84082 1.76985 5.01775 1.36572C5.07571 1.23333 5.14149 1.125 5.16392 1.125C5.18635 1.125 5.17413 1.27366 5.13676 1.45535C5.07334 1.76377 5.07573 1.79924 5.1728 1.98951C5.24225 2.12565 5.26954 2.25625 5.25499 2.38289C5.23182 2.5846 4.91453 3.25248 4.7946 3.35202C4.75508 3.38482 4.73276 3.46549 4.74481 3.53195C4.75682 3.59822 4.74558 3.6655 4.71968 3.68148C4.62383 3.74071 4.63509 5.12909 4.73192 5.19069C4.84634 5.26348 5.00831 5.22883 5.08147 5.11592C5.12211 5.05321 5.17042 4.85523 5.18884 4.67598C5.22967 4.27855 5.3048 4.15666 5.63368 3.9543C5.83098 3.8329 5.91748 3.7362 6.01723 3.52552C6.08807 3.3759 6.16908 3.25349 6.19725 3.25349C6.25897 3.25349 6.20223 3.66753 6.13481 3.70919C6.07989 3.74314 6.0578 4.2092 6.10569 4.32387C6.12723 4.37545 6.11063 4.41728 6.06106 4.4363C6.00606 4.45741 5.98213 4.53458 5.98213 4.69081C5.98213 4.84337 5.95783 4.92435 5.90611 4.9442C5.8584 4.96251 5.83009 5.04001 5.83009 5.15234C5.83009 5.27093 5.80644 5.3313 5.75999 5.3313C5.68832 5.3313 5.62931 5.47895 5.62807 5.66137C5.62769 5.7181 5.57678 5.78557 5.51336 5.8134C5.45064 5.84091 5.392 5.91507 5.38304 5.9782C5.37407 6.04133 5.34862 6.08178 5.32646 6.06809C5.2475 6.01928 5.11066 6.24018 5.10543 6.42491C5.10249 6.52824 5.0914 6.58671 5.08079 6.55484C5.02493 6.38728 4.81653 6.57751 4.81653 6.79605C4.81653 6.8607 4.79154 6.88956 4.74954 6.87345C4.67123 6.8434 4.53993 7.085 4.55871 7.22461C4.56584 7.27759 4.54892 7.30496 4.52008 7.28713C4.41597 7.22279 4.36222 7.48681 4.43336 7.71318C4.46593 7.81683 4.46107 7.82836 4.40666 7.77653C4.28926 7.66471 4.26398 7.70722 4.28025 7.9891C4.29138 8.18197 4.27617 8.27269 4.2297 8.29052C4.18368 8.30818 4.17186 8.37532 4.19128 8.50872C4.22278 8.72504 4.39861 9.13218 4.46053 9.13218C4.52815 9.13218 4.66693 8.79206 4.63415 8.70666C4.61325 8.65219 4.65355 8.59811 4.76034 8.53733C4.90689 8.45391 4.98033 8.27065 4.86721 8.27065C4.75609 8.27065 4.82637 8.16937 4.99204 8.09076C5.17683 8.00307 5.2456 7.88444 5.19224 7.74539C5.16856 7.68368 5.20744 7.64223 5.34149 7.58622C5.44119 7.54456 5.56911 7.51047 5.62575 7.51047C5.74943 7.51047 5.75461 7.46861 5.64949 7.31853C5.57384 7.21052 5.57765 7.20139 5.73345 7.11721C5.82321 7.06871 5.94138 6.98643 5.99605 6.93436C6.07688 6.85737 6.0825 6.83134 6.02612 6.79499C5.93067 6.73346 6.04548 6.65946 6.30321 6.6164C6.49154 6.58493 6.61942 6.4475 6.49803 6.40703C6.37924 6.36744 6.44269 6.30612 6.66759 6.24315C6.92054 6.17233 6.98551 6.1117 6.90006 6.02625C6.80327 5.92946 6.8355 5.90071 7.10972 5.8392C7.52588 5.74586 7.52146 5.74847 7.42522 5.65223C7.34595 5.57296 7.34936 5.56276 7.4776 5.49557C7.55304 5.45604 7.65539 5.43432 7.70505 5.4473C7.80473 5.47337 7.84874 5.45045 7.95212 5.31863C8.00574 5.25026 8.00808 5.21356 7.96233 5.15844C7.89649 5.07911 7.92042 5.05641 8.12019 5.00871C8.19513 4.99082 8.27063 4.99914 8.28796 5.02718C8.33995 5.11129 8.52928 4.98276 8.49292 4.88803C8.45217 4.78183 8.55423 4.72319 8.72156 4.75666C8.82636 4.77762 8.88036 4.75233 8.9676 4.64142C9.05246 4.53353 9.11674 4.50218 9.23462 4.51116C9.39982 4.52375 9.5251 4.4141 9.528 4.25438C9.52934 4.18421 9.57457 4.16553 9.745 4.16492C9.99667 4.16396 10.1135 4.105 10.073 3.9993C10.0362 3.90347 10.3994 3.83536 10.5416 3.91143C10.7159 4.00476 10.8473 3.97515 10.8473 3.84249C10.8473 3.67401 10.95 3.59886 11.0651 3.68308C11.1882 3.77309 11.3519 3.72187 11.4073 3.57597C11.458 3.44282 11.5396 3.42748 11.7317 3.51501C11.8886 3.58648 12.1142 3.50409 12.1142 3.37536C12.1142 3.31034 12.1444 3.29972 12.2536 3.32639C12.5025 3.38718 12.5963 3.38321 12.5815 3.3125C12.571 3.26184 12.6073 3.25357 12.7259 3.27962C12.8722 3.31175 12.8817 3.30583 12.8491 3.20295C12.8175 3.10338 12.8264 3.09586 12.9327 3.13266C12.9982 3.15532 13.1316 3.17467 13.2291 3.17567C13.3852 3.1772 13.405 3.16327 13.3937 3.0594C13.3819 2.95064 13.3939 2.94437 13.5458 2.97999C13.826 3.04574 13.948 3.03099 14.0082 2.92409C14.0396 2.86834 14.0729 2.81136 14.0821 2.79747C14.0914 2.78358 14.1294 2.81379 14.1665 2.8646C14.2602 2.99275 14.5058 2.95967 14.5715 2.81006C14.6292 2.67837 14.7796 2.66169 14.9029 2.77327C15.0146 2.8744 15.1549 2.8173 15.1549 2.6707C15.1549 2.51757 15.2839 2.4744 15.4676 2.56604C15.648 2.65606 15.7306 2.63013 15.8086 2.45894C15.8627 2.34026 15.8756 2.33563 15.9549 2.40647C16.0969 2.53346 16.2375 2.53241 16.2944 2.40394C16.3272 2.32966 16.3721 2.30033 16.4215 2.32075C16.6116 2.39923 16.8427 2.44759 16.9079 2.42255C16.9472 2.40748 16.9793 2.34638 16.9793 2.28678C16.9793 2.20316 16.9996 2.18692 17.068 2.21569C17.2629 2.29759 17.3659 2.29351 17.4742 2.1996C17.5365 2.14556 17.5875 2.076 17.5875 2.04502C17.5875 2.00426 17.6228 2.00482 17.7155 2.04706C17.8127 2.09131 17.858 2.09104 17.903 2.04591C17.9357 2.01322 18.013 1.98647 18.0748 1.98647C18.1366 1.98647 18.1959 1.96039 18.2065 1.92852C18.2208 1.88561 18.2555 1.88649 18.3404 1.93189C18.4877 2.01076 18.7531 1.95566 18.7531 1.84619C18.7531 1.78084 18.7736 1.78668 18.8564 1.87555C18.9738 2.00157 19.0839 2.0181 19.1433 1.91862C19.2197 1.7907 19.3704 1.74156 19.5231 1.79479C19.6268 1.83092 19.6883 1.82772 19.7417 1.78342C19.784 1.74832 19.8709 1.73552 19.9434 1.75372C20.0292 1.77527 20.0708 1.76473 20.0709 1.72136C20.0711 1.68272 20.1465 1.65311 20.26 1.64717C20.3639 1.64173 20.457 1.61322 20.4668 1.58382C20.4926 1.50626 20.6057 1.51829 20.6788 1.60637C20.7493 1.69123 20.9829 1.7107 20.9829 1.63171C20.9829 1.55558 21.0812 1.57072 21.1712 1.66072C21.2257 1.7152 21.2927 1.72927 21.383 1.70521C21.714 1.61704 21.8072 1.62862 21.9413 1.77455C22.0736 1.91847 22.2698 2.01665 22.5033 2.05566C22.5729 2.0673 22.7098 2.11165 22.8073 2.15421L22.9847 2.23158L22.8327 2.24172C22.7491 2.24729 22.6578 2.24689 22.63 2.24076C22.6021 2.23469 22.4767 2.2263 22.3512 2.22208C22.1714 2.21605 22.104 2.23814 22.0323 2.32658C21.9069 2.48127 21.6426 2.5187 21.2169 2.44206C20.7105 2.35088 20.4282 2.34564 20.277 2.42459C20.2053 2.46197 20.1061 2.49269 20.0564 2.49286C20.0068 2.49304 19.953 2.52738 19.937 2.56919C19.9209 2.611 19.8761 2.64521 19.8372 2.64521C19.7403 2.64521 19.7478 2.82986 19.8463 2.86766C19.8902 2.88448 19.9729 2.87316 20.0301 2.84251C20.0945 2.80807 20.1463 2.80516 20.1658 2.83489C20.2241 2.92361 20.448 2.94537 20.547 2.87191C20.5998 2.83263 20.665 2.81401 20.6917 2.83054C20.7198 2.84786 20.7112 2.87905 20.6716 2.90416C20.631 2.92986 20.6263 2.94805 20.66 2.9485C20.6914 2.94889 20.7455 2.91507 20.7802 2.87326C20.8691 2.76612 20.9197 2.77755 21.0605 2.93661C21.1641 3.05373 21.1917 3.06391 21.2333 3.0004C21.2987 2.90041 21.4404 2.90242 21.5657 3.00511C21.6298 3.05758 21.7579 3.08746 21.9137 3.08628C22.0926 3.08494 22.1734 3.10762 22.2077 3.16888C22.2337 3.21534 22.3 3.25334 22.355 3.25334C22.4141 3.25334 22.4741 3.30327 22.5014 3.37512C22.5583 3.52466 22.5759 3.53576 22.985 3.67879C23.166 3.74211 23.2977 3.81032 23.2777 3.83038C23.2576 3.85043 23.2781 3.85268 23.3232 3.83537C23.3683 3.81806 23.4203 3.82827 23.4387 3.85803C23.4817 3.92759 23.3384 3.92756 23.1111 3.85795C22.7573 3.74959 22.6212 3.75697 22.5214 3.88992C22.4153 4.03123 22.1665 4.05703 21.982 3.94585C21.9203 3.90863 21.7794 3.87226 21.669 3.86502C21.5585 3.85778 21.375 3.80807 21.2611 3.75454C21.1472 3.70102 20.9639 3.65869 20.8538 3.66049C20.7436 3.66221 20.5988 3.66265 20.5319 3.66125C20.4651 3.65991 20.3853 3.67731 20.3546 3.69989C20.3239 3.72247 20.2223 3.73955 20.1288 3.73784C19.9936 3.73537 19.9443 3.76283 19.8878 3.87215C19.8242 3.99507 19.8261 4.01439 19.9057 4.05518C20.0565 4.13245 20.2734 4.17022 20.2734 4.11919C20.2734 4.01036 20.4897 4.0044 20.6316 4.10931C20.763 4.20649 20.7795 4.20839 20.8227 4.13134C20.8665 4.05297 20.8831 4.05329 21.0571 4.13585C21.2318 4.21877 21.2484 4.21904 21.3063 4.13983C21.3643 4.06054 21.373 4.06061 21.4396 4.14079C21.5475 4.27083 21.7509 4.33541 21.8026 4.25608C21.8349 4.20658 21.868 4.22013 21.9392 4.31204C22.012 4.40592 22.0627 4.42591 22.1638 4.40054C22.2365 4.38228 22.3089 4.39121 22.3271 4.42069C22.3451 4.4498 22.4011 4.46051 22.4515 4.4445C22.502 4.42848 22.5742 4.44584 22.612 4.48328C22.6498 4.52063 22.7227 4.56712 22.7742 4.58661C22.8256 4.6061 22.8793 4.66656 22.8935 4.72097C22.9078 4.77548 22.9928 4.84414 23.0829 4.87387C23.3092 4.94855 23.6192 5.11042 23.5906 5.13898C23.5777 5.15197 23.4291 5.14172 23.2605 5.11619C23.0419 5.08311 22.9337 5.08657 22.8835 5.12822C22.8448 5.16035 22.6943 5.21799 22.5491 5.25629C22.3072 5.3201 22.268 5.31766 22.0806 5.22712C21.9681 5.17277 21.8554 5.12831 21.8301 5.12831C21.8048 5.12831 21.7122 5.077 21.6242 5.01428C21.5363 4.95157 21.4074 4.89728 21.3377 4.89365C21.268 4.89001 21.0142 4.86975 20.7736 4.84863C20.533 4.8275 20.279 4.82458 20.2091 4.84213C20.0629 4.87881 19.9938 5.01024 20.0714 5.10378C20.1433 5.19046 20.3919 5.23337 20.4333 5.16627C20.4567 5.12851 20.5133 5.13139 20.6204 5.17579C20.705 5.2108 20.7987 5.22424 20.8288 5.20566C20.8588 5.18708 20.9598 5.21908 21.0532 5.27679C21.1466 5.3345 21.2794 5.38171 21.3485 5.38171C21.4175 5.38171 21.5133 5.42509 21.5613 5.47811C21.6205 5.54362 21.6942 5.56732 21.7909 5.55207C21.9035 5.53434 21.9615 5.56311 22.0677 5.68927C22.1591 5.79787 22.2331 5.84079 22.2991 5.82351C22.3735 5.80406 22.4036 5.8313 22.4274 5.93961C22.4517 6.05055 22.529 6.11728 22.7849 6.24857C22.9645 6.34067 23.1114 6.43282 23.1114 6.45334C23.1114 6.53618 23.0113 6.54268 22.8397 6.47096C22.6061 6.37337 22.3704 6.37353 22.3329 6.47135C22.3169 6.51316 22.2464 6.54737 22.1762 6.54737C22.0111 6.54735 21.5911 6.43508 21.5911 6.39095C21.5911 6.37224 21.517 6.32648 21.4264 6.28927C21.3358 6.25206 21.1874 6.17152 21.0966 6.11029C21.0058 6.04906 20.8918 6.00509 20.8432 6.01259C20.7946 6.02008 20.7402 6.00349 20.7222 5.9757C20.6934 5.93118 20.586 5.92111 20.3241 5.93837C20.2823 5.94112 20.1507 5.9226 20.0316 5.89722C19.9062 5.87048 19.8035 5.86994 19.7874 5.89588C19.7721 5.92057 19.7363 5.92631 19.7076 5.90863C19.6153 5.85158 19.4119 5.99955 19.4119 6.12376C19.4119 6.24913 19.6274 6.39523 19.8123 6.39523C20.229 6.39523 20.7435 6.67338 20.7882 6.92284C20.8013 6.99592 20.8988 7.04541 21.1857 7.12459L21.5657 7.2295L21.211 7.26349C20.8444 7.29862 20.648 7.27828 20.5409 7.19406C20.4989 7.16103 20.45 7.17436 20.3889 7.23544C20.3069 7.31744 20.2973 7.31802 20.2827 7.24186C20.2666 7.15863 20.0543 7.14761 19.9313 7.22362C19.9023 7.24151 19.8666 7.22496 19.852 7.18671C19.8352 7.14304 19.7775 7.12639 19.6966 7.14186C19.6178 7.15691 19.5361 7.13479 19.4862 7.08487C19.4334 7.03212 19.3611 7.01419 19.2815 7.03415C19.2071 7.05284 19.1585 7.04299 19.1585 7.0092C19.1585 6.9785 18.9362 6.84663 18.6644 6.71615C18.3926 6.58568 18.1521 6.44869 18.1298 6.41173C18.1075 6.37477 18.0562 6.34454 18.0157 6.34454C17.9753 6.34454 17.9422 6.32173 17.9422 6.29386C17.9422 6.26599 17.8966 6.24318 17.8409 6.24318C17.7736 6.24318 17.7395 6.20939 17.7395 6.14279C17.7395 6.03703 17.547 5.95558 17.416 6.00587C17.3674 6.02451 17.3531 6.00415 17.3698 5.9402C17.3979 5.83269 17.2482 5.7649 17.1044 5.82006C17.0339 5.84712 17.0197 5.83644 17.0436 5.77424C17.0756 5.69076 16.969 5.56094 16.9138 5.61617C16.8967 5.63318 16.8441 5.60842 16.7968 5.56112C16.7495 5.51383 16.6694 5.48597 16.6188 5.49921C16.5664 5.51291 16.5314 5.49825 16.5376 5.46514C16.5443 5.42974 16.4792 5.4087 16.3712 5.41136C16.2737 5.41377 16.1812 5.39677 16.1657 5.3736C16.1502 5.35042 16.0817 5.33157 16.0136 5.33171C15.6323 5.33247 15.3897 5.36282 15.3731 5.41185C15.3628 5.4424 15.4509 5.53127 15.5689 5.60935C15.7037 5.69853 15.7906 5.72969 15.8028 5.69318C15.8335 5.60112 15.9008 5.62541 15.9305 5.73929C15.9455 5.79663 16.028 5.87005 16.1138 5.90244C16.2087 5.93826 16.2699 5.99718 16.2699 6.05283C16.2699 6.1434 16.4679 6.25355 16.5883 6.22993C16.6222 6.22328 16.6572 6.28145 16.6662 6.35919C16.6788 6.46954 16.715 6.50706 16.8312 6.5303C16.9356 6.55117 17.013 6.61873 17.0904 6.75637C17.1959 6.94404 17.2834 7.01009 17.2834 6.902C17.2834 6.87413 17.303 6.85132 17.3269 6.85132C17.3508 6.85132 17.3907 6.94587 17.4156 7.06143C17.4673 7.30177 17.6108 7.43023 17.6903 7.30742C17.7341 7.23985 17.7451 7.23985 17.7894 7.30742C17.8169 7.34923 17.8397 7.42028 17.8401 7.4653C17.8413 7.58907 18.0376 7.81335 18.1178 7.78256C18.1689 7.76294 18.1976 7.81824 18.2225 7.98417C18.2551 8.20124 18.3602 8.32233 18.425 8.21742C18.488 8.11557 18.5504 8.17583 18.5504 8.33848C18.5504 8.51841 18.7144 8.72873 18.7764 8.62836C18.8591 8.49459 18.9151 8.58437 18.883 8.799C18.8515 9.00867 18.8597 9.03136 19.0065 9.13988C19.1268 9.22883 19.157 9.28305 19.135 9.37075C19.1032 9.4974 19.1992 9.68931 19.2944 9.68931C19.3853 9.68931 19.4324 9.7933 19.4207 9.96793C19.407 10.171 19.53 10.3496 19.6213 10.2594C19.7407 10.1417 19.7652 10.195 19.733 10.5029C19.7032 10.788 19.7087 10.8118 19.8104 10.8384C19.9428 10.873 20.0022 11.072 19.9284 11.2339C19.8845 11.3303 19.8929 11.3685 19.9739 11.4418C20.05 11.5106 20.087 11.5177 20.1327 11.472C20.2395 11.3652 20.2636 11.4086 20.2115 11.6138C20.1834 11.7245 20.1754 11.8748 20.1937 11.9476C20.2214 12.0579 20.2396 12.0697 20.3021 12.0178C20.4136 11.9252 20.4394 11.9874 20.3795 12.2043C20.3447 12.3305 20.3434 12.4148 20.3758 12.4472C20.4031 12.4745 20.4255 12.5395 20.4255 12.5915C20.4255 12.662 20.4505 12.6782 20.5234 12.6551C20.6136 12.6264 20.6173 12.6384 20.5707 12.8072C20.5353 12.9357 20.5369 13.0105 20.5764 13.058C20.6086 13.0969 20.618 13.1872 20.5985 13.27C20.5705 13.3886 20.5764 13.4029 20.6318 13.3508C20.7416 13.2476 20.7759 13.2778 20.7302 13.4373C20.7065 13.5197 20.695 13.6281 20.7045 13.678C20.714 13.728 20.7235 13.786 20.7257 13.8069C20.7278 13.8278 20.7752 13.8449 20.8309 13.8449C20.9468 13.8449 20.9558 13.8899 20.8752 14.0667C20.8422 14.1392 20.8328 14.2698 20.8529 14.3769C20.882 14.5321 20.8995 14.5519 20.9618 14.5003C21.0734 14.4076 21.0868 14.4591 21.0146 14.7037C20.9369 14.9666 21.0016 15.1805 21.1477 15.1437C21.2559 15.1165 21.2603 15.1622 21.1619 15.2922C21.0568 15.4312 21.0669 15.5729 21.1841 15.6036C21.2781 15.6282 21.2794 15.6385 21.2056 15.7812C21.093 15.999 21.0813 16.1105 21.1639 16.1791C21.22 16.2256 21.2535 16.225 21.3124 16.1761C21.3747 16.1244 21.3884 16.1281 21.3884 16.197C21.3884 16.2432 21.355 16.3321 21.3141 16.3944C21.2151 16.5455 21.2668 16.7507 21.3954 16.7171C21.4676 16.6982 21.4897 16.7203 21.4897 16.8114C21.4897 16.8768 21.4669 16.9444 21.4391 16.9616C21.3632 17.0086 21.378 17.2194 21.4622 17.2892C21.5028 17.3229 21.5589 17.3363 21.5868 17.319C21.6195 17.2988 21.6184 17.3429 21.5838 17.4422C21.5148 17.6403 21.5637 17.8558 21.6686 17.8156C21.7328 17.791 21.7364 17.8089 21.6913 17.9275C21.627 18.0968 21.6735 18.3553 21.7683 18.3553C21.8056 18.3553 21.8456 18.3382 21.8573 18.3173C21.869 18.2964 21.8693 18.3135 21.8581 18.3553C21.7794 18.6458 21.7817 18.7278 21.8706 18.7928C21.9411 18.8444 21.9797 18.8465 22.0337 18.8017C22.0924 18.7529 22.0984 18.768 22.069 18.8912C22.0496 18.9728 21.999 19.0794 21.9566 19.1281C21.8876 19.2076 21.8877 19.2168 21.958 19.2168C22.0011 19.2168 22.0501 19.2526 22.0669 19.2963C22.0867 19.3478 22.1318 19.3649 22.1948 19.3449C22.274 19.3198 22.2871 19.3335 22.265 19.4182C22.25 19.4756 22.2177 19.5349 22.1932 19.55C22.1687 19.5652 22.1486 19.6199 22.1486 19.6717C22.1486 19.7235 22.1201 19.7773 22.0853 19.7914C22.0504 19.8055 22.096 19.8188 22.1866 19.821C22.2772 19.8232 22.3513 19.8353 22.3513 19.8479C22.3513 19.9026 22.2225 20.1573 22.1794 20.1878C22.1528 20.2066 22.1696 20.2586 22.2178 20.3068C22.2865 20.3755 22.3183 20.3802 22.3781 20.3306C22.4397 20.2794 22.4527 20.287 22.4527 20.3744C22.4527 20.4326 22.4091 20.5035 22.3559 20.532C22.246 20.5908 22.2666 20.7879 22.3826 20.7879C22.4668 20.7879 22.4761 20.9194 22.3955 20.9692C22.3559 20.9937 22.3623 21.018 22.4161 21.0481C22.4798 21.0837 22.4832 21.1147 22.4353 21.2181C22.4031 21.2876 22.3596 21.3447 22.3387 21.3449C22.3178 21.3451 22.3007 21.3776 22.3007 21.4171C22.3007 21.4566 22.2721 21.4984 22.2373 21.51C22.1802 21.529 22.1666 21.6388 22.1518 22.2004C22.1456 22.4359 22.0117 22.2169 21.9773 21.915C21.9496 21.6722 21.918 21.6025 21.7867 21.4936C21.6529 21.3826 21.6264 21.3219 21.6098 21.0881C21.5991 20.9369 21.5801 20.7854 21.5676 20.7515C21.5551 20.7175 21.5678 20.6756 21.5958 20.6583C21.6297 20.6374 21.629 20.6054 21.5937 20.5629C21.5646 20.5278 21.5182 20.3803 21.4907 20.2352C21.4353 19.9431 21.1935 19.3602 21.066 19.2112C21.0209 19.1586 20.9382 19.1155 20.8822 19.1155C20.7937 19.1155 20.7803 19.1488 20.7803 19.3689C20.7803 19.5584 20.7991 19.6223 20.855 19.6223C20.9111 19.6223 20.9222 19.6603 20.8994 19.7743C20.8791 19.8759 20.8892 19.9263 20.93 19.9263C20.9717 19.9263 20.9803 19.9753 20.9572 20.0804C20.9204 20.2483 21.0059 20.4048 21.1028 20.3468C21.1345 20.3278 21.1289 20.3512 21.0903 20.3987C20.9898 20.5225 20.9664 20.7879 21.0559 20.7879C21.1151 20.7879 21.1134 20.8223 21.0457 20.9945C20.9847 21.1499 20.9794 21.2104 21.0244 21.2382C21.0693 21.2659 21.0656 21.3001 21.01 21.3736C20.9146 21.4997 20.9129 21.6208 21.0054 21.6976C21.0673 21.749 21.0505 21.788 20.8964 21.9516C20.7825 22.0726 20.7066 22.2088 20.6937 22.3153C20.6824 22.409 20.6646 22.5426 20.6542 22.6123C20.6438 22.682 20.6337 22.7606 20.6318 22.7871C20.6296 22.8175 20.6106 22.8175 20.5803 22.7871C20.554 22.7606 20.5254 22.6135 20.517 22.4602C20.5049 22.2422 20.4795 22.1702 20.4002 22.1294C20.1872 22.0197 20.1071 21.6429 20.1959 21.1679C20.2167 21.0565 20.2534 20.9282 20.2773 20.883C20.3013 20.8378 20.3131 20.7579 20.3036 20.7056C20.2941 20.6533 20.2698 20.4737 20.2497 20.3064C20.2295 20.1392 20.1897 19.9738 20.1611 19.939C20.1325 19.9042 20.1239 19.8756 20.1419 19.8756C20.16 19.8756 20.1394 19.8072 20.0961 19.7236C20.0048 19.547 19.9654 19.5374 19.8506 19.6643C19.7574 19.7673 19.7391 19.954 19.8176 20.0024C19.8511 20.0232 19.8498 20.0686 19.8135 20.1363C19.7698 20.2179 19.7769 20.252 19.8486 20.3044C19.9334 20.3665 19.9337 20.3775 19.8526 20.5012C19.7522 20.6545 19.7421 20.7712 19.8269 20.7995C19.8696 20.8137 19.8623 20.8551 19.8016 20.9417C19.6942 21.095 19.6932 21.1907 19.798 21.2674C19.8716 21.3212 19.8664 21.3419 19.7473 21.4704C19.6429 21.583 19.6272 21.6287 19.6733 21.6843C19.7178 21.7379 19.7178 21.7693 19.6734 21.8137C19.6411 21.846 19.6147 21.933 19.6147 22.0071C19.6147 22.0924 19.5395 22.2273 19.41 22.3744C19.2904 22.5104 19.1738 22.7132 19.1294 22.863C19.0875 23.0038 19.0289 23.1191 18.9992 23.1191C18.9694 23.1191 18.957 23.0878 18.9717 23.0495C18.9864 23.0113 19.0145 22.8725 19.0342 22.7412C19.0641 22.5418 19.0522 22.4784 18.9623 22.3567C18.8938 22.264 18.8545 22.1356 18.8545 22.0039C18.8545 21.7739 18.9952 21.1509 19.0683 21.0569C19.1166 20.9949 19.1417 20.0741 19.0995 19.9115C19.0717 19.8041 18.924 19.6223 18.8645 19.6223C18.8021 19.6223 18.6011 19.9107 18.6011 20.0003C18.6011 20.0432 18.6239 20.0784 18.6518 20.0784C18.7305 20.0784 18.7117 20.1869 18.6145 20.2943C18.5308 20.3868 18.5311 20.395 18.6203 20.4602C18.7112 20.5267 18.7108 20.5344 18.607 20.7024C18.4765 20.9134 18.4716 20.99 18.5885 20.9924C18.6586 20.9939 18.648 21.0181 18.5378 21.1083C18.3806 21.237 18.356 21.3453 18.4841 21.3453C18.5481 21.3453 18.5288 21.3853 18.4074 21.504C18.2908 21.618 18.2595 21.6802 18.2964 21.7246C18.3571 21.7977 18.1451 22.0548 18.0242 22.0548C17.9829 22.0548 17.9347 22.1004 17.917 22.1562C17.8993 22.2119 17.8646 22.2575 17.8398 22.2575C17.8151 22.2575 17.7799 22.3373 17.7616 22.4349C17.7061 22.7307 17.6306 22.6353 17.6462 22.2889C17.6542 22.1111 17.6363 21.9343 17.6064 21.8962C17.5394 21.8105 17.5529 21.4704 17.6309 21.2787C17.6628 21.2002 17.6889 21.1154 17.6889 21.0902C17.6889 21.065 17.7369 20.9523 17.7956 20.8398C17.8542 20.7272 17.8899 20.6032 17.875 20.5641C17.86 20.525 17.8793 20.3731 17.918 20.2264C17.9567 20.0798 17.9759 19.9397 17.9608 19.9152C17.9456 19.8906 17.971 19.7908 18.0173 19.6933C18.0714 19.5793 18.0895 19.4623 18.0682 19.3652C18.05 19.2822 18.0287 19.1346 18.021 19.0372C17.9926 18.6792 17.6318 18.532 17.4448 18.8021C17.3087 18.9988 17.2744 19.1195 17.3344 19.1917C17.373 19.2383 17.3598 19.2622 17.2843 19.282C17.1998 19.3041 17.1856 19.3402 17.2042 19.4859C17.2353 19.7289 16.9735 20.0446 16.7408 20.0446C16.6148 20.0446 16.5697 20.0761 16.5066 20.2084C16.4636 20.2985 16.413 20.4546 16.3941 20.5553C16.3424 20.8311 16.2818 20.8193 16.2621 20.5296C16.2525 20.3876 16.2604 20.2616 16.2797 20.2497C16.299 20.2378 16.3304 20.1202 16.3495 19.9885C16.3686 19.8567 16.3979 19.7261 16.4146 19.6983C16.4726 19.6016 16.6214 19.1403 16.623 19.0521C16.624 19.0033 16.6589 18.9634 16.7007 18.9634C16.7801 18.9634 16.7914 18.9283 16.7866 18.6965C16.7851 18.6194 16.8051 18.5696 16.8312 18.5857C16.8574 18.6019 16.8934 18.5738 16.9113 18.5232C16.9291 18.4727 17.003 18.3515 17.0754 18.2539C17.209 18.074 17.2152 18.0605 17.2265 17.9233C17.23 17.8808 17.2898 17.8243 17.3595 17.7978C17.4634 17.7584 17.4862 17.7156 17.4862 17.5609C17.4862 17.4172 17.5003 17.3862 17.5453 17.4312C17.6407 17.5266 17.7303 17.3522 17.7069 17.1165C17.6902 16.9478 17.6956 16.9314 17.7368 17.025C17.7936 17.154 17.8916 17.1781 17.8916 17.063C17.8916 17.0212 17.9144 16.987 17.9423 16.987C17.9702 16.987 17.993 16.9072 17.993 16.8096C17.993 16.6835 18.0156 16.6322 18.0712 16.6322C18.1143 16.6322 18.1458 16.6037 18.1412 16.5689C18.1164 16.3778 18.1497 16.2318 18.2126 16.2559C18.2625 16.2751 18.2742 16.2414 18.2574 16.127C18.2449 16.0418 18.2145 15.9597 18.1899 15.9445C18.1092 15.8946 18.1428 15.8214 18.2464 15.8214C18.3343 15.8214 18.3477 15.7876 18.3477 15.5659C18.3477 15.3769 18.3203 15.2812 18.2425 15.1985L18.1372 15.0865L18.0133 15.2386C17.9321 15.3381 17.8987 15.4293 17.9163 15.5026C17.9358 15.5839 17.9118 15.6312 17.8287 15.6749C17.681 15.7527 17.6342 15.8264 17.6665 15.9302C17.6839 15.9863 17.6353 16.049 17.5183 16.1213C17.3181 16.245 17.2568 16.3616 17.3395 16.4613C17.3857 16.5169 17.36 16.5464 17.2119 16.6083C17.0355 16.682 16.8941 16.8899 16.9542 16.9871C16.9686 17.0104 16.9103 17.0448 16.8248 17.0636C16.665 17.0987 16.5437 17.2909 16.5957 17.4265C16.6117 17.4682 16.5527 17.5225 16.4401 17.5695C16.2862 17.6338 16.2634 17.6636 16.2892 17.7663C16.3143 17.8663 16.2929 17.8984 16.166 17.9509C16.0815 17.9859 15.9554 18.0594 15.8859 18.1141C15.7825 18.1954 15.7707 18.2273 15.8213 18.2883C15.8708 18.3479 15.8686 18.3724 15.8106 18.4091C15.7705 18.4344 15.7063 18.4555 15.6678 18.4559C15.5763 18.4568 15.2564 18.6551 15.2564 18.7108C15.2564 18.7345 15.305 18.7693 15.3644 18.7882C15.4493 18.8151 15.4574 18.832 15.4024 18.8668C15.3639 18.8912 15.2846 18.9116 15.2262 18.912C15.1026 18.9129 14.9277 19.0853 14.9741 19.1605C14.9921 19.1895 14.9115 19.2388 14.789 19.2738C14.5531 19.3411 14.3893 19.4546 14.4025 19.5417C14.4192 19.6523 14.3309 19.7743 14.234 19.7743C14.0584 19.7743 13.9504 19.8631 13.9742 19.9879C13.9944 20.0941 13.9761 20.1049 13.7521 20.1177C13.4969 20.1323 13.3098 20.2692 13.3613 20.4036C13.3881 20.4734 13.2421 20.5325 13.0401 20.5338C12.9621 20.5342 12.9172 20.5737 12.8953 20.6612C12.8697 20.7632 12.832 20.7879 12.7017 20.7879C12.518 20.7879 12.4184 20.8648 12.4184 21.0066C12.4184 21.0851 12.3918 21.0987 12.2799 21.0773C12.1195 21.0466 11.8609 21.1633 11.8609 21.2664C11.8609 21.316 11.7941 21.3369 11.6349 21.3369C11.3671 21.3369 11.3035 21.3683 11.3035 21.5003C11.3035 21.572 11.2684 21.5987 11.1742 21.5987C11.0181 21.5987 10.746 21.7319 10.746 21.8084C10.746 21.8439 10.6825 21.8515 10.5664 21.8297C10.3142 21.7824 10.176 21.8341 10.2162 21.9607C10.2451 22.0518 10.2312 22.0579 10.0666 22.027C9.83797 21.9841 9.63107 22.0339 9.63107 22.1318C9.63107 22.2172 9.51523 22.2298 9.38254 22.1588C9.24725 22.0864 9.06469 22.1496 9.0988 22.2571C9.12415 22.337 9.10539 22.3405 8.90259 22.2941C8.6346 22.2328 8.50412 22.2686 8.55095 22.3906C8.57527 22.454 8.56606 22.4658 8.51622 22.4349C8.38677 22.3549 7.97334 22.349 7.94352 22.4267C7.91732 22.4949 7.65959 22.5006 7.55384 22.4353C7.47736 22.388 7.35054 22.4694 7.35054 22.5658C7.35054 22.6426 7.32905 22.6525 7.23651 22.6185C7.05145 22.5504 6.75533 22.608 6.72664 22.7177C6.70453 22.8023 6.68282 22.8066 6.53619 22.7555C6.3839 22.7024 6.36109 22.709 6.25031 22.8378C6.16676 22.9349 6.09813 22.9694 6.02603 22.9505C5.96888 22.9356 5.84373 22.9674 5.74792 23.0212C5.65211 23.075 5.50786 23.1191 5.42737 23.1191C5.22549 23.1191 5.12069 23.1665 5.12069 23.2578C5.12069 23.3176 5.08109 23.3286 4.94524 23.3066C4.81353 23.2852 4.72746 23.3067 4.60005 23.3933C4.47167 23.4804 4.4015 23.4978 4.31206 23.4647C4.15155 23.4053 4.00577 23.4595 4.00577 23.5786C4.00577 23.6907 4.00242 23.6919 3.84436 23.6323C3.68945 23.5739 3.47861 23.6517 3.51744 23.7529C3.5534 23.8466 3.54513 23.8466 3.36541 23.7528C3.17213 23.652 3.10664 23.6569 3.03112 23.7779C2.95693 23.8967 2.91121 23.9052 2.85536 23.8106L2.85516 23.8109ZM20.3578 21.0668C20.3578 21.025 20.3388 20.9908 20.3156 20.9908C20.2923 20.9908 20.2733 21.025 20.2733 21.0668C20.2733 21.1086 20.2923 21.1428 20.3156 21.1428C20.3388 21.1428 20.3578 21.1086 20.3578 21.0668ZM9.07341 15.8664C9.07341 15.8337 9.12577 15.8198 9.19757 15.8335C9.32319 15.8576 9.41904 15.7519 9.32459 15.6936C9.24869 15.6466 9.2678 15.5682 9.35513 15.5682C9.39859 15.5682 9.42153 15.5886 9.4061 15.6136C9.3545 15.6971 9.54974 15.7291 9.60978 15.647C9.64147 15.6037 9.70478 15.5682 9.75049 15.5682C9.79619 15.5682 9.83359 15.5342 9.83359 15.4925C9.83359 15.436 9.87693 15.4224 10.0048 15.4387C10.1421 15.4563 10.1747 15.4437 10.1695 15.3751C10.1655 15.3224 10.2067 15.2833 10.277 15.2733C10.3397 15.2644 10.391 15.2334 10.391 15.2045C10.391 15.174 10.443 15.1649 10.5146 15.1828C10.5826 15.1999 10.6524 15.191 10.6697 15.163C10.687 15.135 10.6769 15.1121 10.6474 15.1121C10.6179 15.1121 10.5938 15.0793 10.5938 15.0391C10.5938 14.976 10.6124 14.9758 10.7308 15.0372C10.8954 15.1226 10.941 15.0973 10.8274 14.9838C10.782 14.9384 10.7579 14.8801 10.7739 14.8543C10.7899 14.8284 10.8383 14.8427 10.8816 14.8859C10.9674 14.9717 11.0752 14.9613 11.0752 14.8672C11.0752 14.8347 11.098 14.8137 11.1259 14.8207C11.1538 14.8277 11.1734 14.8619 11.1695 14.8967C11.1657 14.9316 11.1828 14.9601 11.2075 14.9601C11.2323 14.9601 11.2526 14.9266 11.2526 14.8857C11.2526 14.8401 11.2823 14.8226 11.329 14.8405C11.3815 14.8607 11.4028 14.8404 11.397 14.7756C11.381 14.5971 11.4048 14.5147 11.4808 14.4856C11.5452 14.4609 11.5442 14.4759 11.4739 14.5831C11.4283 14.6528 11.4048 14.7238 11.4219 14.7409C11.439 14.7579 11.4673 14.7344 11.4849 14.6886C11.507 14.6308 11.5811 14.6042 11.7268 14.6018C11.8905 14.599 11.9144 14.5886 11.8354 14.5547C11.739 14.5132 11.7397 14.5109 11.8491 14.5075C11.9206 14.5053 11.9861 14.456 12.022 14.3773C12.0537 14.3076 12.116 14.2509 12.1603 14.2514C12.2296 14.2521 12.2304 14.2587 12.1663 14.2993C12.0583 14.3675 12.1162 14.3981 12.2901 14.3647C12.4221 14.3394 12.4283 14.331 12.3407 14.2968C12.2621 14.266 12.2774 14.2569 12.4122 14.2541C12.5639 14.251 12.7727 14.1052 12.773 14.0021C12.7731 13.9855 12.8421 13.9694 12.9263 13.9664C13.1123 13.9598 13.1763 13.9069 13.0755 13.8432C13.0226 13.8097 13.0198 13.7958 13.0659 13.7953C13.1016 13.7949 13.1454 13.8323 13.1631 13.8786C13.1908 13.9507 13.2013 13.947 13.2359 13.8533C13.2716 13.757 13.3959 13.712 13.5505 13.7394C13.574 13.7436 13.5826 13.7177 13.5695 13.682C13.5565 13.6463 13.5144 13.6244 13.4761 13.6334C13.4237 13.6457 13.4207 13.6351 13.4643 13.5907C13.5083 13.5458 13.5493 13.5462 13.6355 13.5922C13.7254 13.6404 13.7572 13.6391 13.79 13.5859C13.8132 13.5485 13.8072 13.4899 13.7764 13.4528C13.7461 13.4163 13.7373 13.3706 13.7567 13.3512C13.7761 13.3318 13.8085 13.3425 13.8286 13.3751C13.8526 13.4139 13.8909 13.4181 13.9399 13.3871C14.039 13.3244 14.1553 13.3252 14.1163 13.3884C14.0983 13.4174 14.1193 13.4254 14.1661 13.4075C14.2106 13.3904 14.2354 13.3649 14.2212 13.3507C14.2071 13.3366 14.2185 13.282 14.2466 13.2295C14.2854 13.157 14.2789 13.1269 14.2194 13.1041C14.0765 13.0492 14.1314 12.945 14.2933 12.9639C14.4519 12.9823 14.4847 12.9419 14.3889 12.8461C14.3234 12.7806 14.3744 12.671 14.4618 12.6893C14.5514 12.708 14.8038 12.5238 14.768 12.4658C14.7488 12.4348 14.7181 12.4418 14.6885 12.484C14.6495 12.5397 14.6443 12.5383 14.6613 12.4768C14.6742 12.4298 14.7295 12.4064 14.8062 12.4156C14.9002 12.4269 14.9321 12.4055 14.938 12.3269C14.9423 12.27 14.9244 12.2234 14.8983 12.2234C14.8074 12.2234 14.8514 12.083 14.9503 12.0571C15.0188 12.0392 15.0597 12.062 15.0813 12.13C15.1153 12.237 15.2308 12.2318 15.2308 12.1233C15.2308 12.0578 15.1988 12.0347 14.9521 11.9229C14.8824 11.8913 14.8634 11.8762 14.9099 11.8892C14.9861 11.9106 15.0624 11.8212 15.0744 11.6964C15.0768 11.6713 15.1244 11.633 15.1801 11.6113C15.2616 11.5795 15.2647 11.571 15.1958 11.5681C15.0998 11.5642 15.0256 11.4742 15.0765 11.4233C15.0947 11.4051 15.13 11.4231 15.1548 11.4633C15.1923 11.5238 15.2064 11.5197 15.2372 11.4395C15.2606 11.3785 15.251 11.3348 15.2111 11.3215C15.169 11.3075 15.183 11.2757 15.2526 11.2269C15.3103 11.1865 15.3575 11.1172 15.3575 11.0729C15.3575 11.0137 15.3246 11.0278 15.2337 11.1259C15.0663 11.3066 14.9444 11.2613 15.0074 11.0418C15.0327 10.9534 15.0535 10.8752 15.0535 10.8681C15.0535 10.8609 15.0877 10.8551 15.1295 10.8551C15.2519 10.8551 15.2168 10.7675 15.0806 10.7334C14.9968 10.7123 14.9652 10.6771 14.9847 10.6265C15.0006 10.585 14.9939 10.551 14.9697 10.551C14.9456 10.551 14.8938 10.4997 14.8548 10.437C14.7916 10.3354 14.7923 10.33 14.8617 10.3874C14.9271 10.4414 14.9442 10.4346 14.9675 10.3454C14.9883 10.266 14.9763 10.2462 14.9204 10.2677C14.8741 10.2855 14.8586 10.2752 14.8799 10.2407C14.8989 10.21 14.8863 10.1676 14.852 10.1464C14.8028 10.1159 14.8027 10.0834 14.8514 9.9923C14.9049 9.89239 14.9022 9.88106 14.8313 9.90825C14.7282 9.9478 14.7284 9.92064 14.8323 9.76213C14.9293 9.61405 14.8979 9.54821 14.7844 9.66172C14.6802 9.76593 14.4746 9.76776 14.5143 9.66414C14.5319 9.61835 14.5145 9.58812 14.4709 9.58812C14.4106 9.58812 14.2566 9.389 14.2847 9.3474C14.3161 9.30095 14.2838 9.18269 14.2396 9.18269C14.2101 9.18269 14.2 9.2055 14.2173 9.23337C14.2345 9.26124 14.2258 9.28405 14.1979 9.28405C14.1246 9.28405 14.0695 9.1771 14.1231 9.13902C14.1482 9.12122 14.1971 9.03826 14.2318 8.95464C14.2897 8.81517 14.2886 8.81073 14.2181 8.90098C14.1758 8.95508 14.1413 9.0178 14.1413 9.04034C14.1413 9.06289 14.0728 9.08133 13.9892 9.08133C13.8879 9.08133 13.8372 9.056 13.8372 9.00532C13.8372 8.96351 13.855 8.9293 13.8769 8.9293C13.9211 8.9293 13.9215 8.69267 13.8774 8.64857C13.862 8.63314 13.834 8.68188 13.8151 8.75689C13.7887 8.8621 13.7672 8.87953 13.7208 8.83316C13.6744 8.78679 13.678 8.76211 13.7363 8.72525C13.7779 8.69896 13.7891 8.67708 13.7612 8.67662C13.6869 8.67547 13.4318 8.4455 13.4318 8.37983C13.4318 8.29336 13.2495 8.01352 13.2154 8.04762C13.1988 8.06421 13.1969 8.03328 13.2111 7.97886C13.2429 7.85735 13.0115 7.56335 12.9555 7.65402C12.9354 7.68647 12.9375 7.71301 12.96 7.71299C12.9923 7.71298 13.0025 8.04926 12.979 8.33682C12.9771 8.35937 12.9472 8.36172 12.9123 8.34205C12.8617 8.31343 12.8617 8.31993 12.9123 8.37453C12.9883 8.45638 12.996 8.65737 12.9248 8.70135C12.8968 8.71865 12.8879 8.78841 12.905 8.85638C12.9248 8.9353 12.9143 8.97997 12.8759 8.97997C12.839 8.97997 12.8214 9.04366 12.8301 9.14541C12.8462 9.33249 12.7918 9.45369 12.7134 9.40523C12.6795 9.38428 12.6852 9.35725 12.7295 9.32916C12.7853 9.29381 12.7838 9.28545 12.7211 9.28482C12.6787 9.28443 12.5997 9.36628 12.5456 9.46679C12.4914 9.56731 12.4385 9.62359 12.4279 9.59187C12.4173 9.56014 12.4472 9.47546 12.4942 9.4037C12.6073 9.23104 12.5161 9.12343 12.3987 9.29105C12.3537 9.35534 12.3169 9.38007 12.3169 9.346C12.3169 9.31192 12.2948 9.28404 12.2678 9.28404C12.2408 9.28404 12.2332 9.32199 12.251 9.36837C12.2728 9.42508 12.264 9.4407 12.2241 9.41606C12.1915 9.39591 12.1648 9.40357 12.1648 9.43309C12.1648 9.50825 12.0267 9.50034 11.9957 9.42341C11.9795 9.38341 11.9686 9.39075 11.9661 9.44333C11.9611 9.54806 12.0832 9.59881 12.1586 9.52335C12.2007 9.48133 12.2155 9.49411 12.2155 9.57235C12.2155 9.63058 12.187 9.67716 12.1522 9.67586C11.964 9.66887 11.9022 9.69375 11.9298 9.7655C11.9694 9.86873 11.9124 9.8615 11.8299 9.75281C11.737 9.63038 11.7432 9.5856 11.8481 9.6225C11.9143 9.64579 11.9228 9.63853 11.8819 9.59391C11.807 9.51228 11.6443 9.58048 11.6816 9.67784C11.7037 9.7353 11.6949 9.74109 11.6465 9.70095C11.5828 9.64804 11.5543 9.63879 11.4553 9.63879C11.4275 9.63879 11.4046 9.61464 11.4046 9.58512C11.4046 9.5556 11.4272 9.54538 11.4547 9.56241C11.4834 9.58015 11.492 9.55988 11.4748 9.51501C11.4582 9.47192 11.4241 9.44937 11.399 9.46492C11.3738 9.48045 11.3396 9.45753 11.3228 9.41395C11.3061 9.37037 11.2685 9.33472 11.2393 9.33472C11.2101 9.33472 11.2275 9.38033 11.278 9.43608C11.3284 9.49182 11.3517 9.53743 11.3297 9.53743C11.2792 9.53743 11.05 9.2735 11.05 9.21527C11.0499 9.19138 11.0157 9.18497 10.9739 9.201C10.8887 9.23368 10.8665 9.10667 10.9485 9.05598C10.9764 9.03876 10.9985 8.9975 10.9976 8.9643C10.9967 8.9311 10.964 8.94614 10.925 8.9977C10.8479 9.09936 10.7224 9.06351 10.7651 8.95208C10.7823 8.90734 10.7651 8.89384 10.7153 8.91295C10.6602 8.9341 10.6483 8.98322 10.672 9.09143C10.6901 9.17354 10.704 9.35187 10.7029 9.48772C10.7016 9.67254 10.7179 9.72822 10.7682 9.70893C10.8143 9.69125 10.842 9.74008 10.8565 9.86436C10.8797 10.0633 10.86 10.1158 10.7458 10.1593C10.6933 10.1793 10.7034 10.1895 10.7784 10.1922C10.8381 10.1944 10.9003 10.2307 10.9164 10.2729C10.9393 10.3326 10.9189 10.3428 10.824 10.319C10.7209 10.2931 10.7063 10.3039 10.7287 10.3897C10.7493 10.4682 10.7141 10.5106 10.5732 10.5775C10.473 10.625 10.3911 10.6854 10.3911 10.7118C10.3911 10.7381 10.4174 10.7434 10.4496 10.7235C10.4873 10.7002 10.4943 10.7097 10.4692 10.7503C10.4478 10.7849 10.3873 10.802 10.3347 10.7882C10.2744 10.7724 10.239 10.7896 10.239 10.8345C10.239 10.8737 10.2105 10.9061 10.1757 10.9065C10.1319 10.9071 10.1296 10.9188 10.168 10.9445C10.1987 10.965 10.2234 11.0182 10.2229 11.0627C10.2224 11.124 10.178 11.1407 10.0406 11.1313C9.87902 11.1202 9.87156 11.1247 9.97299 11.1721C10.1177 11.2396 10.1178 11.2946 9.97318 11.3405C9.82486 11.3875 9.7448 11.5011 9.7603 11.6424C9.77306 11.7586 9.57792 11.8991 9.43798 11.8745C9.39942 11.8677 9.37825 11.9009 9.3873 11.954C9.39678 12.0095 9.35792 12.065 9.28776 12.096C9.21398 12.1287 9.17759 12.1834 9.1864 12.2485C9.19586 12.3184 9.17269 12.3479 9.112 12.3431C9.06187 12.3392 9.03814 12.3593 9.05696 12.3898C9.07748 12.4229 9.0585 12.4312 9.00721 12.4115C8.95996 12.3934 8.88715 12.4169 8.83781 12.4663C8.79022 12.5138 8.73824 12.5494 8.72232 12.5452C8.70638 12.541 8.69962 12.5598 8.70728 12.587C8.71494 12.6141 8.69941 12.6229 8.67277 12.6064C8.64613 12.59 8.61063 12.5987 8.59388 12.6258C8.57712 12.6529 8.52968 12.6621 8.48844 12.6463C8.43356 12.6252 8.42258 12.6413 8.44746 12.7061C8.47161 12.769 8.46076 12.7874 8.41003 12.7696C8.37075 12.7559 8.34218 12.7047 8.34655 12.656C8.35198 12.5952 8.33808 12.5837 8.30236 12.6194C8.27369 12.6481 8.21311 12.6575 8.16773 12.6404C8.09664 12.6135 8.09749 12.6215 8.17389 12.6986C8.26814 12.7937 8.29261 12.8561 8.21744 12.8096C8.19262 12.7943 8.13461 12.8393 8.08852 12.9096C8.04224 12.9802 7.97961 13.0219 7.94861 13.0028C7.91137 12.9798 7.92391 12.9451 7.98586 12.8998C8.08577 12.8268 8.06724 12.8124 7.93732 12.8623C7.89322 12.8792 7.85715 12.9313 7.85715 12.9781C7.85715 13.0294 7.81689 13.0632 7.75579 13.0632C7.70004 13.0632 7.65443 13.0453 7.65443 13.0234C7.65443 12.9479 7.5773 12.9838 7.51085 13.0902C7.47421 13.1489 7.46715 13.1827 7.49516 13.1654C7.52316 13.1481 7.5604 13.1571 7.57791 13.1854C7.61866 13.2514 7.5234 13.2518 7.40079 13.1862C7.33732 13.1522 7.29543 13.1522 7.27443 13.1862C7.25716 13.2142 7.26717 13.237 7.2967 13.237C7.32622 13.237 7.35037 13.261 7.35037 13.2902C7.35037 13.3234 7.3208 13.3269 7.27169 13.2994C7.1536 13.2333 6.8826 13.2856 6.91434 13.3683C6.94603 13.4509 6.86363 13.5132 6.81876 13.4406C6.77047 13.3625 6.67683 13.379 6.70797 13.4601C6.75247 13.5761 6.68874 13.5923 6.54881 13.5006C6.42554 13.4198 6.41967 13.4198 6.45068 13.5006C6.47433 13.5623 6.46289 13.5786 6.41024 13.5584C6.36985 13.5429 6.3368 13.5536 6.3368 13.5821C6.3368 13.6107 6.36531 13.6445 6.40015 13.6572C6.44867 13.675 6.4496 13.6952 6.40411 13.7436C6.34112 13.8107 6.37028 13.9631 6.43807 13.9212C6.46004 13.9077 6.49262 13.9547 6.51046 14.0258C6.53436 14.121 6.56679 14.1474 6.63368 14.1262C6.69644 14.1063 6.74566 14.137 6.79311 14.2256C6.84296 14.3188 6.87292 14.3363 6.90257 14.2896C6.93221 14.2429 6.94361 14.2495 6.94417 14.3139C6.94455 14.3627 6.97915 14.4026 7.02096 14.4026C7.06277 14.4026 7.09698 14.3753 7.09698 14.3418C7.09698 14.2945 7.1105 14.2945 7.15779 14.3418C7.25005 14.4341 7.32197 14.4145 7.24255 14.3188C7.17792 14.2409 7.18426 14.2408 7.33219 14.3172C7.49042 14.399 7.49176 14.3987 7.55176 14.2538C7.60724 14.1199 7.62512 14.1118 7.77232 14.154C7.97279 14.2115 7.95851 14.214 7.95851 14.1217C7.95851 14.0787 7.98702 14.0472 8.02186 14.0517C8.154 14.0688 8.2119 14.0455 8.2119 13.975C8.2119 13.9334 8.25536 13.9054 8.31326 13.9098C8.36901 13.914 8.41462 13.9362 8.41462 13.9591C8.41462 14.0116 8.56041 13.9335 8.69335 13.8099C8.74909 13.758 8.83461 13.7236 8.88339 13.7334C8.93622 13.744 8.97208 13.7207 8.97208 13.6756C8.97208 13.6176 9.02459 13.6035 9.1974 13.6151C9.39446 13.6284 9.42466 13.6168 9.43812 13.5224C9.45021 13.4376 9.49441 13.411 9.64357 13.3987C9.74809 13.39 9.83361 13.3653 9.83361 13.3438C9.83361 13.3222 9.86782 13.3046 9.90963 13.3046C9.95144 13.3046 9.98565 13.325 9.98565 13.3498C9.98565 13.3747 10.0085 13.381 10.0363 13.3637C10.0642 13.3465 10.087 13.3604 10.087 13.3945C10.087 13.4287 10.1003 13.4434 10.1164 13.4272C10.1327 13.411 10.1204 13.3502 10.0893 13.2921C10.0457 13.2105 10.0476 13.1855 10.0979 13.1826C10.2713 13.1726 10.4188 13.1263 10.4938 13.0585C10.5949 12.967 10.6782 12.9626 10.7124 13.047C10.7327 13.0972 10.7473 13.0973 10.7825 13.0478C10.8172 12.9988 10.8498 13.0013 10.9322 13.059C11.0549 13.1449 11.1263 13.3958 11.0161 13.3535C10.9705 13.336 10.9574 13.3533 10.9772 13.4048C11.003 13.472 10.845 13.6931 10.7712 13.6931C10.7188 13.6931 10.5528 13.8886 10.5811 13.917C10.6091 13.945 10.4953 13.9659 10.3497 13.9596C10.313 13.9581 10.2943 13.968 10.3083 13.982C10.3222 13.9959 10.2613 14.078 10.1729 14.1643C10.0759 14.2591 10.0489 14.3073 10.1046 14.2859C10.167 14.262 10.19 14.271 10.1757 14.3139C10.1641 14.3488 10.0995 14.3773 10.0321 14.3773C9.88039 14.3773 9.78668 14.4548 9.82323 14.55C9.83896 14.591 9.82862 14.6082 9.79922 14.5901C9.74476 14.5564 9.52954 14.7293 9.52954 14.8067C9.52954 14.8316 9.46683 14.8592 9.39018 14.868C9.31352 14.8769 9.25624 14.9118 9.26287 14.9456C9.2695 14.9794 9.24395 14.9952 9.20606 14.9807C9.14339 14.9566 9.06032 15.0706 9.08749 15.1434C9.0937 15.16 9.01959 15.2111 8.92281 15.2569C8.82603 15.3027 8.71804 15.3972 8.68283 15.4669C8.64763 15.5366 8.61849 15.5658 8.61808 15.5318C8.6177 15.4979 8.58654 15.4819 8.5489 15.4963C8.46216 15.5296 8.46696 15.801 8.55398 15.7836C8.58882 15.7766 8.61733 15.7889 8.61733 15.8108C8.61733 15.8328 8.66294 15.8542 8.71868 15.8584C8.77443 15.8626 8.82004 15.8446 8.82004 15.8185C8.82004 15.7923 8.86494 15.771 8.91981 15.771C8.98767 15.771 9.01024 15.7953 8.9904 15.847C8.97435 15.8888 8.98648 15.923 9.01733 15.923C9.04819 15.923 9.07341 15.8975 9.07341 15.8664ZM9.52952 15.4669C9.52952 15.439 9.55232 15.4162 9.5802 15.4162C9.60807 15.4162 9.63088 15.439 9.63088 15.4669C9.63088 15.4948 9.60807 15.5176 9.5802 15.5176C9.55232 15.5176 9.52952 15.4948 9.52952 15.4669ZM10.087 15.1628C10.087 15.1349 10.1225 15.1121 10.166 15.1121C10.2094 15.1121 10.2309 15.1349 10.2137 15.1628C10.1965 15.1907 10.1609 15.2135 10.1347 15.2135C10.1084 15.2135 10.087 15.1907 10.087 15.1628ZM12.292 14.1484C12.3095 14.1201 12.3451 14.11 12.371 14.1261C12.4413 14.1695 12.4282 14.1999 12.3392 14.1999C12.2957 14.1999 12.2745 14.1767 12.292 14.1484ZM13.5584 13.4397C13.5412 13.4119 13.5513 13.3891 13.5808 13.3891C13.6103 13.3891 13.6345 13.4119 13.6345 13.4397C13.6345 13.4676 13.6244 13.4904 13.6121 13.4904C13.5998 13.4904 13.5757 13.4676 13.5584 13.4397ZM11.7701 11.6466C11.5762 11.4551 11.5566 11.2702 11.7007 10.9923C11.7769 10.8455 11.8525 10.7592 11.8918 10.7743C11.9326 10.79 11.9464 10.7718 11.9287 10.7259C11.9113 10.6805 11.9317 10.6524 11.982 10.6524C12.0268 10.6524 12.0634 10.6281 12.0634 10.5983C12.0634 10.5673 12.1066 10.558 12.1648 10.5764C12.2388 10.5999 12.2661 10.5855 12.2661 10.5232C12.2661 10.4629 12.2958 10.4456 12.3675 10.4644C12.4233 10.479 12.4689 10.4732 12.4689 10.4516C12.4689 10.43 12.5373 10.4203 12.6209 10.43C12.7317 10.4429 12.7729 10.4266 12.7729 10.3697C12.7729 10.3196 12.7956 10.3061 12.8363 10.3319C12.909 10.3781 12.8869 10.372 13.1613 10.4224C13.379 10.4625 13.4311 10.5301 13.4555 10.8045C13.4669 10.9321 13.3483 11.2061 13.2544 11.2693C13.2265 11.288 13.1125 11.3849 13.001 11.4846C12.8895 11.5844 12.7641 11.6677 12.7223 11.6698C12.6804 11.672 12.6006 11.6837 12.5449 11.6959C12.2824 11.7533 12.1407 11.758 12.0552 11.7123C11.9927 11.6788 11.9621 11.6797 11.9621 11.7149C11.9621 11.7955 11.8975 11.7726 11.7701 11.6466ZM12.6716 11.3708C12.9314 11.2767 13.1439 11.0543 13.1669 10.8525C13.1798 10.7395 13.1576 10.7082 13.0411 10.6755C12.9633 10.6537 12.8815 10.6399 12.8594 10.6449C12.8372 10.6499 12.7574 10.6563 12.682 10.6591C12.4939 10.6663 12.0152 10.9091 11.9499 11.0304C11.8013 11.3067 11.9493 11.5236 12.2569 11.48C12.3595 11.4654 12.5461 11.4163 12.6716 11.3708ZM12.1521 11.2763C12.0188 11.2415 12.0436 11.1857 12.2535 11.0484C12.5084 10.8816 12.62 10.836 12.7856 10.8308C13.0649 10.8219 12.8611 11.1081 12.5009 11.2303C12.3699 11.2748 12.2577 11.3086 12.2517 11.3054C12.2457 11.3021 12.2009 11.2891 12.1521 11.2763ZM14.5773 10.0144C14.5286 9.88751 14.5994 9.82539 14.6766 9.92723C14.7662 10.0454 14.7668 10.095 14.6788 10.095C14.64 10.095 14.5943 10.0587 14.5773 10.0144ZM12.8996 9.0814C12.8824 9.05353 12.8925 9.03072 12.922 9.03072C12.9515 9.03072 12.9756 9.05353 12.9756 9.0814C12.9756 9.10928 12.9656 9.13208 12.9533 9.13208C12.941 9.13208 12.9169 9.10928 12.8996 9.0814ZM8.881 15.0935C8.921 15.031 8.58078 14.844 8.50845 14.8887C8.48382 14.9039 8.50313 14.9832 8.55139 15.0649C8.61813 15.1779 8.66377 15.2057 8.74224 15.1813C8.79895 15.1636 8.8614 15.1241 8.881 15.0935ZM11.1005 15.1121C11.1304 15.0564 11.1434 15.0108 11.1295 15.0108C11.1155 15.0108 11.0797 15.0564 11.0499 15.1121C11.02 15.1679 11.007 15.2135 11.021 15.2135C11.0349 15.2135 11.0707 15.1679 11.1005 15.1121ZM7.62799 14.7194C7.55865 14.5172 7.46073 14.4643 7.31393 14.5497C7.26428 14.5786 7.25216 14.603 7.287 14.6038C7.32184 14.6046 7.35035 14.6302 7.35035 14.6606C7.35035 14.7275 7.55579 14.9054 7.63578 14.9077C7.67705 14.9089 7.67487 14.8561 7.62799 14.7194ZM9.3997 14.7102C9.48531 14.6156 9.48135 14.6087 9.28288 14.5074C9.03681 14.3819 9.02274 14.3805 9.02274 14.481C9.02274 14.5487 9.23569 14.8081 9.29131 14.8081C9.30219 14.8081 9.35097 14.764 9.3997 14.7102ZM8.21188 14.6053C8.18205 14.5496 8.17064 14.504 8.18654 14.504C8.20244 14.504 8.19104 14.4584 8.1612 14.4026C8.09459 14.2782 7.90781 14.2664 7.90781 14.3867C7.90781 14.4913 8.10257 14.7067 8.19716 14.7067C8.25042 14.7067 8.25377 14.6836 8.21188 14.6053ZM8.8707 14.405C8.8707 14.3303 8.75163 14.0772 8.69895 14.0399C8.6154 13.9808 8.51595 14.0554 8.51595 14.1771C8.51595 14.2423 8.56664 14.331 8.62858 14.3744C8.75523 14.4631 8.8707 14.4777 8.8707 14.405ZM9.84963 14.3296C9.95994 14.246 9.96637 14.2003 9.87593 14.143C9.78992 14.0885 9.52952 14.0854 9.52952 14.1389C9.52952 14.1871 9.69595 14.4017 9.73223 14.4004C9.74618 14.3998 9.799 14.368 9.84963 14.3296ZM6.69153 14.2506C6.69153 14.2227 6.68147 14.1999 6.66918 14.1999C6.65688 14.1999 6.63274 14.2227 6.61551 14.2506C6.59829 14.2785 6.60835 14.3013 6.63786 14.3013C6.66738 14.3013 6.69153 14.2785 6.69153 14.2506ZM8.46527 14.1298C8.46527 14.1191 8.41963 14.0985 8.36385 14.0839C8.30806 14.0693 8.2752 14.078 8.29082 14.1033C8.3181 14.1474 8.46527 14.1698 8.46527 14.1298ZM9.34025 14.0352C9.29799 13.8615 9.17095 13.7346 9.09907 13.7942C9.06589 13.8218 9.02603 13.8316 9.01048 13.816C8.99492 13.8005 8.96682 13.8126 8.94802 13.8431C8.92922 13.8735 8.93265 13.8925 8.95561 13.8853C8.97859 13.8781 9.05906 13.9345 9.13445 14.0107C9.30094 14.179 9.37745 14.1881 9.34025 14.0352ZM9.88427 13.7535C9.88427 13.6752 9.85306 13.5685 9.81492 13.5163C9.74809 13.4249 9.74333 13.4257 9.68388 13.5368C9.6308 13.6359 9.63817 13.669 9.73672 13.7739C9.88037 13.9268 9.88427 13.9263 9.88427 13.7535ZM10.4362 13.7915C10.5029 13.736 10.5397 13.6741 10.518 13.6539C10.4963 13.6337 10.4683 13.6458 10.4558 13.6808C10.4393 13.7271 10.3926 13.7157 10.2851 13.6392C10.1604 13.5504 10.1327 13.5457 10.1082 13.6096C10.0721 13.7037 10.1705 13.8964 10.2535 13.8942C10.2873 13.8932 10.3696 13.8471 10.4362 13.7915ZM10.766 13.5031C10.7344 13.367 10.619 13.237 10.5299 13.237C10.438 13.237 10.5223 13.4671 10.6318 13.5151C10.6945 13.5426 10.7458 13.5825 10.7458 13.6038C10.7458 13.6251 10.7576 13.6425 10.7721 13.6425C10.7866 13.6425 10.7838 13.5797 10.766 13.5031ZM14.8761 12.6289C14.8933 12.601 14.8832 12.5782 14.8537 12.5782C14.8242 12.5782 14.8001 12.601 14.8001 12.6289C14.8001 12.6568 14.8101 12.6796 14.8224 12.6796C14.8347 12.6796 14.8589 12.6568 14.8761 12.6289ZM8.62377 12.4388C8.68811 12.3568 8.68572 12.3557 8.59197 12.4245C8.53622 12.4654 8.48111 12.5053 8.4695 12.5132C8.45789 12.5211 8.4722 12.5275 8.5013 12.5275C8.53041 12.5275 8.58552 12.4876 8.62377 12.4388ZM15.1041 12.3248C15.1041 12.2969 15.0813 12.2741 15.0535 12.2741C15.0256 12.2741 15.0028 12.2969 15.0028 12.3248C15.0028 12.3527 15.0256 12.3755 15.0535 12.3755C15.0813 12.3755 15.1041 12.3527 15.1041 12.3248ZM9.4535 11.7674C9.47072 11.7395 9.46202 11.7167 9.43414 11.7167C9.40627 11.7167 9.36937 11.7395 9.35214 11.7674C9.33492 11.7952 9.34362 11.818 9.3715 11.818C9.39938 11.818 9.43627 11.7952 9.4535 11.7674ZM15.3415 11.7072C15.3253 11.6667 15.3133 11.6788 15.3108 11.7378C15.3086 11.7912 15.3206 11.8212 15.3375 11.8043C15.3543 11.7875 15.3561 11.7438 15.3415 11.7072ZM15.4082 11.511C15.4082 11.4847 15.3854 11.4633 15.3575 11.4633C15.3297 11.4633 15.3068 11.4988 15.3068 11.5423C15.3068 11.5857 15.3297 11.6072 15.3575 11.59C15.3854 11.5728 15.4082 11.5372 15.4082 11.511ZM15.4589 11.2889C15.4589 11.2766 15.4361 11.2525 15.4082 11.2352C15.3803 11.218 15.3575 11.2281 15.3575 11.2576C15.3575 11.2871 15.3803 11.3113 15.4082 11.3113C15.4361 11.3113 15.4589 11.3012 15.4589 11.2889ZM15.1483 10.5452C15.0919 10.5088 15.0912 10.4924 15.1445 10.4579C15.1977 10.4236 15.1964 10.4039 15.1378 10.3553C15.0807 10.3079 15.059 10.3115 15.0356 10.3724C15.0012 10.4622 15.0473 10.6109 15.1258 10.6635C15.1557 10.6835 15.1886 10.6751 15.199 10.645C15.2094 10.6148 15.1865 10.5699 15.1483 10.5452ZM10.2781 10.5099C10.3085 10.4187 10.2037 10.4379 10.1684 10.53C10.1494 10.5793 10.1608 10.6025 10.1978 10.5902C10.2309 10.5791 10.267 10.543 10.2781 10.5099ZM10.6314 10.3363C10.6381 10.2472 10.6297 10.2391 10.5923 10.2983C10.5337 10.391 10.5301 10.4497 10.583 10.4497C10.6049 10.4497 10.6267 10.3987 10.6314 10.3363ZM15.1717 9.97198C15.187 9.93221 15.1684 9.87389 15.1304 9.84239C15.0748 9.79621 15.0671 9.80685 15.0908 9.89729C15.111 9.97455 15.1018 9.99818 15.0614 9.97321C15.0292 9.95327 15.0028 9.9611 15.0028 9.99062C15.0028 10.0706 15.1397 10.0555 15.1717 9.97198ZM13.3904 7.90482C13.354 7.86846 13.3304 7.86546 13.3304 7.89722C13.3304 7.96486 13.3903 8.0248 13.4241 7.99097C13.4386 7.97657 13.4234 7.9378 13.3904 7.90482ZM13.2077 7.67387C13.1204 7.59029 13.1193 7.59137 13.1834 7.69812C13.2203 7.75956 13.2614 7.79893 13.2748 7.7856C13.2881 7.77227 13.2579 7.72199 13.2077 7.67387ZM17.5874 22.7139C17.5874 22.686 17.6115 22.6632 17.641 22.6632C17.6706 22.6632 17.6806 22.686 17.6634 22.7139C17.6462 22.7417 17.622 22.7646 17.6097 22.7646C17.5974 22.7646 17.5874 22.7417 17.5874 22.7139Z" fill="#E85660"/>
</svg>
