<svg width="482" height="482" viewBox="0 0 482 482" fill="none" xmlns="http://www.w3.org/2000/svg">
<circle cx="241.038" cy="241.014" r="240.241" fill="#061F31"/>
<path fill-rule="evenodd" clip-rule="evenodd" d="M308.27 60.3846L236.807 47.7837L231.691 76.799L194.593 70.2577L183.391 133.79C137.359 151.288 101.438 191.873 92.265 243.893C78.3999 322.526 130.905 397.511 209.538 411.376C288.171 425.241 363.155 372.736 377.021 294.103C386.193 242.083 366.319 191.66 329.049 159.474L340.251 95.9412L303.154 89.3998L308.27 60.3846ZM191.919 156.223L204.659 151.38L214.061 98.0606L312.448 115.409L303.047 168.729L313.362 177.638C344.5 204.529 361.03 246.58 353.385 289.936C341.822 355.515 279.285 399.304 213.705 387.741C148.126 376.177 104.337 313.64 115.9 248.061C123.545 204.705 153.461 170.843 191.919 156.223Z" fill="#61646B" stroke="#61646B" stroke-width="10"/>
<path fill-rule="evenodd" clip-rule="evenodd" d="M298.968 259.122L258.503 251.987L265.638 211.523C267.609 200.344 260.147 189.693 248.974 187.723C237.8 185.753 227.145 193.209 225.174 204.388L218.039 244.852L177.575 237.717C166.401 235.747 155.746 243.204 153.775 254.382C151.804 265.56 159.266 276.211 170.44 278.182L210.904 285.317L203.769 325.781C201.798 336.959 209.261 347.61 220.434 349.581C231.607 351.551 242.262 344.094 244.234 332.916L251.368 292.452L291.833 299.586C303.006 301.557 313.662 294.1 315.633 282.922C317.604 271.743 310.141 261.092 298.968 259.122Z" fill="#61646B"/>
</svg>
