<svg width="482" height="481" viewBox="0 0 482 481" fill="none" xmlns="http://www.w3.org/2000/svg">
<circle cx="241.038" cy="240.313" r="240.241" fill="#061F31"/>
<path fill-rule="evenodd" clip-rule="evenodd" d="M308.27 59.6844L236.807 47.0835L231.691 76.0988L194.593 69.5575L183.391 133.089C137.359 150.588 101.438 191.173 92.265 243.193C78.3999 321.826 130.905 396.811 209.538 410.676C288.171 424.541 363.155 372.036 377.021 293.403C386.193 241.383 366.319 190.96 329.049 158.773L340.251 95.241L303.154 88.6997L308.27 59.6844ZM191.919 155.523L204.659 150.68L214.061 97.3604L312.448 114.709L303.047 168.029L313.362 176.937C344.5 203.829 361.03 245.88 353.385 289.235C341.822 354.815 279.285 398.604 213.705 387.04C148.126 375.477 104.337 312.94 115.9 247.36C123.545 204.004 153.461 170.143 191.919 155.523Z" fill="#9BE379" stroke="#9BE379" stroke-width="10"/>
<path fill-rule="evenodd" clip-rule="evenodd" d="M298.968 258.422L258.503 251.287L265.638 210.823C267.609 199.644 260.147 188.993 248.974 187.023C237.8 185.053 227.145 192.509 225.174 203.688L218.039 244.152L177.575 237.017C166.401 235.047 155.746 242.503 153.775 253.682C151.804 264.86 159.266 275.511 170.44 277.481L210.904 284.616L203.769 325.081C201.798 336.259 209.261 346.91 220.434 348.88C231.607 350.851 242.262 343.394 244.234 332.216L251.368 291.751L291.833 298.886C303.006 300.856 313.662 293.4 315.633 282.222C317.604 271.043 310.141 260.392 298.968 258.422Z" fill="#9BE379"/>
</svg>
