<svg width="20" height="25" viewBox="0 0 20 25" fill="none" xmlns="http://www.w3.org/2000/svg">
<path d="M16.9378 3.94947C15.0531 2.06862 12.5732 1.03369 9.95215 1.03369H9.93444C7.29805 1.03838 4.77123 2.08898 2.90867 3.95485C1.04612 5.82073 2.45039e-05 8.34941 2.8675e-05 10.9858V15.8025C-0.00294269 16.5685 0.225075 17.3176 0.65432 17.9521C1.08357 18.5865 1.6941 19.0768 2.40624 19.359L3.54069 19.8097C3.65915 19.8567 3.76393 19.9326 3.84543 20.0306C3.92693 20.1286 3.98255 20.2454 4.00719 20.3705L4.48566 22.769C4.55576 23.1157 4.74341 23.4276 5.01689 23.6519C5.29037 23.8762 5.63291 23.9992 5.98661 24.0001H6.50718C6.6087 24.0001 6.70606 23.9598 6.77785 23.888C6.84963 23.8162 6.88996 23.7189 6.88996 23.6173V21.725C6.88996 21.3131 7.2067 20.9595 7.61866 20.9389C7.72217 20.9339 7.82562 20.95 7.92273 20.9862C8.01984 21.0223 8.10859 21.0778 8.18362 21.1493C8.25864 21.2208 8.31837 21.3068 8.35918 21.402C8.39999 21.4973 8.42104 21.5998 8.42105 21.7035V23.6173C8.42105 23.7189 8.46138 23.8162 8.53316 23.888C8.60495 23.9598 8.70231 24.0001 8.80383 24.0001C8.90534 24.0001 9.0027 23.9598 9.07449 23.888C9.14627 23.8162 9.1866 23.7189 9.1866 23.6173V21.725C9.1866 21.3131 9.50334 20.9595 9.91531 20.9389C10.0188 20.9339 10.1223 20.95 10.2194 20.9862C10.3165 21.0223 10.4052 21.0778 10.4803 21.1493C10.5553 21.2208 10.615 21.3068 10.6558 21.402C10.6966 21.4973 10.7177 21.5998 10.7177 21.7035V23.6173C10.7177 23.7189 10.758 23.8162 10.8298 23.888C10.9016 23.9598 10.999 24.0001 11.1005 24.0001C11.202 24.0001 11.2993 23.9598 11.3711 23.888C11.4429 23.8162 11.4832 23.7189 11.4832 23.6173V21.725C11.4832 21.3131 11.8 20.9595 12.2119 20.9389C12.3155 20.9339 12.4189 20.95 12.516 20.9862C12.6131 21.0223 12.7019 21.0778 12.7769 21.1493C12.8519 21.2208 12.9117 21.3068 12.9525 21.402C12.9933 21.4973 13.0143 21.5998 13.0143 21.7035V23.6173C13.0143 23.7189 13.0547 23.8162 13.1265 23.888C13.1982 23.9598 13.2956 24.0001 13.3971 24.0001H13.9177C14.2714 23.9993 14.614 23.8764 14.8876 23.6522C15.1611 23.428 15.3489 23.1162 15.4191 22.7695L15.8976 20.3705C15.9225 20.2456 15.9782 20.129 16.0595 20.031C16.1409 19.9331 16.2454 19.8571 16.3636 19.8097L17.4981 19.359C18.2102 19.0768 18.8207 18.5865 19.25 17.9521C19.6792 17.3176 19.9072 16.5685 19.9043 15.8025V11.0657C19.9043 8.3863 18.8516 5.85951 16.9378 3.94947ZM5.91675 16.3389C5.37305 16.3745 4.8314 16.2435 4.36406 15.9634C3.89671 15.6833 3.52588 15.2673 3.30102 14.771C3.07615 14.2747 3.00795 13.7216 3.1055 13.1855C3.20304 12.6495 3.46171 12.1559 3.84699 11.7706C4.23227 11.3853 4.72586 11.1266 5.26194 11.0291C5.79801 10.9315 6.35108 10.9997 6.84739 11.2246C7.3437 11.4495 7.75966 11.8203 8.03979 12.2876C8.31993 12.755 8.45092 13.2966 8.41531 13.8403C8.37282 14.489 8.09594 15.1002 7.63626 15.5598C7.17658 16.0195 6.56545 16.2964 5.91675 16.3389ZM11.1483 19.2753C11.0167 19.3631 10.8616 19.4089 10.7033 19.4068H9.20095C9.04307 19.4087 8.8883 19.3629 8.75694 19.2753C8.62863 19.1883 8.52974 19.0644 8.47335 18.92C8.41696 18.7757 8.40573 18.6176 8.44115 18.4666L9.20239 16.1891C9.33014 15.8662 9.53349 15.6269 9.85645 15.5853C10.2517 15.5375 10.5263 15.7226 10.699 16.17L11.4646 18.4666C11.4999 18.6176 11.4886 18.7757 11.4322 18.9201C11.3757 19.0645 11.2767 19.1884 11.1483 19.2753ZM14.3387 16.3389C13.795 16.3745 13.2534 16.2435 12.786 15.9634C12.3187 15.6833 11.9479 15.2673 11.723 14.771C11.4981 14.2747 11.4299 13.7216 11.5275 13.1855C11.625 12.6495 11.8837 12.1559 12.269 11.7706C12.6543 11.3853 13.1478 11.1266 13.6839 11.0291C14.22 10.9315 14.7731 10.9997 15.2694 11.2246C15.7657 11.4495 16.1816 11.8203 16.4618 12.2876C16.7419 12.755 16.8729 13.2966 16.8373 13.8403C16.7948 14.4892 16.5178 15.1004 16.0579 15.5602C15.598 16.0199 14.9876 16.2966 14.3387 16.3389Z" fill="#F4CE7B"/>
<rect x="2.07129" y="9.68359" width="6.65951" height="7.1939" fill="#F4CE7B"/>
<rect x="11.0312" y="9.68359" width="6.65951" height="7.1939" fill="#F4CE7B"/>
<path d="M5.2324 10.209C5.44455 9.84479 5.97076 9.84479 6.18292 10.209L6.94846 11.5234C7.02618 11.6568 7.1564 11.7514 7.30732 11.7841L8.79391 12.106C9.20588 12.1952 9.36849 12.6957 9.08763 13.01L8.07418 14.1443C7.97129 14.2594 7.92155 14.4125 7.9371 14.5661L8.09033 16.0794C8.13279 16.4988 7.70707 16.8081 7.32134 16.6381L5.92944 16.0248C5.78814 15.9625 5.62717 15.9625 5.48587 16.0248L4.09398 16.6381C3.70824 16.8081 3.28253 16.4988 3.32499 16.0794L3.47821 14.5661C3.49376 14.4125 3.44402 14.2594 3.34114 14.1443L2.32768 13.01C2.04682 12.6957 2.20943 12.1952 2.62141 12.106L4.108 11.7841C4.25891 11.7514 4.38914 11.6568 4.46685 11.5234L5.2324 10.209Z" fill="#193143"/>
<path d="M13.6924 10.209C13.9045 9.84479 14.4307 9.84479 14.6429 10.209L15.4084 11.5234C15.4861 11.6568 15.6164 11.7514 15.7673 11.7841L17.2539 12.106C17.6658 12.1952 17.8285 12.6957 17.5476 13.01L16.5341 14.1443C16.4313 14.2594 16.3815 14.4125 16.3971 14.5661L16.5503 16.0794C16.5927 16.4988 16.167 16.8081 15.7813 16.6381L14.3894 16.0248C14.2481 15.9625 14.0871 15.9625 13.9458 16.0248L12.5539 16.6381C12.1682 16.8081 11.7425 16.4988 11.7849 16.0794L11.9382 14.5661C11.9537 14.4125 11.904 14.2594 11.8011 14.1443L10.7876 13.01C10.5068 12.6957 10.6694 12.1952 11.0814 12.106L12.568 11.7841C12.7189 11.7514 12.8491 11.6568 12.9268 11.5234L13.6924 10.209Z" fill="#193143"/>
</svg>
