<svg width="9" height="10" viewBox="0 0 9 10" fill="none" xmlns="http://www.w3.org/2000/svg">
<path d="M5.04262 4.29519L4.70303 3.70762C4.6717 3.65434 4.62713 3.61018 4.57329 3.5795C4.54284 3.56211 4.51018 3.5494 4.4762 3.54164C4.45038 3.53571 4.42391 3.53268 4.39699 3.53268C4.3352 3.53268 4.27452 3.54882 4.2209 3.5795C4.16706 3.61018 4.12227 3.65434 4.09094 3.70762L3.74032 4.29966C3.7156 4.34357 3.68162 4.38153 3.6408 4.41087C3.59976 4.4402 3.55298 4.46021 3.50333 4.46945L2.8332 4.60127C2.77252 4.61244 2.71625 4.63979 2.66992 4.6804C2.64211 4.70485 2.6185 4.73357 2.59997 4.76534C2.58761 4.78633 2.57768 4.80867 2.57018 4.83199C2.55098 4.89058 2.54834 4.95322 2.56202 5.01328C2.5757 5.07335 2.60527 5.1286 2.64785 5.1732L3.11696 5.66917C3.15117 5.70516 3.17676 5.74827 3.19221 5.79541C3.20765 5.84254 3.21251 5.89252 3.20633 5.94173L3.12579 6.61197C3.11939 6.67403 3.12954 6.73672 3.15536 6.79355C3.18096 6.85039 3.22156 6.89931 3.27253 6.93529C3.3235 6.97126 3.3833 6.99298 3.4453 6.99819C3.50752 7.0034 3.56997 6.99193 3.62624 6.96496L4.254 6.68122C4.26989 6.67407 4.28622 6.6681 4.30277 6.66334C4.33476 6.65411 4.36808 6.64939 4.40162 6.64939C4.45237 6.64939 4.50268 6.66025 4.54902 6.68122L5.17678 6.96496C5.23283 6.99084 5.29483 7.00144 5.35639 6.99569C5.41774 6.98994 5.47665 6.96805 5.52718 6.93223C5.57749 6.8964 5.61743 6.84792 5.64303 6.79168C5.6545 6.76626 5.66288 6.73966 5.66818 6.71246C5.67458 6.67949 5.67612 6.64565 5.67281 6.61197L5.59228 5.94173C5.58874 5.91374 5.58897 5.88549 5.5925 5.85767C5.59514 5.83658 5.59978 5.81573 5.6064 5.79541C5.62184 5.74827 5.64744 5.70516 5.68164 5.66917L6.15075 5.1732C6.17547 5.14703 6.19599 5.11723 6.21143 5.08497C6.22247 5.06188 6.23085 5.03752 6.23637 5.01233C6.24983 4.95196 6.24652 4.88908 6.2271 4.83037C6.21717 4.80054 6.20327 4.77237 6.18584 4.74657C6.16885 4.72161 6.14877 4.69886 6.12582 4.67902C6.07882 4.63867 6.02189 4.6118 5.96099 4.60127L5.27961 4.46498C5.22996 4.45574 5.18318 4.43573 5.14236 4.4064C5.10132 4.37706 5.06734 4.33909 5.04262 4.29519Z" fill="#F4CE7B"/>
<path fill-rule="evenodd" clip-rule="evenodd" d="M0.254404 5.19859C0.254404 5.40033 0.190194 5.61106 0.126645 5.81941C0.0419134 6.09793 -0.0417149 6.37219 0.0311013 6.61502C0.105462 6.86302 0.348404 7.04391 0.591124 7.22453C0.763677 7.35306 0.936008 7.48144 1.04744 7.63378C1.15777 7.78468 1.22661 7.98106 1.2959 8.17875C1.39475 8.46104 1.49449 8.746 1.71779 8.90499C1.94308 9.0654 2.24317 9.06848 2.54194 9.07154C2.74671 9.07363 2.95081 9.07572 3.12976 9.1284C3.31798 9.18383 3.49098 9.31077 3.66441 9.43792C3.89654 9.60804 4.12911 9.77853 4.39875 9.77853C4.677 9.77853 4.92479 9.60424 5.1684 9.4329C5.33764 9.3139 5.5049 9.19633 5.67877 9.13956C5.8575 9.08127 6.0711 9.07759 6.28579 9.07388C6.58103 9.06879 6.87869 9.06365 7.09074 8.91616C7.30301 8.76866 7.40055 8.49228 7.4994 8.21243C7.57111 8.00906 7.64349 7.80386 7.7611 7.64495C7.87694 7.4882 8.04486 7.36187 8.21189 7.23623C8.44711 7.05923 8.68057 6.88359 8.76419 6.62619C8.84716 6.37047 8.76221 6.09289 8.67637 5.81272C8.61437 5.61067 8.55192 5.40728 8.55192 5.20976C8.55192 5.01089 8.61437 4.80327 8.67615 4.5978C8.76088 4.31624 8.84429 4.03873 8.76419 3.79333C8.68321 3.54528 8.44204 3.36055 8.20197 3.17672C8.0314 3.04598 7.86127 2.91569 7.74984 2.76341C7.63951 2.61249 7.57067 2.41608 7.50161 2.21837C7.40275 1.9361 7.30302 1.65117 7.07971 1.49219C6.85442 1.33178 6.55411 1.3287 6.25534 1.32565C6.0508 1.32355 5.84669 1.32146 5.66774 1.26878C5.4793 1.21334 5.30609 1.08635 5.13265 0.959165C4.90074 0.789074 4.66839 0.618652 4.39875 0.618652C4.12073 0.618652 3.87293 0.792881 3.62911 0.964192C3.45986 1.08321 3.29261 1.20082 3.11851 1.25761C2.94 1.31591 2.72641 1.31959 2.51171 1.32329C2.21647 1.32839 1.91881 1.33353 1.70654 1.48102C1.49449 1.62854 1.39674 1.90498 1.29788 2.18488C1.22617 2.38821 1.1538 2.59337 1.03641 2.75224C0.920563 2.90893 0.752644 3.03523 0.585608 3.16083C0.350389 3.33787 0.116936 3.51353 0.0333079 3.77099C-0.0496585 4.02622 0.0379416 4.30701 0.126204 4.58981C0.190194 4.79466 0.254404 5.00057 0.254404 5.19859ZM4.39897 2.21968C2.71648 2.21968 1.35261 3.58358 1.35261 5.26605C1.35261 6.94851 2.71648 8.31242 4.39897 8.31242C6.08147 8.31242 7.44534 6.94851 7.44534 5.26605C7.44534 3.58358 6.08147 2.21968 4.39897 2.21968Z" fill="#F4CE7B"/>
</svg>
