<svg width="18" height="25" viewBox="0 0 18 25" fill="none" xmlns="http://www.w3.org/2000/svg">
<path d="M12.8618 1.80117L6.96163 9.9221C6.36011 10.75 5.08664 10.6358 4.63566 9.71705C4.15538 8.73847 3.57491 7.76471 2.9506 6.78931C2.23218 5.66686 0.881364 5.78226 0.290431 6.59561C-0.00959945 7.00856 -0.115179 7.60024 0.157109 8.30116C0.966018 10.3827 2.50306 12.317 2.44887 13.9672C2.4152 14.9873 1.9557 17.6674 1.77632 18.7082C1.73127 18.9701 1.82302 19.2556 2.03799 19.4118L8.00906 23.75C8.29212 23.9557 8.69927 23.8984 8.94042 23.6449L10.9839 21.4942C11.0564 21.4181 11.1495 21.354 11.2478 21.3168C14.1043 20.2359 15.7304 19.1719 16.7291 17.7973C16.943 17.5029 17.129 17.1931 17.2915 16.8667C18.2637 14.9141 17.2309 13.7474 16.6822 13.3019C16.5129 13.1646 16.414 12.9556 16.4253 12.7378C16.4959 11.3734 15.5489 10.7779 14.9414 10.5375C14.675 10.4321 14.4937 10.1794 14.4932 9.89299C14.4909 8.81962 13.842 8.25198 13.2794 7.95685C12.9004 7.75802 12.7917 7.27954 13.0434 6.9332L15.4211 3.66057C16.6606 1.9544 14.1014 0.0950596 12.8618 1.80117Z" fill="#FF744B"/>
</svg>
