<svg width="20" height="25" viewBox="0 0 20 25" fill="none" xmlns="http://www.w3.org/2000/svg">
<path d="M19.0347 15.8172C19.0347 20.8786 15.92 23.0996 13.5132 23.8486C13 24.0082 12.6626 23.41 12.9696 22.9687C14.017 21.4635 15.2277 19.1671 15.2277 17.0068C15.2277 14.6863 13.2718 11.9466 11.7445 10.2568C11.3953 9.87049 10.7864 10.126 10.7673 10.6465C10.7041 12.3706 10.4321 14.6772 9.25894 16.485C9.07014 16.776 8.66934 16.8001 8.45413 16.528C8.08759 16.0644 7.72106 15.4918 7.35452 15.0394C7.15703 14.7957 6.80018 14.7924 6.57244 15.0079C5.68452 15.8487 4.44142 17.1598 4.44142 18.7913C4.44142 19.8976 4.87002 21.0574 5.35358 21.9905C5.6196 22.5038 5.14658 23.1217 4.63462 22.8531C2.51385 21.7401 0 19.4856 0 15.8172C0 12.074 5.12781 6.88851 7.08571 1.98957C7.39461 1.21653 8.34682 0.85328 9.00899 1.35775C13.0196 4.41288 19.0347 10.3186 19.0347 15.8172Z" fill="#FFCF4A"/>
</svg>
