<svg width="19" height="25" viewBox="0 0 19 25" fill="none" xmlns="http://www.w3.org/2000/svg">
<path d="M10.0406 1.41766C10.0406 1.41766 10.0412 1.41817 10.0429 1.41993L10.0418 1.41881L10.055 1.43055C10.0732 1.44666 10.1093 1.47752 10.1653 1.52109C10.2773 1.6082 10.4694 1.74652 10.758 1.91974C11.3352 2.26604 12.3011 2.75324 13.7886 3.24909C15.3103 3.75632 16.3036 4.0028 16.9001 4.12209C17.1979 4.18165 17.3946 4.20908 17.507 4.22157C17.5632 4.2278 17.5979 4.23028 17.6133 4.23118L17.6202 4.23156C18.1842 4.24076 18.6385 4.70077 18.6385 5.26689V12.5152C18.6385 16.0838 16.2759 18.9354 14.143 20.8017C13.0548 21.7538 11.9716 22.498 11.1624 23.0037C10.7567 23.2573 10.4172 23.4526 10.1767 23.5857C9.97191 23.6991 9.77662 23.7747 9.56497 23.8381C9.40468 23.8861 9.23341 23.8878 9.07302 23.84C8.86116 23.7771 8.66639 23.699 8.46178 23.5857C8.22134 23.4526 7.88181 23.2573 7.47611 23.0037C6.66693 22.498 5.58366 21.7538 4.4955 20.8017C2.36269 18.9354 0 16.0838 0 12.5152V5.26689C0 4.70078 0.454314 4.24077 1.01823 4.23156L1.02523 4.23118C1.04064 4.23028 1.07534 4.2278 1.13145 4.22157C1.24387 4.20908 1.44062 4.18165 1.73843 4.12209C2.33493 4.0028 3.32821 3.75632 4.84992 3.24909C6.33744 2.75324 7.30329 2.26604 7.88046 1.91974C8.16915 1.74652 8.36123 1.6082 8.47317 1.52109C8.52919 1.47752 8.56532 1.44666 8.58365 1.43055L8.5967 1.41881C8.99857 1.02706 9.63994 1.02706 10.0418 1.41881L10.0406 1.41766Z" fill="#5A98DF"/>
</svg>
